M48
;DRILL file {KiCad 5.0.2+dfsg1-1} date Tue 11 Aug 2020 12:40:13 AM PDT
;FORMAT={-:-/ absolute / inch / decimal}
FMAT,2
INCH,TZ
T1C0.0118
T2C0.0157
T3C0.0197
T4C0.0394
%
G90
G05
T1
X4.6575Y-2.2913
X4.7165Y-2.8346
X4.7864Y-2.4341
X4.7874Y-2.3268
X4.8307Y-2.4252
X4.8336Y-2.3494
X4.8425Y-2.3228
X4.8459Y-2.3765
X4.8504Y-2.4528
X4.9429Y-2.8724
X5.0443Y-2.6486
X5.0519Y-2.4284
X5.0561Y-3.2346
X5.1083Y-2.932
X5.1122Y-3.0768
X5.1142Y-2.5
X5.1309Y-3.2106
X5.1339Y-2.4291
X5.1339Y-2.7874
X5.2162Y-3.1535
X5.2303Y-3.186
X5.2362Y-2.69
X5.2362Y-2.9016
X5.2402Y-2.4134
X5.2992Y-2.3012
X5.3425Y-2.7874
X5.3543Y-3.0551
X5.3543Y-3.0866
X5.3819Y-3.0512
X5.4213Y-3.0424
X5.4567Y-3.0827
X5.4724Y-3.122
X5.4921Y-2.2795
X5.4921Y-2.3228
X5.4921Y-2.3661
X5.5138Y-2.8031
X5.5157Y-2.4094
X5.5433Y-3.0787
X5.6654Y-2.0709
X5.6693Y-2.311
X5.6772Y-2.2303
X5.7835Y-2.248
X5.7835Y-2.2874
X5.7835Y-2.3425
X5.7874Y-2.0531
X5.7874Y-2.0925
X5.7898Y-3.0177
X5.7902Y-3.1146
X5.8096Y-2.9783
T2
X4.7091Y-2.6307
X4.7764Y-2.7677
X4.7772Y-2.7047
X4.8071Y-3.1575
X4.811Y-3.0433
X4.8122Y-2.8429
X4.9262Y-3.0335
X4.948Y-2.6315
X4.9695Y-3.0768
X5.0433Y-2.3071
X5.0819Y-3.1126
X5.1457Y-2.1988
X5.4606Y-3.189
X5.524Y-3.2642
T3
X4.6429Y-2.5024
X4.6693Y-2.122
X4.7244Y-1.9331
X4.752Y-2.2362
X4.8287Y-2.2313
X4.8307Y-1.9291
X4.8819Y-2.2402
X4.9331Y-1.9803
X4.9331Y-2.2402
X4.937Y-2.122
X4.937Y-2.185
X5.0016Y-3.2264
X5.0906Y-1.9331
X5.0972Y-2.1787
X5.1732Y-2.0866
X5.2717Y-1.9213
X5.374Y-1.9409
X5.4528Y-2.2352
X5.4646Y-1.9409
X5.5108Y-1.9567
X5.6093Y-3.2697
T4
X4.4173Y-2.0118
X4.4173Y-2.1118
X4.4173Y-2.2118
X4.4173Y-2.3118
X4.4173Y-2.4118
X4.4173Y-2.5118
X4.4173Y-2.6118
X4.4173Y-2.7118
X4.4173Y-2.8118
X4.4173Y-2.9118
X4.4173Y-3.0118
X4.4173Y-3.1118
X4.4173Y-3.2118
T0
M30
