%TF.GenerationSoftware,KiCad,Pcbnew,5.0.2+dfsg1-1*%
%TF.CreationDate,2020-08-11T00:40:15-07:00*%
%TF.ProjectId,driver-board-2L,64726976-6572-42d6-926f-6172642d324c,rev?*%
%TF.SameCoordinates,Original*%
%TF.FileFunction,Legend,Top*%
%TF.FilePolarity,Positive*%
%FSLAX46Y46*%
G04 Gerber Fmt 4.6, Leading zero omitted, Abs format (unit mm)*
G04 Created by KiCad (PCBNEW 5.0.2+dfsg1-1) date Tue 11 Aug 2020 12:40:15 AM PDT*
%MOMM*%
%LPD*%
G01*
G04 APERTURE LIST*
%ADD10C,0.150000*%
%ADD11C,0.300000*%
%ADD12C,0.200000*%
%ADD13C,0.120000*%
%ADD14C,0.127000*%
G04 APERTURE END LIST*
D10*
X119789404Y-78010000D02*
X119694166Y-77962380D01*
X119551309Y-77962380D01*
X119408452Y-78010000D01*
X119313214Y-78105238D01*
X119265595Y-78200476D01*
X119217976Y-78390952D01*
X119217976Y-78533809D01*
X119265595Y-78724285D01*
X119313214Y-78819523D01*
X119408452Y-78914761D01*
X119551309Y-78962380D01*
X119646547Y-78962380D01*
X119789404Y-78914761D01*
X119837023Y-78867142D01*
X119837023Y-78533809D01*
X119646547Y-78533809D01*
X120265595Y-78962380D02*
X120265595Y-77962380D01*
X120837023Y-78962380D01*
X120837023Y-77962380D01*
X121313214Y-78962380D02*
X121313214Y-77962380D01*
X121551309Y-77962380D01*
X121694166Y-78010000D01*
X121789404Y-78105238D01*
X121837023Y-78200476D01*
X121884642Y-78390952D01*
X121884642Y-78533809D01*
X121837023Y-78724285D01*
X121789404Y-78819523D01*
X121694166Y-78914761D01*
X121551309Y-78962380D01*
X121313214Y-78962380D01*
X141659404Y-50950000D02*
X141564166Y-50902380D01*
X141421309Y-50902380D01*
X141278452Y-50950000D01*
X141183214Y-51045238D01*
X141135595Y-51140476D01*
X141087976Y-51330952D01*
X141087976Y-51473809D01*
X141135595Y-51664285D01*
X141183214Y-51759523D01*
X141278452Y-51854761D01*
X141421309Y-51902380D01*
X141516547Y-51902380D01*
X141659404Y-51854761D01*
X141707023Y-51807142D01*
X141707023Y-51473809D01*
X141516547Y-51473809D01*
X142135595Y-51902380D02*
X142135595Y-50902380D01*
X142707023Y-51902380D01*
X142707023Y-50902380D01*
X143183214Y-51902380D02*
X143183214Y-50902380D01*
X143421309Y-50902380D01*
X143564166Y-50950000D01*
X143659404Y-51045238D01*
X143707023Y-51140476D01*
X143754642Y-51330952D01*
X143754642Y-51473809D01*
X143707023Y-51664285D01*
X143659404Y-51759523D01*
X143564166Y-51854761D01*
X143421309Y-51902380D01*
X143183214Y-51902380D01*
D11*
X146650000Y-50730000D02*
X146650000Y-49230000D01*
X147361428Y-50098571D02*
X147361428Y-51312857D01*
X147290000Y-51455714D01*
X147218571Y-51527142D01*
X147075714Y-51598571D01*
X146861428Y-51598571D01*
X146718571Y-51527142D01*
X147361428Y-51027142D02*
X147218571Y-51098571D01*
X146932857Y-51098571D01*
X146790000Y-51027142D01*
X146718571Y-50955714D01*
X146647142Y-50812857D01*
X146647142Y-50384285D01*
X146718571Y-50241428D01*
X146790000Y-50170000D01*
X146932857Y-50098571D01*
X147218571Y-50098571D01*
X147361428Y-50170000D01*
D12*
X121000000Y-73500000D02*
G75*
G03X121000000Y-73500000I-100000J0D01*
G01*
X126800000Y-64200000D02*
G75*
G03X126800000Y-64200000I-100000J0D01*
G01*
X131800000Y-52000000D02*
G75*
G03X131800000Y-52000000I-100000J0D01*
G01*
X134600000Y-60400000D02*
G75*
G03X134600000Y-60400000I-100000J0D01*
G01*
X131800000Y-65000000D02*
G75*
G03X131800000Y-65000000I-100000J0D01*
G01*
D10*
X120485714Y-83714285D02*
X120085714Y-83714285D01*
X120085714Y-84342857D02*
X120085714Y-83142857D01*
X120657142Y-83142857D01*
X120942857Y-83142857D02*
X121628571Y-83142857D01*
X121285714Y-84342857D02*
X121285714Y-83142857D01*
X122200000Y-83657142D02*
X122085714Y-83600000D01*
X122028571Y-83542857D01*
X121971428Y-83428571D01*
X121971428Y-83371428D01*
X122028571Y-83257142D01*
X122085714Y-83200000D01*
X122200000Y-83142857D01*
X122428571Y-83142857D01*
X122542857Y-83200000D01*
X122600000Y-83257142D01*
X122657142Y-83371428D01*
X122657142Y-83428571D01*
X122600000Y-83542857D01*
X122542857Y-83600000D01*
X122428571Y-83657142D01*
X122200000Y-83657142D01*
X122085714Y-83714285D01*
X122028571Y-83771428D01*
X121971428Y-83885714D01*
X121971428Y-84114285D01*
X122028571Y-84228571D01*
X122085714Y-84285714D01*
X122200000Y-84342857D01*
X122428571Y-84342857D01*
X122542857Y-84285714D01*
X122600000Y-84228571D01*
X122657142Y-84114285D01*
X122657142Y-83885714D01*
X122600000Y-83771428D01*
X122542857Y-83714285D01*
X122428571Y-83657142D01*
X123800000Y-84342857D02*
X123114285Y-84342857D01*
X123457142Y-84342857D02*
X123457142Y-83142857D01*
X123342857Y-83314285D01*
X123228571Y-83428571D01*
X123114285Y-83485714D01*
X124200000Y-84342857D02*
X124828571Y-83542857D01*
X124200000Y-83542857D02*
X124828571Y-84342857D01*
X114934404Y-81100000D02*
X114839166Y-81052380D01*
X114696309Y-81052380D01*
X114553452Y-81100000D01*
X114458214Y-81195238D01*
X114410595Y-81290476D01*
X114362976Y-81480952D01*
X114362976Y-81623809D01*
X114410595Y-81814285D01*
X114458214Y-81909523D01*
X114553452Y-82004761D01*
X114696309Y-82052380D01*
X114791547Y-82052380D01*
X114934404Y-82004761D01*
X114982023Y-81957142D01*
X114982023Y-81623809D01*
X114791547Y-81623809D01*
X115410595Y-82052380D02*
X115410595Y-81052380D01*
X115982023Y-82052380D01*
X115982023Y-81052380D01*
X116458214Y-82052380D02*
X116458214Y-81052380D01*
X116696309Y-81052380D01*
X116839166Y-81100000D01*
X116934404Y-81195238D01*
X116982023Y-81290476D01*
X117029642Y-81480952D01*
X117029642Y-81623809D01*
X116982023Y-81814285D01*
X116934404Y-81909523D01*
X116839166Y-82004761D01*
X116696309Y-82052380D01*
X116458214Y-82052380D01*
X114934404Y-78575000D02*
X114839166Y-78527380D01*
X114696309Y-78527380D01*
X114553452Y-78575000D01*
X114458214Y-78670238D01*
X114410595Y-78765476D01*
X114362976Y-78955952D01*
X114362976Y-79098809D01*
X114410595Y-79289285D01*
X114458214Y-79384523D01*
X114553452Y-79479761D01*
X114696309Y-79527380D01*
X114791547Y-79527380D01*
X114934404Y-79479761D01*
X114982023Y-79432142D01*
X114982023Y-79098809D01*
X114791547Y-79098809D01*
X115410595Y-79527380D02*
X115410595Y-78527380D01*
X115982023Y-79527380D01*
X115982023Y-78527380D01*
X116458214Y-79527380D02*
X116458214Y-78527380D01*
X116696309Y-78527380D01*
X116839166Y-78575000D01*
X116934404Y-78670238D01*
X116982023Y-78765476D01*
X117029642Y-78955952D01*
X117029642Y-79098809D01*
X116982023Y-79289285D01*
X116934404Y-79384523D01*
X116839166Y-79479761D01*
X116696309Y-79527380D01*
X116458214Y-79527380D01*
X111249880Y-84336904D02*
X111030833Y-83955952D01*
X110792738Y-84336904D02*
X110892738Y-83536904D01*
X111197500Y-83536904D01*
X111268928Y-83575000D01*
X111302261Y-83613095D01*
X111330833Y-83689285D01*
X111316547Y-83803571D01*
X111268928Y-83879761D01*
X111226071Y-83917857D01*
X111145119Y-83955952D01*
X110840357Y-83955952D01*
X111645119Y-83917857D02*
X111911785Y-83917857D01*
X111973690Y-84336904D02*
X111592738Y-84336904D01*
X111692738Y-83536904D01*
X112073690Y-83536904D01*
X112302261Y-83536904D02*
X112468928Y-84336904D01*
X112835595Y-83536904D01*
X113054642Y-83613095D02*
X113097500Y-83575000D01*
X113178452Y-83536904D01*
X113368928Y-83536904D01*
X113440357Y-83575000D01*
X113473690Y-83613095D01*
X113502261Y-83689285D01*
X113492738Y-83765476D01*
X113440357Y-83879761D01*
X112926071Y-84336904D01*
X113421309Y-84336904D01*
X114016547Y-83536904D02*
X114092738Y-83536904D01*
X114164166Y-83575000D01*
X114197500Y-83613095D01*
X114226071Y-83689285D01*
X114245119Y-83841666D01*
X114221309Y-84032142D01*
X114164166Y-84184523D01*
X114116547Y-84260714D01*
X114073690Y-84298809D01*
X113992738Y-84336904D01*
X113916547Y-84336904D01*
X113845119Y-84298809D01*
X113811785Y-84260714D01*
X113783214Y-84184523D01*
X113764166Y-84032142D01*
X113787976Y-83841666D01*
X113845119Y-83689285D01*
X113892738Y-83613095D01*
X113935595Y-83575000D01*
X114016547Y-83536904D01*
X114778452Y-83536904D02*
X114854642Y-83536904D01*
X114926071Y-83575000D01*
X114959404Y-83613095D01*
X114987976Y-83689285D01*
X115007023Y-83841666D01*
X114983214Y-84032142D01*
X114926071Y-84184523D01*
X114878452Y-84260714D01*
X114835595Y-84298809D01*
X114754642Y-84336904D01*
X114678452Y-84336904D01*
X114607023Y-84298809D01*
X114573690Y-84260714D01*
X114545119Y-84184523D01*
X114526071Y-84032142D01*
X114549880Y-83841666D01*
X114607023Y-83689285D01*
X114654642Y-83613095D01*
X114697500Y-83575000D01*
X114778452Y-83536904D01*
X115311785Y-83536904D02*
X115845119Y-83536904D01*
X115402261Y-84336904D01*
X116102261Y-83917857D02*
X116368928Y-83917857D01*
X116430833Y-84336904D02*
X116049880Y-84336904D01*
X116149880Y-83536904D01*
X116530833Y-83536904D01*
X116811785Y-84032142D02*
X117421309Y-84032142D01*
X117816547Y-83613095D02*
X117859404Y-83575000D01*
X117940357Y-83536904D01*
X118130833Y-83536904D01*
X118202261Y-83575000D01*
X118235595Y-83613095D01*
X118264166Y-83689285D01*
X118254642Y-83765476D01*
X118202261Y-83879761D01*
X117687976Y-84336904D01*
X118183214Y-84336904D01*
X118907023Y-84336904D02*
X118526071Y-84336904D01*
X118626071Y-83536904D01*
X131590476Y-83586904D02*
X131590476Y-82786904D01*
X131780952Y-82786904D01*
X131895238Y-82825000D01*
X131971428Y-82901190D01*
X132009523Y-82977380D01*
X132047619Y-83129761D01*
X132047619Y-83244047D01*
X132009523Y-83396428D01*
X131971428Y-83472619D01*
X131895238Y-83548809D01*
X131780952Y-83586904D01*
X131590476Y-83586904D01*
X132847619Y-83510714D02*
X132809523Y-83548809D01*
X132695238Y-83586904D01*
X132619047Y-83586904D01*
X132504761Y-83548809D01*
X132428571Y-83472619D01*
X132390476Y-83396428D01*
X132352380Y-83244047D01*
X132352380Y-83129761D01*
X132390476Y-82977380D01*
X132428571Y-82901190D01*
X132504761Y-82825000D01*
X132619047Y-82786904D01*
X132695238Y-82786904D01*
X132809523Y-82825000D01*
X132847619Y-82863095D01*
X126260714Y-83510714D02*
X126222619Y-83548809D01*
X126108333Y-83586904D01*
X126032142Y-83586904D01*
X125917857Y-83548809D01*
X125841666Y-83472619D01*
X125803571Y-83396428D01*
X125765476Y-83244047D01*
X125765476Y-83129761D01*
X125803571Y-82977380D01*
X125841666Y-82901190D01*
X125917857Y-82825000D01*
X126032142Y-82786904D01*
X126108333Y-82786904D01*
X126222619Y-82825000D01*
X126260714Y-82863095D01*
X126565476Y-83548809D02*
X126679761Y-83586904D01*
X126870238Y-83586904D01*
X126946428Y-83548809D01*
X126984523Y-83510714D01*
X127022619Y-83434523D01*
X127022619Y-83358333D01*
X126984523Y-83282142D01*
X126946428Y-83244047D01*
X126870238Y-83205952D01*
X126717857Y-83167857D01*
X126641666Y-83129761D01*
X126603571Y-83091666D01*
X126565476Y-83015476D01*
X126565476Y-82939285D01*
X126603571Y-82863095D01*
X126641666Y-82825000D01*
X126717857Y-82786904D01*
X126908333Y-82786904D01*
X127022619Y-82825000D01*
X127327380Y-82863095D02*
X127365476Y-82825000D01*
X127441666Y-82786904D01*
X127632142Y-82786904D01*
X127708333Y-82825000D01*
X127746428Y-82863095D01*
X127784523Y-82939285D01*
X127784523Y-83015476D01*
X127746428Y-83129761D01*
X127289285Y-83586904D01*
X127784523Y-83586904D01*
X136552380Y-79323809D02*
X136666666Y-79361904D01*
X136857142Y-79361904D01*
X136933333Y-79323809D01*
X136971428Y-79285714D01*
X137009523Y-79209523D01*
X137009523Y-79133333D01*
X136971428Y-79057142D01*
X136933333Y-79019047D01*
X136857142Y-78980952D01*
X136704761Y-78942857D01*
X136628571Y-78904761D01*
X136590476Y-78866666D01*
X136552380Y-78790476D01*
X136552380Y-78714285D01*
X136590476Y-78638095D01*
X136628571Y-78600000D01*
X136704761Y-78561904D01*
X136895238Y-78561904D01*
X137009523Y-78600000D01*
X137352380Y-79361904D02*
X137352380Y-78561904D01*
X137542857Y-78561904D01*
X137657142Y-78600000D01*
X137733333Y-78676190D01*
X137771428Y-78752380D01*
X137809523Y-78904761D01*
X137809523Y-79019047D01*
X137771428Y-79171428D01*
X137733333Y-79247619D01*
X137657142Y-79323809D01*
X137542857Y-79361904D01*
X137352380Y-79361904D01*
X138304761Y-78561904D02*
X138457142Y-78561904D01*
X138533333Y-78600000D01*
X138609523Y-78676190D01*
X138647619Y-78828571D01*
X138647619Y-79095238D01*
X138609523Y-79247619D01*
X138533333Y-79323809D01*
X138457142Y-79361904D01*
X138304761Y-79361904D01*
X138228571Y-79323809D01*
X138152380Y-79247619D01*
X138114285Y-79095238D01*
X138114285Y-78828571D01*
X138152380Y-78676190D01*
X138228571Y-78600000D01*
X138304761Y-78561904D01*
X141180952Y-77523809D02*
X141295238Y-77561904D01*
X141485714Y-77561904D01*
X141561904Y-77523809D01*
X141600000Y-77485714D01*
X141638095Y-77409523D01*
X141638095Y-77333333D01*
X141600000Y-77257142D01*
X141561904Y-77219047D01*
X141485714Y-77180952D01*
X141333333Y-77142857D01*
X141257142Y-77104761D01*
X141219047Y-77066666D01*
X141180952Y-76990476D01*
X141180952Y-76914285D01*
X141219047Y-76838095D01*
X141257142Y-76800000D01*
X141333333Y-76761904D01*
X141523809Y-76761904D01*
X141638095Y-76800000D01*
X141980952Y-77561904D02*
X141980952Y-76761904D01*
X142171428Y-76761904D01*
X142285714Y-76800000D01*
X142361904Y-76876190D01*
X142400000Y-76952380D01*
X142438095Y-77104761D01*
X142438095Y-77219047D01*
X142400000Y-77371428D01*
X142361904Y-77447619D01*
X142285714Y-77523809D01*
X142171428Y-77561904D01*
X141980952Y-77561904D01*
X142780952Y-77561904D02*
X142780952Y-76761904D01*
X138471428Y-77023809D02*
X138585714Y-77061904D01*
X138776190Y-77061904D01*
X138852380Y-77023809D01*
X138890476Y-76985714D01*
X138928571Y-76909523D01*
X138928571Y-76833333D01*
X138890476Y-76757142D01*
X138852380Y-76719047D01*
X138776190Y-76680952D01*
X138623809Y-76642857D01*
X138547619Y-76604761D01*
X138509523Y-76566666D01*
X138471428Y-76490476D01*
X138471428Y-76414285D01*
X138509523Y-76338095D01*
X138547619Y-76300000D01*
X138623809Y-76261904D01*
X138814285Y-76261904D01*
X138928571Y-76300000D01*
X139728571Y-76985714D02*
X139690476Y-77023809D01*
X139576190Y-77061904D01*
X139500000Y-77061904D01*
X139385714Y-77023809D01*
X139309523Y-76947619D01*
X139271428Y-76871428D01*
X139233333Y-76719047D01*
X139233333Y-76604761D01*
X139271428Y-76452380D01*
X139309523Y-76376190D01*
X139385714Y-76300000D01*
X139500000Y-76261904D01*
X139576190Y-76261904D01*
X139690476Y-76300000D01*
X139728571Y-76338095D01*
X140071428Y-77061904D02*
X140071428Y-76261904D01*
X140528571Y-77061904D02*
X140185714Y-76604761D01*
X140528571Y-76261904D02*
X140071428Y-76719047D01*
X136470119Y-60660714D02*
X136432023Y-60698809D01*
X136317738Y-60736904D01*
X136241547Y-60736904D01*
X136127261Y-60698809D01*
X136051071Y-60622619D01*
X136012976Y-60546428D01*
X135974880Y-60394047D01*
X135974880Y-60279761D01*
X136012976Y-60127380D01*
X136051071Y-60051190D01*
X136127261Y-59975000D01*
X136241547Y-59936904D01*
X136317738Y-59936904D01*
X136432023Y-59975000D01*
X136470119Y-60013095D01*
X136774880Y-60698809D02*
X136889166Y-60736904D01*
X137079642Y-60736904D01*
X137155833Y-60698809D01*
X137193928Y-60660714D01*
X137232023Y-60584523D01*
X137232023Y-60508333D01*
X137193928Y-60432142D01*
X137155833Y-60394047D01*
X137079642Y-60355952D01*
X136927261Y-60317857D01*
X136851071Y-60279761D01*
X136812976Y-60241666D01*
X136774880Y-60165476D01*
X136774880Y-60089285D01*
X136812976Y-60013095D01*
X136851071Y-59975000D01*
X136927261Y-59936904D01*
X137117738Y-59936904D01*
X137232023Y-59975000D01*
X137993928Y-60736904D02*
X137536785Y-60736904D01*
X137765357Y-60736904D02*
X137765357Y-59936904D01*
X137689166Y-60051190D01*
X137612976Y-60127380D01*
X137536785Y-60165476D01*
X139969166Y-61661904D02*
X139969166Y-60861904D01*
X140159642Y-60861904D01*
X140273928Y-60900000D01*
X140350119Y-60976190D01*
X140388214Y-61052380D01*
X140426309Y-61204761D01*
X140426309Y-61319047D01*
X140388214Y-61471428D01*
X140350119Y-61547619D01*
X140273928Y-61623809D01*
X140159642Y-61661904D01*
X139969166Y-61661904D01*
X140769166Y-61242857D02*
X141035833Y-61242857D01*
X141150119Y-61661904D02*
X140769166Y-61661904D01*
X140769166Y-60861904D01*
X141150119Y-60861904D01*
X139892976Y-60561904D02*
X139892976Y-59761904D01*
X140197738Y-59761904D01*
X140273928Y-59800000D01*
X140312023Y-59838095D01*
X140350119Y-59914285D01*
X140350119Y-60028571D01*
X140312023Y-60104761D01*
X140273928Y-60142857D01*
X140197738Y-60180952D01*
X139892976Y-60180952D01*
X141150119Y-60485714D02*
X141112023Y-60523809D01*
X140997738Y-60561904D01*
X140921547Y-60561904D01*
X140807261Y-60523809D01*
X140731071Y-60447619D01*
X140692976Y-60371428D01*
X140654880Y-60219047D01*
X140654880Y-60104761D01*
X140692976Y-59952380D01*
X140731071Y-59876190D01*
X140807261Y-59800000D01*
X140921547Y-59761904D01*
X140997738Y-59761904D01*
X141112023Y-59800000D01*
X141150119Y-59838095D01*
X139892976Y-59461904D02*
X139892976Y-58661904D01*
X139892976Y-59042857D02*
X140350119Y-59042857D01*
X140350119Y-59461904D02*
X140350119Y-58661904D01*
X140692976Y-59423809D02*
X140807261Y-59461904D01*
X140997738Y-59461904D01*
X141073928Y-59423809D01*
X141112023Y-59385714D01*
X141150119Y-59309523D01*
X141150119Y-59233333D01*
X141112023Y-59157142D01*
X141073928Y-59119047D01*
X140997738Y-59080952D01*
X140845357Y-59042857D01*
X140769166Y-59004761D01*
X140731071Y-58966666D01*
X140692976Y-58890476D01*
X140692976Y-58814285D01*
X140731071Y-58738095D01*
X140769166Y-58700000D01*
X140845357Y-58661904D01*
X141035833Y-58661904D01*
X141150119Y-58700000D01*
X139931071Y-57461904D02*
X140197738Y-58261904D01*
X140464404Y-57461904D01*
X140692976Y-58223809D02*
X140807261Y-58261904D01*
X140997738Y-58261904D01*
X141073928Y-58223809D01*
X141112023Y-58185714D01*
X141150119Y-58109523D01*
X141150119Y-58033333D01*
X141112023Y-57957142D01*
X141073928Y-57919047D01*
X140997738Y-57880952D01*
X140845357Y-57842857D01*
X140769166Y-57804761D01*
X140731071Y-57766666D01*
X140692976Y-57690476D01*
X140692976Y-57614285D01*
X140731071Y-57538095D01*
X140769166Y-57500000D01*
X140845357Y-57461904D01*
X141035833Y-57461904D01*
X141150119Y-57500000D01*
X141204761Y-55761904D02*
X140747619Y-55761904D01*
X140976190Y-55761904D02*
X140976190Y-54961904D01*
X140900000Y-55076190D01*
X140823809Y-55152380D01*
X140747619Y-55190476D01*
X141509523Y-55038095D02*
X141547619Y-55000000D01*
X141623809Y-54961904D01*
X141814285Y-54961904D01*
X141890476Y-55000000D01*
X141928571Y-55038095D01*
X141966666Y-55114285D01*
X141966666Y-55190476D01*
X141928571Y-55304761D01*
X141471428Y-55761904D01*
X141966666Y-55761904D01*
X142195238Y-54961904D02*
X142461904Y-55761904D01*
X142728571Y-54961904D01*
X123019047Y-51161904D02*
X123514285Y-51161904D01*
X123247619Y-51466666D01*
X123361904Y-51466666D01*
X123438095Y-51504761D01*
X123476190Y-51542857D01*
X123514285Y-51619047D01*
X123514285Y-51809523D01*
X123476190Y-51885714D01*
X123438095Y-51923809D01*
X123361904Y-51961904D01*
X123133333Y-51961904D01*
X123057142Y-51923809D01*
X123019047Y-51885714D01*
X123857142Y-51885714D02*
X123895238Y-51923809D01*
X123857142Y-51961904D01*
X123819047Y-51923809D01*
X123857142Y-51885714D01*
X123857142Y-51961904D01*
X124161904Y-51161904D02*
X124657142Y-51161904D01*
X124390476Y-51466666D01*
X124504761Y-51466666D01*
X124580952Y-51504761D01*
X124619047Y-51542857D01*
X124657142Y-51619047D01*
X124657142Y-51809523D01*
X124619047Y-51885714D01*
X124580952Y-51923809D01*
X124504761Y-51961904D01*
X124276190Y-51961904D01*
X124200000Y-51923809D01*
X124161904Y-51885714D01*
X124885714Y-51161904D02*
X125152380Y-51961904D01*
X125419047Y-51161904D01*
X123590476Y-55061904D02*
X124085714Y-55061904D01*
X123819047Y-55366666D01*
X123933333Y-55366666D01*
X124009523Y-55404761D01*
X124047619Y-55442857D01*
X124085714Y-55519047D01*
X124085714Y-55709523D01*
X124047619Y-55785714D01*
X124009523Y-55823809D01*
X123933333Y-55861904D01*
X123704761Y-55861904D01*
X123628571Y-55823809D01*
X123590476Y-55785714D01*
X124314285Y-55061904D02*
X124580952Y-55861904D01*
X124847619Y-55061904D01*
X114435595Y-76952380D02*
X114435595Y-75952380D01*
X115483214Y-76952380D02*
X115149880Y-76476190D01*
X114911785Y-76952380D02*
X114911785Y-75952380D01*
X115292738Y-75952380D01*
X115387976Y-76000000D01*
X115435595Y-76047619D01*
X115483214Y-76142857D01*
X115483214Y-76285714D01*
X115435595Y-76380952D01*
X115387976Y-76428571D01*
X115292738Y-76476190D01*
X114911785Y-76476190D01*
X116578452Y-77047619D02*
X116483214Y-77000000D01*
X116387976Y-76904761D01*
X116245119Y-76761904D01*
X116149880Y-76714285D01*
X116054642Y-76714285D01*
X116102261Y-76952380D02*
X116007023Y-76904761D01*
X115911785Y-76809523D01*
X115864166Y-76619047D01*
X115864166Y-76285714D01*
X115911785Y-76095238D01*
X116007023Y-76000000D01*
X116102261Y-75952380D01*
X116292738Y-75952380D01*
X116387976Y-76000000D01*
X116483214Y-76095238D01*
X116530833Y-76285714D01*
X116530833Y-76619047D01*
X116483214Y-76809523D01*
X116387976Y-76904761D01*
X116292738Y-76952380D01*
X116102261Y-76952380D01*
X114911785Y-50552380D02*
X114435595Y-50552380D01*
X114387976Y-51028571D01*
X114435595Y-50980952D01*
X114530833Y-50933333D01*
X114768928Y-50933333D01*
X114864166Y-50980952D01*
X114911785Y-51028571D01*
X114959404Y-51123809D01*
X114959404Y-51361904D01*
X114911785Y-51457142D01*
X114864166Y-51504761D01*
X114768928Y-51552380D01*
X114530833Y-51552380D01*
X114435595Y-51504761D01*
X114387976Y-51457142D01*
X115245119Y-50552380D02*
X115578452Y-51552380D01*
X115911785Y-50552380D01*
X114292738Y-53152380D02*
X114626071Y-54152380D01*
X114959404Y-53152380D01*
X115864166Y-54057142D02*
X115816547Y-54104761D01*
X115673690Y-54152380D01*
X115578452Y-54152380D01*
X115435595Y-54104761D01*
X115340357Y-54009523D01*
X115292738Y-53914285D01*
X115245119Y-53723809D01*
X115245119Y-53580952D01*
X115292738Y-53390476D01*
X115340357Y-53295238D01*
X115435595Y-53200000D01*
X115578452Y-53152380D01*
X115673690Y-53152380D01*
X115816547Y-53200000D01*
X115864166Y-53247619D01*
X116864166Y-54057142D02*
X116816547Y-54104761D01*
X116673690Y-54152380D01*
X116578452Y-54152380D01*
X116435595Y-54104761D01*
X116340357Y-54009523D01*
X116292738Y-53914285D01*
X116245119Y-53723809D01*
X116245119Y-53580952D01*
X116292738Y-53390476D01*
X116340357Y-53295238D01*
X116435595Y-53200000D01*
X116578452Y-53152380D01*
X116673690Y-53152380D01*
X116816547Y-53200000D01*
X116864166Y-53247619D01*
X114959404Y-55700000D02*
X114864166Y-55652380D01*
X114721309Y-55652380D01*
X114578452Y-55700000D01*
X114483214Y-55795238D01*
X114435595Y-55890476D01*
X114387976Y-56080952D01*
X114387976Y-56223809D01*
X114435595Y-56414285D01*
X114483214Y-56509523D01*
X114578452Y-56604761D01*
X114721309Y-56652380D01*
X114816547Y-56652380D01*
X114959404Y-56604761D01*
X115007023Y-56557142D01*
X115007023Y-56223809D01*
X114816547Y-56223809D01*
X115435595Y-56652380D02*
X115435595Y-55652380D01*
X116007023Y-56652380D01*
X116007023Y-55652380D01*
X116483214Y-56652380D02*
X116483214Y-55652380D01*
X116721309Y-55652380D01*
X116864166Y-55700000D01*
X116959404Y-55795238D01*
X117007023Y-55890476D01*
X117054642Y-56080952D01*
X117054642Y-56223809D01*
X117007023Y-56414285D01*
X116959404Y-56509523D01*
X116864166Y-56604761D01*
X116721309Y-56652380D01*
X116483214Y-56652380D01*
X114387976Y-59204761D02*
X114530833Y-59252380D01*
X114768928Y-59252380D01*
X114864166Y-59204761D01*
X114911785Y-59157142D01*
X114959404Y-59061904D01*
X114959404Y-58966666D01*
X114911785Y-58871428D01*
X114864166Y-58823809D01*
X114768928Y-58776190D01*
X114578452Y-58728571D01*
X114483214Y-58680952D01*
X114435595Y-58633333D01*
X114387976Y-58538095D01*
X114387976Y-58442857D01*
X114435595Y-58347619D01*
X114483214Y-58300000D01*
X114578452Y-58252380D01*
X114816547Y-58252380D01*
X114959404Y-58300000D01*
X115959404Y-59157142D02*
X115911785Y-59204761D01*
X115768928Y-59252380D01*
X115673690Y-59252380D01*
X115530833Y-59204761D01*
X115435595Y-59109523D01*
X115387976Y-59014285D01*
X115340357Y-58823809D01*
X115340357Y-58680952D01*
X115387976Y-58490476D01*
X115435595Y-58395238D01*
X115530833Y-58300000D01*
X115673690Y-58252380D01*
X115768928Y-58252380D01*
X115911785Y-58300000D01*
X115959404Y-58347619D01*
X116387976Y-59252380D02*
X116387976Y-58252380D01*
X116959404Y-59252380D02*
X116530833Y-58680952D01*
X116959404Y-58252380D02*
X116387976Y-58823809D01*
X114387976Y-61604761D02*
X114530833Y-61652380D01*
X114768928Y-61652380D01*
X114864166Y-61604761D01*
X114911785Y-61557142D01*
X114959404Y-61461904D01*
X114959404Y-61366666D01*
X114911785Y-61271428D01*
X114864166Y-61223809D01*
X114768928Y-61176190D01*
X114578452Y-61128571D01*
X114483214Y-61080952D01*
X114435595Y-61033333D01*
X114387976Y-60938095D01*
X114387976Y-60842857D01*
X114435595Y-60747619D01*
X114483214Y-60700000D01*
X114578452Y-60652380D01*
X114816547Y-60652380D01*
X114959404Y-60700000D01*
X115387976Y-61652380D02*
X115387976Y-60652380D01*
X115626071Y-60652380D01*
X115768928Y-60700000D01*
X115864166Y-60795238D01*
X115911785Y-60890476D01*
X115959404Y-61080952D01*
X115959404Y-61223809D01*
X115911785Y-61414285D01*
X115864166Y-61509523D01*
X115768928Y-61604761D01*
X115626071Y-61652380D01*
X115387976Y-61652380D01*
X116578452Y-60652380D02*
X116768928Y-60652380D01*
X116864166Y-60700000D01*
X116959404Y-60795238D01*
X117007023Y-60985714D01*
X117007023Y-61319047D01*
X116959404Y-61509523D01*
X116864166Y-61604761D01*
X116768928Y-61652380D01*
X116578452Y-61652380D01*
X116483214Y-61604761D01*
X116387976Y-61509523D01*
X116340357Y-61319047D01*
X116340357Y-60985714D01*
X116387976Y-60795238D01*
X116483214Y-60700000D01*
X116578452Y-60652380D01*
X114387976Y-64304761D02*
X114530833Y-64352380D01*
X114768928Y-64352380D01*
X114864166Y-64304761D01*
X114911785Y-64257142D01*
X114959404Y-64161904D01*
X114959404Y-64066666D01*
X114911785Y-63971428D01*
X114864166Y-63923809D01*
X114768928Y-63876190D01*
X114578452Y-63828571D01*
X114483214Y-63780952D01*
X114435595Y-63733333D01*
X114387976Y-63638095D01*
X114387976Y-63542857D01*
X114435595Y-63447619D01*
X114483214Y-63400000D01*
X114578452Y-63352380D01*
X114816547Y-63352380D01*
X114959404Y-63400000D01*
X115387976Y-64352380D02*
X115387976Y-63352380D01*
X115626071Y-63352380D01*
X115768928Y-63400000D01*
X115864166Y-63495238D01*
X115911785Y-63590476D01*
X115959404Y-63780952D01*
X115959404Y-63923809D01*
X115911785Y-64114285D01*
X115864166Y-64209523D01*
X115768928Y-64304761D01*
X115626071Y-64352380D01*
X115387976Y-64352380D01*
X116387976Y-64352380D02*
X116387976Y-63352380D01*
X115007023Y-66757142D02*
X114959404Y-66804761D01*
X114816547Y-66852380D01*
X114721309Y-66852380D01*
X114578452Y-66804761D01*
X114483214Y-66709523D01*
X114435595Y-66614285D01*
X114387976Y-66423809D01*
X114387976Y-66280952D01*
X114435595Y-66090476D01*
X114483214Y-65995238D01*
X114578452Y-65900000D01*
X114721309Y-65852380D01*
X114816547Y-65852380D01*
X114959404Y-65900000D01*
X115007023Y-65947619D01*
X115387976Y-66804761D02*
X115530833Y-66852380D01*
X115768928Y-66852380D01*
X115864166Y-66804761D01*
X115911785Y-66757142D01*
X115959404Y-66661904D01*
X115959404Y-66566666D01*
X115911785Y-66471428D01*
X115864166Y-66423809D01*
X115768928Y-66376190D01*
X115578452Y-66328571D01*
X115483214Y-66280952D01*
X115435595Y-66233333D01*
X115387976Y-66138095D01*
X115387976Y-66042857D01*
X115435595Y-65947619D01*
X115483214Y-65900000D01*
X115578452Y-65852380D01*
X115816547Y-65852380D01*
X115959404Y-65900000D01*
X116911785Y-66852380D02*
X116340357Y-66852380D01*
X116626071Y-66852380D02*
X116626071Y-65852380D01*
X116530833Y-65995238D01*
X116435595Y-66090476D01*
X116340357Y-66138095D01*
X115007023Y-69157142D02*
X114959404Y-69204761D01*
X114816547Y-69252380D01*
X114721309Y-69252380D01*
X114578452Y-69204761D01*
X114483214Y-69109523D01*
X114435595Y-69014285D01*
X114387976Y-68823809D01*
X114387976Y-68680952D01*
X114435595Y-68490476D01*
X114483214Y-68395238D01*
X114578452Y-68300000D01*
X114721309Y-68252380D01*
X114816547Y-68252380D01*
X114959404Y-68300000D01*
X115007023Y-68347619D01*
X115387976Y-69204761D02*
X115530833Y-69252380D01*
X115768928Y-69252380D01*
X115864166Y-69204761D01*
X115911785Y-69157142D01*
X115959404Y-69061904D01*
X115959404Y-68966666D01*
X115911785Y-68871428D01*
X115864166Y-68823809D01*
X115768928Y-68776190D01*
X115578452Y-68728571D01*
X115483214Y-68680952D01*
X115435595Y-68633333D01*
X115387976Y-68538095D01*
X115387976Y-68442857D01*
X115435595Y-68347619D01*
X115483214Y-68300000D01*
X115578452Y-68252380D01*
X115816547Y-68252380D01*
X115959404Y-68300000D01*
X116340357Y-68347619D02*
X116387976Y-68300000D01*
X116483214Y-68252380D01*
X116721309Y-68252380D01*
X116816547Y-68300000D01*
X116864166Y-68347619D01*
X116911785Y-68442857D01*
X116911785Y-68538095D01*
X116864166Y-68680952D01*
X116292738Y-69252380D01*
X116911785Y-69252380D01*
X114435595Y-71852380D02*
X114435595Y-70852380D01*
X114673690Y-70852380D01*
X114816547Y-70900000D01*
X114911785Y-70995238D01*
X114959404Y-71090476D01*
X115007023Y-71280952D01*
X115007023Y-71423809D01*
X114959404Y-71614285D01*
X114911785Y-71709523D01*
X114816547Y-71804761D01*
X114673690Y-71852380D01*
X114435595Y-71852380D01*
X116007023Y-71757142D02*
X115959404Y-71804761D01*
X115816547Y-71852380D01*
X115721309Y-71852380D01*
X115578452Y-71804761D01*
X115483214Y-71709523D01*
X115435595Y-71614285D01*
X115387976Y-71423809D01*
X115387976Y-71280952D01*
X115435595Y-71090476D01*
X115483214Y-70995238D01*
X115578452Y-70900000D01*
X115721309Y-70852380D01*
X115816547Y-70852380D01*
X115959404Y-70900000D01*
X116007023Y-70947619D01*
X114387976Y-74166666D02*
X114864166Y-74166666D01*
X114292738Y-74452380D02*
X114626071Y-73452380D01*
X114959404Y-74452380D01*
X115292738Y-73452380D02*
X115292738Y-74261904D01*
X115340357Y-74357142D01*
X115387976Y-74404761D01*
X115483214Y-74452380D01*
X115673690Y-74452380D01*
X115768928Y-74404761D01*
X115816547Y-74357142D01*
X115864166Y-74261904D01*
X115864166Y-73452380D01*
X116340357Y-74452380D02*
X116340357Y-73452380D01*
X116578452Y-73452380D01*
X116721309Y-73500000D01*
X116816547Y-73595238D01*
X116864166Y-73690476D01*
X116911785Y-73880952D01*
X116911785Y-74023809D01*
X116864166Y-74214285D01*
X116816547Y-74309523D01*
X116721309Y-74404761D01*
X116578452Y-74452380D01*
X116340357Y-74452380D01*
X117340357Y-74452380D02*
X117340357Y-73452380D01*
X118007023Y-73452380D02*
X118197500Y-73452380D01*
X118292738Y-73500000D01*
X118387976Y-73595238D01*
X118435595Y-73785714D01*
X118435595Y-74119047D01*
X118387976Y-74309523D01*
X118292738Y-74404761D01*
X118197500Y-74452380D01*
X118007023Y-74452380D01*
X117911785Y-74404761D01*
X117816547Y-74309523D01*
X117768928Y-74119047D01*
X117768928Y-73785714D01*
X117816547Y-73595238D01*
X117911785Y-73500000D01*
X118007023Y-73452380D01*
D13*
%TO.C,C1*%
X124737221Y-65290000D02*
X125062779Y-65290000D01*
X124737221Y-66310000D02*
X125062779Y-66310000D01*
%TO.C,C2*%
X120562779Y-66310000D02*
X120237221Y-66310000D01*
X120562779Y-65290000D02*
X120237221Y-65290000D01*
%TO.C,C3*%
X120962779Y-49790000D02*
X120637221Y-49790000D01*
X120962779Y-50810000D02*
X120637221Y-50810000D01*
%TO.C,C4*%
X120962779Y-56010000D02*
X120637221Y-56010000D01*
X120962779Y-54990000D02*
X120637221Y-54990000D01*
%TO.C,C5*%
X127562779Y-49790000D02*
X127237221Y-49790000D01*
X127562779Y-50810000D02*
X127237221Y-50810000D01*
%TO.C,C6*%
X127562779Y-56010000D02*
X127237221Y-56010000D01*
X127562779Y-54990000D02*
X127237221Y-54990000D01*
%TO.C,C7*%
X137437221Y-51910000D02*
X137762779Y-51910000D01*
X137437221Y-50890000D02*
X137762779Y-50890000D01*
%TO.C,C8*%
X137990000Y-53637221D02*
X137990000Y-53962779D01*
X139010000Y-53637221D02*
X139010000Y-53962779D01*
%TO.C,C9*%
X128990000Y-59562779D02*
X128990000Y-59237221D01*
X130010000Y-59562779D02*
X130010000Y-59237221D01*
%TO.C,C10*%
X123362779Y-69790000D02*
X123037221Y-69790000D01*
X123362779Y-70810000D02*
X123037221Y-70810000D01*
%TO.C,C11*%
X127125727Y-75770522D02*
X126895522Y-76000727D01*
X126404478Y-75049273D02*
X126174273Y-75279478D01*
%TO.C,C12*%
X128225727Y-76870522D02*
X127995522Y-77100727D01*
X127504478Y-76149273D02*
X127274273Y-76379478D01*
%TO.C,C13*%
X128604478Y-77249273D02*
X128374273Y-77479478D01*
X129325727Y-77970522D02*
X129095522Y-78200727D01*
%TO.C,C14*%
X141262779Y-80610000D02*
X140937221Y-80610000D01*
X141262779Y-79590000D02*
X140937221Y-79590000D01*
%TO.C,C15*%
X141262779Y-81190000D02*
X140937221Y-81190000D01*
X141262779Y-82210000D02*
X140937221Y-82210000D01*
%TO.C,L1*%
X134062779Y-50810000D02*
X133737221Y-50810000D01*
X134062779Y-49790000D02*
X133737221Y-49790000D01*
%TO.C,R1*%
X136290000Y-53637221D02*
X136290000Y-53962779D01*
X137310000Y-53637221D02*
X137310000Y-53962779D01*
%TO.C,R2*%
X133662779Y-56310000D02*
X133337221Y-56310000D01*
X133662779Y-55290000D02*
X133337221Y-55290000D01*
%TO.C,R3*%
X123362779Y-69210000D02*
X123037221Y-69210000D01*
X123362779Y-68190000D02*
X123037221Y-68190000D01*
%TO.C,R4*%
X139590000Y-51987221D02*
X139590000Y-52312779D01*
X140610000Y-51987221D02*
X140610000Y-52312779D01*
%TO.C,R5*%
X135262779Y-80610000D02*
X134937221Y-80610000D01*
X135262779Y-79590000D02*
X134937221Y-79590000D01*
%TO.C,U1*%
X122600000Y-57915000D02*
X120400000Y-57915000D01*
X122600000Y-57915000D02*
X124800000Y-57915000D01*
X122600000Y-64685000D02*
X120400000Y-64685000D01*
X122600000Y-64685000D02*
X126200000Y-64685000D01*
%TO.C,U2*%
X122380000Y-52140000D02*
X122380000Y-53600000D01*
X119220000Y-52140000D02*
X119220000Y-54300000D01*
X119220000Y-52140000D02*
X120150000Y-52140000D01*
X122380000Y-52140000D02*
X121450000Y-52140000D01*
%TO.C,U3*%
X128980000Y-52140000D02*
X128050000Y-52140000D01*
X125820000Y-52140000D02*
X126750000Y-52140000D01*
X125820000Y-52140000D02*
X125820000Y-54300000D01*
X128980000Y-52140000D02*
X128980000Y-53600000D01*
%TO.C,U4*%
X133000000Y-54610000D02*
X134800000Y-54610000D01*
X134800000Y-51390000D02*
X132350000Y-51390000D01*
%TO.C,X1*%
X123131371Y-71995837D02*
X120797918Y-74329290D01*
X120797918Y-74329290D02*
X123626345Y-77157717D01*
%TO.C,TP1*%
X140500000Y-55350000D02*
G75*
G03X140500000Y-55350000I-350000J0D01*
G01*
%TO.C,TP3*%
X125210000Y-52660000D02*
G75*
G03X125210000Y-52660000I-350000J0D01*
G01*
%TO.C,TP5*%
X123350000Y-55400000D02*
G75*
G03X123350000Y-55400000I-350000J0D01*
G01*
%TO.C,TP2*%
X119800000Y-80900000D02*
X119800000Y-79500000D01*
X121200000Y-80900000D02*
X119800000Y-80900000D01*
X121200000Y-79500000D02*
X121200000Y-80900000D01*
X119800000Y-79500000D02*
X121200000Y-79500000D01*
%TO.C,TP4*%
X141400000Y-49000000D02*
X142800000Y-49000000D01*
X142800000Y-49000000D02*
X142800000Y-50400000D01*
X142800000Y-50400000D02*
X141400000Y-50400000D01*
X141400000Y-50400000D02*
X141400000Y-49000000D01*
%TO.C,TP6*%
X139850000Y-77700000D02*
G75*
G03X139850000Y-77700000I-350000J0D01*
G01*
%TO.C,TP8*%
X135675000Y-60375000D02*
G75*
G03X135675000Y-60375000I-350000J0D01*
G01*
%TO.C,TP10*%
X128800000Y-83225000D02*
G75*
G03X128800000Y-83225000I-350000J0D01*
G01*
%TO.C,TP12*%
X131250000Y-83200000D02*
G75*
G03X131250000Y-83200000I-350000J0D01*
G01*
%TO.C,TP14*%
X140350000Y-78700000D02*
G75*
G03X140350000Y-78700000I-350000J0D01*
G01*
%TO.C,TP16*%
X142050000Y-78200000D02*
G75*
G03X142050000Y-78200000I-350000J0D01*
G01*
%TO.C,TP7*%
X142250000Y-61200000D02*
G75*
G03X142250000Y-61200000I-350000J0D01*
G01*
%TO.C,TP9*%
X142250000Y-59000000D02*
G75*
G03X142250000Y-59000000I-350000J0D01*
G01*
%TO.C,TP11*%
X142250000Y-57900000D02*
G75*
G03X142250000Y-57900000I-350000J0D01*
G01*
%TO.C,TP13*%
X142250000Y-60100000D02*
G75*
G03X142250000Y-60100000I-350000J0D01*
G01*
%TO.C,J1*%
X110870000Y-49770000D02*
X112200000Y-49770000D01*
X110870000Y-51100000D02*
X110870000Y-49770000D01*
X110870000Y-52370000D02*
X113530000Y-52370000D01*
X113530000Y-52370000D02*
X113530000Y-82910000D01*
X110870000Y-52370000D02*
X110870000Y-82910000D01*
X110870000Y-82910000D02*
X113530000Y-82910000D01*
%TO.C,U5*%
X131450000Y-61035000D02*
X133900000Y-61035000D01*
X133250000Y-57815000D02*
X131450000Y-57815000D01*
%TO.C,U6*%
X138476542Y-70464124D02*
X138812418Y-70800000D01*
X138812418Y-70800000D02*
X138476542Y-71135876D01*
X127523458Y-71135876D02*
X127187582Y-70800000D01*
X127187582Y-70800000D02*
X127523458Y-70464124D01*
X132664124Y-76276542D02*
X133000000Y-76612418D01*
X133000000Y-76612418D02*
X133335876Y-76276542D01*
X133335876Y-65323458D02*
X133000000Y-64987582D01*
D12*
%TO.C,U7*%
X145200000Y-82125000D02*
G75*
G03X145200000Y-82125000I-100000J0D01*
G01*
D14*
X146200000Y-83825000D02*
X146200000Y-81625000D01*
X149850000Y-83825000D02*
X146200000Y-83825000D01*
X146200000Y-48925000D02*
X146200000Y-51125000D01*
X149850000Y-48925000D02*
X146200000Y-48925000D01*
X152700000Y-83825000D02*
X152700000Y-48925000D01*
D13*
%TO.C,RES_D*%
X135100000Y-81900000D02*
G75*
G03X135100000Y-81900000I-350000J0D01*
G01*
%TO.C,RES_C*%
X126850000Y-68900000D02*
G75*
G03X126850000Y-68900000I-350000J0D01*
G01*
%TO.C,IRQ*%
X127725000Y-66725000D02*
G75*
G03X127725000Y-66725000I-350000J0D01*
G01*
%TO.C,C1*%
D10*
X123866666Y-67485714D02*
X123828571Y-67523809D01*
X123714285Y-67561904D01*
X123638095Y-67561904D01*
X123523809Y-67523809D01*
X123447619Y-67447619D01*
X123409523Y-67371428D01*
X123371428Y-67219047D01*
X123371428Y-67104761D01*
X123409523Y-66952380D01*
X123447619Y-66876190D01*
X123523809Y-66800000D01*
X123638095Y-66761904D01*
X123714285Y-66761904D01*
X123828571Y-66800000D01*
X123866666Y-66838095D01*
X124628571Y-67561904D02*
X124171428Y-67561904D01*
X124400000Y-67561904D02*
X124400000Y-66761904D01*
X124323809Y-66876190D01*
X124247619Y-66952380D01*
X124171428Y-66990476D01*
%TO.C,C2*%
X121066666Y-67485714D02*
X121028571Y-67523809D01*
X120914285Y-67561904D01*
X120838095Y-67561904D01*
X120723809Y-67523809D01*
X120647619Y-67447619D01*
X120609523Y-67371428D01*
X120571428Y-67219047D01*
X120571428Y-67104761D01*
X120609523Y-66952380D01*
X120647619Y-66876190D01*
X120723809Y-66800000D01*
X120838095Y-66761904D01*
X120914285Y-66761904D01*
X121028571Y-66800000D01*
X121066666Y-66838095D01*
X121371428Y-66838095D02*
X121409523Y-66800000D01*
X121485714Y-66761904D01*
X121676190Y-66761904D01*
X121752380Y-66800000D01*
X121790476Y-66838095D01*
X121828571Y-66914285D01*
X121828571Y-66990476D01*
X121790476Y-67104761D01*
X121333333Y-67561904D01*
X121828571Y-67561904D01*
%TO.C,C3*%
X118366666Y-50685714D02*
X118328571Y-50723809D01*
X118214285Y-50761904D01*
X118138095Y-50761904D01*
X118023809Y-50723809D01*
X117947619Y-50647619D01*
X117909523Y-50571428D01*
X117871428Y-50419047D01*
X117871428Y-50304761D01*
X117909523Y-50152380D01*
X117947619Y-50076190D01*
X118023809Y-50000000D01*
X118138095Y-49961904D01*
X118214285Y-49961904D01*
X118328571Y-50000000D01*
X118366666Y-50038095D01*
X118633333Y-49961904D02*
X119128571Y-49961904D01*
X118861904Y-50266666D01*
X118976190Y-50266666D01*
X119052380Y-50304761D01*
X119090476Y-50342857D01*
X119128571Y-50419047D01*
X119128571Y-50609523D01*
X119090476Y-50685714D01*
X119052380Y-50723809D01*
X118976190Y-50761904D01*
X118747619Y-50761904D01*
X118671428Y-50723809D01*
X118633333Y-50685714D01*
%TO.C,C4*%
X118366666Y-55785714D02*
X118328571Y-55823809D01*
X118214285Y-55861904D01*
X118138095Y-55861904D01*
X118023809Y-55823809D01*
X117947619Y-55747619D01*
X117909523Y-55671428D01*
X117871428Y-55519047D01*
X117871428Y-55404761D01*
X117909523Y-55252380D01*
X117947619Y-55176190D01*
X118023809Y-55100000D01*
X118138095Y-55061904D01*
X118214285Y-55061904D01*
X118328571Y-55100000D01*
X118366666Y-55138095D01*
X119052380Y-55328571D02*
X119052380Y-55861904D01*
X118861904Y-55023809D02*
X118671428Y-55595238D01*
X119166666Y-55595238D01*
%TO.C,C5*%
X129566666Y-50585714D02*
X129528571Y-50623809D01*
X129414285Y-50661904D01*
X129338095Y-50661904D01*
X129223809Y-50623809D01*
X129147619Y-50547619D01*
X129109523Y-50471428D01*
X129071428Y-50319047D01*
X129071428Y-50204761D01*
X129109523Y-50052380D01*
X129147619Y-49976190D01*
X129223809Y-49900000D01*
X129338095Y-49861904D01*
X129414285Y-49861904D01*
X129528571Y-49900000D01*
X129566666Y-49938095D01*
X130290476Y-49861904D02*
X129909523Y-49861904D01*
X129871428Y-50242857D01*
X129909523Y-50204761D01*
X129985714Y-50166666D01*
X130176190Y-50166666D01*
X130252380Y-50204761D01*
X130290476Y-50242857D01*
X130328571Y-50319047D01*
X130328571Y-50509523D01*
X130290476Y-50585714D01*
X130252380Y-50623809D01*
X130176190Y-50661904D01*
X129985714Y-50661904D01*
X129909523Y-50623809D01*
X129871428Y-50585714D01*
%TO.C,C6*%
X128166666Y-57185714D02*
X128128571Y-57223809D01*
X128014285Y-57261904D01*
X127938095Y-57261904D01*
X127823809Y-57223809D01*
X127747619Y-57147619D01*
X127709523Y-57071428D01*
X127671428Y-56919047D01*
X127671428Y-56804761D01*
X127709523Y-56652380D01*
X127747619Y-56576190D01*
X127823809Y-56500000D01*
X127938095Y-56461904D01*
X128014285Y-56461904D01*
X128128571Y-56500000D01*
X128166666Y-56538095D01*
X128852380Y-56461904D02*
X128700000Y-56461904D01*
X128623809Y-56500000D01*
X128585714Y-56538095D01*
X128509523Y-56652380D01*
X128471428Y-56804761D01*
X128471428Y-57109523D01*
X128509523Y-57185714D01*
X128547619Y-57223809D01*
X128623809Y-57261904D01*
X128776190Y-57261904D01*
X128852380Y-57223809D01*
X128890476Y-57185714D01*
X128928571Y-57109523D01*
X128928571Y-56919047D01*
X128890476Y-56842857D01*
X128852380Y-56804761D01*
X128776190Y-56766666D01*
X128623809Y-56766666D01*
X128547619Y-56804761D01*
X128509523Y-56842857D01*
X128471428Y-56919047D01*
%TO.C,C7*%
X137566666Y-50385714D02*
X137528571Y-50423809D01*
X137414285Y-50461904D01*
X137338095Y-50461904D01*
X137223809Y-50423809D01*
X137147619Y-50347619D01*
X137109523Y-50271428D01*
X137071428Y-50119047D01*
X137071428Y-50004761D01*
X137109523Y-49852380D01*
X137147619Y-49776190D01*
X137223809Y-49700000D01*
X137338095Y-49661904D01*
X137414285Y-49661904D01*
X137528571Y-49700000D01*
X137566666Y-49738095D01*
X137833333Y-49661904D02*
X138366666Y-49661904D01*
X138023809Y-50461904D01*
%TO.C,C8*%
X138391666Y-56235714D02*
X138353571Y-56273809D01*
X138239285Y-56311904D01*
X138163095Y-56311904D01*
X138048809Y-56273809D01*
X137972619Y-56197619D01*
X137934523Y-56121428D01*
X137896428Y-55969047D01*
X137896428Y-55854761D01*
X137934523Y-55702380D01*
X137972619Y-55626190D01*
X138048809Y-55550000D01*
X138163095Y-55511904D01*
X138239285Y-55511904D01*
X138353571Y-55550000D01*
X138391666Y-55588095D01*
X138848809Y-55854761D02*
X138772619Y-55816666D01*
X138734523Y-55778571D01*
X138696428Y-55702380D01*
X138696428Y-55664285D01*
X138734523Y-55588095D01*
X138772619Y-55550000D01*
X138848809Y-55511904D01*
X139001190Y-55511904D01*
X139077380Y-55550000D01*
X139115476Y-55588095D01*
X139153571Y-55664285D01*
X139153571Y-55702380D01*
X139115476Y-55778571D01*
X139077380Y-55816666D01*
X139001190Y-55854761D01*
X138848809Y-55854761D01*
X138772619Y-55892857D01*
X138734523Y-55930952D01*
X138696428Y-56007142D01*
X138696428Y-56159523D01*
X138734523Y-56235714D01*
X138772619Y-56273809D01*
X138848809Y-56311904D01*
X139001190Y-56311904D01*
X139077380Y-56273809D01*
X139115476Y-56235714D01*
X139153571Y-56159523D01*
X139153571Y-56007142D01*
X139115476Y-55930952D01*
X139077380Y-55892857D01*
X139001190Y-55854761D01*
%TO.C,C9*%
X129366666Y-61885714D02*
X129328571Y-61923809D01*
X129214285Y-61961904D01*
X129138095Y-61961904D01*
X129023809Y-61923809D01*
X128947619Y-61847619D01*
X128909523Y-61771428D01*
X128871428Y-61619047D01*
X128871428Y-61504761D01*
X128909523Y-61352380D01*
X128947619Y-61276190D01*
X129023809Y-61200000D01*
X129138095Y-61161904D01*
X129214285Y-61161904D01*
X129328571Y-61200000D01*
X129366666Y-61238095D01*
X129747619Y-61961904D02*
X129900000Y-61961904D01*
X129976190Y-61923809D01*
X130014285Y-61885714D01*
X130090476Y-61771428D01*
X130128571Y-61619047D01*
X130128571Y-61314285D01*
X130090476Y-61238095D01*
X130052380Y-61200000D01*
X129976190Y-61161904D01*
X129823809Y-61161904D01*
X129747619Y-61200000D01*
X129709523Y-61238095D01*
X129671428Y-61314285D01*
X129671428Y-61504761D01*
X129709523Y-61580952D01*
X129747619Y-61619047D01*
X129823809Y-61657142D01*
X129976190Y-61657142D01*
X130052380Y-61619047D01*
X130090476Y-61580952D01*
X130128571Y-61504761D01*
%TO.C,C10*%
X119185714Y-70585714D02*
X119147619Y-70623809D01*
X119033333Y-70661904D01*
X118957142Y-70661904D01*
X118842857Y-70623809D01*
X118766666Y-70547619D01*
X118728571Y-70471428D01*
X118690476Y-70319047D01*
X118690476Y-70204761D01*
X118728571Y-70052380D01*
X118766666Y-69976190D01*
X118842857Y-69900000D01*
X118957142Y-69861904D01*
X119033333Y-69861904D01*
X119147619Y-69900000D01*
X119185714Y-69938095D01*
X119947619Y-70661904D02*
X119490476Y-70661904D01*
X119719047Y-70661904D02*
X119719047Y-69861904D01*
X119642857Y-69976190D01*
X119566666Y-70052380D01*
X119490476Y-70090476D01*
X120442857Y-69861904D02*
X120519047Y-69861904D01*
X120595238Y-69900000D01*
X120633333Y-69938095D01*
X120671428Y-70014285D01*
X120709523Y-70166666D01*
X120709523Y-70357142D01*
X120671428Y-70509523D01*
X120633333Y-70585714D01*
X120595238Y-70623809D01*
X120519047Y-70661904D01*
X120442857Y-70661904D01*
X120366666Y-70623809D01*
X120328571Y-70585714D01*
X120290476Y-70509523D01*
X120252380Y-70357142D01*
X120252380Y-70166666D01*
X120290476Y-70014285D01*
X120328571Y-69938095D01*
X120366666Y-69900000D01*
X120442857Y-69861904D01*
%TO.C,C11*%
X123958375Y-78555685D02*
X123958375Y-78609560D01*
X123904500Y-78717309D01*
X123850625Y-78771184D01*
X123742876Y-78825059D01*
X123635126Y-78825059D01*
X123554314Y-78798122D01*
X123419627Y-78717309D01*
X123338815Y-78636497D01*
X123258003Y-78501810D01*
X123231065Y-78420998D01*
X123231065Y-78313248D01*
X123284940Y-78205499D01*
X123338815Y-78151624D01*
X123446564Y-78097749D01*
X123500439Y-78097749D01*
X124550998Y-78070812D02*
X124227749Y-78394061D01*
X124389374Y-78232436D02*
X123823688Y-77666751D01*
X123850625Y-77801438D01*
X123850625Y-77909187D01*
X123823688Y-77990000D01*
X125089746Y-77532064D02*
X124766497Y-77855312D01*
X124928122Y-77693688D02*
X124362436Y-77128003D01*
X124389374Y-77262690D01*
X124389374Y-77370439D01*
X124362436Y-77451251D01*
%TO.C,C12*%
X124958375Y-79665685D02*
X124958375Y-79719560D01*
X124904500Y-79827309D01*
X124850625Y-79881184D01*
X124742876Y-79935059D01*
X124635126Y-79935059D01*
X124554314Y-79908122D01*
X124419627Y-79827309D01*
X124338815Y-79746497D01*
X124258003Y-79611810D01*
X124231065Y-79530998D01*
X124231065Y-79423248D01*
X124284940Y-79315499D01*
X124338815Y-79261624D01*
X124446564Y-79207749D01*
X124500439Y-79207749D01*
X125550998Y-79180812D02*
X125227749Y-79504061D01*
X125389374Y-79342436D02*
X124823688Y-78776751D01*
X124850625Y-78911438D01*
X124850625Y-79019187D01*
X124823688Y-79100000D01*
X125254687Y-78453502D02*
X125254687Y-78399627D01*
X125281624Y-78318815D01*
X125416311Y-78184128D01*
X125497123Y-78157190D01*
X125550998Y-78157190D01*
X125631810Y-78184128D01*
X125685685Y-78238003D01*
X125739560Y-78345752D01*
X125739560Y-78992250D01*
X126089746Y-78642064D01*
%TO.C,C13*%
X126738375Y-80245685D02*
X126738375Y-80299560D01*
X126684500Y-80407309D01*
X126630625Y-80461184D01*
X126522876Y-80515059D01*
X126415126Y-80515059D01*
X126334314Y-80488122D01*
X126199627Y-80407309D01*
X126118815Y-80326497D01*
X126038003Y-80191810D01*
X126011065Y-80110998D01*
X126011065Y-80003248D01*
X126064940Y-79895499D01*
X126118815Y-79841624D01*
X126226564Y-79787749D01*
X126280439Y-79787749D01*
X127330998Y-79760812D02*
X127007749Y-80084061D01*
X127169374Y-79922436D02*
X126603688Y-79356751D01*
X126630625Y-79491438D01*
X126630625Y-79599187D01*
X126603688Y-79680000D01*
X126953874Y-79006564D02*
X127304061Y-78656378D01*
X127330998Y-79060439D01*
X127411810Y-78979627D01*
X127492622Y-78952690D01*
X127546497Y-78952690D01*
X127627309Y-78979627D01*
X127761996Y-79114314D01*
X127788934Y-79195126D01*
X127788934Y-79249001D01*
X127761996Y-79329813D01*
X127600372Y-79491438D01*
X127519560Y-79518375D01*
X127465685Y-79518375D01*
%TO.C,C14*%
X137585714Y-80585714D02*
X137547619Y-80623809D01*
X137433333Y-80661904D01*
X137357142Y-80661904D01*
X137242857Y-80623809D01*
X137166666Y-80547619D01*
X137128571Y-80471428D01*
X137090476Y-80319047D01*
X137090476Y-80204761D01*
X137128571Y-80052380D01*
X137166666Y-79976190D01*
X137242857Y-79900000D01*
X137357142Y-79861904D01*
X137433333Y-79861904D01*
X137547619Y-79900000D01*
X137585714Y-79938095D01*
X138347619Y-80661904D02*
X137890476Y-80661904D01*
X138119047Y-80661904D02*
X138119047Y-79861904D01*
X138042857Y-79976190D01*
X137966666Y-80052380D01*
X137890476Y-80090476D01*
X139033333Y-80128571D02*
X139033333Y-80661904D01*
X138842857Y-79823809D02*
X138652380Y-80395238D01*
X139147619Y-80395238D01*
%TO.C,C15*%
X137885714Y-82085714D02*
X137847619Y-82123809D01*
X137733333Y-82161904D01*
X137657142Y-82161904D01*
X137542857Y-82123809D01*
X137466666Y-82047619D01*
X137428571Y-81971428D01*
X137390476Y-81819047D01*
X137390476Y-81704761D01*
X137428571Y-81552380D01*
X137466666Y-81476190D01*
X137542857Y-81400000D01*
X137657142Y-81361904D01*
X137733333Y-81361904D01*
X137847619Y-81400000D01*
X137885714Y-81438095D01*
X138647619Y-82161904D02*
X138190476Y-82161904D01*
X138419047Y-82161904D02*
X138419047Y-81361904D01*
X138342857Y-81476190D01*
X138266666Y-81552380D01*
X138190476Y-81590476D01*
X139371428Y-81361904D02*
X138990476Y-81361904D01*
X138952380Y-81742857D01*
X138990476Y-81704761D01*
X139066666Y-81666666D01*
X139257142Y-81666666D01*
X139333333Y-81704761D01*
X139371428Y-81742857D01*
X139409523Y-81819047D01*
X139409523Y-82009523D01*
X139371428Y-82085714D01*
X139333333Y-82123809D01*
X139257142Y-82161904D01*
X139066666Y-82161904D01*
X138990476Y-82123809D01*
X138952380Y-82085714D01*
%TO.C,L1*%
X132866666Y-49361904D02*
X132485714Y-49361904D01*
X132485714Y-48561904D01*
X133552380Y-49361904D02*
X133095238Y-49361904D01*
X133323809Y-49361904D02*
X133323809Y-48561904D01*
X133247619Y-48676190D01*
X133171428Y-48752380D01*
X133095238Y-48790476D01*
%TO.C,R1*%
X136741666Y-56286904D02*
X136475000Y-55905952D01*
X136284523Y-56286904D02*
X136284523Y-55486904D01*
X136589285Y-55486904D01*
X136665476Y-55525000D01*
X136703571Y-55563095D01*
X136741666Y-55639285D01*
X136741666Y-55753571D01*
X136703571Y-55829761D01*
X136665476Y-55867857D01*
X136589285Y-55905952D01*
X136284523Y-55905952D01*
X137503571Y-56286904D02*
X137046428Y-56286904D01*
X137275000Y-56286904D02*
X137275000Y-55486904D01*
X137198809Y-55601190D01*
X137122619Y-55677380D01*
X137046428Y-55715476D01*
%TO.C,R2*%
X134116666Y-57486904D02*
X133850000Y-57105952D01*
X133659523Y-57486904D02*
X133659523Y-56686904D01*
X133964285Y-56686904D01*
X134040476Y-56725000D01*
X134078571Y-56763095D01*
X134116666Y-56839285D01*
X134116666Y-56953571D01*
X134078571Y-57029761D01*
X134040476Y-57067857D01*
X133964285Y-57105952D01*
X133659523Y-57105952D01*
X134421428Y-56763095D02*
X134459523Y-56725000D01*
X134535714Y-56686904D01*
X134726190Y-56686904D01*
X134802380Y-56725000D01*
X134840476Y-56763095D01*
X134878571Y-56839285D01*
X134878571Y-56915476D01*
X134840476Y-57029761D01*
X134383333Y-57486904D01*
X134878571Y-57486904D01*
%TO.C,R3*%
X119966666Y-69161904D02*
X119700000Y-68780952D01*
X119509523Y-69161904D02*
X119509523Y-68361904D01*
X119814285Y-68361904D01*
X119890476Y-68400000D01*
X119928571Y-68438095D01*
X119966666Y-68514285D01*
X119966666Y-68628571D01*
X119928571Y-68704761D01*
X119890476Y-68742857D01*
X119814285Y-68780952D01*
X119509523Y-68780952D01*
X120233333Y-68361904D02*
X120728571Y-68361904D01*
X120461904Y-68666666D01*
X120576190Y-68666666D01*
X120652380Y-68704761D01*
X120690476Y-68742857D01*
X120728571Y-68819047D01*
X120728571Y-69009523D01*
X120690476Y-69085714D01*
X120652380Y-69123809D01*
X120576190Y-69161904D01*
X120347619Y-69161904D01*
X120271428Y-69123809D01*
X120233333Y-69085714D01*
%TO.C,R4*%
X140016666Y-54636904D02*
X139750000Y-54255952D01*
X139559523Y-54636904D02*
X139559523Y-53836904D01*
X139864285Y-53836904D01*
X139940476Y-53875000D01*
X139978571Y-53913095D01*
X140016666Y-53989285D01*
X140016666Y-54103571D01*
X139978571Y-54179761D01*
X139940476Y-54217857D01*
X139864285Y-54255952D01*
X139559523Y-54255952D01*
X140702380Y-54103571D02*
X140702380Y-54636904D01*
X140511904Y-53798809D02*
X140321428Y-54370238D01*
X140816666Y-54370238D01*
%TO.C,R5*%
X134166666Y-79161904D02*
X133900000Y-78780952D01*
X133709523Y-79161904D02*
X133709523Y-78361904D01*
X134014285Y-78361904D01*
X134090476Y-78400000D01*
X134128571Y-78438095D01*
X134166666Y-78514285D01*
X134166666Y-78628571D01*
X134128571Y-78704761D01*
X134090476Y-78742857D01*
X134014285Y-78780952D01*
X133709523Y-78780952D01*
X134890476Y-78361904D02*
X134509523Y-78361904D01*
X134471428Y-78742857D01*
X134509523Y-78704761D01*
X134585714Y-78666666D01*
X134776190Y-78666666D01*
X134852380Y-78704761D01*
X134890476Y-78742857D01*
X134928571Y-78819047D01*
X134928571Y-79009523D01*
X134890476Y-79085714D01*
X134852380Y-79123809D01*
X134776190Y-79161904D01*
X134585714Y-79161904D01*
X134509523Y-79123809D01*
X134471428Y-79085714D01*
%TO.C,U1*%
X118690476Y-56761904D02*
X118690476Y-57409523D01*
X118728571Y-57485714D01*
X118766666Y-57523809D01*
X118842857Y-57561904D01*
X118995238Y-57561904D01*
X119071428Y-57523809D01*
X119109523Y-57485714D01*
X119147619Y-57409523D01*
X119147619Y-56761904D01*
X119947619Y-57561904D02*
X119490476Y-57561904D01*
X119719047Y-57561904D02*
X119719047Y-56761904D01*
X119642857Y-56876190D01*
X119566666Y-56952380D01*
X119490476Y-56990476D01*
%TO.C,U2*%
X117490476Y-51361904D02*
X117490476Y-52009523D01*
X117528571Y-52085714D01*
X117566666Y-52123809D01*
X117642857Y-52161904D01*
X117795238Y-52161904D01*
X117871428Y-52123809D01*
X117909523Y-52085714D01*
X117947619Y-52009523D01*
X117947619Y-51361904D01*
X118290476Y-51438095D02*
X118328571Y-51400000D01*
X118404761Y-51361904D01*
X118595238Y-51361904D01*
X118671428Y-51400000D01*
X118709523Y-51438095D01*
X118747619Y-51514285D01*
X118747619Y-51590476D01*
X118709523Y-51704761D01*
X118252380Y-52161904D01*
X118747619Y-52161904D01*
%TO.C,U3*%
X129402476Y-51341904D02*
X129402476Y-51989523D01*
X129440571Y-52065714D01*
X129478666Y-52103809D01*
X129554857Y-52141904D01*
X129707238Y-52141904D01*
X129783428Y-52103809D01*
X129821523Y-52065714D01*
X129859619Y-51989523D01*
X129859619Y-51341904D01*
X130164380Y-51341904D02*
X130659619Y-51341904D01*
X130392952Y-51646666D01*
X130507238Y-51646666D01*
X130583428Y-51684761D01*
X130621523Y-51722857D01*
X130659619Y-51799047D01*
X130659619Y-51989523D01*
X130621523Y-52065714D01*
X130583428Y-52103809D01*
X130507238Y-52141904D01*
X130278666Y-52141904D01*
X130202476Y-52103809D01*
X130164380Y-52065714D01*
%TO.C,U4*%
X130490476Y-53961904D02*
X130490476Y-54609523D01*
X130528571Y-54685714D01*
X130566666Y-54723809D01*
X130642857Y-54761904D01*
X130795238Y-54761904D01*
X130871428Y-54723809D01*
X130909523Y-54685714D01*
X130947619Y-54609523D01*
X130947619Y-53961904D01*
X131671428Y-54228571D02*
X131671428Y-54761904D01*
X131480952Y-53923809D02*
X131290476Y-54495238D01*
X131785714Y-54495238D01*
%TO.C,X1*%
X120952380Y-75861904D02*
X121485714Y-76661904D01*
X121485714Y-75861904D02*
X120952380Y-76661904D01*
X122209523Y-76661904D02*
X121752380Y-76661904D01*
X121980952Y-76661904D02*
X121980952Y-75861904D01*
X121904761Y-75976190D01*
X121828571Y-76052380D01*
X121752380Y-76090476D01*
%TO.C,U5*%
X130590476Y-56611904D02*
X130590476Y-57259523D01*
X130628571Y-57335714D01*
X130666666Y-57373809D01*
X130742857Y-57411904D01*
X130895238Y-57411904D01*
X130971428Y-57373809D01*
X131009523Y-57335714D01*
X131047619Y-57259523D01*
X131047619Y-56611904D01*
X131809523Y-56611904D02*
X131428571Y-56611904D01*
X131390476Y-56992857D01*
X131428571Y-56954761D01*
X131504761Y-56916666D01*
X131695238Y-56916666D01*
X131771428Y-56954761D01*
X131809523Y-56992857D01*
X131847619Y-57069047D01*
X131847619Y-57259523D01*
X131809523Y-57335714D01*
X131771428Y-57373809D01*
X131695238Y-57411904D01*
X131504761Y-57411904D01*
X131428571Y-57373809D01*
X131390476Y-57335714D01*
%TO.C,U6*%
X132390476Y-63311904D02*
X132390476Y-63959523D01*
X132428571Y-64035714D01*
X132466666Y-64073809D01*
X132542857Y-64111904D01*
X132695238Y-64111904D01*
X132771428Y-64073809D01*
X132809523Y-64035714D01*
X132847619Y-63959523D01*
X132847619Y-63311904D01*
X133571428Y-63311904D02*
X133419047Y-63311904D01*
X133342857Y-63350000D01*
X133304761Y-63388095D01*
X133228571Y-63502380D01*
X133190476Y-63654761D01*
X133190476Y-63959523D01*
X133228571Y-64035714D01*
X133266666Y-64073809D01*
X133342857Y-64111904D01*
X133495238Y-64111904D01*
X133571428Y-64073809D01*
X133609523Y-64035714D01*
X133647619Y-63959523D01*
X133647619Y-63769047D01*
X133609523Y-63692857D01*
X133571428Y-63654761D01*
X133495238Y-63616666D01*
X133342857Y-63616666D01*
X133266666Y-63654761D01*
X133228571Y-63692857D01*
X133190476Y-63769047D01*
%TO.C,RES_D*%
X135000000Y-83561904D02*
X134733333Y-83180952D01*
X134542857Y-83561904D02*
X134542857Y-82761904D01*
X134847619Y-82761904D01*
X134923809Y-82800000D01*
X134961904Y-82838095D01*
X135000000Y-82914285D01*
X135000000Y-83028571D01*
X134961904Y-83104761D01*
X134923809Y-83142857D01*
X134847619Y-83180952D01*
X134542857Y-83180952D01*
X135342857Y-83142857D02*
X135609523Y-83142857D01*
X135723809Y-83561904D02*
X135342857Y-83561904D01*
X135342857Y-82761904D01*
X135723809Y-82761904D01*
X136028571Y-83523809D02*
X136142857Y-83561904D01*
X136333333Y-83561904D01*
X136409523Y-83523809D01*
X136447619Y-83485714D01*
X136485714Y-83409523D01*
X136485714Y-83333333D01*
X136447619Y-83257142D01*
X136409523Y-83219047D01*
X136333333Y-83180952D01*
X136180952Y-83142857D01*
X136104761Y-83104761D01*
X136066666Y-83066666D01*
X136028571Y-82990476D01*
X136028571Y-82914285D01*
X136066666Y-82838095D01*
X136104761Y-82800000D01*
X136180952Y-82761904D01*
X136371428Y-82761904D01*
X136485714Y-82800000D01*
X136638095Y-83638095D02*
X137247619Y-83638095D01*
X137438095Y-83561904D02*
X137438095Y-82761904D01*
X137628571Y-82761904D01*
X137742857Y-82800000D01*
X137819047Y-82876190D01*
X137857142Y-82952380D01*
X137895238Y-83104761D01*
X137895238Y-83219047D01*
X137857142Y-83371428D01*
X137819047Y-83447619D01*
X137742857Y-83523809D01*
X137628571Y-83561904D01*
X137438095Y-83561904D01*
%TO.C,RES_C*%
X125811904Y-71050000D02*
X125430952Y-71316666D01*
X125811904Y-71507142D02*
X125011904Y-71507142D01*
X125011904Y-71202380D01*
X125050000Y-71126190D01*
X125088095Y-71088095D01*
X125164285Y-71050000D01*
X125278571Y-71050000D01*
X125354761Y-71088095D01*
X125392857Y-71126190D01*
X125430952Y-71202380D01*
X125430952Y-71507142D01*
X125392857Y-70707142D02*
X125392857Y-70440476D01*
X125811904Y-70326190D02*
X125811904Y-70707142D01*
X125011904Y-70707142D01*
X125011904Y-70326190D01*
X125773809Y-70021428D02*
X125811904Y-69907142D01*
X125811904Y-69716666D01*
X125773809Y-69640476D01*
X125735714Y-69602380D01*
X125659523Y-69564285D01*
X125583333Y-69564285D01*
X125507142Y-69602380D01*
X125469047Y-69640476D01*
X125430952Y-69716666D01*
X125392857Y-69869047D01*
X125354761Y-69945238D01*
X125316666Y-69983333D01*
X125240476Y-70021428D01*
X125164285Y-70021428D01*
X125088095Y-69983333D01*
X125050000Y-69945238D01*
X125011904Y-69869047D01*
X125011904Y-69678571D01*
X125050000Y-69564285D01*
X125888095Y-69411904D02*
X125888095Y-68802380D01*
X125735714Y-68154761D02*
X125773809Y-68192857D01*
X125811904Y-68307142D01*
X125811904Y-68383333D01*
X125773809Y-68497619D01*
X125697619Y-68573809D01*
X125621428Y-68611904D01*
X125469047Y-68650000D01*
X125354761Y-68650000D01*
X125202380Y-68611904D01*
X125126190Y-68573809D01*
X125050000Y-68497619D01*
X125011904Y-68383333D01*
X125011904Y-68307142D01*
X125050000Y-68192857D01*
X125088095Y-68154761D01*
%TO.C,IRQ*%
X126980952Y-66036904D02*
X126980952Y-65236904D01*
X127819047Y-66036904D02*
X127552380Y-65655952D01*
X127361904Y-66036904D02*
X127361904Y-65236904D01*
X127666666Y-65236904D01*
X127742857Y-65275000D01*
X127780952Y-65313095D01*
X127819047Y-65389285D01*
X127819047Y-65503571D01*
X127780952Y-65579761D01*
X127742857Y-65617857D01*
X127666666Y-65655952D01*
X127361904Y-65655952D01*
X128695238Y-66113095D02*
X128619047Y-66075000D01*
X128542857Y-65998809D01*
X128428571Y-65884523D01*
X128352380Y-65846428D01*
X128276190Y-65846428D01*
X128314285Y-66036904D02*
X128238095Y-65998809D01*
X128161904Y-65922619D01*
X128123809Y-65770238D01*
X128123809Y-65503571D01*
X128161904Y-65351190D01*
X128238095Y-65275000D01*
X128314285Y-65236904D01*
X128466666Y-65236904D01*
X128542857Y-65275000D01*
X128619047Y-65351190D01*
X128657142Y-65503571D01*
X128657142Y-65770238D01*
X128619047Y-65922619D01*
X128542857Y-65998809D01*
X128466666Y-66036904D01*
X128314285Y-66036904D01*
%TD*%
M02*
