%TF.GenerationSoftware,KiCad,Pcbnew,5.0.2+dfsg1-1*%
%TF.CreationDate,2020-08-11T00:40:15-07:00*%
%TF.ProjectId,driver-board-2L,64726976-6572-42d6-926f-6172642d324c,rev?*%
%TF.SameCoordinates,Original*%
%TF.FileFunction,Soldermask,Bot*%
%TF.FilePolarity,Negative*%
%FSLAX46Y46*%
G04 Gerber Fmt 4.6, Leading zero omitted, Abs format (unit mm)*
G04 Created by KiCad (PCBNEW 5.0.2+dfsg1-1) date Tue 11 Aug 2020 12:40:15 AM PDT*
%MOMM*%
%LPD*%
G01*
G04 APERTURE LIST*
%ADD10C,0.100000*%
G04 APERTURE END LIST*
D10*
G36*
X112376432Y-80693022D02*
X112546081Y-80744485D01*
X112702433Y-80828056D01*
X112839475Y-80940525D01*
X112951944Y-81077567D01*
X113035515Y-81233919D01*
X113086978Y-81403568D01*
X113104354Y-81580000D01*
X113086978Y-81756432D01*
X113035515Y-81926081D01*
X112951944Y-82082433D01*
X112839475Y-82219475D01*
X112702433Y-82331944D01*
X112546081Y-82415515D01*
X112376432Y-82466978D01*
X112244211Y-82480000D01*
X112155789Y-82480000D01*
X112023568Y-82466978D01*
X111853919Y-82415515D01*
X111697567Y-82331944D01*
X111560525Y-82219475D01*
X111448056Y-82082433D01*
X111364485Y-81926081D01*
X111313022Y-81756432D01*
X111295646Y-81580000D01*
X111313022Y-81403568D01*
X111364485Y-81233919D01*
X111448056Y-81077567D01*
X111560525Y-80940525D01*
X111697567Y-80828056D01*
X111853919Y-80744485D01*
X112023568Y-80693022D01*
X112155789Y-80680000D01*
X112244211Y-80680000D01*
X112376432Y-80693022D01*
X112376432Y-80693022D01*
G37*
G36*
X112376432Y-78153022D02*
X112546081Y-78204485D01*
X112702433Y-78288056D01*
X112839475Y-78400525D01*
X112951944Y-78537567D01*
X113035515Y-78693919D01*
X113086978Y-78863568D01*
X113104354Y-79040000D01*
X113086978Y-79216432D01*
X113035515Y-79386081D01*
X112951944Y-79542433D01*
X112839475Y-79679475D01*
X112702433Y-79791944D01*
X112546081Y-79875515D01*
X112376432Y-79926978D01*
X112244211Y-79940000D01*
X112155789Y-79940000D01*
X112023568Y-79926978D01*
X111853919Y-79875515D01*
X111697567Y-79791944D01*
X111560525Y-79679475D01*
X111448056Y-79542433D01*
X111364485Y-79386081D01*
X111313022Y-79216432D01*
X111295646Y-79040000D01*
X111313022Y-78863568D01*
X111364485Y-78693919D01*
X111448056Y-78537567D01*
X111560525Y-78400525D01*
X111697567Y-78288056D01*
X111853919Y-78204485D01*
X112023568Y-78153022D01*
X112155789Y-78140000D01*
X112244211Y-78140000D01*
X112376432Y-78153022D01*
X112376432Y-78153022D01*
G37*
G36*
X112376432Y-75613022D02*
X112546081Y-75664485D01*
X112702433Y-75748056D01*
X112839475Y-75860525D01*
X112951944Y-75997567D01*
X113035515Y-76153919D01*
X113086978Y-76323568D01*
X113104354Y-76500000D01*
X113086978Y-76676432D01*
X113035515Y-76846081D01*
X112951944Y-77002433D01*
X112839475Y-77139475D01*
X112702433Y-77251944D01*
X112546081Y-77335515D01*
X112376432Y-77386978D01*
X112244211Y-77400000D01*
X112155789Y-77400000D01*
X112023568Y-77386978D01*
X111853919Y-77335515D01*
X111697567Y-77251944D01*
X111560525Y-77139475D01*
X111448056Y-77002433D01*
X111364485Y-76846081D01*
X111313022Y-76676432D01*
X111295646Y-76500000D01*
X111313022Y-76323568D01*
X111364485Y-76153919D01*
X111448056Y-75997567D01*
X111560525Y-75860525D01*
X111697567Y-75748056D01*
X111853919Y-75664485D01*
X112023568Y-75613022D01*
X112155789Y-75600000D01*
X112244211Y-75600000D01*
X112376432Y-75613022D01*
X112376432Y-75613022D01*
G37*
G36*
X112376432Y-73073022D02*
X112546081Y-73124485D01*
X112702433Y-73208056D01*
X112839475Y-73320525D01*
X112951944Y-73457567D01*
X113035515Y-73613919D01*
X113086978Y-73783568D01*
X113104354Y-73960000D01*
X113086978Y-74136432D01*
X113035515Y-74306081D01*
X112951944Y-74462433D01*
X112839475Y-74599475D01*
X112702433Y-74711944D01*
X112546081Y-74795515D01*
X112376432Y-74846978D01*
X112244211Y-74860000D01*
X112155789Y-74860000D01*
X112023568Y-74846978D01*
X111853919Y-74795515D01*
X111697567Y-74711944D01*
X111560525Y-74599475D01*
X111448056Y-74462433D01*
X111364485Y-74306081D01*
X111313022Y-74136432D01*
X111295646Y-73960000D01*
X111313022Y-73783568D01*
X111364485Y-73613919D01*
X111448056Y-73457567D01*
X111560525Y-73320525D01*
X111697567Y-73208056D01*
X111853919Y-73124485D01*
X112023568Y-73073022D01*
X112155789Y-73060000D01*
X112244211Y-73060000D01*
X112376432Y-73073022D01*
X112376432Y-73073022D01*
G37*
G36*
X112376432Y-70533022D02*
X112546081Y-70584485D01*
X112702433Y-70668056D01*
X112839475Y-70780525D01*
X112951944Y-70917567D01*
X113035515Y-71073919D01*
X113086978Y-71243568D01*
X113104354Y-71420000D01*
X113086978Y-71596432D01*
X113035515Y-71766081D01*
X112951944Y-71922433D01*
X112839475Y-72059475D01*
X112702433Y-72171944D01*
X112546081Y-72255515D01*
X112376432Y-72306978D01*
X112244211Y-72320000D01*
X112155789Y-72320000D01*
X112023568Y-72306978D01*
X111853919Y-72255515D01*
X111697567Y-72171944D01*
X111560525Y-72059475D01*
X111448056Y-71922433D01*
X111364485Y-71766081D01*
X111313022Y-71596432D01*
X111295646Y-71420000D01*
X111313022Y-71243568D01*
X111364485Y-71073919D01*
X111448056Y-70917567D01*
X111560525Y-70780525D01*
X111697567Y-70668056D01*
X111853919Y-70584485D01*
X112023568Y-70533022D01*
X112155789Y-70520000D01*
X112244211Y-70520000D01*
X112376432Y-70533022D01*
X112376432Y-70533022D01*
G37*
G36*
X112376432Y-67993022D02*
X112546081Y-68044485D01*
X112702433Y-68128056D01*
X112839475Y-68240525D01*
X112951944Y-68377567D01*
X113035515Y-68533919D01*
X113086978Y-68703568D01*
X113104354Y-68880000D01*
X113086978Y-69056432D01*
X113035515Y-69226081D01*
X112951944Y-69382433D01*
X112839475Y-69519475D01*
X112702433Y-69631944D01*
X112546081Y-69715515D01*
X112376432Y-69766978D01*
X112244211Y-69780000D01*
X112155789Y-69780000D01*
X112023568Y-69766978D01*
X111853919Y-69715515D01*
X111697567Y-69631944D01*
X111560525Y-69519475D01*
X111448056Y-69382433D01*
X111364485Y-69226081D01*
X111313022Y-69056432D01*
X111295646Y-68880000D01*
X111313022Y-68703568D01*
X111364485Y-68533919D01*
X111448056Y-68377567D01*
X111560525Y-68240525D01*
X111697567Y-68128056D01*
X111853919Y-68044485D01*
X112023568Y-67993022D01*
X112155789Y-67980000D01*
X112244211Y-67980000D01*
X112376432Y-67993022D01*
X112376432Y-67993022D01*
G37*
G36*
X112376432Y-65453022D02*
X112546081Y-65504485D01*
X112702433Y-65588056D01*
X112839475Y-65700525D01*
X112951944Y-65837567D01*
X113035515Y-65993919D01*
X113086978Y-66163568D01*
X113104354Y-66340000D01*
X113086978Y-66516432D01*
X113035515Y-66686081D01*
X112951944Y-66842433D01*
X112839475Y-66979475D01*
X112702433Y-67091944D01*
X112546081Y-67175515D01*
X112376432Y-67226978D01*
X112244211Y-67240000D01*
X112155789Y-67240000D01*
X112023568Y-67226978D01*
X111853919Y-67175515D01*
X111697567Y-67091944D01*
X111560525Y-66979475D01*
X111448056Y-66842433D01*
X111364485Y-66686081D01*
X111313022Y-66516432D01*
X111295646Y-66340000D01*
X111313022Y-66163568D01*
X111364485Y-65993919D01*
X111448056Y-65837567D01*
X111560525Y-65700525D01*
X111697567Y-65588056D01*
X111853919Y-65504485D01*
X112023568Y-65453022D01*
X112155789Y-65440000D01*
X112244211Y-65440000D01*
X112376432Y-65453022D01*
X112376432Y-65453022D01*
G37*
G36*
X112376432Y-62913022D02*
X112546081Y-62964485D01*
X112702433Y-63048056D01*
X112839475Y-63160525D01*
X112951944Y-63297567D01*
X113035515Y-63453919D01*
X113086978Y-63623568D01*
X113104354Y-63800000D01*
X113086978Y-63976432D01*
X113035515Y-64146081D01*
X112951944Y-64302433D01*
X112839475Y-64439475D01*
X112702433Y-64551944D01*
X112546081Y-64635515D01*
X112376432Y-64686978D01*
X112244211Y-64700000D01*
X112155789Y-64700000D01*
X112023568Y-64686978D01*
X111853919Y-64635515D01*
X111697567Y-64551944D01*
X111560525Y-64439475D01*
X111448056Y-64302433D01*
X111364485Y-64146081D01*
X111313022Y-63976432D01*
X111295646Y-63800000D01*
X111313022Y-63623568D01*
X111364485Y-63453919D01*
X111448056Y-63297567D01*
X111560525Y-63160525D01*
X111697567Y-63048056D01*
X111853919Y-62964485D01*
X112023568Y-62913022D01*
X112155789Y-62900000D01*
X112244211Y-62900000D01*
X112376432Y-62913022D01*
X112376432Y-62913022D01*
G37*
G36*
X112376432Y-60373022D02*
X112546081Y-60424485D01*
X112702433Y-60508056D01*
X112839475Y-60620525D01*
X112951944Y-60757567D01*
X113035515Y-60913919D01*
X113086978Y-61083568D01*
X113104354Y-61260000D01*
X113086978Y-61436432D01*
X113035515Y-61606081D01*
X112951944Y-61762433D01*
X112839475Y-61899475D01*
X112702433Y-62011944D01*
X112546081Y-62095515D01*
X112376432Y-62146978D01*
X112244211Y-62160000D01*
X112155789Y-62160000D01*
X112023568Y-62146978D01*
X111853919Y-62095515D01*
X111697567Y-62011944D01*
X111560525Y-61899475D01*
X111448056Y-61762433D01*
X111364485Y-61606081D01*
X111313022Y-61436432D01*
X111295646Y-61260000D01*
X111313022Y-61083568D01*
X111364485Y-60913919D01*
X111448056Y-60757567D01*
X111560525Y-60620525D01*
X111697567Y-60508056D01*
X111853919Y-60424485D01*
X112023568Y-60373022D01*
X112155789Y-60360000D01*
X112244211Y-60360000D01*
X112376432Y-60373022D01*
X112376432Y-60373022D01*
G37*
G36*
X112376432Y-57833022D02*
X112546081Y-57884485D01*
X112702433Y-57968056D01*
X112839475Y-58080525D01*
X112951944Y-58217567D01*
X113035515Y-58373919D01*
X113086978Y-58543568D01*
X113104354Y-58720000D01*
X113086978Y-58896432D01*
X113035515Y-59066081D01*
X112951944Y-59222433D01*
X112839475Y-59359475D01*
X112702433Y-59471944D01*
X112546081Y-59555515D01*
X112376432Y-59606978D01*
X112244211Y-59620000D01*
X112155789Y-59620000D01*
X112023568Y-59606978D01*
X111853919Y-59555515D01*
X111697567Y-59471944D01*
X111560525Y-59359475D01*
X111448056Y-59222433D01*
X111364485Y-59066081D01*
X111313022Y-58896432D01*
X111295646Y-58720000D01*
X111313022Y-58543568D01*
X111364485Y-58373919D01*
X111448056Y-58217567D01*
X111560525Y-58080525D01*
X111697567Y-57968056D01*
X111853919Y-57884485D01*
X112023568Y-57833022D01*
X112155789Y-57820000D01*
X112244211Y-57820000D01*
X112376432Y-57833022D01*
X112376432Y-57833022D01*
G37*
G36*
X112376432Y-55293022D02*
X112546081Y-55344485D01*
X112702433Y-55428056D01*
X112839475Y-55540525D01*
X112951944Y-55677567D01*
X113035515Y-55833919D01*
X113086978Y-56003568D01*
X113104354Y-56180000D01*
X113086978Y-56356432D01*
X113035515Y-56526081D01*
X112951944Y-56682433D01*
X112839475Y-56819475D01*
X112702433Y-56931944D01*
X112546081Y-57015515D01*
X112376432Y-57066978D01*
X112244211Y-57080000D01*
X112155789Y-57080000D01*
X112023568Y-57066978D01*
X111853919Y-57015515D01*
X111697567Y-56931944D01*
X111560525Y-56819475D01*
X111448056Y-56682433D01*
X111364485Y-56526081D01*
X111313022Y-56356432D01*
X111295646Y-56180000D01*
X111313022Y-56003568D01*
X111364485Y-55833919D01*
X111448056Y-55677567D01*
X111560525Y-55540525D01*
X111697567Y-55428056D01*
X111853919Y-55344485D01*
X112023568Y-55293022D01*
X112155789Y-55280000D01*
X112244211Y-55280000D01*
X112376432Y-55293022D01*
X112376432Y-55293022D01*
G37*
G36*
X112376432Y-52753022D02*
X112546081Y-52804485D01*
X112702433Y-52888056D01*
X112839475Y-53000525D01*
X112951944Y-53137567D01*
X113035515Y-53293919D01*
X113086978Y-53463568D01*
X113104354Y-53640000D01*
X113086978Y-53816432D01*
X113035515Y-53986081D01*
X112951944Y-54142433D01*
X112839475Y-54279475D01*
X112702433Y-54391944D01*
X112546081Y-54475515D01*
X112376432Y-54526978D01*
X112244211Y-54540000D01*
X112155789Y-54540000D01*
X112023568Y-54526978D01*
X111853919Y-54475515D01*
X111697567Y-54391944D01*
X111560525Y-54279475D01*
X111448056Y-54142433D01*
X111364485Y-53986081D01*
X111313022Y-53816432D01*
X111295646Y-53640000D01*
X111313022Y-53463568D01*
X111364485Y-53293919D01*
X111448056Y-53137567D01*
X111560525Y-53000525D01*
X111697567Y-52888056D01*
X111853919Y-52804485D01*
X112023568Y-52753022D01*
X112155789Y-52740000D01*
X112244211Y-52740000D01*
X112376432Y-52753022D01*
X112376432Y-52753022D01*
G37*
G36*
X113100000Y-52000000D02*
X111300000Y-52000000D01*
X111300000Y-50200000D01*
X113100000Y-50200000D01*
X113100000Y-52000000D01*
X113100000Y-52000000D01*
G37*
M02*
