<?xml version="1.0" standalone="no"?>
 <!DOCTYPE svg PUBLIC "-//W3C//DTD SVG 1.1//EN" 
 "http://www.w3.org/Graphics/SVG/1.1/DTD/svg11.dtd"> 
<svg
  xmlns:svg="http://www.w3.org/2000/svg"
  xmlns="http://www.w3.org/2000/svg"
  xmlns:xlink="http://www.w3.org/1999/xlink"
  version="1.1"
  width="29.700220cm" height="21.000720cm" viewBox="0 0 116930 82680">
<title>SVG Picture created as driver-board.svg date 2020/07/19 17:07:40 </title>
  <desc>Picture generated by Eeschema-SVG </desc>
<g style="fill:#000000; fill-opacity:1;stroke:#000000; stroke-opacity:1;
stroke-linecap:round; stroke-linejoin:round;"
 transform="translate(0 0) scale(1 1)">
</g>
<g style="fill:#000000; fill-opacity:0.0; 
stroke:#000000; stroke-width:-10; stroke-opacity:1; 
stroke-linecap:round; stroke-linejoin:round;">
</g>
<g style="fill:#840000; fill-opacity:0.0; 
stroke:#840000; stroke-width:-10; stroke-opacity:1; 
stroke-linecap:round; stroke-linejoin:round;">
</g>
<g style="fill:#840000; fill-opacity:0.0; 
stroke:#840000; stroke-width:100; stroke-opacity:1; 
stroke-linecap:round; stroke-linejoin:round;">
</g>
<g style="fill:#840000; fill-opacity:0.0; 
stroke:#840000; stroke-width:60; stroke-opacity:1; 
stroke-linecap:round; stroke-linejoin:round;">
<rect x="69690" y="65360" width="42520" height="12600" rx="0" />
</g>
<g style="fill:#840000; fill-opacity:0.0; 
stroke:#840000; stroke-width:100; stroke-opacity:1; 
stroke-linecap:round; stroke-linejoin:round;">
</g>
<g style="fill:#840000; fill-opacity:0.0; 
stroke:#840000; stroke-width:60; stroke-opacity:1; 
stroke-linecap:round; stroke-linejoin:round;">
<rect x="3940" y="3940" width="109050" height="74800" rx="0" />
</g>
<g style="fill:#840000; fill-opacity:0.0; 
stroke:#840000; stroke-width:100; stroke-opacity:1; 
stroke-linecap:round; stroke-linejoin:round;">
</g>
<g style="fill:#840000; fill-opacity:0.0; 
stroke:#840000; stroke-width:60; stroke-opacity:1; 
stroke-linecap:round; stroke-linejoin:round;">
<rect x="4720" y="4720" width="107490" height="73240" rx="0" />
</g>
<g style="fill:#840000; fill-opacity:0.0; 
stroke:#840000; stroke-width:100; stroke-opacity:1; 
stroke-linecap:round; stroke-linejoin:round;">
</g>
<g style="fill:#840000; fill-opacity:0.0; 
stroke:#840000; stroke-width:60; stroke-opacity:1; 
stroke-linecap:round; stroke-linejoin:round;">
<path d="M23620 4720
L23620 3940
" />
</g>
<g style="fill:#840000; fill-opacity:0.0; 
stroke:#840000; stroke-width:100; stroke-opacity:1; 
stroke-linecap:round; stroke-linejoin:round;">
</g>
<g style="fill:#840000; fill-opacity:0.0; 
stroke:#840000; stroke-width:60; stroke-opacity:1; 
stroke-linecap:round; stroke-linejoin:round;">
<path d="M43310 4720
L43310 3940
" />
</g>
<g style="fill:#840000; fill-opacity:0.0; 
stroke:#840000; stroke-width:100; stroke-opacity:1; 
stroke-linecap:round; stroke-linejoin:round;">
</g>
<g style="fill:#840000; fill-opacity:0.0; 
stroke:#840000; stroke-width:60; stroke-opacity:1; 
stroke-linecap:round; stroke-linejoin:round;">
<path d="M62990 4720
L62990 3940
" />
</g>
<g style="fill:#840000; fill-opacity:0.0; 
stroke:#840000; stroke-width:100; stroke-opacity:1; 
stroke-linecap:round; stroke-linejoin:round;">
</g>
<g style="fill:#840000; fill-opacity:0.0; 
stroke:#840000; stroke-width:60; stroke-opacity:1; 
stroke-linecap:round; stroke-linejoin:round;">
<path d="M82680 4720
L82680 3940
" />
</g>
<g style="fill:#840000; fill-opacity:0.0; 
stroke:#840000; stroke-width:100; stroke-opacity:1; 
stroke-linecap:round; stroke-linejoin:round;">
</g>
<g style="fill:#840000; fill-opacity:0.0; 
stroke:#840000; stroke-width:60; stroke-opacity:1; 
stroke-linecap:round; stroke-linejoin:round;">
<path d="M102360 4720
L102360 3940
" />
</g>
<g style="fill:#840000; fill-opacity:0.0; 
stroke:#840000; stroke-width:100; stroke-opacity:1; 
stroke-linecap:round; stroke-linejoin:round;">
</g>
<g style="fill:#840000; fill-opacity:0.0; 
stroke:#840000; stroke-width:60; stroke-opacity:1; 
stroke-linecap:round; stroke-linejoin:round;">
<text x="13780" y="4580"
textLength="550" font-size="680" lengthAdjust="spacingAndGlyphs"
text-anchor="start" opacity="0">1</text>
<path d="M14190 4560
L13900 4560
" />
<path d="M14050 4560
L14050 4050
L14000 4120
L13950 4170
L13900 4190
" />
</g>
<g style="fill:#840000; fill-opacity:0.0; 
stroke:#840000; stroke-width:100; stroke-opacity:1; 
stroke-linecap:round; stroke-linejoin:round;">
</g>
<g style="fill:#840000; fill-opacity:0.0; 
stroke:#840000; stroke-width:60; stroke-opacity:1; 
stroke-linecap:round; stroke-linejoin:round;">
<text x="33460" y="4580"
textLength="550" font-size="680" lengthAdjust="spacingAndGlyphs"
text-anchor="start" opacity="0">2</text>
<path d="M33580 4090
L33610 4070
L33660 4050
L33780 4050
L33830 4070
L33850 4090
L33870 4140
L33870 4190
L33850 4260
L33560 4560
L33870 4560
" />
</g>
<g style="fill:#840000; fill-opacity:0.0; 
stroke:#840000; stroke-width:100; stroke-opacity:1; 
stroke-linecap:round; stroke-linejoin:round;">
</g>
<g style="fill:#840000; fill-opacity:0.0; 
stroke:#840000; stroke-width:60; stroke-opacity:1; 
stroke-linecap:round; stroke-linejoin:round;">
<text x="53150" y="4580"
textLength="550" font-size="680" lengthAdjust="spacingAndGlyphs"
text-anchor="start" opacity="0">3</text>
<path d="M53250 4050
L53560 4050
L53390 4240
L53470 4240
L53520 4260
L53540 4290
L53560 4340
L53560 4460
L53540 4510
L53520 4530
L53470 4560
L53320 4560
L53270 4530
L53250 4510
" />
</g>
<g style="fill:#840000; fill-opacity:0.0; 
stroke:#840000; stroke-width:100; stroke-opacity:1; 
stroke-linecap:round; stroke-linejoin:round;">
</g>
<g style="fill:#840000; fill-opacity:0.0; 
stroke:#840000; stroke-width:60; stroke-opacity:1; 
stroke-linecap:round; stroke-linejoin:round;">
<text x="72830" y="4580"
textLength="550" font-size="680" lengthAdjust="spacingAndGlyphs"
text-anchor="start" opacity="0">4</text>
<path d="M73200 4220
L73200 4560
" />
<path d="M73070 4020
L72950 4390
L73270 4390
" />
</g>
<g style="fill:#840000; fill-opacity:0.0; 
stroke:#840000; stroke-width:100; stroke-opacity:1; 
stroke-linecap:round; stroke-linejoin:round;">
</g>
<g style="fill:#840000; fill-opacity:0.0; 
stroke:#840000; stroke-width:60; stroke-opacity:1; 
stroke-linecap:round; stroke-linejoin:round;">
<text x="92520" y="4580"
textLength="550" font-size="680" lengthAdjust="spacingAndGlyphs"
text-anchor="start" opacity="0">5</text>
<path d="M92910 4050
L92670 4050
L92640 4290
L92670 4260
L92720 4240
L92840 4240
L92890 4260
L92910 4290
L92930 4340
L92930 4460
L92910 4510
L92890 4530
L92840 4560
L92720 4560
L92670 4530
L92640 4510
" />
</g>
<g style="fill:#840000; fill-opacity:0.0; 
stroke:#840000; stroke-width:100; stroke-opacity:1; 
stroke-linecap:round; stroke-linejoin:round;">
</g>
<g style="fill:#840000; fill-opacity:0.0; 
stroke:#840000; stroke-width:60; stroke-opacity:1; 
stroke-linecap:round; stroke-linejoin:round;">
<text x="112200" y="4580"
textLength="550" font-size="680" lengthAdjust="spacingAndGlyphs"
text-anchor="start" opacity="0">6</text>
<path d="M112570 4050
L112470 4050
L112420 4070
L112400 4090
L112350 4170
L112320 4260
L112320 4460
L112350 4510
L112370 4530
L112420 4560
L112520 4560
L112570 4530
L112590 4510
L112610 4460
L112610 4340
L112590 4290
L112570 4260
L112520 4240
L112420 4240
L112370 4260
L112350 4290
L112320 4340
" />
</g>
<g style="fill:#840000; fill-opacity:0.0; 
stroke:#840000; stroke-width:100; stroke-opacity:1; 
stroke-linecap:round; stroke-linejoin:round;">
</g>
<g style="fill:#840000; fill-opacity:0.0; 
stroke:#840000; stroke-width:60; stroke-opacity:1; 
stroke-linecap:round; stroke-linejoin:round;">
<path d="M23620 77960
L23620 78740
" />
</g>
<g style="fill:#840000; fill-opacity:0.0; 
stroke:#840000; stroke-width:100; stroke-opacity:1; 
stroke-linecap:round; stroke-linejoin:round;">
</g>
<g style="fill:#840000; fill-opacity:0.0; 
stroke:#840000; stroke-width:60; stroke-opacity:1; 
stroke-linecap:round; stroke-linejoin:round;">
<path d="M43310 77960
L43310 78740
" />
</g>
<g style="fill:#840000; fill-opacity:0.0; 
stroke:#840000; stroke-width:100; stroke-opacity:1; 
stroke-linecap:round; stroke-linejoin:round;">
</g>
<g style="fill:#840000; fill-opacity:0.0; 
stroke:#840000; stroke-width:60; stroke-opacity:1; 
stroke-linecap:round; stroke-linejoin:round;">
<path d="M62990 77960
L62990 78740
" />
</g>
<g style="fill:#840000; fill-opacity:0.0; 
stroke:#840000; stroke-width:100; stroke-opacity:1; 
stroke-linecap:round; stroke-linejoin:round;">
</g>
<g style="fill:#840000; fill-opacity:0.0; 
stroke:#840000; stroke-width:60; stroke-opacity:1; 
stroke-linecap:round; stroke-linejoin:round;">
<path d="M82680 77960
L82680 78740
" />
</g>
<g style="fill:#840000; fill-opacity:0.0; 
stroke:#840000; stroke-width:100; stroke-opacity:1; 
stroke-linecap:round; stroke-linejoin:round;">
</g>
<g style="fill:#840000; fill-opacity:0.0; 
stroke:#840000; stroke-width:60; stroke-opacity:1; 
stroke-linecap:round; stroke-linejoin:round;">
<path d="M102360 77960
L102360 78740
" />
</g>
<g style="fill:#840000; fill-opacity:0.0; 
stroke:#840000; stroke-width:100; stroke-opacity:1; 
stroke-linecap:round; stroke-linejoin:round;">
</g>
<g style="fill:#840000; fill-opacity:0.0; 
stroke:#840000; stroke-width:60; stroke-opacity:1; 
stroke-linecap:round; stroke-linejoin:round;">
<text x="13780" y="78600"
textLength="550" font-size="680" lengthAdjust="spacingAndGlyphs"
text-anchor="start" opacity="0">1</text>
<path d="M14190 78580
L13900 78580
" />
<path d="M14050 78580
L14050 78070
L14000 78140
L13950 78190
L13900 78210
" />
</g>
<g style="fill:#840000; fill-opacity:0.0; 
stroke:#840000; stroke-width:100; stroke-opacity:1; 
stroke-linecap:round; stroke-linejoin:round;">
</g>
<g style="fill:#840000; fill-opacity:0.0; 
stroke:#840000; stroke-width:60; stroke-opacity:1; 
stroke-linecap:round; stroke-linejoin:round;">
<text x="33460" y="78600"
textLength="550" font-size="680" lengthAdjust="spacingAndGlyphs"
text-anchor="start" opacity="0">2</text>
<path d="M33580 78110
L33610 78090
L33660 78070
L33780 78070
L33830 78090
L33850 78110
L33870 78160
L33870 78210
L33850 78280
L33560 78580
L33870 78580
" />
</g>
<g style="fill:#840000; fill-opacity:0.0; 
stroke:#840000; stroke-width:100; stroke-opacity:1; 
stroke-linecap:round; stroke-linejoin:round;">
</g>
<g style="fill:#840000; fill-opacity:0.0; 
stroke:#840000; stroke-width:60; stroke-opacity:1; 
stroke-linecap:round; stroke-linejoin:round;">
<text x="53150" y="78600"
textLength="550" font-size="680" lengthAdjust="spacingAndGlyphs"
text-anchor="start" opacity="0">3</text>
<path d="M53250 78070
L53560 78070
L53390 78260
L53470 78260
L53520 78280
L53540 78310
L53560 78360
L53560 78480
L53540 78530
L53520 78550
L53470 78580
L53320 78580
L53270 78550
L53250 78530
" />
</g>
<g style="fill:#840000; fill-opacity:0.0; 
stroke:#840000; stroke-width:100; stroke-opacity:1; 
stroke-linecap:round; stroke-linejoin:round;">
</g>
<g style="fill:#840000; fill-opacity:0.0; 
stroke:#840000; stroke-width:60; stroke-opacity:1; 
stroke-linecap:round; stroke-linejoin:round;">
<text x="72830" y="78600"
textLength="550" font-size="680" lengthAdjust="spacingAndGlyphs"
text-anchor="start" opacity="0">4</text>
<path d="M73200 78240
L73200 78580
" />
<path d="M73070 78040
L72950 78410
L73270 78410
" />
</g>
<g style="fill:#840000; fill-opacity:0.0; 
stroke:#840000; stroke-width:100; stroke-opacity:1; 
stroke-linecap:round; stroke-linejoin:round;">
</g>
<g style="fill:#840000; fill-opacity:0.0; 
stroke:#840000; stroke-width:60; stroke-opacity:1; 
stroke-linecap:round; stroke-linejoin:round;">
<text x="92520" y="78600"
textLength="550" font-size="680" lengthAdjust="spacingAndGlyphs"
text-anchor="start" opacity="0">5</text>
<path d="M92910 78070
L92670 78070
L92640 78310
L92670 78280
L92720 78260
L92840 78260
L92890 78280
L92910 78310
L92930 78360
L92930 78480
L92910 78530
L92890 78550
L92840 78580
L92720 78580
L92670 78550
L92640 78530
" />
</g>
<g style="fill:#840000; fill-opacity:0.0; 
stroke:#840000; stroke-width:100; stroke-opacity:1; 
stroke-linecap:round; stroke-linejoin:round;">
</g>
<g style="fill:#840000; fill-opacity:0.0; 
stroke:#840000; stroke-width:60; stroke-opacity:1; 
stroke-linecap:round; stroke-linejoin:round;">
<text x="112200" y="78600"
textLength="550" font-size="680" lengthAdjust="spacingAndGlyphs"
text-anchor="start" opacity="0">6</text>
<path d="M112570 78070
L112470 78070
L112420 78090
L112400 78110
L112350 78190
L112320 78280
L112320 78480
L112350 78530
L112370 78550
L112420 78580
L112520 78580
L112570 78550
L112590 78530
L112610 78480
L112610 78360
L112590 78310
L112570 78280
L112520 78260
L112420 78260
L112370 78280
L112350 78310
L112320 78360
" />
</g>
<g style="fill:#840000; fill-opacity:0.0; 
stroke:#840000; stroke-width:100; stroke-opacity:1; 
stroke-linecap:round; stroke-linejoin:round;">
</g>
<g style="fill:#840000; fill-opacity:0.0; 
stroke:#840000; stroke-width:60; stroke-opacity:1; 
stroke-linecap:round; stroke-linejoin:round;">
<path d="M3940 23620
L4720 23620
" />
</g>
<g style="fill:#840000; fill-opacity:0.0; 
stroke:#840000; stroke-width:100; stroke-opacity:1; 
stroke-linecap:round; stroke-linejoin:round;">
</g>
<g style="fill:#840000; fill-opacity:0.0; 
stroke:#840000; stroke-width:60; stroke-opacity:1; 
stroke-linecap:round; stroke-linejoin:round;">
<path d="M3940 43310
L4720 43310
" />
</g>
<g style="fill:#840000; fill-opacity:0.0; 
stroke:#840000; stroke-width:100; stroke-opacity:1; 
stroke-linecap:round; stroke-linejoin:round;">
</g>
<g style="fill:#840000; fill-opacity:0.0; 
stroke:#840000; stroke-width:60; stroke-opacity:1; 
stroke-linecap:round; stroke-linejoin:round;">
<path d="M3940 62990
L4720 62990
" />
</g>
<g style="fill:#840000; fill-opacity:0.0; 
stroke:#840000; stroke-width:100; stroke-opacity:1; 
stroke-linecap:round; stroke-linejoin:round;">
</g>
<g style="fill:#840000; fill-opacity:0.0; 
stroke:#840000; stroke-width:60; stroke-opacity:1; 
stroke-linecap:round; stroke-linejoin:round;">
<text x="4330" y="14030"
textLength="500" font-size="680" lengthAdjust="spacingAndGlyphs"
text-anchor="middle" opacity="0">A</text>
<path d="M4200 13860
L4450 13860
" />
<path d="M4160 14010
L4330 13500
L4500 14010
" />
</g>
<g style="fill:#840000; fill-opacity:0.0; 
stroke:#840000; stroke-width:100; stroke-opacity:1; 
stroke-linecap:round; stroke-linejoin:round;">
</g>
<g style="fill:#840000; fill-opacity:0.0; 
stroke:#840000; stroke-width:60; stroke-opacity:1; 
stroke-linecap:round; stroke-linejoin:round;">
<text x="4330" y="33710"
textLength="570" font-size="680" lengthAdjust="spacingAndGlyphs"
text-anchor="middle" opacity="0">B</text>
<path d="M4360 33420
L4430 33440
L4460 33470
L4480 33520
L4480 33590
L4460 33640
L4430 33660
L4390 33690
L4190 33690
L4190 33180
L4360 33180
L4410 33200
L4430 33220
L4460 33270
L4460 33320
L4430 33370
L4410 33390
L4360 33420
L4190 33420
" />
</g>
<g style="fill:#840000; fill-opacity:0.0; 
stroke:#840000; stroke-width:100; stroke-opacity:1; 
stroke-linecap:round; stroke-linejoin:round;">
</g>
<g style="fill:#840000; fill-opacity:0.0; 
stroke:#840000; stroke-width:60; stroke-opacity:1; 
stroke-linecap:round; stroke-linejoin:round;">
<text x="4330" y="53400"
textLength="570" font-size="680" lengthAdjust="spacingAndGlyphs"
text-anchor="middle" opacity="0">C</text>
<path d="M4480 53330
L4460 53350
L4390 53380
L4340 53380
L4260 53350
L4220 53300
L4190 53250
L4170 53160
L4170 53080
L4190 52990
L4220 52940
L4260 52890
L4340 52870
L4390 52870
L4460 52890
L4480 52910
" />
</g>
<g style="fill:#840000; fill-opacity:0.0; 
stroke:#840000; stroke-width:100; stroke-opacity:1; 
stroke-linecap:round; stroke-linejoin:round;">
</g>
<g style="fill:#840000; fill-opacity:0.0; 
stroke:#840000; stroke-width:60; stroke-opacity:1; 
stroke-linecap:round; stroke-linejoin:round;">
<text x="4330" y="73080"
textLength="570" font-size="680" lengthAdjust="spacingAndGlyphs"
text-anchor="middle" opacity="0">D</text>
<path d="M4190 73060
L4190 72550
L4310 72550
L4390 72570
L4430 72620
L4460 72670
L4480 72760
L4480 72840
L4460 72930
L4430 72980
L4390 73030
L4310 73060
L4190 73060
" />
</g>
<g style="fill:#840000; fill-opacity:0.0; 
stroke:#840000; stroke-width:100; stroke-opacity:1; 
stroke-linecap:round; stroke-linejoin:round;">
</g>
<g style="fill:#840000; fill-opacity:0.0; 
stroke:#840000; stroke-width:60; stroke-opacity:1; 
stroke-linecap:round; stroke-linejoin:round;">
<path d="M112990 23620
L112210 23620
" />
</g>
<g style="fill:#840000; fill-opacity:0.0; 
stroke:#840000; stroke-width:100; stroke-opacity:1; 
stroke-linecap:round; stroke-linejoin:round;">
</g>
<g style="fill:#840000; fill-opacity:0.0; 
stroke:#840000; stroke-width:60; stroke-opacity:1; 
stroke-linecap:round; stroke-linejoin:round;">
<path d="M112990 43310
L112210 43310
" />
</g>
<g style="fill:#840000; fill-opacity:0.0; 
stroke:#840000; stroke-width:100; stroke-opacity:1; 
stroke-linecap:round; stroke-linejoin:round;">
</g>
<g style="fill:#840000; fill-opacity:0.0; 
stroke:#840000; stroke-width:60; stroke-opacity:1; 
stroke-linecap:round; stroke-linejoin:round;">
<path d="M112990 62990
L112210 62990
" />
</g>
<g style="fill:#840000; fill-opacity:0.0; 
stroke:#840000; stroke-width:100; stroke-opacity:1; 
stroke-linecap:round; stroke-linejoin:round;">
</g>
<g style="fill:#840000; fill-opacity:0.0; 
stroke:#840000; stroke-width:60; stroke-opacity:1; 
stroke-linecap:round; stroke-linejoin:round;">
<text x="112600" y="14030"
textLength="500" font-size="680" lengthAdjust="spacingAndGlyphs"
text-anchor="middle" opacity="0">A</text>
<path d="M112470 13860
L112720 13860
" />
<path d="M112430 14010
L112600 13500
L112770 14010
" />
</g>
<g style="fill:#840000; fill-opacity:0.0; 
stroke:#840000; stroke-width:100; stroke-opacity:1; 
stroke-linecap:round; stroke-linejoin:round;">
</g>
<g style="fill:#840000; fill-opacity:0.0; 
stroke:#840000; stroke-width:60; stroke-opacity:1; 
stroke-linecap:round; stroke-linejoin:round;">
<text x="112600" y="33710"
textLength="570" font-size="680" lengthAdjust="spacingAndGlyphs"
text-anchor="middle" opacity="0">B</text>
<path d="M112630 33420
L112700 33440
L112730 33470
L112750 33520
L112750 33590
L112730 33640
L112700 33660
L112660 33690
L112460 33690
L112460 33180
L112630 33180
L112680 33200
L112700 33220
L112730 33270
L112730 33320
L112700 33370
L112680 33390
L112630 33420
L112460 33420
" />
</g>
<g style="fill:#840000; fill-opacity:0.0; 
stroke:#840000; stroke-width:100; stroke-opacity:1; 
stroke-linecap:round; stroke-linejoin:round;">
</g>
<g style="fill:#840000; fill-opacity:0.0; 
stroke:#840000; stroke-width:60; stroke-opacity:1; 
stroke-linecap:round; stroke-linejoin:round;">
<text x="112600" y="53400"
textLength="570" font-size="680" lengthAdjust="spacingAndGlyphs"
text-anchor="middle" opacity="0">C</text>
<path d="M112750 53330
L112730 53350
L112660 53380
L112610 53380
L112530 53350
L112490 53300
L112460 53250
L112440 53160
L112440 53080
L112460 52990
L112490 52940
L112530 52890
L112610 52870
L112660 52870
L112730 52890
L112750 52910
" />
</g>
<g style="fill:#840000; fill-opacity:0.0; 
stroke:#840000; stroke-width:100; stroke-opacity:1; 
stroke-linecap:round; stroke-linejoin:round;">
</g>
<g style="fill:#840000; fill-opacity:0.0; 
stroke:#840000; stroke-width:60; stroke-opacity:1; 
stroke-linecap:round; stroke-linejoin:round;">
<text x="112600" y="73080"
textLength="570" font-size="680" lengthAdjust="spacingAndGlyphs"
text-anchor="middle" opacity="0">D</text>
<path d="M112460 73060
L112460 72550
L112580 72550
L112660 72570
L112700 72620
L112730 72670
L112750 72760
L112750 72840
L112730 72930
L112700 72980
L112660 73030
L112580 73060
L112460 73060
" />
</g>
<g style="fill:#840000; fill-opacity:0.0; 
stroke:#840000; stroke-width:100; stroke-opacity:1; 
stroke-linecap:round; stroke-linejoin:round;">
</g>
<g style="fill:#840000; fill-opacity:0.0; 
stroke:#840000; stroke-width:60; stroke-opacity:1; 
stroke-linecap:round; stroke-linejoin:round;">
<text x="78740" y="76320"
textLength="8710" font-size="780" lengthAdjust="spacingAndGlyphs"
text-anchor="start" opacity="0">Date: 2020-07-19</text>
<path d="M78910 76290
L78910 75700
L79050 75700
L79130 75730
L79190 75790
L79210 75840
L79240 75950
L79240 76040
L79210 76150
L79190 76210
L79130 76260
L79050 76290
L78910 76290
" />
<path d="M79750 76290
L79750 75980
L79720 75930
L79660 75900
L79550 75900
L79500 75930
" />
<path d="M79750 76260
L79690 76290
L79550 76290
L79500 76260
L79470 76210
L79470 76150
L79500 76100
L79550 76070
L79690 76070
L79750 76040
" />
<path d="M79950 75900
L80170 75900
" />
<path d="M80030 75700
L80030 76210
L80060 76260
L80110 76290
L80170 76290
" />
<path d="M80590 76260
L80540 76290
L80420 76290
L80370 76260
L80340 76210
L80340 75980
L80370 75930
L80420 75900
L80540 75900
L80590 75930
L80620 75980
L80620 76040
L80340 76100
" />
<path d="M80870 76240
L80900 76260
L80870 76290
L80840 76260
L80870 76240
L80870 76290
" />
<path d="M80870 75930
L80900 75950
L80870 75980
L80840 75950
L80870 75930
L80870 75980
" />
<path d="M81570 75760
L81600 75730
L81660 75700
L81800 75700
L81860 75730
L81880 75760
L81910 75810
L81910 75870
L81880 75950
L81550 76290
L81910 76290
" />
<path d="M82280 75700
L82330 75700
L82390 75730
L82420 75760
L82450 75810
L82470 75930
L82470 76070
L82450 76180
L82420 76240
L82390 76260
L82330 76290
L82280 76290
L82220 76260
L82190 76240
L82160 76180
L82140 76070
L82140 75930
L82160 75810
L82190 75760
L82220 75730
L82280 75700
" />
<path d="M82700 75760
L82730 75730
L82780 75700
L82920 75700
L82980 75730
L83010 75760
L83040 75810
L83040 75870
L83010 75950
L82670 76290
L83040 76290
" />
<path d="M83400 75700
L83460 75700
L83510 75730
L83540 75760
L83570 75810
L83600 75930
L83600 76070
L83570 76180
L83540 76240
L83510 76260
L83460 76290
L83400 76290
L83340 76260
L83320 76240
L83290 76180
L83260 76070
L83260 75930
L83290 75810
L83320 75760
L83340 75730
L83400 75700
" />
<path d="M83850 76070
L84300 76070
" />
<path d="M84690 75700
L84750 75700
L84810 75730
L84830 75760
L84860 75810
L84890 75930
L84890 76070
L84860 76180
L84830 76240
L84810 76260
L84750 76290
L84690 76290
L84640 76260
L84610 76240
L84580 76180
L84550 76070
L84550 75930
L84580 75810
L84610 75760
L84640 75730
L84690 75700
" />
<path d="M85090 75700
L85480 75700
L85230 76290
" />
<path d="M85700 76070
L86150 76070
" />
<path d="M86740 76290
L86410 76290
" />
<path d="M86580 76290
L86580 75700
L86520 75790
L86460 75840
L86410 75870
" />
<path d="M87030 76290
L87140 76290
L87190 76260
L87220 76240
L87280 76150
L87310 76040
L87310 75810
L87280 75760
L87250 75730
L87190 75700
L87080 75700
L87030 75730
L87000 75760
L86970 75810
L86970 75950
L87000 76010
L87030 76040
L87080 76070
L87190 76070
L87250 76040
L87280 76010
L87310 75950
" />
</g>
<g style="fill:#840000; fill-opacity:0.0; 
stroke:#840000; stroke-width:100; stroke-opacity:1; 
stroke-linecap:round; stroke-linejoin:round;">
</g>
<g style="fill:#840000; fill-opacity:0.0; 
stroke:#840000; stroke-width:60; stroke-opacity:1; 
stroke-linecap:round; stroke-linejoin:round;">
<path d="M69690 76580
L112210 76580
" />
</g>
<g style="fill:#840000; fill-opacity:0.0; 
stroke:#840000; stroke-width:100; stroke-opacity:1; 
stroke-linecap:round; stroke-linejoin:round;">
</g>
<g style="fill:#840000; fill-opacity:0.0; 
stroke:#840000; stroke-width:60; stroke-opacity:1; 
stroke-linecap:round; stroke-linejoin:round;">
<text x="70080" y="77420"
textLength="16950" font-size="780" lengthAdjust="spacingAndGlyphs"
text-anchor="start" opacity="0">KiCad E.D.A.  kicad (5.1.6-0-10_14)</text>
<path d="M70250 77390
L70250 76800
" />
<path d="M70580 77390
L70330 77050
" />
<path d="M70580 76800
L70250 77140
" />
<path d="M70840 77390
L70840 77000
" />
<path d="M70840 76800
L70810 76830
L70840 76860
L70860 76830
L70840 76800
L70840 76860
" />
<path d="M71450 77340
L71430 77360
L71340 77390
L71290 77390
L71200 77360
L71140 77310
L71120 77250
L71090 77140
L71090 77050
L71120 76940
L71140 76890
L71200 76830
L71290 76800
L71340 76800
L71430 76830
L71450 76860
" />
<path d="M71960 77390
L71960 77080
L71930 77030
L71880 77000
L71760 77000
L71710 77030
" />
<path d="M71960 77360
L71900 77390
L71760 77390
L71710 77360
L71680 77310
L71680 77250
L71710 77200
L71760 77170
L71900 77170
L71960 77140
" />
<path d="M72490 77390
L72490 76800
" />
<path d="M72490 77360
L72440 77390
L72320 77390
L72270 77360
L72240 77340
L72210 77280
L72210 77110
L72240 77050
L72270 77030
L72320 77000
L72440 77000
L72490 77030
" />
<path d="M73220 77080
L73420 77080
" />
<path d="M73500 77390
L73220 77390
L73220 76800
L73500 76800
" />
<path d="M73760 77340
L73790 77360
L73760 77390
L73730 77360
L73760 77340
L73760 77390
" />
<path d="M74040 77390
L74040 76800
L74180 76800
L74260 76830
L74320 76890
L74350 76940
L74380 77050
L74380 77140
L74350 77250
L74320 77310
L74260 77360
L74180 77390
L74040 77390
" />
<path d="M74630 77340
L74660 77360
L74630 77390
L74600 77360
L74630 77340
L74630 77390
" />
<path d="M74880 77220
L75160 77220
" />
<path d="M74830 77390
L75020 76800
L75220 77390
" />
<path d="M75420 77340
L75440 77360
L75420 77390
L75390 77360
L75420 77340
L75420 77390
" />
<path d="M76600 77390
L76600 76800
" />
<path d="M76650 77170
L76820 77390
" />
<path d="M76820 77000
L76600 77220
" />
<path d="M77070 77390
L77070 77000
" />
<path d="M77070 76800
L77040 76830
L77070 76860
L77100 76830
L77070 76800
L77070 76860
" />
<path d="M77610 77360
L77550 77390
L77440 77390
L77380 77360
L77350 77340
L77330 77280
L77330 77110
L77350 77050
L77380 77030
L77440 77000
L77550 77000
L77610 77030
" />
<path d="M78110 77390
L78110 77080
L78080 77030
L78030 77000
L77920 77000
L77860 77030
" />
<path d="M78110 77360
L78060 77390
L77920 77390
L77860 77360
L77830 77310
L77830 77250
L77860 77200
L77920 77170
L78060 77170
L78110 77140
" />
<path d="M78650 77390
L78650 76800
" />
<path d="M78650 77360
L78590 77390
L78480 77390
L78420 77360
L78390 77340
L78370 77280
L78370 77110
L78390 77050
L78420 77030
L78480 77000
L78590 77000
L78650 77030
" />
<path d="M79550 77620
L79520 77590
L79460 77500
L79430 77450
L79400 77360
L79380 77220
L79380 77110
L79400 76970
L79430 76890
L79460 76830
L79520 76750
L79550 76720
" />
<path d="M80050 76800
L79770 76800
L79740 77080
L79770 77050
L79830 77030
L79970 77030
L80020 77050
L80050 77080
L80080 77140
L80080 77280
L80050 77340
L80020 77360
L79970 77390
L79830 77390
L79770 77360
L79740 77340
" />
<path d="M80330 77340
L80360 77360
L80330 77390
L80300 77360
L80330 77340
L80330 77390
" />
<path d="M80920 77390
L80580 77390
" />
<path d="M80750 77390
L80750 76800
L80700 76890
L80640 76940
L80580 76970
" />
<path d="M81170 77340
L81200 77360
L81170 77390
L81150 77360
L81170 77340
L81170 77390
" />
<path d="M81710 76800
L81600 76800
L81540 76830
L81510 76860
L81460 76940
L81430 77050
L81430 77280
L81460 77340
L81480 77360
L81540 77390
L81650 77390
L81710 77360
L81740 77340
L81760 77280
L81760 77140
L81740 77080
L81710 77050
L81650 77030
L81540 77030
L81480 77050
L81460 77080
L81430 77140
" />
<path d="M82020 77170
L82470 77170
" />
<path d="M82860 76800
L82920 76800
L82970 76830
L83000 76860
L83030 76910
L83060 77030
L83060 77170
L83030 77280
L83000 77340
L82970 77360
L82920 77390
L82860 77390
L82800 77360
L82780 77340
L82750 77280
L82720 77170
L82720 77030
L82750 76910
L82780 76860
L82800 76830
L82860 76800
" />
<path d="M83310 77170
L83760 77170
" />
<path d="M84350 77390
L84010 77390
" />
<path d="M84180 77390
L84180 76800
L84120 76890
L84070 76940
L84010 76970
" />
<path d="M84710 76800
L84770 76800
L84830 76830
L84860 76860
L84880 76910
L84910 77030
L84910 77170
L84880 77280
L84860 77340
L84830 77360
L84770 77390
L84710 77390
L84660 77360
L84630 77340
L84600 77280
L84570 77170
L84570 77030
L84600 76910
L84630 76860
L84660 76830
L84710 76800
" />
<path d="M85020 77450
L85470 77450
" />
<path d="M85920 77390
L85590 77390
" />
<path d="M85750 77390
L85750 76800
L85700 76890
L85640 76940
L85590 76970
" />
<path d="M86430 77000
L86430 77390
" />
<path d="M86290 76770
L86150 77200
L86510 77200
" />
<path d="M86680 77620
L86710 77590
L86770 77500
L86790 77450
L86820 77360
L86850 77220
L86850 77110
L86820 76970
L86790 76890
L86770 76830
L86710 76750
L86680 76720
" />
</g>
<g style="fill:#840000; fill-opacity:0.0; 
stroke:#840000; stroke-width:100; stroke-opacity:1; 
stroke-linecap:round; stroke-linejoin:round;">
</g>
<g style="fill:#840000; fill-opacity:0.0; 
stroke:#840000; stroke-width:60; stroke-opacity:1; 
stroke-linecap:round; stroke-linejoin:round;">
<path d="M69690 75400
L112210 75400
" />
</g>
<g style="fill:#840000; fill-opacity:0.0; 
stroke:#840000; stroke-width:100; stroke-opacity:1; 
stroke-linecap:round; stroke-linejoin:round;">
</g>
<g style="fill:#840000; fill-opacity:0.0; 
stroke:#840000; stroke-width:120; stroke-opacity:1; 
stroke-linecap:round; stroke-linejoin:round;">
<text x="103540" y="76320"
textLength="5120" font-size="780" lengthAdjust="spacingAndGlyphs"
text-anchor="start" opacity="0">Rev: 2007E</text>
<path d="M104090 76290
L103890 76010
" />
<path d="M103750 76290
L103750 75700
L103980 75700
L104030 75730
L104060 75760
L104090 75810
L104090 75900
L104060 75950
L104030 75980
L103980 76010
L103750 76010
" />
<path d="M104570 76260
L104510 76290
L104400 76290
L104340 76260
L104320 76210
L104320 75980
L104340 75930
L104400 75900
L104510 75900
L104570 75930
L104600 75980
L104600 76040
L104320 76100
" />
<path d="M104790 75900
L104930 76290
L105070 75900
" />
<path d="M105300 76240
L105330 76260
L105300 76290
L105270 76260
L105300 76240
L105300 76290
" />
<path d="M105300 75930
L105330 75950
L105300 75980
L105270 75950
L105300 75930
L105300 75980
" />
<path d="M106000 75760
L106030 75730
L106090 75700
L106230 75700
L106280 75730
L106310 75760
L106340 75810
L106340 75870
L106310 75950
L105970 76290
L106340 76290
" />
<path d="M106700 75700
L106760 75700
L106820 75730
L106840 75760
L106870 75810
L106900 75930
L106900 76070
L106870 76180
L106840 76240
L106820 76260
L106760 76290
L106700 76290
L106650 76260
L106620 76240
L106590 76180
L106560 76070
L106560 75930
L106590 75810
L106620 75760
L106650 75730
L106700 75700
" />
<path d="M107270 75700
L107320 75700
L107380 75730
L107410 75760
L107430 75810
L107460 75930
L107460 76070
L107430 76180
L107410 76240
L107380 76260
L107320 76290
L107270 76290
L107210 76260
L107180 76240
L107150 76180
L107120 76070
L107120 75930
L107150 75810
L107180 75760
L107210 75730
L107270 75700
" />
<path d="M107660 75700
L108050 75700
L107800 76290
" />
<path d="M108280 75980
L108470 75980
" />
<path d="M108560 76290
L108280 76290
L108280 75700
L108560 75700
" />
</g>
<g style="fill:#840000; fill-opacity:0.0; 
stroke:#840000; stroke-width:100; stroke-opacity:1; 
stroke-linecap:round; stroke-linejoin:round;">
</g>
<g style="fill:#840000; fill-opacity:0.0; 
stroke:#840000; stroke-width:60; stroke-opacity:1; 
stroke-linecap:round; stroke-linejoin:round;">
<text x="70080" y="76320"
textLength="3780" font-size="780" lengthAdjust="spacingAndGlyphs"
text-anchor="start" opacity="0">Size: A4</text>
<path d="M70220 76260
L70300 76290
L70440 76290
L70500 76260
L70530 76240
L70550 76180
L70550 76120
L70530 76070
L70500 76040
L70440 76010
L70330 75980
L70270 75950
L70250 75930
L70220 75870
L70220 75810
L70250 75760
L70270 75730
L70330 75700
L70470 75700
L70550 75730
" />
<path d="M70810 76290
L70810 75900
" />
<path d="M70810 75700
L70780 75730
L70810 75760
L70840 75730
L70810 75700
L70810 75760
" />
<path d="M71030 75900
L71340 75900
L71030 76290
L71340 76290
" />
<path d="M71790 76260
L71730 76290
L71620 76290
L71570 76260
L71540 76210
L71540 75980
L71570 75930
L71620 75900
L71730 75900
L71790 75930
L71820 75980
L71820 76040
L71540 76100
" />
<path d="M72070 76240
L72100 76260
L72070 76290
L72040 76260
L72070 76240
L72070 76290
" />
<path d="M72070 75930
L72100 75950
L72070 75980
L72040 75950
L72070 75930
L72070 75980
" />
<path d="M72770 76120
L73060 76120
" />
<path d="M72720 76290
L72910 75700
L73110 76290
" />
<path d="M73560 75900
L73560 76290
" />
<path d="M73420 75670
L73280 76100
L73650 76100
" />
</g>
<g style="fill:#840000; fill-opacity:0.0; 
stroke:#840000; stroke-width:100; stroke-opacity:1; 
stroke-linecap:round; stroke-linejoin:round;">
</g>
<g style="fill:#840000; fill-opacity:0.0; 
stroke:#840000; stroke-width:60; stroke-opacity:1; 
stroke-linecap:round; stroke-linejoin:round;">
<text x="103540" y="77420"
textLength="3350" font-size="780" lengthAdjust="spacingAndGlyphs"
text-anchor="start" opacity="0">Id: 1/8</text>
<path d="M103710 77390
L103710 76800
" />
<path d="M104240 77390
L104240 76800
" />
<path d="M104240 77360
L104180 77390
L104070 77390
L104010 77360
L103990 77340
L103960 77280
L103960 77110
L103990 77050
L104010 77030
L104070 77000
L104180 77000
L104240 77030
" />
<path d="M104520 77340
L104550 77360
L104520 77390
L104490 77360
L104520 77340
L104520 77390
" />
<path d="M104520 77030
L104550 77050
L104520 77080
L104490 77050
L104520 77030
L104520 77080
" />
<path d="M105560 77390
L105220 77390
" />
<path d="M105390 77390
L105390 76800
L105340 76890
L105280 76940
L105220 76970
" />
<path d="M106230 76770
L105730 77530
" />
<path d="M106520 77050
L106460 77030
L106430 77000
L106400 76940
L106400 76910
L106430 76860
L106460 76830
L106520 76800
L106630 76800
L106680 76830
L106710 76860
L106740 76910
L106740 76940
L106710 77000
L106680 77030
L106630 77050
L106520 77050
L106460 77080
L106430 77110
L106400 77170
L106400 77280
L106430 77340
L106460 77360
L106520 77390
L106630 77390
L106680 77360
L106710 77340
L106740 77280
L106740 77170
L106710 77110
L106680 77080
L106630 77050
" />
</g>
<g style="fill:#840000; fill-opacity:0.0; 
stroke:#840000; stroke-width:100; stroke-opacity:1; 
stroke-linecap:round; stroke-linejoin:round;">
</g>
<g style="fill:#840000; fill-opacity:0.0; 
stroke:#840000; stroke-width:60; stroke-opacity:1; 
stroke-linecap:round; stroke-linejoin:round;">
<path d="M69690 73820
L112210 73820
" />
</g>
<g style="fill:#840000; fill-opacity:0.0; 
stroke:#840000; stroke-width:100; stroke-opacity:1; 
stroke-linecap:round; stroke-linejoin:round;">
</g>
<g style="fill:#840000; fill-opacity:0.0; 
stroke:#840000; stroke-width:160; stroke-opacity:1; 
stroke-linecap:round; stroke-linejoin:round;">
<text x="70080" y="74920"
textLength="19930" font-size="1050" lengthAdjust="spacingAndGlyphs"
text-anchor="start" opacity="0">Title: FT81x TFT040 Driver Board</text>
<path d="M70360 74090
L70810 74090
" />
<path d="M70480 74880
L70580 74090
" />
<path d="M70970 74880
L71040 74360
" />
<path d="M71070 74090
L71030 74130
L71060 74170
L71110 74130
L71070 74090
L71060 74170
" />
<path d="M71300 74360
L71600 74360
" />
<path d="M71450 74090
L71360 74770
L71390 74840
L71460 74880
L71540 74880
" />
<path d="M71910 74880
L71840 74840
L71820 74770
L71900 74090
" />
<path d="M72520 74840
L72440 74880
L72290 74880
L72220 74840
L72190 74770
L72230 74470
L72280 74390
L72360 74360
L72510 74360
L72580 74390
L72610 74470
L72600 74540
L72210 74620
" />
<path d="M72900 74810
L72930 74840
L72890 74880
L72860 74840
L72900 74810
L72890 74880
" />
<path d="M72950 74390
L72990 74430
L72940 74470
L72910 74430
L72950 74390
L72940 74470
" />
<path d="M74190 74470
L73920 74470
" />
<path d="M73870 74880
L73970 74090
L74350 74090
" />
<path d="M74530 74090
L74980 74090
" />
<path d="M74660 74880
L74760 74090
" />
<path d="M75320 74430
L75250 74390
L75220 74360
L75190 74280
L75190 74240
L75240 74170
L75280 74130
L75360 74090
L75510 74090
L75580 74130
L75610 74170
L75640 74240
L75640 74280
L75590 74360
L75550 74390
L75470 74430
L75320 74430
L75240 74470
L75200 74510
L75150 74580
L75130 74730
L75160 74810
L75190 74840
L75260 74880
L75410 74880
L75490 74840
L75540 74810
L75580 74730
L75600 74580
L75570 74510
L75540 74470
L75470 74430
" />
<path d="M76320 74880
L75860 74880
" />
<path d="M76090 74880
L76190 74090
L76100 74210
L76010 74280
L75930 74320
" />
<path d="M76580 74880
L77060 74360
" />
<path d="M76640 74360
L76990 74880
" />
<path d="M77880 74090
L78330 74090
" />
<path d="M78010 74880
L78110 74090
" />
<path d="M78810 74470
L78550 74470
" />
<path d="M78500 74880
L78600 74090
L78970 74090
" />
<path d="M79160 74090
L79610 74090
" />
<path d="M79290 74880
L79390 74090
" />
<path d="M80030 74090
L80100 74090
L80170 74130
L80200 74170
L80230 74240
L80250 74390
L80230 74580
L80170 74730
L80120 74810
L80080 74840
L80000 74880
L79930 74880
L79860 74840
L79820 74810
L79800 74730
L79780 74580
L79800 74390
L79860 74240
L79900 74170
L79950 74130
L80030 74090
" />
<path d="M80930 74360
L80870 74880
" />
<path d="M80780 74050
L80520 74620
L81010 74620
" />
<path d="M81530 74090
L81610 74090
L81680 74130
L81710 74170
L81740 74240
L81760 74390
L81730 74580
L81680 74730
L81630 74810
L81590 74840
L81510 74880
L81430 74880
L81360 74840
L81330 74810
L81300 74730
L81280 74580
L81300 74390
L81360 74240
L81410 74170
L81450 74130
L81530 74090
" />
<path d="M82640 74880
L82730 74090
L82920 74090
L83030 74130
L83100 74210
L83120 74280
L83140 74430
L83130 74540
L83070 74690
L83030 74770
L82940 74840
L82820 74880
L82640 74880
" />
<path d="M83430 74880
L83490 74360
" />
<path d="M83470 74510
L83520 74430
L83560 74390
L83640 74360
L83720 74360
" />
<path d="M83910 74880
L83980 74360
" />
<path d="M84010 74090
L83970 74130
L84000 74170
L84050 74130
L84010 74090
L84000 74170
" />
<path d="M84280 74360
L84400 74880
L84660 74360
" />
<path d="M85200 74840
L85120 74880
L84970 74880
L84900 74840
L84870 74770
L84910 74470
L84950 74390
L85030 74360
L85180 74360
L85250 74390
L85280 74470
L85270 74540
L84890 74620
" />
<path d="M85570 74880
L85640 74360
" />
<path d="M85620 74510
L85660 74430
L85710 74390
L85790 74360
L85860 74360
" />
<path d="M86980 74470
L87080 74510
L87120 74540
L87150 74620
L87130 74730
L87080 74810
L87040 74840
L86960 74880
L86660 74880
L86760 74090
L87020 74090
L87090 74130
L87130 74170
L87150 74240
L87150 74320
L87100 74390
L87060 74430
L86980 74470
L86710 74470
" />
<path d="M87560 74880
L87490 74840
L87460 74810
L87430 74730
L87460 74510
L87510 74430
L87550 74390
L87630 74360
L87740 74360
L87810 74390
L87850 74430
L87870 74510
L87850 74730
L87800 74810
L87760 74840
L87680 74880
L87560 74880
" />
<path d="M88500 74880
L88560 74470
L88530 74390
L88460 74360
L88310 74360
L88230 74390
" />
<path d="M88510 74840
L88430 74880
L88240 74880
L88170 74840
L88140 74770
L88150 74690
L88200 74620
L88280 74580
L88470 74580
L88550 74540
" />
<path d="M88880 74880
L88950 74360
" />
<path d="M88930 74510
L88970 74430
L89020 74390
L89100 74360
L89170 74360
" />
<path d="M89710 74880
L89810 74090
" />
<path d="M89710 74840
L89630 74880
L89480 74880
L89410 74840
L89380 74810
L89350 74730
L89380 74510
L89430 74430
L89470 74390
L89550 74360
L89700 74360
L89770 74390
" />
</g>
<g style="fill:#840000; fill-opacity:0.0; 
stroke:#840000; stroke-width:100; stroke-opacity:1; 
stroke-linecap:round; stroke-linejoin:round;">
</g>
<g style="fill:#840000; fill-opacity:0.0; 
stroke:#840000; stroke-width:60; stroke-opacity:1; 
stroke-linecap:round; stroke-linejoin:round;">
<text x="70080" y="73400"
textLength="10070" font-size="780" lengthAdjust="spacingAndGlyphs"
text-anchor="start" opacity="0">File: driver-board.sch</text>
<path d="M70440 73060
L70250 73060
" />
<path d="M70250 73370
L70250 72780
L70530 72780
" />
<path d="M70750 73370
L70750 72980
" />
<path d="M70750 72780
L70720 72810
L70750 72840
L70780 72810
L70750 72780
L70750 72840
" />
<path d="M71120 73370
L71060 73340
L71030 73290
L71030 72780
" />
<path d="M71570 73340
L71510 73370
L71400 73370
L71340 73340
L71310 73290
L71310 73060
L71340 73010
L71400 72980
L71510 72980
L71570 73010
L71590 73060
L71590 73120
L71310 73180
" />
<path d="M71850 73320
L71880 73340
L71850 73370
L71820 73340
L71850 73320
L71850 73370
" />
<path d="M71850 73010
L71880 73030
L71850 73060
L71820 73030
L71850 73010
L71850 73060
" />
<path d="M72830 73370
L72830 72780
" />
<path d="M72830 73340
L72770 73370
L72660 73370
L72610 73340
L72580 73320
L72550 73260
L72550 73090
L72580 73030
L72610 73010
L72660 72980
L72770 72980
L72830 73010
" />
<path d="M73110 73370
L73110 72980
" />
<path d="M73110 73090
L73140 73030
L73170 73010
L73220 72980
L73280 72980
" />
<path d="M73480 73370
L73480 72980
" />
<path d="M73480 72780
L73450 72810
L73480 72840
L73500 72810
L73480 72780
L73480 72840
" />
<path d="M73700 72980
L73840 73370
L73980 72980
" />
<path d="M74430 73340
L74380 73370
L74260 73370
L74210 73340
L74180 73290
L74180 73060
L74210 73010
L74260 72980
L74380 72980
L74430 73010
L74460 73060
L74460 73120
L74180 73180
" />
<path d="M74710 73370
L74710 72980
" />
<path d="M74710 73090
L74740 73030
L74770 73010
L74830 72980
L74880 72980
" />
<path d="M75080 73150
L75530 73150
" />
<path d="M75810 73370
L75810 72780
" />
<path d="M75810 73010
L75860 72980
L75980 72980
L76030 73010
L76060 73030
L76090 73090
L76090 73260
L76060 73320
L76030 73340
L75980 73370
L75860 73370
L75810 73340
" />
<path d="M76430 73370
L76370 73340
L76340 73320
L76310 73260
L76310 73090
L76340 73030
L76370 73010
L76430 72980
L76510 72980
L76570 73010
L76600 73030
L76620 73090
L76620 73260
L76600 73320
L76570 73340
L76510 73370
L76430 73370
" />
<path d="M77130 73370
L77130 73060
L77100 73010
L77040 72980
L76930 72980
L76880 73010
" />
<path d="M77130 73340
L77070 73370
L76930 73370
L76880 73340
L76850 73290
L76850 73230
L76880 73180
L76930 73150
L77070 73150
L77130 73120
" />
<path d="M77410 73370
L77410 72980
" />
<path d="M77410 73090
L77440 73030
L77470 73010
L77520 72980
L77580 72980
" />
<path d="M78030 73370
L78030 72780
" />
<path d="M78030 73340
L77970 73370
L77860 73370
L77800 73340
L77780 73320
L77750 73260
L77750 73090
L77780 73030
L77800 73010
L77860 72980
L77970 72980
L78030 73010
" />
<path d="M78310 73320
L78340 73340
L78310 73370
L78280 73340
L78310 73320
L78310 73370
" />
<path d="M78560 73340
L78620 73370
L78730 73370
L78790 73340
L78810 73290
L78810 73260
L78790 73200
L78730 73180
L78650 73180
L78590 73150
L78560 73090
L78560 73060
L78590 73010
L78650 72980
L78730 72980
L78790 73010
" />
<path d="M79320 73340
L79260 73370
L79150 73370
L79100 73340
L79070 73320
L79040 73260
L79040 73090
L79070 73030
L79100 73010
L79150 72980
L79260 72980
L79320 73010
" />
<path d="M79570 73370
L79570 72780
" />
<path d="M79830 73370
L79830 73060
L79800 73010
L79740 72980
L79660 72980
L79600 73010
L79570 73030
" />
</g>
<g style="fill:#840000; fill-opacity:0.0; 
stroke:#840000; stroke-width:100; stroke-opacity:1; 
stroke-linecap:round; stroke-linejoin:round;">
</g>
<g style="fill:#840000; fill-opacity:0.0; 
stroke:#840000; stroke-width:60; stroke-opacity:1; 
stroke-linecap:round; stroke-linejoin:round;">
<path d="M69690 71460
L112210 71460
" />
</g>
<g style="fill:#840000; fill-opacity:0.0; 
stroke:#840000; stroke-width:100; stroke-opacity:1; 
stroke-linecap:round; stroke-linejoin:round;">
</g>
<g style="fill:#840000; fill-opacity:0.0; 
stroke:#840000; stroke-width:60; stroke-opacity:1; 
stroke-linecap:round; stroke-linejoin:round;">
<text x="70080" y="72340"
textLength="3850" font-size="780" lengthAdjust="spacingAndGlyphs"
text-anchor="start" opacity="0">Sheet: /</text>
<path d="M70220 72280
L70300 72310
L70440 72310
L70500 72280
L70530 72260
L70550 72200
L70550 72140
L70530 72090
L70500 72060
L70440 72030
L70330 72000
L70270 71970
L70250 71950
L70220 71890
L70220 71830
L70250 71780
L70270 71750
L70330 71720
L70470 71720
L70550 71750
" />
<path d="M70810 72310
L70810 71720
" />
<path d="M71060 72310
L71060 72000
L71030 71950
L70980 71920
L70890 71920
L70840 71950
L70810 71970
" />
<path d="M71570 72280
L71510 72310
L71400 72310
L71340 72280
L71310 72230
L71310 72000
L71340 71950
L71400 71920
L71510 71920
L71570 71950
L71590 72000
L71590 72060
L71310 72120
" />
<path d="M72070 72280
L72020 72310
L71900 72310
L71850 72280
L71820 72230
L71820 72000
L71850 71950
L71900 71920
L72020 71920
L72070 71950
L72100 72000
L72100 72060
L71820 72120
" />
<path d="M72270 71920
L72490 71920
" />
<path d="M72350 71720
L72350 72230
L72380 72280
L72440 72310
L72490 72310
" />
<path d="M72690 72260
L72720 72280
L72690 72310
L72660 72280
L72690 72260
L72690 72310
" />
<path d="M72690 71950
L72720 71970
L72690 72000
L72660 71970
L72690 71950
L72690 72000
" />
<path d="M73840 71690
L73340 72450
" />
</g>
<g style="fill:#840000; fill-opacity:0.0; 
stroke:#840000; stroke-width:100; stroke-opacity:1; 
stroke-linecap:round; stroke-linejoin:round;">
</g>
<g style="fill:#840000; fill-opacity:0.0; 
stroke:#840000; stroke-width:60; stroke-opacity:1; 
stroke-linecap:round; stroke-linejoin:round;">
<path d="M77560 75400
L77560 76580
" />
</g>
<g style="fill:#840000; fill-opacity:0.0; 
stroke:#840000; stroke-width:100; stroke-opacity:1; 
stroke-linecap:round; stroke-linejoin:round;">
</g>
<g style="fill:#840000; fill-opacity:0.0; 
stroke:#840000; stroke-width:60; stroke-opacity:1; 
stroke-linecap:round; stroke-linejoin:round;">
<path d="M102760 75400
L102760 77960
" />
</g>
<g style="fill:#840084; fill-opacity:0.0; 
stroke:#840084; stroke-width:60; stroke-opacity:1; 
stroke-linecap:round; stroke-linejoin:round;">
<path d="M33000 30000
L38000 30000
L38000 31500
L33000 31500
L33000 30000
" />
</g>
<g style="fill:#008484; fill-opacity:0.0; 
stroke:#008484; stroke-width:60; stroke-opacity:1; 
stroke-linecap:round; stroke-linejoin:round;">
</g>
<g style="fill:#000000; fill-opacity:0.0; 
stroke:#000000; stroke-width:60; stroke-opacity:1; 
stroke-linecap:round; stroke-linejoin:round;">
<text x="33000" y="29960"
textLength="7510" font-size="660" lengthAdjust="spacingAndGlyphs"
text-anchor="start" opacity="0">Sheet: Level Shifter</text>
<path d="M33120 29910
L33190 29930
L33310 29930
L33360 29910
L33380 29880
L33410 29840
L33410 29790
L33380 29740
L33360 29720
L33310 29690
L33220 29670
L33170 29650
L33140 29620
L33120 29570
L33120 29530
L33140 29480
L33170 29460
L33220 29430
L33330 29430
L33410 29460
" />
<path d="M33620 29930
L33620 29430
" />
<path d="M33830 29930
L33830 29670
L33810 29620
L33760 29600
L33690 29600
L33640 29620
L33620 29650
" />
<path d="M34260 29910
L34220 29930
L34120 29930
L34070 29910
L34050 29860
L34050 29670
L34070 29620
L34120 29600
L34220 29600
L34260 29620
L34290 29670
L34290 29720
L34050 29760
" />
<path d="M34690 29910
L34640 29930
L34550 29930
L34500 29910
L34480 29860
L34480 29670
L34500 29620
L34550 29600
L34640 29600
L34690 29620
L34720 29670
L34720 29720
L34480 29760
" />
<path d="M34860 29600
L35050 29600
" />
<path d="M34930 29430
L34930 29860
L34950 29910
L35000 29930
L35050 29930
" />
<path d="M35220 29880
L35240 29910
L35220 29930
L35190 29910
L35220 29880
L35220 29930
" />
<path d="M35220 29620
L35240 29650
L35220 29670
L35190 29650
L35220 29620
L35220 29670
" />
<path d="M36070 29930
L35830 29930
L35830 29430
" />
<path d="M36430 29910
L36380 29930
L36290 29930
L36240 29910
L36220 29860
L36220 29670
L36240 29620
L36290 29600
L36380 29600
L36430 29620
L36450 29670
L36450 29720
L36220 29760
" />
<path d="M36620 29600
L36740 29930
L36860 29600
" />
<path d="M37240 29910
L37190 29930
L37100 29930
L37050 29910
L37030 29860
L37030 29670
L37050 29620
L37100 29600
L37190 29600
L37240 29620
L37260 29670
L37260 29720
L37030 29760
" />
<path d="M37550 29930
L37500 29910
L37480 29860
L37480 29430
" />
<path d="M38100 29910
L38170 29930
L38290 29930
L38330 29910
L38360 29880
L38380 29840
L38380 29790
L38360 29740
L38330 29720
L38290 29690
L38190 29670
L38140 29650
L38120 29620
L38100 29570
L38100 29530
L38120 29480
L38140 29460
L38190 29430
L38310 29430
L38380 29460
" />
<path d="M38600 29930
L38600 29430
" />
<path d="M38810 29930
L38810 29670
L38790 29620
L38740 29600
L38670 29600
L38620 29620
L38600 29650
" />
<path d="M39050 29930
L39050 29600
" />
<path d="M39050 29430
L39030 29460
L39050 29480
L39070 29460
L39050 29430
L39050 29480
" />
<path d="M39220 29600
L39410 29600
" />
<path d="M39290 29930
L39290 29500
L39310 29460
L39360 29430
L39410 29430
" />
<path d="M39500 29600
L39690 29600
" />
<path d="M39570 29430
L39570 29860
L39600 29910
L39640 29930
L39690 29930
" />
<path d="M40050 29910
L40000 29930
L39910 29930
L39860 29910
L39830 29860
L39830 29670
L39860 29620
L39910 29600
L40000 29600
L40050 29620
L40070 29670
L40070 29720
L39830 29760
" />
<path d="M40290 29930
L40290 29600
" />
<path d="M40290 29690
L40310 29650
L40330 29620
L40380 29600
L40430 29600
" />
</g>
<g style="fill:#848400; fill-opacity:0.0; 
stroke:#848400; stroke-width:60; stroke-opacity:1; 
stroke-linecap:round; stroke-linejoin:round;">
</g>
<g style="fill:#000000; fill-opacity:0.0; 
stroke:#000000; stroke-width:60; stroke-opacity:1; 
stroke-linecap:round; stroke-linejoin:round;">
<text x="33000" y="32040"
textLength="8350" font-size="660" lengthAdjust="spacingAndGlyphs"
text-anchor="start" opacity="0">File: level-shifter.sch</text>
<path d="M33310 31750
L33140 31750
" />
<path d="M33140 32010
L33140 31510
L33380 31510
" />
<path d="M33570 32010
L33570 31680
" />
<path d="M33570 31510
L33550 31540
L33570 31560
L33600 31540
L33570 31510
L33570 31560
" />
<path d="M33880 32010
L33830 31990
L33810 31940
L33810 31510
" />
<path d="M34260 31990
L34220 32010
L34120 32010
L34070 31990
L34050 31940
L34050 31750
L34070 31700
L34120 31680
L34220 31680
L34260 31700
L34290 31750
L34290 31800
L34050 31840
" />
<path d="M34500 31960
L34530 31990
L34500 32010
L34480 31990
L34500 31960
L34500 32010
" />
<path d="M34500 31700
L34530 31730
L34500 31750
L34480 31730
L34500 31700
L34500 31750
" />
<path d="M35190 32010
L35140 31990
L35120 31940
L35120 31510
" />
<path d="M35570 31990
L35530 32010
L35430 32010
L35380 31990
L35360 31940
L35360 31750
L35380 31700
L35430 31680
L35530 31680
L35570 31700
L35600 31750
L35600 31800
L35360 31840
" />
<path d="M35760 31680
L35880 32010
L36000 31680
" />
<path d="M36380 31990
L36330 32010
L36240 32010
L36190 31990
L36170 31940
L36170 31750
L36190 31700
L36240 31680
L36330 31680
L36380 31700
L36410 31750
L36410 31800
L36170 31840
" />
<path d="M36690 32010
L36640 31990
L36620 31940
L36620 31510
" />
<path d="M36880 31820
L37260 31820
" />
<path d="M37480 31990
L37530 32010
L37620 32010
L37670 31990
L37690 31940
L37690 31920
L37670 31870
L37620 31840
L37550 31840
L37500 31820
L37480 31770
L37480 31750
L37500 31700
L37550 31680
L37620 31680
L37670 31700
" />
<path d="M37910 32010
L37910 31510
" />
<path d="M38120 32010
L38120 31750
L38100 31700
L38050 31680
L37980 31680
L37930 31700
L37910 31730
" />
<path d="M38360 32010
L38360 31680
" />
<path d="M38360 31510
L38330 31540
L38360 31560
L38380 31540
L38360 31510
L38360 31560
" />
<path d="M38530 31680
L38720 31680
" />
<path d="M38600 32010
L38600 31580
L38620 31540
L38670 31510
L38720 31510
" />
<path d="M38810 31680
L39000 31680
" />
<path d="M38880 31510
L38880 31940
L38910 31990
L38950 32010
L39000 32010
" />
<path d="M39360 31990
L39310 32010
L39220 32010
L39170 31990
L39140 31940
L39140 31750
L39170 31700
L39220 31680
L39310 31680
L39360 31700
L39380 31750
L39380 31800
L39140 31840
" />
<path d="M39600 32010
L39600 31680
" />
<path d="M39600 31770
L39620 31730
L39640 31700
L39690 31680
L39740 31680
" />
<path d="M39910 31960
L39930 31990
L39910 32010
L39880 31990
L39910 31960
L39910 32010
" />
<path d="M40120 31990
L40170 32010
L40260 32010
L40310 31990
L40330 31940
L40330 31920
L40310 31870
L40260 31840
L40190 31840
L40140 31820
L40120 31770
L40120 31750
L40140 31700
L40190 31680
L40260 31680
L40310 31700
" />
<path d="M40760 31990
L40720 32010
L40620 32010
L40570 31990
L40550 31960
L40530 31920
L40530 31770
L40550 31730
L40570 31700
L40620 31680
L40720 31680
L40760 31700
" />
<path d="M40980 32010
L40980 31510
" />
<path d="M41190 32010
L41190 31750
L41170 31700
L41120 31680
L41050 31680
L41000 31700
L40980 31730
" />
</g>
<g style="fill:#840084; fill-opacity:0.0; 
stroke:#840084; stroke-width:60; stroke-opacity:1; 
stroke-linecap:round; stroke-linejoin:round;">
<path d="M33000 25500
L38000 25500
L38000 27000
L33000 27000
L33000 25500
" />
</g>
<g style="fill:#008484; fill-opacity:0.0; 
stroke:#008484; stroke-width:60; stroke-opacity:1; 
stroke-linecap:round; stroke-linejoin:round;">
</g>
<g style="fill:#000000; fill-opacity:0.0; 
stroke:#000000; stroke-width:60; stroke-opacity:1; 
stroke-linecap:round; stroke-linejoin:round;">
<text x="33000" y="25460"
textLength="4960" font-size="660" lengthAdjust="spacingAndGlyphs"
text-anchor="start" opacity="0">Sheet: Power</text>
<path d="M33120 25410
L33190 25430
L33310 25430
L33360 25410
L33380 25380
L33410 25340
L33410 25290
L33380 25240
L33360 25220
L33310 25190
L33220 25170
L33170 25150
L33140 25120
L33120 25070
L33120 25030
L33140 24980
L33170 24960
L33220 24930
L33330 24930
L33410 24960
" />
<path d="M33620 25430
L33620 24930
" />
<path d="M33830 25430
L33830 25170
L33810 25120
L33760 25100
L33690 25100
L33640 25120
L33620 25150
" />
<path d="M34260 25410
L34220 25430
L34120 25430
L34070 25410
L34050 25360
L34050 25170
L34070 25120
L34120 25100
L34220 25100
L34260 25120
L34290 25170
L34290 25220
L34050 25260
" />
<path d="M34690 25410
L34640 25430
L34550 25430
L34500 25410
L34480 25360
L34480 25170
L34500 25120
L34550 25100
L34640 25100
L34690 25120
L34720 25170
L34720 25220
L34480 25260
" />
<path d="M34860 25100
L35050 25100
" />
<path d="M34930 24930
L34930 25360
L34950 25410
L35000 25430
L35050 25430
" />
<path d="M35220 25380
L35240 25410
L35220 25430
L35190 25410
L35220 25380
L35220 25430
" />
<path d="M35220 25120
L35240 25150
L35220 25170
L35190 25150
L35220 25120
L35220 25170
" />
<path d="M35830 25430
L35830 24930
L36030 24930
L36070 24960
L36100 24980
L36120 25030
L36120 25100
L36100 25150
L36070 25170
L36030 25190
L35830 25190
" />
<path d="M36410 25430
L36360 25410
L36330 25380
L36310 25340
L36310 25190
L36330 25150
L36360 25120
L36410 25100
L36480 25100
L36530 25120
L36550 25150
L36570 25190
L36570 25340
L36550 25380
L36530 25410
L36480 25430
L36410 25430
" />
<path d="M36740 25100
L36830 25430
L36930 25190
L37030 25430
L37120 25100
" />
<path d="M37500 25410
L37450 25430
L37360 25430
L37310 25410
L37290 25360
L37290 25170
L37310 25120
L37360 25100
L37450 25100
L37500 25120
L37530 25170
L37530 25220
L37290 25260
" />
<path d="M37740 25430
L37740 25100
" />
<path d="M37740 25190
L37760 25150
L37790 25120
L37830 25100
L37880 25100
" />
</g>
<g style="fill:#848400; fill-opacity:0.0; 
stroke:#848400; stroke-width:60; stroke-opacity:1; 
stroke-linecap:round; stroke-linejoin:round;">
</g>
<g style="fill:#000000; fill-opacity:0.0; 
stroke:#000000; stroke-width:60; stroke-opacity:1; 
stroke-linecap:round; stroke-linejoin:round;">
<text x="33000" y="27540"
textLength="5730" font-size="660" lengthAdjust="spacingAndGlyphs"
text-anchor="start" opacity="0">File: power.sch</text>
<path d="M33310 27250
L33140 27250
" />
<path d="M33140 27510
L33140 27010
L33380 27010
" />
<path d="M33570 27510
L33570 27180
" />
<path d="M33570 27010
L33550 27040
L33570 27060
L33600 27040
L33570 27010
L33570 27060
" />
<path d="M33880 27510
L33830 27490
L33810 27440
L33810 27010
" />
<path d="M34260 27490
L34220 27510
L34120 27510
L34070 27490
L34050 27440
L34050 27250
L34070 27200
L34120 27180
L34220 27180
L34260 27200
L34290 27250
L34290 27300
L34050 27340
" />
<path d="M34500 27460
L34530 27490
L34500 27510
L34480 27490
L34500 27460
L34500 27510
" />
<path d="M34500 27200
L34530 27230
L34500 27250
L34480 27230
L34500 27200
L34500 27250
" />
<path d="M35120 27180
L35120 27680
" />
<path d="M35120 27200
L35170 27180
L35260 27180
L35310 27200
L35330 27230
L35360 27270
L35360 27420
L35330 27460
L35310 27490
L35260 27510
L35170 27510
L35120 27490
" />
<path d="M35640 27510
L35600 27490
L35570 27460
L35550 27420
L35550 27270
L35570 27230
L35600 27200
L35640 27180
L35720 27180
L35760 27200
L35790 27230
L35810 27270
L35810 27420
L35790 27460
L35760 27490
L35720 27510
L35640 27510
" />
<path d="M35980 27180
L36070 27510
L36170 27270
L36260 27510
L36360 27180
" />
<path d="M36740 27490
L36690 27510
L36600 27510
L36550 27490
L36530 27440
L36530 27250
L36550 27200
L36600 27180
L36690 27180
L36740 27200
L36760 27250
L36760 27300
L36530 27340
" />
<path d="M36980 27510
L36980 27180
" />
<path d="M36980 27270
L37000 27230
L37030 27200
L37070 27180
L37120 27180
" />
<path d="M37290 27460
L37310 27490
L37290 27510
L37260 27490
L37290 27460
L37290 27510
" />
<path d="M37500 27490
L37550 27510
L37640 27510
L37690 27490
L37720 27440
L37720 27420
L37690 27370
L37640 27340
L37570 27340
L37530 27320
L37500 27270
L37500 27250
L37530 27200
L37570 27180
L37640 27180
L37690 27200
" />
<path d="M38140 27490
L38100 27510
L38000 27510
L37950 27490
L37930 27460
L37910 27420
L37910 27270
L37930 27230
L37950 27200
L38000 27180
L38100 27180
L38140 27200
" />
<path d="M38360 27510
L38360 27010
" />
<path d="M38570 27510
L38570 27250
L38550 27200
L38500 27180
L38430 27180
L38380 27200
L38360 27230
" />
</g>
<g style="fill:#840084; fill-opacity:0.0; 
stroke:#840084; stroke-width:60; stroke-opacity:1; 
stroke-linecap:round; stroke-linejoin:round;">
<path d="M33000 21000
L38000 21000
L38000 22500
L33000 22500
L33000 21000
" />
</g>
<g style="fill:#008484; fill-opacity:0.0; 
stroke:#008484; stroke-width:60; stroke-opacity:1; 
stroke-linecap:round; stroke-linejoin:round;">
</g>
<g style="fill:#000000; fill-opacity:0.0; 
stroke:#000000; stroke-width:60; stroke-opacity:1; 
stroke-linecap:round; stroke-linejoin:round;">
<text x="33000" y="20960"
textLength="6920" font-size="660" lengthAdjust="spacingAndGlyphs"
text-anchor="start" opacity="0">Sheet: Connectors</text>
<path d="M33120 20910
L33190 20930
L33310 20930
L33360 20910
L33380 20880
L33410 20840
L33410 20790
L33380 20740
L33360 20720
L33310 20690
L33220 20670
L33170 20650
L33140 20620
L33120 20570
L33120 20530
L33140 20480
L33170 20460
L33220 20430
L33330 20430
L33410 20460
" />
<path d="M33620 20930
L33620 20430
" />
<path d="M33830 20930
L33830 20670
L33810 20620
L33760 20600
L33690 20600
L33640 20620
L33620 20650
" />
<path d="M34260 20910
L34220 20930
L34120 20930
L34070 20910
L34050 20860
L34050 20670
L34070 20620
L34120 20600
L34220 20600
L34260 20620
L34290 20670
L34290 20720
L34050 20760
" />
<path d="M34690 20910
L34640 20930
L34550 20930
L34500 20910
L34480 20860
L34480 20670
L34500 20620
L34550 20600
L34640 20600
L34690 20620
L34720 20670
L34720 20720
L34480 20760
" />
<path d="M34860 20600
L35050 20600
" />
<path d="M34930 20430
L34930 20860
L34950 20910
L35000 20930
L35050 20930
" />
<path d="M35220 20880
L35240 20910
L35220 20930
L35190 20910
L35220 20880
L35220 20930
" />
<path d="M35220 20620
L35240 20650
L35220 20670
L35190 20650
L35220 20620
L35220 20670
" />
<path d="M36120 20880
L36100 20910
L36030 20930
L35980 20930
L35910 20910
L35860 20860
L35830 20810
L35810 20720
L35810 20650
L35830 20550
L35860 20500
L35910 20460
L35980 20430
L36030 20430
L36100 20460
L36120 20480
" />
<path d="M36410 20930
L36360 20910
L36330 20880
L36310 20840
L36310 20690
L36330 20650
L36360 20620
L36410 20600
L36480 20600
L36530 20620
L36550 20650
L36570 20690
L36570 20840
L36550 20880
L36530 20910
L36480 20930
L36410 20930
" />
<path d="M36790 20600
L36790 20930
" />
<path d="M36790 20650
L36810 20620
L36860 20600
L36930 20600
L36980 20620
L37000 20670
L37000 20930
" />
<path d="M37240 20600
L37240 20930
" />
<path d="M37240 20650
L37260 20620
L37310 20600
L37380 20600
L37430 20620
L37450 20670
L37450 20930
" />
<path d="M37880 20910
L37830 20930
L37740 20930
L37690 20910
L37670 20860
L37670 20670
L37690 20620
L37740 20600
L37830 20600
L37880 20620
L37910 20670
L37910 20720
L37670 20760
" />
<path d="M38330 20910
L38290 20930
L38190 20930
L38140 20910
L38120 20880
L38100 20840
L38100 20690
L38120 20650
L38140 20620
L38190 20600
L38290 20600
L38330 20620
" />
<path d="M38480 20600
L38670 20600
" />
<path d="M38550 20430
L38550 20860
L38570 20910
L38620 20930
L38670 20930
" />
<path d="M38910 20930
L38860 20910
L38830 20880
L38810 20840
L38810 20690
L38830 20650
L38860 20620
L38910 20600
L38980 20600
L39030 20620
L39050 20650
L39070 20690
L39070 20840
L39050 20880
L39030 20910
L38980 20930
L38910 20930
" />
<path d="M39290 20930
L39290 20600
" />
<path d="M39290 20690
L39310 20650
L39330 20620
L39380 20600
L39430 20600
" />
<path d="M39570 20910
L39620 20930
L39720 20930
L39760 20910
L39790 20860
L39790 20840
L39760 20790
L39720 20760
L39640 20760
L39600 20740
L39570 20690
L39570 20670
L39600 20620
L39640 20600
L39720 20600
L39760 20620
" />
</g>
<g style="fill:#848400; fill-opacity:0.0; 
stroke:#848400; stroke-width:60; stroke-opacity:1; 
stroke-linecap:round; stroke-linejoin:round;">
</g>
<g style="fill:#000000; fill-opacity:0.0; 
stroke:#000000; stroke-width:60; stroke-opacity:1; 
stroke-linecap:round; stroke-linejoin:round;">
<text x="33000" y="23040"
textLength="7660" font-size="660" lengthAdjust="spacingAndGlyphs"
text-anchor="start" opacity="0">File: connectors.sch</text>
<path d="M33310 22750
L33140 22750
" />
<path d="M33140 23010
L33140 22510
L33380 22510
" />
<path d="M33570 23010
L33570 22680
" />
<path d="M33570 22510
L33550 22540
L33570 22560
L33600 22540
L33570 22510
L33570 22560
" />
<path d="M33880 23010
L33830 22990
L33810 22940
L33810 22510
" />
<path d="M34260 22990
L34220 23010
L34120 23010
L34070 22990
L34050 22940
L34050 22750
L34070 22700
L34120 22680
L34220 22680
L34260 22700
L34290 22750
L34290 22800
L34050 22840
" />
<path d="M34500 22960
L34530 22990
L34500 23010
L34480 22990
L34500 22960
L34500 23010
" />
<path d="M34500 22700
L34530 22730
L34500 22750
L34480 22730
L34500 22700
L34500 22750
" />
<path d="M35330 22990
L35290 23010
L35190 23010
L35140 22990
L35120 22960
L35100 22920
L35100 22770
L35120 22730
L35140 22700
L35190 22680
L35290 22680
L35330 22700
" />
<path d="M35620 23010
L35570 22990
L35550 22960
L35530 22920
L35530 22770
L35550 22730
L35570 22700
L35620 22680
L35690 22680
L35740 22700
L35760 22730
L35790 22770
L35790 22920
L35760 22960
L35740 22990
L35690 23010
L35620 23010
" />
<path d="M36000 22680
L36000 23010
" />
<path d="M36000 22730
L36030 22700
L36070 22680
L36140 22680
L36190 22700
L36220 22750
L36220 23010
" />
<path d="M36450 22680
L36450 23010
" />
<path d="M36450 22730
L36480 22700
L36530 22680
L36600 22680
L36640 22700
L36670 22750
L36670 23010
" />
<path d="M37100 22990
L37050 23010
L36950 23010
L36910 22990
L36880 22940
L36880 22750
L36910 22700
L36950 22680
L37050 22680
L37100 22700
L37120 22750
L37120 22800
L36880 22840
" />
<path d="M37550 22990
L37500 23010
L37410 23010
L37360 22990
L37330 22960
L37310 22920
L37310 22770
L37330 22730
L37360 22700
L37410 22680
L37500 22680
L37550 22700
" />
<path d="M37690 22680
L37880 22680
" />
<path d="M37760 22510
L37760 22940
L37790 22990
L37830 23010
L37880 23010
" />
<path d="M38120 23010
L38070 22990
L38050 22960
L38030 22920
L38030 22770
L38050 22730
L38070 22700
L38120 22680
L38190 22680
L38240 22700
L38260 22730
L38290 22770
L38290 22920
L38260 22960
L38240 22990
L38190 23010
L38120 23010
" />
<path d="M38500 23010
L38500 22680
" />
<path d="M38500 22770
L38530 22730
L38550 22700
L38600 22680
L38640 22680
" />
<path d="M38790 22990
L38830 23010
L38930 23010
L38980 22990
L39000 22940
L39000 22920
L38980 22870
L38930 22840
L38860 22840
L38810 22820
L38790 22770
L38790 22750
L38810 22700
L38860 22680
L38930 22680
L38980 22700
" />
<path d="M39220 22960
L39240 22990
L39220 23010
L39190 22990
L39220 22960
L39220 23010
" />
<path d="M39430 22990
L39480 23010
L39570 23010
L39620 22990
L39640 22940
L39640 22920
L39620 22870
L39570 22840
L39500 22840
L39450 22820
L39430 22770
L39430 22750
L39450 22700
L39500 22680
L39570 22680
L39620 22700
" />
<path d="M40070 22990
L40030 23010
L39930 23010
L39880 22990
L39860 22960
L39830 22920
L39830 22770
L39860 22730
L39880 22700
L39930 22680
L40030 22680
L40070 22700
" />
<path d="M40290 23010
L40290 22510
" />
<path d="M40500 23010
L40500 22750
L40480 22700
L40430 22680
L40360 22680
L40310 22700
L40290 22730
" />
</g>
<g style="fill:#840084; fill-opacity:0.0; 
stroke:#840084; stroke-width:60; stroke-opacity:1; 
stroke-linecap:round; stroke-linejoin:round;">
<path d="M33000 34500
L38000 34500
L38000 36000
L33000 36000
L33000 34500
" />
</g>
<g style="fill:#008484; fill-opacity:0.0; 
stroke:#008484; stroke-width:60; stroke-opacity:1; 
stroke-linecap:round; stroke-linejoin:round;">
</g>
<g style="fill:#000000; fill-opacity:0.0; 
stroke:#000000; stroke-width:60; stroke-opacity:1; 
stroke-linecap:round; stroke-linejoin:round;">
<text x="33000" y="34460"
textLength="7200" font-size="660" lengthAdjust="spacingAndGlyphs"
text-anchor="start" opacity="0">Sheet: MISO Buffer</text>
<path d="M33120 34410
L33190 34430
L33310 34430
L33360 34410
L33380 34380
L33410 34340
L33410 34290
L33380 34240
L33360 34220
L33310 34190
L33220 34170
L33170 34150
L33140 34120
L33120 34070
L33120 34030
L33140 33980
L33170 33960
L33220 33930
L33330 33930
L33410 33960
" />
<path d="M33620 34430
L33620 33930
" />
<path d="M33830 34430
L33830 34170
L33810 34120
L33760 34100
L33690 34100
L33640 34120
L33620 34150
" />
<path d="M34260 34410
L34220 34430
L34120 34430
L34070 34410
L34050 34360
L34050 34170
L34070 34120
L34120 34100
L34220 34100
L34260 34120
L34290 34170
L34290 34220
L34050 34260
" />
<path d="M34690 34410
L34640 34430
L34550 34430
L34500 34410
L34480 34360
L34480 34170
L34500 34120
L34550 34100
L34640 34100
L34690 34120
L34720 34170
L34720 34220
L34480 34260
" />
<path d="M34860 34100
L35050 34100
" />
<path d="M34930 33930
L34930 34360
L34950 34410
L35000 34430
L35050 34430
" />
<path d="M35220 34380
L35240 34410
L35220 34430
L35190 34410
L35220 34380
L35220 34430
" />
<path d="M35220 34120
L35240 34150
L35220 34170
L35190 34150
L35220 34120
L35220 34170
" />
<path d="M35830 34430
L35830 33930
L36000 34290
L36170 33930
L36170 34430
" />
<path d="M36410 34430
L36410 33930
" />
<path d="M36620 34410
L36690 34430
L36810 34430
L36860 34410
L36880 34380
L36910 34340
L36910 34290
L36880 34240
L36860 34220
L36810 34190
L36720 34170
L36670 34150
L36640 34120
L36620 34070
L36620 34030
L36640 33980
L36670 33960
L36720 33930
L36830 33930
L36910 33960
" />
<path d="M37220 33930
L37310 33930
L37360 33960
L37410 34000
L37430 34100
L37430 34260
L37410 34360
L37360 34410
L37310 34430
L37220 34430
L37170 34410
L37120 34360
L37100 34260
L37100 34100
L37120 34000
L37170 33960
L37220 33930
" />
<path d="M38190 34170
L38260 34190
L38290 34220
L38310 34260
L38310 34340
L38290 34380
L38260 34410
L38220 34430
L38030 34430
L38030 33930
L38190 33930
L38240 33960
L38260 33980
L38290 34030
L38290 34070
L38260 34120
L38240 34150
L38190 34170
L38030 34170
" />
<path d="M38740 34100
L38740 34430
" />
<path d="M38530 34100
L38530 34360
L38550 34410
L38600 34430
L38670 34430
L38720 34410
L38740 34380
" />
<path d="M38910 34100
L39100 34100
" />
<path d="M38980 34430
L38980 34000
L39000 33960
L39050 33930
L39100 33930
" />
<path d="M39190 34100
L39380 34100
" />
<path d="M39260 34430
L39260 34000
L39290 33960
L39330 33930
L39380 33930
" />
<path d="M39740 34410
L39690 34430
L39600 34430
L39550 34410
L39530 34360
L39530 34170
L39550 34120
L39600 34100
L39690 34100
L39740 34120
L39760 34170
L39760 34220
L39530 34260
" />
<path d="M39980 34430
L39980 34100
" />
<path d="M39980 34190
L40000 34150
L40030 34120
L40070 34100
L40120 34100
" />
</g>
<g style="fill:#848400; fill-opacity:0.0; 
stroke:#848400; stroke-width:60; stroke-opacity:1; 
stroke-linecap:round; stroke-linejoin:round;">
</g>
<g style="fill:#000000; fill-opacity:0.0; 
stroke:#000000; stroke-width:60; stroke-opacity:1; 
stroke-linecap:round; stroke-linejoin:round;">
<text x="33000" y="36540"
textLength="8160" font-size="660" lengthAdjust="spacingAndGlyphs"
text-anchor="start" opacity="0">File: miso-buffer.sch</text>
<path d="M33310 36250
L33140 36250
" />
<path d="M33140 36510
L33140 36010
L33380 36010
" />
<path d="M33570 36510
L33570 36180
" />
<path d="M33570 36010
L33550 36040
L33570 36060
L33600 36040
L33570 36010
L33570 36060
" />
<path d="M33880 36510
L33830 36490
L33810 36440
L33810 36010
" />
<path d="M34260 36490
L34220 36510
L34120 36510
L34070 36490
L34050 36440
L34050 36250
L34070 36200
L34120 36180
L34220 36180
L34260 36200
L34290 36250
L34290 36300
L34050 36340
" />
<path d="M34500 36460
L34530 36490
L34500 36510
L34480 36490
L34500 36460
L34500 36510
" />
<path d="M34500 36200
L34530 36230
L34500 36250
L34480 36230
L34500 36200
L34500 36250
" />
<path d="M35120 36510
L35120 36180
" />
<path d="M35120 36230
L35140 36200
L35190 36180
L35260 36180
L35310 36200
L35330 36250
L35330 36510
" />
<path d="M35330 36250
L35360 36200
L35410 36180
L35480 36180
L35530 36200
L35550 36250
L35550 36510
" />
<path d="M35790 36510
L35790 36180
" />
<path d="M35790 36010
L35760 36040
L35790 36060
L35810 36040
L35790 36010
L35790 36060
" />
<path d="M36000 36490
L36050 36510
L36140 36510
L36190 36490
L36220 36440
L36220 36420
L36190 36370
L36140 36340
L36070 36340
L36030 36320
L36000 36270
L36000 36250
L36030 36200
L36070 36180
L36140 36180
L36190 36200
" />
<path d="M36500 36510
L36450 36490
L36430 36460
L36410 36420
L36410 36270
L36430 36230
L36450 36200
L36500 36180
L36570 36180
L36620 36200
L36640 36230
L36670 36270
L36670 36420
L36640 36460
L36620 36490
L36570 36510
L36500 36510
" />
<path d="M36880 36320
L37260 36320
" />
<path d="M37500 36510
L37500 36010
" />
<path d="M37500 36200
L37550 36180
L37640 36180
L37690 36200
L37720 36230
L37740 36270
L37740 36420
L37720 36460
L37690 36490
L37640 36510
L37550 36510
L37500 36490
" />
<path d="M38170 36180
L38170 36510
" />
<path d="M37950 36180
L37950 36440
L37980 36490
L38030 36510
L38100 36510
L38140 36490
L38170 36460
" />
<path d="M38330 36180
L38530 36180
" />
<path d="M38410 36510
L38410 36080
L38430 36040
L38480 36010
L38530 36010
" />
<path d="M38620 36180
L38810 36180
" />
<path d="M38690 36510
L38690 36080
L38720 36040
L38760 36010
L38810 36010
" />
<path d="M39170 36490
L39120 36510
L39030 36510
L38980 36490
L38950 36440
L38950 36250
L38980 36200
L39030 36180
L39120 36180
L39170 36200
L39190 36250
L39190 36300
L38950 36340
" />
<path d="M39410 36510
L39410 36180
" />
<path d="M39410 36270
L39430 36230
L39450 36200
L39500 36180
L39550 36180
" />
<path d="M39720 36460
L39740 36490
L39720 36510
L39690 36490
L39720 36460
L39720 36510
" />
<path d="M39930 36490
L39980 36510
L40070 36510
L40120 36490
L40140 36440
L40140 36420
L40120 36370
L40070 36340
L40000 36340
L39950 36320
L39930 36270
L39930 36250
L39950 36200
L40000 36180
L40070 36180
L40120 36200
" />
<path d="M40570 36490
L40530 36510
L40430 36510
L40380 36490
L40360 36460
L40330 36420
L40330 36270
L40360 36230
L40380 36200
L40430 36180
L40530 36180
L40570 36200
" />
<path d="M40790 36510
L40790 36010
" />
<path d="M41000 36510
L41000 36250
L40980 36200
L40930 36180
L40860 36180
L40810 36200
L40790 36230
" />
</g>
<g style="fill:#840084; fill-opacity:0.0; 
stroke:#840084; stroke-width:60; stroke-opacity:1; 
stroke-linecap:round; stroke-linejoin:round;">
<path d="M33000 38500
L38000 38500
L38000 40000
L33000 40000
L33000 38500
" />
</g>
<g style="fill:#008484; fill-opacity:0.0; 
stroke:#008484; stroke-width:60; stroke-opacity:1; 
stroke-linecap:round; stroke-linejoin:round;">
</g>
<g style="fill:#000000; fill-opacity:0.0; 
stroke:#000000; stroke-width:60; stroke-opacity:1; 
stroke-linecap:round; stroke-linejoin:round;">
<text x="33000" y="38460"
textLength="4920" font-size="660" lengthAdjust="spacingAndGlyphs"
text-anchor="start" opacity="0">Sheet: FT81x</text>
<path d="M33120 38410
L33190 38430
L33310 38430
L33360 38410
L33380 38380
L33410 38340
L33410 38290
L33380 38240
L33360 38220
L33310 38190
L33220 38170
L33170 38150
L33140 38120
L33120 38070
L33120 38030
L33140 37980
L33170 37960
L33220 37930
L33330 37930
L33410 37960
" />
<path d="M33620 38430
L33620 37930
" />
<path d="M33830 38430
L33830 38170
L33810 38120
L33760 38100
L33690 38100
L33640 38120
L33620 38150
" />
<path d="M34260 38410
L34220 38430
L34120 38430
L34070 38410
L34050 38360
L34050 38170
L34070 38120
L34120 38100
L34220 38100
L34260 38120
L34290 38170
L34290 38220
L34050 38260
" />
<path d="M34690 38410
L34640 38430
L34550 38430
L34500 38410
L34480 38360
L34480 38170
L34500 38120
L34550 38100
L34640 38100
L34690 38120
L34720 38170
L34720 38220
L34480 38260
" />
<path d="M34860 38100
L35050 38100
" />
<path d="M34930 37930
L34930 38360
L34950 38410
L35000 38430
L35050 38430
" />
<path d="M35220 38380
L35240 38410
L35220 38430
L35190 38410
L35220 38380
L35220 38430
" />
<path d="M35220 38120
L35240 38150
L35220 38170
L35190 38150
L35220 38120
L35220 38170
" />
<path d="M36000 38170
L35830 38170
" />
<path d="M35830 38430
L35830 37930
L36070 37930
" />
<path d="M36190 37930
L36480 37930
" />
<path d="M36330 38430
L36330 37930
" />
<path d="M36720 38150
L36670 38120
L36640 38100
L36620 38050
L36620 38030
L36640 37980
L36670 37960
L36720 37930
L36810 37930
L36860 37960
L36880 37980
L36910 38030
L36910 38050
L36880 38100
L36860 38120
L36810 38150
L36720 38150
L36670 38170
L36640 38190
L36620 38240
L36620 38340
L36640 38380
L36670 38410
L36720 38430
L36810 38430
L36860 38410
L36880 38380
L36910 38340
L36910 38240
L36880 38190
L36860 38170
L36810 38150
" />
<path d="M37380 38430
L37100 38430
" />
<path d="M37240 38430
L37240 37930
L37190 38000
L37140 38050
L37100 38070
" />
<path d="M37550 38430
L37810 38100
" />
<path d="M37550 38100
L37810 38430
" />
</g>
<g style="fill:#848400; fill-opacity:0.0; 
stroke:#848400; stroke-width:60; stroke-opacity:1; 
stroke-linecap:round; stroke-linejoin:round;">
</g>
<g style="fill:#000000; fill-opacity:0.0; 
stroke:#000000; stroke-width:60; stroke-opacity:1; 
stroke-linecap:round; stroke-linejoin:round;">
<text x="33000" y="40540"
textLength="5490" font-size="660" lengthAdjust="spacingAndGlyphs"
text-anchor="start" opacity="0">File: ft81x.sch</text>
<path d="M33310 40250
L33140 40250
" />
<path d="M33140 40510
L33140 40010
L33380 40010
" />
<path d="M33570 40510
L33570 40180
" />
<path d="M33570 40010
L33550 40040
L33570 40060
L33600 40040
L33570 40010
L33570 40060
" />
<path d="M33880 40510
L33830 40490
L33810 40440
L33810 40010
" />
<path d="M34260 40490
L34220 40510
L34120 40510
L34070 40490
L34050 40440
L34050 40250
L34070 40200
L34120 40180
L34220 40180
L34260 40200
L34290 40250
L34290 40300
L34050 40340
" />
<path d="M34500 40460
L34530 40490
L34500 40510
L34480 40490
L34500 40460
L34500 40510
" />
<path d="M34500 40200
L34530 40230
L34500 40250
L34480 40230
L34500 40200
L34500 40250
" />
<path d="M35050 40180
L35240 40180
" />
<path d="M35120 40510
L35120 40080
L35140 40040
L35190 40010
L35240 40010
" />
<path d="M35330 40180
L35530 40180
" />
<path d="M35410 40010
L35410 40440
L35430 40490
L35480 40510
L35530 40510
" />
<path d="M35760 40230
L35720 40200
L35690 40180
L35670 40130
L35670 40110
L35690 40060
L35720 40040
L35760 40010
L35860 40010
L35910 40040
L35930 40060
L35950 40110
L35950 40130
L35930 40180
L35910 40200
L35860 40230
L35760 40230
L35720 40250
L35690 40270
L35670 40320
L35670 40420
L35690 40460
L35720 40490
L35760 40510
L35860 40510
L35910 40490
L35930 40460
L35950 40420
L35950 40320
L35930 40270
L35910 40250
L35860 40230
" />
<path d="M36430 40510
L36140 40510
" />
<path d="M36290 40510
L36290 40010
L36240 40080
L36190 40130
L36140 40150
" />
<path d="M36600 40510
L36860 40180
" />
<path d="M36600 40180
L36860 40510
" />
<path d="M37050 40460
L37070 40490
L37050 40510
L37030 40490
L37050 40460
L37050 40510
" />
<path d="M37260 40490
L37310 40510
L37410 40510
L37450 40490
L37480 40440
L37480 40420
L37450 40370
L37410 40340
L37330 40340
L37290 40320
L37260 40270
L37260 40250
L37290 40200
L37330 40180
L37410 40180
L37450 40200
" />
<path d="M37910 40490
L37860 40510
L37760 40510
L37720 40490
L37690 40460
L37670 40420
L37670 40270
L37690 40230
L37720 40200
L37760 40180
L37860 40180
L37910 40200
" />
<path d="M38120 40510
L38120 40010
" />
<path d="M38330 40510
L38330 40250
L38310 40200
L38260 40180
L38190 40180
L38140 40200
L38120 40230
" />
</g>
<g style="fill:#840084; fill-opacity:0.0; 
stroke:#840084; stroke-width:60; stroke-opacity:1; 
stroke-linecap:round; stroke-linejoin:round;">
<path d="M33000 42500
L38000 42500
L38000 44000
L33000 44000
L33000 42500
" />
</g>
<g style="fill:#008484; fill-opacity:0.0; 
stroke:#008484; stroke-width:60; stroke-opacity:1; 
stroke-linecap:round; stroke-linejoin:round;">
</g>
<g style="fill:#000000; fill-opacity:0.0; 
stroke:#000000; stroke-width:60; stroke-opacity:1; 
stroke-linecap:round; stroke-linejoin:round;">
<text x="33000" y="42460"
textLength="5440" font-size="660" lengthAdjust="spacingAndGlyphs"
text-anchor="start" opacity="0">Sheet: Display</text>
<path d="M33120 42410
L33190 42430
L33310 42430
L33360 42410
L33380 42380
L33410 42340
L33410 42290
L33380 42240
L33360 42220
L33310 42190
L33220 42170
L33170 42150
L33140 42120
L33120 42070
L33120 42030
L33140 41980
L33170 41960
L33220 41930
L33330 41930
L33410 41960
" />
<path d="M33620 42430
L33620 41930
" />
<path d="M33830 42430
L33830 42170
L33810 42120
L33760 42100
L33690 42100
L33640 42120
L33620 42150
" />
<path d="M34260 42410
L34220 42430
L34120 42430
L34070 42410
L34050 42360
L34050 42170
L34070 42120
L34120 42100
L34220 42100
L34260 42120
L34290 42170
L34290 42220
L34050 42260
" />
<path d="M34690 42410
L34640 42430
L34550 42430
L34500 42410
L34480 42360
L34480 42170
L34500 42120
L34550 42100
L34640 42100
L34690 42120
L34720 42170
L34720 42220
L34480 42260
" />
<path d="M34860 42100
L35050 42100
" />
<path d="M34930 41930
L34930 42360
L34950 42410
L35000 42430
L35050 42430
" />
<path d="M35220 42380
L35240 42410
L35220 42430
L35190 42410
L35220 42380
L35220 42430
" />
<path d="M35220 42120
L35240 42150
L35220 42170
L35190 42150
L35220 42120
L35220 42170
" />
<path d="M35830 42430
L35830 41930
L35950 41930
L36030 41960
L36070 42000
L36100 42050
L36120 42150
L36120 42220
L36100 42310
L36070 42360
L36030 42410
L35950 42430
L35830 42430
" />
<path d="M36330 42430
L36330 42100
" />
<path d="M36330 41930
L36310 41960
L36330 41980
L36360 41960
L36330 41930
L36330 41980
" />
<path d="M36550 42410
L36600 42430
L36690 42430
L36740 42410
L36760 42360
L36760 42340
L36740 42290
L36690 42260
L36620 42260
L36570 42240
L36550 42190
L36550 42170
L36570 42120
L36620 42100
L36690 42100
L36740 42120
" />
<path d="M36980 42100
L36980 42600
" />
<path d="M36980 42120
L37030 42100
L37120 42100
L37170 42120
L37190 42150
L37220 42190
L37220 42340
L37190 42380
L37170 42410
L37120 42430
L37030 42430
L36980 42410
" />
<path d="M37500 42430
L37450 42410
L37430 42360
L37430 41930
" />
<path d="M37910 42430
L37910 42170
L37880 42120
L37830 42100
L37740 42100
L37690 42120
" />
<path d="M37910 42410
L37860 42430
L37740 42430
L37690 42410
L37670 42360
L37670 42310
L37690 42260
L37740 42240
L37860 42240
L37910 42220
" />
<path d="M38100 42100
L38220 42430
" />
<path d="M38330 42100
L38220 42430
L38170 42550
L38140 42570
L38100 42600
" />
</g>
<g style="fill:#848400; fill-opacity:0.0; 
stroke:#848400; stroke-width:60; stroke-opacity:1; 
stroke-linecap:round; stroke-linejoin:round;">
</g>
<g style="fill:#000000; fill-opacity:0.0; 
stroke:#000000; stroke-width:60; stroke-opacity:1; 
stroke-linecap:round; stroke-linejoin:round;">
<text x="33000" y="44540"
textLength="6200" font-size="660" lengthAdjust="spacingAndGlyphs"
text-anchor="start" opacity="0">File: display.sch</text>
<path d="M33310 44250
L33140 44250
" />
<path d="M33140 44510
L33140 44010
L33380 44010
" />
<path d="M33570 44510
L33570 44180
" />
<path d="M33570 44010
L33550 44040
L33570 44060
L33600 44040
L33570 44010
L33570 44060
" />
<path d="M33880 44510
L33830 44490
L33810 44440
L33810 44010
" />
<path d="M34260 44490
L34220 44510
L34120 44510
L34070 44490
L34050 44440
L34050 44250
L34070 44200
L34120 44180
L34220 44180
L34260 44200
L34290 44250
L34290 44300
L34050 44340
" />
<path d="M34500 44460
L34530 44490
L34500 44510
L34480 44490
L34500 44460
L34500 44510
" />
<path d="M34500 44200
L34530 44230
L34500 44250
L34480 44230
L34500 44200
L34500 44250
" />
<path d="M35330 44510
L35330 44010
" />
<path d="M35330 44490
L35290 44510
L35190 44510
L35140 44490
L35120 44460
L35100 44420
L35100 44270
L35120 44230
L35140 44200
L35190 44180
L35290 44180
L35330 44200
" />
<path d="M35570 44510
L35570 44180
" />
<path d="M35570 44010
L35550 44040
L35570 44060
L35600 44040
L35570 44010
L35570 44060
" />
<path d="M35790 44490
L35830 44510
L35930 44510
L35980 44490
L36000 44440
L36000 44420
L35980 44370
L35930 44340
L35860 44340
L35810 44320
L35790 44270
L35790 44250
L35810 44200
L35860 44180
L35930 44180
L35980 44200
" />
<path d="M36220 44180
L36220 44680
" />
<path d="M36220 44200
L36260 44180
L36360 44180
L36410 44200
L36430 44230
L36450 44270
L36450 44420
L36430 44460
L36410 44490
L36360 44510
L36260 44510
L36220 44490
" />
<path d="M36740 44510
L36690 44490
L36670 44440
L36670 44010
" />
<path d="M37140 44510
L37140 44250
L37120 44200
L37070 44180
L36980 44180
L36930 44200
" />
<path d="M37140 44490
L37100 44510
L36980 44510
L36930 44490
L36910 44440
L36910 44390
L36930 44340
L36980 44320
L37100 44320
L37140 44300
" />
<path d="M37330 44180
L37450 44510
" />
<path d="M37570 44180
L37450 44510
L37410 44630
L37380 44650
L37330 44680
" />
<path d="M37760 44460
L37790 44490
L37760 44510
L37740 44490
L37760 44460
L37760 44510
" />
<path d="M37980 44490
L38030 44510
L38120 44510
L38170 44490
L38190 44440
L38190 44420
L38170 44370
L38120 44340
L38050 44340
L38000 44320
L37980 44270
L37980 44250
L38000 44200
L38050 44180
L38120 44180
L38170 44200
" />
<path d="M38620 44490
L38570 44510
L38480 44510
L38430 44490
L38410 44460
L38380 44420
L38380 44270
L38410 44230
L38430 44200
L38480 44180
L38570 44180
L38620 44200
" />
<path d="M38830 44510
L38830 44010
" />
<path d="M39050 44510
L39050 44250
L39030 44200
L38980 44180
L38910 44180
L38860 44200
L38830 44230
" />
</g>
<g style="fill:#840084; fill-opacity:0.0; 
stroke:#840084; stroke-width:60; stroke-opacity:1; 
stroke-linecap:round; stroke-linejoin:round;">
<path d="M33000 47000
L38000 47000
L38000 48500
L33000 48500
L33000 47000
" />
</g>
<g style="fill:#008484; fill-opacity:0.0; 
stroke:#008484; stroke-width:60; stroke-opacity:1; 
stroke-linecap:round; stroke-linejoin:round;">
</g>
<g style="fill:#000000; fill-opacity:0.0; 
stroke:#000000; stroke-width:60; stroke-opacity:1; 
stroke-linecap:round; stroke-linejoin:round;">
<text x="33000" y="46960"
textLength="6540" font-size="660" lengthAdjust="spacingAndGlyphs"
text-anchor="start" opacity="0">Sheet: Testpoints</text>
<path d="M33120 46910
L33190 46930
L33310 46930
L33360 46910
L33380 46880
L33410 46840
L33410 46790
L33380 46740
L33360 46720
L33310 46690
L33220 46670
L33170 46650
L33140 46620
L33120 46570
L33120 46530
L33140 46480
L33170 46460
L33220 46430
L33330 46430
L33410 46460
" />
<path d="M33620 46930
L33620 46430
" />
<path d="M33830 46930
L33830 46670
L33810 46620
L33760 46600
L33690 46600
L33640 46620
L33620 46650
" />
<path d="M34260 46910
L34220 46930
L34120 46930
L34070 46910
L34050 46860
L34050 46670
L34070 46620
L34120 46600
L34220 46600
L34260 46620
L34290 46670
L34290 46720
L34050 46760
" />
<path d="M34690 46910
L34640 46930
L34550 46930
L34500 46910
L34480 46860
L34480 46670
L34500 46620
L34550 46600
L34640 46600
L34690 46620
L34720 46670
L34720 46720
L34480 46760
" />
<path d="M34860 46600
L35050 46600
" />
<path d="M34930 46430
L34930 46860
L34950 46910
L35000 46930
L35050 46930
" />
<path d="M35220 46880
L35240 46910
L35220 46930
L35190 46910
L35220 46880
L35220 46930
" />
<path d="M35220 46620
L35240 46650
L35220 46670
L35190 46650
L35220 46620
L35220 46670
" />
<path d="M35760 46430
L36050 46430
" />
<path d="M35910 46930
L35910 46430
" />
<path d="M36410 46910
L36360 46930
L36260 46930
L36220 46910
L36190 46860
L36190 46670
L36220 46620
L36260 46600
L36360 46600
L36410 46620
L36430 46670
L36430 46720
L36190 46760
" />
<path d="M36620 46910
L36670 46930
L36760 46930
L36810 46910
L36830 46860
L36830 46840
L36810 46790
L36760 46760
L36690 46760
L36640 46740
L36620 46690
L36620 46670
L36640 46620
L36690 46600
L36760 46600
L36810 46620
" />
<path d="M36980 46600
L37170 46600
" />
<path d="M37050 46430
L37050 46860
L37070 46910
L37120 46930
L37170 46930
" />
<path d="M37330 46600
L37330 47100
" />
<path d="M37330 46620
L37380 46600
L37480 46600
L37530 46620
L37550 46650
L37570 46690
L37570 46840
L37550 46880
L37530 46910
L37480 46930
L37380 46930
L37330 46910
" />
<path d="M37860 46930
L37810 46910
L37790 46880
L37760 46840
L37760 46690
L37790 46650
L37810 46620
L37860 46600
L37930 46600
L37980 46620
L38000 46650
L38030 46690
L38030 46840
L38000 46880
L37980 46910
L37930 46930
L37860 46930
" />
<path d="M38240 46930
L38240 46600
" />
<path d="M38240 46430
L38220 46460
L38240 46480
L38260 46460
L38240 46430
L38240 46480
" />
<path d="M38480 46600
L38480 46930
" />
<path d="M38480 46650
L38500 46620
L38550 46600
L38620 46600
L38670 46620
L38690 46670
L38690 46930
" />
<path d="M38860 46600
L39050 46600
" />
<path d="M38930 46430
L38930 46860
L38950 46910
L39000 46930
L39050 46930
" />
<path d="M39190 46910
L39240 46930
L39330 46930
L39380 46910
L39410 46860
L39410 46840
L39380 46790
L39330 46760
L39260 46760
L39220 46740
L39190 46690
L39190 46670
L39220 46620
L39260 46600
L39330 46600
L39380 46620
" />
</g>
<g style="fill:#848400; fill-opacity:0.0; 
stroke:#848400; stroke-width:60; stroke-opacity:1; 
stroke-linecap:round; stroke-linejoin:round;">
</g>
<g style="fill:#000000; fill-opacity:0.0; 
stroke:#000000; stroke-width:60; stroke-opacity:1; 
stroke-linecap:round; stroke-linejoin:round;">
<text x="33000" y="49040"
textLength="7250" font-size="660" lengthAdjust="spacingAndGlyphs"
text-anchor="start" opacity="0">File: testpoints.sch</text>
<path d="M33310 48750
L33140 48750
" />
<path d="M33140 49010
L33140 48510
L33380 48510
" />
<path d="M33570 49010
L33570 48680
" />
<path d="M33570 48510
L33550 48540
L33570 48560
L33600 48540
L33570 48510
L33570 48560
" />
<path d="M33880 49010
L33830 48990
L33810 48940
L33810 48510
" />
<path d="M34260 48990
L34220 49010
L34120 49010
L34070 48990
L34050 48940
L34050 48750
L34070 48700
L34120 48680
L34220 48680
L34260 48700
L34290 48750
L34290 48800
L34050 48840
" />
<path d="M34500 48960
L34530 48990
L34500 49010
L34480 48990
L34500 48960
L34500 49010
" />
<path d="M34500 48700
L34530 48730
L34500 48750
L34480 48730
L34500 48700
L34500 48750
" />
<path d="M35050 48680
L35240 48680
" />
<path d="M35120 48510
L35120 48940
L35140 48990
L35190 49010
L35240 49010
" />
<path d="M35600 48990
L35550 49010
L35450 49010
L35410 48990
L35380 48940
L35380 48750
L35410 48700
L35450 48680
L35550 48680
L35600 48700
L35620 48750
L35620 48800
L35380 48840
" />
<path d="M35810 48990
L35860 49010
L35950 49010
L36000 48990
L36030 48940
L36030 48920
L36000 48870
L35950 48840
L35880 48840
L35830 48820
L35810 48770
L35810 48750
L35830 48700
L35880 48680
L35950 48680
L36000 48700
" />
<path d="M36170 48680
L36360 48680
" />
<path d="M36240 48510
L36240 48940
L36260 48990
L36310 49010
L36360 49010
" />
<path d="M36530 48680
L36530 49180
" />
<path d="M36530 48700
L36570 48680
L36670 48680
L36720 48700
L36740 48730
L36760 48770
L36760 48920
L36740 48960
L36720 48990
L36670 49010
L36570 49010
L36530 48990
" />
<path d="M37050 49010
L37000 48990
L36980 48960
L36950 48920
L36950 48770
L36980 48730
L37000 48700
L37050 48680
L37120 48680
L37170 48700
L37190 48730
L37220 48770
L37220 48920
L37190 48960
L37170 48990
L37120 49010
L37050 49010
" />
<path d="M37430 49010
L37430 48680
" />
<path d="M37430 48510
L37410 48540
L37430 48560
L37450 48540
L37430 48510
L37430 48560
" />
<path d="M37670 48680
L37670 49010
" />
<path d="M37670 48730
L37690 48700
L37740 48680
L37810 48680
L37860 48700
L37880 48750
L37880 49010
" />
<path d="M38050 48680
L38240 48680
" />
<path d="M38120 48510
L38120 48940
L38140 48990
L38190 49010
L38240 49010
" />
<path d="M38380 48990
L38430 49010
L38530 49010
L38570 48990
L38600 48940
L38600 48920
L38570 48870
L38530 48840
L38450 48840
L38410 48820
L38380 48770
L38380 48750
L38410 48700
L38450 48680
L38530 48680
L38570 48700
" />
<path d="M38810 48960
L38830 48990
L38810 49010
L38790 48990
L38810 48960
L38810 49010
" />
<path d="M39030 48990
L39070 49010
L39170 49010
L39220 48990
L39240 48940
L39240 48920
L39220 48870
L39170 48840
L39100 48840
L39050 48820
L39030 48770
L39030 48750
L39050 48700
L39100 48680
L39170 48680
L39220 48700
" />
<path d="M39670 48990
L39620 49010
L39530 49010
L39480 48990
L39450 48960
L39430 48920
L39430 48770
L39450 48730
L39480 48700
L39530 48680
L39620 48680
L39670 48700
" />
<path d="M39880 49010
L39880 48510
" />
<path d="M40100 49010
L40100 48750
L40070 48700
L40030 48680
L39950 48680
L39910 48700
L39880 48730
" />
</g>
<g style="fill:#840084; fill-opacity:0.0; 
stroke:#840084; stroke-width:60; stroke-opacity:1; 
stroke-linecap:round; stroke-linejoin:round;">
</g> 
</svg>
