%TF.GenerationSoftware,KiCad,Pcbnew,(5.1.6-0-10_14)*%
%TF.CreationDate,2020-07-19T16:10:20+02:00*%
%TF.ProjectId,driver-board,64726976-6572-42d6-926f-6172642e6b69,rev?*%
%TF.SameCoordinates,Original*%
%TF.FileFunction,Legend,Top*%
%TF.FilePolarity,Positive*%
%FSLAX46Y46*%
G04 Gerber Fmt 4.6, Leading zero omitted, Abs format (unit mm)*
G04 Created by KiCad (PCBNEW (5.1.6-0-10_14)) date 2020-07-19 16:10:20*
%MOMM*%
%LPD*%
G01*
G04 APERTURE LIST*
%ADD10C,0.150000*%
%ADD11C,0.120000*%
%ADD12C,0.127000*%
%ADD13C,0.200000*%
G04 APERTURE END LIST*
D10*
X119085714Y-83714285D02*
X118685714Y-83714285D01*
X118685714Y-84342857D02*
X118685714Y-83142857D01*
X119257142Y-83142857D01*
X119542857Y-83142857D02*
X120228571Y-83142857D01*
X119885714Y-84342857D02*
X119885714Y-83142857D01*
X120800000Y-83657142D02*
X120685714Y-83600000D01*
X120628571Y-83542857D01*
X120571428Y-83428571D01*
X120571428Y-83371428D01*
X120628571Y-83257142D01*
X120685714Y-83200000D01*
X120800000Y-83142857D01*
X121028571Y-83142857D01*
X121142857Y-83200000D01*
X121200000Y-83257142D01*
X121257142Y-83371428D01*
X121257142Y-83428571D01*
X121200000Y-83542857D01*
X121142857Y-83600000D01*
X121028571Y-83657142D01*
X120800000Y-83657142D01*
X120685714Y-83714285D01*
X120628571Y-83771428D01*
X120571428Y-83885714D01*
X120571428Y-84114285D01*
X120628571Y-84228571D01*
X120685714Y-84285714D01*
X120800000Y-84342857D01*
X121028571Y-84342857D01*
X121142857Y-84285714D01*
X121200000Y-84228571D01*
X121257142Y-84114285D01*
X121257142Y-83885714D01*
X121200000Y-83771428D01*
X121142857Y-83714285D01*
X121028571Y-83657142D01*
X122400000Y-84342857D02*
X121714285Y-84342857D01*
X122057142Y-84342857D02*
X122057142Y-83142857D01*
X121942857Y-83314285D01*
X121828571Y-83428571D01*
X121714285Y-83485714D01*
X122800000Y-84342857D02*
X123428571Y-83542857D01*
X122800000Y-83542857D02*
X123428571Y-84342857D01*
X114934404Y-81100000D02*
X114839166Y-81052380D01*
X114696309Y-81052380D01*
X114553452Y-81100000D01*
X114458214Y-81195238D01*
X114410595Y-81290476D01*
X114362976Y-81480952D01*
X114362976Y-81623809D01*
X114410595Y-81814285D01*
X114458214Y-81909523D01*
X114553452Y-82004761D01*
X114696309Y-82052380D01*
X114791547Y-82052380D01*
X114934404Y-82004761D01*
X114982023Y-81957142D01*
X114982023Y-81623809D01*
X114791547Y-81623809D01*
X115410595Y-82052380D02*
X115410595Y-81052380D01*
X115982023Y-82052380D01*
X115982023Y-81052380D01*
X116458214Y-82052380D02*
X116458214Y-81052380D01*
X116696309Y-81052380D01*
X116839166Y-81100000D01*
X116934404Y-81195238D01*
X116982023Y-81290476D01*
X117029642Y-81480952D01*
X117029642Y-81623809D01*
X116982023Y-81814285D01*
X116934404Y-81909523D01*
X116839166Y-82004761D01*
X116696309Y-82052380D01*
X116458214Y-82052380D01*
X114934404Y-78575000D02*
X114839166Y-78527380D01*
X114696309Y-78527380D01*
X114553452Y-78575000D01*
X114458214Y-78670238D01*
X114410595Y-78765476D01*
X114362976Y-78955952D01*
X114362976Y-79098809D01*
X114410595Y-79289285D01*
X114458214Y-79384523D01*
X114553452Y-79479761D01*
X114696309Y-79527380D01*
X114791547Y-79527380D01*
X114934404Y-79479761D01*
X114982023Y-79432142D01*
X114982023Y-79098809D01*
X114791547Y-79098809D01*
X115410595Y-79527380D02*
X115410595Y-78527380D01*
X115982023Y-79527380D01*
X115982023Y-78527380D01*
X116458214Y-79527380D02*
X116458214Y-78527380D01*
X116696309Y-78527380D01*
X116839166Y-78575000D01*
X116934404Y-78670238D01*
X116982023Y-78765476D01*
X117029642Y-78955952D01*
X117029642Y-79098809D01*
X116982023Y-79289285D01*
X116934404Y-79384523D01*
X116839166Y-79479761D01*
X116696309Y-79527380D01*
X116458214Y-79527380D01*
X111249880Y-84336904D02*
X111030833Y-83955952D01*
X110792738Y-84336904D02*
X110892738Y-83536904D01*
X111197500Y-83536904D01*
X111268928Y-83575000D01*
X111302261Y-83613095D01*
X111330833Y-83689285D01*
X111316547Y-83803571D01*
X111268928Y-83879761D01*
X111226071Y-83917857D01*
X111145119Y-83955952D01*
X110840357Y-83955952D01*
X111645119Y-83917857D02*
X111911785Y-83917857D01*
X111973690Y-84336904D02*
X111592738Y-84336904D01*
X111692738Y-83536904D01*
X112073690Y-83536904D01*
X112302261Y-83536904D02*
X112468928Y-84336904D01*
X112835595Y-83536904D01*
X113054642Y-83613095D02*
X113097500Y-83575000D01*
X113178452Y-83536904D01*
X113368928Y-83536904D01*
X113440357Y-83575000D01*
X113473690Y-83613095D01*
X113502261Y-83689285D01*
X113492738Y-83765476D01*
X113440357Y-83879761D01*
X112926071Y-84336904D01*
X113421309Y-84336904D01*
X114016547Y-83536904D02*
X114092738Y-83536904D01*
X114164166Y-83575000D01*
X114197500Y-83613095D01*
X114226071Y-83689285D01*
X114245119Y-83841666D01*
X114221309Y-84032142D01*
X114164166Y-84184523D01*
X114116547Y-84260714D01*
X114073690Y-84298809D01*
X113992738Y-84336904D01*
X113916547Y-84336904D01*
X113845119Y-84298809D01*
X113811785Y-84260714D01*
X113783214Y-84184523D01*
X113764166Y-84032142D01*
X113787976Y-83841666D01*
X113845119Y-83689285D01*
X113892738Y-83613095D01*
X113935595Y-83575000D01*
X114016547Y-83536904D01*
X114778452Y-83536904D02*
X114854642Y-83536904D01*
X114926071Y-83575000D01*
X114959404Y-83613095D01*
X114987976Y-83689285D01*
X115007023Y-83841666D01*
X114983214Y-84032142D01*
X114926071Y-84184523D01*
X114878452Y-84260714D01*
X114835595Y-84298809D01*
X114754642Y-84336904D01*
X114678452Y-84336904D01*
X114607023Y-84298809D01*
X114573690Y-84260714D01*
X114545119Y-84184523D01*
X114526071Y-84032142D01*
X114549880Y-83841666D01*
X114607023Y-83689285D01*
X114654642Y-83613095D01*
X114697500Y-83575000D01*
X114778452Y-83536904D01*
X115311785Y-83536904D02*
X115845119Y-83536904D01*
X115402261Y-84336904D01*
X116102261Y-83917857D02*
X116368928Y-83917857D01*
X116430833Y-84336904D02*
X116049880Y-84336904D01*
X116149880Y-83536904D01*
X116530833Y-83536904D01*
X131540476Y-83586904D02*
X131540476Y-82786904D01*
X131730952Y-82786904D01*
X131845238Y-82825000D01*
X131921428Y-82901190D01*
X131959523Y-82977380D01*
X131997619Y-83129761D01*
X131997619Y-83244047D01*
X131959523Y-83396428D01*
X131921428Y-83472619D01*
X131845238Y-83548809D01*
X131730952Y-83586904D01*
X131540476Y-83586904D01*
X132797619Y-83510714D02*
X132759523Y-83548809D01*
X132645238Y-83586904D01*
X132569047Y-83586904D01*
X132454761Y-83548809D01*
X132378571Y-83472619D01*
X132340476Y-83396428D01*
X132302380Y-83244047D01*
X132302380Y-83129761D01*
X132340476Y-82977380D01*
X132378571Y-82901190D01*
X132454761Y-82825000D01*
X132569047Y-82786904D01*
X132645238Y-82786904D01*
X132759523Y-82825000D01*
X132797619Y-82863095D01*
X126260714Y-83510714D02*
X126222619Y-83548809D01*
X126108333Y-83586904D01*
X126032142Y-83586904D01*
X125917857Y-83548809D01*
X125841666Y-83472619D01*
X125803571Y-83396428D01*
X125765476Y-83244047D01*
X125765476Y-83129761D01*
X125803571Y-82977380D01*
X125841666Y-82901190D01*
X125917857Y-82825000D01*
X126032142Y-82786904D01*
X126108333Y-82786904D01*
X126222619Y-82825000D01*
X126260714Y-82863095D01*
X126565476Y-83548809D02*
X126679761Y-83586904D01*
X126870238Y-83586904D01*
X126946428Y-83548809D01*
X126984523Y-83510714D01*
X127022619Y-83434523D01*
X127022619Y-83358333D01*
X126984523Y-83282142D01*
X126946428Y-83244047D01*
X126870238Y-83205952D01*
X126717857Y-83167857D01*
X126641666Y-83129761D01*
X126603571Y-83091666D01*
X126565476Y-83015476D01*
X126565476Y-82939285D01*
X126603571Y-82863095D01*
X126641666Y-82825000D01*
X126717857Y-82786904D01*
X126908333Y-82786904D01*
X127022619Y-82825000D01*
X127327380Y-82863095D02*
X127365476Y-82825000D01*
X127441666Y-82786904D01*
X127632142Y-82786904D01*
X127708333Y-82825000D01*
X127746428Y-82863095D01*
X127784523Y-82939285D01*
X127784523Y-83015476D01*
X127746428Y-83129761D01*
X127289285Y-83586904D01*
X127784523Y-83586904D01*
X137452380Y-79223809D02*
X137566666Y-79261904D01*
X137757142Y-79261904D01*
X137833333Y-79223809D01*
X137871428Y-79185714D01*
X137909523Y-79109523D01*
X137909523Y-79033333D01*
X137871428Y-78957142D01*
X137833333Y-78919047D01*
X137757142Y-78880952D01*
X137604761Y-78842857D01*
X137528571Y-78804761D01*
X137490476Y-78766666D01*
X137452380Y-78690476D01*
X137452380Y-78614285D01*
X137490476Y-78538095D01*
X137528571Y-78500000D01*
X137604761Y-78461904D01*
X137795238Y-78461904D01*
X137909523Y-78500000D01*
X138252380Y-79261904D02*
X138252380Y-78461904D01*
X138442857Y-78461904D01*
X138557142Y-78500000D01*
X138633333Y-78576190D01*
X138671428Y-78652380D01*
X138709523Y-78804761D01*
X138709523Y-78919047D01*
X138671428Y-79071428D01*
X138633333Y-79147619D01*
X138557142Y-79223809D01*
X138442857Y-79261904D01*
X138252380Y-79261904D01*
X139204761Y-78461904D02*
X139357142Y-78461904D01*
X139433333Y-78500000D01*
X139509523Y-78576190D01*
X139547619Y-78728571D01*
X139547619Y-78995238D01*
X139509523Y-79147619D01*
X139433333Y-79223809D01*
X139357142Y-79261904D01*
X139204761Y-79261904D01*
X139128571Y-79223809D01*
X139052380Y-79147619D01*
X139014285Y-78995238D01*
X139014285Y-78728571D01*
X139052380Y-78576190D01*
X139128571Y-78500000D01*
X139204761Y-78461904D01*
X141280952Y-77623809D02*
X141395238Y-77661904D01*
X141585714Y-77661904D01*
X141661904Y-77623809D01*
X141700000Y-77585714D01*
X141738095Y-77509523D01*
X141738095Y-77433333D01*
X141700000Y-77357142D01*
X141661904Y-77319047D01*
X141585714Y-77280952D01*
X141433333Y-77242857D01*
X141357142Y-77204761D01*
X141319047Y-77166666D01*
X141280952Y-77090476D01*
X141280952Y-77014285D01*
X141319047Y-76938095D01*
X141357142Y-76900000D01*
X141433333Y-76861904D01*
X141623809Y-76861904D01*
X141738095Y-76900000D01*
X142080952Y-77661904D02*
X142080952Y-76861904D01*
X142271428Y-76861904D01*
X142385714Y-76900000D01*
X142461904Y-76976190D01*
X142500000Y-77052380D01*
X142538095Y-77204761D01*
X142538095Y-77319047D01*
X142500000Y-77471428D01*
X142461904Y-77547619D01*
X142385714Y-77623809D01*
X142271428Y-77661904D01*
X142080952Y-77661904D01*
X142880952Y-77661904D02*
X142880952Y-76861904D01*
X138471428Y-77123809D02*
X138585714Y-77161904D01*
X138776190Y-77161904D01*
X138852380Y-77123809D01*
X138890476Y-77085714D01*
X138928571Y-77009523D01*
X138928571Y-76933333D01*
X138890476Y-76857142D01*
X138852380Y-76819047D01*
X138776190Y-76780952D01*
X138623809Y-76742857D01*
X138547619Y-76704761D01*
X138509523Y-76666666D01*
X138471428Y-76590476D01*
X138471428Y-76514285D01*
X138509523Y-76438095D01*
X138547619Y-76400000D01*
X138623809Y-76361904D01*
X138814285Y-76361904D01*
X138928571Y-76400000D01*
X139728571Y-77085714D02*
X139690476Y-77123809D01*
X139576190Y-77161904D01*
X139500000Y-77161904D01*
X139385714Y-77123809D01*
X139309523Y-77047619D01*
X139271428Y-76971428D01*
X139233333Y-76819047D01*
X139233333Y-76704761D01*
X139271428Y-76552380D01*
X139309523Y-76476190D01*
X139385714Y-76400000D01*
X139500000Y-76361904D01*
X139576190Y-76361904D01*
X139690476Y-76400000D01*
X139728571Y-76438095D01*
X140071428Y-77161904D02*
X140071428Y-76361904D01*
X140528571Y-77161904D02*
X140185714Y-76704761D01*
X140528571Y-76361904D02*
X140071428Y-76819047D01*
X136470119Y-60660714D02*
X136432023Y-60698809D01*
X136317738Y-60736904D01*
X136241547Y-60736904D01*
X136127261Y-60698809D01*
X136051071Y-60622619D01*
X136012976Y-60546428D01*
X135974880Y-60394047D01*
X135974880Y-60279761D01*
X136012976Y-60127380D01*
X136051071Y-60051190D01*
X136127261Y-59975000D01*
X136241547Y-59936904D01*
X136317738Y-59936904D01*
X136432023Y-59975000D01*
X136470119Y-60013095D01*
X136774880Y-60698809D02*
X136889166Y-60736904D01*
X137079642Y-60736904D01*
X137155833Y-60698809D01*
X137193928Y-60660714D01*
X137232023Y-60584523D01*
X137232023Y-60508333D01*
X137193928Y-60432142D01*
X137155833Y-60394047D01*
X137079642Y-60355952D01*
X136927261Y-60317857D01*
X136851071Y-60279761D01*
X136812976Y-60241666D01*
X136774880Y-60165476D01*
X136774880Y-60089285D01*
X136812976Y-60013095D01*
X136851071Y-59975000D01*
X136927261Y-59936904D01*
X137117738Y-59936904D01*
X137232023Y-59975000D01*
X137993928Y-60736904D02*
X137536785Y-60736904D01*
X137765357Y-60736904D02*
X137765357Y-59936904D01*
X137689166Y-60051190D01*
X137612976Y-60127380D01*
X137536785Y-60165476D01*
X139969166Y-61661904D02*
X139969166Y-60861904D01*
X140159642Y-60861904D01*
X140273928Y-60900000D01*
X140350119Y-60976190D01*
X140388214Y-61052380D01*
X140426309Y-61204761D01*
X140426309Y-61319047D01*
X140388214Y-61471428D01*
X140350119Y-61547619D01*
X140273928Y-61623809D01*
X140159642Y-61661904D01*
X139969166Y-61661904D01*
X140769166Y-61242857D02*
X141035833Y-61242857D01*
X141150119Y-61661904D02*
X140769166Y-61661904D01*
X140769166Y-60861904D01*
X141150119Y-60861904D01*
X139892976Y-60561904D02*
X139892976Y-59761904D01*
X140197738Y-59761904D01*
X140273928Y-59800000D01*
X140312023Y-59838095D01*
X140350119Y-59914285D01*
X140350119Y-60028571D01*
X140312023Y-60104761D01*
X140273928Y-60142857D01*
X140197738Y-60180952D01*
X139892976Y-60180952D01*
X141150119Y-60485714D02*
X141112023Y-60523809D01*
X140997738Y-60561904D01*
X140921547Y-60561904D01*
X140807261Y-60523809D01*
X140731071Y-60447619D01*
X140692976Y-60371428D01*
X140654880Y-60219047D01*
X140654880Y-60104761D01*
X140692976Y-59952380D01*
X140731071Y-59876190D01*
X140807261Y-59800000D01*
X140921547Y-59761904D01*
X140997738Y-59761904D01*
X141112023Y-59800000D01*
X141150119Y-59838095D01*
X139892976Y-59461904D02*
X139892976Y-58661904D01*
X139892976Y-59042857D02*
X140350119Y-59042857D01*
X140350119Y-59461904D02*
X140350119Y-58661904D01*
X140692976Y-59423809D02*
X140807261Y-59461904D01*
X140997738Y-59461904D01*
X141073928Y-59423809D01*
X141112023Y-59385714D01*
X141150119Y-59309523D01*
X141150119Y-59233333D01*
X141112023Y-59157142D01*
X141073928Y-59119047D01*
X140997738Y-59080952D01*
X140845357Y-59042857D01*
X140769166Y-59004761D01*
X140731071Y-58966666D01*
X140692976Y-58890476D01*
X140692976Y-58814285D01*
X140731071Y-58738095D01*
X140769166Y-58700000D01*
X140845357Y-58661904D01*
X141035833Y-58661904D01*
X141150119Y-58700000D01*
X139931071Y-57461904D02*
X140197738Y-58261904D01*
X140464404Y-57461904D01*
X140692976Y-58223809D02*
X140807261Y-58261904D01*
X140997738Y-58261904D01*
X141073928Y-58223809D01*
X141112023Y-58185714D01*
X141150119Y-58109523D01*
X141150119Y-58033333D01*
X141112023Y-57957142D01*
X141073928Y-57919047D01*
X140997738Y-57880952D01*
X140845357Y-57842857D01*
X140769166Y-57804761D01*
X140731071Y-57766666D01*
X140692976Y-57690476D01*
X140692976Y-57614285D01*
X140731071Y-57538095D01*
X140769166Y-57500000D01*
X140845357Y-57461904D01*
X141035833Y-57461904D01*
X141150119Y-57500000D01*
X139854761Y-56786904D02*
X139397619Y-56786904D01*
X139626190Y-56786904D02*
X139626190Y-55986904D01*
X139550000Y-56101190D01*
X139473809Y-56177380D01*
X139397619Y-56215476D01*
X140159523Y-56063095D02*
X140197619Y-56025000D01*
X140273809Y-55986904D01*
X140464285Y-55986904D01*
X140540476Y-56025000D01*
X140578571Y-56063095D01*
X140616666Y-56139285D01*
X140616666Y-56215476D01*
X140578571Y-56329761D01*
X140121428Y-56786904D01*
X140616666Y-56786904D01*
X140845238Y-55986904D02*
X141111904Y-56786904D01*
X141378571Y-55986904D01*
X127694047Y-57161904D02*
X128189285Y-57161904D01*
X127922619Y-57466666D01*
X128036904Y-57466666D01*
X128113095Y-57504761D01*
X128151190Y-57542857D01*
X128189285Y-57619047D01*
X128189285Y-57809523D01*
X128151190Y-57885714D01*
X128113095Y-57923809D01*
X128036904Y-57961904D01*
X127808333Y-57961904D01*
X127732142Y-57923809D01*
X127694047Y-57885714D01*
X128532142Y-57885714D02*
X128570238Y-57923809D01*
X128532142Y-57961904D01*
X128494047Y-57923809D01*
X128532142Y-57885714D01*
X128532142Y-57961904D01*
X128836904Y-57161904D02*
X129332142Y-57161904D01*
X129065476Y-57466666D01*
X129179761Y-57466666D01*
X129255952Y-57504761D01*
X129294047Y-57542857D01*
X129332142Y-57619047D01*
X129332142Y-57809523D01*
X129294047Y-57885714D01*
X129255952Y-57923809D01*
X129179761Y-57961904D01*
X128951190Y-57961904D01*
X128875000Y-57923809D01*
X128836904Y-57885714D01*
X129560714Y-57161904D02*
X129827380Y-57961904D01*
X130094047Y-57161904D01*
X118990476Y-56561904D02*
X119485714Y-56561904D01*
X119219047Y-56866666D01*
X119333333Y-56866666D01*
X119409523Y-56904761D01*
X119447619Y-56942857D01*
X119485714Y-57019047D01*
X119485714Y-57209523D01*
X119447619Y-57285714D01*
X119409523Y-57323809D01*
X119333333Y-57361904D01*
X119104761Y-57361904D01*
X119028571Y-57323809D01*
X118990476Y-57285714D01*
X119714285Y-56561904D02*
X119980952Y-57361904D01*
X120247619Y-56561904D01*
X114435595Y-76952380D02*
X114435595Y-75952380D01*
X115483214Y-76952380D02*
X115149880Y-76476190D01*
X114911785Y-76952380D02*
X114911785Y-75952380D01*
X115292738Y-75952380D01*
X115387976Y-76000000D01*
X115435595Y-76047619D01*
X115483214Y-76142857D01*
X115483214Y-76285714D01*
X115435595Y-76380952D01*
X115387976Y-76428571D01*
X115292738Y-76476190D01*
X114911785Y-76476190D01*
X116578452Y-77047619D02*
X116483214Y-77000000D01*
X116387976Y-76904761D01*
X116245119Y-76761904D01*
X116149880Y-76714285D01*
X116054642Y-76714285D01*
X116102261Y-76952380D02*
X116007023Y-76904761D01*
X115911785Y-76809523D01*
X115864166Y-76619047D01*
X115864166Y-76285714D01*
X115911785Y-76095238D01*
X116007023Y-76000000D01*
X116102261Y-75952380D01*
X116292738Y-75952380D01*
X116387976Y-76000000D01*
X116483214Y-76095238D01*
X116530833Y-76285714D01*
X116530833Y-76619047D01*
X116483214Y-76809523D01*
X116387976Y-76904761D01*
X116292738Y-76952380D01*
X116102261Y-76952380D01*
X114911785Y-50552380D02*
X114435595Y-50552380D01*
X114387976Y-51028571D01*
X114435595Y-50980952D01*
X114530833Y-50933333D01*
X114768928Y-50933333D01*
X114864166Y-50980952D01*
X114911785Y-51028571D01*
X114959404Y-51123809D01*
X114959404Y-51361904D01*
X114911785Y-51457142D01*
X114864166Y-51504761D01*
X114768928Y-51552380D01*
X114530833Y-51552380D01*
X114435595Y-51504761D01*
X114387976Y-51457142D01*
X115245119Y-50552380D02*
X115578452Y-51552380D01*
X115911785Y-50552380D01*
X114292738Y-53152380D02*
X114626071Y-54152380D01*
X114959404Y-53152380D01*
X115864166Y-54057142D02*
X115816547Y-54104761D01*
X115673690Y-54152380D01*
X115578452Y-54152380D01*
X115435595Y-54104761D01*
X115340357Y-54009523D01*
X115292738Y-53914285D01*
X115245119Y-53723809D01*
X115245119Y-53580952D01*
X115292738Y-53390476D01*
X115340357Y-53295238D01*
X115435595Y-53200000D01*
X115578452Y-53152380D01*
X115673690Y-53152380D01*
X115816547Y-53200000D01*
X115864166Y-53247619D01*
X116864166Y-54057142D02*
X116816547Y-54104761D01*
X116673690Y-54152380D01*
X116578452Y-54152380D01*
X116435595Y-54104761D01*
X116340357Y-54009523D01*
X116292738Y-53914285D01*
X116245119Y-53723809D01*
X116245119Y-53580952D01*
X116292738Y-53390476D01*
X116340357Y-53295238D01*
X116435595Y-53200000D01*
X116578452Y-53152380D01*
X116673690Y-53152380D01*
X116816547Y-53200000D01*
X116864166Y-53247619D01*
X114959404Y-55700000D02*
X114864166Y-55652380D01*
X114721309Y-55652380D01*
X114578452Y-55700000D01*
X114483214Y-55795238D01*
X114435595Y-55890476D01*
X114387976Y-56080952D01*
X114387976Y-56223809D01*
X114435595Y-56414285D01*
X114483214Y-56509523D01*
X114578452Y-56604761D01*
X114721309Y-56652380D01*
X114816547Y-56652380D01*
X114959404Y-56604761D01*
X115007023Y-56557142D01*
X115007023Y-56223809D01*
X114816547Y-56223809D01*
X115435595Y-56652380D02*
X115435595Y-55652380D01*
X116007023Y-56652380D01*
X116007023Y-55652380D01*
X116483214Y-56652380D02*
X116483214Y-55652380D01*
X116721309Y-55652380D01*
X116864166Y-55700000D01*
X116959404Y-55795238D01*
X117007023Y-55890476D01*
X117054642Y-56080952D01*
X117054642Y-56223809D01*
X117007023Y-56414285D01*
X116959404Y-56509523D01*
X116864166Y-56604761D01*
X116721309Y-56652380D01*
X116483214Y-56652380D01*
X114387976Y-59204761D02*
X114530833Y-59252380D01*
X114768928Y-59252380D01*
X114864166Y-59204761D01*
X114911785Y-59157142D01*
X114959404Y-59061904D01*
X114959404Y-58966666D01*
X114911785Y-58871428D01*
X114864166Y-58823809D01*
X114768928Y-58776190D01*
X114578452Y-58728571D01*
X114483214Y-58680952D01*
X114435595Y-58633333D01*
X114387976Y-58538095D01*
X114387976Y-58442857D01*
X114435595Y-58347619D01*
X114483214Y-58300000D01*
X114578452Y-58252380D01*
X114816547Y-58252380D01*
X114959404Y-58300000D01*
X115959404Y-59157142D02*
X115911785Y-59204761D01*
X115768928Y-59252380D01*
X115673690Y-59252380D01*
X115530833Y-59204761D01*
X115435595Y-59109523D01*
X115387976Y-59014285D01*
X115340357Y-58823809D01*
X115340357Y-58680952D01*
X115387976Y-58490476D01*
X115435595Y-58395238D01*
X115530833Y-58300000D01*
X115673690Y-58252380D01*
X115768928Y-58252380D01*
X115911785Y-58300000D01*
X115959404Y-58347619D01*
X116387976Y-59252380D02*
X116387976Y-58252380D01*
X116959404Y-59252380D02*
X116530833Y-58680952D01*
X116959404Y-58252380D02*
X116387976Y-58823809D01*
X114387976Y-61604761D02*
X114530833Y-61652380D01*
X114768928Y-61652380D01*
X114864166Y-61604761D01*
X114911785Y-61557142D01*
X114959404Y-61461904D01*
X114959404Y-61366666D01*
X114911785Y-61271428D01*
X114864166Y-61223809D01*
X114768928Y-61176190D01*
X114578452Y-61128571D01*
X114483214Y-61080952D01*
X114435595Y-61033333D01*
X114387976Y-60938095D01*
X114387976Y-60842857D01*
X114435595Y-60747619D01*
X114483214Y-60700000D01*
X114578452Y-60652380D01*
X114816547Y-60652380D01*
X114959404Y-60700000D01*
X115387976Y-61652380D02*
X115387976Y-60652380D01*
X115626071Y-60652380D01*
X115768928Y-60700000D01*
X115864166Y-60795238D01*
X115911785Y-60890476D01*
X115959404Y-61080952D01*
X115959404Y-61223809D01*
X115911785Y-61414285D01*
X115864166Y-61509523D01*
X115768928Y-61604761D01*
X115626071Y-61652380D01*
X115387976Y-61652380D01*
X116578452Y-60652380D02*
X116768928Y-60652380D01*
X116864166Y-60700000D01*
X116959404Y-60795238D01*
X117007023Y-60985714D01*
X117007023Y-61319047D01*
X116959404Y-61509523D01*
X116864166Y-61604761D01*
X116768928Y-61652380D01*
X116578452Y-61652380D01*
X116483214Y-61604761D01*
X116387976Y-61509523D01*
X116340357Y-61319047D01*
X116340357Y-60985714D01*
X116387976Y-60795238D01*
X116483214Y-60700000D01*
X116578452Y-60652380D01*
X114387976Y-64304761D02*
X114530833Y-64352380D01*
X114768928Y-64352380D01*
X114864166Y-64304761D01*
X114911785Y-64257142D01*
X114959404Y-64161904D01*
X114959404Y-64066666D01*
X114911785Y-63971428D01*
X114864166Y-63923809D01*
X114768928Y-63876190D01*
X114578452Y-63828571D01*
X114483214Y-63780952D01*
X114435595Y-63733333D01*
X114387976Y-63638095D01*
X114387976Y-63542857D01*
X114435595Y-63447619D01*
X114483214Y-63400000D01*
X114578452Y-63352380D01*
X114816547Y-63352380D01*
X114959404Y-63400000D01*
X115387976Y-64352380D02*
X115387976Y-63352380D01*
X115626071Y-63352380D01*
X115768928Y-63400000D01*
X115864166Y-63495238D01*
X115911785Y-63590476D01*
X115959404Y-63780952D01*
X115959404Y-63923809D01*
X115911785Y-64114285D01*
X115864166Y-64209523D01*
X115768928Y-64304761D01*
X115626071Y-64352380D01*
X115387976Y-64352380D01*
X116387976Y-64352380D02*
X116387976Y-63352380D01*
X115007023Y-66757142D02*
X114959404Y-66804761D01*
X114816547Y-66852380D01*
X114721309Y-66852380D01*
X114578452Y-66804761D01*
X114483214Y-66709523D01*
X114435595Y-66614285D01*
X114387976Y-66423809D01*
X114387976Y-66280952D01*
X114435595Y-66090476D01*
X114483214Y-65995238D01*
X114578452Y-65900000D01*
X114721309Y-65852380D01*
X114816547Y-65852380D01*
X114959404Y-65900000D01*
X115007023Y-65947619D01*
X115387976Y-66804761D02*
X115530833Y-66852380D01*
X115768928Y-66852380D01*
X115864166Y-66804761D01*
X115911785Y-66757142D01*
X115959404Y-66661904D01*
X115959404Y-66566666D01*
X115911785Y-66471428D01*
X115864166Y-66423809D01*
X115768928Y-66376190D01*
X115578452Y-66328571D01*
X115483214Y-66280952D01*
X115435595Y-66233333D01*
X115387976Y-66138095D01*
X115387976Y-66042857D01*
X115435595Y-65947619D01*
X115483214Y-65900000D01*
X115578452Y-65852380D01*
X115816547Y-65852380D01*
X115959404Y-65900000D01*
X116911785Y-66852380D02*
X116340357Y-66852380D01*
X116626071Y-66852380D02*
X116626071Y-65852380D01*
X116530833Y-65995238D01*
X116435595Y-66090476D01*
X116340357Y-66138095D01*
X115007023Y-69157142D02*
X114959404Y-69204761D01*
X114816547Y-69252380D01*
X114721309Y-69252380D01*
X114578452Y-69204761D01*
X114483214Y-69109523D01*
X114435595Y-69014285D01*
X114387976Y-68823809D01*
X114387976Y-68680952D01*
X114435595Y-68490476D01*
X114483214Y-68395238D01*
X114578452Y-68300000D01*
X114721309Y-68252380D01*
X114816547Y-68252380D01*
X114959404Y-68300000D01*
X115007023Y-68347619D01*
X115387976Y-69204761D02*
X115530833Y-69252380D01*
X115768928Y-69252380D01*
X115864166Y-69204761D01*
X115911785Y-69157142D01*
X115959404Y-69061904D01*
X115959404Y-68966666D01*
X115911785Y-68871428D01*
X115864166Y-68823809D01*
X115768928Y-68776190D01*
X115578452Y-68728571D01*
X115483214Y-68680952D01*
X115435595Y-68633333D01*
X115387976Y-68538095D01*
X115387976Y-68442857D01*
X115435595Y-68347619D01*
X115483214Y-68300000D01*
X115578452Y-68252380D01*
X115816547Y-68252380D01*
X115959404Y-68300000D01*
X116340357Y-68347619D02*
X116387976Y-68300000D01*
X116483214Y-68252380D01*
X116721309Y-68252380D01*
X116816547Y-68300000D01*
X116864166Y-68347619D01*
X116911785Y-68442857D01*
X116911785Y-68538095D01*
X116864166Y-68680952D01*
X116292738Y-69252380D01*
X116911785Y-69252380D01*
X114435595Y-71852380D02*
X114435595Y-70852380D01*
X114673690Y-70852380D01*
X114816547Y-70900000D01*
X114911785Y-70995238D01*
X114959404Y-71090476D01*
X115007023Y-71280952D01*
X115007023Y-71423809D01*
X114959404Y-71614285D01*
X114911785Y-71709523D01*
X114816547Y-71804761D01*
X114673690Y-71852380D01*
X114435595Y-71852380D01*
X116007023Y-71757142D02*
X115959404Y-71804761D01*
X115816547Y-71852380D01*
X115721309Y-71852380D01*
X115578452Y-71804761D01*
X115483214Y-71709523D01*
X115435595Y-71614285D01*
X115387976Y-71423809D01*
X115387976Y-71280952D01*
X115435595Y-71090476D01*
X115483214Y-70995238D01*
X115578452Y-70900000D01*
X115721309Y-70852380D01*
X115816547Y-70852380D01*
X115959404Y-70900000D01*
X116007023Y-70947619D01*
X114387976Y-74166666D02*
X114864166Y-74166666D01*
X114292738Y-74452380D02*
X114626071Y-73452380D01*
X114959404Y-74452380D01*
X115292738Y-73452380D02*
X115292738Y-74261904D01*
X115340357Y-74357142D01*
X115387976Y-74404761D01*
X115483214Y-74452380D01*
X115673690Y-74452380D01*
X115768928Y-74404761D01*
X115816547Y-74357142D01*
X115864166Y-74261904D01*
X115864166Y-73452380D01*
X116340357Y-74452380D02*
X116340357Y-73452380D01*
X116578452Y-73452380D01*
X116721309Y-73500000D01*
X116816547Y-73595238D01*
X116864166Y-73690476D01*
X116911785Y-73880952D01*
X116911785Y-74023809D01*
X116864166Y-74214285D01*
X116816547Y-74309523D01*
X116721309Y-74404761D01*
X116578452Y-74452380D01*
X116340357Y-74452380D01*
X117340357Y-74452380D02*
X117340357Y-73452380D01*
X118007023Y-73452380D02*
X118197500Y-73452380D01*
X118292738Y-73500000D01*
X118387976Y-73595238D01*
X118435595Y-73785714D01*
X118435595Y-74119047D01*
X118387976Y-74309523D01*
X118292738Y-74404761D01*
X118197500Y-74452380D01*
X118007023Y-74452380D01*
X117911785Y-74404761D01*
X117816547Y-74309523D01*
X117768928Y-74119047D01*
X117768928Y-73785714D01*
X117816547Y-73595238D01*
X117911785Y-73500000D01*
X118007023Y-73452380D01*
D11*
%TO.C,C1*%
X124737221Y-66310000D02*
X125062779Y-66310000D01*
X124737221Y-65290000D02*
X125062779Y-65290000D01*
%TO.C,C2*%
X120562779Y-65290000D02*
X120237221Y-65290000D01*
X120562779Y-66310000D02*
X120237221Y-66310000D01*
%TO.C,C3*%
X120962779Y-50810000D02*
X120637221Y-50810000D01*
X120962779Y-49790000D02*
X120637221Y-49790000D01*
%TO.C,C4*%
X120962779Y-54990000D02*
X120637221Y-54990000D01*
X120962779Y-56010000D02*
X120637221Y-56010000D01*
%TO.C,C5*%
X127562779Y-50810000D02*
X127237221Y-50810000D01*
X127562779Y-49790000D02*
X127237221Y-49790000D01*
%TO.C,C6*%
X127562779Y-54990000D02*
X127237221Y-54990000D01*
X127562779Y-56010000D02*
X127237221Y-56010000D01*
%TO.C,C7*%
X137437221Y-50890000D02*
X137762779Y-50890000D01*
X137437221Y-51910000D02*
X137762779Y-51910000D01*
%TO.C,C8*%
X139010000Y-53637221D02*
X139010000Y-53962779D01*
X137990000Y-53637221D02*
X137990000Y-53962779D01*
%TO.C,C9*%
X130010000Y-59562779D02*
X130010000Y-59237221D01*
X128990000Y-59562779D02*
X128990000Y-59237221D01*
%TO.C,C10*%
X123362779Y-70810000D02*
X123037221Y-70810000D01*
X123362779Y-69790000D02*
X123037221Y-69790000D01*
%TO.C,C11*%
X126404478Y-75049273D02*
X126174273Y-75279478D01*
X127125727Y-75770522D02*
X126895522Y-76000727D01*
%TO.C,C12*%
X127504478Y-76149273D02*
X127274273Y-76379478D01*
X128225727Y-76870522D02*
X127995522Y-77100727D01*
%TO.C,C13*%
X129325727Y-77970522D02*
X129095522Y-78200727D01*
X128604478Y-77249273D02*
X128374273Y-77479478D01*
%TO.C,C14*%
X141262779Y-79590000D02*
X140937221Y-79590000D01*
X141262779Y-80610000D02*
X140937221Y-80610000D01*
%TO.C,C15*%
X141262779Y-82210000D02*
X140937221Y-82210000D01*
X141262779Y-81190000D02*
X140937221Y-81190000D01*
%TO.C,L1*%
X134062779Y-49790000D02*
X133737221Y-49790000D01*
X134062779Y-50810000D02*
X133737221Y-50810000D01*
%TO.C,R1*%
X137310000Y-53637221D02*
X137310000Y-53962779D01*
X136290000Y-53637221D02*
X136290000Y-53962779D01*
%TO.C,R2*%
X133662779Y-55290000D02*
X133337221Y-55290000D01*
X133662779Y-56310000D02*
X133337221Y-56310000D01*
%TO.C,R3*%
X123362779Y-68190000D02*
X123037221Y-68190000D01*
X123362779Y-69210000D02*
X123037221Y-69210000D01*
%TO.C,R4*%
X140610000Y-51987221D02*
X140610000Y-52312779D01*
X139590000Y-51987221D02*
X139590000Y-52312779D01*
%TO.C,R5*%
X135262779Y-79590000D02*
X134937221Y-79590000D01*
X135262779Y-80610000D02*
X134937221Y-80610000D01*
%TO.C,U1*%
X122600000Y-64685000D02*
X126200000Y-64685000D01*
X122600000Y-64685000D02*
X120400000Y-64685000D01*
X122600000Y-57915000D02*
X124800000Y-57915000D01*
X122600000Y-57915000D02*
X120400000Y-57915000D01*
%TO.C,U2*%
X122380000Y-52140000D02*
X121450000Y-52140000D01*
X119220000Y-52140000D02*
X120150000Y-52140000D01*
X119220000Y-52140000D02*
X119220000Y-54300000D01*
X122380000Y-52140000D02*
X122380000Y-53600000D01*
%TO.C,U3*%
X128980000Y-52140000D02*
X128980000Y-53600000D01*
X125820000Y-52140000D02*
X125820000Y-54300000D01*
X125820000Y-52140000D02*
X126750000Y-52140000D01*
X128980000Y-52140000D02*
X128050000Y-52140000D01*
%TO.C,U4*%
X134800000Y-51390000D02*
X132350000Y-51390000D01*
X133000000Y-54610000D02*
X134800000Y-54610000D01*
%TO.C,X1*%
X120797918Y-74329290D02*
X123626345Y-77157717D01*
X123131371Y-71995837D02*
X120797918Y-74329290D01*
%TO.C,TP1*%
X140500000Y-55350000D02*
G75*
G03*
X140500000Y-55350000I-350000J0D01*
G01*
%TO.C,TP3*%
X127550000Y-57000000D02*
G75*
G03*
X127550000Y-57000000I-350000J0D01*
G01*
%TO.C,TP5*%
X121150000Y-57000000D02*
G75*
G03*
X121150000Y-57000000I-350000J0D01*
G01*
%TO.C,TP2*%
X119800000Y-79500000D02*
X121200000Y-79500000D01*
X121200000Y-79500000D02*
X121200000Y-80900000D01*
X121200000Y-80900000D02*
X119800000Y-80900000D01*
X119800000Y-80900000D02*
X119800000Y-79500000D01*
%TO.C,TP4*%
X141400000Y-50400000D02*
X141400000Y-49000000D01*
X142800000Y-50400000D02*
X141400000Y-50400000D01*
X142800000Y-49000000D02*
X142800000Y-50400000D01*
X141400000Y-49000000D02*
X142800000Y-49000000D01*
%TO.C,TP6*%
X139850000Y-77700000D02*
G75*
G03*
X139850000Y-77700000I-350000J0D01*
G01*
%TO.C,TP8*%
X135675000Y-60375000D02*
G75*
G03*
X135675000Y-60375000I-350000J0D01*
G01*
%TO.C,TP10*%
X128800000Y-83225000D02*
G75*
G03*
X128800000Y-83225000I-350000J0D01*
G01*
%TO.C,TP12*%
X131250000Y-83200000D02*
G75*
G03*
X131250000Y-83200000I-350000J0D01*
G01*
%TO.C,TP14*%
X140350000Y-78700000D02*
G75*
G03*
X140350000Y-78700000I-350000J0D01*
G01*
%TO.C,TP16*%
X142050000Y-78200000D02*
G75*
G03*
X142050000Y-78200000I-350000J0D01*
G01*
%TO.C,TP7*%
X142250000Y-61200000D02*
G75*
G03*
X142250000Y-61200000I-350000J0D01*
G01*
%TO.C,TP9*%
X142250000Y-59000000D02*
G75*
G03*
X142250000Y-59000000I-350000J0D01*
G01*
%TO.C,TP11*%
X142250000Y-57900000D02*
G75*
G03*
X142250000Y-57900000I-350000J0D01*
G01*
%TO.C,TP13*%
X142250000Y-60100000D02*
G75*
G03*
X142250000Y-60100000I-350000J0D01*
G01*
%TO.C,J1*%
X110870000Y-82910000D02*
X113530000Y-82910000D01*
X110870000Y-52370000D02*
X110870000Y-82910000D01*
X113530000Y-52370000D02*
X113530000Y-82910000D01*
X110870000Y-52370000D02*
X113530000Y-52370000D01*
X110870000Y-51100000D02*
X110870000Y-49770000D01*
X110870000Y-49770000D02*
X112200000Y-49770000D01*
%TO.C,U5*%
X133250000Y-57815000D02*
X131450000Y-57815000D01*
X131450000Y-61035000D02*
X133900000Y-61035000D01*
%TO.C,U6*%
X133335876Y-65323458D02*
X133000000Y-64987582D01*
X133000000Y-76612418D02*
X133335876Y-76276542D01*
X132664124Y-76276542D02*
X133000000Y-76612418D01*
X127187582Y-70800000D02*
X127523458Y-70464124D01*
X127523458Y-71135876D02*
X127187582Y-70800000D01*
X138812418Y-70800000D02*
X138476542Y-71135876D01*
X138476542Y-70464124D02*
X138812418Y-70800000D01*
D12*
%TO.C,U7*%
X152700000Y-83825000D02*
X152700000Y-48925000D01*
X149850000Y-48925000D02*
X146200000Y-48925000D01*
X146200000Y-48925000D02*
X146200000Y-51125000D01*
X149850000Y-83825000D02*
X146200000Y-83825000D01*
X146200000Y-83825000D02*
X146200000Y-81625000D01*
D13*
X145200000Y-82125000D02*
G75*
G03*
X145200000Y-82125000I-100000J0D01*
G01*
D11*
%TO.C,RES_D*%
X135100000Y-81900000D02*
G75*
G03*
X135100000Y-81900000I-350000J0D01*
G01*
%TO.C,RES_C*%
X126550000Y-68725000D02*
G75*
G03*
X126550000Y-68725000I-350000J0D01*
G01*
%TO.C,IRQ*%
X127725000Y-66725000D02*
G75*
G03*
X127725000Y-66725000I-350000J0D01*
G01*
%TO.C,C1*%
D10*
X124766666Y-67585714D02*
X124728571Y-67623809D01*
X124614285Y-67661904D01*
X124538095Y-67661904D01*
X124423809Y-67623809D01*
X124347619Y-67547619D01*
X124309523Y-67471428D01*
X124271428Y-67319047D01*
X124271428Y-67204761D01*
X124309523Y-67052380D01*
X124347619Y-66976190D01*
X124423809Y-66900000D01*
X124538095Y-66861904D01*
X124614285Y-66861904D01*
X124728571Y-66900000D01*
X124766666Y-66938095D01*
X125528571Y-67661904D02*
X125071428Y-67661904D01*
X125300000Y-67661904D02*
X125300000Y-66861904D01*
X125223809Y-66976190D01*
X125147619Y-67052380D01*
X125071428Y-67090476D01*
%TO.C,C2*%
X120266666Y-67515714D02*
X120228571Y-67553809D01*
X120114285Y-67591904D01*
X120038095Y-67591904D01*
X119923809Y-67553809D01*
X119847619Y-67477619D01*
X119809523Y-67401428D01*
X119771428Y-67249047D01*
X119771428Y-67134761D01*
X119809523Y-66982380D01*
X119847619Y-66906190D01*
X119923809Y-66830000D01*
X120038095Y-66791904D01*
X120114285Y-66791904D01*
X120228571Y-66830000D01*
X120266666Y-66868095D01*
X120571428Y-66868095D02*
X120609523Y-66830000D01*
X120685714Y-66791904D01*
X120876190Y-66791904D01*
X120952380Y-66830000D01*
X120990476Y-66868095D01*
X121028571Y-66944285D01*
X121028571Y-67020476D01*
X120990476Y-67134761D01*
X120533333Y-67591904D01*
X121028571Y-67591904D01*
%TO.C,C3*%
X120666666Y-49185714D02*
X120628571Y-49223809D01*
X120514285Y-49261904D01*
X120438095Y-49261904D01*
X120323809Y-49223809D01*
X120247619Y-49147619D01*
X120209523Y-49071428D01*
X120171428Y-48919047D01*
X120171428Y-48804761D01*
X120209523Y-48652380D01*
X120247619Y-48576190D01*
X120323809Y-48500000D01*
X120438095Y-48461904D01*
X120514285Y-48461904D01*
X120628571Y-48500000D01*
X120666666Y-48538095D01*
X120933333Y-48461904D02*
X121428571Y-48461904D01*
X121161904Y-48766666D01*
X121276190Y-48766666D01*
X121352380Y-48804761D01*
X121390476Y-48842857D01*
X121428571Y-48919047D01*
X121428571Y-49109523D01*
X121390476Y-49185714D01*
X121352380Y-49223809D01*
X121276190Y-49261904D01*
X121047619Y-49261904D01*
X120971428Y-49223809D01*
X120933333Y-49185714D01*
%TO.C,C4*%
X118266666Y-55785714D02*
X118228571Y-55823809D01*
X118114285Y-55861904D01*
X118038095Y-55861904D01*
X117923809Y-55823809D01*
X117847619Y-55747619D01*
X117809523Y-55671428D01*
X117771428Y-55519047D01*
X117771428Y-55404761D01*
X117809523Y-55252380D01*
X117847619Y-55176190D01*
X117923809Y-55100000D01*
X118038095Y-55061904D01*
X118114285Y-55061904D01*
X118228571Y-55100000D01*
X118266666Y-55138095D01*
X118952380Y-55328571D02*
X118952380Y-55861904D01*
X118761904Y-55023809D02*
X118571428Y-55595238D01*
X119066666Y-55595238D01*
%TO.C,C5*%
X127366666Y-49185714D02*
X127328571Y-49223809D01*
X127214285Y-49261904D01*
X127138095Y-49261904D01*
X127023809Y-49223809D01*
X126947619Y-49147619D01*
X126909523Y-49071428D01*
X126871428Y-48919047D01*
X126871428Y-48804761D01*
X126909523Y-48652380D01*
X126947619Y-48576190D01*
X127023809Y-48500000D01*
X127138095Y-48461904D01*
X127214285Y-48461904D01*
X127328571Y-48500000D01*
X127366666Y-48538095D01*
X128090476Y-48461904D02*
X127709523Y-48461904D01*
X127671428Y-48842857D01*
X127709523Y-48804761D01*
X127785714Y-48766666D01*
X127976190Y-48766666D01*
X128052380Y-48804761D01*
X128090476Y-48842857D01*
X128128571Y-48919047D01*
X128128571Y-49109523D01*
X128090476Y-49185714D01*
X128052380Y-49223809D01*
X127976190Y-49261904D01*
X127785714Y-49261904D01*
X127709523Y-49223809D01*
X127671428Y-49185714D01*
%TO.C,C6*%
X124866666Y-55785714D02*
X124828571Y-55823809D01*
X124714285Y-55861904D01*
X124638095Y-55861904D01*
X124523809Y-55823809D01*
X124447619Y-55747619D01*
X124409523Y-55671428D01*
X124371428Y-55519047D01*
X124371428Y-55404761D01*
X124409523Y-55252380D01*
X124447619Y-55176190D01*
X124523809Y-55100000D01*
X124638095Y-55061904D01*
X124714285Y-55061904D01*
X124828571Y-55100000D01*
X124866666Y-55138095D01*
X125552380Y-55061904D02*
X125400000Y-55061904D01*
X125323809Y-55100000D01*
X125285714Y-55138095D01*
X125209523Y-55252380D01*
X125171428Y-55404761D01*
X125171428Y-55709523D01*
X125209523Y-55785714D01*
X125247619Y-55823809D01*
X125323809Y-55861904D01*
X125476190Y-55861904D01*
X125552380Y-55823809D01*
X125590476Y-55785714D01*
X125628571Y-55709523D01*
X125628571Y-55519047D01*
X125590476Y-55442857D01*
X125552380Y-55404761D01*
X125476190Y-55366666D01*
X125323809Y-55366666D01*
X125247619Y-55404761D01*
X125209523Y-55442857D01*
X125171428Y-55519047D01*
%TO.C,C7*%
X137366666Y-50385714D02*
X137328571Y-50423809D01*
X137214285Y-50461904D01*
X137138095Y-50461904D01*
X137023809Y-50423809D01*
X136947619Y-50347619D01*
X136909523Y-50271428D01*
X136871428Y-50119047D01*
X136871428Y-50004761D01*
X136909523Y-49852380D01*
X136947619Y-49776190D01*
X137023809Y-49700000D01*
X137138095Y-49661904D01*
X137214285Y-49661904D01*
X137328571Y-49700000D01*
X137366666Y-49738095D01*
X137633333Y-49661904D02*
X138166666Y-49661904D01*
X137823809Y-50461904D01*
%TO.C,C8*%
X138391666Y-56235714D02*
X138353571Y-56273809D01*
X138239285Y-56311904D01*
X138163095Y-56311904D01*
X138048809Y-56273809D01*
X137972619Y-56197619D01*
X137934523Y-56121428D01*
X137896428Y-55969047D01*
X137896428Y-55854761D01*
X137934523Y-55702380D01*
X137972619Y-55626190D01*
X138048809Y-55550000D01*
X138163095Y-55511904D01*
X138239285Y-55511904D01*
X138353571Y-55550000D01*
X138391666Y-55588095D01*
X138848809Y-55854761D02*
X138772619Y-55816666D01*
X138734523Y-55778571D01*
X138696428Y-55702380D01*
X138696428Y-55664285D01*
X138734523Y-55588095D01*
X138772619Y-55550000D01*
X138848809Y-55511904D01*
X139001190Y-55511904D01*
X139077380Y-55550000D01*
X139115476Y-55588095D01*
X139153571Y-55664285D01*
X139153571Y-55702380D01*
X139115476Y-55778571D01*
X139077380Y-55816666D01*
X139001190Y-55854761D01*
X138848809Y-55854761D01*
X138772619Y-55892857D01*
X138734523Y-55930952D01*
X138696428Y-56007142D01*
X138696428Y-56159523D01*
X138734523Y-56235714D01*
X138772619Y-56273809D01*
X138848809Y-56311904D01*
X139001190Y-56311904D01*
X139077380Y-56273809D01*
X139115476Y-56235714D01*
X139153571Y-56159523D01*
X139153571Y-56007142D01*
X139115476Y-55930952D01*
X139077380Y-55892857D01*
X139001190Y-55854761D01*
%TO.C,C9*%
X129366666Y-61885714D02*
X129328571Y-61923809D01*
X129214285Y-61961904D01*
X129138095Y-61961904D01*
X129023809Y-61923809D01*
X128947619Y-61847619D01*
X128909523Y-61771428D01*
X128871428Y-61619047D01*
X128871428Y-61504761D01*
X128909523Y-61352380D01*
X128947619Y-61276190D01*
X129023809Y-61200000D01*
X129138095Y-61161904D01*
X129214285Y-61161904D01*
X129328571Y-61200000D01*
X129366666Y-61238095D01*
X129747619Y-61961904D02*
X129900000Y-61961904D01*
X129976190Y-61923809D01*
X130014285Y-61885714D01*
X130090476Y-61771428D01*
X130128571Y-61619047D01*
X130128571Y-61314285D01*
X130090476Y-61238095D01*
X130052380Y-61200000D01*
X129976190Y-61161904D01*
X129823809Y-61161904D01*
X129747619Y-61200000D01*
X129709523Y-61238095D01*
X129671428Y-61314285D01*
X129671428Y-61504761D01*
X129709523Y-61580952D01*
X129747619Y-61619047D01*
X129823809Y-61657142D01*
X129976190Y-61657142D01*
X130052380Y-61619047D01*
X130090476Y-61580952D01*
X130128571Y-61504761D01*
%TO.C,C10*%
X119985714Y-70585714D02*
X119947619Y-70623809D01*
X119833333Y-70661904D01*
X119757142Y-70661904D01*
X119642857Y-70623809D01*
X119566666Y-70547619D01*
X119528571Y-70471428D01*
X119490476Y-70319047D01*
X119490476Y-70204761D01*
X119528571Y-70052380D01*
X119566666Y-69976190D01*
X119642857Y-69900000D01*
X119757142Y-69861904D01*
X119833333Y-69861904D01*
X119947619Y-69900000D01*
X119985714Y-69938095D01*
X120747619Y-70661904D02*
X120290476Y-70661904D01*
X120519047Y-70661904D02*
X120519047Y-69861904D01*
X120442857Y-69976190D01*
X120366666Y-70052380D01*
X120290476Y-70090476D01*
X121242857Y-69861904D02*
X121319047Y-69861904D01*
X121395238Y-69900000D01*
X121433333Y-69938095D01*
X121471428Y-70014285D01*
X121509523Y-70166666D01*
X121509523Y-70357142D01*
X121471428Y-70509523D01*
X121433333Y-70585714D01*
X121395238Y-70623809D01*
X121319047Y-70661904D01*
X121242857Y-70661904D01*
X121166666Y-70623809D01*
X121128571Y-70585714D01*
X121090476Y-70509523D01*
X121052380Y-70357142D01*
X121052380Y-70166666D01*
X121090476Y-70014285D01*
X121128571Y-69938095D01*
X121166666Y-69900000D01*
X121242857Y-69861904D01*
%TO.C,C11*%
X124035714Y-77310714D02*
X123997619Y-77348809D01*
X123883333Y-77386904D01*
X123807142Y-77386904D01*
X123692857Y-77348809D01*
X123616666Y-77272619D01*
X123578571Y-77196428D01*
X123540476Y-77044047D01*
X123540476Y-76929761D01*
X123578571Y-76777380D01*
X123616666Y-76701190D01*
X123692857Y-76625000D01*
X123807142Y-76586904D01*
X123883333Y-76586904D01*
X123997619Y-76625000D01*
X124035714Y-76663095D01*
X124797619Y-77386904D02*
X124340476Y-77386904D01*
X124569047Y-77386904D02*
X124569047Y-76586904D01*
X124492857Y-76701190D01*
X124416666Y-76777380D01*
X124340476Y-76815476D01*
X125559523Y-77386904D02*
X125102380Y-77386904D01*
X125330952Y-77386904D02*
X125330952Y-76586904D01*
X125254761Y-76701190D01*
X125178571Y-76777380D01*
X125102380Y-76815476D01*
%TO.C,C12*%
X125135714Y-78510714D02*
X125097619Y-78548809D01*
X124983333Y-78586904D01*
X124907142Y-78586904D01*
X124792857Y-78548809D01*
X124716666Y-78472619D01*
X124678571Y-78396428D01*
X124640476Y-78244047D01*
X124640476Y-78129761D01*
X124678571Y-77977380D01*
X124716666Y-77901190D01*
X124792857Y-77825000D01*
X124907142Y-77786904D01*
X124983333Y-77786904D01*
X125097619Y-77825000D01*
X125135714Y-77863095D01*
X125897619Y-78586904D02*
X125440476Y-78586904D01*
X125669047Y-78586904D02*
X125669047Y-77786904D01*
X125592857Y-77901190D01*
X125516666Y-77977380D01*
X125440476Y-78015476D01*
X126202380Y-77863095D02*
X126240476Y-77825000D01*
X126316666Y-77786904D01*
X126507142Y-77786904D01*
X126583333Y-77825000D01*
X126621428Y-77863095D01*
X126659523Y-77939285D01*
X126659523Y-78015476D01*
X126621428Y-78129761D01*
X126164285Y-78586904D01*
X126659523Y-78586904D01*
%TO.C,C13*%
X126235714Y-79710714D02*
X126197619Y-79748809D01*
X126083333Y-79786904D01*
X126007142Y-79786904D01*
X125892857Y-79748809D01*
X125816666Y-79672619D01*
X125778571Y-79596428D01*
X125740476Y-79444047D01*
X125740476Y-79329761D01*
X125778571Y-79177380D01*
X125816666Y-79101190D01*
X125892857Y-79025000D01*
X126007142Y-78986904D01*
X126083333Y-78986904D01*
X126197619Y-79025000D01*
X126235714Y-79063095D01*
X126997619Y-79786904D02*
X126540476Y-79786904D01*
X126769047Y-79786904D02*
X126769047Y-78986904D01*
X126692857Y-79101190D01*
X126616666Y-79177380D01*
X126540476Y-79215476D01*
X127264285Y-78986904D02*
X127759523Y-78986904D01*
X127492857Y-79291666D01*
X127607142Y-79291666D01*
X127683333Y-79329761D01*
X127721428Y-79367857D01*
X127759523Y-79444047D01*
X127759523Y-79634523D01*
X127721428Y-79710714D01*
X127683333Y-79748809D01*
X127607142Y-79786904D01*
X127378571Y-79786904D01*
X127302380Y-79748809D01*
X127264285Y-79710714D01*
%TO.C,C14*%
X137885714Y-80485714D02*
X137847619Y-80523809D01*
X137733333Y-80561904D01*
X137657142Y-80561904D01*
X137542857Y-80523809D01*
X137466666Y-80447619D01*
X137428571Y-80371428D01*
X137390476Y-80219047D01*
X137390476Y-80104761D01*
X137428571Y-79952380D01*
X137466666Y-79876190D01*
X137542857Y-79800000D01*
X137657142Y-79761904D01*
X137733333Y-79761904D01*
X137847619Y-79800000D01*
X137885714Y-79838095D01*
X138647619Y-80561904D02*
X138190476Y-80561904D01*
X138419047Y-80561904D02*
X138419047Y-79761904D01*
X138342857Y-79876190D01*
X138266666Y-79952380D01*
X138190476Y-79990476D01*
X139333333Y-80028571D02*
X139333333Y-80561904D01*
X139142857Y-79723809D02*
X138952380Y-80295238D01*
X139447619Y-80295238D01*
%TO.C,C15*%
X137885714Y-82085714D02*
X137847619Y-82123809D01*
X137733333Y-82161904D01*
X137657142Y-82161904D01*
X137542857Y-82123809D01*
X137466666Y-82047619D01*
X137428571Y-81971428D01*
X137390476Y-81819047D01*
X137390476Y-81704761D01*
X137428571Y-81552380D01*
X137466666Y-81476190D01*
X137542857Y-81400000D01*
X137657142Y-81361904D01*
X137733333Y-81361904D01*
X137847619Y-81400000D01*
X137885714Y-81438095D01*
X138647619Y-82161904D02*
X138190476Y-82161904D01*
X138419047Y-82161904D02*
X138419047Y-81361904D01*
X138342857Y-81476190D01*
X138266666Y-81552380D01*
X138190476Y-81590476D01*
X139371428Y-81361904D02*
X138990476Y-81361904D01*
X138952380Y-81742857D01*
X138990476Y-81704761D01*
X139066666Y-81666666D01*
X139257142Y-81666666D01*
X139333333Y-81704761D01*
X139371428Y-81742857D01*
X139409523Y-81819047D01*
X139409523Y-82009523D01*
X139371428Y-82085714D01*
X139333333Y-82123809D01*
X139257142Y-82161904D01*
X139066666Y-82161904D01*
X138990476Y-82123809D01*
X138952380Y-82085714D01*
%TO.C,L1*%
X132866666Y-49361904D02*
X132485714Y-49361904D01*
X132485714Y-48561904D01*
X133552380Y-49361904D02*
X133095238Y-49361904D01*
X133323809Y-49361904D02*
X133323809Y-48561904D01*
X133247619Y-48676190D01*
X133171428Y-48752380D01*
X133095238Y-48790476D01*
%TO.C,R1*%
X136741666Y-56286904D02*
X136475000Y-55905952D01*
X136284523Y-56286904D02*
X136284523Y-55486904D01*
X136589285Y-55486904D01*
X136665476Y-55525000D01*
X136703571Y-55563095D01*
X136741666Y-55639285D01*
X136741666Y-55753571D01*
X136703571Y-55829761D01*
X136665476Y-55867857D01*
X136589285Y-55905952D01*
X136284523Y-55905952D01*
X137503571Y-56286904D02*
X137046428Y-56286904D01*
X137275000Y-56286904D02*
X137275000Y-55486904D01*
X137198809Y-55601190D01*
X137122619Y-55677380D01*
X137046428Y-55715476D01*
%TO.C,R2*%
X134116666Y-57486904D02*
X133850000Y-57105952D01*
X133659523Y-57486904D02*
X133659523Y-56686904D01*
X133964285Y-56686904D01*
X134040476Y-56725000D01*
X134078571Y-56763095D01*
X134116666Y-56839285D01*
X134116666Y-56953571D01*
X134078571Y-57029761D01*
X134040476Y-57067857D01*
X133964285Y-57105952D01*
X133659523Y-57105952D01*
X134421428Y-56763095D02*
X134459523Y-56725000D01*
X134535714Y-56686904D01*
X134726190Y-56686904D01*
X134802380Y-56725000D01*
X134840476Y-56763095D01*
X134878571Y-56839285D01*
X134878571Y-56915476D01*
X134840476Y-57029761D01*
X134383333Y-57486904D01*
X134878571Y-57486904D01*
%TO.C,R3*%
X120566666Y-69161904D02*
X120300000Y-68780952D01*
X120109523Y-69161904D02*
X120109523Y-68361904D01*
X120414285Y-68361904D01*
X120490476Y-68400000D01*
X120528571Y-68438095D01*
X120566666Y-68514285D01*
X120566666Y-68628571D01*
X120528571Y-68704761D01*
X120490476Y-68742857D01*
X120414285Y-68780952D01*
X120109523Y-68780952D01*
X120833333Y-68361904D02*
X121328571Y-68361904D01*
X121061904Y-68666666D01*
X121176190Y-68666666D01*
X121252380Y-68704761D01*
X121290476Y-68742857D01*
X121328571Y-68819047D01*
X121328571Y-69009523D01*
X121290476Y-69085714D01*
X121252380Y-69123809D01*
X121176190Y-69161904D01*
X120947619Y-69161904D01*
X120871428Y-69123809D01*
X120833333Y-69085714D01*
%TO.C,R4*%
X140016666Y-54636904D02*
X139750000Y-54255952D01*
X139559523Y-54636904D02*
X139559523Y-53836904D01*
X139864285Y-53836904D01*
X139940476Y-53875000D01*
X139978571Y-53913095D01*
X140016666Y-53989285D01*
X140016666Y-54103571D01*
X139978571Y-54179761D01*
X139940476Y-54217857D01*
X139864285Y-54255952D01*
X139559523Y-54255952D01*
X140702380Y-54103571D02*
X140702380Y-54636904D01*
X140511904Y-53798809D02*
X140321428Y-54370238D01*
X140816666Y-54370238D01*
%TO.C,R5*%
X132666666Y-80461904D02*
X132400000Y-80080952D01*
X132209523Y-80461904D02*
X132209523Y-79661904D01*
X132514285Y-79661904D01*
X132590476Y-79700000D01*
X132628571Y-79738095D01*
X132666666Y-79814285D01*
X132666666Y-79928571D01*
X132628571Y-80004761D01*
X132590476Y-80042857D01*
X132514285Y-80080952D01*
X132209523Y-80080952D01*
X133390476Y-79661904D02*
X133009523Y-79661904D01*
X132971428Y-80042857D01*
X133009523Y-80004761D01*
X133085714Y-79966666D01*
X133276190Y-79966666D01*
X133352380Y-80004761D01*
X133390476Y-80042857D01*
X133428571Y-80119047D01*
X133428571Y-80309523D01*
X133390476Y-80385714D01*
X133352380Y-80423809D01*
X133276190Y-80461904D01*
X133085714Y-80461904D01*
X133009523Y-80423809D01*
X132971428Y-80385714D01*
%TO.C,U1*%
X121990476Y-56761904D02*
X121990476Y-57409523D01*
X122028571Y-57485714D01*
X122066666Y-57523809D01*
X122142857Y-57561904D01*
X122295238Y-57561904D01*
X122371428Y-57523809D01*
X122409523Y-57485714D01*
X122447619Y-57409523D01*
X122447619Y-56761904D01*
X123247619Y-57561904D02*
X122790476Y-57561904D01*
X123019047Y-57561904D02*
X123019047Y-56761904D01*
X122942857Y-56876190D01*
X122866666Y-56952380D01*
X122790476Y-56990476D01*
%TO.C,U2*%
X117490476Y-51361904D02*
X117490476Y-52009523D01*
X117528571Y-52085714D01*
X117566666Y-52123809D01*
X117642857Y-52161904D01*
X117795238Y-52161904D01*
X117871428Y-52123809D01*
X117909523Y-52085714D01*
X117947619Y-52009523D01*
X117947619Y-51361904D01*
X118290476Y-51438095D02*
X118328571Y-51400000D01*
X118404761Y-51361904D01*
X118595238Y-51361904D01*
X118671428Y-51400000D01*
X118709523Y-51438095D01*
X118747619Y-51514285D01*
X118747619Y-51590476D01*
X118709523Y-51704761D01*
X118252380Y-52161904D01*
X118747619Y-52161904D01*
%TO.C,U3*%
X124090476Y-51361904D02*
X124090476Y-52009523D01*
X124128571Y-52085714D01*
X124166666Y-52123809D01*
X124242857Y-52161904D01*
X124395238Y-52161904D01*
X124471428Y-52123809D01*
X124509523Y-52085714D01*
X124547619Y-52009523D01*
X124547619Y-51361904D01*
X124852380Y-51361904D02*
X125347619Y-51361904D01*
X125080952Y-51666666D01*
X125195238Y-51666666D01*
X125271428Y-51704761D01*
X125309523Y-51742857D01*
X125347619Y-51819047D01*
X125347619Y-52009523D01*
X125309523Y-52085714D01*
X125271428Y-52123809D01*
X125195238Y-52161904D01*
X124966666Y-52161904D01*
X124890476Y-52123809D01*
X124852380Y-52085714D01*
%TO.C,U4*%
X130690476Y-50061904D02*
X130690476Y-50709523D01*
X130728571Y-50785714D01*
X130766666Y-50823809D01*
X130842857Y-50861904D01*
X130995238Y-50861904D01*
X131071428Y-50823809D01*
X131109523Y-50785714D01*
X131147619Y-50709523D01*
X131147619Y-50061904D01*
X131871428Y-50328571D02*
X131871428Y-50861904D01*
X131680952Y-50023809D02*
X131490476Y-50595238D01*
X131985714Y-50595238D01*
%TO.C,X1*%
X120952380Y-75861904D02*
X121485714Y-76661904D01*
X121485714Y-75861904D02*
X120952380Y-76661904D01*
X122209523Y-76661904D02*
X121752380Y-76661904D01*
X121980952Y-76661904D02*
X121980952Y-75861904D01*
X121904761Y-75976190D01*
X121828571Y-76052380D01*
X121752380Y-76090476D01*
%TO.C,U5*%
X130590476Y-56611904D02*
X130590476Y-57259523D01*
X130628571Y-57335714D01*
X130666666Y-57373809D01*
X130742857Y-57411904D01*
X130895238Y-57411904D01*
X130971428Y-57373809D01*
X131009523Y-57335714D01*
X131047619Y-57259523D01*
X131047619Y-56611904D01*
X131809523Y-56611904D02*
X131428571Y-56611904D01*
X131390476Y-56992857D01*
X131428571Y-56954761D01*
X131504761Y-56916666D01*
X131695238Y-56916666D01*
X131771428Y-56954761D01*
X131809523Y-56992857D01*
X131847619Y-57069047D01*
X131847619Y-57259523D01*
X131809523Y-57335714D01*
X131771428Y-57373809D01*
X131695238Y-57411904D01*
X131504761Y-57411904D01*
X131428571Y-57373809D01*
X131390476Y-57335714D01*
%TO.C,U6*%
X132390476Y-63311904D02*
X132390476Y-63959523D01*
X132428571Y-64035714D01*
X132466666Y-64073809D01*
X132542857Y-64111904D01*
X132695238Y-64111904D01*
X132771428Y-64073809D01*
X132809523Y-64035714D01*
X132847619Y-63959523D01*
X132847619Y-63311904D01*
X133571428Y-63311904D02*
X133419047Y-63311904D01*
X133342857Y-63350000D01*
X133304761Y-63388095D01*
X133228571Y-63502380D01*
X133190476Y-63654761D01*
X133190476Y-63959523D01*
X133228571Y-64035714D01*
X133266666Y-64073809D01*
X133342857Y-64111904D01*
X133495238Y-64111904D01*
X133571428Y-64073809D01*
X133609523Y-64035714D01*
X133647619Y-63959523D01*
X133647619Y-63769047D01*
X133609523Y-63692857D01*
X133571428Y-63654761D01*
X133495238Y-63616666D01*
X133342857Y-63616666D01*
X133266666Y-63654761D01*
X133228571Y-63692857D01*
X133190476Y-63769047D01*
%TO.C,RES_D*%
X134275000Y-83611904D02*
X134008333Y-83230952D01*
X133817857Y-83611904D02*
X133817857Y-82811904D01*
X134122619Y-82811904D01*
X134198809Y-82850000D01*
X134236904Y-82888095D01*
X134275000Y-82964285D01*
X134275000Y-83078571D01*
X134236904Y-83154761D01*
X134198809Y-83192857D01*
X134122619Y-83230952D01*
X133817857Y-83230952D01*
X134617857Y-83192857D02*
X134884523Y-83192857D01*
X134998809Y-83611904D02*
X134617857Y-83611904D01*
X134617857Y-82811904D01*
X134998809Y-82811904D01*
X135303571Y-83573809D02*
X135417857Y-83611904D01*
X135608333Y-83611904D01*
X135684523Y-83573809D01*
X135722619Y-83535714D01*
X135760714Y-83459523D01*
X135760714Y-83383333D01*
X135722619Y-83307142D01*
X135684523Y-83269047D01*
X135608333Y-83230952D01*
X135455952Y-83192857D01*
X135379761Y-83154761D01*
X135341666Y-83116666D01*
X135303571Y-83040476D01*
X135303571Y-82964285D01*
X135341666Y-82888095D01*
X135379761Y-82850000D01*
X135455952Y-82811904D01*
X135646428Y-82811904D01*
X135760714Y-82850000D01*
X135913095Y-83688095D02*
X136522619Y-83688095D01*
X136713095Y-83611904D02*
X136713095Y-82811904D01*
X136903571Y-82811904D01*
X137017857Y-82850000D01*
X137094047Y-82926190D01*
X137132142Y-83002380D01*
X137170238Y-83154761D01*
X137170238Y-83269047D01*
X137132142Y-83421428D01*
X137094047Y-83497619D01*
X137017857Y-83573809D01*
X136903571Y-83611904D01*
X136713095Y-83611904D01*
%TO.C,RES_C*%
X125511904Y-70875000D02*
X125130952Y-71141666D01*
X125511904Y-71332142D02*
X124711904Y-71332142D01*
X124711904Y-71027380D01*
X124750000Y-70951190D01*
X124788095Y-70913095D01*
X124864285Y-70875000D01*
X124978571Y-70875000D01*
X125054761Y-70913095D01*
X125092857Y-70951190D01*
X125130952Y-71027380D01*
X125130952Y-71332142D01*
X125092857Y-70532142D02*
X125092857Y-70265476D01*
X125511904Y-70151190D02*
X125511904Y-70532142D01*
X124711904Y-70532142D01*
X124711904Y-70151190D01*
X125473809Y-69846428D02*
X125511904Y-69732142D01*
X125511904Y-69541666D01*
X125473809Y-69465476D01*
X125435714Y-69427380D01*
X125359523Y-69389285D01*
X125283333Y-69389285D01*
X125207142Y-69427380D01*
X125169047Y-69465476D01*
X125130952Y-69541666D01*
X125092857Y-69694047D01*
X125054761Y-69770238D01*
X125016666Y-69808333D01*
X124940476Y-69846428D01*
X124864285Y-69846428D01*
X124788095Y-69808333D01*
X124750000Y-69770238D01*
X124711904Y-69694047D01*
X124711904Y-69503571D01*
X124750000Y-69389285D01*
X125588095Y-69236904D02*
X125588095Y-68627380D01*
X125435714Y-67979761D02*
X125473809Y-68017857D01*
X125511904Y-68132142D01*
X125511904Y-68208333D01*
X125473809Y-68322619D01*
X125397619Y-68398809D01*
X125321428Y-68436904D01*
X125169047Y-68475000D01*
X125054761Y-68475000D01*
X124902380Y-68436904D01*
X124826190Y-68398809D01*
X124750000Y-68322619D01*
X124711904Y-68208333D01*
X124711904Y-68132142D01*
X124750000Y-68017857D01*
X124788095Y-67979761D01*
%TO.C,IRQ*%
X126980952Y-66036904D02*
X126980952Y-65236904D01*
X127819047Y-66036904D02*
X127552380Y-65655952D01*
X127361904Y-66036904D02*
X127361904Y-65236904D01*
X127666666Y-65236904D01*
X127742857Y-65275000D01*
X127780952Y-65313095D01*
X127819047Y-65389285D01*
X127819047Y-65503571D01*
X127780952Y-65579761D01*
X127742857Y-65617857D01*
X127666666Y-65655952D01*
X127361904Y-65655952D01*
X128695238Y-66113095D02*
X128619047Y-66075000D01*
X128542857Y-65998809D01*
X128428571Y-65884523D01*
X128352380Y-65846428D01*
X128276190Y-65846428D01*
X128314285Y-66036904D02*
X128238095Y-65998809D01*
X128161904Y-65922619D01*
X128123809Y-65770238D01*
X128123809Y-65503571D01*
X128161904Y-65351190D01*
X128238095Y-65275000D01*
X128314285Y-65236904D01*
X128466666Y-65236904D01*
X128542857Y-65275000D01*
X128619047Y-65351190D01*
X128657142Y-65503571D01*
X128657142Y-65770238D01*
X128619047Y-65922619D01*
X128542857Y-65998809D01*
X128466666Y-66036904D01*
X128314285Y-66036904D01*
%TD*%
M02*
