M48
; DRILL file {KiCad (5.1.6-0-10_14)} date Sunday, July 19, 2020 at 04:10:18 PM
; FORMAT={-:-/ absolute / inch / decimal}
; #@! TF.CreationDate,2020-07-19T16:10:18+02:00
; #@! TF.GenerationSoftware,Kicad,Pcbnew,(5.1.6-0-10_14)
FMAT,2
INCH
T1C0.0118
T2C0.0157
T3C0.0197
T4C0.0394
%
G90
G05
T1
X4.626Y-2.2598
X4.7165Y-2.8346
X4.7864Y-2.4341
X4.7874Y-2.3268
X4.8307Y-2.4252
X4.8336Y-2.3494
X4.8425Y-2.3228
X4.8459Y-2.3765
X4.8504Y-2.4528
X4.9429Y-2.8724
X5.0197Y-2.3346
X5.0433Y-2.3583
X5.0443Y-2.6486
X5.0519Y-2.4284
X5.0561Y-3.2346
X5.0619Y-2.9478
X5.0777Y-2.932
X5.1069Y-2.959
X5.1069Y-2.9905
X5.1142Y-2.5
X5.1309Y-3.2106
X5.1339Y-2.4291
X5.1339Y-2.7874
X5.2303Y-3.186
X5.2362Y-2.69
X5.2362Y-2.9016
X5.2402Y-2.4134
X5.3425Y-2.7874
X5.3445Y-2.3012
X5.3543Y-3.0551
X5.3543Y-3.0866
X5.3819Y-3.0512
X5.4213Y-3.0424
X5.4567Y-3.0827
X5.4724Y-3.122
X5.4921Y-2.2795
X5.4921Y-2.3228
X5.4921Y-2.3661
X5.5138Y-2.8031
X5.5157Y-2.4094
X5.5433Y-3.0787
X5.6024Y-2.2283
X5.6063Y-2.0748
X5.6299Y-3.1215
X5.6407Y-2.2884
X5.8504Y-3.126
X5.8533Y-2.3071
X5.8543Y-2.2539
X5.8543Y-3.0551
X5.8583Y-2.4528
X5.8593Y-2.3671
X5.8819Y-2.0512
X5.8819Y-2.0906
X5.8976Y-3.1496
T2
X4.7087Y-2.6535
X4.7283Y-2.7047
X4.7283Y-2.7677
X4.7992Y-2.8307
X4.8071Y-3.1575
X4.811Y-3.0433
X4.8504Y-2.6496
X4.9252Y-2.6457
X4.9262Y-3.0335
X4.9695Y-3.0768
X5.0433Y-2.3071
X5.0955Y-3.126
X5.1457Y-2.1988
X5.252Y-3.1063
X5.4606Y-3.189
X5.5Y-3.2874
T3
X4.6299Y-1.9803
X4.6299Y-2.185
X4.6339Y-2.122
X4.8287Y-2.2313
X4.8307Y-1.9291
X4.8307Y-2.5276
X4.8819Y-2.2402
X4.8937Y-1.9803
X4.8937Y-2.122
X4.8937Y-2.185
X4.9331Y-2.2402
X5.0827Y-2.2402
X5.0906Y-1.9331
X5.1457Y-2.0866
X5.2717Y-1.9213
X5.374Y-1.9409
X5.4488Y-1.9498
X5.4528Y-2.2352
X5.4941Y-1.9193
X5.5108Y-1.9567
X5.5669Y-3.2884
X5.6093Y-3.2697
T4
X4.4173Y-2.0118
X4.4173Y-2.1118
X4.4173Y-2.2118
X4.4173Y-2.3118
X4.4173Y-2.4118
X4.4173Y-2.5118
X4.4173Y-2.6118
X4.4173Y-2.7118
X4.4173Y-2.8118
X4.4173Y-2.9118
X4.4173Y-3.0118
X4.4173Y-3.1118
X4.4173Y-3.2118
T0
M30
