%TF.GenerationSoftware,KiCad,Pcbnew,(5.1.6-0-10_14)*%
%TF.CreationDate,2020-07-19T16:10:20+02:00*%
%TF.ProjectId,driver-board,64726976-6572-42d6-926f-6172642e6b69,rev?*%
%TF.SameCoordinates,Original*%
%TF.FileFunction,Copper,L2,Inr*%
%TF.FilePolarity,Positive*%
%FSLAX46Y46*%
G04 Gerber Fmt 4.6, Leading zero omitted, Abs format (unit mm)*
G04 Created by KiCad (PCBNEW (5.1.6-0-10_14)) date 2020-07-19 16:10:20*
%MOMM*%
%LPD*%
G01*
G04 APERTURE LIST*
%TA.AperFunction,ViaPad*%
%ADD10R,1.700000X1.700000*%
%TD*%
%TA.AperFunction,ViaPad*%
%ADD11O,1.700000X1.700000*%
%TD*%
%TA.AperFunction,ViaPad*%
%ADD12C,0.750000*%
%TD*%
%TA.AperFunction,ViaPad*%
%ADD13C,0.450000*%
%TD*%
%TA.AperFunction,ViaPad*%
%ADD14C,0.650000*%
%TD*%
%TA.AperFunction,Conductor*%
%ADD15C,0.254000*%
%TD*%
G04 APERTURE END LIST*
D10*
%TO.N,+5V*%
%TO.C,J1*%
X112200000Y-51100000D03*
D11*
%TO.N,VCC*%
X112200000Y-53640000D03*
%TO.N,GND*%
X112200000Y-56180000D03*
%TO.N,SCK*%
X112200000Y-58720000D03*
%TO.N,SDI*%
X112200000Y-61260000D03*
%TO.N,SDO*%
X112200000Y-63800000D03*
%TO.N,CS1*%
X112200000Y-66340000D03*
%TO.N,CS2*%
X112200000Y-68880000D03*
%TO.N,DC*%
X112200000Y-71420000D03*
%TO.N,AUDIO*%
X112200000Y-73960000D03*
%TO.N,IRQ*%
X112200000Y-76500000D03*
%TO.N,GND*%
X112200000Y-79040000D03*
X112200000Y-81580000D03*
%TD*%
D12*
%TO.N,+3V0*%
X122650000Y-56675000D03*
D13*
X127500000Y-59300000D03*
X128100000Y-59900000D03*
D12*
X125300000Y-56900000D03*
X124000000Y-56900000D03*
D14*
X120100000Y-68700000D03*
X123200000Y-67300000D03*
D13*
X143000000Y-79285002D03*
D12*
X141400000Y-83525000D03*
X142475000Y-83050000D03*
D14*
X133400000Y-78900000D03*
D13*
X129716206Y-75958794D03*
X129716206Y-75158794D03*
X128125000Y-67275000D03*
D14*
%TO.N,GND*%
X122200000Y-77300000D03*
X121900000Y-71900000D03*
X120100000Y-70300000D03*
X119600000Y-67400000D03*
X125100000Y-67200000D03*
D13*
X117500000Y-57400000D03*
D12*
X117600000Y-50300000D03*
X117700000Y-53900000D03*
X124300000Y-50300000D03*
X124300000Y-53900000D03*
X124300000Y-55500000D03*
X117600000Y-55500000D03*
X130700000Y-53000000D03*
D14*
X128100000Y-58600000D03*
X139700000Y-83500000D03*
X138700000Y-81000000D03*
D13*
X149400000Y-52100000D03*
X142400000Y-52700000D03*
X149400000Y-53100000D03*
X130400001Y-70800000D03*
X133000000Y-68325128D03*
X133000000Y-73700000D03*
X135700000Y-70800000D03*
X140050010Y-71200000D03*
X142300000Y-56600000D03*
X148600000Y-79400000D03*
X148800000Y-62300000D03*
X148825000Y-60125000D03*
D12*
X139975000Y-49700000D03*
D14*
X122100000Y-80200000D03*
D12*
X139550000Y-48750000D03*
X138400000Y-49525000D03*
X138500000Y-56775000D03*
D14*
X130700000Y-55850000D03*
D13*
X135750000Y-58450000D03*
X143275000Y-58125000D03*
X148675000Y-58600000D03*
X148700000Y-57250000D03*
D14*
X129425000Y-79400000D03*
X126225000Y-78150000D03*
X125125000Y-77050000D03*
D12*
%TO.N,VCC*%
X122700000Y-64200000D03*
%TO.N,+5V*%
X122700000Y-49000000D03*
X129300000Y-49100000D03*
X133900000Y-48800000D03*
X136500000Y-49300000D03*
%TO.N,+3V3*%
X129100000Y-56900000D03*
D13*
X128573223Y-74873223D03*
X128973223Y-74473223D03*
%TO.N,DISPRES*%
X132850000Y-80925000D03*
X125550000Y-72959305D03*
%TO.N,AUDIO*%
X119800000Y-72000000D03*
X129900000Y-63500000D03*
%TO.N,DC_3V*%
X148700000Y-77600000D03*
X123200000Y-62300000D03*
X130324999Y-81550011D03*
%TO.N,CS2_3V*%
X149800000Y-80000000D03*
X122700000Y-61600000D03*
X128425522Y-82158135D03*
%TO.N,CS1_3V*%
X121600000Y-59100000D03*
X133100000Y-61300000D03*
%TO.N,DE*%
X140100000Y-61200000D03*
X136000000Y-78400000D03*
%TO.N,VSYNC*%
X139500000Y-57900000D03*
X136000000Y-77600000D03*
%TO.N,HSYNC*%
X139500000Y-59000000D03*
X136700000Y-77500000D03*
%TO.N,PCLK*%
X139500000Y-60100000D03*
X137701409Y-77276409D03*
%TO.N,IRQ*%
X121575000Y-61825000D03*
%TO.N,SCK_3V*%
X123000000Y-59000000D03*
X138600000Y-78300000D03*
%TO.N,SDI_3V*%
X122773952Y-59675000D03*
X138999990Y-79300020D03*
%TO.N,SDO_3V*%
X123086084Y-60363916D03*
X140800000Y-78200000D03*
%TO.N,SDI_BUFFER*%
X130400000Y-61700000D03*
X128317730Y-61682270D03*
%TD*%
D15*
%TO.N,GND*%
G36*
X122367478Y-48377895D02*
G01*
X122252501Y-48454721D01*
X122154721Y-48552501D01*
X122077895Y-48667478D01*
X122024977Y-48795234D01*
X121998000Y-48930859D01*
X121998000Y-49069141D01*
X122024977Y-49204766D01*
X122077895Y-49332522D01*
X122154721Y-49447499D01*
X122252501Y-49545279D01*
X122367478Y-49622105D01*
X122495234Y-49675023D01*
X122630859Y-49702000D01*
X122769141Y-49702000D01*
X122904766Y-49675023D01*
X123032522Y-49622105D01*
X123147499Y-49545279D01*
X123245279Y-49447499D01*
X123322105Y-49332522D01*
X123375023Y-49204766D01*
X123402000Y-49069141D01*
X123402000Y-49030859D01*
X128598000Y-49030859D01*
X128598000Y-49169141D01*
X128624977Y-49304766D01*
X128677895Y-49432522D01*
X128754721Y-49547499D01*
X128852501Y-49645279D01*
X128967478Y-49722105D01*
X129095234Y-49775023D01*
X129230859Y-49802000D01*
X129369141Y-49802000D01*
X129504766Y-49775023D01*
X129632522Y-49722105D01*
X129747499Y-49645279D01*
X129845279Y-49547499D01*
X129922105Y-49432522D01*
X129975023Y-49304766D01*
X130002000Y-49169141D01*
X130002000Y-49030859D01*
X129975023Y-48895234D01*
X129922105Y-48767478D01*
X129845279Y-48652501D01*
X129747499Y-48554721D01*
X129632522Y-48477895D01*
X129504766Y-48424977D01*
X129369141Y-48398000D01*
X129230859Y-48398000D01*
X129095234Y-48424977D01*
X128967478Y-48477895D01*
X128852501Y-48554721D01*
X128754721Y-48652501D01*
X128677895Y-48767478D01*
X128624977Y-48895234D01*
X128598000Y-49030859D01*
X123402000Y-49030859D01*
X123402000Y-48930859D01*
X123375023Y-48795234D01*
X123322105Y-48667478D01*
X123245279Y-48552501D01*
X123147499Y-48454721D01*
X123032522Y-48377895D01*
X122970006Y-48352000D01*
X133355222Y-48352000D01*
X133354721Y-48352501D01*
X133277895Y-48467478D01*
X133224977Y-48595234D01*
X133198000Y-48730859D01*
X133198000Y-48869141D01*
X133224977Y-49004766D01*
X133277895Y-49132522D01*
X133354721Y-49247499D01*
X133452501Y-49345279D01*
X133567478Y-49422105D01*
X133695234Y-49475023D01*
X133830859Y-49502000D01*
X133969141Y-49502000D01*
X134104766Y-49475023D01*
X134232522Y-49422105D01*
X134347499Y-49345279D01*
X134445279Y-49247499D01*
X134456397Y-49230859D01*
X135798000Y-49230859D01*
X135798000Y-49369141D01*
X135824977Y-49504766D01*
X135877895Y-49632522D01*
X135954721Y-49747499D01*
X136052501Y-49845279D01*
X136167478Y-49922105D01*
X136295234Y-49975023D01*
X136430859Y-50002000D01*
X136569141Y-50002000D01*
X136704766Y-49975023D01*
X136832522Y-49922105D01*
X136947499Y-49845279D01*
X137045279Y-49747499D01*
X137122105Y-49632522D01*
X137175023Y-49504766D01*
X137202000Y-49369141D01*
X137202000Y-49230859D01*
X137175023Y-49095234D01*
X137122105Y-48967478D01*
X137045279Y-48852501D01*
X136947499Y-48754721D01*
X136832522Y-48677895D01*
X136704766Y-48624977D01*
X136569141Y-48598000D01*
X136430859Y-48598000D01*
X136295234Y-48624977D01*
X136167478Y-48677895D01*
X136052501Y-48754721D01*
X135954721Y-48852501D01*
X135877895Y-48967478D01*
X135824977Y-49095234D01*
X135798000Y-49230859D01*
X134456397Y-49230859D01*
X134522105Y-49132522D01*
X134575023Y-49004766D01*
X134602000Y-48869141D01*
X134602000Y-48730859D01*
X134575023Y-48595234D01*
X134522105Y-48467478D01*
X134445279Y-48352501D01*
X134444778Y-48352000D01*
X152623001Y-48352000D01*
X152623000Y-84448000D01*
X110552000Y-84448000D01*
X110552000Y-83455859D01*
X140698000Y-83455859D01*
X140698000Y-83594141D01*
X140724977Y-83729766D01*
X140777895Y-83857522D01*
X140854721Y-83972499D01*
X140952501Y-84070279D01*
X141067478Y-84147105D01*
X141195234Y-84200023D01*
X141330859Y-84227000D01*
X141469141Y-84227000D01*
X141604766Y-84200023D01*
X141732522Y-84147105D01*
X141847499Y-84070279D01*
X141945279Y-83972499D01*
X142022105Y-83857522D01*
X142075023Y-83729766D01*
X142093060Y-83639085D01*
X142142478Y-83672105D01*
X142270234Y-83725023D01*
X142405859Y-83752000D01*
X142544141Y-83752000D01*
X142679766Y-83725023D01*
X142807522Y-83672105D01*
X142922499Y-83595279D01*
X143020279Y-83497499D01*
X143097105Y-83382522D01*
X143150023Y-83254766D01*
X143177000Y-83119141D01*
X143177000Y-82980859D01*
X143150023Y-82845234D01*
X143097105Y-82717478D01*
X143020279Y-82602501D01*
X142922499Y-82504721D01*
X142807522Y-82427895D01*
X142679766Y-82374977D01*
X142544141Y-82348000D01*
X142405859Y-82348000D01*
X142270234Y-82374977D01*
X142142478Y-82427895D01*
X142027501Y-82504721D01*
X141929721Y-82602501D01*
X141852895Y-82717478D01*
X141799977Y-82845234D01*
X141781940Y-82935915D01*
X141732522Y-82902895D01*
X141604766Y-82849977D01*
X141469141Y-82823000D01*
X141330859Y-82823000D01*
X141195234Y-82849977D01*
X141067478Y-82902895D01*
X140952501Y-82979721D01*
X140854721Y-83077501D01*
X140777895Y-83192478D01*
X140724977Y-83320234D01*
X140698000Y-83455859D01*
X110552000Y-83455859D01*
X110552000Y-81936890D01*
X110758524Y-81936890D01*
X110803175Y-82084099D01*
X110928359Y-82346920D01*
X111102412Y-82580269D01*
X111318645Y-82775178D01*
X111568748Y-82924157D01*
X111843109Y-83021481D01*
X112073000Y-82900814D01*
X112073000Y-81707000D01*
X112327000Y-81707000D01*
X112327000Y-82900814D01*
X112556891Y-83021481D01*
X112831252Y-82924157D01*
X113081355Y-82775178D01*
X113297588Y-82580269D01*
X113471641Y-82346920D01*
X113587456Y-82103768D01*
X127873522Y-82103768D01*
X127873522Y-82212502D01*
X127894735Y-82319147D01*
X127936346Y-82419605D01*
X127996756Y-82510015D01*
X128073642Y-82586901D01*
X128164052Y-82647311D01*
X128264510Y-82688922D01*
X128371155Y-82710135D01*
X128479889Y-82710135D01*
X128586534Y-82688922D01*
X128686992Y-82647311D01*
X128777402Y-82586901D01*
X128854288Y-82510015D01*
X128914698Y-82419605D01*
X128956309Y-82319147D01*
X128977522Y-82212502D01*
X128977522Y-82103768D01*
X128956309Y-81997123D01*
X128914698Y-81896665D01*
X128854288Y-81806255D01*
X128777402Y-81729369D01*
X128686992Y-81668959D01*
X128586534Y-81627348D01*
X128479889Y-81606135D01*
X128371155Y-81606135D01*
X128264510Y-81627348D01*
X128164052Y-81668959D01*
X128073642Y-81729369D01*
X127996756Y-81806255D01*
X127936346Y-81896665D01*
X127894735Y-81997123D01*
X127873522Y-82103768D01*
X113587456Y-82103768D01*
X113596825Y-82084099D01*
X113641476Y-81936890D01*
X113520155Y-81707000D01*
X112327000Y-81707000D01*
X112073000Y-81707000D01*
X110879845Y-81707000D01*
X110758524Y-81936890D01*
X110552000Y-81936890D01*
X110552000Y-81495644D01*
X129772999Y-81495644D01*
X129772999Y-81604378D01*
X129794212Y-81711023D01*
X129835823Y-81811481D01*
X129896233Y-81901891D01*
X129973119Y-81978777D01*
X130063529Y-82039187D01*
X130163987Y-82080798D01*
X130270632Y-82102011D01*
X130379366Y-82102011D01*
X130486011Y-82080798D01*
X130586469Y-82039187D01*
X130676879Y-81978777D01*
X130753765Y-81901891D01*
X130814175Y-81811481D01*
X130855786Y-81711023D01*
X130876999Y-81604378D01*
X130876999Y-81495644D01*
X130855786Y-81388999D01*
X130814175Y-81288541D01*
X130753765Y-81198131D01*
X130676879Y-81121245D01*
X130586469Y-81060835D01*
X130486011Y-81019224D01*
X130379366Y-80998011D01*
X130270632Y-80998011D01*
X130163987Y-81019224D01*
X130063529Y-81060835D01*
X129973119Y-81121245D01*
X129896233Y-81198131D01*
X129835823Y-81288541D01*
X129794212Y-81388999D01*
X129772999Y-81495644D01*
X110552000Y-81495644D01*
X110552000Y-79396890D01*
X110758524Y-79396890D01*
X110803175Y-79544099D01*
X110928359Y-79806920D01*
X111102412Y-80040269D01*
X111318645Y-80235178D01*
X111444255Y-80310000D01*
X111318645Y-80384822D01*
X111102412Y-80579731D01*
X110928359Y-80813080D01*
X110803175Y-81075901D01*
X110758524Y-81223110D01*
X110879845Y-81453000D01*
X112073000Y-81453000D01*
X112073000Y-79167000D01*
X112327000Y-79167000D01*
X112327000Y-81453000D01*
X113520155Y-81453000D01*
X113641476Y-81223110D01*
X113596825Y-81075901D01*
X113499055Y-80870633D01*
X132298000Y-80870633D01*
X132298000Y-80979367D01*
X132319213Y-81086012D01*
X132360824Y-81186470D01*
X132421234Y-81276880D01*
X132498120Y-81353766D01*
X132588530Y-81414176D01*
X132688988Y-81455787D01*
X132795633Y-81477000D01*
X132904367Y-81477000D01*
X133011012Y-81455787D01*
X133111470Y-81414176D01*
X133201880Y-81353766D01*
X133278766Y-81276880D01*
X133339176Y-81186470D01*
X133380787Y-81086012D01*
X133402000Y-80979367D01*
X133402000Y-80870633D01*
X133380787Y-80763988D01*
X133339176Y-80663530D01*
X133278766Y-80573120D01*
X133201880Y-80496234D01*
X133111470Y-80435824D01*
X133011012Y-80394213D01*
X132904367Y-80373000D01*
X132795633Y-80373000D01*
X132688988Y-80394213D01*
X132588530Y-80435824D01*
X132498120Y-80496234D01*
X132421234Y-80573120D01*
X132360824Y-80663530D01*
X132319213Y-80763988D01*
X132298000Y-80870633D01*
X113499055Y-80870633D01*
X113471641Y-80813080D01*
X113297588Y-80579731D01*
X113081355Y-80384822D01*
X112955745Y-80310000D01*
X113081355Y-80235178D01*
X113297588Y-80040269D01*
X113368176Y-79945633D01*
X149248000Y-79945633D01*
X149248000Y-80054367D01*
X149269213Y-80161012D01*
X149310824Y-80261470D01*
X149371234Y-80351880D01*
X149448120Y-80428766D01*
X149538530Y-80489176D01*
X149638988Y-80530787D01*
X149745633Y-80552000D01*
X149854367Y-80552000D01*
X149961012Y-80530787D01*
X150061470Y-80489176D01*
X150151880Y-80428766D01*
X150228766Y-80351880D01*
X150289176Y-80261470D01*
X150330787Y-80161012D01*
X150352000Y-80054367D01*
X150352000Y-79945633D01*
X150330787Y-79838988D01*
X150289176Y-79738530D01*
X150228766Y-79648120D01*
X150151880Y-79571234D01*
X150061470Y-79510824D01*
X149961012Y-79469213D01*
X149854367Y-79448000D01*
X149745633Y-79448000D01*
X149638988Y-79469213D01*
X149538530Y-79510824D01*
X149448120Y-79571234D01*
X149371234Y-79648120D01*
X149310824Y-79738530D01*
X149269213Y-79838988D01*
X149248000Y-79945633D01*
X113368176Y-79945633D01*
X113471641Y-79806920D01*
X113596825Y-79544099D01*
X113641476Y-79396890D01*
X113520155Y-79167000D01*
X112327000Y-79167000D01*
X112073000Y-79167000D01*
X110879845Y-79167000D01*
X110758524Y-79396890D01*
X110552000Y-79396890D01*
X110552000Y-78683110D01*
X110758524Y-78683110D01*
X110879845Y-78913000D01*
X112073000Y-78913000D01*
X112073000Y-78893000D01*
X112327000Y-78893000D01*
X112327000Y-78913000D01*
X113520155Y-78913000D01*
X113560904Y-78835784D01*
X132748000Y-78835784D01*
X132748000Y-78964216D01*
X132773056Y-79090181D01*
X132822205Y-79208838D01*
X132893558Y-79315626D01*
X132984374Y-79406442D01*
X133091162Y-79477795D01*
X133209819Y-79526944D01*
X133335784Y-79552000D01*
X133464216Y-79552000D01*
X133590181Y-79526944D01*
X133708838Y-79477795D01*
X133815626Y-79406442D01*
X133906442Y-79315626D01*
X133977795Y-79208838D01*
X134026944Y-79090181D01*
X134052000Y-78964216D01*
X134052000Y-78835784D01*
X134026944Y-78709819D01*
X133977795Y-78591162D01*
X133906442Y-78484374D01*
X133815626Y-78393558D01*
X133708838Y-78322205D01*
X133590181Y-78273056D01*
X133464216Y-78248000D01*
X133335784Y-78248000D01*
X133209819Y-78273056D01*
X133091162Y-78322205D01*
X132984374Y-78393558D01*
X132893558Y-78484374D01*
X132822205Y-78591162D01*
X132773056Y-78709819D01*
X132748000Y-78835784D01*
X113560904Y-78835784D01*
X113641476Y-78683110D01*
X113596825Y-78535901D01*
X113471641Y-78273080D01*
X113297588Y-78039731D01*
X113081355Y-77844822D01*
X112831252Y-77695843D01*
X112592821Y-77611264D01*
X112751268Y-77545633D01*
X135448000Y-77545633D01*
X135448000Y-77654367D01*
X135469213Y-77761012D01*
X135510824Y-77861470D01*
X135571234Y-77951880D01*
X135619354Y-78000000D01*
X135571234Y-78048120D01*
X135510824Y-78138530D01*
X135469213Y-78238988D01*
X135448000Y-78345633D01*
X135448000Y-78454367D01*
X135469213Y-78561012D01*
X135510824Y-78661470D01*
X135571234Y-78751880D01*
X135648120Y-78828766D01*
X135738530Y-78889176D01*
X135838988Y-78930787D01*
X135945633Y-78952000D01*
X136054367Y-78952000D01*
X136161012Y-78930787D01*
X136261470Y-78889176D01*
X136351880Y-78828766D01*
X136428766Y-78751880D01*
X136489176Y-78661470D01*
X136530787Y-78561012D01*
X136552000Y-78454367D01*
X136552000Y-78345633D01*
X136532109Y-78245633D01*
X138048000Y-78245633D01*
X138048000Y-78354367D01*
X138069213Y-78461012D01*
X138110824Y-78561470D01*
X138171234Y-78651880D01*
X138248120Y-78728766D01*
X138338530Y-78789176D01*
X138438988Y-78830787D01*
X138545633Y-78852000D01*
X138654367Y-78852000D01*
X138686488Y-78845611D01*
X138648110Y-78871254D01*
X138571224Y-78948140D01*
X138510814Y-79038550D01*
X138469203Y-79139008D01*
X138447990Y-79245653D01*
X138447990Y-79354387D01*
X138469203Y-79461032D01*
X138510814Y-79561490D01*
X138571224Y-79651900D01*
X138648110Y-79728786D01*
X138738520Y-79789196D01*
X138838978Y-79830807D01*
X138945623Y-79852020D01*
X139054357Y-79852020D01*
X139161002Y-79830807D01*
X139261460Y-79789196D01*
X139351870Y-79728786D01*
X139428756Y-79651900D01*
X139489166Y-79561490D01*
X139530777Y-79461032D01*
X139551990Y-79354387D01*
X139551990Y-79245653D01*
X139549003Y-79230635D01*
X142448000Y-79230635D01*
X142448000Y-79339369D01*
X142469213Y-79446014D01*
X142510824Y-79546472D01*
X142571234Y-79636882D01*
X142648120Y-79713768D01*
X142738530Y-79774178D01*
X142838988Y-79815789D01*
X142945633Y-79837002D01*
X143054367Y-79837002D01*
X143161012Y-79815789D01*
X143261470Y-79774178D01*
X143351880Y-79713768D01*
X143428766Y-79636882D01*
X143489176Y-79546472D01*
X143530787Y-79446014D01*
X143552000Y-79339369D01*
X143552000Y-79230635D01*
X143530787Y-79123990D01*
X143489176Y-79023532D01*
X143428766Y-78933122D01*
X143351880Y-78856236D01*
X143261470Y-78795826D01*
X143161012Y-78754215D01*
X143054367Y-78733002D01*
X142945633Y-78733002D01*
X142838988Y-78754215D01*
X142738530Y-78795826D01*
X142648120Y-78856236D01*
X142571234Y-78933122D01*
X142510824Y-79023532D01*
X142469213Y-79123990D01*
X142448000Y-79230635D01*
X139549003Y-79230635D01*
X139530777Y-79139008D01*
X139489166Y-79038550D01*
X139428756Y-78948140D01*
X139351870Y-78871254D01*
X139261460Y-78810844D01*
X139161002Y-78769233D01*
X139054357Y-78748020D01*
X138945623Y-78748020D01*
X138913502Y-78754409D01*
X138951880Y-78728766D01*
X139028766Y-78651880D01*
X139089176Y-78561470D01*
X139130787Y-78461012D01*
X139152000Y-78354367D01*
X139152000Y-78245633D01*
X139132109Y-78145633D01*
X140248000Y-78145633D01*
X140248000Y-78254367D01*
X140269213Y-78361012D01*
X140310824Y-78461470D01*
X140371234Y-78551880D01*
X140448120Y-78628766D01*
X140538530Y-78689176D01*
X140638988Y-78730787D01*
X140745633Y-78752000D01*
X140854367Y-78752000D01*
X140961012Y-78730787D01*
X141061470Y-78689176D01*
X141151880Y-78628766D01*
X141228766Y-78551880D01*
X141289176Y-78461470D01*
X141330787Y-78361012D01*
X141352000Y-78254367D01*
X141352000Y-78145633D01*
X141330787Y-78038988D01*
X141289176Y-77938530D01*
X141228766Y-77848120D01*
X141151880Y-77771234D01*
X141061470Y-77710824D01*
X140961012Y-77669213D01*
X140854367Y-77648000D01*
X140745633Y-77648000D01*
X140638988Y-77669213D01*
X140538530Y-77710824D01*
X140448120Y-77771234D01*
X140371234Y-77848120D01*
X140310824Y-77938530D01*
X140269213Y-78038988D01*
X140248000Y-78145633D01*
X139132109Y-78145633D01*
X139130787Y-78138988D01*
X139089176Y-78038530D01*
X139028766Y-77948120D01*
X138951880Y-77871234D01*
X138861470Y-77810824D01*
X138761012Y-77769213D01*
X138654367Y-77748000D01*
X138545633Y-77748000D01*
X138438988Y-77769213D01*
X138338530Y-77810824D01*
X138248120Y-77871234D01*
X138171234Y-77948120D01*
X138110824Y-78038530D01*
X138069213Y-78138988D01*
X138048000Y-78245633D01*
X136532109Y-78245633D01*
X136530787Y-78238988D01*
X136489176Y-78138530D01*
X136428766Y-78048120D01*
X136380646Y-78000000D01*
X136410320Y-77970326D01*
X136438530Y-77989176D01*
X136538988Y-78030787D01*
X136645633Y-78052000D01*
X136754367Y-78052000D01*
X136861012Y-78030787D01*
X136961470Y-77989176D01*
X137051880Y-77928766D01*
X137128766Y-77851880D01*
X137189176Y-77761470D01*
X137230787Y-77661012D01*
X137245405Y-77587524D01*
X137272643Y-77628289D01*
X137349529Y-77705175D01*
X137439939Y-77765585D01*
X137540397Y-77807196D01*
X137647042Y-77828409D01*
X137755776Y-77828409D01*
X137862421Y-77807196D01*
X137962879Y-77765585D01*
X138053289Y-77705175D01*
X138130175Y-77628289D01*
X138185403Y-77545633D01*
X148148000Y-77545633D01*
X148148000Y-77654367D01*
X148169213Y-77761012D01*
X148210824Y-77861470D01*
X148271234Y-77951880D01*
X148348120Y-78028766D01*
X148438530Y-78089176D01*
X148538988Y-78130787D01*
X148645633Y-78152000D01*
X148754367Y-78152000D01*
X148861012Y-78130787D01*
X148961470Y-78089176D01*
X149051880Y-78028766D01*
X149128766Y-77951880D01*
X149189176Y-77861470D01*
X149230787Y-77761012D01*
X149252000Y-77654367D01*
X149252000Y-77545633D01*
X149230787Y-77438988D01*
X149189176Y-77338530D01*
X149128766Y-77248120D01*
X149051880Y-77171234D01*
X148961470Y-77110824D01*
X148861012Y-77069213D01*
X148754367Y-77048000D01*
X148645633Y-77048000D01*
X148538988Y-77069213D01*
X148438530Y-77110824D01*
X148348120Y-77171234D01*
X148271234Y-77248120D01*
X148210824Y-77338530D01*
X148169213Y-77438988D01*
X148148000Y-77545633D01*
X138185403Y-77545633D01*
X138190585Y-77537879D01*
X138232196Y-77437421D01*
X138253409Y-77330776D01*
X138253409Y-77222042D01*
X138232196Y-77115397D01*
X138190585Y-77014939D01*
X138130175Y-76924529D01*
X138053289Y-76847643D01*
X137962879Y-76787233D01*
X137862421Y-76745622D01*
X137755776Y-76724409D01*
X137647042Y-76724409D01*
X137540397Y-76745622D01*
X137439939Y-76787233D01*
X137349529Y-76847643D01*
X137272643Y-76924529D01*
X137212233Y-77014939D01*
X137170622Y-77115397D01*
X137156004Y-77188885D01*
X137128766Y-77148120D01*
X137051880Y-77071234D01*
X136961470Y-77010824D01*
X136861012Y-76969213D01*
X136754367Y-76948000D01*
X136645633Y-76948000D01*
X136538988Y-76969213D01*
X136438530Y-77010824D01*
X136348120Y-77071234D01*
X136289680Y-77129674D01*
X136261470Y-77110824D01*
X136161012Y-77069213D01*
X136054367Y-77048000D01*
X135945633Y-77048000D01*
X135838988Y-77069213D01*
X135738530Y-77110824D01*
X135648120Y-77171234D01*
X135571234Y-77248120D01*
X135510824Y-77338530D01*
X135469213Y-77438988D01*
X135448000Y-77545633D01*
X112751268Y-77545633D01*
X112757519Y-77543044D01*
X112950294Y-77414236D01*
X113114236Y-77250294D01*
X113243044Y-77057519D01*
X113331769Y-76843318D01*
X113377000Y-76615924D01*
X113377000Y-76384076D01*
X113331769Y-76156682D01*
X113243044Y-75942481D01*
X113114236Y-75749706D01*
X112950294Y-75585764D01*
X112757519Y-75456956D01*
X112543318Y-75368231D01*
X112315924Y-75323000D01*
X112084076Y-75323000D01*
X111856682Y-75368231D01*
X111642481Y-75456956D01*
X111449706Y-75585764D01*
X111285764Y-75749706D01*
X111156956Y-75942481D01*
X111068231Y-76156682D01*
X111023000Y-76384076D01*
X111023000Y-76615924D01*
X111068231Y-76843318D01*
X111156956Y-77057519D01*
X111285764Y-77250294D01*
X111449706Y-77414236D01*
X111642481Y-77543044D01*
X111807179Y-77611264D01*
X111568748Y-77695843D01*
X111318645Y-77844822D01*
X111102412Y-78039731D01*
X110928359Y-78273080D01*
X110803175Y-78535901D01*
X110758524Y-78683110D01*
X110552000Y-78683110D01*
X110552000Y-73844076D01*
X111023000Y-73844076D01*
X111023000Y-74075924D01*
X111068231Y-74303318D01*
X111156956Y-74517519D01*
X111285764Y-74710294D01*
X111449706Y-74874236D01*
X111642481Y-75003044D01*
X111856682Y-75091769D01*
X112084076Y-75137000D01*
X112315924Y-75137000D01*
X112543318Y-75091769D01*
X112757519Y-75003044D01*
X112950294Y-74874236D01*
X113005674Y-74818856D01*
X128021223Y-74818856D01*
X128021223Y-74927590D01*
X128042436Y-75034235D01*
X128084047Y-75134693D01*
X128144457Y-75225103D01*
X128221343Y-75301989D01*
X128311753Y-75362399D01*
X128412211Y-75404010D01*
X128518856Y-75425223D01*
X128627590Y-75425223D01*
X128734235Y-75404010D01*
X128834693Y-75362399D01*
X128925103Y-75301989D01*
X129001989Y-75225103D01*
X129062399Y-75134693D01*
X129104010Y-75034235D01*
X129109025Y-75009025D01*
X129134235Y-75004010D01*
X129192906Y-74979708D01*
X129185419Y-74997782D01*
X129164206Y-75104427D01*
X129164206Y-75213161D01*
X129185419Y-75319806D01*
X129227030Y-75420264D01*
X129287440Y-75510674D01*
X129335560Y-75558794D01*
X129287440Y-75606914D01*
X129227030Y-75697324D01*
X129185419Y-75797782D01*
X129164206Y-75904427D01*
X129164206Y-76013161D01*
X129185419Y-76119806D01*
X129227030Y-76220264D01*
X129287440Y-76310674D01*
X129364326Y-76387560D01*
X129454736Y-76447970D01*
X129555194Y-76489581D01*
X129661839Y-76510794D01*
X129770573Y-76510794D01*
X129877218Y-76489581D01*
X129977676Y-76447970D01*
X130068086Y-76387560D01*
X130144972Y-76310674D01*
X130205382Y-76220264D01*
X130246993Y-76119806D01*
X130268206Y-76013161D01*
X130268206Y-75904427D01*
X130246993Y-75797782D01*
X130205382Y-75697324D01*
X130144972Y-75606914D01*
X130096852Y-75558794D01*
X130144972Y-75510674D01*
X130205382Y-75420264D01*
X130246993Y-75319806D01*
X130268206Y-75213161D01*
X130268206Y-75104427D01*
X130246993Y-74997782D01*
X130205382Y-74897324D01*
X130144972Y-74806914D01*
X130068086Y-74730028D01*
X129977676Y-74669618D01*
X129877218Y-74628007D01*
X129770573Y-74606794D01*
X129661839Y-74606794D01*
X129555194Y-74628007D01*
X129496523Y-74652309D01*
X129504010Y-74634235D01*
X129525223Y-74527590D01*
X129525223Y-74418856D01*
X129504010Y-74312211D01*
X129462399Y-74211753D01*
X129401989Y-74121343D01*
X129325103Y-74044457D01*
X129234693Y-73984047D01*
X129134235Y-73942436D01*
X129027590Y-73921223D01*
X128918856Y-73921223D01*
X128812211Y-73942436D01*
X128711753Y-73984047D01*
X128621343Y-74044457D01*
X128544457Y-74121343D01*
X128484047Y-74211753D01*
X128442436Y-74312211D01*
X128437421Y-74337421D01*
X128412211Y-74342436D01*
X128311753Y-74384047D01*
X128221343Y-74444457D01*
X128144457Y-74521343D01*
X128084047Y-74611753D01*
X128042436Y-74712211D01*
X128021223Y-74818856D01*
X113005674Y-74818856D01*
X113114236Y-74710294D01*
X113243044Y-74517519D01*
X113331769Y-74303318D01*
X113377000Y-74075924D01*
X113377000Y-73844076D01*
X113331769Y-73616682D01*
X113243044Y-73402481D01*
X113114236Y-73209706D01*
X112950294Y-73045764D01*
X112757519Y-72916956D01*
X112728505Y-72904938D01*
X124998000Y-72904938D01*
X124998000Y-73013672D01*
X125019213Y-73120317D01*
X125060824Y-73220775D01*
X125121234Y-73311185D01*
X125198120Y-73388071D01*
X125288530Y-73448481D01*
X125388988Y-73490092D01*
X125495633Y-73511305D01*
X125604367Y-73511305D01*
X125711012Y-73490092D01*
X125811470Y-73448481D01*
X125901880Y-73388071D01*
X125978766Y-73311185D01*
X126039176Y-73220775D01*
X126080787Y-73120317D01*
X126102000Y-73013672D01*
X126102000Y-72904938D01*
X126080787Y-72798293D01*
X126039176Y-72697835D01*
X125978766Y-72607425D01*
X125901880Y-72530539D01*
X125811470Y-72470129D01*
X125711012Y-72428518D01*
X125604367Y-72407305D01*
X125495633Y-72407305D01*
X125388988Y-72428518D01*
X125288530Y-72470129D01*
X125198120Y-72530539D01*
X125121234Y-72607425D01*
X125060824Y-72697835D01*
X125019213Y-72798293D01*
X124998000Y-72904938D01*
X112728505Y-72904938D01*
X112543318Y-72828231D01*
X112315924Y-72783000D01*
X112084076Y-72783000D01*
X111856682Y-72828231D01*
X111642481Y-72916956D01*
X111449706Y-73045764D01*
X111285764Y-73209706D01*
X111156956Y-73402481D01*
X111068231Y-73616682D01*
X111023000Y-73844076D01*
X110552000Y-73844076D01*
X110552000Y-71304076D01*
X111023000Y-71304076D01*
X111023000Y-71535924D01*
X111068231Y-71763318D01*
X111156956Y-71977519D01*
X111285764Y-72170294D01*
X111449706Y-72334236D01*
X111642481Y-72463044D01*
X111856682Y-72551769D01*
X112084076Y-72597000D01*
X112315924Y-72597000D01*
X112543318Y-72551769D01*
X112757519Y-72463044D01*
X112950294Y-72334236D01*
X113114236Y-72170294D01*
X113243044Y-71977519D01*
X113256251Y-71945633D01*
X119248000Y-71945633D01*
X119248000Y-72054367D01*
X119269213Y-72161012D01*
X119310824Y-72261470D01*
X119371234Y-72351880D01*
X119448120Y-72428766D01*
X119538530Y-72489176D01*
X119638988Y-72530787D01*
X119745633Y-72552000D01*
X119854367Y-72552000D01*
X119961012Y-72530787D01*
X120061470Y-72489176D01*
X120151880Y-72428766D01*
X120228766Y-72351880D01*
X120289176Y-72261470D01*
X120330787Y-72161012D01*
X120352000Y-72054367D01*
X120352000Y-71945633D01*
X120330787Y-71838988D01*
X120289176Y-71738530D01*
X120228766Y-71648120D01*
X120151880Y-71571234D01*
X120061470Y-71510824D01*
X119961012Y-71469213D01*
X119854367Y-71448000D01*
X119745633Y-71448000D01*
X119638988Y-71469213D01*
X119538530Y-71510824D01*
X119448120Y-71571234D01*
X119371234Y-71648120D01*
X119310824Y-71738530D01*
X119269213Y-71838988D01*
X119248000Y-71945633D01*
X113256251Y-71945633D01*
X113331769Y-71763318D01*
X113377000Y-71535924D01*
X113377000Y-71304076D01*
X113331769Y-71076682D01*
X113243044Y-70862481D01*
X113114236Y-70669706D01*
X112950294Y-70505764D01*
X112757519Y-70376956D01*
X112543318Y-70288231D01*
X112315924Y-70243000D01*
X112084076Y-70243000D01*
X111856682Y-70288231D01*
X111642481Y-70376956D01*
X111449706Y-70505764D01*
X111285764Y-70669706D01*
X111156956Y-70862481D01*
X111068231Y-71076682D01*
X111023000Y-71304076D01*
X110552000Y-71304076D01*
X110552000Y-68764076D01*
X111023000Y-68764076D01*
X111023000Y-68995924D01*
X111068231Y-69223318D01*
X111156956Y-69437519D01*
X111285764Y-69630294D01*
X111449706Y-69794236D01*
X111642481Y-69923044D01*
X111856682Y-70011769D01*
X112084076Y-70057000D01*
X112315924Y-70057000D01*
X112543318Y-70011769D01*
X112757519Y-69923044D01*
X112950294Y-69794236D01*
X113114236Y-69630294D01*
X113243044Y-69437519D01*
X113331769Y-69223318D01*
X113377000Y-68995924D01*
X113377000Y-68764076D01*
X113351482Y-68635784D01*
X119448000Y-68635784D01*
X119448000Y-68764216D01*
X119473056Y-68890181D01*
X119522205Y-69008838D01*
X119593558Y-69115626D01*
X119684374Y-69206442D01*
X119791162Y-69277795D01*
X119909819Y-69326944D01*
X120035784Y-69352000D01*
X120164216Y-69352000D01*
X120290181Y-69326944D01*
X120408838Y-69277795D01*
X120515626Y-69206442D01*
X120606442Y-69115626D01*
X120677795Y-69008838D01*
X120726944Y-68890181D01*
X120752000Y-68764216D01*
X120752000Y-68635784D01*
X120726944Y-68509819D01*
X120677795Y-68391162D01*
X120606442Y-68284374D01*
X120515626Y-68193558D01*
X120408838Y-68122205D01*
X120290181Y-68073056D01*
X120164216Y-68048000D01*
X120035784Y-68048000D01*
X119909819Y-68073056D01*
X119791162Y-68122205D01*
X119684374Y-68193558D01*
X119593558Y-68284374D01*
X119522205Y-68391162D01*
X119473056Y-68509819D01*
X119448000Y-68635784D01*
X113351482Y-68635784D01*
X113331769Y-68536682D01*
X113243044Y-68322481D01*
X113114236Y-68129706D01*
X112950294Y-67965764D01*
X112757519Y-67836956D01*
X112543318Y-67748231D01*
X112315924Y-67703000D01*
X112084076Y-67703000D01*
X111856682Y-67748231D01*
X111642481Y-67836956D01*
X111449706Y-67965764D01*
X111285764Y-68129706D01*
X111156956Y-68322481D01*
X111068231Y-68536682D01*
X111023000Y-68764076D01*
X110552000Y-68764076D01*
X110552000Y-66224076D01*
X111023000Y-66224076D01*
X111023000Y-66455924D01*
X111068231Y-66683318D01*
X111156956Y-66897519D01*
X111285764Y-67090294D01*
X111449706Y-67254236D01*
X111642481Y-67383044D01*
X111856682Y-67471769D01*
X112084076Y-67517000D01*
X112315924Y-67517000D01*
X112543318Y-67471769D01*
X112757519Y-67383044D01*
X112950294Y-67254236D01*
X112968746Y-67235784D01*
X122548000Y-67235784D01*
X122548000Y-67364216D01*
X122573056Y-67490181D01*
X122622205Y-67608838D01*
X122693558Y-67715626D01*
X122784374Y-67806442D01*
X122891162Y-67877795D01*
X123009819Y-67926944D01*
X123135784Y-67952000D01*
X123264216Y-67952000D01*
X123390181Y-67926944D01*
X123508838Y-67877795D01*
X123615626Y-67806442D01*
X123706442Y-67715626D01*
X123777795Y-67608838D01*
X123826944Y-67490181D01*
X123852000Y-67364216D01*
X123852000Y-67235784D01*
X123848987Y-67220633D01*
X127573000Y-67220633D01*
X127573000Y-67329367D01*
X127594213Y-67436012D01*
X127635824Y-67536470D01*
X127696234Y-67626880D01*
X127773120Y-67703766D01*
X127863530Y-67764176D01*
X127963988Y-67805787D01*
X128070633Y-67827000D01*
X128179367Y-67827000D01*
X128286012Y-67805787D01*
X128386470Y-67764176D01*
X128476880Y-67703766D01*
X128553766Y-67626880D01*
X128614176Y-67536470D01*
X128655787Y-67436012D01*
X128677000Y-67329367D01*
X128677000Y-67220633D01*
X128655787Y-67113988D01*
X128614176Y-67013530D01*
X128553766Y-66923120D01*
X128476880Y-66846234D01*
X128386470Y-66785824D01*
X128286012Y-66744213D01*
X128179367Y-66723000D01*
X128070633Y-66723000D01*
X127963988Y-66744213D01*
X127863530Y-66785824D01*
X127773120Y-66846234D01*
X127696234Y-66923120D01*
X127635824Y-67013530D01*
X127594213Y-67113988D01*
X127573000Y-67220633D01*
X123848987Y-67220633D01*
X123826944Y-67109819D01*
X123777795Y-66991162D01*
X123706442Y-66884374D01*
X123615626Y-66793558D01*
X123508838Y-66722205D01*
X123390181Y-66673056D01*
X123264216Y-66648000D01*
X123135784Y-66648000D01*
X123009819Y-66673056D01*
X122891162Y-66722205D01*
X122784374Y-66793558D01*
X122693558Y-66884374D01*
X122622205Y-66991162D01*
X122573056Y-67109819D01*
X122548000Y-67235784D01*
X112968746Y-67235784D01*
X113114236Y-67090294D01*
X113243044Y-66897519D01*
X113331769Y-66683318D01*
X113377000Y-66455924D01*
X113377000Y-66224076D01*
X113331769Y-65996682D01*
X113243044Y-65782481D01*
X113114236Y-65589706D01*
X112950294Y-65425764D01*
X112757519Y-65296956D01*
X112543318Y-65208231D01*
X112315924Y-65163000D01*
X112084076Y-65163000D01*
X111856682Y-65208231D01*
X111642481Y-65296956D01*
X111449706Y-65425764D01*
X111285764Y-65589706D01*
X111156956Y-65782481D01*
X111068231Y-65996682D01*
X111023000Y-66224076D01*
X110552000Y-66224076D01*
X110552000Y-63684076D01*
X111023000Y-63684076D01*
X111023000Y-63915924D01*
X111068231Y-64143318D01*
X111156956Y-64357519D01*
X111285764Y-64550294D01*
X111449706Y-64714236D01*
X111642481Y-64843044D01*
X111856682Y-64931769D01*
X112084076Y-64977000D01*
X112315924Y-64977000D01*
X112543318Y-64931769D01*
X112757519Y-64843044D01*
X112950294Y-64714236D01*
X113114236Y-64550294D01*
X113243044Y-64357519D01*
X113331769Y-64143318D01*
X113334247Y-64130859D01*
X121998000Y-64130859D01*
X121998000Y-64269141D01*
X122024977Y-64404766D01*
X122077895Y-64532522D01*
X122154721Y-64647499D01*
X122252501Y-64745279D01*
X122367478Y-64822105D01*
X122495234Y-64875023D01*
X122630859Y-64902000D01*
X122769141Y-64902000D01*
X122904766Y-64875023D01*
X123032522Y-64822105D01*
X123147499Y-64745279D01*
X123245279Y-64647499D01*
X123322105Y-64532522D01*
X123375023Y-64404766D01*
X123402000Y-64269141D01*
X123402000Y-64130859D01*
X123375023Y-63995234D01*
X123322105Y-63867478D01*
X123245279Y-63752501D01*
X123147499Y-63654721D01*
X123032522Y-63577895D01*
X122904766Y-63524977D01*
X122769141Y-63498000D01*
X122630859Y-63498000D01*
X122495234Y-63524977D01*
X122367478Y-63577895D01*
X122252501Y-63654721D01*
X122154721Y-63752501D01*
X122077895Y-63867478D01*
X122024977Y-63995234D01*
X121998000Y-64130859D01*
X113334247Y-64130859D01*
X113377000Y-63915924D01*
X113377000Y-63684076D01*
X113331769Y-63456682D01*
X113327193Y-63445633D01*
X129348000Y-63445633D01*
X129348000Y-63554367D01*
X129369213Y-63661012D01*
X129410824Y-63761470D01*
X129471234Y-63851880D01*
X129548120Y-63928766D01*
X129638530Y-63989176D01*
X129738988Y-64030787D01*
X129845633Y-64052000D01*
X129954367Y-64052000D01*
X130061012Y-64030787D01*
X130161470Y-63989176D01*
X130251880Y-63928766D01*
X130328766Y-63851880D01*
X130389176Y-63761470D01*
X130430787Y-63661012D01*
X130452000Y-63554367D01*
X130452000Y-63445633D01*
X130430787Y-63338988D01*
X130389176Y-63238530D01*
X130328766Y-63148120D01*
X130251880Y-63071234D01*
X130161470Y-63010824D01*
X130061012Y-62969213D01*
X129954367Y-62948000D01*
X129845633Y-62948000D01*
X129738988Y-62969213D01*
X129638530Y-63010824D01*
X129548120Y-63071234D01*
X129471234Y-63148120D01*
X129410824Y-63238530D01*
X129369213Y-63338988D01*
X129348000Y-63445633D01*
X113327193Y-63445633D01*
X113243044Y-63242481D01*
X113114236Y-63049706D01*
X112950294Y-62885764D01*
X112757519Y-62756956D01*
X112543318Y-62668231D01*
X112315924Y-62623000D01*
X112084076Y-62623000D01*
X111856682Y-62668231D01*
X111642481Y-62756956D01*
X111449706Y-62885764D01*
X111285764Y-63049706D01*
X111156956Y-63242481D01*
X111068231Y-63456682D01*
X111023000Y-63684076D01*
X110552000Y-63684076D01*
X110552000Y-61144076D01*
X111023000Y-61144076D01*
X111023000Y-61375924D01*
X111068231Y-61603318D01*
X111156956Y-61817519D01*
X111285764Y-62010294D01*
X111449706Y-62174236D01*
X111642481Y-62303044D01*
X111856682Y-62391769D01*
X112084076Y-62437000D01*
X112315924Y-62437000D01*
X112543318Y-62391769D01*
X112757519Y-62303044D01*
X112950294Y-62174236D01*
X113114236Y-62010294D01*
X113243044Y-61817519D01*
X113262464Y-61770633D01*
X121023000Y-61770633D01*
X121023000Y-61879367D01*
X121044213Y-61986012D01*
X121085824Y-62086470D01*
X121146234Y-62176880D01*
X121223120Y-62253766D01*
X121313530Y-62314176D01*
X121413988Y-62355787D01*
X121520633Y-62377000D01*
X121629367Y-62377000D01*
X121736012Y-62355787D01*
X121836470Y-62314176D01*
X121926880Y-62253766D01*
X122003766Y-62176880D01*
X122064176Y-62086470D01*
X122105787Y-61986012D01*
X122127000Y-61879367D01*
X122127000Y-61770633D01*
X122105787Y-61663988D01*
X122064176Y-61563530D01*
X122052218Y-61545633D01*
X122148000Y-61545633D01*
X122148000Y-61654367D01*
X122169213Y-61761012D01*
X122210824Y-61861470D01*
X122271234Y-61951880D01*
X122348120Y-62028766D01*
X122438530Y-62089176D01*
X122538988Y-62130787D01*
X122645633Y-62152000D01*
X122666625Y-62152000D01*
X122648000Y-62245633D01*
X122648000Y-62354367D01*
X122669213Y-62461012D01*
X122710824Y-62561470D01*
X122771234Y-62651880D01*
X122848120Y-62728766D01*
X122938530Y-62789176D01*
X123038988Y-62830787D01*
X123145633Y-62852000D01*
X123254367Y-62852000D01*
X123361012Y-62830787D01*
X123461470Y-62789176D01*
X123551880Y-62728766D01*
X123628766Y-62651880D01*
X123689176Y-62561470D01*
X123730787Y-62461012D01*
X123752000Y-62354367D01*
X123752000Y-62245633D01*
X123730787Y-62138988D01*
X123689176Y-62038530D01*
X123628766Y-61948120D01*
X123551880Y-61871234D01*
X123461470Y-61810824D01*
X123361012Y-61769213D01*
X123254367Y-61748000D01*
X123233375Y-61748000D01*
X123252000Y-61654367D01*
X123252000Y-61627903D01*
X127765730Y-61627903D01*
X127765730Y-61736637D01*
X127786943Y-61843282D01*
X127828554Y-61943740D01*
X127888964Y-62034150D01*
X127965850Y-62111036D01*
X128056260Y-62171446D01*
X128156718Y-62213057D01*
X128263363Y-62234270D01*
X128372097Y-62234270D01*
X128478742Y-62213057D01*
X128579200Y-62171446D01*
X128669610Y-62111036D01*
X128746496Y-62034150D01*
X128806906Y-61943740D01*
X128848517Y-61843282D01*
X128869730Y-61736637D01*
X128869730Y-61645633D01*
X129848000Y-61645633D01*
X129848000Y-61754367D01*
X129869213Y-61861012D01*
X129910824Y-61961470D01*
X129971234Y-62051880D01*
X130048120Y-62128766D01*
X130138530Y-62189176D01*
X130238988Y-62230787D01*
X130345633Y-62252000D01*
X130454367Y-62252000D01*
X130561012Y-62230787D01*
X130661470Y-62189176D01*
X130751880Y-62128766D01*
X130828766Y-62051880D01*
X130889176Y-61961470D01*
X130930787Y-61861012D01*
X130952000Y-61754367D01*
X130952000Y-61645633D01*
X130930787Y-61538988D01*
X130889176Y-61438530D01*
X130828766Y-61348120D01*
X130751880Y-61271234D01*
X130713566Y-61245633D01*
X132548000Y-61245633D01*
X132548000Y-61354367D01*
X132569213Y-61461012D01*
X132610824Y-61561470D01*
X132671234Y-61651880D01*
X132748120Y-61728766D01*
X132838530Y-61789176D01*
X132938988Y-61830787D01*
X133045633Y-61852000D01*
X133154367Y-61852000D01*
X133261012Y-61830787D01*
X133361470Y-61789176D01*
X133451880Y-61728766D01*
X133528766Y-61651880D01*
X133589176Y-61561470D01*
X133630787Y-61461012D01*
X133652000Y-61354367D01*
X133652000Y-61245633D01*
X133632109Y-61145633D01*
X139548000Y-61145633D01*
X139548000Y-61254367D01*
X139569213Y-61361012D01*
X139610824Y-61461470D01*
X139671234Y-61551880D01*
X139748120Y-61628766D01*
X139838530Y-61689176D01*
X139938988Y-61730787D01*
X140045633Y-61752000D01*
X140154367Y-61752000D01*
X140261012Y-61730787D01*
X140361470Y-61689176D01*
X140451880Y-61628766D01*
X140528766Y-61551880D01*
X140589176Y-61461470D01*
X140630787Y-61361012D01*
X140652000Y-61254367D01*
X140652000Y-61145633D01*
X140630787Y-61038988D01*
X140589176Y-60938530D01*
X140528766Y-60848120D01*
X140451880Y-60771234D01*
X140361470Y-60710824D01*
X140261012Y-60669213D01*
X140154367Y-60648000D01*
X140045633Y-60648000D01*
X139938988Y-60669213D01*
X139838530Y-60710824D01*
X139748120Y-60771234D01*
X139671234Y-60848120D01*
X139610824Y-60938530D01*
X139569213Y-61038988D01*
X139548000Y-61145633D01*
X133632109Y-61145633D01*
X133630787Y-61138988D01*
X133589176Y-61038530D01*
X133528766Y-60948120D01*
X133451880Y-60871234D01*
X133361470Y-60810824D01*
X133261012Y-60769213D01*
X133154367Y-60748000D01*
X133045633Y-60748000D01*
X132938988Y-60769213D01*
X132838530Y-60810824D01*
X132748120Y-60871234D01*
X132671234Y-60948120D01*
X132610824Y-61038530D01*
X132569213Y-61138988D01*
X132548000Y-61245633D01*
X130713566Y-61245633D01*
X130661470Y-61210824D01*
X130561012Y-61169213D01*
X130454367Y-61148000D01*
X130345633Y-61148000D01*
X130238988Y-61169213D01*
X130138530Y-61210824D01*
X130048120Y-61271234D01*
X129971234Y-61348120D01*
X129910824Y-61438530D01*
X129869213Y-61538988D01*
X129848000Y-61645633D01*
X128869730Y-61645633D01*
X128869730Y-61627903D01*
X128848517Y-61521258D01*
X128806906Y-61420800D01*
X128746496Y-61330390D01*
X128669610Y-61253504D01*
X128579200Y-61193094D01*
X128478742Y-61151483D01*
X128372097Y-61130270D01*
X128263363Y-61130270D01*
X128156718Y-61151483D01*
X128056260Y-61193094D01*
X127965850Y-61253504D01*
X127888964Y-61330390D01*
X127828554Y-61420800D01*
X127786943Y-61521258D01*
X127765730Y-61627903D01*
X123252000Y-61627903D01*
X123252000Y-61545633D01*
X123230787Y-61438988D01*
X123189176Y-61338530D01*
X123128766Y-61248120D01*
X123051880Y-61171234D01*
X122961470Y-61110824D01*
X122861012Y-61069213D01*
X122754367Y-61048000D01*
X122645633Y-61048000D01*
X122538988Y-61069213D01*
X122438530Y-61110824D01*
X122348120Y-61171234D01*
X122271234Y-61248120D01*
X122210824Y-61338530D01*
X122169213Y-61438988D01*
X122148000Y-61545633D01*
X122052218Y-61545633D01*
X122003766Y-61473120D01*
X121926880Y-61396234D01*
X121836470Y-61335824D01*
X121736012Y-61294213D01*
X121629367Y-61273000D01*
X121520633Y-61273000D01*
X121413988Y-61294213D01*
X121313530Y-61335824D01*
X121223120Y-61396234D01*
X121146234Y-61473120D01*
X121085824Y-61563530D01*
X121044213Y-61663988D01*
X121023000Y-61770633D01*
X113262464Y-61770633D01*
X113331769Y-61603318D01*
X113377000Y-61375924D01*
X113377000Y-61144076D01*
X113331769Y-60916682D01*
X113243044Y-60702481D01*
X113114236Y-60509706D01*
X112950294Y-60345764D01*
X112757519Y-60216956D01*
X112543318Y-60128231D01*
X112315924Y-60083000D01*
X112084076Y-60083000D01*
X111856682Y-60128231D01*
X111642481Y-60216956D01*
X111449706Y-60345764D01*
X111285764Y-60509706D01*
X111156956Y-60702481D01*
X111068231Y-60916682D01*
X111023000Y-61144076D01*
X110552000Y-61144076D01*
X110552000Y-56536890D01*
X110758524Y-56536890D01*
X110803175Y-56684099D01*
X110928359Y-56946920D01*
X111102412Y-57180269D01*
X111318645Y-57375178D01*
X111568748Y-57524157D01*
X111807179Y-57608736D01*
X111642481Y-57676956D01*
X111449706Y-57805764D01*
X111285764Y-57969706D01*
X111156956Y-58162481D01*
X111068231Y-58376682D01*
X111023000Y-58604076D01*
X111023000Y-58835924D01*
X111068231Y-59063318D01*
X111156956Y-59277519D01*
X111285764Y-59470294D01*
X111449706Y-59634236D01*
X111642481Y-59763044D01*
X111856682Y-59851769D01*
X112084076Y-59897000D01*
X112315924Y-59897000D01*
X112543318Y-59851769D01*
X112757519Y-59763044D01*
X112950294Y-59634236D01*
X113114236Y-59470294D01*
X113243044Y-59277519D01*
X113331769Y-59063318D01*
X113335286Y-59045633D01*
X121048000Y-59045633D01*
X121048000Y-59154367D01*
X121069213Y-59261012D01*
X121110824Y-59361470D01*
X121171234Y-59451880D01*
X121248120Y-59528766D01*
X121338530Y-59589176D01*
X121438988Y-59630787D01*
X121545633Y-59652000D01*
X121654367Y-59652000D01*
X121761012Y-59630787D01*
X121785525Y-59620633D01*
X122221952Y-59620633D01*
X122221952Y-59729367D01*
X122243165Y-59836012D01*
X122284776Y-59936470D01*
X122345186Y-60026880D01*
X122422072Y-60103766D01*
X122512482Y-60164176D01*
X122562719Y-60184985D01*
X122555297Y-60202904D01*
X122534084Y-60309549D01*
X122534084Y-60418283D01*
X122555297Y-60524928D01*
X122596908Y-60625386D01*
X122657318Y-60715796D01*
X122734204Y-60792682D01*
X122824614Y-60853092D01*
X122925072Y-60894703D01*
X123031717Y-60915916D01*
X123140451Y-60915916D01*
X123247096Y-60894703D01*
X123347554Y-60853092D01*
X123437964Y-60792682D01*
X123514850Y-60715796D01*
X123575260Y-60625386D01*
X123616871Y-60524928D01*
X123638084Y-60418283D01*
X123638084Y-60309549D01*
X123616871Y-60202904D01*
X123575260Y-60102446D01*
X123514850Y-60012036D01*
X123437964Y-59935150D01*
X123347554Y-59874740D01*
X123297317Y-59853931D01*
X123304739Y-59836012D01*
X123325952Y-59729367D01*
X123325952Y-59620633D01*
X123304739Y-59513988D01*
X123287310Y-59471910D01*
X123351880Y-59428766D01*
X123428766Y-59351880D01*
X123489176Y-59261470D01*
X123495735Y-59245633D01*
X126948000Y-59245633D01*
X126948000Y-59354367D01*
X126969213Y-59461012D01*
X127010824Y-59561470D01*
X127071234Y-59651880D01*
X127148120Y-59728766D01*
X127238530Y-59789176D01*
X127338988Y-59830787D01*
X127445633Y-59852000D01*
X127548000Y-59852000D01*
X127548000Y-59954367D01*
X127569213Y-60061012D01*
X127610824Y-60161470D01*
X127671234Y-60251880D01*
X127748120Y-60328766D01*
X127838530Y-60389176D01*
X127938988Y-60430787D01*
X128045633Y-60452000D01*
X128154367Y-60452000D01*
X128261012Y-60430787D01*
X128361470Y-60389176D01*
X128451880Y-60328766D01*
X128528766Y-60251880D01*
X128589176Y-60161470D01*
X128630787Y-60061012D01*
X128652000Y-59954367D01*
X128652000Y-59845633D01*
X128630787Y-59738988D01*
X128589176Y-59638530D01*
X128528766Y-59548120D01*
X128451880Y-59471234D01*
X128361470Y-59410824D01*
X128261012Y-59369213D01*
X128154367Y-59348000D01*
X128052000Y-59348000D01*
X128052000Y-59245633D01*
X128030787Y-59138988D01*
X127989176Y-59038530D01*
X127928766Y-58948120D01*
X127851880Y-58871234D01*
X127761470Y-58810824D01*
X127661012Y-58769213D01*
X127554367Y-58748000D01*
X127445633Y-58748000D01*
X127338988Y-58769213D01*
X127238530Y-58810824D01*
X127148120Y-58871234D01*
X127071234Y-58948120D01*
X127010824Y-59038530D01*
X126969213Y-59138988D01*
X126948000Y-59245633D01*
X123495735Y-59245633D01*
X123530787Y-59161012D01*
X123552000Y-59054367D01*
X123552000Y-58945633D01*
X123530787Y-58838988D01*
X123489176Y-58738530D01*
X123428766Y-58648120D01*
X123351880Y-58571234D01*
X123261470Y-58510824D01*
X123161012Y-58469213D01*
X123054367Y-58448000D01*
X122945633Y-58448000D01*
X122838988Y-58469213D01*
X122738530Y-58510824D01*
X122648120Y-58571234D01*
X122571234Y-58648120D01*
X122510824Y-58738530D01*
X122469213Y-58838988D01*
X122448000Y-58945633D01*
X122448000Y-59054367D01*
X122469213Y-59161012D01*
X122486642Y-59203090D01*
X122422072Y-59246234D01*
X122345186Y-59323120D01*
X122284776Y-59413530D01*
X122243165Y-59513988D01*
X122221952Y-59620633D01*
X121785525Y-59620633D01*
X121861470Y-59589176D01*
X121951880Y-59528766D01*
X122028766Y-59451880D01*
X122089176Y-59361470D01*
X122130787Y-59261012D01*
X122152000Y-59154367D01*
X122152000Y-59045633D01*
X122130787Y-58938988D01*
X122089176Y-58838530D01*
X122028766Y-58748120D01*
X121951880Y-58671234D01*
X121861470Y-58610824D01*
X121761012Y-58569213D01*
X121654367Y-58548000D01*
X121545633Y-58548000D01*
X121438988Y-58569213D01*
X121338530Y-58610824D01*
X121248120Y-58671234D01*
X121171234Y-58748120D01*
X121110824Y-58838530D01*
X121069213Y-58938988D01*
X121048000Y-59045633D01*
X113335286Y-59045633D01*
X113377000Y-58835924D01*
X113377000Y-58604076D01*
X113331769Y-58376682D01*
X113243044Y-58162481D01*
X113114236Y-57969706D01*
X112990163Y-57845633D01*
X138948000Y-57845633D01*
X138948000Y-57954367D01*
X138969213Y-58061012D01*
X139010824Y-58161470D01*
X139071234Y-58251880D01*
X139148120Y-58328766D01*
X139238530Y-58389176D01*
X139338988Y-58430787D01*
X139435578Y-58450000D01*
X139338988Y-58469213D01*
X139238530Y-58510824D01*
X139148120Y-58571234D01*
X139071234Y-58648120D01*
X139010824Y-58738530D01*
X138969213Y-58838988D01*
X138948000Y-58945633D01*
X138948000Y-59054367D01*
X138969213Y-59161012D01*
X139010824Y-59261470D01*
X139071234Y-59351880D01*
X139148120Y-59428766D01*
X139238530Y-59489176D01*
X139338988Y-59530787D01*
X139435578Y-59550000D01*
X139338988Y-59569213D01*
X139238530Y-59610824D01*
X139148120Y-59671234D01*
X139071234Y-59748120D01*
X139010824Y-59838530D01*
X138969213Y-59938988D01*
X138948000Y-60045633D01*
X138948000Y-60154367D01*
X138969213Y-60261012D01*
X139010824Y-60361470D01*
X139071234Y-60451880D01*
X139148120Y-60528766D01*
X139238530Y-60589176D01*
X139338988Y-60630787D01*
X139445633Y-60652000D01*
X139554367Y-60652000D01*
X139661012Y-60630787D01*
X139761470Y-60589176D01*
X139851880Y-60528766D01*
X139928766Y-60451880D01*
X139989176Y-60361470D01*
X140030787Y-60261012D01*
X140052000Y-60154367D01*
X140052000Y-60045633D01*
X140030787Y-59938988D01*
X139989176Y-59838530D01*
X139928766Y-59748120D01*
X139851880Y-59671234D01*
X139761470Y-59610824D01*
X139661012Y-59569213D01*
X139564422Y-59550000D01*
X139661012Y-59530787D01*
X139761470Y-59489176D01*
X139851880Y-59428766D01*
X139928766Y-59351880D01*
X139989176Y-59261470D01*
X140030787Y-59161012D01*
X140052000Y-59054367D01*
X140052000Y-58945633D01*
X140030787Y-58838988D01*
X139989176Y-58738530D01*
X139928766Y-58648120D01*
X139851880Y-58571234D01*
X139761470Y-58510824D01*
X139661012Y-58469213D01*
X139564422Y-58450000D01*
X139661012Y-58430787D01*
X139761470Y-58389176D01*
X139851880Y-58328766D01*
X139928766Y-58251880D01*
X139989176Y-58161470D01*
X140030787Y-58061012D01*
X140052000Y-57954367D01*
X140052000Y-57845633D01*
X140030787Y-57738988D01*
X139989176Y-57638530D01*
X139928766Y-57548120D01*
X139851880Y-57471234D01*
X139761470Y-57410824D01*
X139661012Y-57369213D01*
X139554367Y-57348000D01*
X139445633Y-57348000D01*
X139338988Y-57369213D01*
X139238530Y-57410824D01*
X139148120Y-57471234D01*
X139071234Y-57548120D01*
X139010824Y-57638530D01*
X138969213Y-57738988D01*
X138948000Y-57845633D01*
X112990163Y-57845633D01*
X112950294Y-57805764D01*
X112757519Y-57676956D01*
X112592821Y-57608736D01*
X112831252Y-57524157D01*
X113081355Y-57375178D01*
X113297588Y-57180269D01*
X113471641Y-56946920D01*
X113596825Y-56684099D01*
X113620556Y-56605859D01*
X121948000Y-56605859D01*
X121948000Y-56744141D01*
X121974977Y-56879766D01*
X122027895Y-57007522D01*
X122104721Y-57122499D01*
X122202501Y-57220279D01*
X122317478Y-57297105D01*
X122445234Y-57350023D01*
X122580859Y-57377000D01*
X122719141Y-57377000D01*
X122854766Y-57350023D01*
X122982522Y-57297105D01*
X123097499Y-57220279D01*
X123195279Y-57122499D01*
X123272105Y-57007522D01*
X123298000Y-56945006D01*
X123298000Y-56969141D01*
X123324977Y-57104766D01*
X123377895Y-57232522D01*
X123454721Y-57347499D01*
X123552501Y-57445279D01*
X123667478Y-57522105D01*
X123795234Y-57575023D01*
X123930859Y-57602000D01*
X124069141Y-57602000D01*
X124204766Y-57575023D01*
X124332522Y-57522105D01*
X124447499Y-57445279D01*
X124545279Y-57347499D01*
X124622105Y-57232522D01*
X124650000Y-57165177D01*
X124677895Y-57232522D01*
X124754721Y-57347499D01*
X124852501Y-57445279D01*
X124967478Y-57522105D01*
X125095234Y-57575023D01*
X125230859Y-57602000D01*
X125369141Y-57602000D01*
X125504766Y-57575023D01*
X125632522Y-57522105D01*
X125747499Y-57445279D01*
X125845279Y-57347499D01*
X125922105Y-57232522D01*
X125975023Y-57104766D01*
X126002000Y-56969141D01*
X126002000Y-56830859D01*
X128398000Y-56830859D01*
X128398000Y-56969141D01*
X128424977Y-57104766D01*
X128477895Y-57232522D01*
X128554721Y-57347499D01*
X128652501Y-57445279D01*
X128767478Y-57522105D01*
X128895234Y-57575023D01*
X129030859Y-57602000D01*
X129169141Y-57602000D01*
X129304766Y-57575023D01*
X129432522Y-57522105D01*
X129547499Y-57445279D01*
X129645279Y-57347499D01*
X129722105Y-57232522D01*
X129775023Y-57104766D01*
X129802000Y-56969141D01*
X129802000Y-56830859D01*
X129775023Y-56695234D01*
X129722105Y-56567478D01*
X129645279Y-56452501D01*
X129547499Y-56354721D01*
X129432522Y-56277895D01*
X129304766Y-56224977D01*
X129169141Y-56198000D01*
X129030859Y-56198000D01*
X128895234Y-56224977D01*
X128767478Y-56277895D01*
X128652501Y-56354721D01*
X128554721Y-56452501D01*
X128477895Y-56567478D01*
X128424977Y-56695234D01*
X128398000Y-56830859D01*
X126002000Y-56830859D01*
X125975023Y-56695234D01*
X125922105Y-56567478D01*
X125845279Y-56452501D01*
X125747499Y-56354721D01*
X125632522Y-56277895D01*
X125504766Y-56224977D01*
X125369141Y-56198000D01*
X125230859Y-56198000D01*
X125095234Y-56224977D01*
X124967478Y-56277895D01*
X124852501Y-56354721D01*
X124754721Y-56452501D01*
X124677895Y-56567478D01*
X124650000Y-56634823D01*
X124622105Y-56567478D01*
X124545279Y-56452501D01*
X124447499Y-56354721D01*
X124332522Y-56277895D01*
X124204766Y-56224977D01*
X124069141Y-56198000D01*
X123930859Y-56198000D01*
X123795234Y-56224977D01*
X123667478Y-56277895D01*
X123552501Y-56354721D01*
X123454721Y-56452501D01*
X123377895Y-56567478D01*
X123352000Y-56629994D01*
X123352000Y-56605859D01*
X123325023Y-56470234D01*
X123272105Y-56342478D01*
X123195279Y-56227501D01*
X123097499Y-56129721D01*
X122982522Y-56052895D01*
X122854766Y-55999977D01*
X122719141Y-55973000D01*
X122580859Y-55973000D01*
X122445234Y-55999977D01*
X122317478Y-56052895D01*
X122202501Y-56129721D01*
X122104721Y-56227501D01*
X122027895Y-56342478D01*
X121974977Y-56470234D01*
X121948000Y-56605859D01*
X113620556Y-56605859D01*
X113641476Y-56536890D01*
X113520155Y-56307000D01*
X112327000Y-56307000D01*
X112327000Y-56327000D01*
X112073000Y-56327000D01*
X112073000Y-56307000D01*
X110879845Y-56307000D01*
X110758524Y-56536890D01*
X110552000Y-56536890D01*
X110552000Y-55823110D01*
X110758524Y-55823110D01*
X110879845Y-56053000D01*
X112073000Y-56053000D01*
X112073000Y-56033000D01*
X112327000Y-56033000D01*
X112327000Y-56053000D01*
X113520155Y-56053000D01*
X113641476Y-55823110D01*
X113596825Y-55675901D01*
X113471641Y-55413080D01*
X113297588Y-55179731D01*
X113081355Y-54984822D01*
X112831252Y-54835843D01*
X112592821Y-54751264D01*
X112757519Y-54683044D01*
X112950294Y-54554236D01*
X113114236Y-54390294D01*
X113243044Y-54197519D01*
X113331769Y-53983318D01*
X113377000Y-53755924D01*
X113377000Y-53524076D01*
X113331769Y-53296682D01*
X113243044Y-53082481D01*
X113114236Y-52889706D01*
X112950294Y-52725764D01*
X112757519Y-52596956D01*
X112543318Y-52508231D01*
X112315924Y-52463000D01*
X112084076Y-52463000D01*
X111856682Y-52508231D01*
X111642481Y-52596956D01*
X111449706Y-52725764D01*
X111285764Y-52889706D01*
X111156956Y-53082481D01*
X111068231Y-53296682D01*
X111023000Y-53524076D01*
X111023000Y-53755924D01*
X111068231Y-53983318D01*
X111156956Y-54197519D01*
X111285764Y-54390294D01*
X111449706Y-54554236D01*
X111642481Y-54683044D01*
X111807179Y-54751264D01*
X111568748Y-54835843D01*
X111318645Y-54984822D01*
X111102412Y-55179731D01*
X110928359Y-55413080D01*
X110803175Y-55675901D01*
X110758524Y-55823110D01*
X110552000Y-55823110D01*
X110552000Y-50250000D01*
X111021418Y-50250000D01*
X111021418Y-51950000D01*
X111027732Y-52014103D01*
X111046430Y-52075743D01*
X111076794Y-52132550D01*
X111117657Y-52182343D01*
X111167450Y-52223206D01*
X111224257Y-52253570D01*
X111285897Y-52272268D01*
X111350000Y-52278582D01*
X113050000Y-52278582D01*
X113114103Y-52272268D01*
X113175743Y-52253570D01*
X113232550Y-52223206D01*
X113282343Y-52182343D01*
X113323206Y-52132550D01*
X113353570Y-52075743D01*
X113372268Y-52014103D01*
X113378582Y-51950000D01*
X113378582Y-50250000D01*
X113372268Y-50185897D01*
X113353570Y-50124257D01*
X113323206Y-50067450D01*
X113282343Y-50017657D01*
X113232550Y-49976794D01*
X113175743Y-49946430D01*
X113114103Y-49927732D01*
X113050000Y-49921418D01*
X111350000Y-49921418D01*
X111285897Y-49927732D01*
X111224257Y-49946430D01*
X111167450Y-49976794D01*
X111117657Y-50017657D01*
X111076794Y-50067450D01*
X111046430Y-50124257D01*
X111027732Y-50185897D01*
X111021418Y-50250000D01*
X110552000Y-50250000D01*
X110552000Y-48352000D01*
X122429994Y-48352000D01*
X122367478Y-48377895D01*
G37*
X122367478Y-48377895D02*
X122252501Y-48454721D01*
X122154721Y-48552501D01*
X122077895Y-48667478D01*
X122024977Y-48795234D01*
X121998000Y-48930859D01*
X121998000Y-49069141D01*
X122024977Y-49204766D01*
X122077895Y-49332522D01*
X122154721Y-49447499D01*
X122252501Y-49545279D01*
X122367478Y-49622105D01*
X122495234Y-49675023D01*
X122630859Y-49702000D01*
X122769141Y-49702000D01*
X122904766Y-49675023D01*
X123032522Y-49622105D01*
X123147499Y-49545279D01*
X123245279Y-49447499D01*
X123322105Y-49332522D01*
X123375023Y-49204766D01*
X123402000Y-49069141D01*
X123402000Y-49030859D01*
X128598000Y-49030859D01*
X128598000Y-49169141D01*
X128624977Y-49304766D01*
X128677895Y-49432522D01*
X128754721Y-49547499D01*
X128852501Y-49645279D01*
X128967478Y-49722105D01*
X129095234Y-49775023D01*
X129230859Y-49802000D01*
X129369141Y-49802000D01*
X129504766Y-49775023D01*
X129632522Y-49722105D01*
X129747499Y-49645279D01*
X129845279Y-49547499D01*
X129922105Y-49432522D01*
X129975023Y-49304766D01*
X130002000Y-49169141D01*
X130002000Y-49030859D01*
X129975023Y-48895234D01*
X129922105Y-48767478D01*
X129845279Y-48652501D01*
X129747499Y-48554721D01*
X129632522Y-48477895D01*
X129504766Y-48424977D01*
X129369141Y-48398000D01*
X129230859Y-48398000D01*
X129095234Y-48424977D01*
X128967478Y-48477895D01*
X128852501Y-48554721D01*
X128754721Y-48652501D01*
X128677895Y-48767478D01*
X128624977Y-48895234D01*
X128598000Y-49030859D01*
X123402000Y-49030859D01*
X123402000Y-48930859D01*
X123375023Y-48795234D01*
X123322105Y-48667478D01*
X123245279Y-48552501D01*
X123147499Y-48454721D01*
X123032522Y-48377895D01*
X122970006Y-48352000D01*
X133355222Y-48352000D01*
X133354721Y-48352501D01*
X133277895Y-48467478D01*
X133224977Y-48595234D01*
X133198000Y-48730859D01*
X133198000Y-48869141D01*
X133224977Y-49004766D01*
X133277895Y-49132522D01*
X133354721Y-49247499D01*
X133452501Y-49345279D01*
X133567478Y-49422105D01*
X133695234Y-49475023D01*
X133830859Y-49502000D01*
X133969141Y-49502000D01*
X134104766Y-49475023D01*
X134232522Y-49422105D01*
X134347499Y-49345279D01*
X134445279Y-49247499D01*
X134456397Y-49230859D01*
X135798000Y-49230859D01*
X135798000Y-49369141D01*
X135824977Y-49504766D01*
X135877895Y-49632522D01*
X135954721Y-49747499D01*
X136052501Y-49845279D01*
X136167478Y-49922105D01*
X136295234Y-49975023D01*
X136430859Y-50002000D01*
X136569141Y-50002000D01*
X136704766Y-49975023D01*
X136832522Y-49922105D01*
X136947499Y-49845279D01*
X137045279Y-49747499D01*
X137122105Y-49632522D01*
X137175023Y-49504766D01*
X137202000Y-49369141D01*
X137202000Y-49230859D01*
X137175023Y-49095234D01*
X137122105Y-48967478D01*
X137045279Y-48852501D01*
X136947499Y-48754721D01*
X136832522Y-48677895D01*
X136704766Y-48624977D01*
X136569141Y-48598000D01*
X136430859Y-48598000D01*
X136295234Y-48624977D01*
X136167478Y-48677895D01*
X136052501Y-48754721D01*
X135954721Y-48852501D01*
X135877895Y-48967478D01*
X135824977Y-49095234D01*
X135798000Y-49230859D01*
X134456397Y-49230859D01*
X134522105Y-49132522D01*
X134575023Y-49004766D01*
X134602000Y-48869141D01*
X134602000Y-48730859D01*
X134575023Y-48595234D01*
X134522105Y-48467478D01*
X134445279Y-48352501D01*
X134444778Y-48352000D01*
X152623001Y-48352000D01*
X152623000Y-84448000D01*
X110552000Y-84448000D01*
X110552000Y-83455859D01*
X140698000Y-83455859D01*
X140698000Y-83594141D01*
X140724977Y-83729766D01*
X140777895Y-83857522D01*
X140854721Y-83972499D01*
X140952501Y-84070279D01*
X141067478Y-84147105D01*
X141195234Y-84200023D01*
X141330859Y-84227000D01*
X141469141Y-84227000D01*
X141604766Y-84200023D01*
X141732522Y-84147105D01*
X141847499Y-84070279D01*
X141945279Y-83972499D01*
X142022105Y-83857522D01*
X142075023Y-83729766D01*
X142093060Y-83639085D01*
X142142478Y-83672105D01*
X142270234Y-83725023D01*
X142405859Y-83752000D01*
X142544141Y-83752000D01*
X142679766Y-83725023D01*
X142807522Y-83672105D01*
X142922499Y-83595279D01*
X143020279Y-83497499D01*
X143097105Y-83382522D01*
X143150023Y-83254766D01*
X143177000Y-83119141D01*
X143177000Y-82980859D01*
X143150023Y-82845234D01*
X143097105Y-82717478D01*
X143020279Y-82602501D01*
X142922499Y-82504721D01*
X142807522Y-82427895D01*
X142679766Y-82374977D01*
X142544141Y-82348000D01*
X142405859Y-82348000D01*
X142270234Y-82374977D01*
X142142478Y-82427895D01*
X142027501Y-82504721D01*
X141929721Y-82602501D01*
X141852895Y-82717478D01*
X141799977Y-82845234D01*
X141781940Y-82935915D01*
X141732522Y-82902895D01*
X141604766Y-82849977D01*
X141469141Y-82823000D01*
X141330859Y-82823000D01*
X141195234Y-82849977D01*
X141067478Y-82902895D01*
X140952501Y-82979721D01*
X140854721Y-83077501D01*
X140777895Y-83192478D01*
X140724977Y-83320234D01*
X140698000Y-83455859D01*
X110552000Y-83455859D01*
X110552000Y-81936890D01*
X110758524Y-81936890D01*
X110803175Y-82084099D01*
X110928359Y-82346920D01*
X111102412Y-82580269D01*
X111318645Y-82775178D01*
X111568748Y-82924157D01*
X111843109Y-83021481D01*
X112073000Y-82900814D01*
X112073000Y-81707000D01*
X112327000Y-81707000D01*
X112327000Y-82900814D01*
X112556891Y-83021481D01*
X112831252Y-82924157D01*
X113081355Y-82775178D01*
X113297588Y-82580269D01*
X113471641Y-82346920D01*
X113587456Y-82103768D01*
X127873522Y-82103768D01*
X127873522Y-82212502D01*
X127894735Y-82319147D01*
X127936346Y-82419605D01*
X127996756Y-82510015D01*
X128073642Y-82586901D01*
X128164052Y-82647311D01*
X128264510Y-82688922D01*
X128371155Y-82710135D01*
X128479889Y-82710135D01*
X128586534Y-82688922D01*
X128686992Y-82647311D01*
X128777402Y-82586901D01*
X128854288Y-82510015D01*
X128914698Y-82419605D01*
X128956309Y-82319147D01*
X128977522Y-82212502D01*
X128977522Y-82103768D01*
X128956309Y-81997123D01*
X128914698Y-81896665D01*
X128854288Y-81806255D01*
X128777402Y-81729369D01*
X128686992Y-81668959D01*
X128586534Y-81627348D01*
X128479889Y-81606135D01*
X128371155Y-81606135D01*
X128264510Y-81627348D01*
X128164052Y-81668959D01*
X128073642Y-81729369D01*
X127996756Y-81806255D01*
X127936346Y-81896665D01*
X127894735Y-81997123D01*
X127873522Y-82103768D01*
X113587456Y-82103768D01*
X113596825Y-82084099D01*
X113641476Y-81936890D01*
X113520155Y-81707000D01*
X112327000Y-81707000D01*
X112073000Y-81707000D01*
X110879845Y-81707000D01*
X110758524Y-81936890D01*
X110552000Y-81936890D01*
X110552000Y-81495644D01*
X129772999Y-81495644D01*
X129772999Y-81604378D01*
X129794212Y-81711023D01*
X129835823Y-81811481D01*
X129896233Y-81901891D01*
X129973119Y-81978777D01*
X130063529Y-82039187D01*
X130163987Y-82080798D01*
X130270632Y-82102011D01*
X130379366Y-82102011D01*
X130486011Y-82080798D01*
X130586469Y-82039187D01*
X130676879Y-81978777D01*
X130753765Y-81901891D01*
X130814175Y-81811481D01*
X130855786Y-81711023D01*
X130876999Y-81604378D01*
X130876999Y-81495644D01*
X130855786Y-81388999D01*
X130814175Y-81288541D01*
X130753765Y-81198131D01*
X130676879Y-81121245D01*
X130586469Y-81060835D01*
X130486011Y-81019224D01*
X130379366Y-80998011D01*
X130270632Y-80998011D01*
X130163987Y-81019224D01*
X130063529Y-81060835D01*
X129973119Y-81121245D01*
X129896233Y-81198131D01*
X129835823Y-81288541D01*
X129794212Y-81388999D01*
X129772999Y-81495644D01*
X110552000Y-81495644D01*
X110552000Y-79396890D01*
X110758524Y-79396890D01*
X110803175Y-79544099D01*
X110928359Y-79806920D01*
X111102412Y-80040269D01*
X111318645Y-80235178D01*
X111444255Y-80310000D01*
X111318645Y-80384822D01*
X111102412Y-80579731D01*
X110928359Y-80813080D01*
X110803175Y-81075901D01*
X110758524Y-81223110D01*
X110879845Y-81453000D01*
X112073000Y-81453000D01*
X112073000Y-79167000D01*
X112327000Y-79167000D01*
X112327000Y-81453000D01*
X113520155Y-81453000D01*
X113641476Y-81223110D01*
X113596825Y-81075901D01*
X113499055Y-80870633D01*
X132298000Y-80870633D01*
X132298000Y-80979367D01*
X132319213Y-81086012D01*
X132360824Y-81186470D01*
X132421234Y-81276880D01*
X132498120Y-81353766D01*
X132588530Y-81414176D01*
X132688988Y-81455787D01*
X132795633Y-81477000D01*
X132904367Y-81477000D01*
X133011012Y-81455787D01*
X133111470Y-81414176D01*
X133201880Y-81353766D01*
X133278766Y-81276880D01*
X133339176Y-81186470D01*
X133380787Y-81086012D01*
X133402000Y-80979367D01*
X133402000Y-80870633D01*
X133380787Y-80763988D01*
X133339176Y-80663530D01*
X133278766Y-80573120D01*
X133201880Y-80496234D01*
X133111470Y-80435824D01*
X133011012Y-80394213D01*
X132904367Y-80373000D01*
X132795633Y-80373000D01*
X132688988Y-80394213D01*
X132588530Y-80435824D01*
X132498120Y-80496234D01*
X132421234Y-80573120D01*
X132360824Y-80663530D01*
X132319213Y-80763988D01*
X132298000Y-80870633D01*
X113499055Y-80870633D01*
X113471641Y-80813080D01*
X113297588Y-80579731D01*
X113081355Y-80384822D01*
X112955745Y-80310000D01*
X113081355Y-80235178D01*
X113297588Y-80040269D01*
X113368176Y-79945633D01*
X149248000Y-79945633D01*
X149248000Y-80054367D01*
X149269213Y-80161012D01*
X149310824Y-80261470D01*
X149371234Y-80351880D01*
X149448120Y-80428766D01*
X149538530Y-80489176D01*
X149638988Y-80530787D01*
X149745633Y-80552000D01*
X149854367Y-80552000D01*
X149961012Y-80530787D01*
X150061470Y-80489176D01*
X150151880Y-80428766D01*
X150228766Y-80351880D01*
X150289176Y-80261470D01*
X150330787Y-80161012D01*
X150352000Y-80054367D01*
X150352000Y-79945633D01*
X150330787Y-79838988D01*
X150289176Y-79738530D01*
X150228766Y-79648120D01*
X150151880Y-79571234D01*
X150061470Y-79510824D01*
X149961012Y-79469213D01*
X149854367Y-79448000D01*
X149745633Y-79448000D01*
X149638988Y-79469213D01*
X149538530Y-79510824D01*
X149448120Y-79571234D01*
X149371234Y-79648120D01*
X149310824Y-79738530D01*
X149269213Y-79838988D01*
X149248000Y-79945633D01*
X113368176Y-79945633D01*
X113471641Y-79806920D01*
X113596825Y-79544099D01*
X113641476Y-79396890D01*
X113520155Y-79167000D01*
X112327000Y-79167000D01*
X112073000Y-79167000D01*
X110879845Y-79167000D01*
X110758524Y-79396890D01*
X110552000Y-79396890D01*
X110552000Y-78683110D01*
X110758524Y-78683110D01*
X110879845Y-78913000D01*
X112073000Y-78913000D01*
X112073000Y-78893000D01*
X112327000Y-78893000D01*
X112327000Y-78913000D01*
X113520155Y-78913000D01*
X113560904Y-78835784D01*
X132748000Y-78835784D01*
X132748000Y-78964216D01*
X132773056Y-79090181D01*
X132822205Y-79208838D01*
X132893558Y-79315626D01*
X132984374Y-79406442D01*
X133091162Y-79477795D01*
X133209819Y-79526944D01*
X133335784Y-79552000D01*
X133464216Y-79552000D01*
X133590181Y-79526944D01*
X133708838Y-79477795D01*
X133815626Y-79406442D01*
X133906442Y-79315626D01*
X133977795Y-79208838D01*
X134026944Y-79090181D01*
X134052000Y-78964216D01*
X134052000Y-78835784D01*
X134026944Y-78709819D01*
X133977795Y-78591162D01*
X133906442Y-78484374D01*
X133815626Y-78393558D01*
X133708838Y-78322205D01*
X133590181Y-78273056D01*
X133464216Y-78248000D01*
X133335784Y-78248000D01*
X133209819Y-78273056D01*
X133091162Y-78322205D01*
X132984374Y-78393558D01*
X132893558Y-78484374D01*
X132822205Y-78591162D01*
X132773056Y-78709819D01*
X132748000Y-78835784D01*
X113560904Y-78835784D01*
X113641476Y-78683110D01*
X113596825Y-78535901D01*
X113471641Y-78273080D01*
X113297588Y-78039731D01*
X113081355Y-77844822D01*
X112831252Y-77695843D01*
X112592821Y-77611264D01*
X112751268Y-77545633D01*
X135448000Y-77545633D01*
X135448000Y-77654367D01*
X135469213Y-77761012D01*
X135510824Y-77861470D01*
X135571234Y-77951880D01*
X135619354Y-78000000D01*
X135571234Y-78048120D01*
X135510824Y-78138530D01*
X135469213Y-78238988D01*
X135448000Y-78345633D01*
X135448000Y-78454367D01*
X135469213Y-78561012D01*
X135510824Y-78661470D01*
X135571234Y-78751880D01*
X135648120Y-78828766D01*
X135738530Y-78889176D01*
X135838988Y-78930787D01*
X135945633Y-78952000D01*
X136054367Y-78952000D01*
X136161012Y-78930787D01*
X136261470Y-78889176D01*
X136351880Y-78828766D01*
X136428766Y-78751880D01*
X136489176Y-78661470D01*
X136530787Y-78561012D01*
X136552000Y-78454367D01*
X136552000Y-78345633D01*
X136532109Y-78245633D01*
X138048000Y-78245633D01*
X138048000Y-78354367D01*
X138069213Y-78461012D01*
X138110824Y-78561470D01*
X138171234Y-78651880D01*
X138248120Y-78728766D01*
X138338530Y-78789176D01*
X138438988Y-78830787D01*
X138545633Y-78852000D01*
X138654367Y-78852000D01*
X138686488Y-78845611D01*
X138648110Y-78871254D01*
X138571224Y-78948140D01*
X138510814Y-79038550D01*
X138469203Y-79139008D01*
X138447990Y-79245653D01*
X138447990Y-79354387D01*
X138469203Y-79461032D01*
X138510814Y-79561490D01*
X138571224Y-79651900D01*
X138648110Y-79728786D01*
X138738520Y-79789196D01*
X138838978Y-79830807D01*
X138945623Y-79852020D01*
X139054357Y-79852020D01*
X139161002Y-79830807D01*
X139261460Y-79789196D01*
X139351870Y-79728786D01*
X139428756Y-79651900D01*
X139489166Y-79561490D01*
X139530777Y-79461032D01*
X139551990Y-79354387D01*
X139551990Y-79245653D01*
X139549003Y-79230635D01*
X142448000Y-79230635D01*
X142448000Y-79339369D01*
X142469213Y-79446014D01*
X142510824Y-79546472D01*
X142571234Y-79636882D01*
X142648120Y-79713768D01*
X142738530Y-79774178D01*
X142838988Y-79815789D01*
X142945633Y-79837002D01*
X143054367Y-79837002D01*
X143161012Y-79815789D01*
X143261470Y-79774178D01*
X143351880Y-79713768D01*
X143428766Y-79636882D01*
X143489176Y-79546472D01*
X143530787Y-79446014D01*
X143552000Y-79339369D01*
X143552000Y-79230635D01*
X143530787Y-79123990D01*
X143489176Y-79023532D01*
X143428766Y-78933122D01*
X143351880Y-78856236D01*
X143261470Y-78795826D01*
X143161012Y-78754215D01*
X143054367Y-78733002D01*
X142945633Y-78733002D01*
X142838988Y-78754215D01*
X142738530Y-78795826D01*
X142648120Y-78856236D01*
X142571234Y-78933122D01*
X142510824Y-79023532D01*
X142469213Y-79123990D01*
X142448000Y-79230635D01*
X139549003Y-79230635D01*
X139530777Y-79139008D01*
X139489166Y-79038550D01*
X139428756Y-78948140D01*
X139351870Y-78871254D01*
X139261460Y-78810844D01*
X139161002Y-78769233D01*
X139054357Y-78748020D01*
X138945623Y-78748020D01*
X138913502Y-78754409D01*
X138951880Y-78728766D01*
X139028766Y-78651880D01*
X139089176Y-78561470D01*
X139130787Y-78461012D01*
X139152000Y-78354367D01*
X139152000Y-78245633D01*
X139132109Y-78145633D01*
X140248000Y-78145633D01*
X140248000Y-78254367D01*
X140269213Y-78361012D01*
X140310824Y-78461470D01*
X140371234Y-78551880D01*
X140448120Y-78628766D01*
X140538530Y-78689176D01*
X140638988Y-78730787D01*
X140745633Y-78752000D01*
X140854367Y-78752000D01*
X140961012Y-78730787D01*
X141061470Y-78689176D01*
X141151880Y-78628766D01*
X141228766Y-78551880D01*
X141289176Y-78461470D01*
X141330787Y-78361012D01*
X141352000Y-78254367D01*
X141352000Y-78145633D01*
X141330787Y-78038988D01*
X141289176Y-77938530D01*
X141228766Y-77848120D01*
X141151880Y-77771234D01*
X141061470Y-77710824D01*
X140961012Y-77669213D01*
X140854367Y-77648000D01*
X140745633Y-77648000D01*
X140638988Y-77669213D01*
X140538530Y-77710824D01*
X140448120Y-77771234D01*
X140371234Y-77848120D01*
X140310824Y-77938530D01*
X140269213Y-78038988D01*
X140248000Y-78145633D01*
X139132109Y-78145633D01*
X139130787Y-78138988D01*
X139089176Y-78038530D01*
X139028766Y-77948120D01*
X138951880Y-77871234D01*
X138861470Y-77810824D01*
X138761012Y-77769213D01*
X138654367Y-77748000D01*
X138545633Y-77748000D01*
X138438988Y-77769213D01*
X138338530Y-77810824D01*
X138248120Y-77871234D01*
X138171234Y-77948120D01*
X138110824Y-78038530D01*
X138069213Y-78138988D01*
X138048000Y-78245633D01*
X136532109Y-78245633D01*
X136530787Y-78238988D01*
X136489176Y-78138530D01*
X136428766Y-78048120D01*
X136380646Y-78000000D01*
X136410320Y-77970326D01*
X136438530Y-77989176D01*
X136538988Y-78030787D01*
X136645633Y-78052000D01*
X136754367Y-78052000D01*
X136861012Y-78030787D01*
X136961470Y-77989176D01*
X137051880Y-77928766D01*
X137128766Y-77851880D01*
X137189176Y-77761470D01*
X137230787Y-77661012D01*
X137245405Y-77587524D01*
X137272643Y-77628289D01*
X137349529Y-77705175D01*
X137439939Y-77765585D01*
X137540397Y-77807196D01*
X137647042Y-77828409D01*
X137755776Y-77828409D01*
X137862421Y-77807196D01*
X137962879Y-77765585D01*
X138053289Y-77705175D01*
X138130175Y-77628289D01*
X138185403Y-77545633D01*
X148148000Y-77545633D01*
X148148000Y-77654367D01*
X148169213Y-77761012D01*
X148210824Y-77861470D01*
X148271234Y-77951880D01*
X148348120Y-78028766D01*
X148438530Y-78089176D01*
X148538988Y-78130787D01*
X148645633Y-78152000D01*
X148754367Y-78152000D01*
X148861012Y-78130787D01*
X148961470Y-78089176D01*
X149051880Y-78028766D01*
X149128766Y-77951880D01*
X149189176Y-77861470D01*
X149230787Y-77761012D01*
X149252000Y-77654367D01*
X149252000Y-77545633D01*
X149230787Y-77438988D01*
X149189176Y-77338530D01*
X149128766Y-77248120D01*
X149051880Y-77171234D01*
X148961470Y-77110824D01*
X148861012Y-77069213D01*
X148754367Y-77048000D01*
X148645633Y-77048000D01*
X148538988Y-77069213D01*
X148438530Y-77110824D01*
X148348120Y-77171234D01*
X148271234Y-77248120D01*
X148210824Y-77338530D01*
X148169213Y-77438988D01*
X148148000Y-77545633D01*
X138185403Y-77545633D01*
X138190585Y-77537879D01*
X138232196Y-77437421D01*
X138253409Y-77330776D01*
X138253409Y-77222042D01*
X138232196Y-77115397D01*
X138190585Y-77014939D01*
X138130175Y-76924529D01*
X138053289Y-76847643D01*
X137962879Y-76787233D01*
X137862421Y-76745622D01*
X137755776Y-76724409D01*
X137647042Y-76724409D01*
X137540397Y-76745622D01*
X137439939Y-76787233D01*
X137349529Y-76847643D01*
X137272643Y-76924529D01*
X137212233Y-77014939D01*
X137170622Y-77115397D01*
X137156004Y-77188885D01*
X137128766Y-77148120D01*
X137051880Y-77071234D01*
X136961470Y-77010824D01*
X136861012Y-76969213D01*
X136754367Y-76948000D01*
X136645633Y-76948000D01*
X136538988Y-76969213D01*
X136438530Y-77010824D01*
X136348120Y-77071234D01*
X136289680Y-77129674D01*
X136261470Y-77110824D01*
X136161012Y-77069213D01*
X136054367Y-77048000D01*
X135945633Y-77048000D01*
X135838988Y-77069213D01*
X135738530Y-77110824D01*
X135648120Y-77171234D01*
X135571234Y-77248120D01*
X135510824Y-77338530D01*
X135469213Y-77438988D01*
X135448000Y-77545633D01*
X112751268Y-77545633D01*
X112757519Y-77543044D01*
X112950294Y-77414236D01*
X113114236Y-77250294D01*
X113243044Y-77057519D01*
X113331769Y-76843318D01*
X113377000Y-76615924D01*
X113377000Y-76384076D01*
X113331769Y-76156682D01*
X113243044Y-75942481D01*
X113114236Y-75749706D01*
X112950294Y-75585764D01*
X112757519Y-75456956D01*
X112543318Y-75368231D01*
X112315924Y-75323000D01*
X112084076Y-75323000D01*
X111856682Y-75368231D01*
X111642481Y-75456956D01*
X111449706Y-75585764D01*
X111285764Y-75749706D01*
X111156956Y-75942481D01*
X111068231Y-76156682D01*
X111023000Y-76384076D01*
X111023000Y-76615924D01*
X111068231Y-76843318D01*
X111156956Y-77057519D01*
X111285764Y-77250294D01*
X111449706Y-77414236D01*
X111642481Y-77543044D01*
X111807179Y-77611264D01*
X111568748Y-77695843D01*
X111318645Y-77844822D01*
X111102412Y-78039731D01*
X110928359Y-78273080D01*
X110803175Y-78535901D01*
X110758524Y-78683110D01*
X110552000Y-78683110D01*
X110552000Y-73844076D01*
X111023000Y-73844076D01*
X111023000Y-74075924D01*
X111068231Y-74303318D01*
X111156956Y-74517519D01*
X111285764Y-74710294D01*
X111449706Y-74874236D01*
X111642481Y-75003044D01*
X111856682Y-75091769D01*
X112084076Y-75137000D01*
X112315924Y-75137000D01*
X112543318Y-75091769D01*
X112757519Y-75003044D01*
X112950294Y-74874236D01*
X113005674Y-74818856D01*
X128021223Y-74818856D01*
X128021223Y-74927590D01*
X128042436Y-75034235D01*
X128084047Y-75134693D01*
X128144457Y-75225103D01*
X128221343Y-75301989D01*
X128311753Y-75362399D01*
X128412211Y-75404010D01*
X128518856Y-75425223D01*
X128627590Y-75425223D01*
X128734235Y-75404010D01*
X128834693Y-75362399D01*
X128925103Y-75301989D01*
X129001989Y-75225103D01*
X129062399Y-75134693D01*
X129104010Y-75034235D01*
X129109025Y-75009025D01*
X129134235Y-75004010D01*
X129192906Y-74979708D01*
X129185419Y-74997782D01*
X129164206Y-75104427D01*
X129164206Y-75213161D01*
X129185419Y-75319806D01*
X129227030Y-75420264D01*
X129287440Y-75510674D01*
X129335560Y-75558794D01*
X129287440Y-75606914D01*
X129227030Y-75697324D01*
X129185419Y-75797782D01*
X129164206Y-75904427D01*
X129164206Y-76013161D01*
X129185419Y-76119806D01*
X129227030Y-76220264D01*
X129287440Y-76310674D01*
X129364326Y-76387560D01*
X129454736Y-76447970D01*
X129555194Y-76489581D01*
X129661839Y-76510794D01*
X129770573Y-76510794D01*
X129877218Y-76489581D01*
X129977676Y-76447970D01*
X130068086Y-76387560D01*
X130144972Y-76310674D01*
X130205382Y-76220264D01*
X130246993Y-76119806D01*
X130268206Y-76013161D01*
X130268206Y-75904427D01*
X130246993Y-75797782D01*
X130205382Y-75697324D01*
X130144972Y-75606914D01*
X130096852Y-75558794D01*
X130144972Y-75510674D01*
X130205382Y-75420264D01*
X130246993Y-75319806D01*
X130268206Y-75213161D01*
X130268206Y-75104427D01*
X130246993Y-74997782D01*
X130205382Y-74897324D01*
X130144972Y-74806914D01*
X130068086Y-74730028D01*
X129977676Y-74669618D01*
X129877218Y-74628007D01*
X129770573Y-74606794D01*
X129661839Y-74606794D01*
X129555194Y-74628007D01*
X129496523Y-74652309D01*
X129504010Y-74634235D01*
X129525223Y-74527590D01*
X129525223Y-74418856D01*
X129504010Y-74312211D01*
X129462399Y-74211753D01*
X129401989Y-74121343D01*
X129325103Y-74044457D01*
X129234693Y-73984047D01*
X129134235Y-73942436D01*
X129027590Y-73921223D01*
X128918856Y-73921223D01*
X128812211Y-73942436D01*
X128711753Y-73984047D01*
X128621343Y-74044457D01*
X128544457Y-74121343D01*
X128484047Y-74211753D01*
X128442436Y-74312211D01*
X128437421Y-74337421D01*
X128412211Y-74342436D01*
X128311753Y-74384047D01*
X128221343Y-74444457D01*
X128144457Y-74521343D01*
X128084047Y-74611753D01*
X128042436Y-74712211D01*
X128021223Y-74818856D01*
X113005674Y-74818856D01*
X113114236Y-74710294D01*
X113243044Y-74517519D01*
X113331769Y-74303318D01*
X113377000Y-74075924D01*
X113377000Y-73844076D01*
X113331769Y-73616682D01*
X113243044Y-73402481D01*
X113114236Y-73209706D01*
X112950294Y-73045764D01*
X112757519Y-72916956D01*
X112728505Y-72904938D01*
X124998000Y-72904938D01*
X124998000Y-73013672D01*
X125019213Y-73120317D01*
X125060824Y-73220775D01*
X125121234Y-73311185D01*
X125198120Y-73388071D01*
X125288530Y-73448481D01*
X125388988Y-73490092D01*
X125495633Y-73511305D01*
X125604367Y-73511305D01*
X125711012Y-73490092D01*
X125811470Y-73448481D01*
X125901880Y-73388071D01*
X125978766Y-73311185D01*
X126039176Y-73220775D01*
X126080787Y-73120317D01*
X126102000Y-73013672D01*
X126102000Y-72904938D01*
X126080787Y-72798293D01*
X126039176Y-72697835D01*
X125978766Y-72607425D01*
X125901880Y-72530539D01*
X125811470Y-72470129D01*
X125711012Y-72428518D01*
X125604367Y-72407305D01*
X125495633Y-72407305D01*
X125388988Y-72428518D01*
X125288530Y-72470129D01*
X125198120Y-72530539D01*
X125121234Y-72607425D01*
X125060824Y-72697835D01*
X125019213Y-72798293D01*
X124998000Y-72904938D01*
X112728505Y-72904938D01*
X112543318Y-72828231D01*
X112315924Y-72783000D01*
X112084076Y-72783000D01*
X111856682Y-72828231D01*
X111642481Y-72916956D01*
X111449706Y-73045764D01*
X111285764Y-73209706D01*
X111156956Y-73402481D01*
X111068231Y-73616682D01*
X111023000Y-73844076D01*
X110552000Y-73844076D01*
X110552000Y-71304076D01*
X111023000Y-71304076D01*
X111023000Y-71535924D01*
X111068231Y-71763318D01*
X111156956Y-71977519D01*
X111285764Y-72170294D01*
X111449706Y-72334236D01*
X111642481Y-72463044D01*
X111856682Y-72551769D01*
X112084076Y-72597000D01*
X112315924Y-72597000D01*
X112543318Y-72551769D01*
X112757519Y-72463044D01*
X112950294Y-72334236D01*
X113114236Y-72170294D01*
X113243044Y-71977519D01*
X113256251Y-71945633D01*
X119248000Y-71945633D01*
X119248000Y-72054367D01*
X119269213Y-72161012D01*
X119310824Y-72261470D01*
X119371234Y-72351880D01*
X119448120Y-72428766D01*
X119538530Y-72489176D01*
X119638988Y-72530787D01*
X119745633Y-72552000D01*
X119854367Y-72552000D01*
X119961012Y-72530787D01*
X120061470Y-72489176D01*
X120151880Y-72428766D01*
X120228766Y-72351880D01*
X120289176Y-72261470D01*
X120330787Y-72161012D01*
X120352000Y-72054367D01*
X120352000Y-71945633D01*
X120330787Y-71838988D01*
X120289176Y-71738530D01*
X120228766Y-71648120D01*
X120151880Y-71571234D01*
X120061470Y-71510824D01*
X119961012Y-71469213D01*
X119854367Y-71448000D01*
X119745633Y-71448000D01*
X119638988Y-71469213D01*
X119538530Y-71510824D01*
X119448120Y-71571234D01*
X119371234Y-71648120D01*
X119310824Y-71738530D01*
X119269213Y-71838988D01*
X119248000Y-71945633D01*
X113256251Y-71945633D01*
X113331769Y-71763318D01*
X113377000Y-71535924D01*
X113377000Y-71304076D01*
X113331769Y-71076682D01*
X113243044Y-70862481D01*
X113114236Y-70669706D01*
X112950294Y-70505764D01*
X112757519Y-70376956D01*
X112543318Y-70288231D01*
X112315924Y-70243000D01*
X112084076Y-70243000D01*
X111856682Y-70288231D01*
X111642481Y-70376956D01*
X111449706Y-70505764D01*
X111285764Y-70669706D01*
X111156956Y-70862481D01*
X111068231Y-71076682D01*
X111023000Y-71304076D01*
X110552000Y-71304076D01*
X110552000Y-68764076D01*
X111023000Y-68764076D01*
X111023000Y-68995924D01*
X111068231Y-69223318D01*
X111156956Y-69437519D01*
X111285764Y-69630294D01*
X111449706Y-69794236D01*
X111642481Y-69923044D01*
X111856682Y-70011769D01*
X112084076Y-70057000D01*
X112315924Y-70057000D01*
X112543318Y-70011769D01*
X112757519Y-69923044D01*
X112950294Y-69794236D01*
X113114236Y-69630294D01*
X113243044Y-69437519D01*
X113331769Y-69223318D01*
X113377000Y-68995924D01*
X113377000Y-68764076D01*
X113351482Y-68635784D01*
X119448000Y-68635784D01*
X119448000Y-68764216D01*
X119473056Y-68890181D01*
X119522205Y-69008838D01*
X119593558Y-69115626D01*
X119684374Y-69206442D01*
X119791162Y-69277795D01*
X119909819Y-69326944D01*
X120035784Y-69352000D01*
X120164216Y-69352000D01*
X120290181Y-69326944D01*
X120408838Y-69277795D01*
X120515626Y-69206442D01*
X120606442Y-69115626D01*
X120677795Y-69008838D01*
X120726944Y-68890181D01*
X120752000Y-68764216D01*
X120752000Y-68635784D01*
X120726944Y-68509819D01*
X120677795Y-68391162D01*
X120606442Y-68284374D01*
X120515626Y-68193558D01*
X120408838Y-68122205D01*
X120290181Y-68073056D01*
X120164216Y-68048000D01*
X120035784Y-68048000D01*
X119909819Y-68073056D01*
X119791162Y-68122205D01*
X119684374Y-68193558D01*
X119593558Y-68284374D01*
X119522205Y-68391162D01*
X119473056Y-68509819D01*
X119448000Y-68635784D01*
X113351482Y-68635784D01*
X113331769Y-68536682D01*
X113243044Y-68322481D01*
X113114236Y-68129706D01*
X112950294Y-67965764D01*
X112757519Y-67836956D01*
X112543318Y-67748231D01*
X112315924Y-67703000D01*
X112084076Y-67703000D01*
X111856682Y-67748231D01*
X111642481Y-67836956D01*
X111449706Y-67965764D01*
X111285764Y-68129706D01*
X111156956Y-68322481D01*
X111068231Y-68536682D01*
X111023000Y-68764076D01*
X110552000Y-68764076D01*
X110552000Y-66224076D01*
X111023000Y-66224076D01*
X111023000Y-66455924D01*
X111068231Y-66683318D01*
X111156956Y-66897519D01*
X111285764Y-67090294D01*
X111449706Y-67254236D01*
X111642481Y-67383044D01*
X111856682Y-67471769D01*
X112084076Y-67517000D01*
X112315924Y-67517000D01*
X112543318Y-67471769D01*
X112757519Y-67383044D01*
X112950294Y-67254236D01*
X112968746Y-67235784D01*
X122548000Y-67235784D01*
X122548000Y-67364216D01*
X122573056Y-67490181D01*
X122622205Y-67608838D01*
X122693558Y-67715626D01*
X122784374Y-67806442D01*
X122891162Y-67877795D01*
X123009819Y-67926944D01*
X123135784Y-67952000D01*
X123264216Y-67952000D01*
X123390181Y-67926944D01*
X123508838Y-67877795D01*
X123615626Y-67806442D01*
X123706442Y-67715626D01*
X123777795Y-67608838D01*
X123826944Y-67490181D01*
X123852000Y-67364216D01*
X123852000Y-67235784D01*
X123848987Y-67220633D01*
X127573000Y-67220633D01*
X127573000Y-67329367D01*
X127594213Y-67436012D01*
X127635824Y-67536470D01*
X127696234Y-67626880D01*
X127773120Y-67703766D01*
X127863530Y-67764176D01*
X127963988Y-67805787D01*
X128070633Y-67827000D01*
X128179367Y-67827000D01*
X128286012Y-67805787D01*
X128386470Y-67764176D01*
X128476880Y-67703766D01*
X128553766Y-67626880D01*
X128614176Y-67536470D01*
X128655787Y-67436012D01*
X128677000Y-67329367D01*
X128677000Y-67220633D01*
X128655787Y-67113988D01*
X128614176Y-67013530D01*
X128553766Y-66923120D01*
X128476880Y-66846234D01*
X128386470Y-66785824D01*
X128286012Y-66744213D01*
X128179367Y-66723000D01*
X128070633Y-66723000D01*
X127963988Y-66744213D01*
X127863530Y-66785824D01*
X127773120Y-66846234D01*
X127696234Y-66923120D01*
X127635824Y-67013530D01*
X127594213Y-67113988D01*
X127573000Y-67220633D01*
X123848987Y-67220633D01*
X123826944Y-67109819D01*
X123777795Y-66991162D01*
X123706442Y-66884374D01*
X123615626Y-66793558D01*
X123508838Y-66722205D01*
X123390181Y-66673056D01*
X123264216Y-66648000D01*
X123135784Y-66648000D01*
X123009819Y-66673056D01*
X122891162Y-66722205D01*
X122784374Y-66793558D01*
X122693558Y-66884374D01*
X122622205Y-66991162D01*
X122573056Y-67109819D01*
X122548000Y-67235784D01*
X112968746Y-67235784D01*
X113114236Y-67090294D01*
X113243044Y-66897519D01*
X113331769Y-66683318D01*
X113377000Y-66455924D01*
X113377000Y-66224076D01*
X113331769Y-65996682D01*
X113243044Y-65782481D01*
X113114236Y-65589706D01*
X112950294Y-65425764D01*
X112757519Y-65296956D01*
X112543318Y-65208231D01*
X112315924Y-65163000D01*
X112084076Y-65163000D01*
X111856682Y-65208231D01*
X111642481Y-65296956D01*
X111449706Y-65425764D01*
X111285764Y-65589706D01*
X111156956Y-65782481D01*
X111068231Y-65996682D01*
X111023000Y-66224076D01*
X110552000Y-66224076D01*
X110552000Y-63684076D01*
X111023000Y-63684076D01*
X111023000Y-63915924D01*
X111068231Y-64143318D01*
X111156956Y-64357519D01*
X111285764Y-64550294D01*
X111449706Y-64714236D01*
X111642481Y-64843044D01*
X111856682Y-64931769D01*
X112084076Y-64977000D01*
X112315924Y-64977000D01*
X112543318Y-64931769D01*
X112757519Y-64843044D01*
X112950294Y-64714236D01*
X113114236Y-64550294D01*
X113243044Y-64357519D01*
X113331769Y-64143318D01*
X113334247Y-64130859D01*
X121998000Y-64130859D01*
X121998000Y-64269141D01*
X122024977Y-64404766D01*
X122077895Y-64532522D01*
X122154721Y-64647499D01*
X122252501Y-64745279D01*
X122367478Y-64822105D01*
X122495234Y-64875023D01*
X122630859Y-64902000D01*
X122769141Y-64902000D01*
X122904766Y-64875023D01*
X123032522Y-64822105D01*
X123147499Y-64745279D01*
X123245279Y-64647499D01*
X123322105Y-64532522D01*
X123375023Y-64404766D01*
X123402000Y-64269141D01*
X123402000Y-64130859D01*
X123375023Y-63995234D01*
X123322105Y-63867478D01*
X123245279Y-63752501D01*
X123147499Y-63654721D01*
X123032522Y-63577895D01*
X122904766Y-63524977D01*
X122769141Y-63498000D01*
X122630859Y-63498000D01*
X122495234Y-63524977D01*
X122367478Y-63577895D01*
X122252501Y-63654721D01*
X122154721Y-63752501D01*
X122077895Y-63867478D01*
X122024977Y-63995234D01*
X121998000Y-64130859D01*
X113334247Y-64130859D01*
X113377000Y-63915924D01*
X113377000Y-63684076D01*
X113331769Y-63456682D01*
X113327193Y-63445633D01*
X129348000Y-63445633D01*
X129348000Y-63554367D01*
X129369213Y-63661012D01*
X129410824Y-63761470D01*
X129471234Y-63851880D01*
X129548120Y-63928766D01*
X129638530Y-63989176D01*
X129738988Y-64030787D01*
X129845633Y-64052000D01*
X129954367Y-64052000D01*
X130061012Y-64030787D01*
X130161470Y-63989176D01*
X130251880Y-63928766D01*
X130328766Y-63851880D01*
X130389176Y-63761470D01*
X130430787Y-63661012D01*
X130452000Y-63554367D01*
X130452000Y-63445633D01*
X130430787Y-63338988D01*
X130389176Y-63238530D01*
X130328766Y-63148120D01*
X130251880Y-63071234D01*
X130161470Y-63010824D01*
X130061012Y-62969213D01*
X129954367Y-62948000D01*
X129845633Y-62948000D01*
X129738988Y-62969213D01*
X129638530Y-63010824D01*
X129548120Y-63071234D01*
X129471234Y-63148120D01*
X129410824Y-63238530D01*
X129369213Y-63338988D01*
X129348000Y-63445633D01*
X113327193Y-63445633D01*
X113243044Y-63242481D01*
X113114236Y-63049706D01*
X112950294Y-62885764D01*
X112757519Y-62756956D01*
X112543318Y-62668231D01*
X112315924Y-62623000D01*
X112084076Y-62623000D01*
X111856682Y-62668231D01*
X111642481Y-62756956D01*
X111449706Y-62885764D01*
X111285764Y-63049706D01*
X111156956Y-63242481D01*
X111068231Y-63456682D01*
X111023000Y-63684076D01*
X110552000Y-63684076D01*
X110552000Y-61144076D01*
X111023000Y-61144076D01*
X111023000Y-61375924D01*
X111068231Y-61603318D01*
X111156956Y-61817519D01*
X111285764Y-62010294D01*
X111449706Y-62174236D01*
X111642481Y-62303044D01*
X111856682Y-62391769D01*
X112084076Y-62437000D01*
X112315924Y-62437000D01*
X112543318Y-62391769D01*
X112757519Y-62303044D01*
X112950294Y-62174236D01*
X113114236Y-62010294D01*
X113243044Y-61817519D01*
X113262464Y-61770633D01*
X121023000Y-61770633D01*
X121023000Y-61879367D01*
X121044213Y-61986012D01*
X121085824Y-62086470D01*
X121146234Y-62176880D01*
X121223120Y-62253766D01*
X121313530Y-62314176D01*
X121413988Y-62355787D01*
X121520633Y-62377000D01*
X121629367Y-62377000D01*
X121736012Y-62355787D01*
X121836470Y-62314176D01*
X121926880Y-62253766D01*
X122003766Y-62176880D01*
X122064176Y-62086470D01*
X122105787Y-61986012D01*
X122127000Y-61879367D01*
X122127000Y-61770633D01*
X122105787Y-61663988D01*
X122064176Y-61563530D01*
X122052218Y-61545633D01*
X122148000Y-61545633D01*
X122148000Y-61654367D01*
X122169213Y-61761012D01*
X122210824Y-61861470D01*
X122271234Y-61951880D01*
X122348120Y-62028766D01*
X122438530Y-62089176D01*
X122538988Y-62130787D01*
X122645633Y-62152000D01*
X122666625Y-62152000D01*
X122648000Y-62245633D01*
X122648000Y-62354367D01*
X122669213Y-62461012D01*
X122710824Y-62561470D01*
X122771234Y-62651880D01*
X122848120Y-62728766D01*
X122938530Y-62789176D01*
X123038988Y-62830787D01*
X123145633Y-62852000D01*
X123254367Y-62852000D01*
X123361012Y-62830787D01*
X123461470Y-62789176D01*
X123551880Y-62728766D01*
X123628766Y-62651880D01*
X123689176Y-62561470D01*
X123730787Y-62461012D01*
X123752000Y-62354367D01*
X123752000Y-62245633D01*
X123730787Y-62138988D01*
X123689176Y-62038530D01*
X123628766Y-61948120D01*
X123551880Y-61871234D01*
X123461470Y-61810824D01*
X123361012Y-61769213D01*
X123254367Y-61748000D01*
X123233375Y-61748000D01*
X123252000Y-61654367D01*
X123252000Y-61627903D01*
X127765730Y-61627903D01*
X127765730Y-61736637D01*
X127786943Y-61843282D01*
X127828554Y-61943740D01*
X127888964Y-62034150D01*
X127965850Y-62111036D01*
X128056260Y-62171446D01*
X128156718Y-62213057D01*
X128263363Y-62234270D01*
X128372097Y-62234270D01*
X128478742Y-62213057D01*
X128579200Y-62171446D01*
X128669610Y-62111036D01*
X128746496Y-62034150D01*
X128806906Y-61943740D01*
X128848517Y-61843282D01*
X128869730Y-61736637D01*
X128869730Y-61645633D01*
X129848000Y-61645633D01*
X129848000Y-61754367D01*
X129869213Y-61861012D01*
X129910824Y-61961470D01*
X129971234Y-62051880D01*
X130048120Y-62128766D01*
X130138530Y-62189176D01*
X130238988Y-62230787D01*
X130345633Y-62252000D01*
X130454367Y-62252000D01*
X130561012Y-62230787D01*
X130661470Y-62189176D01*
X130751880Y-62128766D01*
X130828766Y-62051880D01*
X130889176Y-61961470D01*
X130930787Y-61861012D01*
X130952000Y-61754367D01*
X130952000Y-61645633D01*
X130930787Y-61538988D01*
X130889176Y-61438530D01*
X130828766Y-61348120D01*
X130751880Y-61271234D01*
X130713566Y-61245633D01*
X132548000Y-61245633D01*
X132548000Y-61354367D01*
X132569213Y-61461012D01*
X132610824Y-61561470D01*
X132671234Y-61651880D01*
X132748120Y-61728766D01*
X132838530Y-61789176D01*
X132938988Y-61830787D01*
X133045633Y-61852000D01*
X133154367Y-61852000D01*
X133261012Y-61830787D01*
X133361470Y-61789176D01*
X133451880Y-61728766D01*
X133528766Y-61651880D01*
X133589176Y-61561470D01*
X133630787Y-61461012D01*
X133652000Y-61354367D01*
X133652000Y-61245633D01*
X133632109Y-61145633D01*
X139548000Y-61145633D01*
X139548000Y-61254367D01*
X139569213Y-61361012D01*
X139610824Y-61461470D01*
X139671234Y-61551880D01*
X139748120Y-61628766D01*
X139838530Y-61689176D01*
X139938988Y-61730787D01*
X140045633Y-61752000D01*
X140154367Y-61752000D01*
X140261012Y-61730787D01*
X140361470Y-61689176D01*
X140451880Y-61628766D01*
X140528766Y-61551880D01*
X140589176Y-61461470D01*
X140630787Y-61361012D01*
X140652000Y-61254367D01*
X140652000Y-61145633D01*
X140630787Y-61038988D01*
X140589176Y-60938530D01*
X140528766Y-60848120D01*
X140451880Y-60771234D01*
X140361470Y-60710824D01*
X140261012Y-60669213D01*
X140154367Y-60648000D01*
X140045633Y-60648000D01*
X139938988Y-60669213D01*
X139838530Y-60710824D01*
X139748120Y-60771234D01*
X139671234Y-60848120D01*
X139610824Y-60938530D01*
X139569213Y-61038988D01*
X139548000Y-61145633D01*
X133632109Y-61145633D01*
X133630787Y-61138988D01*
X133589176Y-61038530D01*
X133528766Y-60948120D01*
X133451880Y-60871234D01*
X133361470Y-60810824D01*
X133261012Y-60769213D01*
X133154367Y-60748000D01*
X133045633Y-60748000D01*
X132938988Y-60769213D01*
X132838530Y-60810824D01*
X132748120Y-60871234D01*
X132671234Y-60948120D01*
X132610824Y-61038530D01*
X132569213Y-61138988D01*
X132548000Y-61245633D01*
X130713566Y-61245633D01*
X130661470Y-61210824D01*
X130561012Y-61169213D01*
X130454367Y-61148000D01*
X130345633Y-61148000D01*
X130238988Y-61169213D01*
X130138530Y-61210824D01*
X130048120Y-61271234D01*
X129971234Y-61348120D01*
X129910824Y-61438530D01*
X129869213Y-61538988D01*
X129848000Y-61645633D01*
X128869730Y-61645633D01*
X128869730Y-61627903D01*
X128848517Y-61521258D01*
X128806906Y-61420800D01*
X128746496Y-61330390D01*
X128669610Y-61253504D01*
X128579200Y-61193094D01*
X128478742Y-61151483D01*
X128372097Y-61130270D01*
X128263363Y-61130270D01*
X128156718Y-61151483D01*
X128056260Y-61193094D01*
X127965850Y-61253504D01*
X127888964Y-61330390D01*
X127828554Y-61420800D01*
X127786943Y-61521258D01*
X127765730Y-61627903D01*
X123252000Y-61627903D01*
X123252000Y-61545633D01*
X123230787Y-61438988D01*
X123189176Y-61338530D01*
X123128766Y-61248120D01*
X123051880Y-61171234D01*
X122961470Y-61110824D01*
X122861012Y-61069213D01*
X122754367Y-61048000D01*
X122645633Y-61048000D01*
X122538988Y-61069213D01*
X122438530Y-61110824D01*
X122348120Y-61171234D01*
X122271234Y-61248120D01*
X122210824Y-61338530D01*
X122169213Y-61438988D01*
X122148000Y-61545633D01*
X122052218Y-61545633D01*
X122003766Y-61473120D01*
X121926880Y-61396234D01*
X121836470Y-61335824D01*
X121736012Y-61294213D01*
X121629367Y-61273000D01*
X121520633Y-61273000D01*
X121413988Y-61294213D01*
X121313530Y-61335824D01*
X121223120Y-61396234D01*
X121146234Y-61473120D01*
X121085824Y-61563530D01*
X121044213Y-61663988D01*
X121023000Y-61770633D01*
X113262464Y-61770633D01*
X113331769Y-61603318D01*
X113377000Y-61375924D01*
X113377000Y-61144076D01*
X113331769Y-60916682D01*
X113243044Y-60702481D01*
X113114236Y-60509706D01*
X112950294Y-60345764D01*
X112757519Y-60216956D01*
X112543318Y-60128231D01*
X112315924Y-60083000D01*
X112084076Y-60083000D01*
X111856682Y-60128231D01*
X111642481Y-60216956D01*
X111449706Y-60345764D01*
X111285764Y-60509706D01*
X111156956Y-60702481D01*
X111068231Y-60916682D01*
X111023000Y-61144076D01*
X110552000Y-61144076D01*
X110552000Y-56536890D01*
X110758524Y-56536890D01*
X110803175Y-56684099D01*
X110928359Y-56946920D01*
X111102412Y-57180269D01*
X111318645Y-57375178D01*
X111568748Y-57524157D01*
X111807179Y-57608736D01*
X111642481Y-57676956D01*
X111449706Y-57805764D01*
X111285764Y-57969706D01*
X111156956Y-58162481D01*
X111068231Y-58376682D01*
X111023000Y-58604076D01*
X111023000Y-58835924D01*
X111068231Y-59063318D01*
X111156956Y-59277519D01*
X111285764Y-59470294D01*
X111449706Y-59634236D01*
X111642481Y-59763044D01*
X111856682Y-59851769D01*
X112084076Y-59897000D01*
X112315924Y-59897000D01*
X112543318Y-59851769D01*
X112757519Y-59763044D01*
X112950294Y-59634236D01*
X113114236Y-59470294D01*
X113243044Y-59277519D01*
X113331769Y-59063318D01*
X113335286Y-59045633D01*
X121048000Y-59045633D01*
X121048000Y-59154367D01*
X121069213Y-59261012D01*
X121110824Y-59361470D01*
X121171234Y-59451880D01*
X121248120Y-59528766D01*
X121338530Y-59589176D01*
X121438988Y-59630787D01*
X121545633Y-59652000D01*
X121654367Y-59652000D01*
X121761012Y-59630787D01*
X121785525Y-59620633D01*
X122221952Y-59620633D01*
X122221952Y-59729367D01*
X122243165Y-59836012D01*
X122284776Y-59936470D01*
X122345186Y-60026880D01*
X122422072Y-60103766D01*
X122512482Y-60164176D01*
X122562719Y-60184985D01*
X122555297Y-60202904D01*
X122534084Y-60309549D01*
X122534084Y-60418283D01*
X122555297Y-60524928D01*
X122596908Y-60625386D01*
X122657318Y-60715796D01*
X122734204Y-60792682D01*
X122824614Y-60853092D01*
X122925072Y-60894703D01*
X123031717Y-60915916D01*
X123140451Y-60915916D01*
X123247096Y-60894703D01*
X123347554Y-60853092D01*
X123437964Y-60792682D01*
X123514850Y-60715796D01*
X123575260Y-60625386D01*
X123616871Y-60524928D01*
X123638084Y-60418283D01*
X123638084Y-60309549D01*
X123616871Y-60202904D01*
X123575260Y-60102446D01*
X123514850Y-60012036D01*
X123437964Y-59935150D01*
X123347554Y-59874740D01*
X123297317Y-59853931D01*
X123304739Y-59836012D01*
X123325952Y-59729367D01*
X123325952Y-59620633D01*
X123304739Y-59513988D01*
X123287310Y-59471910D01*
X123351880Y-59428766D01*
X123428766Y-59351880D01*
X123489176Y-59261470D01*
X123495735Y-59245633D01*
X126948000Y-59245633D01*
X126948000Y-59354367D01*
X126969213Y-59461012D01*
X127010824Y-59561470D01*
X127071234Y-59651880D01*
X127148120Y-59728766D01*
X127238530Y-59789176D01*
X127338988Y-59830787D01*
X127445633Y-59852000D01*
X127548000Y-59852000D01*
X127548000Y-59954367D01*
X127569213Y-60061012D01*
X127610824Y-60161470D01*
X127671234Y-60251880D01*
X127748120Y-60328766D01*
X127838530Y-60389176D01*
X127938988Y-60430787D01*
X128045633Y-60452000D01*
X128154367Y-60452000D01*
X128261012Y-60430787D01*
X128361470Y-60389176D01*
X128451880Y-60328766D01*
X128528766Y-60251880D01*
X128589176Y-60161470D01*
X128630787Y-60061012D01*
X128652000Y-59954367D01*
X128652000Y-59845633D01*
X128630787Y-59738988D01*
X128589176Y-59638530D01*
X128528766Y-59548120D01*
X128451880Y-59471234D01*
X128361470Y-59410824D01*
X128261012Y-59369213D01*
X128154367Y-59348000D01*
X128052000Y-59348000D01*
X128052000Y-59245633D01*
X128030787Y-59138988D01*
X127989176Y-59038530D01*
X127928766Y-58948120D01*
X127851880Y-58871234D01*
X127761470Y-58810824D01*
X127661012Y-58769213D01*
X127554367Y-58748000D01*
X127445633Y-58748000D01*
X127338988Y-58769213D01*
X127238530Y-58810824D01*
X127148120Y-58871234D01*
X127071234Y-58948120D01*
X127010824Y-59038530D01*
X126969213Y-59138988D01*
X126948000Y-59245633D01*
X123495735Y-59245633D01*
X123530787Y-59161012D01*
X123552000Y-59054367D01*
X123552000Y-58945633D01*
X123530787Y-58838988D01*
X123489176Y-58738530D01*
X123428766Y-58648120D01*
X123351880Y-58571234D01*
X123261470Y-58510824D01*
X123161012Y-58469213D01*
X123054367Y-58448000D01*
X122945633Y-58448000D01*
X122838988Y-58469213D01*
X122738530Y-58510824D01*
X122648120Y-58571234D01*
X122571234Y-58648120D01*
X122510824Y-58738530D01*
X122469213Y-58838988D01*
X122448000Y-58945633D01*
X122448000Y-59054367D01*
X122469213Y-59161012D01*
X122486642Y-59203090D01*
X122422072Y-59246234D01*
X122345186Y-59323120D01*
X122284776Y-59413530D01*
X122243165Y-59513988D01*
X122221952Y-59620633D01*
X121785525Y-59620633D01*
X121861470Y-59589176D01*
X121951880Y-59528766D01*
X122028766Y-59451880D01*
X122089176Y-59361470D01*
X122130787Y-59261012D01*
X122152000Y-59154367D01*
X122152000Y-59045633D01*
X122130787Y-58938988D01*
X122089176Y-58838530D01*
X122028766Y-58748120D01*
X121951880Y-58671234D01*
X121861470Y-58610824D01*
X121761012Y-58569213D01*
X121654367Y-58548000D01*
X121545633Y-58548000D01*
X121438988Y-58569213D01*
X121338530Y-58610824D01*
X121248120Y-58671234D01*
X121171234Y-58748120D01*
X121110824Y-58838530D01*
X121069213Y-58938988D01*
X121048000Y-59045633D01*
X113335286Y-59045633D01*
X113377000Y-58835924D01*
X113377000Y-58604076D01*
X113331769Y-58376682D01*
X113243044Y-58162481D01*
X113114236Y-57969706D01*
X112990163Y-57845633D01*
X138948000Y-57845633D01*
X138948000Y-57954367D01*
X138969213Y-58061012D01*
X139010824Y-58161470D01*
X139071234Y-58251880D01*
X139148120Y-58328766D01*
X139238530Y-58389176D01*
X139338988Y-58430787D01*
X139435578Y-58450000D01*
X139338988Y-58469213D01*
X139238530Y-58510824D01*
X139148120Y-58571234D01*
X139071234Y-58648120D01*
X139010824Y-58738530D01*
X138969213Y-58838988D01*
X138948000Y-58945633D01*
X138948000Y-59054367D01*
X138969213Y-59161012D01*
X139010824Y-59261470D01*
X139071234Y-59351880D01*
X139148120Y-59428766D01*
X139238530Y-59489176D01*
X139338988Y-59530787D01*
X139435578Y-59550000D01*
X139338988Y-59569213D01*
X139238530Y-59610824D01*
X139148120Y-59671234D01*
X139071234Y-59748120D01*
X139010824Y-59838530D01*
X138969213Y-59938988D01*
X138948000Y-60045633D01*
X138948000Y-60154367D01*
X138969213Y-60261012D01*
X139010824Y-60361470D01*
X139071234Y-60451880D01*
X139148120Y-60528766D01*
X139238530Y-60589176D01*
X139338988Y-60630787D01*
X139445633Y-60652000D01*
X139554367Y-60652000D01*
X139661012Y-60630787D01*
X139761470Y-60589176D01*
X139851880Y-60528766D01*
X139928766Y-60451880D01*
X139989176Y-60361470D01*
X140030787Y-60261012D01*
X140052000Y-60154367D01*
X140052000Y-60045633D01*
X140030787Y-59938988D01*
X139989176Y-59838530D01*
X139928766Y-59748120D01*
X139851880Y-59671234D01*
X139761470Y-59610824D01*
X139661012Y-59569213D01*
X139564422Y-59550000D01*
X139661012Y-59530787D01*
X139761470Y-59489176D01*
X139851880Y-59428766D01*
X139928766Y-59351880D01*
X139989176Y-59261470D01*
X140030787Y-59161012D01*
X140052000Y-59054367D01*
X140052000Y-58945633D01*
X140030787Y-58838988D01*
X139989176Y-58738530D01*
X139928766Y-58648120D01*
X139851880Y-58571234D01*
X139761470Y-58510824D01*
X139661012Y-58469213D01*
X139564422Y-58450000D01*
X139661012Y-58430787D01*
X139761470Y-58389176D01*
X139851880Y-58328766D01*
X139928766Y-58251880D01*
X139989176Y-58161470D01*
X140030787Y-58061012D01*
X140052000Y-57954367D01*
X140052000Y-57845633D01*
X140030787Y-57738988D01*
X139989176Y-57638530D01*
X139928766Y-57548120D01*
X139851880Y-57471234D01*
X139761470Y-57410824D01*
X139661012Y-57369213D01*
X139554367Y-57348000D01*
X139445633Y-57348000D01*
X139338988Y-57369213D01*
X139238530Y-57410824D01*
X139148120Y-57471234D01*
X139071234Y-57548120D01*
X139010824Y-57638530D01*
X138969213Y-57738988D01*
X138948000Y-57845633D01*
X112990163Y-57845633D01*
X112950294Y-57805764D01*
X112757519Y-57676956D01*
X112592821Y-57608736D01*
X112831252Y-57524157D01*
X113081355Y-57375178D01*
X113297588Y-57180269D01*
X113471641Y-56946920D01*
X113596825Y-56684099D01*
X113620556Y-56605859D01*
X121948000Y-56605859D01*
X121948000Y-56744141D01*
X121974977Y-56879766D01*
X122027895Y-57007522D01*
X122104721Y-57122499D01*
X122202501Y-57220279D01*
X122317478Y-57297105D01*
X122445234Y-57350023D01*
X122580859Y-57377000D01*
X122719141Y-57377000D01*
X122854766Y-57350023D01*
X122982522Y-57297105D01*
X123097499Y-57220279D01*
X123195279Y-57122499D01*
X123272105Y-57007522D01*
X123298000Y-56945006D01*
X123298000Y-56969141D01*
X123324977Y-57104766D01*
X123377895Y-57232522D01*
X123454721Y-57347499D01*
X123552501Y-57445279D01*
X123667478Y-57522105D01*
X123795234Y-57575023D01*
X123930859Y-57602000D01*
X124069141Y-57602000D01*
X124204766Y-57575023D01*
X124332522Y-57522105D01*
X124447499Y-57445279D01*
X124545279Y-57347499D01*
X124622105Y-57232522D01*
X124650000Y-57165177D01*
X124677895Y-57232522D01*
X124754721Y-57347499D01*
X124852501Y-57445279D01*
X124967478Y-57522105D01*
X125095234Y-57575023D01*
X125230859Y-57602000D01*
X125369141Y-57602000D01*
X125504766Y-57575023D01*
X125632522Y-57522105D01*
X125747499Y-57445279D01*
X125845279Y-57347499D01*
X125922105Y-57232522D01*
X125975023Y-57104766D01*
X126002000Y-56969141D01*
X126002000Y-56830859D01*
X128398000Y-56830859D01*
X128398000Y-56969141D01*
X128424977Y-57104766D01*
X128477895Y-57232522D01*
X128554721Y-57347499D01*
X128652501Y-57445279D01*
X128767478Y-57522105D01*
X128895234Y-57575023D01*
X129030859Y-57602000D01*
X129169141Y-57602000D01*
X129304766Y-57575023D01*
X129432522Y-57522105D01*
X129547499Y-57445279D01*
X129645279Y-57347499D01*
X129722105Y-57232522D01*
X129775023Y-57104766D01*
X129802000Y-56969141D01*
X129802000Y-56830859D01*
X129775023Y-56695234D01*
X129722105Y-56567478D01*
X129645279Y-56452501D01*
X129547499Y-56354721D01*
X129432522Y-56277895D01*
X129304766Y-56224977D01*
X129169141Y-56198000D01*
X129030859Y-56198000D01*
X128895234Y-56224977D01*
X128767478Y-56277895D01*
X128652501Y-56354721D01*
X128554721Y-56452501D01*
X128477895Y-56567478D01*
X128424977Y-56695234D01*
X128398000Y-56830859D01*
X126002000Y-56830859D01*
X125975023Y-56695234D01*
X125922105Y-56567478D01*
X125845279Y-56452501D01*
X125747499Y-56354721D01*
X125632522Y-56277895D01*
X125504766Y-56224977D01*
X125369141Y-56198000D01*
X125230859Y-56198000D01*
X125095234Y-56224977D01*
X124967478Y-56277895D01*
X124852501Y-56354721D01*
X124754721Y-56452501D01*
X124677895Y-56567478D01*
X124650000Y-56634823D01*
X124622105Y-56567478D01*
X124545279Y-56452501D01*
X124447499Y-56354721D01*
X124332522Y-56277895D01*
X124204766Y-56224977D01*
X124069141Y-56198000D01*
X123930859Y-56198000D01*
X123795234Y-56224977D01*
X123667478Y-56277895D01*
X123552501Y-56354721D01*
X123454721Y-56452501D01*
X123377895Y-56567478D01*
X123352000Y-56629994D01*
X123352000Y-56605859D01*
X123325023Y-56470234D01*
X123272105Y-56342478D01*
X123195279Y-56227501D01*
X123097499Y-56129721D01*
X122982522Y-56052895D01*
X122854766Y-55999977D01*
X122719141Y-55973000D01*
X122580859Y-55973000D01*
X122445234Y-55999977D01*
X122317478Y-56052895D01*
X122202501Y-56129721D01*
X122104721Y-56227501D01*
X122027895Y-56342478D01*
X121974977Y-56470234D01*
X121948000Y-56605859D01*
X113620556Y-56605859D01*
X113641476Y-56536890D01*
X113520155Y-56307000D01*
X112327000Y-56307000D01*
X112327000Y-56327000D01*
X112073000Y-56327000D01*
X112073000Y-56307000D01*
X110879845Y-56307000D01*
X110758524Y-56536890D01*
X110552000Y-56536890D01*
X110552000Y-55823110D01*
X110758524Y-55823110D01*
X110879845Y-56053000D01*
X112073000Y-56053000D01*
X112073000Y-56033000D01*
X112327000Y-56033000D01*
X112327000Y-56053000D01*
X113520155Y-56053000D01*
X113641476Y-55823110D01*
X113596825Y-55675901D01*
X113471641Y-55413080D01*
X113297588Y-55179731D01*
X113081355Y-54984822D01*
X112831252Y-54835843D01*
X112592821Y-54751264D01*
X112757519Y-54683044D01*
X112950294Y-54554236D01*
X113114236Y-54390294D01*
X113243044Y-54197519D01*
X113331769Y-53983318D01*
X113377000Y-53755924D01*
X113377000Y-53524076D01*
X113331769Y-53296682D01*
X113243044Y-53082481D01*
X113114236Y-52889706D01*
X112950294Y-52725764D01*
X112757519Y-52596956D01*
X112543318Y-52508231D01*
X112315924Y-52463000D01*
X112084076Y-52463000D01*
X111856682Y-52508231D01*
X111642481Y-52596956D01*
X111449706Y-52725764D01*
X111285764Y-52889706D01*
X111156956Y-53082481D01*
X111068231Y-53296682D01*
X111023000Y-53524076D01*
X111023000Y-53755924D01*
X111068231Y-53983318D01*
X111156956Y-54197519D01*
X111285764Y-54390294D01*
X111449706Y-54554236D01*
X111642481Y-54683044D01*
X111807179Y-54751264D01*
X111568748Y-54835843D01*
X111318645Y-54984822D01*
X111102412Y-55179731D01*
X110928359Y-55413080D01*
X110803175Y-55675901D01*
X110758524Y-55823110D01*
X110552000Y-55823110D01*
X110552000Y-50250000D01*
X111021418Y-50250000D01*
X111021418Y-51950000D01*
X111027732Y-52014103D01*
X111046430Y-52075743D01*
X111076794Y-52132550D01*
X111117657Y-52182343D01*
X111167450Y-52223206D01*
X111224257Y-52253570D01*
X111285897Y-52272268D01*
X111350000Y-52278582D01*
X113050000Y-52278582D01*
X113114103Y-52272268D01*
X113175743Y-52253570D01*
X113232550Y-52223206D01*
X113282343Y-52182343D01*
X113323206Y-52132550D01*
X113353570Y-52075743D01*
X113372268Y-52014103D01*
X113378582Y-51950000D01*
X113378582Y-50250000D01*
X113372268Y-50185897D01*
X113353570Y-50124257D01*
X113323206Y-50067450D01*
X113282343Y-50017657D01*
X113232550Y-49976794D01*
X113175743Y-49946430D01*
X113114103Y-49927732D01*
X113050000Y-49921418D01*
X111350000Y-49921418D01*
X111285897Y-49927732D01*
X111224257Y-49946430D01*
X111167450Y-49976794D01*
X111117657Y-50017657D01*
X111076794Y-50067450D01*
X111046430Y-50124257D01*
X111027732Y-50185897D01*
X111021418Y-50250000D01*
X110552000Y-50250000D01*
X110552000Y-48352000D01*
X122429994Y-48352000D01*
X122367478Y-48377895D01*
%TD*%
M02*
