%TF.GenerationSoftware,KiCad,Pcbnew,(5.1.6-0-10_14)*%
%TF.CreationDate,2020-07-19T12:27:42+02:00*%
%TF.ProjectId,driver-board,64726976-6572-42d6-926f-6172642e6b69,rev?*%
%TF.SameCoordinates,Original*%
%TF.FileFunction,Legend,Bot*%
%TF.FilePolarity,Positive*%
%FSLAX46Y46*%
G04 Gerber Fmt 4.6, Leading zero omitted, Abs format (unit mm)*
G04 Created by KiCad (PCBNEW (5.1.6-0-10_14)) date 2020-07-19 12:27:42*
%MOMM*%
%LPD*%
G01*
G04 APERTURE LIST*
%ADD10C,0.150000*%
%ADD11C,0.010000*%
G04 APERTURE END LIST*
D10*
X147790476Y-76461904D02*
X147790476Y-75661904D01*
X147447619Y-76461904D02*
X147447619Y-76042857D01*
X147485714Y-75966666D01*
X147561904Y-75928571D01*
X147676190Y-75928571D01*
X147752380Y-75966666D01*
X147790476Y-76004761D01*
X147180952Y-75928571D02*
X146876190Y-75928571D01*
X147066666Y-75661904D02*
X147066666Y-76347619D01*
X147028571Y-76423809D01*
X146952380Y-76461904D01*
X146876190Y-76461904D01*
X146723809Y-75928571D02*
X146419047Y-75928571D01*
X146609523Y-75661904D02*
X146609523Y-76347619D01*
X146571428Y-76423809D01*
X146495238Y-76461904D01*
X146419047Y-76461904D01*
X146152380Y-75928571D02*
X146152380Y-76728571D01*
X146152380Y-75966666D02*
X146076190Y-75928571D01*
X145923809Y-75928571D01*
X145847619Y-75966666D01*
X145809523Y-76004761D01*
X145771428Y-76080952D01*
X145771428Y-76309523D01*
X145809523Y-76385714D01*
X145847619Y-76423809D01*
X145923809Y-76461904D01*
X146076190Y-76461904D01*
X146152380Y-76423809D01*
X145466666Y-76423809D02*
X145390476Y-76461904D01*
X145238095Y-76461904D01*
X145161904Y-76423809D01*
X145123809Y-76347619D01*
X145123809Y-76309523D01*
X145161904Y-76233333D01*
X145238095Y-76195238D01*
X145352380Y-76195238D01*
X145428571Y-76157142D01*
X145466666Y-76080952D01*
X145466666Y-76042857D01*
X145428571Y-75966666D01*
X145352380Y-75928571D01*
X145238095Y-75928571D01*
X145161904Y-75966666D01*
X144780952Y-76385714D02*
X144742857Y-76423809D01*
X144780952Y-76461904D01*
X144819047Y-76423809D01*
X144780952Y-76385714D01*
X144780952Y-76461904D01*
X144780952Y-75966666D02*
X144742857Y-76004761D01*
X144780952Y-76042857D01*
X144819047Y-76004761D01*
X144780952Y-75966666D01*
X144780952Y-76042857D01*
X143828571Y-75623809D02*
X144514285Y-76652380D01*
X142990476Y-75623809D02*
X143676190Y-76652380D01*
X142380952Y-75928571D02*
X142380952Y-76576190D01*
X142419047Y-76652380D01*
X142457142Y-76690476D01*
X142533333Y-76728571D01*
X142647619Y-76728571D01*
X142723809Y-76690476D01*
X142380952Y-76423809D02*
X142457142Y-76461904D01*
X142609523Y-76461904D01*
X142685714Y-76423809D01*
X142723809Y-76385714D01*
X142761904Y-76309523D01*
X142761904Y-76080952D01*
X142723809Y-76004761D01*
X142685714Y-75966666D01*
X142609523Y-75928571D01*
X142457142Y-75928571D01*
X142380952Y-75966666D01*
X142000000Y-76461904D02*
X142000000Y-75928571D01*
X142000000Y-75661904D02*
X142038095Y-75700000D01*
X142000000Y-75738095D01*
X141961904Y-75700000D01*
X142000000Y-75661904D01*
X142000000Y-75738095D01*
X141733333Y-75928571D02*
X141428571Y-75928571D01*
X141619047Y-75661904D02*
X141619047Y-76347619D01*
X141580952Y-76423809D01*
X141504761Y-76461904D01*
X141428571Y-76461904D01*
X141161904Y-76461904D02*
X141161904Y-75661904D01*
X140819047Y-76461904D02*
X140819047Y-76042857D01*
X140857142Y-75966666D01*
X140933333Y-75928571D01*
X141047619Y-75928571D01*
X141123809Y-75966666D01*
X141161904Y-76004761D01*
X140095238Y-75928571D02*
X140095238Y-76461904D01*
X140438095Y-75928571D02*
X140438095Y-76347619D01*
X140400000Y-76423809D01*
X140323809Y-76461904D01*
X140209523Y-76461904D01*
X140133333Y-76423809D01*
X140095238Y-76385714D01*
X139714285Y-76461904D02*
X139714285Y-75661904D01*
X139714285Y-75966666D02*
X139638095Y-75928571D01*
X139485714Y-75928571D01*
X139409523Y-75966666D01*
X139371428Y-76004761D01*
X139333333Y-76080952D01*
X139333333Y-76309523D01*
X139371428Y-76385714D01*
X139409523Y-76423809D01*
X139485714Y-76461904D01*
X139638095Y-76461904D01*
X139714285Y-76423809D01*
X138990476Y-76385714D02*
X138952380Y-76423809D01*
X138990476Y-76461904D01*
X139028571Y-76423809D01*
X138990476Y-76385714D01*
X138990476Y-76461904D01*
X138266666Y-76423809D02*
X138342857Y-76461904D01*
X138495238Y-76461904D01*
X138571428Y-76423809D01*
X138609523Y-76385714D01*
X138647619Y-76309523D01*
X138647619Y-76080952D01*
X138609523Y-76004761D01*
X138571428Y-75966666D01*
X138495238Y-75928571D01*
X138342857Y-75928571D01*
X138266666Y-75966666D01*
X137809523Y-76461904D02*
X137885714Y-76423809D01*
X137923809Y-76385714D01*
X137961904Y-76309523D01*
X137961904Y-76080952D01*
X137923809Y-76004761D01*
X137885714Y-75966666D01*
X137809523Y-75928571D01*
X137695238Y-75928571D01*
X137619047Y-75966666D01*
X137580952Y-76004761D01*
X137542857Y-76080952D01*
X137542857Y-76309523D01*
X137580952Y-76385714D01*
X137619047Y-76423809D01*
X137695238Y-76461904D01*
X137809523Y-76461904D01*
X137200000Y-76461904D02*
X137200000Y-75928571D01*
X137200000Y-76004761D02*
X137161904Y-75966666D01*
X137085714Y-75928571D01*
X136971428Y-75928571D01*
X136895238Y-75966666D01*
X136857142Y-76042857D01*
X136857142Y-76461904D01*
X136857142Y-76042857D02*
X136819047Y-75966666D01*
X136742857Y-75928571D01*
X136628571Y-75928571D01*
X136552380Y-75966666D01*
X136514285Y-76042857D01*
X136514285Y-76461904D01*
X135561904Y-75623809D02*
X136247619Y-76652380D01*
X135295238Y-76461904D02*
X135295238Y-75661904D01*
X135295238Y-75966666D02*
X135219047Y-75928571D01*
X135066666Y-75928571D01*
X134990476Y-75966666D01*
X134952380Y-76004761D01*
X134914285Y-76080952D01*
X134914285Y-76309523D01*
X134952380Y-76385714D01*
X134990476Y-76423809D01*
X135066666Y-76461904D01*
X135219047Y-76461904D01*
X135295238Y-76423809D01*
X134457142Y-76461904D02*
X134533333Y-76423809D01*
X134571428Y-76347619D01*
X134571428Y-75661904D01*
X133809523Y-76461904D02*
X133809523Y-76042857D01*
X133847619Y-75966666D01*
X133923809Y-75928571D01*
X134076190Y-75928571D01*
X134152380Y-75966666D01*
X133809523Y-76423809D02*
X133885714Y-76461904D01*
X134076190Y-76461904D01*
X134152380Y-76423809D01*
X134190476Y-76347619D01*
X134190476Y-76271428D01*
X134152380Y-76195238D01*
X134076190Y-76157142D01*
X133885714Y-76157142D01*
X133809523Y-76119047D01*
X133504761Y-75928571D02*
X133085714Y-75928571D01*
X133504761Y-76461904D01*
X133085714Y-76461904D01*
X132476190Y-76423809D02*
X132552380Y-76461904D01*
X132704761Y-76461904D01*
X132780952Y-76423809D01*
X132819047Y-76347619D01*
X132819047Y-76042857D01*
X132780952Y-75966666D01*
X132704761Y-75928571D01*
X132552380Y-75928571D01*
X132476190Y-75966666D01*
X132438095Y-76042857D01*
X132438095Y-76119047D01*
X132819047Y-76195238D01*
X132095238Y-76461904D02*
X132095238Y-75928571D01*
X132095238Y-76080952D02*
X132057142Y-76004761D01*
X132019047Y-75966666D01*
X131942857Y-75928571D01*
X131866666Y-75928571D01*
X131485714Y-76004761D02*
X131561904Y-75966666D01*
X131600000Y-75928571D01*
X131638095Y-75852380D01*
X131638095Y-75814285D01*
X131600000Y-75738095D01*
X131561904Y-75700000D01*
X131485714Y-75661904D01*
X131333333Y-75661904D01*
X131257142Y-75700000D01*
X131219047Y-75738095D01*
X131180952Y-75814285D01*
X131180952Y-75852380D01*
X131219047Y-75928571D01*
X131257142Y-75966666D01*
X131333333Y-76004761D01*
X131485714Y-76004761D01*
X131561904Y-76042857D01*
X131600000Y-76080952D01*
X131638095Y-76157142D01*
X131638095Y-76309523D01*
X131600000Y-76385714D01*
X131561904Y-76423809D01*
X131485714Y-76461904D01*
X131333333Y-76461904D01*
X131257142Y-76423809D01*
X131219047Y-76385714D01*
X131180952Y-76309523D01*
X131180952Y-76157142D01*
X131219047Y-76080952D01*
X131257142Y-76042857D01*
X131333333Y-76004761D01*
X130876190Y-75738095D02*
X130838095Y-75700000D01*
X130761904Y-75661904D01*
X130571428Y-75661904D01*
X130495238Y-75700000D01*
X130457142Y-75738095D01*
X130419047Y-75814285D01*
X130419047Y-75890476D01*
X130457142Y-76004761D01*
X130914285Y-76461904D01*
X130419047Y-76461904D01*
X129504761Y-75623809D02*
X130190476Y-76652380D01*
X128971428Y-76042857D02*
X129238095Y-76042857D01*
X129238095Y-76461904D02*
X129238095Y-75661904D01*
X128857142Y-75661904D01*
X128666666Y-75661904D02*
X128209523Y-75661904D01*
X128438095Y-76461904D02*
X128438095Y-75661904D01*
X127828571Y-76004761D02*
X127904761Y-75966666D01*
X127942857Y-75928571D01*
X127980952Y-75852380D01*
X127980952Y-75814285D01*
X127942857Y-75738095D01*
X127904761Y-75700000D01*
X127828571Y-75661904D01*
X127676190Y-75661904D01*
X127600000Y-75700000D01*
X127561904Y-75738095D01*
X127523809Y-75814285D01*
X127523809Y-75852380D01*
X127561904Y-75928571D01*
X127600000Y-75966666D01*
X127676190Y-76004761D01*
X127828571Y-76004761D01*
X127904761Y-76042857D01*
X127942857Y-76080952D01*
X127980952Y-76157142D01*
X127980952Y-76309523D01*
X127942857Y-76385714D01*
X127904761Y-76423809D01*
X127828571Y-76461904D01*
X127676190Y-76461904D01*
X127600000Y-76423809D01*
X127561904Y-76385714D01*
X127523809Y-76309523D01*
X127523809Y-76157142D01*
X127561904Y-76080952D01*
X127600000Y-76042857D01*
X127676190Y-76004761D01*
X126761904Y-76461904D02*
X127219047Y-76461904D01*
X126990476Y-76461904D02*
X126990476Y-75661904D01*
X127066666Y-75776190D01*
X127142857Y-75852380D01*
X127219047Y-75890476D01*
X126495238Y-76461904D02*
X126076190Y-75928571D01*
X126495238Y-75928571D02*
X126076190Y-76461904D01*
X125961904Y-76538095D02*
X125352380Y-76538095D01*
X125200000Y-76233333D02*
X124819047Y-76233333D01*
X125276190Y-76461904D02*
X125009523Y-75661904D01*
X124742857Y-76461904D01*
X124476190Y-76461904D02*
X124476190Y-75928571D01*
X124476190Y-76080952D02*
X124438095Y-76004761D01*
X124400000Y-75966666D01*
X124323809Y-75928571D01*
X124247619Y-75928571D01*
X123638095Y-76461904D02*
X123638095Y-75661904D01*
X123638095Y-76423809D02*
X123714285Y-76461904D01*
X123866666Y-76461904D01*
X123942857Y-76423809D01*
X123980952Y-76385714D01*
X124019047Y-76309523D01*
X124019047Y-76080952D01*
X123980952Y-76004761D01*
X123942857Y-75966666D01*
X123866666Y-75928571D01*
X123714285Y-75928571D01*
X123638095Y-75966666D01*
X122914285Y-75928571D02*
X122914285Y-76461904D01*
X123257142Y-75928571D02*
X123257142Y-76347619D01*
X123219047Y-76423809D01*
X123142857Y-76461904D01*
X123028571Y-76461904D01*
X122952380Y-76423809D01*
X122914285Y-76385714D01*
X122533333Y-76461904D02*
X122533333Y-75928571D01*
X122533333Y-75661904D02*
X122571428Y-75700000D01*
X122533333Y-75738095D01*
X122495238Y-75700000D01*
X122533333Y-75661904D01*
X122533333Y-75738095D01*
X122152380Y-75928571D02*
X122152380Y-76461904D01*
X122152380Y-76004761D02*
X122114285Y-75966666D01*
X122038095Y-75928571D01*
X121923809Y-75928571D01*
X121847619Y-75966666D01*
X121809523Y-76042857D01*
X121809523Y-76461904D01*
X121314285Y-76461904D02*
X121390476Y-76423809D01*
X121428571Y-76385714D01*
X121466666Y-76309523D01*
X121466666Y-76080952D01*
X121428571Y-76004761D01*
X121390476Y-75966666D01*
X121314285Y-75928571D01*
X121200000Y-75928571D01*
X121123809Y-75966666D01*
X121085714Y-76004761D01*
X121047619Y-76080952D01*
X121047619Y-76309523D01*
X121085714Y-76385714D01*
X121123809Y-76423809D01*
X121200000Y-76461904D01*
X121314285Y-76461904D01*
X120895238Y-76538095D02*
X120285714Y-76538095D01*
X120095238Y-76461904D02*
X120095238Y-75661904D01*
X119904761Y-75661904D01*
X119790476Y-75700000D01*
X119714285Y-75776190D01*
X119676190Y-75852380D01*
X119638095Y-76004761D01*
X119638095Y-76119047D01*
X119676190Y-76271428D01*
X119714285Y-76347619D01*
X119790476Y-76423809D01*
X119904761Y-76461904D01*
X120095238Y-76461904D01*
X119295238Y-76461904D02*
X119295238Y-75928571D01*
X119295238Y-76080952D02*
X119257142Y-76004761D01*
X119219047Y-75966666D01*
X119142857Y-75928571D01*
X119066666Y-75928571D01*
X118800000Y-76461904D02*
X118800000Y-75928571D01*
X118800000Y-75661904D02*
X118838095Y-75700000D01*
X118800000Y-75738095D01*
X118761904Y-75700000D01*
X118800000Y-75661904D01*
X118800000Y-75738095D01*
X118495238Y-75928571D02*
X118304761Y-76461904D01*
X118114285Y-75928571D01*
X117504761Y-76423809D02*
X117580952Y-76461904D01*
X117733333Y-76461904D01*
X117809523Y-76423809D01*
X117847619Y-76347619D01*
X117847619Y-76042857D01*
X117809523Y-75966666D01*
X117733333Y-75928571D01*
X117580952Y-75928571D01*
X117504761Y-75966666D01*
X117466666Y-76042857D01*
X117466666Y-76119047D01*
X117847619Y-76195238D01*
X117123809Y-76461904D02*
X117123809Y-75928571D01*
X117123809Y-76080952D02*
X117085714Y-76004761D01*
X117047619Y-75966666D01*
X116971428Y-75928571D01*
X116895238Y-75928571D01*
X141380952Y-70532142D02*
X141428571Y-70579761D01*
X141571428Y-70627380D01*
X141666666Y-70627380D01*
X141809523Y-70579761D01*
X141904761Y-70484523D01*
X141952380Y-70389285D01*
X142000000Y-70198809D01*
X142000000Y-70055952D01*
X141952380Y-69865476D01*
X141904761Y-69770238D01*
X141809523Y-69675000D01*
X141666666Y-69627380D01*
X141571428Y-69627380D01*
X141428571Y-69675000D01*
X141380952Y-69722619D01*
X140809523Y-70627380D02*
X140904761Y-70579761D01*
X140952380Y-70532142D01*
X141000000Y-70436904D01*
X141000000Y-70151190D01*
X140952380Y-70055952D01*
X140904761Y-70008333D01*
X140809523Y-69960714D01*
X140666666Y-69960714D01*
X140571428Y-70008333D01*
X140523809Y-70055952D01*
X140476190Y-70151190D01*
X140476190Y-70436904D01*
X140523809Y-70532142D01*
X140571428Y-70579761D01*
X140666666Y-70627380D01*
X140809523Y-70627380D01*
X140047619Y-69960714D02*
X140047619Y-70960714D01*
X140047619Y-70008333D02*
X139952380Y-69960714D01*
X139761904Y-69960714D01*
X139666666Y-70008333D01*
X139619047Y-70055952D01*
X139571428Y-70151190D01*
X139571428Y-70436904D01*
X139619047Y-70532142D01*
X139666666Y-70579761D01*
X139761904Y-70627380D01*
X139952380Y-70627380D01*
X140047619Y-70579761D01*
X139238095Y-69960714D02*
X139000000Y-70627380D01*
X138761904Y-69960714D02*
X139000000Y-70627380D01*
X139095238Y-70865476D01*
X139142857Y-70913095D01*
X139238095Y-70960714D01*
X138380952Y-70627380D02*
X138380952Y-69960714D01*
X138380952Y-70151190D02*
X138333333Y-70055952D01*
X138285714Y-70008333D01*
X138190476Y-69960714D01*
X138095238Y-69960714D01*
X137761904Y-70627380D02*
X137761904Y-69960714D01*
X137761904Y-69627380D02*
X137809523Y-69675000D01*
X137761904Y-69722619D01*
X137714285Y-69675000D01*
X137761904Y-69627380D01*
X137761904Y-69722619D01*
X136857142Y-69960714D02*
X136857142Y-70770238D01*
X136904761Y-70865476D01*
X136952380Y-70913095D01*
X137047619Y-70960714D01*
X137190476Y-70960714D01*
X137285714Y-70913095D01*
X136857142Y-70579761D02*
X136952380Y-70627380D01*
X137142857Y-70627380D01*
X137238095Y-70579761D01*
X137285714Y-70532142D01*
X137333333Y-70436904D01*
X137333333Y-70151190D01*
X137285714Y-70055952D01*
X137238095Y-70008333D01*
X137142857Y-69960714D01*
X136952380Y-69960714D01*
X136857142Y-70008333D01*
X136380952Y-70627380D02*
X136380952Y-69627380D01*
X135952380Y-70627380D02*
X135952380Y-70103571D01*
X136000000Y-70008333D01*
X136095238Y-69960714D01*
X136238095Y-69960714D01*
X136333333Y-70008333D01*
X136380952Y-70055952D01*
X135619047Y-69960714D02*
X135238095Y-69960714D01*
X135476190Y-69627380D02*
X135476190Y-70484523D01*
X135428571Y-70579761D01*
X135333333Y-70627380D01*
X135238095Y-70627380D01*
X133333333Y-69865476D02*
X133428571Y-69817857D01*
X133619047Y-69817857D01*
X133714285Y-69865476D01*
X133809523Y-69960714D01*
X133857142Y-70055952D01*
X133857142Y-70246428D01*
X133809523Y-70341666D01*
X133714285Y-70436904D01*
X133619047Y-70484523D01*
X133428571Y-70484523D01*
X133333333Y-70436904D01*
X133523809Y-69484523D02*
X133761904Y-69532142D01*
X134000000Y-69675000D01*
X134142857Y-69913095D01*
X134190476Y-70151190D01*
X134142857Y-70389285D01*
X134000000Y-70627380D01*
X133761904Y-70770238D01*
X133523809Y-70817857D01*
X133285714Y-70770238D01*
X133047619Y-70627380D01*
X132904761Y-70389285D01*
X132857142Y-70151190D01*
X132904761Y-69913095D01*
X133047619Y-69675000D01*
X133285714Y-69532142D01*
X133523809Y-69484523D01*
X131095238Y-70627380D02*
X131428571Y-70151190D01*
X131666666Y-70627380D02*
X131666666Y-69627380D01*
X131285714Y-69627380D01*
X131190476Y-69675000D01*
X131142857Y-69722619D01*
X131095238Y-69817857D01*
X131095238Y-69960714D01*
X131142857Y-70055952D01*
X131190476Y-70103571D01*
X131285714Y-70151190D01*
X131666666Y-70151190D01*
X130238095Y-70627380D02*
X130238095Y-70103571D01*
X130285714Y-70008333D01*
X130380952Y-69960714D01*
X130571428Y-69960714D01*
X130666666Y-70008333D01*
X130238095Y-70579761D02*
X130333333Y-70627380D01*
X130571428Y-70627380D01*
X130666666Y-70579761D01*
X130714285Y-70484523D01*
X130714285Y-70389285D01*
X130666666Y-70294047D01*
X130571428Y-70246428D01*
X130333333Y-70246428D01*
X130238095Y-70198809D01*
X129761904Y-69960714D02*
X129761904Y-70960714D01*
X129761904Y-70008333D02*
X129666666Y-69960714D01*
X129476190Y-69960714D01*
X129380952Y-70008333D01*
X129333333Y-70055952D01*
X129285714Y-70151190D01*
X129285714Y-70436904D01*
X129333333Y-70532142D01*
X129380952Y-70579761D01*
X129476190Y-70627380D01*
X129666666Y-70627380D01*
X129761904Y-70579761D01*
X128857142Y-70627380D02*
X128857142Y-69627380D01*
X128428571Y-70627380D02*
X128428571Y-70103571D01*
X128476190Y-70008333D01*
X128571428Y-69960714D01*
X128714285Y-69960714D01*
X128809523Y-70008333D01*
X128857142Y-70055952D01*
X127523809Y-70627380D02*
X127523809Y-70103571D01*
X127571428Y-70008333D01*
X127666666Y-69960714D01*
X127857142Y-69960714D01*
X127952380Y-70008333D01*
X127523809Y-70579761D02*
X127619047Y-70627380D01*
X127857142Y-70627380D01*
X127952380Y-70579761D01*
X128000000Y-70484523D01*
X128000000Y-70389285D01*
X127952380Y-70294047D01*
X127857142Y-70246428D01*
X127619047Y-70246428D01*
X127523809Y-70198809D01*
X126666666Y-70579761D02*
X126761904Y-70627380D01*
X126952380Y-70627380D01*
X127047619Y-70579761D01*
X127095238Y-70484523D01*
X127095238Y-70103571D01*
X127047619Y-70008333D01*
X126952380Y-69960714D01*
X126761904Y-69960714D01*
X126666666Y-70008333D01*
X126619047Y-70103571D01*
X126619047Y-70198809D01*
X127095238Y-70294047D01*
X126047619Y-70627380D02*
X126142857Y-70579761D01*
X126190476Y-70484523D01*
X126190476Y-69627380D01*
X124952380Y-70579761D02*
X124809523Y-70627380D01*
X124571428Y-70627380D01*
X124476190Y-70579761D01*
X124428571Y-70532142D01*
X124380952Y-70436904D01*
X124380952Y-70341666D01*
X124428571Y-70246428D01*
X124476190Y-70198809D01*
X124571428Y-70151190D01*
X124761904Y-70103571D01*
X124857142Y-70055952D01*
X124904761Y-70008333D01*
X124952380Y-69913095D01*
X124952380Y-69817857D01*
X124904761Y-69722619D01*
X124857142Y-69675000D01*
X124761904Y-69627380D01*
X124523809Y-69627380D01*
X124380952Y-69675000D01*
X124095238Y-69960714D02*
X123714285Y-69960714D01*
X123952380Y-69627380D02*
X123952380Y-70484523D01*
X123904761Y-70579761D01*
X123809523Y-70627380D01*
X123714285Y-70627380D01*
X122952380Y-70627380D02*
X122952380Y-70103571D01*
X123000000Y-70008333D01*
X123095238Y-69960714D01*
X123285714Y-69960714D01*
X123380952Y-70008333D01*
X122952380Y-70579761D02*
X123047619Y-70627380D01*
X123285714Y-70627380D01*
X123380952Y-70579761D01*
X123428571Y-70484523D01*
X123428571Y-70389285D01*
X123380952Y-70294047D01*
X123285714Y-70246428D01*
X123047619Y-70246428D01*
X122952380Y-70198809D01*
X123380952Y-69627380D02*
X123333333Y-69675000D01*
X123380952Y-69722619D01*
X123428571Y-69675000D01*
X123380952Y-69627380D01*
X123380952Y-69722619D01*
X123000000Y-69627380D02*
X122952380Y-69675000D01*
X123000000Y-69722619D01*
X123047619Y-69675000D01*
X123000000Y-69627380D01*
X123000000Y-69722619D01*
X122476190Y-70627380D02*
X122476190Y-69627380D01*
X122476190Y-70008333D02*
X122380952Y-69960714D01*
X122190476Y-69960714D01*
X122095238Y-70008333D01*
X122047619Y-70055952D01*
X122000000Y-70151190D01*
X122000000Y-70436904D01*
X122047619Y-70532142D01*
X122095238Y-70579761D01*
X122190476Y-70627380D01*
X122380952Y-70627380D01*
X122476190Y-70579761D01*
X121428571Y-70627380D02*
X121523809Y-70579761D01*
X121571428Y-70484523D01*
X121571428Y-69627380D01*
X120666666Y-70579761D02*
X120761904Y-70627380D01*
X120952380Y-70627380D01*
X121047619Y-70579761D01*
X121095238Y-70484523D01*
X121095238Y-70103571D01*
X121047619Y-70008333D01*
X120952380Y-69960714D01*
X120761904Y-69960714D01*
X120666666Y-70008333D01*
X120619047Y-70103571D01*
X120619047Y-70198809D01*
X121095238Y-70294047D01*
X120190476Y-70627380D02*
X120190476Y-69960714D01*
X120190476Y-70151190D02*
X120142857Y-70055952D01*
X120095238Y-70008333D01*
X120000000Y-69960714D01*
X119904761Y-69960714D01*
X140409523Y-67536904D02*
X140790476Y-67536904D01*
X140790476Y-66736904D01*
X140142857Y-67536904D02*
X140142857Y-67003571D01*
X140142857Y-66736904D02*
X140180952Y-66775000D01*
X140142857Y-66813095D01*
X140104761Y-66775000D01*
X140142857Y-66736904D01*
X140142857Y-66813095D01*
X139419047Y-67498809D02*
X139495238Y-67536904D01*
X139647619Y-67536904D01*
X139723809Y-67498809D01*
X139761904Y-67460714D01*
X139800000Y-67384523D01*
X139800000Y-67155952D01*
X139761904Y-67079761D01*
X139723809Y-67041666D01*
X139647619Y-67003571D01*
X139495238Y-67003571D01*
X139419047Y-67041666D01*
X138771428Y-67498809D02*
X138847619Y-67536904D01*
X139000000Y-67536904D01*
X139076190Y-67498809D01*
X139114285Y-67422619D01*
X139114285Y-67117857D01*
X139076190Y-67041666D01*
X139000000Y-67003571D01*
X138847619Y-67003571D01*
X138771428Y-67041666D01*
X138733333Y-67117857D01*
X138733333Y-67194047D01*
X139114285Y-67270238D01*
X138390476Y-67003571D02*
X138390476Y-67536904D01*
X138390476Y-67079761D02*
X138352380Y-67041666D01*
X138276190Y-67003571D01*
X138161904Y-67003571D01*
X138085714Y-67041666D01*
X138047619Y-67117857D01*
X138047619Y-67536904D01*
X137704761Y-67498809D02*
X137628571Y-67536904D01*
X137476190Y-67536904D01*
X137400000Y-67498809D01*
X137361904Y-67422619D01*
X137361904Y-67384523D01*
X137400000Y-67308333D01*
X137476190Y-67270238D01*
X137590476Y-67270238D01*
X137666666Y-67232142D01*
X137704761Y-67155952D01*
X137704761Y-67117857D01*
X137666666Y-67041666D01*
X137590476Y-67003571D01*
X137476190Y-67003571D01*
X137400000Y-67041666D01*
X136714285Y-67498809D02*
X136790476Y-67536904D01*
X136942857Y-67536904D01*
X137019047Y-67498809D01*
X137057142Y-67422619D01*
X137057142Y-67117857D01*
X137019047Y-67041666D01*
X136942857Y-67003571D01*
X136790476Y-67003571D01*
X136714285Y-67041666D01*
X136676190Y-67117857D01*
X136676190Y-67194047D01*
X137057142Y-67270238D01*
X135990476Y-67536904D02*
X135990476Y-66736904D01*
X135990476Y-67498809D02*
X136066666Y-67536904D01*
X136219047Y-67536904D01*
X136295238Y-67498809D01*
X136333333Y-67460714D01*
X136371428Y-67384523D01*
X136371428Y-67155952D01*
X136333333Y-67079761D01*
X136295238Y-67041666D01*
X136219047Y-67003571D01*
X136066666Y-67003571D01*
X135990476Y-67041666D01*
X134657142Y-67003571D02*
X134657142Y-67536904D01*
X135000000Y-67003571D02*
X135000000Y-67422619D01*
X134961904Y-67498809D01*
X134885714Y-67536904D01*
X134771428Y-67536904D01*
X134695238Y-67498809D01*
X134657142Y-67460714D01*
X134276190Y-67003571D02*
X134276190Y-67536904D01*
X134276190Y-67079761D02*
X134238095Y-67041666D01*
X134161904Y-67003571D01*
X134047619Y-67003571D01*
X133971428Y-67041666D01*
X133933333Y-67117857D01*
X133933333Y-67536904D01*
X133209523Y-67536904D02*
X133209523Y-66736904D01*
X133209523Y-67498809D02*
X133285714Y-67536904D01*
X133438095Y-67536904D01*
X133514285Y-67498809D01*
X133552380Y-67460714D01*
X133590476Y-67384523D01*
X133590476Y-67155952D01*
X133552380Y-67079761D01*
X133514285Y-67041666D01*
X133438095Y-67003571D01*
X133285714Y-67003571D01*
X133209523Y-67041666D01*
X132523809Y-67498809D02*
X132599999Y-67536904D01*
X132752380Y-67536904D01*
X132828571Y-67498809D01*
X132866666Y-67422619D01*
X132866666Y-67117857D01*
X132828571Y-67041666D01*
X132752380Y-67003571D01*
X132599999Y-67003571D01*
X132523809Y-67041666D01*
X132485714Y-67117857D01*
X132485714Y-67194047D01*
X132866666Y-67270238D01*
X132142857Y-67536904D02*
X132142857Y-67003571D01*
X132142857Y-67155952D02*
X132104761Y-67079761D01*
X132066666Y-67041666D01*
X131990476Y-67003571D01*
X131914285Y-67003571D01*
X130580952Y-67460714D02*
X130619047Y-67498809D01*
X130733333Y-67536904D01*
X130809523Y-67536904D01*
X130923809Y-67498809D01*
X130999999Y-67422619D01*
X131038095Y-67346428D01*
X131076190Y-67194047D01*
X131076190Y-67079761D01*
X131038095Y-66927380D01*
X130999999Y-66851190D01*
X130923809Y-66775000D01*
X130809523Y-66736904D01*
X130733333Y-66736904D01*
X130619047Y-66775000D01*
X130580952Y-66813095D01*
X130238095Y-67117857D02*
X129971428Y-67117857D01*
X129857142Y-67536904D02*
X130238095Y-67536904D01*
X130238095Y-66736904D01*
X129857142Y-66736904D01*
X129057142Y-67536904D02*
X129323809Y-67155952D01*
X129514285Y-67536904D02*
X129514285Y-66736904D01*
X129209523Y-66736904D01*
X129133333Y-66775000D01*
X129095238Y-66813095D01*
X129057142Y-66889285D01*
X129057142Y-67003571D01*
X129095238Y-67079761D01*
X129133333Y-67117857D01*
X129209523Y-67155952D01*
X129514285Y-67155952D01*
X128714285Y-67536904D02*
X128714285Y-66736904D01*
X128257142Y-67536904D01*
X128257142Y-66736904D01*
X127876190Y-67232142D02*
X127266666Y-67232142D01*
X126733333Y-66736904D02*
X126580952Y-66736904D01*
X126504761Y-66775000D01*
X126428571Y-66851190D01*
X126390476Y-67003571D01*
X126390476Y-67270238D01*
X126428571Y-67422619D01*
X126504761Y-67498809D01*
X126580952Y-67536904D01*
X126733333Y-67536904D01*
X126809523Y-67498809D01*
X126885714Y-67422619D01*
X126923809Y-67270238D01*
X126923809Y-67003571D01*
X126885714Y-66851190D01*
X126809523Y-66775000D01*
X126733333Y-66736904D01*
X126047619Y-67536904D02*
X126047619Y-66736904D01*
X126047619Y-67117857D02*
X125590476Y-67117857D01*
X125590476Y-67536904D02*
X125590476Y-66736904D01*
X124828571Y-67536904D02*
X125209523Y-67536904D01*
X125209523Y-66736904D01*
X124561904Y-67232142D02*
X123952380Y-67232142D01*
X123609523Y-67498809D02*
X123495238Y-67536904D01*
X123304761Y-67536904D01*
X123228571Y-67498809D01*
X123190476Y-67460714D01*
X123152380Y-67384523D01*
X123152380Y-67308333D01*
X123190476Y-67232142D01*
X123228571Y-67194047D01*
X123304761Y-67155952D01*
X123457142Y-67117857D01*
X123533333Y-67079761D01*
X123571428Y-67041666D01*
X123609523Y-66965476D01*
X123609523Y-66889285D01*
X123571428Y-66813095D01*
X123533333Y-66775000D01*
X123457142Y-66736904D01*
X123266666Y-66736904D01*
X123152380Y-66775000D01*
X122276190Y-67003571D02*
X122085714Y-67536904D01*
X121895238Y-67003571D01*
X121628571Y-66813095D02*
X121590476Y-66775000D01*
X121514285Y-66736904D01*
X121323809Y-66736904D01*
X121247619Y-66775000D01*
X121209523Y-66813095D01*
X121171428Y-66889285D01*
X121171428Y-66965476D01*
X121209523Y-67079761D01*
X121666666Y-67536904D01*
X121171428Y-67536904D01*
D11*
%TO.C,OSHW Logo*%
G36*
X130860122Y-57262776D02*
G01*
X130754388Y-57263355D01*
X130677868Y-57264922D01*
X130625628Y-57267972D01*
X130592737Y-57272996D01*
X130574263Y-57280489D01*
X130565273Y-57290944D01*
X130560837Y-57304853D01*
X130560406Y-57306654D01*
X130553667Y-57339145D01*
X130541192Y-57403252D01*
X130524281Y-57492151D01*
X130504229Y-57599019D01*
X130482336Y-57717033D01*
X130481571Y-57721178D01*
X130459641Y-57836831D01*
X130439123Y-57939014D01*
X130421341Y-58021598D01*
X130407619Y-58078456D01*
X130399282Y-58103458D01*
X130398884Y-58103901D01*
X130374323Y-58116110D01*
X130323685Y-58136456D01*
X130257905Y-58160545D01*
X130257539Y-58160674D01*
X130174683Y-58191818D01*
X130077000Y-58231491D01*
X129984923Y-58271381D01*
X129980566Y-58273353D01*
X129830593Y-58341420D01*
X129498502Y-58114639D01*
X129396626Y-58045504D01*
X129304343Y-57983697D01*
X129226997Y-57932733D01*
X129169936Y-57896127D01*
X129138505Y-57877394D01*
X129135521Y-57876004D01*
X129112679Y-57882190D01*
X129070018Y-57912035D01*
X129005872Y-57966947D01*
X128918579Y-58048334D01*
X128829465Y-58134922D01*
X128743559Y-58220247D01*
X128666673Y-58298108D01*
X128603436Y-58363697D01*
X128558477Y-58412205D01*
X128536424Y-58438825D01*
X128535604Y-58440195D01*
X128533166Y-58458463D01*
X128542350Y-58488295D01*
X128565426Y-58533721D01*
X128604663Y-58598770D01*
X128662330Y-58687470D01*
X128739205Y-58801657D01*
X128807430Y-58902162D01*
X128868418Y-58992303D01*
X128918644Y-59066849D01*
X128954584Y-59120565D01*
X128972713Y-59148218D01*
X128973854Y-59150095D01*
X128971641Y-59176590D01*
X128954862Y-59228086D01*
X128926858Y-59294851D01*
X128916878Y-59316172D01*
X128873328Y-59411159D01*
X128826866Y-59518937D01*
X128789123Y-59612192D01*
X128761927Y-59681406D01*
X128740325Y-59734006D01*
X128727842Y-59761497D01*
X128726291Y-59763616D01*
X128703332Y-59767124D01*
X128649214Y-59776738D01*
X128571132Y-59791089D01*
X128476281Y-59808807D01*
X128371857Y-59828525D01*
X128265056Y-59848874D01*
X128163074Y-59868486D01*
X128073106Y-59885991D01*
X128002347Y-59900022D01*
X127957994Y-59909209D01*
X127947115Y-59911807D01*
X127935878Y-59918218D01*
X127927395Y-59932697D01*
X127921286Y-59960133D01*
X127917168Y-60005411D01*
X127914659Y-60073420D01*
X127913379Y-60169047D01*
X127912946Y-60297180D01*
X127912923Y-60349701D01*
X127912923Y-60776845D01*
X128015500Y-60797091D01*
X128072569Y-60808070D01*
X128157731Y-60824095D01*
X128260628Y-60843233D01*
X128370904Y-60863551D01*
X128401385Y-60869132D01*
X128503145Y-60888917D01*
X128591795Y-60908373D01*
X128659892Y-60925697D01*
X128699996Y-60939088D01*
X128706677Y-60943079D01*
X128723081Y-60971342D01*
X128746601Y-61026109D01*
X128772684Y-61096588D01*
X128777858Y-61111769D01*
X128812044Y-61205896D01*
X128854477Y-61312101D01*
X128896003Y-61407473D01*
X128896208Y-61407916D01*
X128965360Y-61557525D01*
X128510488Y-62226617D01*
X128802500Y-62519116D01*
X128890820Y-62606170D01*
X128971375Y-62682909D01*
X129039640Y-62745237D01*
X129091092Y-62789056D01*
X129121206Y-62810270D01*
X129125526Y-62811616D01*
X129150889Y-62801016D01*
X129202642Y-62771547D01*
X129275132Y-62726705D01*
X129362706Y-62669984D01*
X129457388Y-62606462D01*
X129553484Y-62541668D01*
X129639163Y-62485287D01*
X129708984Y-62440788D01*
X129757506Y-62411639D01*
X129779218Y-62401308D01*
X129805707Y-62410050D01*
X129855938Y-62433087D01*
X129919549Y-62465631D01*
X129926292Y-62469249D01*
X130011954Y-62512210D01*
X130070694Y-62533279D01*
X130107228Y-62533503D01*
X130126269Y-62513928D01*
X130126380Y-62513654D01*
X130135898Y-62490472D01*
X130158597Y-62435441D01*
X130192718Y-62352822D01*
X130236500Y-62246872D01*
X130288184Y-62121852D01*
X130346008Y-61982020D01*
X130402009Y-61846637D01*
X130463553Y-61697234D01*
X130520061Y-61558832D01*
X130569839Y-61435673D01*
X130611194Y-61332002D01*
X130642432Y-61252059D01*
X130661859Y-61200088D01*
X130667846Y-61180692D01*
X130652832Y-61158443D01*
X130613561Y-61122982D01*
X130561193Y-61083887D01*
X130412059Y-60960245D01*
X130295489Y-60818522D01*
X130212882Y-60661704D01*
X130165634Y-60492775D01*
X130155143Y-60314722D01*
X130162769Y-60232539D01*
X130204318Y-60062031D01*
X130275877Y-59911459D01*
X130373005Y-59782309D01*
X130491266Y-59676064D01*
X130626220Y-59594210D01*
X130773429Y-59538232D01*
X130928456Y-59509615D01*
X131086861Y-59509844D01*
X131244206Y-59540405D01*
X131396054Y-59602782D01*
X131537965Y-59698460D01*
X131597197Y-59752572D01*
X131710797Y-59891520D01*
X131789894Y-60043361D01*
X131835014Y-60203667D01*
X131846684Y-60368012D01*
X131825431Y-60531971D01*
X131771780Y-60691118D01*
X131686260Y-60841025D01*
X131569395Y-60977267D01*
X131438807Y-61083887D01*
X131384412Y-61124642D01*
X131345986Y-61159718D01*
X131332154Y-61180726D01*
X131339397Y-61203635D01*
X131359995Y-61258365D01*
X131392254Y-61340672D01*
X131434479Y-61446315D01*
X131484977Y-61571050D01*
X131542052Y-61710636D01*
X131598146Y-61846670D01*
X131660033Y-61996201D01*
X131717356Y-62134767D01*
X131768356Y-62258107D01*
X131811273Y-62361964D01*
X131844347Y-62442080D01*
X131865819Y-62494195D01*
X131873775Y-62513654D01*
X131892571Y-62533423D01*
X131928926Y-62533365D01*
X131987521Y-62512441D01*
X132073032Y-62469613D01*
X132073708Y-62469249D01*
X132138093Y-62436012D01*
X132190139Y-62411802D01*
X132219488Y-62401404D01*
X132220783Y-62401308D01*
X132242876Y-62411855D01*
X132291652Y-62441184D01*
X132361669Y-62485827D01*
X132447486Y-62542314D01*
X132542612Y-62606462D01*
X132639460Y-62671411D01*
X132726747Y-62727896D01*
X132798819Y-62772421D01*
X132850023Y-62801490D01*
X132874474Y-62811616D01*
X132896990Y-62798307D01*
X132942258Y-62761112D01*
X133005756Y-62704128D01*
X133082961Y-62631449D01*
X133169349Y-62547171D01*
X133197601Y-62519016D01*
X133489713Y-62226416D01*
X133267369Y-61900104D01*
X133199798Y-61799897D01*
X133140493Y-61709963D01*
X133092783Y-61635510D01*
X133059993Y-61581751D01*
X133045452Y-61553894D01*
X133045026Y-61551912D01*
X133052692Y-61525655D01*
X133073311Y-61472837D01*
X133103315Y-61402310D01*
X133124375Y-61355093D01*
X133163752Y-61264694D01*
X133200835Y-61173366D01*
X133229585Y-61096200D01*
X133237395Y-61072692D01*
X133259583Y-61009916D01*
X133281273Y-60961411D01*
X133293187Y-60943079D01*
X133319477Y-60931859D01*
X133376858Y-60915954D01*
X133457882Y-60897167D01*
X133555105Y-60877299D01*
X133598615Y-60869132D01*
X133709104Y-60848829D01*
X133815084Y-60829170D01*
X133906199Y-60812088D01*
X133972092Y-60799518D01*
X133984500Y-60797091D01*
X134087077Y-60776845D01*
X134087077Y-60349701D01*
X134086847Y-60209246D01*
X134085901Y-60102979D01*
X134083859Y-60026013D01*
X134080338Y-59973460D01*
X134074957Y-59940433D01*
X134067334Y-59922045D01*
X134057088Y-59913408D01*
X134052885Y-59911807D01*
X134027530Y-59906127D01*
X133971516Y-59894795D01*
X133892036Y-59879179D01*
X133796288Y-59860647D01*
X133691467Y-59840569D01*
X133584768Y-59820312D01*
X133483387Y-59801246D01*
X133394521Y-59784739D01*
X133325363Y-59772159D01*
X133283111Y-59764875D01*
X133273710Y-59763616D01*
X133265193Y-59746763D01*
X133246340Y-59701870D01*
X133220676Y-59637430D01*
X133210877Y-59612192D01*
X133171352Y-59514686D01*
X133124808Y-59406959D01*
X133083123Y-59316172D01*
X133052450Y-59246753D01*
X133032044Y-59189710D01*
X133025232Y-59154777D01*
X133026318Y-59150095D01*
X133040715Y-59127991D01*
X133073588Y-59078831D01*
X133121410Y-59007848D01*
X133180652Y-58920278D01*
X133247785Y-58821357D01*
X133261059Y-58801830D01*
X133338954Y-58686140D01*
X133396213Y-58598044D01*
X133435119Y-58533486D01*
X133457956Y-58488411D01*
X133467006Y-58458763D01*
X133464552Y-58440485D01*
X133464489Y-58440369D01*
X133445173Y-58416361D01*
X133402449Y-58369947D01*
X133340949Y-58305937D01*
X133265302Y-58229145D01*
X133180139Y-58144382D01*
X133170535Y-58134922D01*
X133063210Y-58030989D01*
X132980385Y-57954675D01*
X132920395Y-57904571D01*
X132881577Y-57879270D01*
X132864480Y-57876004D01*
X132839527Y-57890250D01*
X132787745Y-57923156D01*
X132714480Y-57971208D01*
X132625080Y-58030890D01*
X132524889Y-58098688D01*
X132501499Y-58114639D01*
X132169407Y-58341420D01*
X132019435Y-58273353D01*
X131928230Y-58233685D01*
X131830331Y-58193791D01*
X131746169Y-58161983D01*
X131742462Y-58160674D01*
X131676631Y-58136576D01*
X131625884Y-58116200D01*
X131601158Y-58103936D01*
X131601116Y-58103901D01*
X131593271Y-58081734D01*
X131579934Y-58027217D01*
X131562430Y-57946480D01*
X131542083Y-57845650D01*
X131520218Y-57730856D01*
X131518429Y-57721178D01*
X131496496Y-57602904D01*
X131476360Y-57495542D01*
X131459320Y-57405917D01*
X131446672Y-57340851D01*
X131439716Y-57307168D01*
X131439594Y-57306654D01*
X131435361Y-57292325D01*
X131427129Y-57281507D01*
X131409967Y-57273706D01*
X131378942Y-57268429D01*
X131329122Y-57265182D01*
X131255576Y-57263472D01*
X131153371Y-57262807D01*
X131017575Y-57262693D01*
X131000000Y-57262692D01*
X130860122Y-57262776D01*
G37*
X130860122Y-57262776D02*
X130754388Y-57263355D01*
X130677868Y-57264922D01*
X130625628Y-57267972D01*
X130592737Y-57272996D01*
X130574263Y-57280489D01*
X130565273Y-57290944D01*
X130560837Y-57304853D01*
X130560406Y-57306654D01*
X130553667Y-57339145D01*
X130541192Y-57403252D01*
X130524281Y-57492151D01*
X130504229Y-57599019D01*
X130482336Y-57717033D01*
X130481571Y-57721178D01*
X130459641Y-57836831D01*
X130439123Y-57939014D01*
X130421341Y-58021598D01*
X130407619Y-58078456D01*
X130399282Y-58103458D01*
X130398884Y-58103901D01*
X130374323Y-58116110D01*
X130323685Y-58136456D01*
X130257905Y-58160545D01*
X130257539Y-58160674D01*
X130174683Y-58191818D01*
X130077000Y-58231491D01*
X129984923Y-58271381D01*
X129980566Y-58273353D01*
X129830593Y-58341420D01*
X129498502Y-58114639D01*
X129396626Y-58045504D01*
X129304343Y-57983697D01*
X129226997Y-57932733D01*
X129169936Y-57896127D01*
X129138505Y-57877394D01*
X129135521Y-57876004D01*
X129112679Y-57882190D01*
X129070018Y-57912035D01*
X129005872Y-57966947D01*
X128918579Y-58048334D01*
X128829465Y-58134922D01*
X128743559Y-58220247D01*
X128666673Y-58298108D01*
X128603436Y-58363697D01*
X128558477Y-58412205D01*
X128536424Y-58438825D01*
X128535604Y-58440195D01*
X128533166Y-58458463D01*
X128542350Y-58488295D01*
X128565426Y-58533721D01*
X128604663Y-58598770D01*
X128662330Y-58687470D01*
X128739205Y-58801657D01*
X128807430Y-58902162D01*
X128868418Y-58992303D01*
X128918644Y-59066849D01*
X128954584Y-59120565D01*
X128972713Y-59148218D01*
X128973854Y-59150095D01*
X128971641Y-59176590D01*
X128954862Y-59228086D01*
X128926858Y-59294851D01*
X128916878Y-59316172D01*
X128873328Y-59411159D01*
X128826866Y-59518937D01*
X128789123Y-59612192D01*
X128761927Y-59681406D01*
X128740325Y-59734006D01*
X128727842Y-59761497D01*
X128726291Y-59763616D01*
X128703332Y-59767124D01*
X128649214Y-59776738D01*
X128571132Y-59791089D01*
X128476281Y-59808807D01*
X128371857Y-59828525D01*
X128265056Y-59848874D01*
X128163074Y-59868486D01*
X128073106Y-59885991D01*
X128002347Y-59900022D01*
X127957994Y-59909209D01*
X127947115Y-59911807D01*
X127935878Y-59918218D01*
X127927395Y-59932697D01*
X127921286Y-59960133D01*
X127917168Y-60005411D01*
X127914659Y-60073420D01*
X127913379Y-60169047D01*
X127912946Y-60297180D01*
X127912923Y-60349701D01*
X127912923Y-60776845D01*
X128015500Y-60797091D01*
X128072569Y-60808070D01*
X128157731Y-60824095D01*
X128260628Y-60843233D01*
X128370904Y-60863551D01*
X128401385Y-60869132D01*
X128503145Y-60888917D01*
X128591795Y-60908373D01*
X128659892Y-60925697D01*
X128699996Y-60939088D01*
X128706677Y-60943079D01*
X128723081Y-60971342D01*
X128746601Y-61026109D01*
X128772684Y-61096588D01*
X128777858Y-61111769D01*
X128812044Y-61205896D01*
X128854477Y-61312101D01*
X128896003Y-61407473D01*
X128896208Y-61407916D01*
X128965360Y-61557525D01*
X128510488Y-62226617D01*
X128802500Y-62519116D01*
X128890820Y-62606170D01*
X128971375Y-62682909D01*
X129039640Y-62745237D01*
X129091092Y-62789056D01*
X129121206Y-62810270D01*
X129125526Y-62811616D01*
X129150889Y-62801016D01*
X129202642Y-62771547D01*
X129275132Y-62726705D01*
X129362706Y-62669984D01*
X129457388Y-62606462D01*
X129553484Y-62541668D01*
X129639163Y-62485287D01*
X129708984Y-62440788D01*
X129757506Y-62411639D01*
X129779218Y-62401308D01*
X129805707Y-62410050D01*
X129855938Y-62433087D01*
X129919549Y-62465631D01*
X129926292Y-62469249D01*
X130011954Y-62512210D01*
X130070694Y-62533279D01*
X130107228Y-62533503D01*
X130126269Y-62513928D01*
X130126380Y-62513654D01*
X130135898Y-62490472D01*
X130158597Y-62435441D01*
X130192718Y-62352822D01*
X130236500Y-62246872D01*
X130288184Y-62121852D01*
X130346008Y-61982020D01*
X130402009Y-61846637D01*
X130463553Y-61697234D01*
X130520061Y-61558832D01*
X130569839Y-61435673D01*
X130611194Y-61332002D01*
X130642432Y-61252059D01*
X130661859Y-61200088D01*
X130667846Y-61180692D01*
X130652832Y-61158443D01*
X130613561Y-61122982D01*
X130561193Y-61083887D01*
X130412059Y-60960245D01*
X130295489Y-60818522D01*
X130212882Y-60661704D01*
X130165634Y-60492775D01*
X130155143Y-60314722D01*
X130162769Y-60232539D01*
X130204318Y-60062031D01*
X130275877Y-59911459D01*
X130373005Y-59782309D01*
X130491266Y-59676064D01*
X130626220Y-59594210D01*
X130773429Y-59538232D01*
X130928456Y-59509615D01*
X131086861Y-59509844D01*
X131244206Y-59540405D01*
X131396054Y-59602782D01*
X131537965Y-59698460D01*
X131597197Y-59752572D01*
X131710797Y-59891520D01*
X131789894Y-60043361D01*
X131835014Y-60203667D01*
X131846684Y-60368012D01*
X131825431Y-60531971D01*
X131771780Y-60691118D01*
X131686260Y-60841025D01*
X131569395Y-60977267D01*
X131438807Y-61083887D01*
X131384412Y-61124642D01*
X131345986Y-61159718D01*
X131332154Y-61180726D01*
X131339397Y-61203635D01*
X131359995Y-61258365D01*
X131392254Y-61340672D01*
X131434479Y-61446315D01*
X131484977Y-61571050D01*
X131542052Y-61710636D01*
X131598146Y-61846670D01*
X131660033Y-61996201D01*
X131717356Y-62134767D01*
X131768356Y-62258107D01*
X131811273Y-62361964D01*
X131844347Y-62442080D01*
X131865819Y-62494195D01*
X131873775Y-62513654D01*
X131892571Y-62533423D01*
X131928926Y-62533365D01*
X131987521Y-62512441D01*
X132073032Y-62469613D01*
X132073708Y-62469249D01*
X132138093Y-62436012D01*
X132190139Y-62411802D01*
X132219488Y-62401404D01*
X132220783Y-62401308D01*
X132242876Y-62411855D01*
X132291652Y-62441184D01*
X132361669Y-62485827D01*
X132447486Y-62542314D01*
X132542612Y-62606462D01*
X132639460Y-62671411D01*
X132726747Y-62727896D01*
X132798819Y-62772421D01*
X132850023Y-62801490D01*
X132874474Y-62811616D01*
X132896990Y-62798307D01*
X132942258Y-62761112D01*
X133005756Y-62704128D01*
X133082961Y-62631449D01*
X133169349Y-62547171D01*
X133197601Y-62519016D01*
X133489713Y-62226416D01*
X133267369Y-61900104D01*
X133199798Y-61799897D01*
X133140493Y-61709963D01*
X133092783Y-61635510D01*
X133059993Y-61581751D01*
X133045452Y-61553894D01*
X133045026Y-61551912D01*
X133052692Y-61525655D01*
X133073311Y-61472837D01*
X133103315Y-61402310D01*
X133124375Y-61355093D01*
X133163752Y-61264694D01*
X133200835Y-61173366D01*
X133229585Y-61096200D01*
X133237395Y-61072692D01*
X133259583Y-61009916D01*
X133281273Y-60961411D01*
X133293187Y-60943079D01*
X133319477Y-60931859D01*
X133376858Y-60915954D01*
X133457882Y-60897167D01*
X133555105Y-60877299D01*
X133598615Y-60869132D01*
X133709104Y-60848829D01*
X133815084Y-60829170D01*
X133906199Y-60812088D01*
X133972092Y-60799518D01*
X133984500Y-60797091D01*
X134087077Y-60776845D01*
X134087077Y-60349701D01*
X134086847Y-60209246D01*
X134085901Y-60102979D01*
X134083859Y-60026013D01*
X134080338Y-59973460D01*
X134074957Y-59940433D01*
X134067334Y-59922045D01*
X134057088Y-59913408D01*
X134052885Y-59911807D01*
X134027530Y-59906127D01*
X133971516Y-59894795D01*
X133892036Y-59879179D01*
X133796288Y-59860647D01*
X133691467Y-59840569D01*
X133584768Y-59820312D01*
X133483387Y-59801246D01*
X133394521Y-59784739D01*
X133325363Y-59772159D01*
X133283111Y-59764875D01*
X133273710Y-59763616D01*
X133265193Y-59746763D01*
X133246340Y-59701870D01*
X133220676Y-59637430D01*
X133210877Y-59612192D01*
X133171352Y-59514686D01*
X133124808Y-59406959D01*
X133083123Y-59316172D01*
X133052450Y-59246753D01*
X133032044Y-59189710D01*
X133025232Y-59154777D01*
X133026318Y-59150095D01*
X133040715Y-59127991D01*
X133073588Y-59078831D01*
X133121410Y-59007848D01*
X133180652Y-58920278D01*
X133247785Y-58821357D01*
X133261059Y-58801830D01*
X133338954Y-58686140D01*
X133396213Y-58598044D01*
X133435119Y-58533486D01*
X133457956Y-58488411D01*
X133467006Y-58458763D01*
X133464552Y-58440485D01*
X133464489Y-58440369D01*
X133445173Y-58416361D01*
X133402449Y-58369947D01*
X133340949Y-58305937D01*
X133265302Y-58229145D01*
X133180139Y-58144382D01*
X133170535Y-58134922D01*
X133063210Y-58030989D01*
X132980385Y-57954675D01*
X132920395Y-57904571D01*
X132881577Y-57879270D01*
X132864480Y-57876004D01*
X132839527Y-57890250D01*
X132787745Y-57923156D01*
X132714480Y-57971208D01*
X132625080Y-58030890D01*
X132524889Y-58098688D01*
X132501499Y-58114639D01*
X132169407Y-58341420D01*
X132019435Y-58273353D01*
X131928230Y-58233685D01*
X131830331Y-58193791D01*
X131746169Y-58161983D01*
X131742462Y-58160674D01*
X131676631Y-58136576D01*
X131625884Y-58116200D01*
X131601158Y-58103936D01*
X131601116Y-58103901D01*
X131593271Y-58081734D01*
X131579934Y-58027217D01*
X131562430Y-57946480D01*
X131542083Y-57845650D01*
X131520218Y-57730856D01*
X131518429Y-57721178D01*
X131496496Y-57602904D01*
X131476360Y-57495542D01*
X131459320Y-57405917D01*
X131446672Y-57340851D01*
X131439716Y-57307168D01*
X131439594Y-57306654D01*
X131435361Y-57292325D01*
X131427129Y-57281507D01*
X131409967Y-57273706D01*
X131378942Y-57268429D01*
X131329122Y-57265182D01*
X131255576Y-57263472D01*
X131153371Y-57262807D01*
X131017575Y-57262693D01*
X131000000Y-57262692D01*
X130860122Y-57262776D01*
G36*
X126754776Y-63622838D02*
G01*
X126677472Y-63673361D01*
X126640186Y-63718590D01*
X126610647Y-63800663D01*
X126608301Y-63865607D01*
X126613615Y-63952445D01*
X126813885Y-64040103D01*
X126911261Y-64084887D01*
X126974887Y-64120913D01*
X127007971Y-64152117D01*
X127013720Y-64182436D01*
X126995342Y-64215805D01*
X126975077Y-64237923D01*
X126916111Y-64273393D01*
X126851976Y-64275879D01*
X126793074Y-64248235D01*
X126749803Y-64193320D01*
X126742064Y-64173928D01*
X126704994Y-64113364D01*
X126662346Y-64087552D01*
X126603846Y-64065471D01*
X126603846Y-64149184D01*
X126609018Y-64206150D01*
X126629277Y-64254189D01*
X126671738Y-64309346D01*
X126678049Y-64316514D01*
X126725280Y-64365585D01*
X126765879Y-64391920D01*
X126816672Y-64404035D01*
X126858780Y-64408003D01*
X126934098Y-64408991D01*
X126987714Y-64396466D01*
X127021162Y-64377869D01*
X127073732Y-64336975D01*
X127110121Y-64292748D01*
X127133150Y-64237126D01*
X127145641Y-64162047D01*
X127150413Y-64059449D01*
X127150794Y-64007376D01*
X127149499Y-63944948D01*
X127031529Y-63944948D01*
X127030161Y-63978438D01*
X127026751Y-63983923D01*
X127004247Y-63976472D01*
X126955818Y-63956753D01*
X126891092Y-63928718D01*
X126877557Y-63922692D01*
X126795756Y-63881096D01*
X126750688Y-63844538D01*
X126740783Y-63810296D01*
X126764474Y-63775648D01*
X126784040Y-63760339D01*
X126854640Y-63729721D01*
X126920720Y-63734780D01*
X126976041Y-63772151D01*
X127014364Y-63838473D01*
X127026651Y-63891116D01*
X127031529Y-63944948D01*
X127149499Y-63944948D01*
X127148270Y-63885720D01*
X127138968Y-63795710D01*
X127120540Y-63730167D01*
X127090640Y-63681912D01*
X127046920Y-63643767D01*
X127027859Y-63631440D01*
X126941274Y-63599336D01*
X126846478Y-63597316D01*
X126754776Y-63622838D01*
G37*
X126754776Y-63622838D02*
X126677472Y-63673361D01*
X126640186Y-63718590D01*
X126610647Y-63800663D01*
X126608301Y-63865607D01*
X126613615Y-63952445D01*
X126813885Y-64040103D01*
X126911261Y-64084887D01*
X126974887Y-64120913D01*
X127007971Y-64152117D01*
X127013720Y-64182436D01*
X126995342Y-64215805D01*
X126975077Y-64237923D01*
X126916111Y-64273393D01*
X126851976Y-64275879D01*
X126793074Y-64248235D01*
X126749803Y-64193320D01*
X126742064Y-64173928D01*
X126704994Y-64113364D01*
X126662346Y-64087552D01*
X126603846Y-64065471D01*
X126603846Y-64149184D01*
X126609018Y-64206150D01*
X126629277Y-64254189D01*
X126671738Y-64309346D01*
X126678049Y-64316514D01*
X126725280Y-64365585D01*
X126765879Y-64391920D01*
X126816672Y-64404035D01*
X126858780Y-64408003D01*
X126934098Y-64408991D01*
X126987714Y-64396466D01*
X127021162Y-64377869D01*
X127073732Y-64336975D01*
X127110121Y-64292748D01*
X127133150Y-64237126D01*
X127145641Y-64162047D01*
X127150413Y-64059449D01*
X127150794Y-64007376D01*
X127149499Y-63944948D01*
X127031529Y-63944948D01*
X127030161Y-63978438D01*
X127026751Y-63983923D01*
X127004247Y-63976472D01*
X126955818Y-63956753D01*
X126891092Y-63928718D01*
X126877557Y-63922692D01*
X126795756Y-63881096D01*
X126750688Y-63844538D01*
X126740783Y-63810296D01*
X126764474Y-63775648D01*
X126784040Y-63760339D01*
X126854640Y-63729721D01*
X126920720Y-63734780D01*
X126976041Y-63772151D01*
X127014364Y-63838473D01*
X127026651Y-63891116D01*
X127031529Y-63944948D01*
X127149499Y-63944948D01*
X127148270Y-63885720D01*
X127138968Y-63795710D01*
X127120540Y-63730167D01*
X127090640Y-63681912D01*
X127046920Y-63643767D01*
X127027859Y-63631440D01*
X126941274Y-63599336D01*
X126846478Y-63597316D01*
X126754776Y-63622838D01*
G36*
X127429193Y-63611782D02*
G01*
X127405839Y-63621988D01*
X127350098Y-63666134D01*
X127302431Y-63729967D01*
X127272952Y-63798087D01*
X127268154Y-63831670D01*
X127284240Y-63878556D01*
X127319525Y-63903365D01*
X127357356Y-63918387D01*
X127374679Y-63921155D01*
X127383114Y-63901066D01*
X127399770Y-63857351D01*
X127407077Y-63837598D01*
X127448052Y-63769271D01*
X127507378Y-63735191D01*
X127583448Y-63736239D01*
X127589082Y-63737581D01*
X127629695Y-63756836D01*
X127659552Y-63794375D01*
X127679945Y-63854809D01*
X127692164Y-63942751D01*
X127697500Y-64062813D01*
X127698000Y-64126698D01*
X127698248Y-64227403D01*
X127699874Y-64296054D01*
X127704199Y-64339673D01*
X127712546Y-64365282D01*
X127726235Y-64379903D01*
X127746589Y-64390558D01*
X127747766Y-64391095D01*
X127786962Y-64407667D01*
X127806381Y-64413769D01*
X127809365Y-64395319D01*
X127811919Y-64344323D01*
X127813860Y-64267308D01*
X127815003Y-64170805D01*
X127815231Y-64100184D01*
X127814068Y-63963525D01*
X127809521Y-63859851D01*
X127800001Y-63783108D01*
X127783919Y-63727246D01*
X127759687Y-63686212D01*
X127725714Y-63653954D01*
X127692167Y-63631440D01*
X127611501Y-63601476D01*
X127517619Y-63594718D01*
X127429193Y-63611782D01*
G37*
X127429193Y-63611782D02*
X127405839Y-63621988D01*
X127350098Y-63666134D01*
X127302431Y-63729967D01*
X127272952Y-63798087D01*
X127268154Y-63831670D01*
X127284240Y-63878556D01*
X127319525Y-63903365D01*
X127357356Y-63918387D01*
X127374679Y-63921155D01*
X127383114Y-63901066D01*
X127399770Y-63857351D01*
X127407077Y-63837598D01*
X127448052Y-63769271D01*
X127507378Y-63735191D01*
X127583448Y-63736239D01*
X127589082Y-63737581D01*
X127629695Y-63756836D01*
X127659552Y-63794375D01*
X127679945Y-63854809D01*
X127692164Y-63942751D01*
X127697500Y-64062813D01*
X127698000Y-64126698D01*
X127698248Y-64227403D01*
X127699874Y-64296054D01*
X127704199Y-64339673D01*
X127712546Y-64365282D01*
X127726235Y-64379903D01*
X127746589Y-64390558D01*
X127747766Y-64391095D01*
X127786962Y-64407667D01*
X127806381Y-64413769D01*
X127809365Y-64395319D01*
X127811919Y-64344323D01*
X127813860Y-64267308D01*
X127815003Y-64170805D01*
X127815231Y-64100184D01*
X127814068Y-63963525D01*
X127809521Y-63859851D01*
X127800001Y-63783108D01*
X127783919Y-63727246D01*
X127759687Y-63686212D01*
X127725714Y-63653954D01*
X127692167Y-63631440D01*
X127611501Y-63601476D01*
X127517619Y-63594718D01*
X127429193Y-63611782D01*
G36*
X128112667Y-63608528D02*
G01*
X128056410Y-63634117D01*
X128012253Y-63665124D01*
X127979899Y-63699795D01*
X127957562Y-63744520D01*
X127943454Y-63805692D01*
X127935789Y-63889701D01*
X127932780Y-64002940D01*
X127932462Y-64077509D01*
X127932462Y-64368420D01*
X127982227Y-64391095D01*
X128021424Y-64407667D01*
X128040843Y-64413769D01*
X128044558Y-64395610D01*
X128047505Y-64346648D01*
X128049309Y-64275153D01*
X128049692Y-64218385D01*
X128051339Y-64136371D01*
X128055778Y-64071309D01*
X128062260Y-64031467D01*
X128067410Y-64023000D01*
X128102023Y-64031646D01*
X128156360Y-64053823D01*
X128219278Y-64083886D01*
X128279632Y-64116192D01*
X128326279Y-64145098D01*
X128348074Y-64164961D01*
X128348161Y-64165175D01*
X128346286Y-64201935D01*
X128329475Y-64237026D01*
X128299961Y-64265528D01*
X128256884Y-64275061D01*
X128220068Y-64273950D01*
X128167926Y-64273133D01*
X128140556Y-64285349D01*
X128124118Y-64317624D01*
X128122045Y-64323710D01*
X128114919Y-64369739D01*
X128133976Y-64397687D01*
X128183647Y-64411007D01*
X128237303Y-64413470D01*
X128333858Y-64395210D01*
X128383841Y-64369131D01*
X128445571Y-64307868D01*
X128478310Y-64232670D01*
X128481247Y-64153211D01*
X128453576Y-64079167D01*
X128411953Y-64032769D01*
X128370396Y-64006793D01*
X128305078Y-63973907D01*
X128228962Y-63940557D01*
X128216274Y-63935461D01*
X128132667Y-63898565D01*
X128084470Y-63866046D01*
X128068970Y-63833718D01*
X128083450Y-63797394D01*
X128108308Y-63769000D01*
X128167061Y-63734039D01*
X128231707Y-63731417D01*
X128290992Y-63758358D01*
X128333661Y-63812088D01*
X128339261Y-63825950D01*
X128371867Y-63876936D01*
X128419470Y-63914787D01*
X128479539Y-63945850D01*
X128479539Y-63857768D01*
X128476003Y-63803951D01*
X128460844Y-63761534D01*
X128427232Y-63716279D01*
X128394965Y-63681420D01*
X128344791Y-63632062D01*
X128305807Y-63605547D01*
X128263936Y-63594911D01*
X128216540Y-63593154D01*
X128112667Y-63608528D01*
G37*
X128112667Y-63608528D02*
X128056410Y-63634117D01*
X128012253Y-63665124D01*
X127979899Y-63699795D01*
X127957562Y-63744520D01*
X127943454Y-63805692D01*
X127935789Y-63889701D01*
X127932780Y-64002940D01*
X127932462Y-64077509D01*
X127932462Y-64368420D01*
X127982227Y-64391095D01*
X128021424Y-64407667D01*
X128040843Y-64413769D01*
X128044558Y-64395610D01*
X128047505Y-64346648D01*
X128049309Y-64275153D01*
X128049692Y-64218385D01*
X128051339Y-64136371D01*
X128055778Y-64071309D01*
X128062260Y-64031467D01*
X128067410Y-64023000D01*
X128102023Y-64031646D01*
X128156360Y-64053823D01*
X128219278Y-64083886D01*
X128279632Y-64116192D01*
X128326279Y-64145098D01*
X128348074Y-64164961D01*
X128348161Y-64165175D01*
X128346286Y-64201935D01*
X128329475Y-64237026D01*
X128299961Y-64265528D01*
X128256884Y-64275061D01*
X128220068Y-64273950D01*
X128167926Y-64273133D01*
X128140556Y-64285349D01*
X128124118Y-64317624D01*
X128122045Y-64323710D01*
X128114919Y-64369739D01*
X128133976Y-64397687D01*
X128183647Y-64411007D01*
X128237303Y-64413470D01*
X128333858Y-64395210D01*
X128383841Y-64369131D01*
X128445571Y-64307868D01*
X128478310Y-64232670D01*
X128481247Y-64153211D01*
X128453576Y-64079167D01*
X128411953Y-64032769D01*
X128370396Y-64006793D01*
X128305078Y-63973907D01*
X128228962Y-63940557D01*
X128216274Y-63935461D01*
X128132667Y-63898565D01*
X128084470Y-63866046D01*
X128068970Y-63833718D01*
X128083450Y-63797394D01*
X128108308Y-63769000D01*
X128167061Y-63734039D01*
X128231707Y-63731417D01*
X128290992Y-63758358D01*
X128333661Y-63812088D01*
X128339261Y-63825950D01*
X128371867Y-63876936D01*
X128419470Y-63914787D01*
X128479539Y-63945850D01*
X128479539Y-63857768D01*
X128476003Y-63803951D01*
X128460844Y-63761534D01*
X128427232Y-63716279D01*
X128394965Y-63681420D01*
X128344791Y-63632062D01*
X128305807Y-63605547D01*
X128263936Y-63594911D01*
X128216540Y-63593154D01*
X128112667Y-63608528D01*
G36*
X128604071Y-63611662D02*
G01*
X128601089Y-63663068D01*
X128598753Y-63741192D01*
X128597251Y-63839857D01*
X128596769Y-63943343D01*
X128596769Y-64293533D01*
X128658599Y-64355363D01*
X128701207Y-64393462D01*
X128738610Y-64408895D01*
X128789730Y-64407918D01*
X128810022Y-64405433D01*
X128873446Y-64398200D01*
X128925905Y-64394055D01*
X128938692Y-64393672D01*
X128981801Y-64396176D01*
X129043456Y-64402462D01*
X129067362Y-64405433D01*
X129126078Y-64410028D01*
X129165536Y-64400046D01*
X129204662Y-64369228D01*
X129218785Y-64355363D01*
X129280615Y-64293533D01*
X129280615Y-63638503D01*
X129230850Y-63615829D01*
X129187998Y-63599034D01*
X129162927Y-63593154D01*
X129156499Y-63611736D01*
X129150491Y-63663655D01*
X129145303Y-63743172D01*
X129141336Y-63844546D01*
X129139423Y-63930192D01*
X129134077Y-64267231D01*
X129087440Y-64273825D01*
X129045024Y-64269214D01*
X129024240Y-64254287D01*
X129018430Y-64226377D01*
X129013470Y-64166925D01*
X129009754Y-64083466D01*
X129007676Y-63983532D01*
X129007376Y-63932104D01*
X129007077Y-63636054D01*
X128945546Y-63614604D01*
X128901996Y-63600020D01*
X128878306Y-63593219D01*
X128877623Y-63593154D01*
X128875246Y-63611642D01*
X128872634Y-63662906D01*
X128870005Y-63740649D01*
X128867579Y-63838574D01*
X128865885Y-63930192D01*
X128860539Y-64267231D01*
X128743308Y-64267231D01*
X128737928Y-63959746D01*
X128732549Y-63652261D01*
X128675399Y-63622707D01*
X128633203Y-63602413D01*
X128608230Y-63593204D01*
X128607509Y-63593154D01*
X128604071Y-63611662D01*
G37*
X128604071Y-63611662D02*
X128601089Y-63663068D01*
X128598753Y-63741192D01*
X128597251Y-63839857D01*
X128596769Y-63943343D01*
X128596769Y-64293533D01*
X128658599Y-64355363D01*
X128701207Y-64393462D01*
X128738610Y-64408895D01*
X128789730Y-64407918D01*
X128810022Y-64405433D01*
X128873446Y-64398200D01*
X128925905Y-64394055D01*
X128938692Y-64393672D01*
X128981801Y-64396176D01*
X129043456Y-64402462D01*
X129067362Y-64405433D01*
X129126078Y-64410028D01*
X129165536Y-64400046D01*
X129204662Y-64369228D01*
X129218785Y-64355363D01*
X129280615Y-64293533D01*
X129280615Y-63638503D01*
X129230850Y-63615829D01*
X129187998Y-63599034D01*
X129162927Y-63593154D01*
X129156499Y-63611736D01*
X129150491Y-63663655D01*
X129145303Y-63743172D01*
X129141336Y-63844546D01*
X129139423Y-63930192D01*
X129134077Y-64267231D01*
X129087440Y-64273825D01*
X129045024Y-64269214D01*
X129024240Y-64254287D01*
X129018430Y-64226377D01*
X129013470Y-64166925D01*
X129009754Y-64083466D01*
X129007676Y-63983532D01*
X129007376Y-63932104D01*
X129007077Y-63636054D01*
X128945546Y-63614604D01*
X128901996Y-63600020D01*
X128878306Y-63593219D01*
X128877623Y-63593154D01*
X128875246Y-63611642D01*
X128872634Y-63662906D01*
X128870005Y-63740649D01*
X128867579Y-63838574D01*
X128865885Y-63930192D01*
X128860539Y-64267231D01*
X128743308Y-64267231D01*
X128737928Y-63959746D01*
X128732549Y-63652261D01*
X128675399Y-63622707D01*
X128633203Y-63602413D01*
X128608230Y-63593204D01*
X128607509Y-63593154D01*
X128604071Y-63611662D01*
G36*
X129397919Y-63755289D02*
G01*
X129398167Y-63901320D01*
X129399128Y-64013655D01*
X129401206Y-64097678D01*
X129404807Y-64158769D01*
X129410335Y-64202309D01*
X129418196Y-64233679D01*
X129428793Y-64258262D01*
X129436818Y-64272294D01*
X129503272Y-64348388D01*
X129587530Y-64396084D01*
X129680751Y-64413199D01*
X129774100Y-64397546D01*
X129829688Y-64369418D01*
X129888043Y-64320760D01*
X129927814Y-64261333D01*
X129951810Y-64183507D01*
X129962839Y-64079652D01*
X129964401Y-64003462D01*
X129964191Y-63997986D01*
X129827692Y-63997986D01*
X129826859Y-64085355D01*
X129823039Y-64143192D01*
X129814254Y-64181029D01*
X129798526Y-64208398D01*
X129779734Y-64229042D01*
X129716625Y-64268890D01*
X129648863Y-64272295D01*
X129584821Y-64239025D01*
X129579836Y-64234517D01*
X129558561Y-64211067D01*
X129545221Y-64183166D01*
X129537999Y-64141641D01*
X129535077Y-64077316D01*
X129534615Y-64006200D01*
X129535617Y-63916858D01*
X129539762Y-63857258D01*
X129548764Y-63818089D01*
X129564333Y-63790040D01*
X129577098Y-63775144D01*
X129636400Y-63737575D01*
X129704699Y-63733057D01*
X129769890Y-63761753D01*
X129782472Y-63772406D01*
X129803889Y-63796063D01*
X129817256Y-63824251D01*
X129824434Y-63866245D01*
X129827281Y-63931319D01*
X129827692Y-63997986D01*
X129964191Y-63997986D01*
X129959678Y-63880765D01*
X129943638Y-63788577D01*
X129913472Y-63719269D01*
X129866371Y-63665211D01*
X129829688Y-63637505D01*
X129763010Y-63607572D01*
X129685728Y-63593678D01*
X129613890Y-63597397D01*
X129573692Y-63612400D01*
X129557918Y-63616670D01*
X129547450Y-63600750D01*
X129540144Y-63558089D01*
X129534615Y-63493106D01*
X129528563Y-63420732D01*
X129520156Y-63377187D01*
X129504859Y-63352287D01*
X129478136Y-63335845D01*
X129461346Y-63328564D01*
X129397846Y-63301963D01*
X129397919Y-63755289D01*
G37*
X129397919Y-63755289D02*
X129398167Y-63901320D01*
X129399128Y-64013655D01*
X129401206Y-64097678D01*
X129404807Y-64158769D01*
X129410335Y-64202309D01*
X129418196Y-64233679D01*
X129428793Y-64258262D01*
X129436818Y-64272294D01*
X129503272Y-64348388D01*
X129587530Y-64396084D01*
X129680751Y-64413199D01*
X129774100Y-64397546D01*
X129829688Y-64369418D01*
X129888043Y-64320760D01*
X129927814Y-64261333D01*
X129951810Y-64183507D01*
X129962839Y-64079652D01*
X129964401Y-64003462D01*
X129964191Y-63997986D01*
X129827692Y-63997986D01*
X129826859Y-64085355D01*
X129823039Y-64143192D01*
X129814254Y-64181029D01*
X129798526Y-64208398D01*
X129779734Y-64229042D01*
X129716625Y-64268890D01*
X129648863Y-64272295D01*
X129584821Y-64239025D01*
X129579836Y-64234517D01*
X129558561Y-64211067D01*
X129545221Y-64183166D01*
X129537999Y-64141641D01*
X129535077Y-64077316D01*
X129534615Y-64006200D01*
X129535617Y-63916858D01*
X129539762Y-63857258D01*
X129548764Y-63818089D01*
X129564333Y-63790040D01*
X129577098Y-63775144D01*
X129636400Y-63737575D01*
X129704699Y-63733057D01*
X129769890Y-63761753D01*
X129782472Y-63772406D01*
X129803889Y-63796063D01*
X129817256Y-63824251D01*
X129824434Y-63866245D01*
X129827281Y-63931319D01*
X129827692Y-63997986D01*
X129964191Y-63997986D01*
X129959678Y-63880765D01*
X129943638Y-63788577D01*
X129913472Y-63719269D01*
X129866371Y-63665211D01*
X129829688Y-63637505D01*
X129763010Y-63607572D01*
X129685728Y-63593678D01*
X129613890Y-63597397D01*
X129573692Y-63612400D01*
X129557918Y-63616670D01*
X129547450Y-63600750D01*
X129540144Y-63558089D01*
X129534615Y-63493106D01*
X129528563Y-63420732D01*
X129520156Y-63377187D01*
X129504859Y-63352287D01*
X129478136Y-63335845D01*
X129461346Y-63328564D01*
X129397846Y-63301963D01*
X129397919Y-63755289D01*
G36*
X130286638Y-63599670D02*
G01*
X130197883Y-63632421D01*
X130125978Y-63690350D01*
X130097856Y-63731128D01*
X130067198Y-63805954D01*
X130067835Y-63860058D01*
X130100013Y-63896446D01*
X130111919Y-63902633D01*
X130163325Y-63921925D01*
X130189578Y-63916982D01*
X130198470Y-63884587D01*
X130198923Y-63866692D01*
X130215203Y-63800859D01*
X130257635Y-63754807D01*
X130316612Y-63732564D01*
X130382525Y-63738161D01*
X130436105Y-63767229D01*
X130454202Y-63783810D01*
X130467029Y-63803925D01*
X130475694Y-63834332D01*
X130481304Y-63881788D01*
X130484965Y-63953050D01*
X130487785Y-64054875D01*
X130488516Y-64087115D01*
X130491180Y-64197410D01*
X130494208Y-64275036D01*
X130498750Y-64326396D01*
X130505954Y-64357890D01*
X130516967Y-64375920D01*
X130532940Y-64386888D01*
X130543166Y-64391733D01*
X130586594Y-64408301D01*
X130612158Y-64413769D01*
X130620605Y-64395507D01*
X130625761Y-64340296D01*
X130627654Y-64247499D01*
X130626311Y-64116478D01*
X130625893Y-64096269D01*
X130622942Y-63976733D01*
X130619452Y-63889449D01*
X130614486Y-63827591D01*
X130607107Y-63784336D01*
X130596376Y-63752860D01*
X130581355Y-63726339D01*
X130573498Y-63714975D01*
X130528447Y-63664692D01*
X130478060Y-63625581D01*
X130471892Y-63622167D01*
X130381542Y-63595212D01*
X130286638Y-63599670D01*
G37*
X130286638Y-63599670D02*
X130197883Y-63632421D01*
X130125978Y-63690350D01*
X130097856Y-63731128D01*
X130067198Y-63805954D01*
X130067835Y-63860058D01*
X130100013Y-63896446D01*
X130111919Y-63902633D01*
X130163325Y-63921925D01*
X130189578Y-63916982D01*
X130198470Y-63884587D01*
X130198923Y-63866692D01*
X130215203Y-63800859D01*
X130257635Y-63754807D01*
X130316612Y-63732564D01*
X130382525Y-63738161D01*
X130436105Y-63767229D01*
X130454202Y-63783810D01*
X130467029Y-63803925D01*
X130475694Y-63834332D01*
X130481304Y-63881788D01*
X130484965Y-63953050D01*
X130487785Y-64054875D01*
X130488516Y-64087115D01*
X130491180Y-64197410D01*
X130494208Y-64275036D01*
X130498750Y-64326396D01*
X130505954Y-64357890D01*
X130516967Y-64375920D01*
X130532940Y-64386888D01*
X130543166Y-64391733D01*
X130586594Y-64408301D01*
X130612158Y-64413769D01*
X130620605Y-64395507D01*
X130625761Y-64340296D01*
X130627654Y-64247499D01*
X130626311Y-64116478D01*
X130625893Y-64096269D01*
X130622942Y-63976733D01*
X130619452Y-63889449D01*
X130614486Y-63827591D01*
X130607107Y-63784336D01*
X130596376Y-63752860D01*
X130581355Y-63726339D01*
X130573498Y-63714975D01*
X130528447Y-63664692D01*
X130478060Y-63625581D01*
X130471892Y-63622167D01*
X130381542Y-63595212D01*
X130286638Y-63599670D01*
G36*
X130946499Y-63601303D02*
G01*
X130869940Y-63629733D01*
X130869064Y-63630279D01*
X130821715Y-63665127D01*
X130786759Y-63705852D01*
X130762175Y-63758925D01*
X130745938Y-63830814D01*
X130736025Y-63927992D01*
X130730414Y-64056928D01*
X130729923Y-64075298D01*
X130722859Y-64352287D01*
X130782305Y-64383028D01*
X130825319Y-64403802D01*
X130851290Y-64413646D01*
X130852491Y-64413769D01*
X130856986Y-64395606D01*
X130860556Y-64346612D01*
X130862752Y-64275031D01*
X130863231Y-64217068D01*
X130863242Y-64123170D01*
X130867534Y-64064203D01*
X130882497Y-64036079D01*
X130914518Y-64034706D01*
X130969986Y-64055998D01*
X131053731Y-64095136D01*
X131115311Y-64127643D01*
X131146983Y-64155845D01*
X131156294Y-64186582D01*
X131156308Y-64188104D01*
X131140943Y-64241054D01*
X131095453Y-64269660D01*
X131025834Y-64273803D01*
X130975687Y-64273084D01*
X130949246Y-64287527D01*
X130932757Y-64322218D01*
X130923267Y-64366416D01*
X130936943Y-64391493D01*
X130942093Y-64395082D01*
X130990575Y-64409496D01*
X131058469Y-64411537D01*
X131128388Y-64401983D01*
X131177932Y-64384522D01*
X131246430Y-64326364D01*
X131285366Y-64245408D01*
X131293077Y-64182160D01*
X131287193Y-64125111D01*
X131265899Y-64078542D01*
X131223735Y-64037181D01*
X131155241Y-63995755D01*
X131054956Y-63948993D01*
X131048846Y-63946350D01*
X130958510Y-63904617D01*
X130902765Y-63870391D01*
X130878871Y-63839635D01*
X130884087Y-63808311D01*
X130915672Y-63772383D01*
X130925117Y-63764116D01*
X130988383Y-63732058D01*
X131053936Y-63733407D01*
X131111028Y-63764838D01*
X131148907Y-63823024D01*
X131152426Y-63834446D01*
X131186700Y-63889837D01*
X131230191Y-63916518D01*
X131293077Y-63942960D01*
X131293077Y-63874548D01*
X131273948Y-63775110D01*
X131217169Y-63683902D01*
X131187622Y-63653389D01*
X131120458Y-63614228D01*
X131035044Y-63596500D01*
X130946499Y-63601303D01*
G37*
X130946499Y-63601303D02*
X130869940Y-63629733D01*
X130869064Y-63630279D01*
X130821715Y-63665127D01*
X130786759Y-63705852D01*
X130762175Y-63758925D01*
X130745938Y-63830814D01*
X130736025Y-63927992D01*
X130730414Y-64056928D01*
X130729923Y-64075298D01*
X130722859Y-64352287D01*
X130782305Y-64383028D01*
X130825319Y-64403802D01*
X130851290Y-64413646D01*
X130852491Y-64413769D01*
X130856986Y-64395606D01*
X130860556Y-64346612D01*
X130862752Y-64275031D01*
X130863231Y-64217068D01*
X130863242Y-64123170D01*
X130867534Y-64064203D01*
X130882497Y-64036079D01*
X130914518Y-64034706D01*
X130969986Y-64055998D01*
X131053731Y-64095136D01*
X131115311Y-64127643D01*
X131146983Y-64155845D01*
X131156294Y-64186582D01*
X131156308Y-64188104D01*
X131140943Y-64241054D01*
X131095453Y-64269660D01*
X131025834Y-64273803D01*
X130975687Y-64273084D01*
X130949246Y-64287527D01*
X130932757Y-64322218D01*
X130923267Y-64366416D01*
X130936943Y-64391493D01*
X130942093Y-64395082D01*
X130990575Y-64409496D01*
X131058469Y-64411537D01*
X131128388Y-64401983D01*
X131177932Y-64384522D01*
X131246430Y-64326364D01*
X131285366Y-64245408D01*
X131293077Y-64182160D01*
X131287193Y-64125111D01*
X131265899Y-64078542D01*
X131223735Y-64037181D01*
X131155241Y-63995755D01*
X131054956Y-63948993D01*
X131048846Y-63946350D01*
X130958510Y-63904617D01*
X130902765Y-63870391D01*
X130878871Y-63839635D01*
X130884087Y-63808311D01*
X130915672Y-63772383D01*
X130925117Y-63764116D01*
X130988383Y-63732058D01*
X131053936Y-63733407D01*
X131111028Y-63764838D01*
X131148907Y-63823024D01*
X131152426Y-63834446D01*
X131186700Y-63889837D01*
X131230191Y-63916518D01*
X131293077Y-63942960D01*
X131293077Y-63874548D01*
X131273948Y-63775110D01*
X131217169Y-63683902D01*
X131187622Y-63653389D01*
X131120458Y-63614228D01*
X131035044Y-63596500D01*
X130946499Y-63601303D01*
G36*
X131840154Y-63467120D02*
G01*
X131834428Y-63546980D01*
X131827851Y-63594039D01*
X131818738Y-63614566D01*
X131805402Y-63614829D01*
X131801077Y-63612378D01*
X131743556Y-63594636D01*
X131668732Y-63595672D01*
X131592661Y-63613910D01*
X131545082Y-63637505D01*
X131496298Y-63675198D01*
X131460636Y-63717855D01*
X131436155Y-63772057D01*
X131420913Y-63844384D01*
X131412970Y-63941419D01*
X131410384Y-64069742D01*
X131410338Y-64094358D01*
X131410308Y-64370870D01*
X131471839Y-64392320D01*
X131515541Y-64406912D01*
X131539518Y-64413706D01*
X131540223Y-64413769D01*
X131542585Y-64395345D01*
X131544594Y-64344526D01*
X131546099Y-64267993D01*
X131546947Y-64172430D01*
X131547077Y-64114329D01*
X131547349Y-63999771D01*
X131548748Y-63917667D01*
X131552151Y-63861393D01*
X131558433Y-63824326D01*
X131568471Y-63799844D01*
X131583139Y-63781325D01*
X131592298Y-63772406D01*
X131655211Y-63736466D01*
X131723864Y-63733775D01*
X131786152Y-63764170D01*
X131797671Y-63775144D01*
X131814567Y-63795779D01*
X131826286Y-63820256D01*
X131833767Y-63855647D01*
X131837946Y-63909026D01*
X131839763Y-63987466D01*
X131840154Y-64095617D01*
X131840154Y-64370870D01*
X131901685Y-64392320D01*
X131945387Y-64406912D01*
X131969364Y-64413706D01*
X131970070Y-64413769D01*
X131971874Y-64395069D01*
X131973500Y-64342322D01*
X131974883Y-64260557D01*
X131975958Y-64154805D01*
X131976660Y-64030094D01*
X131976923Y-63891455D01*
X131976923Y-63356806D01*
X131849923Y-63303236D01*
X131840154Y-63467120D01*
G37*
X131840154Y-63467120D02*
X131834428Y-63546980D01*
X131827851Y-63594039D01*
X131818738Y-63614566D01*
X131805402Y-63614829D01*
X131801077Y-63612378D01*
X131743556Y-63594636D01*
X131668732Y-63595672D01*
X131592661Y-63613910D01*
X131545082Y-63637505D01*
X131496298Y-63675198D01*
X131460636Y-63717855D01*
X131436155Y-63772057D01*
X131420913Y-63844384D01*
X131412970Y-63941419D01*
X131410384Y-64069742D01*
X131410338Y-64094358D01*
X131410308Y-64370870D01*
X131471839Y-64392320D01*
X131515541Y-64406912D01*
X131539518Y-64413706D01*
X131540223Y-64413769D01*
X131542585Y-64395345D01*
X131544594Y-64344526D01*
X131546099Y-64267993D01*
X131546947Y-64172430D01*
X131547077Y-64114329D01*
X131547349Y-63999771D01*
X131548748Y-63917667D01*
X131552151Y-63861393D01*
X131558433Y-63824326D01*
X131568471Y-63799844D01*
X131583139Y-63781325D01*
X131592298Y-63772406D01*
X131655211Y-63736466D01*
X131723864Y-63733775D01*
X131786152Y-63764170D01*
X131797671Y-63775144D01*
X131814567Y-63795779D01*
X131826286Y-63820256D01*
X131833767Y-63855647D01*
X131837946Y-63909026D01*
X131839763Y-63987466D01*
X131840154Y-64095617D01*
X131840154Y-64370870D01*
X131901685Y-64392320D01*
X131945387Y-64406912D01*
X131969364Y-64413706D01*
X131970070Y-64413769D01*
X131971874Y-64395069D01*
X131973500Y-64342322D01*
X131974883Y-64260557D01*
X131975958Y-64154805D01*
X131976660Y-64030094D01*
X131976923Y-63891455D01*
X131976923Y-63356806D01*
X131849923Y-63303236D01*
X131840154Y-63467120D01*
G36*
X133465746Y-63574745D02*
G01*
X133388714Y-63626567D01*
X133329184Y-63701412D01*
X133293622Y-63796654D01*
X133286429Y-63866756D01*
X133287246Y-63896009D01*
X133294086Y-63918407D01*
X133312888Y-63938474D01*
X133349592Y-63960733D01*
X133410138Y-63989709D01*
X133500466Y-64029927D01*
X133500923Y-64030129D01*
X133584067Y-64068210D01*
X133652247Y-64102025D01*
X133698495Y-64127933D01*
X133715842Y-64142295D01*
X133715846Y-64142411D01*
X133700557Y-64173685D01*
X133664804Y-64208157D01*
X133623758Y-64232990D01*
X133602963Y-64237923D01*
X133546230Y-64220862D01*
X133497373Y-64178133D01*
X133473535Y-64131155D01*
X133450603Y-64096522D01*
X133405682Y-64057081D01*
X133352877Y-64023009D01*
X133306290Y-64004480D01*
X133296548Y-64003462D01*
X133285582Y-64020215D01*
X133284921Y-64063039D01*
X133292980Y-64120781D01*
X133308173Y-64182289D01*
X133328914Y-64236409D01*
X133329962Y-64238510D01*
X133392379Y-64325660D01*
X133473274Y-64384939D01*
X133565144Y-64414034D01*
X133660487Y-64410634D01*
X133751802Y-64372428D01*
X133755862Y-64369741D01*
X133827694Y-64304642D01*
X133874927Y-64219705D01*
X133901066Y-64108021D01*
X133904574Y-64076643D01*
X133910787Y-63928536D01*
X133903339Y-63859468D01*
X133715846Y-63859468D01*
X133713410Y-63902552D01*
X133700086Y-63915126D01*
X133666868Y-63905719D01*
X133614506Y-63883483D01*
X133555976Y-63855610D01*
X133554521Y-63854872D01*
X133504911Y-63828777D01*
X133485000Y-63811363D01*
X133489910Y-63793107D01*
X133510584Y-63769120D01*
X133563181Y-63734406D01*
X133619823Y-63731856D01*
X133670631Y-63757119D01*
X133705724Y-63805847D01*
X133715846Y-63859468D01*
X133903339Y-63859468D01*
X133898008Y-63810036D01*
X133865222Y-63716055D01*
X133819579Y-63650215D01*
X133737198Y-63583681D01*
X133646454Y-63550676D01*
X133553815Y-63548573D01*
X133465746Y-63574745D01*
G37*
X133465746Y-63574745D02*
X133388714Y-63626567D01*
X133329184Y-63701412D01*
X133293622Y-63796654D01*
X133286429Y-63866756D01*
X133287246Y-63896009D01*
X133294086Y-63918407D01*
X133312888Y-63938474D01*
X133349592Y-63960733D01*
X133410138Y-63989709D01*
X133500466Y-64029927D01*
X133500923Y-64030129D01*
X133584067Y-64068210D01*
X133652247Y-64102025D01*
X133698495Y-64127933D01*
X133715842Y-64142295D01*
X133715846Y-64142411D01*
X133700557Y-64173685D01*
X133664804Y-64208157D01*
X133623758Y-64232990D01*
X133602963Y-64237923D01*
X133546230Y-64220862D01*
X133497373Y-64178133D01*
X133473535Y-64131155D01*
X133450603Y-64096522D01*
X133405682Y-64057081D01*
X133352877Y-64023009D01*
X133306290Y-64004480D01*
X133296548Y-64003462D01*
X133285582Y-64020215D01*
X133284921Y-64063039D01*
X133292980Y-64120781D01*
X133308173Y-64182289D01*
X133328914Y-64236409D01*
X133329962Y-64238510D01*
X133392379Y-64325660D01*
X133473274Y-64384939D01*
X133565144Y-64414034D01*
X133660487Y-64410634D01*
X133751802Y-64372428D01*
X133755862Y-64369741D01*
X133827694Y-64304642D01*
X133874927Y-64219705D01*
X133901066Y-64108021D01*
X133904574Y-64076643D01*
X133910787Y-63928536D01*
X133903339Y-63859468D01*
X133715846Y-63859468D01*
X133713410Y-63902552D01*
X133700086Y-63915126D01*
X133666868Y-63905719D01*
X133614506Y-63883483D01*
X133555976Y-63855610D01*
X133554521Y-63854872D01*
X133504911Y-63828777D01*
X133485000Y-63811363D01*
X133489910Y-63793107D01*
X133510584Y-63769120D01*
X133563181Y-63734406D01*
X133619823Y-63731856D01*
X133670631Y-63757119D01*
X133705724Y-63805847D01*
X133715846Y-63859468D01*
X133903339Y-63859468D01*
X133898008Y-63810036D01*
X133865222Y-63716055D01*
X133819579Y-63650215D01*
X133737198Y-63583681D01*
X133646454Y-63550676D01*
X133553815Y-63548573D01*
X133465746Y-63574745D01*
G36*
X134983114Y-63562256D02*
G01*
X134891536Y-63610409D01*
X134823951Y-63687905D01*
X134799943Y-63737727D01*
X134781262Y-63812533D01*
X134771699Y-63907052D01*
X134770792Y-64010210D01*
X134778079Y-64110935D01*
X134793097Y-64198153D01*
X134815385Y-64260791D01*
X134822235Y-64271579D01*
X134903368Y-64352105D01*
X134999734Y-64400336D01*
X135104299Y-64414450D01*
X135210032Y-64392629D01*
X135239457Y-64379547D01*
X135296759Y-64339231D01*
X135347050Y-64285775D01*
X135351803Y-64278995D01*
X135371122Y-64246321D01*
X135383892Y-64211394D01*
X135391436Y-64165414D01*
X135395076Y-64099584D01*
X135396135Y-64005105D01*
X135396154Y-63983923D01*
X135396106Y-63977182D01*
X135200769Y-63977182D01*
X135199632Y-64066349D01*
X135195159Y-64125520D01*
X135185754Y-64163741D01*
X135169824Y-64190053D01*
X135161692Y-64198846D01*
X135114942Y-64232261D01*
X135069553Y-64230737D01*
X135023660Y-64201752D01*
X134996288Y-64170809D01*
X134980077Y-64125643D01*
X134970974Y-64054420D01*
X134970349Y-64046114D01*
X134968796Y-63917037D01*
X134985035Y-63821172D01*
X135018848Y-63759107D01*
X135070016Y-63731432D01*
X135088280Y-63729923D01*
X135136240Y-63737513D01*
X135169047Y-63763808D01*
X135189105Y-63814095D01*
X135198822Y-63893664D01*
X135200769Y-63977182D01*
X135396106Y-63977182D01*
X135395426Y-63883249D01*
X135392371Y-63812906D01*
X135385678Y-63764163D01*
X135374040Y-63728288D01*
X135356147Y-63696548D01*
X135352192Y-63690648D01*
X135285733Y-63611104D01*
X135213315Y-63564929D01*
X135125151Y-63546599D01*
X135095213Y-63545703D01*
X134983114Y-63562256D01*
G37*
X134983114Y-63562256D02*
X134891536Y-63610409D01*
X134823951Y-63687905D01*
X134799943Y-63737727D01*
X134781262Y-63812533D01*
X134771699Y-63907052D01*
X134770792Y-64010210D01*
X134778079Y-64110935D01*
X134793097Y-64198153D01*
X134815385Y-64260791D01*
X134822235Y-64271579D01*
X134903368Y-64352105D01*
X134999734Y-64400336D01*
X135104299Y-64414450D01*
X135210032Y-64392629D01*
X135239457Y-64379547D01*
X135296759Y-64339231D01*
X135347050Y-64285775D01*
X135351803Y-64278995D01*
X135371122Y-64246321D01*
X135383892Y-64211394D01*
X135391436Y-64165414D01*
X135395076Y-64099584D01*
X135396135Y-64005105D01*
X135396154Y-63983923D01*
X135396106Y-63977182D01*
X135200769Y-63977182D01*
X135199632Y-64066349D01*
X135195159Y-64125520D01*
X135185754Y-64163741D01*
X135169824Y-64190053D01*
X135161692Y-64198846D01*
X135114942Y-64232261D01*
X135069553Y-64230737D01*
X135023660Y-64201752D01*
X134996288Y-64170809D01*
X134980077Y-64125643D01*
X134970974Y-64054420D01*
X134970349Y-64046114D01*
X134968796Y-63917037D01*
X134985035Y-63821172D01*
X135018848Y-63759107D01*
X135070016Y-63731432D01*
X135088280Y-63729923D01*
X135136240Y-63737513D01*
X135169047Y-63763808D01*
X135189105Y-63814095D01*
X135198822Y-63893664D01*
X135200769Y-63977182D01*
X135396106Y-63977182D01*
X135395426Y-63883249D01*
X135392371Y-63812906D01*
X135385678Y-63764163D01*
X135374040Y-63728288D01*
X135356147Y-63696548D01*
X135352192Y-63690648D01*
X135285733Y-63611104D01*
X135213315Y-63564929D01*
X135125151Y-63546599D01*
X135095213Y-63545703D01*
X134983114Y-63562256D01*
G36*
X132728336Y-63570089D02*
G01*
X132665633Y-63606358D01*
X132622039Y-63642358D01*
X132590155Y-63680075D01*
X132568190Y-63726199D01*
X132554351Y-63787421D01*
X132546847Y-63870431D01*
X132543883Y-63981919D01*
X132543539Y-64062062D01*
X132543539Y-64357065D01*
X132709615Y-64431515D01*
X132719385Y-64108402D01*
X132723421Y-63987729D01*
X132727656Y-63900141D01*
X132732903Y-63839650D01*
X132739975Y-63800268D01*
X132749689Y-63776007D01*
X132762856Y-63760880D01*
X132767081Y-63757606D01*
X132831091Y-63732034D01*
X132895792Y-63742153D01*
X132934308Y-63769000D01*
X132949975Y-63788024D01*
X132960820Y-63812988D01*
X132967712Y-63850834D01*
X132971521Y-63908502D01*
X132973117Y-63992935D01*
X132973385Y-64080928D01*
X132973437Y-64191323D01*
X132975328Y-64269463D01*
X132981655Y-64322165D01*
X132995017Y-64356242D01*
X133018015Y-64378511D01*
X133053246Y-64395787D01*
X133100303Y-64413738D01*
X133151697Y-64433278D01*
X133145579Y-64086485D01*
X133143116Y-63961468D01*
X133140233Y-63869082D01*
X133136102Y-63802881D01*
X133129893Y-63756420D01*
X133120774Y-63723256D01*
X133107917Y-63696944D01*
X133092416Y-63673729D01*
X133017629Y-63599569D01*
X132926372Y-63556684D01*
X132827117Y-63546412D01*
X132728336Y-63570089D01*
G37*
X132728336Y-63570089D02*
X132665633Y-63606358D01*
X132622039Y-63642358D01*
X132590155Y-63680075D01*
X132568190Y-63726199D01*
X132554351Y-63787421D01*
X132546847Y-63870431D01*
X132543883Y-63981919D01*
X132543539Y-64062062D01*
X132543539Y-64357065D01*
X132709615Y-64431515D01*
X132719385Y-64108402D01*
X132723421Y-63987729D01*
X132727656Y-63900141D01*
X132732903Y-63839650D01*
X132739975Y-63800268D01*
X132749689Y-63776007D01*
X132762856Y-63760880D01*
X132767081Y-63757606D01*
X132831091Y-63732034D01*
X132895792Y-63742153D01*
X132934308Y-63769000D01*
X132949975Y-63788024D01*
X132960820Y-63812988D01*
X132967712Y-63850834D01*
X132971521Y-63908502D01*
X132973117Y-63992935D01*
X132973385Y-64080928D01*
X132973437Y-64191323D01*
X132975328Y-64269463D01*
X132981655Y-64322165D01*
X132995017Y-64356242D01*
X133018015Y-64378511D01*
X133053246Y-64395787D01*
X133100303Y-64413738D01*
X133151697Y-64433278D01*
X133145579Y-64086485D01*
X133143116Y-63961468D01*
X133140233Y-63869082D01*
X133136102Y-63802881D01*
X133129893Y-63756420D01*
X133120774Y-63723256D01*
X133107917Y-63696944D01*
X133092416Y-63673729D01*
X133017629Y-63599569D01*
X132926372Y-63556684D01*
X132827117Y-63546412D01*
X132728336Y-63570089D01*
G36*
X134231114Y-63559505D02*
G01*
X134156461Y-63596727D01*
X134090569Y-63665261D01*
X134072423Y-63690648D01*
X134052655Y-63723866D01*
X134039828Y-63759945D01*
X134032490Y-63808098D01*
X134029187Y-63877536D01*
X134028462Y-63969206D01*
X134031737Y-64094830D01*
X134043123Y-64189154D01*
X134064959Y-64259523D01*
X134099581Y-64313286D01*
X134149330Y-64357788D01*
X134152986Y-64360423D01*
X134202015Y-64387377D01*
X134261055Y-64400712D01*
X134336141Y-64404000D01*
X134458205Y-64404000D01*
X134458256Y-64522497D01*
X134459392Y-64588492D01*
X134466314Y-64627202D01*
X134484402Y-64650419D01*
X134519038Y-64669933D01*
X134527355Y-64673920D01*
X134566280Y-64692603D01*
X134596417Y-64704403D01*
X134618826Y-64705422D01*
X134634567Y-64691761D01*
X134644698Y-64659522D01*
X134650277Y-64604804D01*
X134652365Y-64523711D01*
X134652019Y-64412344D01*
X134650300Y-64266802D01*
X134649763Y-64223269D01*
X134647828Y-64073205D01*
X134646096Y-63975042D01*
X134458308Y-63975042D01*
X134457252Y-64058364D01*
X134452562Y-64112880D01*
X134441949Y-64148837D01*
X134423128Y-64176482D01*
X134410350Y-64189965D01*
X134358110Y-64229417D01*
X134311858Y-64232628D01*
X134264133Y-64200049D01*
X134262923Y-64198846D01*
X134243506Y-64173668D01*
X134231693Y-64139447D01*
X134225735Y-64086748D01*
X134223880Y-64006131D01*
X134223846Y-63988271D01*
X134228330Y-63877175D01*
X134242926Y-63800161D01*
X134269350Y-63753147D01*
X134309317Y-63732050D01*
X134332416Y-63729923D01*
X134387238Y-63739900D01*
X134424842Y-63772752D01*
X134447477Y-63832857D01*
X134457394Y-63924598D01*
X134458308Y-63975042D01*
X134646096Y-63975042D01*
X134645778Y-63957060D01*
X134643127Y-63869679D01*
X134639394Y-63805905D01*
X134634093Y-63760582D01*
X134626742Y-63728555D01*
X134616857Y-63704668D01*
X134603954Y-63683764D01*
X134598421Y-63675898D01*
X134525031Y-63601595D01*
X134432240Y-63559467D01*
X134324904Y-63547722D01*
X134231114Y-63559505D01*
G37*
X134231114Y-63559505D02*
X134156461Y-63596727D01*
X134090569Y-63665261D01*
X134072423Y-63690648D01*
X134052655Y-63723866D01*
X134039828Y-63759945D01*
X134032490Y-63808098D01*
X134029187Y-63877536D01*
X134028462Y-63969206D01*
X134031737Y-64094830D01*
X134043123Y-64189154D01*
X134064959Y-64259523D01*
X134099581Y-64313286D01*
X134149330Y-64357788D01*
X134152986Y-64360423D01*
X134202015Y-64387377D01*
X134261055Y-64400712D01*
X134336141Y-64404000D01*
X134458205Y-64404000D01*
X134458256Y-64522497D01*
X134459392Y-64588492D01*
X134466314Y-64627202D01*
X134484402Y-64650419D01*
X134519038Y-64669933D01*
X134527355Y-64673920D01*
X134566280Y-64692603D01*
X134596417Y-64704403D01*
X134618826Y-64705422D01*
X134634567Y-64691761D01*
X134644698Y-64659522D01*
X134650277Y-64604804D01*
X134652365Y-64523711D01*
X134652019Y-64412344D01*
X134650300Y-64266802D01*
X134649763Y-64223269D01*
X134647828Y-64073205D01*
X134646096Y-63975042D01*
X134458308Y-63975042D01*
X134457252Y-64058364D01*
X134452562Y-64112880D01*
X134441949Y-64148837D01*
X134423128Y-64176482D01*
X134410350Y-64189965D01*
X134358110Y-64229417D01*
X134311858Y-64232628D01*
X134264133Y-64200049D01*
X134262923Y-64198846D01*
X134243506Y-64173668D01*
X134231693Y-64139447D01*
X134225735Y-64086748D01*
X134223880Y-64006131D01*
X134223846Y-63988271D01*
X134228330Y-63877175D01*
X134242926Y-63800161D01*
X134269350Y-63753147D01*
X134309317Y-63732050D01*
X134332416Y-63729923D01*
X134387238Y-63739900D01*
X134424842Y-63772752D01*
X134447477Y-63832857D01*
X134457394Y-63924598D01*
X134458308Y-63975042D01*
X134646096Y-63975042D01*
X134645778Y-63957060D01*
X134643127Y-63869679D01*
X134639394Y-63805905D01*
X134634093Y-63760582D01*
X134626742Y-63728555D01*
X134616857Y-63704668D01*
X134603954Y-63683764D01*
X134598421Y-63675898D01*
X134525031Y-63601595D01*
X134432240Y-63559467D01*
X134324904Y-63547722D01*
X134231114Y-63559505D01*
%TD*%
M02*
