%TF.GenerationSoftware,KiCad,Pcbnew,(5.1.6-0-10_14)*%
%TF.CreationDate,2020-07-18T18:34:35+02:00*%
%TF.ProjectId,driver-board,64726976-6572-42d6-926f-6172642e6b69,rev?*%
%TF.SameCoordinates,Original*%
%TF.FileFunction,Legend,Bot*%
%TF.FilePolarity,Positive*%
%FSLAX46Y46*%
G04 Gerber Fmt 4.6, Leading zero omitted, Abs format (unit mm)*
G04 Created by KiCad (PCBNEW (5.1.6-0-10_14)) date 2020-07-18 18:34:35*
%MOMM*%
%LPD*%
G01*
G04 APERTURE LIST*
%ADD10C,0.150000*%
G04 APERTURE END LIST*
D10*
X147790476Y-76461904D02*
X147790476Y-75661904D01*
X147447619Y-76461904D02*
X147447619Y-76042857D01*
X147485714Y-75966666D01*
X147561904Y-75928571D01*
X147676190Y-75928571D01*
X147752380Y-75966666D01*
X147790476Y-76004761D01*
X147180952Y-75928571D02*
X146876190Y-75928571D01*
X147066666Y-75661904D02*
X147066666Y-76347619D01*
X147028571Y-76423809D01*
X146952380Y-76461904D01*
X146876190Y-76461904D01*
X146723809Y-75928571D02*
X146419047Y-75928571D01*
X146609523Y-75661904D02*
X146609523Y-76347619D01*
X146571428Y-76423809D01*
X146495238Y-76461904D01*
X146419047Y-76461904D01*
X146152380Y-75928571D02*
X146152380Y-76728571D01*
X146152380Y-75966666D02*
X146076190Y-75928571D01*
X145923809Y-75928571D01*
X145847619Y-75966666D01*
X145809523Y-76004761D01*
X145771428Y-76080952D01*
X145771428Y-76309523D01*
X145809523Y-76385714D01*
X145847619Y-76423809D01*
X145923809Y-76461904D01*
X146076190Y-76461904D01*
X146152380Y-76423809D01*
X145466666Y-76423809D02*
X145390476Y-76461904D01*
X145238095Y-76461904D01*
X145161904Y-76423809D01*
X145123809Y-76347619D01*
X145123809Y-76309523D01*
X145161904Y-76233333D01*
X145238095Y-76195238D01*
X145352380Y-76195238D01*
X145428571Y-76157142D01*
X145466666Y-76080952D01*
X145466666Y-76042857D01*
X145428571Y-75966666D01*
X145352380Y-75928571D01*
X145238095Y-75928571D01*
X145161904Y-75966666D01*
X144780952Y-76385714D02*
X144742857Y-76423809D01*
X144780952Y-76461904D01*
X144819047Y-76423809D01*
X144780952Y-76385714D01*
X144780952Y-76461904D01*
X144780952Y-75966666D02*
X144742857Y-76004761D01*
X144780952Y-76042857D01*
X144819047Y-76004761D01*
X144780952Y-75966666D01*
X144780952Y-76042857D01*
X143828571Y-75623809D02*
X144514285Y-76652380D01*
X142990476Y-75623809D02*
X143676190Y-76652380D01*
X142380952Y-75928571D02*
X142380952Y-76576190D01*
X142419047Y-76652380D01*
X142457142Y-76690476D01*
X142533333Y-76728571D01*
X142647619Y-76728571D01*
X142723809Y-76690476D01*
X142380952Y-76423809D02*
X142457142Y-76461904D01*
X142609523Y-76461904D01*
X142685714Y-76423809D01*
X142723809Y-76385714D01*
X142761904Y-76309523D01*
X142761904Y-76080952D01*
X142723809Y-76004761D01*
X142685714Y-75966666D01*
X142609523Y-75928571D01*
X142457142Y-75928571D01*
X142380952Y-75966666D01*
X142000000Y-76461904D02*
X142000000Y-75928571D01*
X142000000Y-75661904D02*
X142038095Y-75700000D01*
X142000000Y-75738095D01*
X141961904Y-75700000D01*
X142000000Y-75661904D01*
X142000000Y-75738095D01*
X141733333Y-75928571D02*
X141428571Y-75928571D01*
X141619047Y-75661904D02*
X141619047Y-76347619D01*
X141580952Y-76423809D01*
X141504761Y-76461904D01*
X141428571Y-76461904D01*
X141161904Y-76461904D02*
X141161904Y-75661904D01*
X140819047Y-76461904D02*
X140819047Y-76042857D01*
X140857142Y-75966666D01*
X140933333Y-75928571D01*
X141047619Y-75928571D01*
X141123809Y-75966666D01*
X141161904Y-76004761D01*
X140095238Y-75928571D02*
X140095238Y-76461904D01*
X140438095Y-75928571D02*
X140438095Y-76347619D01*
X140400000Y-76423809D01*
X140323809Y-76461904D01*
X140209523Y-76461904D01*
X140133333Y-76423809D01*
X140095238Y-76385714D01*
X139714285Y-76461904D02*
X139714285Y-75661904D01*
X139714285Y-75966666D02*
X139638095Y-75928571D01*
X139485714Y-75928571D01*
X139409523Y-75966666D01*
X139371428Y-76004761D01*
X139333333Y-76080952D01*
X139333333Y-76309523D01*
X139371428Y-76385714D01*
X139409523Y-76423809D01*
X139485714Y-76461904D01*
X139638095Y-76461904D01*
X139714285Y-76423809D01*
X138990476Y-76385714D02*
X138952380Y-76423809D01*
X138990476Y-76461904D01*
X139028571Y-76423809D01*
X138990476Y-76385714D01*
X138990476Y-76461904D01*
X138266666Y-76423809D02*
X138342857Y-76461904D01*
X138495238Y-76461904D01*
X138571428Y-76423809D01*
X138609523Y-76385714D01*
X138647619Y-76309523D01*
X138647619Y-76080952D01*
X138609523Y-76004761D01*
X138571428Y-75966666D01*
X138495238Y-75928571D01*
X138342857Y-75928571D01*
X138266666Y-75966666D01*
X137809523Y-76461904D02*
X137885714Y-76423809D01*
X137923809Y-76385714D01*
X137961904Y-76309523D01*
X137961904Y-76080952D01*
X137923809Y-76004761D01*
X137885714Y-75966666D01*
X137809523Y-75928571D01*
X137695238Y-75928571D01*
X137619047Y-75966666D01*
X137580952Y-76004761D01*
X137542857Y-76080952D01*
X137542857Y-76309523D01*
X137580952Y-76385714D01*
X137619047Y-76423809D01*
X137695238Y-76461904D01*
X137809523Y-76461904D01*
X137200000Y-76461904D02*
X137200000Y-75928571D01*
X137200000Y-76004761D02*
X137161904Y-75966666D01*
X137085714Y-75928571D01*
X136971428Y-75928571D01*
X136895238Y-75966666D01*
X136857142Y-76042857D01*
X136857142Y-76461904D01*
X136857142Y-76042857D02*
X136819047Y-75966666D01*
X136742857Y-75928571D01*
X136628571Y-75928571D01*
X136552380Y-75966666D01*
X136514285Y-76042857D01*
X136514285Y-76461904D01*
X135561904Y-75623809D02*
X136247619Y-76652380D01*
X135295238Y-76461904D02*
X135295238Y-75661904D01*
X135295238Y-75966666D02*
X135219047Y-75928571D01*
X135066666Y-75928571D01*
X134990476Y-75966666D01*
X134952380Y-76004761D01*
X134914285Y-76080952D01*
X134914285Y-76309523D01*
X134952380Y-76385714D01*
X134990476Y-76423809D01*
X135066666Y-76461904D01*
X135219047Y-76461904D01*
X135295238Y-76423809D01*
X134457142Y-76461904D02*
X134533333Y-76423809D01*
X134571428Y-76347619D01*
X134571428Y-75661904D01*
X133809523Y-76461904D02*
X133809523Y-76042857D01*
X133847619Y-75966666D01*
X133923809Y-75928571D01*
X134076190Y-75928571D01*
X134152380Y-75966666D01*
X133809523Y-76423809D02*
X133885714Y-76461904D01*
X134076190Y-76461904D01*
X134152380Y-76423809D01*
X134190476Y-76347619D01*
X134190476Y-76271428D01*
X134152380Y-76195238D01*
X134076190Y-76157142D01*
X133885714Y-76157142D01*
X133809523Y-76119047D01*
X133504761Y-75928571D02*
X133085714Y-75928571D01*
X133504761Y-76461904D01*
X133085714Y-76461904D01*
X132476190Y-76423809D02*
X132552380Y-76461904D01*
X132704761Y-76461904D01*
X132780952Y-76423809D01*
X132819047Y-76347619D01*
X132819047Y-76042857D01*
X132780952Y-75966666D01*
X132704761Y-75928571D01*
X132552380Y-75928571D01*
X132476190Y-75966666D01*
X132438095Y-76042857D01*
X132438095Y-76119047D01*
X132819047Y-76195238D01*
X132095238Y-76461904D02*
X132095238Y-75928571D01*
X132095238Y-76080952D02*
X132057142Y-76004761D01*
X132019047Y-75966666D01*
X131942857Y-75928571D01*
X131866666Y-75928571D01*
X131485714Y-76004761D02*
X131561904Y-75966666D01*
X131600000Y-75928571D01*
X131638095Y-75852380D01*
X131638095Y-75814285D01*
X131600000Y-75738095D01*
X131561904Y-75700000D01*
X131485714Y-75661904D01*
X131333333Y-75661904D01*
X131257142Y-75700000D01*
X131219047Y-75738095D01*
X131180952Y-75814285D01*
X131180952Y-75852380D01*
X131219047Y-75928571D01*
X131257142Y-75966666D01*
X131333333Y-76004761D01*
X131485714Y-76004761D01*
X131561904Y-76042857D01*
X131600000Y-76080952D01*
X131638095Y-76157142D01*
X131638095Y-76309523D01*
X131600000Y-76385714D01*
X131561904Y-76423809D01*
X131485714Y-76461904D01*
X131333333Y-76461904D01*
X131257142Y-76423809D01*
X131219047Y-76385714D01*
X131180952Y-76309523D01*
X131180952Y-76157142D01*
X131219047Y-76080952D01*
X131257142Y-76042857D01*
X131333333Y-76004761D01*
X130876190Y-75738095D02*
X130838095Y-75700000D01*
X130761904Y-75661904D01*
X130571428Y-75661904D01*
X130495238Y-75700000D01*
X130457142Y-75738095D01*
X130419047Y-75814285D01*
X130419047Y-75890476D01*
X130457142Y-76004761D01*
X130914285Y-76461904D01*
X130419047Y-76461904D01*
X129504761Y-75623809D02*
X130190476Y-76652380D01*
X128971428Y-76042857D02*
X129238095Y-76042857D01*
X129238095Y-76461904D02*
X129238095Y-75661904D01*
X128857142Y-75661904D01*
X128666666Y-75661904D02*
X128209523Y-75661904D01*
X128438095Y-76461904D02*
X128438095Y-75661904D01*
X127828571Y-76004761D02*
X127904761Y-75966666D01*
X127942857Y-75928571D01*
X127980952Y-75852380D01*
X127980952Y-75814285D01*
X127942857Y-75738095D01*
X127904761Y-75700000D01*
X127828571Y-75661904D01*
X127676190Y-75661904D01*
X127600000Y-75700000D01*
X127561904Y-75738095D01*
X127523809Y-75814285D01*
X127523809Y-75852380D01*
X127561904Y-75928571D01*
X127600000Y-75966666D01*
X127676190Y-76004761D01*
X127828571Y-76004761D01*
X127904761Y-76042857D01*
X127942857Y-76080952D01*
X127980952Y-76157142D01*
X127980952Y-76309523D01*
X127942857Y-76385714D01*
X127904761Y-76423809D01*
X127828571Y-76461904D01*
X127676190Y-76461904D01*
X127600000Y-76423809D01*
X127561904Y-76385714D01*
X127523809Y-76309523D01*
X127523809Y-76157142D01*
X127561904Y-76080952D01*
X127600000Y-76042857D01*
X127676190Y-76004761D01*
X126761904Y-76461904D02*
X127219047Y-76461904D01*
X126990476Y-76461904D02*
X126990476Y-75661904D01*
X127066666Y-75776190D01*
X127142857Y-75852380D01*
X127219047Y-75890476D01*
X126495238Y-76461904D02*
X126076190Y-75928571D01*
X126495238Y-75928571D02*
X126076190Y-76461904D01*
X125961904Y-76538095D02*
X125352380Y-76538095D01*
X125200000Y-76233333D02*
X124819047Y-76233333D01*
X125276190Y-76461904D02*
X125009523Y-75661904D01*
X124742857Y-76461904D01*
X124476190Y-76461904D02*
X124476190Y-75928571D01*
X124476190Y-76080952D02*
X124438095Y-76004761D01*
X124400000Y-75966666D01*
X124323809Y-75928571D01*
X124247619Y-75928571D01*
X123638095Y-76461904D02*
X123638095Y-75661904D01*
X123638095Y-76423809D02*
X123714285Y-76461904D01*
X123866666Y-76461904D01*
X123942857Y-76423809D01*
X123980952Y-76385714D01*
X124019047Y-76309523D01*
X124019047Y-76080952D01*
X123980952Y-76004761D01*
X123942857Y-75966666D01*
X123866666Y-75928571D01*
X123714285Y-75928571D01*
X123638095Y-75966666D01*
X122914285Y-75928571D02*
X122914285Y-76461904D01*
X123257142Y-75928571D02*
X123257142Y-76347619D01*
X123219047Y-76423809D01*
X123142857Y-76461904D01*
X123028571Y-76461904D01*
X122952380Y-76423809D01*
X122914285Y-76385714D01*
X122533333Y-76461904D02*
X122533333Y-75928571D01*
X122533333Y-75661904D02*
X122571428Y-75700000D01*
X122533333Y-75738095D01*
X122495238Y-75700000D01*
X122533333Y-75661904D01*
X122533333Y-75738095D01*
X122152380Y-75928571D02*
X122152380Y-76461904D01*
X122152380Y-76004761D02*
X122114285Y-75966666D01*
X122038095Y-75928571D01*
X121923809Y-75928571D01*
X121847619Y-75966666D01*
X121809523Y-76042857D01*
X121809523Y-76461904D01*
X121314285Y-76461904D02*
X121390476Y-76423809D01*
X121428571Y-76385714D01*
X121466666Y-76309523D01*
X121466666Y-76080952D01*
X121428571Y-76004761D01*
X121390476Y-75966666D01*
X121314285Y-75928571D01*
X121200000Y-75928571D01*
X121123809Y-75966666D01*
X121085714Y-76004761D01*
X121047619Y-76080952D01*
X121047619Y-76309523D01*
X121085714Y-76385714D01*
X121123809Y-76423809D01*
X121200000Y-76461904D01*
X121314285Y-76461904D01*
X120895238Y-76538095D02*
X120285714Y-76538095D01*
X120095238Y-76461904D02*
X120095238Y-75661904D01*
X119904761Y-75661904D01*
X119790476Y-75700000D01*
X119714285Y-75776190D01*
X119676190Y-75852380D01*
X119638095Y-76004761D01*
X119638095Y-76119047D01*
X119676190Y-76271428D01*
X119714285Y-76347619D01*
X119790476Y-76423809D01*
X119904761Y-76461904D01*
X120095238Y-76461904D01*
X119295238Y-76461904D02*
X119295238Y-75928571D01*
X119295238Y-76080952D02*
X119257142Y-76004761D01*
X119219047Y-75966666D01*
X119142857Y-75928571D01*
X119066666Y-75928571D01*
X118800000Y-76461904D02*
X118800000Y-75928571D01*
X118800000Y-75661904D02*
X118838095Y-75700000D01*
X118800000Y-75738095D01*
X118761904Y-75700000D01*
X118800000Y-75661904D01*
X118800000Y-75738095D01*
X118495238Y-75928571D02*
X118304761Y-76461904D01*
X118114285Y-75928571D01*
X117504761Y-76423809D02*
X117580952Y-76461904D01*
X117733333Y-76461904D01*
X117809523Y-76423809D01*
X117847619Y-76347619D01*
X117847619Y-76042857D01*
X117809523Y-75966666D01*
X117733333Y-75928571D01*
X117580952Y-75928571D01*
X117504761Y-75966666D01*
X117466666Y-76042857D01*
X117466666Y-76119047D01*
X117847619Y-76195238D01*
X117123809Y-76461904D02*
X117123809Y-75928571D01*
X117123809Y-76080952D02*
X117085714Y-76004761D01*
X117047619Y-75966666D01*
X116971428Y-75928571D01*
X116895238Y-75928571D01*
X142280952Y-70557142D02*
X142328571Y-70604761D01*
X142471428Y-70652380D01*
X142566666Y-70652380D01*
X142709523Y-70604761D01*
X142804761Y-70509523D01*
X142852380Y-70414285D01*
X142900000Y-70223809D01*
X142900000Y-70080952D01*
X142852380Y-69890476D01*
X142804761Y-69795238D01*
X142709523Y-69700000D01*
X142566666Y-69652380D01*
X142471428Y-69652380D01*
X142328571Y-69700000D01*
X142280952Y-69747619D01*
X141709523Y-70652380D02*
X141804761Y-70604761D01*
X141852380Y-70557142D01*
X141900000Y-70461904D01*
X141900000Y-70176190D01*
X141852380Y-70080952D01*
X141804761Y-70033333D01*
X141709523Y-69985714D01*
X141566666Y-69985714D01*
X141471428Y-70033333D01*
X141423809Y-70080952D01*
X141376190Y-70176190D01*
X141376190Y-70461904D01*
X141423809Y-70557142D01*
X141471428Y-70604761D01*
X141566666Y-70652380D01*
X141709523Y-70652380D01*
X140947619Y-69985714D02*
X140947619Y-70985714D01*
X140947619Y-70033333D02*
X140852380Y-69985714D01*
X140661904Y-69985714D01*
X140566666Y-70033333D01*
X140519047Y-70080952D01*
X140471428Y-70176190D01*
X140471428Y-70461904D01*
X140519047Y-70557142D01*
X140566666Y-70604761D01*
X140661904Y-70652380D01*
X140852380Y-70652380D01*
X140947619Y-70604761D01*
X140138095Y-69985714D02*
X139900000Y-70652380D01*
X139661904Y-69985714D02*
X139900000Y-70652380D01*
X139995238Y-70890476D01*
X140042857Y-70938095D01*
X140138095Y-70985714D01*
X139280952Y-70652380D02*
X139280952Y-69985714D01*
X139280952Y-70176190D02*
X139233333Y-70080952D01*
X139185714Y-70033333D01*
X139090476Y-69985714D01*
X138995238Y-69985714D01*
X138661904Y-70652380D02*
X138661904Y-69985714D01*
X138661904Y-69652380D02*
X138709523Y-69700000D01*
X138661904Y-69747619D01*
X138614285Y-69700000D01*
X138661904Y-69652380D01*
X138661904Y-69747619D01*
X137757142Y-69985714D02*
X137757142Y-70795238D01*
X137804761Y-70890476D01*
X137852380Y-70938095D01*
X137947619Y-70985714D01*
X138090476Y-70985714D01*
X138185714Y-70938095D01*
X137757142Y-70604761D02*
X137852380Y-70652380D01*
X138042857Y-70652380D01*
X138138095Y-70604761D01*
X138185714Y-70557142D01*
X138233333Y-70461904D01*
X138233333Y-70176190D01*
X138185714Y-70080952D01*
X138138095Y-70033333D01*
X138042857Y-69985714D01*
X137852380Y-69985714D01*
X137757142Y-70033333D01*
X137280952Y-70652380D02*
X137280952Y-69652380D01*
X136852380Y-70652380D02*
X136852380Y-70128571D01*
X136900000Y-70033333D01*
X136995238Y-69985714D01*
X137138095Y-69985714D01*
X137233333Y-70033333D01*
X137280952Y-70080952D01*
X136519047Y-69985714D02*
X136138095Y-69985714D01*
X136376190Y-69652380D02*
X136376190Y-70509523D01*
X136328571Y-70604761D01*
X136233333Y-70652380D01*
X136138095Y-70652380D01*
X134233333Y-69890476D02*
X134328571Y-69842857D01*
X134519047Y-69842857D01*
X134614285Y-69890476D01*
X134709523Y-69985714D01*
X134757142Y-70080952D01*
X134757142Y-70271428D01*
X134709523Y-70366666D01*
X134614285Y-70461904D01*
X134519047Y-70509523D01*
X134328571Y-70509523D01*
X134233333Y-70461904D01*
X134423809Y-69509523D02*
X134661904Y-69557142D01*
X134900000Y-69700000D01*
X135042857Y-69938095D01*
X135090476Y-70176190D01*
X135042857Y-70414285D01*
X134900000Y-70652380D01*
X134661904Y-70795238D01*
X134423809Y-70842857D01*
X134185714Y-70795238D01*
X133947619Y-70652380D01*
X133804761Y-70414285D01*
X133757142Y-70176190D01*
X133804761Y-69938095D01*
X133947619Y-69700000D01*
X134185714Y-69557142D01*
X134423809Y-69509523D01*
X131995238Y-70652380D02*
X132328571Y-70176190D01*
X132566666Y-70652380D02*
X132566666Y-69652380D01*
X132185714Y-69652380D01*
X132090476Y-69700000D01*
X132042857Y-69747619D01*
X131995238Y-69842857D01*
X131995238Y-69985714D01*
X132042857Y-70080952D01*
X132090476Y-70128571D01*
X132185714Y-70176190D01*
X132566666Y-70176190D01*
X131138095Y-70652380D02*
X131138095Y-70128571D01*
X131185714Y-70033333D01*
X131280952Y-69985714D01*
X131471428Y-69985714D01*
X131566666Y-70033333D01*
X131138095Y-70604761D02*
X131233333Y-70652380D01*
X131471428Y-70652380D01*
X131566666Y-70604761D01*
X131614285Y-70509523D01*
X131614285Y-70414285D01*
X131566666Y-70319047D01*
X131471428Y-70271428D01*
X131233333Y-70271428D01*
X131138095Y-70223809D01*
X130661904Y-69985714D02*
X130661904Y-70985714D01*
X130661904Y-70033333D02*
X130566666Y-69985714D01*
X130376190Y-69985714D01*
X130280952Y-70033333D01*
X130233333Y-70080952D01*
X130185714Y-70176190D01*
X130185714Y-70461904D01*
X130233333Y-70557142D01*
X130280952Y-70604761D01*
X130376190Y-70652380D01*
X130566666Y-70652380D01*
X130661904Y-70604761D01*
X129757142Y-70652380D02*
X129757142Y-69652380D01*
X129328571Y-70652380D02*
X129328571Y-70128571D01*
X129376190Y-70033333D01*
X129471428Y-69985714D01*
X129614285Y-69985714D01*
X129709523Y-70033333D01*
X129757142Y-70080952D01*
X128423809Y-70652380D02*
X128423809Y-70128571D01*
X128471428Y-70033333D01*
X128566666Y-69985714D01*
X128757142Y-69985714D01*
X128852380Y-70033333D01*
X128423809Y-70604761D02*
X128519047Y-70652380D01*
X128757142Y-70652380D01*
X128852380Y-70604761D01*
X128900000Y-70509523D01*
X128900000Y-70414285D01*
X128852380Y-70319047D01*
X128757142Y-70271428D01*
X128519047Y-70271428D01*
X128423809Y-70223809D01*
X127566666Y-70604761D02*
X127661904Y-70652380D01*
X127852380Y-70652380D01*
X127947619Y-70604761D01*
X127995238Y-70509523D01*
X127995238Y-70128571D01*
X127947619Y-70033333D01*
X127852380Y-69985714D01*
X127661904Y-69985714D01*
X127566666Y-70033333D01*
X127519047Y-70128571D01*
X127519047Y-70223809D01*
X127995238Y-70319047D01*
X126947619Y-70652380D02*
X127042857Y-70604761D01*
X127090476Y-70509523D01*
X127090476Y-69652380D01*
X125852380Y-70604761D02*
X125709523Y-70652380D01*
X125471428Y-70652380D01*
X125376190Y-70604761D01*
X125328571Y-70557142D01*
X125280952Y-70461904D01*
X125280952Y-70366666D01*
X125328571Y-70271428D01*
X125376190Y-70223809D01*
X125471428Y-70176190D01*
X125661904Y-70128571D01*
X125757142Y-70080952D01*
X125804761Y-70033333D01*
X125852380Y-69938095D01*
X125852380Y-69842857D01*
X125804761Y-69747619D01*
X125757142Y-69700000D01*
X125661904Y-69652380D01*
X125423809Y-69652380D01*
X125280952Y-69700000D01*
X124995238Y-69985714D02*
X124614285Y-69985714D01*
X124852380Y-69652380D02*
X124852380Y-70509523D01*
X124804761Y-70604761D01*
X124709523Y-70652380D01*
X124614285Y-70652380D01*
X123852380Y-70652380D02*
X123852380Y-70128571D01*
X123900000Y-70033333D01*
X123995238Y-69985714D01*
X124185714Y-69985714D01*
X124280952Y-70033333D01*
X123852380Y-70604761D02*
X123947619Y-70652380D01*
X124185714Y-70652380D01*
X124280952Y-70604761D01*
X124328571Y-70509523D01*
X124328571Y-70414285D01*
X124280952Y-70319047D01*
X124185714Y-70271428D01*
X123947619Y-70271428D01*
X123852380Y-70223809D01*
X124280952Y-69652380D02*
X124233333Y-69700000D01*
X124280952Y-69747619D01*
X124328571Y-69700000D01*
X124280952Y-69652380D01*
X124280952Y-69747619D01*
X123900000Y-69652380D02*
X123852380Y-69700000D01*
X123900000Y-69747619D01*
X123947619Y-69700000D01*
X123900000Y-69652380D01*
X123900000Y-69747619D01*
X123376190Y-70652380D02*
X123376190Y-69652380D01*
X123376190Y-70033333D02*
X123280952Y-69985714D01*
X123090476Y-69985714D01*
X122995238Y-70033333D01*
X122947619Y-70080952D01*
X122900000Y-70176190D01*
X122900000Y-70461904D01*
X122947619Y-70557142D01*
X122995238Y-70604761D01*
X123090476Y-70652380D01*
X123280952Y-70652380D01*
X123376190Y-70604761D01*
X122328571Y-70652380D02*
X122423809Y-70604761D01*
X122471428Y-70509523D01*
X122471428Y-69652380D01*
X121566666Y-70604761D02*
X121661904Y-70652380D01*
X121852380Y-70652380D01*
X121947619Y-70604761D01*
X121995238Y-70509523D01*
X121995238Y-70128571D01*
X121947619Y-70033333D01*
X121852380Y-69985714D01*
X121661904Y-69985714D01*
X121566666Y-70033333D01*
X121519047Y-70128571D01*
X121519047Y-70223809D01*
X121995238Y-70319047D01*
X121090476Y-70652380D02*
X121090476Y-69985714D01*
X121090476Y-70176190D02*
X121042857Y-70080952D01*
X120995238Y-70033333D01*
X120900000Y-69985714D01*
X120804761Y-69985714D01*
X141809523Y-67561904D02*
X142190476Y-67561904D01*
X142190476Y-66761904D01*
X141542857Y-67561904D02*
X141542857Y-67028571D01*
X141542857Y-66761904D02*
X141580952Y-66800000D01*
X141542857Y-66838095D01*
X141504761Y-66800000D01*
X141542857Y-66761904D01*
X141542857Y-66838095D01*
X140819047Y-67523809D02*
X140895238Y-67561904D01*
X141047619Y-67561904D01*
X141123809Y-67523809D01*
X141161904Y-67485714D01*
X141200000Y-67409523D01*
X141200000Y-67180952D01*
X141161904Y-67104761D01*
X141123809Y-67066666D01*
X141047619Y-67028571D01*
X140895238Y-67028571D01*
X140819047Y-67066666D01*
X140171428Y-67523809D02*
X140247619Y-67561904D01*
X140400000Y-67561904D01*
X140476190Y-67523809D01*
X140514285Y-67447619D01*
X140514285Y-67142857D01*
X140476190Y-67066666D01*
X140400000Y-67028571D01*
X140247619Y-67028571D01*
X140171428Y-67066666D01*
X140133333Y-67142857D01*
X140133333Y-67219047D01*
X140514285Y-67295238D01*
X139790476Y-67028571D02*
X139790476Y-67561904D01*
X139790476Y-67104761D02*
X139752380Y-67066666D01*
X139676190Y-67028571D01*
X139561904Y-67028571D01*
X139485714Y-67066666D01*
X139447619Y-67142857D01*
X139447619Y-67561904D01*
X139104761Y-67523809D02*
X139028571Y-67561904D01*
X138876190Y-67561904D01*
X138800000Y-67523809D01*
X138761904Y-67447619D01*
X138761904Y-67409523D01*
X138800000Y-67333333D01*
X138876190Y-67295238D01*
X138990476Y-67295238D01*
X139066666Y-67257142D01*
X139104761Y-67180952D01*
X139104761Y-67142857D01*
X139066666Y-67066666D01*
X138990476Y-67028571D01*
X138876190Y-67028571D01*
X138800000Y-67066666D01*
X138114285Y-67523809D02*
X138190476Y-67561904D01*
X138342857Y-67561904D01*
X138419047Y-67523809D01*
X138457142Y-67447619D01*
X138457142Y-67142857D01*
X138419047Y-67066666D01*
X138342857Y-67028571D01*
X138190476Y-67028571D01*
X138114285Y-67066666D01*
X138076190Y-67142857D01*
X138076190Y-67219047D01*
X138457142Y-67295238D01*
X137390476Y-67561904D02*
X137390476Y-66761904D01*
X137390476Y-67523809D02*
X137466666Y-67561904D01*
X137619047Y-67561904D01*
X137695238Y-67523809D01*
X137733333Y-67485714D01*
X137771428Y-67409523D01*
X137771428Y-67180952D01*
X137733333Y-67104761D01*
X137695238Y-67066666D01*
X137619047Y-67028571D01*
X137466666Y-67028571D01*
X137390476Y-67066666D01*
X136057142Y-67028571D02*
X136057142Y-67561904D01*
X136400000Y-67028571D02*
X136400000Y-67447619D01*
X136361904Y-67523809D01*
X136285714Y-67561904D01*
X136171428Y-67561904D01*
X136095238Y-67523809D01*
X136057142Y-67485714D01*
X135676190Y-67028571D02*
X135676190Y-67561904D01*
X135676190Y-67104761D02*
X135638095Y-67066666D01*
X135561904Y-67028571D01*
X135447619Y-67028571D01*
X135371428Y-67066666D01*
X135333333Y-67142857D01*
X135333333Y-67561904D01*
X134609523Y-67561904D02*
X134609523Y-66761904D01*
X134609523Y-67523809D02*
X134685714Y-67561904D01*
X134838095Y-67561904D01*
X134914285Y-67523809D01*
X134952380Y-67485714D01*
X134990476Y-67409523D01*
X134990476Y-67180952D01*
X134952380Y-67104761D01*
X134914285Y-67066666D01*
X134838095Y-67028571D01*
X134685714Y-67028571D01*
X134609523Y-67066666D01*
X133923809Y-67523809D02*
X133999999Y-67561904D01*
X134152380Y-67561904D01*
X134228571Y-67523809D01*
X134266666Y-67447619D01*
X134266666Y-67142857D01*
X134228571Y-67066666D01*
X134152380Y-67028571D01*
X133999999Y-67028571D01*
X133923809Y-67066666D01*
X133885714Y-67142857D01*
X133885714Y-67219047D01*
X134266666Y-67295238D01*
X133542857Y-67561904D02*
X133542857Y-67028571D01*
X133542857Y-67180952D02*
X133504761Y-67104761D01*
X133466666Y-67066666D01*
X133390476Y-67028571D01*
X133314285Y-67028571D01*
X131980952Y-67485714D02*
X132019047Y-67523809D01*
X132133333Y-67561904D01*
X132209523Y-67561904D01*
X132323809Y-67523809D01*
X132399999Y-67447619D01*
X132438095Y-67371428D01*
X132476190Y-67219047D01*
X132476190Y-67104761D01*
X132438095Y-66952380D01*
X132399999Y-66876190D01*
X132323809Y-66800000D01*
X132209523Y-66761904D01*
X132133333Y-66761904D01*
X132019047Y-66800000D01*
X131980952Y-66838095D01*
X131638095Y-67142857D02*
X131371428Y-67142857D01*
X131257142Y-67561904D02*
X131638095Y-67561904D01*
X131638095Y-66761904D01*
X131257142Y-66761904D01*
X130457142Y-67561904D02*
X130723809Y-67180952D01*
X130914285Y-67561904D02*
X130914285Y-66761904D01*
X130609523Y-66761904D01*
X130533333Y-66800000D01*
X130495238Y-66838095D01*
X130457142Y-66914285D01*
X130457142Y-67028571D01*
X130495238Y-67104761D01*
X130533333Y-67142857D01*
X130609523Y-67180952D01*
X130914285Y-67180952D01*
X130114285Y-67561904D02*
X130114285Y-66761904D01*
X129657142Y-67561904D01*
X129657142Y-66761904D01*
X129276190Y-67257142D02*
X128666666Y-67257142D01*
X128133333Y-66761904D02*
X127980952Y-66761904D01*
X127904761Y-66800000D01*
X127828571Y-66876190D01*
X127790476Y-67028571D01*
X127790476Y-67295238D01*
X127828571Y-67447619D01*
X127904761Y-67523809D01*
X127980952Y-67561904D01*
X128133333Y-67561904D01*
X128209523Y-67523809D01*
X128285714Y-67447619D01*
X128323809Y-67295238D01*
X128323809Y-67028571D01*
X128285714Y-66876190D01*
X128209523Y-66800000D01*
X128133333Y-66761904D01*
X127447619Y-67561904D02*
X127447619Y-66761904D01*
X127447619Y-67142857D02*
X126990476Y-67142857D01*
X126990476Y-67561904D02*
X126990476Y-66761904D01*
X126228571Y-67561904D02*
X126609523Y-67561904D01*
X126609523Y-66761904D01*
X125961904Y-67257142D02*
X125352380Y-67257142D01*
X125009523Y-67523809D02*
X124895238Y-67561904D01*
X124704761Y-67561904D01*
X124628571Y-67523809D01*
X124590476Y-67485714D01*
X124552380Y-67409523D01*
X124552380Y-67333333D01*
X124590476Y-67257142D01*
X124628571Y-67219047D01*
X124704761Y-67180952D01*
X124857142Y-67142857D01*
X124933333Y-67104761D01*
X124971428Y-67066666D01*
X125009523Y-66990476D01*
X125009523Y-66914285D01*
X124971428Y-66838095D01*
X124933333Y-66800000D01*
X124857142Y-66761904D01*
X124666666Y-66761904D01*
X124552380Y-66800000D01*
X123676190Y-67028571D02*
X123485714Y-67561904D01*
X123295238Y-67028571D01*
X123028571Y-66838095D02*
X122990476Y-66800000D01*
X122914285Y-66761904D01*
X122723809Y-66761904D01*
X122647619Y-66800000D01*
X122609523Y-66838095D01*
X122571428Y-66914285D01*
X122571428Y-66990476D01*
X122609523Y-67104761D01*
X123066666Y-67561904D01*
X122571428Y-67561904D01*
M02*
