<?xml version="1.0" standalone="no"?>
 <!DOCTYPE svg PUBLIC "-//W3C//DTD SVG 1.1//EN" 
 "http://www.w3.org/Graphics/SVG/1.1/DTD/svg11.dtd"> 
<svg
  xmlns:svg="http://www.w3.org/2000/svg"
  xmlns="http://www.w3.org/2000/svg"
  xmlns:xlink="http://www.w3.org/1999/xlink"
  version="1.1"
  width="29.700220cm" height="21.000720cm" viewBox="0 0 116930 82680">
<title>SVG Picture created as connectors-Connectors.svg date 2020/07/19 17:07:40 </title>
  <desc>Picture generated by Eeschema-SVG </desc>
<g style="fill:#000000; fill-opacity:1;stroke:#000000; stroke-opacity:1;
stroke-linecap:round; stroke-linejoin:round;"
 transform="translate(0 0) scale(1 1)">
</g>
<g style="fill:#000000; fill-opacity:0.0; 
stroke:#000000; stroke-width:-10; stroke-opacity:1; 
stroke-linecap:round; stroke-linejoin:round;">
</g>
<g style="fill:#840000; fill-opacity:0.0; 
stroke:#840000; stroke-width:-10; stroke-opacity:1; 
stroke-linecap:round; stroke-linejoin:round;">
</g>
<g style="fill:#840000; fill-opacity:0.0; 
stroke:#840000; stroke-width:100; stroke-opacity:1; 
stroke-linecap:round; stroke-linejoin:round;">
</g>
<g style="fill:#840000; fill-opacity:0.0; 
stroke:#840000; stroke-width:60; stroke-opacity:1; 
stroke-linecap:round; stroke-linejoin:round;">
<rect x="69690" y="65360" width="42520" height="12600" rx="0" />
</g>
<g style="fill:#840000; fill-opacity:0.0; 
stroke:#840000; stroke-width:100; stroke-opacity:1; 
stroke-linecap:round; stroke-linejoin:round;">
</g>
<g style="fill:#840000; fill-opacity:0.0; 
stroke:#840000; stroke-width:60; stroke-opacity:1; 
stroke-linecap:round; stroke-linejoin:round;">
<rect x="3940" y="3940" width="109050" height="74800" rx="0" />
</g>
<g style="fill:#840000; fill-opacity:0.0; 
stroke:#840000; stroke-width:100; stroke-opacity:1; 
stroke-linecap:round; stroke-linejoin:round;">
</g>
<g style="fill:#840000; fill-opacity:0.0; 
stroke:#840000; stroke-width:60; stroke-opacity:1; 
stroke-linecap:round; stroke-linejoin:round;">
<rect x="4720" y="4720" width="107490" height="73240" rx="0" />
</g>
<g style="fill:#840000; fill-opacity:0.0; 
stroke:#840000; stroke-width:100; stroke-opacity:1; 
stroke-linecap:round; stroke-linejoin:round;">
</g>
<g style="fill:#840000; fill-opacity:0.0; 
stroke:#840000; stroke-width:60; stroke-opacity:1; 
stroke-linecap:round; stroke-linejoin:round;">
<path d="M23620 4720
L23620 3940
" />
</g>
<g style="fill:#840000; fill-opacity:0.0; 
stroke:#840000; stroke-width:100; stroke-opacity:1; 
stroke-linecap:round; stroke-linejoin:round;">
</g>
<g style="fill:#840000; fill-opacity:0.0; 
stroke:#840000; stroke-width:60; stroke-opacity:1; 
stroke-linecap:round; stroke-linejoin:round;">
<path d="M43310 4720
L43310 3940
" />
</g>
<g style="fill:#840000; fill-opacity:0.0; 
stroke:#840000; stroke-width:100; stroke-opacity:1; 
stroke-linecap:round; stroke-linejoin:round;">
</g>
<g style="fill:#840000; fill-opacity:0.0; 
stroke:#840000; stroke-width:60; stroke-opacity:1; 
stroke-linecap:round; stroke-linejoin:round;">
<path d="M62990 4720
L62990 3940
" />
</g>
<g style="fill:#840000; fill-opacity:0.0; 
stroke:#840000; stroke-width:100; stroke-opacity:1; 
stroke-linecap:round; stroke-linejoin:round;">
</g>
<g style="fill:#840000; fill-opacity:0.0; 
stroke:#840000; stroke-width:60; stroke-opacity:1; 
stroke-linecap:round; stroke-linejoin:round;">
<path d="M82680 4720
L82680 3940
" />
</g>
<g style="fill:#840000; fill-opacity:0.0; 
stroke:#840000; stroke-width:100; stroke-opacity:1; 
stroke-linecap:round; stroke-linejoin:round;">
</g>
<g style="fill:#840000; fill-opacity:0.0; 
stroke:#840000; stroke-width:60; stroke-opacity:1; 
stroke-linecap:round; stroke-linejoin:round;">
<path d="M102360 4720
L102360 3940
" />
</g>
<g style="fill:#840000; fill-opacity:0.0; 
stroke:#840000; stroke-width:100; stroke-opacity:1; 
stroke-linecap:round; stroke-linejoin:round;">
</g>
<g style="fill:#840000; fill-opacity:0.0; 
stroke:#840000; stroke-width:60; stroke-opacity:1; 
stroke-linecap:round; stroke-linejoin:round;">
<text x="13780" y="4580"
textLength="550" font-size="680" lengthAdjust="spacingAndGlyphs"
text-anchor="start" opacity="0">1</text>
<path d="M14190 4560
L13900 4560
" />
<path d="M14050 4560
L14050 4050
L14000 4120
L13950 4170
L13900 4190
" />
</g>
<g style="fill:#840000; fill-opacity:0.0; 
stroke:#840000; stroke-width:100; stroke-opacity:1; 
stroke-linecap:round; stroke-linejoin:round;">
</g>
<g style="fill:#840000; fill-opacity:0.0; 
stroke:#840000; stroke-width:60; stroke-opacity:1; 
stroke-linecap:round; stroke-linejoin:round;">
<text x="33460" y="4580"
textLength="550" font-size="680" lengthAdjust="spacingAndGlyphs"
text-anchor="start" opacity="0">2</text>
<path d="M33580 4090
L33610 4070
L33660 4050
L33780 4050
L33830 4070
L33850 4090
L33870 4140
L33870 4190
L33850 4260
L33560 4560
L33870 4560
" />
</g>
<g style="fill:#840000; fill-opacity:0.0; 
stroke:#840000; stroke-width:100; stroke-opacity:1; 
stroke-linecap:round; stroke-linejoin:round;">
</g>
<g style="fill:#840000; fill-opacity:0.0; 
stroke:#840000; stroke-width:60; stroke-opacity:1; 
stroke-linecap:round; stroke-linejoin:round;">
<text x="53150" y="4580"
textLength="550" font-size="680" lengthAdjust="spacingAndGlyphs"
text-anchor="start" opacity="0">3</text>
<path d="M53250 4050
L53560 4050
L53390 4240
L53470 4240
L53520 4260
L53540 4290
L53560 4340
L53560 4460
L53540 4510
L53520 4530
L53470 4560
L53320 4560
L53270 4530
L53250 4510
" />
</g>
<g style="fill:#840000; fill-opacity:0.0; 
stroke:#840000; stroke-width:100; stroke-opacity:1; 
stroke-linecap:round; stroke-linejoin:round;">
</g>
<g style="fill:#840000; fill-opacity:0.0; 
stroke:#840000; stroke-width:60; stroke-opacity:1; 
stroke-linecap:round; stroke-linejoin:round;">
<text x="72830" y="4580"
textLength="550" font-size="680" lengthAdjust="spacingAndGlyphs"
text-anchor="start" opacity="0">4</text>
<path d="M73200 4220
L73200 4560
" />
<path d="M73070 4020
L72950 4390
L73270 4390
" />
</g>
<g style="fill:#840000; fill-opacity:0.0; 
stroke:#840000; stroke-width:100; stroke-opacity:1; 
stroke-linecap:round; stroke-linejoin:round;">
</g>
<g style="fill:#840000; fill-opacity:0.0; 
stroke:#840000; stroke-width:60; stroke-opacity:1; 
stroke-linecap:round; stroke-linejoin:round;">
<text x="92520" y="4580"
textLength="550" font-size="680" lengthAdjust="spacingAndGlyphs"
text-anchor="start" opacity="0">5</text>
<path d="M92910 4050
L92670 4050
L92640 4290
L92670 4260
L92720 4240
L92840 4240
L92890 4260
L92910 4290
L92930 4340
L92930 4460
L92910 4510
L92890 4530
L92840 4560
L92720 4560
L92670 4530
L92640 4510
" />
</g>
<g style="fill:#840000; fill-opacity:0.0; 
stroke:#840000; stroke-width:100; stroke-opacity:1; 
stroke-linecap:round; stroke-linejoin:round;">
</g>
<g style="fill:#840000; fill-opacity:0.0; 
stroke:#840000; stroke-width:60; stroke-opacity:1; 
stroke-linecap:round; stroke-linejoin:round;">
<text x="112200" y="4580"
textLength="550" font-size="680" lengthAdjust="spacingAndGlyphs"
text-anchor="start" opacity="0">6</text>
<path d="M112570 4050
L112470 4050
L112420 4070
L112400 4090
L112350 4170
L112320 4260
L112320 4460
L112350 4510
L112370 4530
L112420 4560
L112520 4560
L112570 4530
L112590 4510
L112610 4460
L112610 4340
L112590 4290
L112570 4260
L112520 4240
L112420 4240
L112370 4260
L112350 4290
L112320 4340
" />
</g>
<g style="fill:#840000; fill-opacity:0.0; 
stroke:#840000; stroke-width:100; stroke-opacity:1; 
stroke-linecap:round; stroke-linejoin:round;">
</g>
<g style="fill:#840000; fill-opacity:0.0; 
stroke:#840000; stroke-width:60; stroke-opacity:1; 
stroke-linecap:round; stroke-linejoin:round;">
<path d="M23620 77960
L23620 78740
" />
</g>
<g style="fill:#840000; fill-opacity:0.0; 
stroke:#840000; stroke-width:100; stroke-opacity:1; 
stroke-linecap:round; stroke-linejoin:round;">
</g>
<g style="fill:#840000; fill-opacity:0.0; 
stroke:#840000; stroke-width:60; stroke-opacity:1; 
stroke-linecap:round; stroke-linejoin:round;">
<path d="M43310 77960
L43310 78740
" />
</g>
<g style="fill:#840000; fill-opacity:0.0; 
stroke:#840000; stroke-width:100; stroke-opacity:1; 
stroke-linecap:round; stroke-linejoin:round;">
</g>
<g style="fill:#840000; fill-opacity:0.0; 
stroke:#840000; stroke-width:60; stroke-opacity:1; 
stroke-linecap:round; stroke-linejoin:round;">
<path d="M62990 77960
L62990 78740
" />
</g>
<g style="fill:#840000; fill-opacity:0.0; 
stroke:#840000; stroke-width:100; stroke-opacity:1; 
stroke-linecap:round; stroke-linejoin:round;">
</g>
<g style="fill:#840000; fill-opacity:0.0; 
stroke:#840000; stroke-width:60; stroke-opacity:1; 
stroke-linecap:round; stroke-linejoin:round;">
<path d="M82680 77960
L82680 78740
" />
</g>
<g style="fill:#840000; fill-opacity:0.0; 
stroke:#840000; stroke-width:100; stroke-opacity:1; 
stroke-linecap:round; stroke-linejoin:round;">
</g>
<g style="fill:#840000; fill-opacity:0.0; 
stroke:#840000; stroke-width:60; stroke-opacity:1; 
stroke-linecap:round; stroke-linejoin:round;">
<path d="M102360 77960
L102360 78740
" />
</g>
<g style="fill:#840000; fill-opacity:0.0; 
stroke:#840000; stroke-width:100; stroke-opacity:1; 
stroke-linecap:round; stroke-linejoin:round;">
</g>
<g style="fill:#840000; fill-opacity:0.0; 
stroke:#840000; stroke-width:60; stroke-opacity:1; 
stroke-linecap:round; stroke-linejoin:round;">
<text x="13780" y="78600"
textLength="550" font-size="680" lengthAdjust="spacingAndGlyphs"
text-anchor="start" opacity="0">1</text>
<path d="M14190 78580
L13900 78580
" />
<path d="M14050 78580
L14050 78070
L14000 78140
L13950 78190
L13900 78210
" />
</g>
<g style="fill:#840000; fill-opacity:0.0; 
stroke:#840000; stroke-width:100; stroke-opacity:1; 
stroke-linecap:round; stroke-linejoin:round;">
</g>
<g style="fill:#840000; fill-opacity:0.0; 
stroke:#840000; stroke-width:60; stroke-opacity:1; 
stroke-linecap:round; stroke-linejoin:round;">
<text x="33460" y="78600"
textLength="550" font-size="680" lengthAdjust="spacingAndGlyphs"
text-anchor="start" opacity="0">2</text>
<path d="M33580 78110
L33610 78090
L33660 78070
L33780 78070
L33830 78090
L33850 78110
L33870 78160
L33870 78210
L33850 78280
L33560 78580
L33870 78580
" />
</g>
<g style="fill:#840000; fill-opacity:0.0; 
stroke:#840000; stroke-width:100; stroke-opacity:1; 
stroke-linecap:round; stroke-linejoin:round;">
</g>
<g style="fill:#840000; fill-opacity:0.0; 
stroke:#840000; stroke-width:60; stroke-opacity:1; 
stroke-linecap:round; stroke-linejoin:round;">
<text x="53150" y="78600"
textLength="550" font-size="680" lengthAdjust="spacingAndGlyphs"
text-anchor="start" opacity="0">3</text>
<path d="M53250 78070
L53560 78070
L53390 78260
L53470 78260
L53520 78280
L53540 78310
L53560 78360
L53560 78480
L53540 78530
L53520 78550
L53470 78580
L53320 78580
L53270 78550
L53250 78530
" />
</g>
<g style="fill:#840000; fill-opacity:0.0; 
stroke:#840000; stroke-width:100; stroke-opacity:1; 
stroke-linecap:round; stroke-linejoin:round;">
</g>
<g style="fill:#840000; fill-opacity:0.0; 
stroke:#840000; stroke-width:60; stroke-opacity:1; 
stroke-linecap:round; stroke-linejoin:round;">
<text x="72830" y="78600"
textLength="550" font-size="680" lengthAdjust="spacingAndGlyphs"
text-anchor="start" opacity="0">4</text>
<path d="M73200 78240
L73200 78580
" />
<path d="M73070 78040
L72950 78410
L73270 78410
" />
</g>
<g style="fill:#840000; fill-opacity:0.0; 
stroke:#840000; stroke-width:100; stroke-opacity:1; 
stroke-linecap:round; stroke-linejoin:round;">
</g>
<g style="fill:#840000; fill-opacity:0.0; 
stroke:#840000; stroke-width:60; stroke-opacity:1; 
stroke-linecap:round; stroke-linejoin:round;">
<text x="92520" y="78600"
textLength="550" font-size="680" lengthAdjust="spacingAndGlyphs"
text-anchor="start" opacity="0">5</text>
<path d="M92910 78070
L92670 78070
L92640 78310
L92670 78280
L92720 78260
L92840 78260
L92890 78280
L92910 78310
L92930 78360
L92930 78480
L92910 78530
L92890 78550
L92840 78580
L92720 78580
L92670 78550
L92640 78530
" />
</g>
<g style="fill:#840000; fill-opacity:0.0; 
stroke:#840000; stroke-width:100; stroke-opacity:1; 
stroke-linecap:round; stroke-linejoin:round;">
</g>
<g style="fill:#840000; fill-opacity:0.0; 
stroke:#840000; stroke-width:60; stroke-opacity:1; 
stroke-linecap:round; stroke-linejoin:round;">
<text x="112200" y="78600"
textLength="550" font-size="680" lengthAdjust="spacingAndGlyphs"
text-anchor="start" opacity="0">6</text>
<path d="M112570 78070
L112470 78070
L112420 78090
L112400 78110
L112350 78190
L112320 78280
L112320 78480
L112350 78530
L112370 78550
L112420 78580
L112520 78580
L112570 78550
L112590 78530
L112610 78480
L112610 78360
L112590 78310
L112570 78280
L112520 78260
L112420 78260
L112370 78280
L112350 78310
L112320 78360
" />
</g>
<g style="fill:#840000; fill-opacity:0.0; 
stroke:#840000; stroke-width:100; stroke-opacity:1; 
stroke-linecap:round; stroke-linejoin:round;">
</g>
<g style="fill:#840000; fill-opacity:0.0; 
stroke:#840000; stroke-width:60; stroke-opacity:1; 
stroke-linecap:round; stroke-linejoin:round;">
<path d="M3940 23620
L4720 23620
" />
</g>
<g style="fill:#840000; fill-opacity:0.0; 
stroke:#840000; stroke-width:100; stroke-opacity:1; 
stroke-linecap:round; stroke-linejoin:round;">
</g>
<g style="fill:#840000; fill-opacity:0.0; 
stroke:#840000; stroke-width:60; stroke-opacity:1; 
stroke-linecap:round; stroke-linejoin:round;">
<path d="M3940 43310
L4720 43310
" />
</g>
<g style="fill:#840000; fill-opacity:0.0; 
stroke:#840000; stroke-width:100; stroke-opacity:1; 
stroke-linecap:round; stroke-linejoin:round;">
</g>
<g style="fill:#840000; fill-opacity:0.0; 
stroke:#840000; stroke-width:60; stroke-opacity:1; 
stroke-linecap:round; stroke-linejoin:round;">
<path d="M3940 62990
L4720 62990
" />
</g>
<g style="fill:#840000; fill-opacity:0.0; 
stroke:#840000; stroke-width:100; stroke-opacity:1; 
stroke-linecap:round; stroke-linejoin:round;">
</g>
<g style="fill:#840000; fill-opacity:0.0; 
stroke:#840000; stroke-width:60; stroke-opacity:1; 
stroke-linecap:round; stroke-linejoin:round;">
<text x="4330" y="14030"
textLength="500" font-size="680" lengthAdjust="spacingAndGlyphs"
text-anchor="middle" opacity="0">A</text>
<path d="M4200 13860
L4450 13860
" />
<path d="M4160 14010
L4330 13500
L4500 14010
" />
</g>
<g style="fill:#840000; fill-opacity:0.0; 
stroke:#840000; stroke-width:100; stroke-opacity:1; 
stroke-linecap:round; stroke-linejoin:round;">
</g>
<g style="fill:#840000; fill-opacity:0.0; 
stroke:#840000; stroke-width:60; stroke-opacity:1; 
stroke-linecap:round; stroke-linejoin:round;">
<text x="4330" y="33710"
textLength="570" font-size="680" lengthAdjust="spacingAndGlyphs"
text-anchor="middle" opacity="0">B</text>
<path d="M4360 33420
L4430 33440
L4460 33470
L4480 33520
L4480 33590
L4460 33640
L4430 33660
L4390 33690
L4190 33690
L4190 33180
L4360 33180
L4410 33200
L4430 33220
L4460 33270
L4460 33320
L4430 33370
L4410 33390
L4360 33420
L4190 33420
" />
</g>
<g style="fill:#840000; fill-opacity:0.0; 
stroke:#840000; stroke-width:100; stroke-opacity:1; 
stroke-linecap:round; stroke-linejoin:round;">
</g>
<g style="fill:#840000; fill-opacity:0.0; 
stroke:#840000; stroke-width:60; stroke-opacity:1; 
stroke-linecap:round; stroke-linejoin:round;">
<text x="4330" y="53400"
textLength="570" font-size="680" lengthAdjust="spacingAndGlyphs"
text-anchor="middle" opacity="0">C</text>
<path d="M4480 53330
L4460 53350
L4390 53380
L4340 53380
L4260 53350
L4220 53300
L4190 53250
L4170 53160
L4170 53080
L4190 52990
L4220 52940
L4260 52890
L4340 52870
L4390 52870
L4460 52890
L4480 52910
" />
</g>
<g style="fill:#840000; fill-opacity:0.0; 
stroke:#840000; stroke-width:100; stroke-opacity:1; 
stroke-linecap:round; stroke-linejoin:round;">
</g>
<g style="fill:#840000; fill-opacity:0.0; 
stroke:#840000; stroke-width:60; stroke-opacity:1; 
stroke-linecap:round; stroke-linejoin:round;">
<text x="4330" y="73080"
textLength="570" font-size="680" lengthAdjust="spacingAndGlyphs"
text-anchor="middle" opacity="0">D</text>
<path d="M4190 73060
L4190 72550
L4310 72550
L4390 72570
L4430 72620
L4460 72670
L4480 72760
L4480 72840
L4460 72930
L4430 72980
L4390 73030
L4310 73060
L4190 73060
" />
</g>
<g style="fill:#840000; fill-opacity:0.0; 
stroke:#840000; stroke-width:100; stroke-opacity:1; 
stroke-linecap:round; stroke-linejoin:round;">
</g>
<g style="fill:#840000; fill-opacity:0.0; 
stroke:#840000; stroke-width:60; stroke-opacity:1; 
stroke-linecap:round; stroke-linejoin:round;">
<path d="M112990 23620
L112210 23620
" />
</g>
<g style="fill:#840000; fill-opacity:0.0; 
stroke:#840000; stroke-width:100; stroke-opacity:1; 
stroke-linecap:round; stroke-linejoin:round;">
</g>
<g style="fill:#840000; fill-opacity:0.0; 
stroke:#840000; stroke-width:60; stroke-opacity:1; 
stroke-linecap:round; stroke-linejoin:round;">
<path d="M112990 43310
L112210 43310
" />
</g>
<g style="fill:#840000; fill-opacity:0.0; 
stroke:#840000; stroke-width:100; stroke-opacity:1; 
stroke-linecap:round; stroke-linejoin:round;">
</g>
<g style="fill:#840000; fill-opacity:0.0; 
stroke:#840000; stroke-width:60; stroke-opacity:1; 
stroke-linecap:round; stroke-linejoin:round;">
<path d="M112990 62990
L112210 62990
" />
</g>
<g style="fill:#840000; fill-opacity:0.0; 
stroke:#840000; stroke-width:100; stroke-opacity:1; 
stroke-linecap:round; stroke-linejoin:round;">
</g>
<g style="fill:#840000; fill-opacity:0.0; 
stroke:#840000; stroke-width:60; stroke-opacity:1; 
stroke-linecap:round; stroke-linejoin:round;">
<text x="112600" y="14030"
textLength="500" font-size="680" lengthAdjust="spacingAndGlyphs"
text-anchor="middle" opacity="0">A</text>
<path d="M112470 13860
L112720 13860
" />
<path d="M112430 14010
L112600 13500
L112770 14010
" />
</g>
<g style="fill:#840000; fill-opacity:0.0; 
stroke:#840000; stroke-width:100; stroke-opacity:1; 
stroke-linecap:round; stroke-linejoin:round;">
</g>
<g style="fill:#840000; fill-opacity:0.0; 
stroke:#840000; stroke-width:60; stroke-opacity:1; 
stroke-linecap:round; stroke-linejoin:round;">
<text x="112600" y="33710"
textLength="570" font-size="680" lengthAdjust="spacingAndGlyphs"
text-anchor="middle" opacity="0">B</text>
<path d="M112630 33420
L112700 33440
L112730 33470
L112750 33520
L112750 33590
L112730 33640
L112700 33660
L112660 33690
L112460 33690
L112460 33180
L112630 33180
L112680 33200
L112700 33220
L112730 33270
L112730 33320
L112700 33370
L112680 33390
L112630 33420
L112460 33420
" />
</g>
<g style="fill:#840000; fill-opacity:0.0; 
stroke:#840000; stroke-width:100; stroke-opacity:1; 
stroke-linecap:round; stroke-linejoin:round;">
</g>
<g style="fill:#840000; fill-opacity:0.0; 
stroke:#840000; stroke-width:60; stroke-opacity:1; 
stroke-linecap:round; stroke-linejoin:round;">
<text x="112600" y="53400"
textLength="570" font-size="680" lengthAdjust="spacingAndGlyphs"
text-anchor="middle" opacity="0">C</text>
<path d="M112750 53330
L112730 53350
L112660 53380
L112610 53380
L112530 53350
L112490 53300
L112460 53250
L112440 53160
L112440 53080
L112460 52990
L112490 52940
L112530 52890
L112610 52870
L112660 52870
L112730 52890
L112750 52910
" />
</g>
<g style="fill:#840000; fill-opacity:0.0; 
stroke:#840000; stroke-width:100; stroke-opacity:1; 
stroke-linecap:round; stroke-linejoin:round;">
</g>
<g style="fill:#840000; fill-opacity:0.0; 
stroke:#840000; stroke-width:60; stroke-opacity:1; 
stroke-linecap:round; stroke-linejoin:round;">
<text x="112600" y="73080"
textLength="570" font-size="680" lengthAdjust="spacingAndGlyphs"
text-anchor="middle" opacity="0">D</text>
<path d="M112460 73060
L112460 72550
L112580 72550
L112660 72570
L112700 72620
L112730 72670
L112750 72760
L112750 72840
L112730 72930
L112700 72980
L112660 73030
L112580 73060
L112460 73060
" />
</g>
<g style="fill:#840000; fill-opacity:0.0; 
stroke:#840000; stroke-width:100; stroke-opacity:1; 
stroke-linecap:round; stroke-linejoin:round;">
</g>
<g style="fill:#840000; fill-opacity:0.0; 
stroke:#840000; stroke-width:60; stroke-opacity:1; 
stroke-linecap:round; stroke-linejoin:round;">
<text x="78740" y="76320"
textLength="8710" font-size="780" lengthAdjust="spacingAndGlyphs"
text-anchor="start" opacity="0">Date: 2020-07-19</text>
<path d="M78910 76290
L78910 75700
L79050 75700
L79130 75730
L79190 75790
L79210 75840
L79240 75950
L79240 76040
L79210 76150
L79190 76210
L79130 76260
L79050 76290
L78910 76290
" />
<path d="M79750 76290
L79750 75980
L79720 75930
L79660 75900
L79550 75900
L79500 75930
" />
<path d="M79750 76260
L79690 76290
L79550 76290
L79500 76260
L79470 76210
L79470 76150
L79500 76100
L79550 76070
L79690 76070
L79750 76040
" />
<path d="M79950 75900
L80170 75900
" />
<path d="M80030 75700
L80030 76210
L80060 76260
L80110 76290
L80170 76290
" />
<path d="M80590 76260
L80540 76290
L80420 76290
L80370 76260
L80340 76210
L80340 75980
L80370 75930
L80420 75900
L80540 75900
L80590 75930
L80620 75980
L80620 76040
L80340 76100
" />
<path d="M80870 76240
L80900 76260
L80870 76290
L80840 76260
L80870 76240
L80870 76290
" />
<path d="M80870 75930
L80900 75950
L80870 75980
L80840 75950
L80870 75930
L80870 75980
" />
<path d="M81570 75760
L81600 75730
L81660 75700
L81800 75700
L81860 75730
L81880 75760
L81910 75810
L81910 75870
L81880 75950
L81550 76290
L81910 76290
" />
<path d="M82280 75700
L82330 75700
L82390 75730
L82420 75760
L82450 75810
L82470 75930
L82470 76070
L82450 76180
L82420 76240
L82390 76260
L82330 76290
L82280 76290
L82220 76260
L82190 76240
L82160 76180
L82140 76070
L82140 75930
L82160 75810
L82190 75760
L82220 75730
L82280 75700
" />
<path d="M82700 75760
L82730 75730
L82780 75700
L82920 75700
L82980 75730
L83010 75760
L83040 75810
L83040 75870
L83010 75950
L82670 76290
L83040 76290
" />
<path d="M83400 75700
L83460 75700
L83510 75730
L83540 75760
L83570 75810
L83600 75930
L83600 76070
L83570 76180
L83540 76240
L83510 76260
L83460 76290
L83400 76290
L83340 76260
L83320 76240
L83290 76180
L83260 76070
L83260 75930
L83290 75810
L83320 75760
L83340 75730
L83400 75700
" />
<path d="M83850 76070
L84300 76070
" />
<path d="M84690 75700
L84750 75700
L84810 75730
L84830 75760
L84860 75810
L84890 75930
L84890 76070
L84860 76180
L84830 76240
L84810 76260
L84750 76290
L84690 76290
L84640 76260
L84610 76240
L84580 76180
L84550 76070
L84550 75930
L84580 75810
L84610 75760
L84640 75730
L84690 75700
" />
<path d="M85090 75700
L85480 75700
L85230 76290
" />
<path d="M85700 76070
L86150 76070
" />
<path d="M86740 76290
L86410 76290
" />
<path d="M86580 76290
L86580 75700
L86520 75790
L86460 75840
L86410 75870
" />
<path d="M87030 76290
L87140 76290
L87190 76260
L87220 76240
L87280 76150
L87310 76040
L87310 75810
L87280 75760
L87250 75730
L87190 75700
L87080 75700
L87030 75730
L87000 75760
L86970 75810
L86970 75950
L87000 76010
L87030 76040
L87080 76070
L87190 76070
L87250 76040
L87280 76010
L87310 75950
" />
</g>
<g style="fill:#840000; fill-opacity:0.0; 
stroke:#840000; stroke-width:100; stroke-opacity:1; 
stroke-linecap:round; stroke-linejoin:round;">
</g>
<g style="fill:#840000; fill-opacity:0.0; 
stroke:#840000; stroke-width:60; stroke-opacity:1; 
stroke-linecap:round; stroke-linejoin:round;">
<path d="M69690 76580
L112210 76580
" />
</g>
<g style="fill:#840000; fill-opacity:0.0; 
stroke:#840000; stroke-width:100; stroke-opacity:1; 
stroke-linecap:round; stroke-linejoin:round;">
</g>
<g style="fill:#840000; fill-opacity:0.0; 
stroke:#840000; stroke-width:60; stroke-opacity:1; 
stroke-linecap:round; stroke-linejoin:round;">
<text x="70080" y="77420"
textLength="16950" font-size="780" lengthAdjust="spacingAndGlyphs"
text-anchor="start" opacity="0">KiCad E.D.A.  kicad (5.1.6-0-10_14)</text>
<path d="M70250 77390
L70250 76800
" />
<path d="M70580 77390
L70330 77050
" />
<path d="M70580 76800
L70250 77140
" />
<path d="M70840 77390
L70840 77000
" />
<path d="M70840 76800
L70810 76830
L70840 76860
L70860 76830
L70840 76800
L70840 76860
" />
<path d="M71450 77340
L71430 77360
L71340 77390
L71290 77390
L71200 77360
L71140 77310
L71120 77250
L71090 77140
L71090 77050
L71120 76940
L71140 76890
L71200 76830
L71290 76800
L71340 76800
L71430 76830
L71450 76860
" />
<path d="M71960 77390
L71960 77080
L71930 77030
L71880 77000
L71760 77000
L71710 77030
" />
<path d="M71960 77360
L71900 77390
L71760 77390
L71710 77360
L71680 77310
L71680 77250
L71710 77200
L71760 77170
L71900 77170
L71960 77140
" />
<path d="M72490 77390
L72490 76800
" />
<path d="M72490 77360
L72440 77390
L72320 77390
L72270 77360
L72240 77340
L72210 77280
L72210 77110
L72240 77050
L72270 77030
L72320 77000
L72440 77000
L72490 77030
" />
<path d="M73220 77080
L73420 77080
" />
<path d="M73500 77390
L73220 77390
L73220 76800
L73500 76800
" />
<path d="M73760 77340
L73790 77360
L73760 77390
L73730 77360
L73760 77340
L73760 77390
" />
<path d="M74040 77390
L74040 76800
L74180 76800
L74260 76830
L74320 76890
L74350 76940
L74380 77050
L74380 77140
L74350 77250
L74320 77310
L74260 77360
L74180 77390
L74040 77390
" />
<path d="M74630 77340
L74660 77360
L74630 77390
L74600 77360
L74630 77340
L74630 77390
" />
<path d="M74880 77220
L75160 77220
" />
<path d="M74830 77390
L75020 76800
L75220 77390
" />
<path d="M75420 77340
L75440 77360
L75420 77390
L75390 77360
L75420 77340
L75420 77390
" />
<path d="M76600 77390
L76600 76800
" />
<path d="M76650 77170
L76820 77390
" />
<path d="M76820 77000
L76600 77220
" />
<path d="M77070 77390
L77070 77000
" />
<path d="M77070 76800
L77040 76830
L77070 76860
L77100 76830
L77070 76800
L77070 76860
" />
<path d="M77610 77360
L77550 77390
L77440 77390
L77380 77360
L77350 77340
L77330 77280
L77330 77110
L77350 77050
L77380 77030
L77440 77000
L77550 77000
L77610 77030
" />
<path d="M78110 77390
L78110 77080
L78080 77030
L78030 77000
L77920 77000
L77860 77030
" />
<path d="M78110 77360
L78060 77390
L77920 77390
L77860 77360
L77830 77310
L77830 77250
L77860 77200
L77920 77170
L78060 77170
L78110 77140
" />
<path d="M78650 77390
L78650 76800
" />
<path d="M78650 77360
L78590 77390
L78480 77390
L78420 77360
L78390 77340
L78370 77280
L78370 77110
L78390 77050
L78420 77030
L78480 77000
L78590 77000
L78650 77030
" />
<path d="M79550 77620
L79520 77590
L79460 77500
L79430 77450
L79400 77360
L79380 77220
L79380 77110
L79400 76970
L79430 76890
L79460 76830
L79520 76750
L79550 76720
" />
<path d="M80050 76800
L79770 76800
L79740 77080
L79770 77050
L79830 77030
L79970 77030
L80020 77050
L80050 77080
L80080 77140
L80080 77280
L80050 77340
L80020 77360
L79970 77390
L79830 77390
L79770 77360
L79740 77340
" />
<path d="M80330 77340
L80360 77360
L80330 77390
L80300 77360
L80330 77340
L80330 77390
" />
<path d="M80920 77390
L80580 77390
" />
<path d="M80750 77390
L80750 76800
L80700 76890
L80640 76940
L80580 76970
" />
<path d="M81170 77340
L81200 77360
L81170 77390
L81150 77360
L81170 77340
L81170 77390
" />
<path d="M81710 76800
L81600 76800
L81540 76830
L81510 76860
L81460 76940
L81430 77050
L81430 77280
L81460 77340
L81480 77360
L81540 77390
L81650 77390
L81710 77360
L81740 77340
L81760 77280
L81760 77140
L81740 77080
L81710 77050
L81650 77030
L81540 77030
L81480 77050
L81460 77080
L81430 77140
" />
<path d="M82020 77170
L82470 77170
" />
<path d="M82860 76800
L82920 76800
L82970 76830
L83000 76860
L83030 76910
L83060 77030
L83060 77170
L83030 77280
L83000 77340
L82970 77360
L82920 77390
L82860 77390
L82800 77360
L82780 77340
L82750 77280
L82720 77170
L82720 77030
L82750 76910
L82780 76860
L82800 76830
L82860 76800
" />
<path d="M83310 77170
L83760 77170
" />
<path d="M84350 77390
L84010 77390
" />
<path d="M84180 77390
L84180 76800
L84120 76890
L84070 76940
L84010 76970
" />
<path d="M84710 76800
L84770 76800
L84830 76830
L84860 76860
L84880 76910
L84910 77030
L84910 77170
L84880 77280
L84860 77340
L84830 77360
L84770 77390
L84710 77390
L84660 77360
L84630 77340
L84600 77280
L84570 77170
L84570 77030
L84600 76910
L84630 76860
L84660 76830
L84710 76800
" />
<path d="M85020 77450
L85470 77450
" />
<path d="M85920 77390
L85590 77390
" />
<path d="M85750 77390
L85750 76800
L85700 76890
L85640 76940
L85590 76970
" />
<path d="M86430 77000
L86430 77390
" />
<path d="M86290 76770
L86150 77200
L86510 77200
" />
<path d="M86680 77620
L86710 77590
L86770 77500
L86790 77450
L86820 77360
L86850 77220
L86850 77110
L86820 76970
L86790 76890
L86770 76830
L86710 76750
L86680 76720
" />
</g>
<g style="fill:#840000; fill-opacity:0.0; 
stroke:#840000; stroke-width:100; stroke-opacity:1; 
stroke-linecap:round; stroke-linejoin:round;">
</g>
<g style="fill:#840000; fill-opacity:0.0; 
stroke:#840000; stroke-width:60; stroke-opacity:1; 
stroke-linecap:round; stroke-linejoin:round;">
<path d="M69690 75400
L112210 75400
" />
</g>
<g style="fill:#840000; fill-opacity:0.0; 
stroke:#840000; stroke-width:100; stroke-opacity:1; 
stroke-linecap:round; stroke-linejoin:round;">
</g>
<g style="fill:#840000; fill-opacity:0.0; 
stroke:#840000; stroke-width:120; stroke-opacity:1; 
stroke-linecap:round; stroke-linejoin:round;">
<text x="103540" y="76320"
textLength="5120" font-size="780" lengthAdjust="spacingAndGlyphs"
text-anchor="start" opacity="0">Rev: 2007E</text>
<path d="M104090 76290
L103890 76010
" />
<path d="M103750 76290
L103750 75700
L103980 75700
L104030 75730
L104060 75760
L104090 75810
L104090 75900
L104060 75950
L104030 75980
L103980 76010
L103750 76010
" />
<path d="M104570 76260
L104510 76290
L104400 76290
L104340 76260
L104320 76210
L104320 75980
L104340 75930
L104400 75900
L104510 75900
L104570 75930
L104600 75980
L104600 76040
L104320 76100
" />
<path d="M104790 75900
L104930 76290
L105070 75900
" />
<path d="M105300 76240
L105330 76260
L105300 76290
L105270 76260
L105300 76240
L105300 76290
" />
<path d="M105300 75930
L105330 75950
L105300 75980
L105270 75950
L105300 75930
L105300 75980
" />
<path d="M106000 75760
L106030 75730
L106090 75700
L106230 75700
L106280 75730
L106310 75760
L106340 75810
L106340 75870
L106310 75950
L105970 76290
L106340 76290
" />
<path d="M106700 75700
L106760 75700
L106820 75730
L106840 75760
L106870 75810
L106900 75930
L106900 76070
L106870 76180
L106840 76240
L106820 76260
L106760 76290
L106700 76290
L106650 76260
L106620 76240
L106590 76180
L106560 76070
L106560 75930
L106590 75810
L106620 75760
L106650 75730
L106700 75700
" />
<path d="M107270 75700
L107320 75700
L107380 75730
L107410 75760
L107430 75810
L107460 75930
L107460 76070
L107430 76180
L107410 76240
L107380 76260
L107320 76290
L107270 76290
L107210 76260
L107180 76240
L107150 76180
L107120 76070
L107120 75930
L107150 75810
L107180 75760
L107210 75730
L107270 75700
" />
<path d="M107660 75700
L108050 75700
L107800 76290
" />
<path d="M108280 75980
L108470 75980
" />
<path d="M108560 76290
L108280 76290
L108280 75700
L108560 75700
" />
</g>
<g style="fill:#840000; fill-opacity:0.0; 
stroke:#840000; stroke-width:100; stroke-opacity:1; 
stroke-linecap:round; stroke-linejoin:round;">
</g>
<g style="fill:#840000; fill-opacity:0.0; 
stroke:#840000; stroke-width:60; stroke-opacity:1; 
stroke-linecap:round; stroke-linejoin:round;">
<text x="70080" y="76320"
textLength="3780" font-size="780" lengthAdjust="spacingAndGlyphs"
text-anchor="start" opacity="0">Size: A4</text>
<path d="M70220 76260
L70300 76290
L70440 76290
L70500 76260
L70530 76240
L70550 76180
L70550 76120
L70530 76070
L70500 76040
L70440 76010
L70330 75980
L70270 75950
L70250 75930
L70220 75870
L70220 75810
L70250 75760
L70270 75730
L70330 75700
L70470 75700
L70550 75730
" />
<path d="M70810 76290
L70810 75900
" />
<path d="M70810 75700
L70780 75730
L70810 75760
L70840 75730
L70810 75700
L70810 75760
" />
<path d="M71030 75900
L71340 75900
L71030 76290
L71340 76290
" />
<path d="M71790 76260
L71730 76290
L71620 76290
L71570 76260
L71540 76210
L71540 75980
L71570 75930
L71620 75900
L71730 75900
L71790 75930
L71820 75980
L71820 76040
L71540 76100
" />
<path d="M72070 76240
L72100 76260
L72070 76290
L72040 76260
L72070 76240
L72070 76290
" />
<path d="M72070 75930
L72100 75950
L72070 75980
L72040 75950
L72070 75930
L72070 75980
" />
<path d="M72770 76120
L73060 76120
" />
<path d="M72720 76290
L72910 75700
L73110 76290
" />
<path d="M73560 75900
L73560 76290
" />
<path d="M73420 75670
L73280 76100
L73650 76100
" />
</g>
<g style="fill:#840000; fill-opacity:0.0; 
stroke:#840000; stroke-width:100; stroke-opacity:1; 
stroke-linecap:round; stroke-linejoin:round;">
</g>
<g style="fill:#840000; fill-opacity:0.0; 
stroke:#840000; stroke-width:60; stroke-opacity:1; 
stroke-linecap:round; stroke-linejoin:round;">
<text x="103540" y="77420"
textLength="3350" font-size="780" lengthAdjust="spacingAndGlyphs"
text-anchor="start" opacity="0">Id: 4/8</text>
<path d="M103710 77390
L103710 76800
" />
<path d="M104240 77390
L104240 76800
" />
<path d="M104240 77360
L104180 77390
L104070 77390
L104010 77360
L103990 77340
L103960 77280
L103960 77110
L103990 77050
L104010 77030
L104070 77000
L104180 77000
L104240 77030
" />
<path d="M104520 77340
L104550 77360
L104520 77390
L104490 77360
L104520 77340
L104520 77390
" />
<path d="M104520 77030
L104550 77050
L104520 77080
L104490 77050
L104520 77030
L104520 77080
" />
<path d="M105500 77000
L105500 77390
" />
<path d="M105360 76770
L105220 77200
L105590 77200
" />
<path d="M106230 76770
L105730 77530
" />
<path d="M106520 77050
L106460 77030
L106430 77000
L106400 76940
L106400 76910
L106430 76860
L106460 76830
L106520 76800
L106630 76800
L106680 76830
L106710 76860
L106740 76910
L106740 76940
L106710 77000
L106680 77030
L106630 77050
L106520 77050
L106460 77080
L106430 77110
L106400 77170
L106400 77280
L106430 77340
L106460 77360
L106520 77390
L106630 77390
L106680 77360
L106710 77340
L106740 77280
L106740 77170
L106710 77110
L106680 77080
L106630 77050
" />
</g>
<g style="fill:#840000; fill-opacity:0.0; 
stroke:#840000; stroke-width:100; stroke-opacity:1; 
stroke-linecap:round; stroke-linejoin:round;">
</g>
<g style="fill:#840000; fill-opacity:0.0; 
stroke:#840000; stroke-width:60; stroke-opacity:1; 
stroke-linecap:round; stroke-linejoin:round;">
<path d="M69690 73820
L112210 73820
" />
</g>
<g style="fill:#840000; fill-opacity:0.0; 
stroke:#840000; stroke-width:100; stroke-opacity:1; 
stroke-linecap:round; stroke-linejoin:round;">
</g>
<g style="fill:#840000; fill-opacity:0.0; 
stroke:#840000; stroke-width:160; stroke-opacity:1; 
stroke-linecap:round; stroke-linejoin:round;">
<text x="70080" y="74920"
textLength="19930" font-size="1050" lengthAdjust="spacingAndGlyphs"
text-anchor="start" opacity="0">Title: FT81x TFT040 Driver Board</text>
<path d="M70360 74090
L70810 74090
" />
<path d="M70480 74880
L70580 74090
" />
<path d="M70970 74880
L71040 74360
" />
<path d="M71070 74090
L71030 74130
L71060 74170
L71110 74130
L71070 74090
L71060 74170
" />
<path d="M71300 74360
L71600 74360
" />
<path d="M71450 74090
L71360 74770
L71390 74840
L71460 74880
L71540 74880
" />
<path d="M71910 74880
L71840 74840
L71820 74770
L71900 74090
" />
<path d="M72520 74840
L72440 74880
L72290 74880
L72220 74840
L72190 74770
L72230 74470
L72280 74390
L72360 74360
L72510 74360
L72580 74390
L72610 74470
L72600 74540
L72210 74620
" />
<path d="M72900 74810
L72930 74840
L72890 74880
L72860 74840
L72900 74810
L72890 74880
" />
<path d="M72950 74390
L72990 74430
L72940 74470
L72910 74430
L72950 74390
L72940 74470
" />
<path d="M74190 74470
L73920 74470
" />
<path d="M73870 74880
L73970 74090
L74350 74090
" />
<path d="M74530 74090
L74980 74090
" />
<path d="M74660 74880
L74760 74090
" />
<path d="M75320 74430
L75250 74390
L75220 74360
L75190 74280
L75190 74240
L75240 74170
L75280 74130
L75360 74090
L75510 74090
L75580 74130
L75610 74170
L75640 74240
L75640 74280
L75590 74360
L75550 74390
L75470 74430
L75320 74430
L75240 74470
L75200 74510
L75150 74580
L75130 74730
L75160 74810
L75190 74840
L75260 74880
L75410 74880
L75490 74840
L75540 74810
L75580 74730
L75600 74580
L75570 74510
L75540 74470
L75470 74430
" />
<path d="M76320 74880
L75860 74880
" />
<path d="M76090 74880
L76190 74090
L76100 74210
L76010 74280
L75930 74320
" />
<path d="M76580 74880
L77060 74360
" />
<path d="M76640 74360
L76990 74880
" />
<path d="M77880 74090
L78330 74090
" />
<path d="M78010 74880
L78110 74090
" />
<path d="M78810 74470
L78550 74470
" />
<path d="M78500 74880
L78600 74090
L78970 74090
" />
<path d="M79160 74090
L79610 74090
" />
<path d="M79290 74880
L79390 74090
" />
<path d="M80030 74090
L80100 74090
L80170 74130
L80200 74170
L80230 74240
L80250 74390
L80230 74580
L80170 74730
L80120 74810
L80080 74840
L80000 74880
L79930 74880
L79860 74840
L79820 74810
L79800 74730
L79780 74580
L79800 74390
L79860 74240
L79900 74170
L79950 74130
L80030 74090
" />
<path d="M80930 74360
L80870 74880
" />
<path d="M80780 74050
L80520 74620
L81010 74620
" />
<path d="M81530 74090
L81610 74090
L81680 74130
L81710 74170
L81740 74240
L81760 74390
L81730 74580
L81680 74730
L81630 74810
L81590 74840
L81510 74880
L81430 74880
L81360 74840
L81330 74810
L81300 74730
L81280 74580
L81300 74390
L81360 74240
L81410 74170
L81450 74130
L81530 74090
" />
<path d="M82640 74880
L82730 74090
L82920 74090
L83030 74130
L83100 74210
L83120 74280
L83140 74430
L83130 74540
L83070 74690
L83030 74770
L82940 74840
L82820 74880
L82640 74880
" />
<path d="M83430 74880
L83490 74360
" />
<path d="M83470 74510
L83520 74430
L83560 74390
L83640 74360
L83720 74360
" />
<path d="M83910 74880
L83980 74360
" />
<path d="M84010 74090
L83970 74130
L84000 74170
L84050 74130
L84010 74090
L84000 74170
" />
<path d="M84280 74360
L84400 74880
L84660 74360
" />
<path d="M85200 74840
L85120 74880
L84970 74880
L84900 74840
L84870 74770
L84910 74470
L84950 74390
L85030 74360
L85180 74360
L85250 74390
L85280 74470
L85270 74540
L84890 74620
" />
<path d="M85570 74880
L85640 74360
" />
<path d="M85620 74510
L85660 74430
L85710 74390
L85790 74360
L85860 74360
" />
<path d="M86980 74470
L87080 74510
L87120 74540
L87150 74620
L87130 74730
L87080 74810
L87040 74840
L86960 74880
L86660 74880
L86760 74090
L87020 74090
L87090 74130
L87130 74170
L87150 74240
L87150 74320
L87100 74390
L87060 74430
L86980 74470
L86710 74470
" />
<path d="M87560 74880
L87490 74840
L87460 74810
L87430 74730
L87460 74510
L87510 74430
L87550 74390
L87630 74360
L87740 74360
L87810 74390
L87850 74430
L87870 74510
L87850 74730
L87800 74810
L87760 74840
L87680 74880
L87560 74880
" />
<path d="M88500 74880
L88560 74470
L88530 74390
L88460 74360
L88310 74360
L88230 74390
" />
<path d="M88510 74840
L88430 74880
L88240 74880
L88170 74840
L88140 74770
L88150 74690
L88200 74620
L88280 74580
L88470 74580
L88550 74540
" />
<path d="M88880 74880
L88950 74360
" />
<path d="M88930 74510
L88970 74430
L89020 74390
L89100 74360
L89170 74360
" />
<path d="M89710 74880
L89810 74090
" />
<path d="M89710 74840
L89630 74880
L89480 74880
L89410 74840
L89380 74810
L89350 74730
L89380 74510
L89430 74430
L89470 74390
L89550 74360
L89700 74360
L89770 74390
" />
</g>
<g style="fill:#840000; fill-opacity:0.0; 
stroke:#840000; stroke-width:100; stroke-opacity:1; 
stroke-linecap:round; stroke-linejoin:round;">
</g>
<g style="fill:#840000; fill-opacity:0.0; 
stroke:#840000; stroke-width:60; stroke-opacity:1; 
stroke-linecap:round; stroke-linejoin:round;">
<text x="70080" y="73400"
textLength="9170" font-size="780" lengthAdjust="spacingAndGlyphs"
text-anchor="start" opacity="0">File: connectors.sch</text>
<path d="M70440 73060
L70250 73060
" />
<path d="M70250 73370
L70250 72780
L70530 72780
" />
<path d="M70750 73370
L70750 72980
" />
<path d="M70750 72780
L70720 72810
L70750 72840
L70780 72810
L70750 72780
L70750 72840
" />
<path d="M71120 73370
L71060 73340
L71030 73290
L71030 72780
" />
<path d="M71570 73340
L71510 73370
L71400 73370
L71340 73340
L71310 73290
L71310 73060
L71340 73010
L71400 72980
L71510 72980
L71570 73010
L71590 73060
L71590 73120
L71310 73180
" />
<path d="M71850 73320
L71880 73340
L71850 73370
L71820 73340
L71850 73320
L71850 73370
" />
<path d="M71850 73010
L71880 73030
L71850 73060
L71820 73030
L71850 73010
L71850 73060
" />
<path d="M72830 73340
L72770 73370
L72660 73370
L72610 73340
L72580 73320
L72550 73260
L72550 73090
L72580 73030
L72610 73010
L72660 72980
L72770 72980
L72830 73010
" />
<path d="M73170 73370
L73110 73340
L73080 73320
L73060 73260
L73060 73090
L73080 73030
L73110 73010
L73170 72980
L73250 72980
L73310 73010
L73340 73030
L73360 73090
L73360 73260
L73340 73320
L73310 73340
L73250 73370
L73170 73370
" />
<path d="M73620 72980
L73620 73370
" />
<path d="M73620 73030
L73650 73010
L73700 72980
L73790 72980
L73840 73010
L73870 73060
L73870 73370
" />
<path d="M74150 72980
L74150 73370
" />
<path d="M74150 73030
L74180 73010
L74240 72980
L74320 72980
L74380 73010
L74400 73060
L74400 73370
" />
<path d="M74910 73340
L74850 73370
L74740 73370
L74680 73340
L74660 73290
L74660 73060
L74680 73010
L74740 72980
L74850 72980
L74910 73010
L74940 73060
L74940 73120
L74660 73180
" />
<path d="M75440 73340
L75390 73370
L75270 73370
L75220 73340
L75190 73320
L75160 73260
L75160 73090
L75190 73030
L75220 73010
L75270 72980
L75390 72980
L75440 73010
" />
<path d="M75610 72980
L75840 72980
" />
<path d="M75700 72780
L75700 73290
L75720 73340
L75780 73370
L75840 73370
" />
<path d="M76120 73370
L76060 73340
L76030 73320
L76010 73260
L76010 73090
L76030 73030
L76060 73010
L76120 72980
L76200 72980
L76260 73010
L76290 73030
L76310 73090
L76310 73260
L76290 73320
L76260 73340
L76200 73370
L76120 73370
" />
<path d="M76570 73370
L76570 72980
" />
<path d="M76570 73090
L76600 73030
L76620 73010
L76680 72980
L76740 72980
" />
<path d="M76900 73340
L76960 73370
L77070 73370
L77130 73340
L77160 73290
L77160 73260
L77130 73200
L77070 73180
L76990 73180
L76930 73150
L76900 73090
L76900 73060
L76930 73010
L76990 72980
L77070 72980
L77130 73010
" />
<path d="M77410 73320
L77440 73340
L77410 73370
L77380 73340
L77410 73320
L77410 73370
" />
<path d="M77660 73340
L77720 73370
L77830 73370
L77890 73340
L77920 73290
L77920 73260
L77890 73200
L77830 73180
L77750 73180
L77690 73150
L77660 73090
L77660 73060
L77690 73010
L77750 72980
L77830 72980
L77890 73010
" />
<path d="M78420 73340
L78370 73370
L78250 73370
L78200 73340
L78170 73320
L78140 73260
L78140 73090
L78170 73030
L78200 73010
L78250 72980
L78370 72980
L78420 73010
" />
<path d="M78670 73370
L78670 72780
" />
<path d="M78930 73370
L78930 73060
L78900 73010
L78840 72980
L78760 72980
L78700 73010
L78670 73030
" />
</g>
<g style="fill:#840000; fill-opacity:0.0; 
stroke:#840000; stroke-width:100; stroke-opacity:1; 
stroke-linecap:round; stroke-linejoin:round;">
</g>
<g style="fill:#840000; fill-opacity:0.0; 
stroke:#840000; stroke-width:60; stroke-opacity:1; 
stroke-linecap:round; stroke-linejoin:round;">
<path d="M69690 71460
L112210 71460
" />
</g>
<g style="fill:#840000; fill-opacity:0.0; 
stroke:#840000; stroke-width:100; stroke-opacity:1; 
stroke-linecap:round; stroke-linejoin:round;">
</g>
<g style="fill:#840000; fill-opacity:0.0; 
stroke:#840000; stroke-width:60; stroke-opacity:1; 
stroke-linecap:round; stroke-linejoin:round;">
<text x="70080" y="72340"
textLength="9390" font-size="780" lengthAdjust="spacingAndGlyphs"
text-anchor="start" opacity="0">Sheet: /Connectors/</text>
<path d="M70220 72280
L70300 72310
L70440 72310
L70500 72280
L70530 72260
L70550 72200
L70550 72140
L70530 72090
L70500 72060
L70440 72030
L70330 72000
L70270 71970
L70250 71950
L70220 71890
L70220 71830
L70250 71780
L70270 71750
L70330 71720
L70470 71720
L70550 71750
" />
<path d="M70810 72310
L70810 71720
" />
<path d="M71060 72310
L71060 72000
L71030 71950
L70980 71920
L70890 71920
L70840 71950
L70810 71970
" />
<path d="M71570 72280
L71510 72310
L71400 72310
L71340 72280
L71310 72230
L71310 72000
L71340 71950
L71400 71920
L71510 71920
L71570 71950
L71590 72000
L71590 72060
L71310 72120
" />
<path d="M72070 72280
L72020 72310
L71900 72310
L71850 72280
L71820 72230
L71820 72000
L71850 71950
L71900 71920
L72020 71920
L72070 71950
L72100 72000
L72100 72060
L71820 72120
" />
<path d="M72270 71920
L72490 71920
" />
<path d="M72350 71720
L72350 72230
L72380 72280
L72440 72310
L72490 72310
" />
<path d="M72690 72260
L72720 72280
L72690 72310
L72660 72280
L72690 72260
L72690 72310
" />
<path d="M72690 71950
L72720 71970
L72690 72000
L72660 71970
L72690 71950
L72690 72000
" />
<path d="M73840 71690
L73340 72450
" />
<path d="M74380 72260
L74350 72280
L74260 72310
L74210 72310
L74120 72280
L74070 72230
L74040 72170
L74010 72060
L74010 71970
L74040 71860
L74070 71810
L74120 71750
L74210 71720
L74260 71720
L74350 71750
L74380 71780
" />
<path d="M74710 72310
L74660 72280
L74630 72260
L74600 72200
L74600 72030
L74630 71970
L74660 71950
L74710 71920
L74800 71920
L74850 71950
L74880 71970
L74910 72030
L74910 72200
L74880 72260
L74850 72280
L74800 72310
L74710 72310
" />
<path d="M75160 71920
L75160 72310
" />
<path d="M75160 71970
L75190 71950
L75250 71920
L75330 71920
L75390 71950
L75420 72000
L75420 72310
" />
<path d="M75700 71920
L75700 72310
" />
<path d="M75700 71970
L75720 71950
L75780 71920
L75860 71920
L75920 71950
L75950 72000
L75950 72310
" />
<path d="M76450 72280
L76400 72310
L76290 72310
L76230 72280
L76200 72230
L76200 72000
L76230 71950
L76290 71920
L76400 71920
L76450 71950
L76480 72000
L76480 72060
L76200 72120
" />
<path d="M76990 72280
L76930 72310
L76820 72310
L76760 72280
L76740 72260
L76710 72200
L76710 72030
L76740 71970
L76760 71950
L76820 71920
L76930 71920
L76990 71950
" />
<path d="M77160 71920
L77380 71920
" />
<path d="M77240 71720
L77240 72230
L77270 72280
L77330 72310
L77380 72310
" />
<path d="M77660 72310
L77610 72280
L77580 72260
L77550 72200
L77550 72030
L77580 71970
L77610 71950
L77660 71920
L77750 71920
L77800 71950
L77830 71970
L77860 72030
L77860 72200
L77830 72260
L77800 72280
L77750 72310
L77660 72310
" />
<path d="M78110 72310
L78110 71920
" />
<path d="M78110 72030
L78140 71970
L78170 71950
L78220 71920
L78280 71920
" />
<path d="M78450 72280
L78510 72310
L78620 72310
L78670 72280
L78700 72230
L78700 72200
L78670 72140
L78620 72120
L78530 72120
L78480 72090
L78450 72030
L78450 72000
L78480 71950
L78530 71920
L78620 71920
L78670 71950
" />
<path d="M79380 71690
L78870 72450
" />
</g>
<g style="fill:#840000; fill-opacity:0.0; 
stroke:#840000; stroke-width:100; stroke-opacity:1; 
stroke-linecap:round; stroke-linejoin:round;">
</g>
<g style="fill:#840000; fill-opacity:0.0; 
stroke:#840000; stroke-width:60; stroke-opacity:1; 
stroke-linecap:round; stroke-linejoin:round;">
<path d="M77560 75400
L77560 76580
" />
</g>
<g style="fill:#840000; fill-opacity:0.0; 
stroke:#840000; stroke-width:100; stroke-opacity:1; 
stroke-linecap:round; stroke-linejoin:round;">
</g>
<g style="fill:#840000; fill-opacity:0.0; 
stroke:#840000; stroke-width:60; stroke-opacity:1; 
stroke-linecap:round; stroke-linejoin:round;">
<path d="M102760 75400
L102760 77960
" />
</g>
<g style="fill:#840000; fill-opacity:0.0; 
stroke:#840000; stroke-width:0; stroke-opacity:1; 
stroke-linecap:round; stroke-linejoin:round;">
<g >
</g>
<g style="fill:#840000; fill-opacity:0.0; 
stroke:#840000; stroke-width:60; stroke-opacity:1; 
stroke-linecap:round; stroke-linejoin:round;">
<path style="fill:#840000; fill-opacity:0.0; 
stroke:#840000; stroke-width:60; stroke-opacity:1; 
stroke-linecap:round; stroke-linejoin:round;fill:none"
d="M 63500,36000
63500,35500
63100,35250
63500,35000
63900,35250
63500,35500
" /> 
<path d="M63500 36000
L63500 36000
" />
</g>
</g>
<g style="fill:#840000; fill-opacity:0.0; 
stroke:#840000; stroke-width:0; stroke-opacity:1; 
stroke-linecap:round; stroke-linejoin:round;">
<g >
</g>
<g style="fill:#840000; fill-opacity:0.0; 
stroke:#840000; stroke-width:60; stroke-opacity:1; 
stroke-linecap:round; stroke-linejoin:round;">
<path style="fill:#840000; fill-opacity:0.0; 
stroke:#840000; stroke-width:60; stroke-opacity:1; 
stroke-linecap:round; stroke-linejoin:round;fill:none"
d="M 60000,35000
60000,34500
59600,34250
60000,34000
60400,34250
60000,34500
" /> 
<path d="M60000 35000
L60000 35000
" />
</g>
</g>
<g style="fill:#840000; fill-opacity:0.0; 
stroke:#840000; stroke-width:0; stroke-opacity:1; 
stroke-linecap:round; stroke-linejoin:round;">
<g >
</g>
<g style="fill:#840000; fill-opacity:0.0; 
stroke:#840000; stroke-width:60; stroke-opacity:1; 
stroke-linecap:round; stroke-linejoin:round;">
<path style="fill:#840000; fill-opacity:0.0; 
stroke:#840000; stroke-width:60; stroke-opacity:1; 
stroke-linecap:round; stroke-linejoin:round;fill:none"
d="M 56500,34000
56500,33500
56100,33250
56500,33000
56900,33250
56500,33500
" /> 
<path d="M56500 34000
L56500 34000
" />
</g>
</g>
<g style="fill:#840000; fill-opacity:0.0; 
stroke:#840000; stroke-width:0; stroke-opacity:1; 
stroke-linecap:round; stroke-linejoin:round;">
<g >
</g>
<g style="fill:#840000; fill-opacity:0.0; 
stroke:#840000; stroke-width:60; stroke-opacity:1; 
stroke-linecap:round; stroke-linejoin:round;">
<path style="fill:#840000; fill-opacity:0.0; 
stroke:#840000; stroke-width:60; stroke-opacity:1; 
stroke-linecap:round; stroke-linejoin:round;fill:none"
d="M 60500,34700
61000,35000
" /> 
<path style="fill:#840000; fill-opacity:0.0; 
stroke:#840000; stroke-width:60; stroke-opacity:1; 
stroke-linecap:round; stroke-linejoin:round;fill:none"
d="M 60000,35000
61000,35000
" /> 
<path style="fill:#840000; fill-opacity:0.0; 
stroke:#840000; stroke-width:60; stroke-opacity:1; 
stroke-linecap:round; stroke-linejoin:round;fill:none"
d="M 61000,35000
60500,35300
" /> 
</g>
<g style="fill:#008484; fill-opacity:0.0; 
stroke:#008484; stroke-width:60; stroke-opacity:1; 
stroke-linecap:round; stroke-linejoin:round;">
<text x="61740" y="35270"
textLength="1490" font-size="660" lengthAdjust="spacingAndGlyphs"
text-anchor="middle" opacity="0">VCC</text>
<path d="M61070 34740
L61240 35240
L61400 34740
" />
<path d="M61850 35190
L61830 35220
L61760 35240
L61710 35240
L61640 35220
L61590 35170
L61570 35120
L61540 35030
L61540 34960
L61570 34860
L61590 34810
L61640 34770
L61710 34740
L61760 34740
L61830 34770
L61850 34790
" />
<path d="M62350 35190
L62330 35220
L62260 35240
L62210 35240
L62140 35220
L62090 35170
L62070 35120
L62040 35030
L62040 34960
L62070 34860
L62090 34810
L62140 34770
L62210 34740
L62260 34740
L62330 34770
L62350 34790
" />
</g>
</g>
<g style="fill:#008484; fill-opacity:0.0; 
stroke:#008484; stroke-width:0; stroke-opacity:1; 
stroke-linecap:round; stroke-linejoin:round;">
<g >
</g>
<g style="fill:#840000; fill-opacity:0.0; 
stroke:#840000; stroke-width:0; stroke-opacity:1; 
stroke-linecap:round; stroke-linejoin:round;">
</g>
<g style="fill:#840000; fill-opacity:0.0; 
stroke:#840000; stroke-width:60; stroke-opacity:1; 
stroke-linecap:round; stroke-linejoin:round;">
<path style="fill:#840000; fill-opacity:0.0; 
stroke:#840000; stroke-width:60; stroke-opacity:1; 
stroke-linecap:round; stroke-linejoin:round;fill:none"
d="M 57000,33700
57500,34000
" /> 
<path style="fill:#840000; fill-opacity:0.0; 
stroke:#840000; stroke-width:60; stroke-opacity:1; 
stroke-linecap:round; stroke-linejoin:round;fill:none"
d="M 56500,34000
57500,34000
" /> 
<path style="fill:#840000; fill-opacity:0.0; 
stroke:#840000; stroke-width:60; stroke-opacity:1; 
stroke-linecap:round; stroke-linejoin:round;fill:none"
d="M 57500,34000
57000,34300
" /> 
</g>
<g style="fill:#008484; fill-opacity:0.0; 
stroke:#008484; stroke-width:60; stroke-opacity:1; 
stroke-linecap:round; stroke-linejoin:round;">
<text x="58290" y="34270"
textLength="1580" font-size="660" lengthAdjust="spacingAndGlyphs"
text-anchor="middle" opacity="0">+5V</text>
<path d="M57640 34050
L58020 34050
" />
<path d="M57830 34240
L57830 33860
" />
<path d="M58500 33740
L58260 33740
L58240 33980
L58260 33960
L58310 33930
L58430 33930
L58480 33960
L58500 33980
L58520 34030
L58520 34150
L58500 34190
L58480 34220
L58430 34240
L58310 34240
L58260 34220
L58240 34190
" />
<path d="M58670 33740
L58830 34240
L59000 33740
" />
</g>
</g>
<g style="fill:#008484; fill-opacity:0.0; 
stroke:#008484; stroke-width:0; stroke-opacity:1; 
stroke-linecap:round; stroke-linejoin:round;">
<g >
</g>
<g style="fill:#840000; fill-opacity:0.0; 
stroke:#840000; stroke-width:0; stroke-opacity:1; 
stroke-linecap:round; stroke-linejoin:round;">
</g>
<g style="fill:#840000; fill-opacity:0.0; 
stroke:#840000; stroke-width:60; stroke-opacity:1; 
stroke-linecap:round; stroke-linejoin:round;">
<path style="fill:#840000; fill-opacity:0.0; 
stroke:#840000; stroke-width:60; stroke-opacity:1; 
stroke-linecap:round; stroke-linejoin:round;fill:none"
d="M 63500,36000
63500,36500
64000,36500
63500,37000
63000,36500
63500,36500
" /> 
</g>
<g style="fill:#008484; fill-opacity:0.0; 
stroke:#008484; stroke-width:60; stroke-opacity:1; 
stroke-linecap:round; stroke-linejoin:round;">
<text x="63500" y="37770"
textLength="1580" font-size="660" lengthAdjust="spacingAndGlyphs"
text-anchor="middle" opacity="0">GND</text>
<path d="M63110 37270
L63070 37240
L63000 37240
L62920 37270
L62880 37310
L62850 37360
L62830 37460
L62830 37530
L62850 37620
L62880 37670
L62920 37720
L63000 37740
L63040 37740
L63110 37720
L63140 37690
L63140 37530
L63040 37530
" />
<path d="M63350 37740
L63350 37240
L63640 37740
L63640 37240
" />
<path d="M63880 37740
L63880 37240
L64000 37240
L64070 37270
L64110 37310
L64140 37360
L64160 37460
L64160 37530
L64140 37620
L64110 37670
L64070 37720
L64000 37740
L63880 37740
" />
</g>
</g>
<g style="fill:#008484; fill-opacity:0.0; 
stroke:#008484; stroke-width:0; stroke-opacity:1; 
stroke-linecap:round; stroke-linejoin:round;">
<g >
</g>
<g style="fill:#840000; fill-opacity:0.0; 
stroke:#840000; stroke-width:0; stroke-opacity:1; 
stroke-linecap:round; stroke-linejoin:round;">
</g>
<g style="fill:#840000; fill-opacity:1.0; 
stroke:#840000; stroke-width:60; stroke-opacity:1; 
stroke-linecap:round; stroke-linejoin:round;">
<rect x="54500" y="45950" width="340" height="100" rx="0" />
<rect x="54500" y="44950" width="340" height="100" rx="0" />
<rect x="54500" y="43950" width="340" height="100" rx="0" />
<rect x="54500" y="42950" width="340" height="100" rx="0" />
<rect x="54500" y="41950" width="340" height="100" rx="0" />
<rect x="54500" y="40950" width="340" height="100" rx="0" />
<rect x="54500" y="39950" width="340" height="100" rx="0" />
<rect x="54500" y="38950" width="340" height="100" rx="0" />
<rect x="54500" y="37950" width="340" height="100" rx="0" />
<rect x="54500" y="36950" width="340" height="100" rx="0" />
<rect x="54500" y="35950" width="340" height="100" rx="0" />
<rect x="54500" y="34950" width="340" height="100" rx="0" />
<rect x="54500" y="33950" width="340" height="100" rx="0" />
</g>
<g style="fill:#840000; fill-opacity:0.0; 
stroke:#840000; stroke-width:60; stroke-opacity:1; 
stroke-linecap:round; stroke-linejoin:round;">
<path style="fill:#840000; fill-opacity:0.0; 
stroke:#840000; stroke-width:60; stroke-opacity:1; 
stroke-linecap:round; stroke-linejoin:round;fill:none"
d="M 55000,46000
54840,46000
" /> 
<path style="fill:#840000; fill-opacity:0.0; 
stroke:#840000; stroke-width:60; stroke-opacity:1; 
stroke-linecap:round; stroke-linejoin:round;fill:none"
d="M 55000,45000
54840,45000
" /> 
<path style="fill:#840000; fill-opacity:0.0; 
stroke:#840000; stroke-width:60; stroke-opacity:1; 
stroke-linecap:round; stroke-linejoin:round;fill:none"
d="M 55000,44000
54840,44000
" /> 
<path style="fill:#840000; fill-opacity:0.0; 
stroke:#840000; stroke-width:60; stroke-opacity:1; 
stroke-linecap:round; stroke-linejoin:round;fill:none"
d="M 55000,43000
54840,43000
" /> 
<path style="fill:#840000; fill-opacity:0.0; 
stroke:#840000; stroke-width:60; stroke-opacity:1; 
stroke-linecap:round; stroke-linejoin:round;fill:none"
d="M 55000,42000
54840,42000
" /> 
<path style="fill:#840000; fill-opacity:0.0; 
stroke:#840000; stroke-width:60; stroke-opacity:1; 
stroke-linecap:round; stroke-linejoin:round;fill:none"
d="M 55000,41000
54840,41000
" /> 
<path style="fill:#840000; fill-opacity:0.0; 
stroke:#840000; stroke-width:60; stroke-opacity:1; 
stroke-linecap:round; stroke-linejoin:round;fill:none"
d="M 55000,40000
54840,40000
" /> 
<path style="fill:#840000; fill-opacity:0.0; 
stroke:#840000; stroke-width:60; stroke-opacity:1; 
stroke-linecap:round; stroke-linejoin:round;fill:none"
d="M 55000,39000
54840,39000
" /> 
<path style="fill:#840000; fill-opacity:0.0; 
stroke:#840000; stroke-width:60; stroke-opacity:1; 
stroke-linecap:round; stroke-linejoin:round;fill:none"
d="M 55000,38000
54840,38000
" /> 
<path style="fill:#840000; fill-opacity:0.0; 
stroke:#840000; stroke-width:60; stroke-opacity:1; 
stroke-linecap:round; stroke-linejoin:round;fill:none"
d="M 55000,37000
54840,37000
" /> 
<path style="fill:#840000; fill-opacity:0.0; 
stroke:#840000; stroke-width:60; stroke-opacity:1; 
stroke-linecap:round; stroke-linejoin:round;fill:none"
d="M 55000,36000
54840,36000
" /> 
<path style="fill:#840000; fill-opacity:0.0; 
stroke:#840000; stroke-width:60; stroke-opacity:1; 
stroke-linecap:round; stroke-linejoin:round;fill:none"
d="M 55000,35000
54840,35000
" /> 
<path style="fill:#840000; fill-opacity:0.0; 
stroke:#840000; stroke-width:60; stroke-opacity:1; 
stroke-linecap:round; stroke-linejoin:round;fill:none"
d="M 55000,34000
54840,34000
" /> 
<path d="M55000 34000
L56500 34000
" />
<text x="55750" y="33900"
textLength="540" font-size="660" lengthAdjust="spacingAndGlyphs"
text-anchor="middle" opacity="0">1</text>
<path d="M55890 33870
L55600 33870
" />
<path d="M55750 33870
L55750 33370
L55700 33440
L55650 33490
L55600 33510
" />
<path d="M55000 43000
L56500 43000
" />
<text x="55750" y="42900"
textLength="1010" font-size="660" lengthAdjust="spacingAndGlyphs"
text-anchor="middle" opacity="0">10</text>
<path d="M55650 42870
L55360 42870
" />
<path d="M55510 42870
L55510 42370
L55460 42440
L55410 42490
L55360 42510
" />
<path d="M55960 42370
L56010 42370
L56050 42400
L56080 42420
L56100 42470
L56130 42560
L56130 42680
L56100 42780
L56080 42820
L56050 42850
L56010 42870
L55960 42870
L55910 42850
L55890 42820
L55860 42780
L55840 42680
L55840 42560
L55860 42470
L55890 42420
L55910 42400
L55960 42370
" />
<path d="M55000 44000
L56500 44000
" />
<text x="55750" y="43900"
textLength="1010" font-size="660" lengthAdjust="spacingAndGlyphs"
text-anchor="middle" opacity="0">11</text>
<path d="M55650 43870
L55360 43870
" />
<path d="M55510 43870
L55510 43370
L55460 43440
L55410 43490
L55360 43510
" />
<path d="M56130 43870
L55840 43870
" />
<path d="M55980 43870
L55980 43370
L55940 43440
L55890 43490
L55840 43510
" />
<path d="M55000 45000
L56500 45000
" />
<text x="55750" y="44900"
textLength="1010" font-size="660" lengthAdjust="spacingAndGlyphs"
text-anchor="middle" opacity="0">12</text>
<path d="M55650 44870
L55360 44870
" />
<path d="M55510 44870
L55510 44370
L55460 44440
L55410 44490
L55360 44510
" />
<path d="M55840 44420
L55860 44400
L55910 44370
L56030 44370
L56080 44400
L56100 44420
L56130 44470
L56130 44510
L56100 44590
L55820 44870
L56130 44870
" />
<path d="M55000 46000
L56500 46000
" />
<text x="55750" y="45900"
textLength="1010" font-size="660" lengthAdjust="spacingAndGlyphs"
text-anchor="middle" opacity="0">13</text>
<path d="M55650 45870
L55360 45870
" />
<path d="M55510 45870
L55510 45370
L55460 45440
L55410 45490
L55360 45510
" />
<path d="M55820 45370
L56130 45370
L55960 45560
L56030 45560
L56080 45590
L56100 45610
L56130 45660
L56130 45780
L56100 45820
L56080 45850
L56030 45870
L55890 45870
L55840 45850
L55820 45820
" />
<path d="M55000 35000
L56500 35000
" />
<text x="55750" y="34900"
textLength="540" font-size="660" lengthAdjust="spacingAndGlyphs"
text-anchor="middle" opacity="0">2</text>
<path d="M55600 34420
L55630 34400
L55670 34370
L55790 34370
L55840 34400
L55860 34420
L55890 34470
L55890 34510
L55860 34590
L55580 34870
L55890 34870
" />
<path d="M55000 36000
L56500 36000
" />
<text x="55750" y="35900"
textLength="540" font-size="660" lengthAdjust="spacingAndGlyphs"
text-anchor="middle" opacity="0">3</text>
<path d="M55580 35370
L55890 35370
L55720 35560
L55790 35560
L55840 35590
L55860 35610
L55890 35660
L55890 35780
L55860 35820
L55840 35850
L55790 35870
L55650 35870
L55600 35850
L55580 35820
" />
<path d="M55000 37000
L56500 37000
" />
<text x="55750" y="36900"
textLength="540" font-size="660" lengthAdjust="spacingAndGlyphs"
text-anchor="middle" opacity="0">4</text>
<path d="M55840 36540
L55840 36870
" />
<path d="M55720 36350
L55600 36700
L55910 36700
" />
<path d="M55000 38000
L56500 38000
" />
<text x="55750" y="37900"
textLength="540" font-size="660" lengthAdjust="spacingAndGlyphs"
text-anchor="middle" opacity="0">5</text>
<path d="M55860 37370
L55630 37370
L55600 37610
L55630 37590
L55670 37560
L55790 37560
L55840 37590
L55860 37610
L55890 37660
L55890 37780
L55860 37820
L55840 37850
L55790 37870
L55670 37870
L55630 37850
L55600 37820
" />
<path d="M55000 39000
L56500 39000
" />
<text x="55750" y="38900"
textLength="540" font-size="660" lengthAdjust="spacingAndGlyphs"
text-anchor="middle" opacity="0">6</text>
<path d="M55840 38370
L55750 38370
L55700 38400
L55670 38420
L55630 38490
L55600 38590
L55600 38780
L55630 38820
L55650 38850
L55700 38870
L55790 38870
L55840 38850
L55860 38820
L55890 38780
L55890 38660
L55860 38610
L55840 38590
L55790 38560
L55700 38560
L55650 38590
L55630 38610
L55600 38660
" />
<path d="M55000 40000
L56500 40000
" />
<text x="55750" y="39900"
textLength="540" font-size="660" lengthAdjust="spacingAndGlyphs"
text-anchor="middle" opacity="0">7</text>
<path d="M55580 39370
L55910 39370
L55700 39870
" />
<path d="M55000 41000
L56500 41000
" />
<text x="55750" y="40900"
textLength="540" font-size="660" lengthAdjust="spacingAndGlyphs"
text-anchor="middle" opacity="0">8</text>
<path d="M55700 40590
L55650 40560
L55630 40540
L55600 40490
L55600 40470
L55630 40420
L55650 40400
L55700 40370
L55790 40370
L55840 40400
L55860 40420
L55890 40470
L55890 40490
L55860 40540
L55840 40560
L55790 40590
L55700 40590
L55650 40610
L55630 40630
L55600 40680
L55600 40780
L55630 40820
L55650 40850
L55700 40870
L55790 40870
L55840 40850
L55860 40820
L55890 40780
L55890 40680
L55860 40630
L55840 40610
L55790 40590
" />
<path d="M55000 42000
L56500 42000
" />
<text x="55750" y="41900"
textLength="540" font-size="660" lengthAdjust="spacingAndGlyphs"
text-anchor="middle" opacity="0">9</text>
<path d="M55650 41870
L55750 41870
L55790 41850
L55820 41820
L55860 41750
L55890 41660
L55890 41470
L55860 41420
L55840 41400
L55790 41370
L55700 41370
L55650 41400
L55630 41420
L55600 41470
L55600 41590
L55630 41630
L55650 41660
L55700 41680
L55790 41680
L55840 41660
L55860 41630
L55890 41590
" />
</g>
<g style="fill:#008484; fill-opacity:0.0; 
stroke:#008484; stroke-width:60; stroke-opacity:1; 
stroke-linecap:round; stroke-linejoin:round;">
<text x="53500" y="40270"
textLength="920" font-size="660" lengthAdjust="spacingAndGlyphs"
text-anchor="middle" opacity="0">J1</text>
<path d="M53330 39740
L53330 40100
L53300 40170
L53260 40220
L53190 40240
L53140 40240
" />
<path d="M53830 40240
L53540 40240
" />
<path d="M53690 40240
L53690 39740
L53640 39810
L53590 39860
L53540 39880
" />
</g>
</g>
<g style="fill:#008484; fill-opacity:0.0; 
stroke:#008484; stroke-width:0; stroke-opacity:1; 
stroke-linecap:round; stroke-linejoin:round;">
<g >
</g>
<g style="fill:#840000; fill-opacity:0.0; 
stroke:#840000; stroke-width:0; stroke-opacity:1; 
stroke-linecap:round; stroke-linejoin:round;">
</g>
<g style="fill:#840000; fill-opacity:0.0; 
stroke:#840000; stroke-width:60; stroke-opacity:1; 
stroke-linecap:round; stroke-linejoin:round;">
<path style="fill:#840000; fill-opacity:0.0; 
stroke:#840000; stroke-width:60; stroke-opacity:1; 
stroke-linecap:round; stroke-linejoin:round;fill:none"
d="M 56500,45000
57000,45000
57000,44500
57500,45000
57000,45500
57000,45000
" /> 
</g>
<g style="fill:#008484; fill-opacity:0.0; 
stroke:#008484; stroke-width:60; stroke-opacity:1; 
stroke-linecap:round; stroke-linejoin:round;">
<text x="58290" y="45220"
textLength="1580" font-size="660" lengthAdjust="spacingAndGlyphs"
text-anchor="middle" opacity="0">GND</text>
<path d="M57900 44720
L57860 44690
L57790 44690
L57710 44720
L57670 44760
L57640 44810
L57620 44910
L57620 44980
L57640 45070
L57670 45120
L57710 45170
L57790 45190
L57830 45190
L57900 45170
L57930 45140
L57930 44980
L57830 44980
" />
<path d="M58140 45190
L58140 44690
L58430 45190
L58430 44690
" />
<path d="M58670 45190
L58670 44690
L58790 44690
L58860 44720
L58900 44760
L58930 44810
L58950 44910
L58950 44980
L58930 45070
L58900 45120
L58860 45170
L58790 45190
L58670 45190
" />
</g>
</g>
<g style="fill:#008484; fill-opacity:0.0; 
stroke:#008484; stroke-width:0; stroke-opacity:1; 
stroke-linecap:round; stroke-linejoin:round;">
<g >
</g>
<g style="fill:#840000; fill-opacity:0.0; 
stroke:#840000; stroke-width:0; stroke-opacity:1; 
stroke-linecap:round; stroke-linejoin:round;">
</g>
<g style="fill:#840000; fill-opacity:0.0; 
stroke:#840000; stroke-width:60; stroke-opacity:1; 
stroke-linecap:round; stroke-linejoin:round;">
<path style="fill:#840000; fill-opacity:0.0; 
stroke:#840000; stroke-width:60; stroke-opacity:1; 
stroke-linecap:round; stroke-linejoin:round;fill:none"
d="M 56500,46000
57000,46000
57000,45500
57500,46000
57000,46500
57000,46000
" /> 
</g>
<g style="fill:#008484; fill-opacity:0.0; 
stroke:#008484; stroke-width:60; stroke-opacity:1; 
stroke-linecap:round; stroke-linejoin:round;">
<text x="58290" y="46220"
textLength="1580" font-size="660" lengthAdjust="spacingAndGlyphs"
text-anchor="middle" opacity="0">GND</text>
<path d="M57900 45720
L57860 45690
L57790 45690
L57710 45720
L57670 45760
L57640 45810
L57620 45910
L57620 45980
L57640 46070
L57670 46120
L57710 46170
L57790 46190
L57830 46190
L57900 46170
L57930 46140
L57930 45980
L57830 45980
" />
<path d="M58140 46190
L58140 45690
L58430 46190
L58430 45690
" />
<path d="M58670 46190
L58670 45690
L58790 45690
L58860 45720
L58900 45760
L58930 45810
L58950 45910
L58950 45980
L58930 46070
L58900 46120
L58860 46170
L58790 46190
L58670 46190
" />
</g>
</g>
<g style="fill:#008484; fill-opacity:0.0; 
stroke:#008484; stroke-width:60; stroke-opacity:1; 
stroke-linecap:round; stroke-linejoin:round;">
</g>
<g style="fill:#008400; fill-opacity:0.0; 
stroke:#008400; stroke-width:60; stroke-opacity:1; 
stroke-linecap:round; stroke-linejoin:round;">
<path d="M56500 36000
L63500 36000
" />
<path d="M56500 35000
L60000 35000
" />
</g>
<g style="fill:#840000; fill-opacity:0.0; 
stroke:#840000; stroke-width:60; stroke-opacity:1; 
stroke-linecap:round; stroke-linejoin:round;">
<text x="56600" y="37250"
textLength="1540" font-size="660" lengthAdjust="spacingAndGlyphs"
text-anchor="start" opacity="0">SCK</text>
<path d="M56720 37200
L56790 37220
L56910 37220
L56960 37200
L56980 37170
L57010 37130
L57010 37080
L56980 37030
L56960 37010
L56910 36980
L56820 36960
L56770 36940
L56740 36910
L56720 36860
L56720 36820
L56740 36770
L56770 36750
L56820 36720
L56930 36720
L57010 36750
" />
<path d="M57510 37170
L57480 37200
L57410 37220
L57360 37220
L57290 37200
L57240 37150
L57220 37100
L57200 37010
L57200 36940
L57220 36840
L57240 36790
L57290 36750
L57360 36720
L57410 36720
L57480 36750
L57510 36770
" />
<path d="M57720 37220
L57720 36720
" />
<path d="M58010 37220
L57790 36940
" />
<path d="M58010 36720
L57720 37010
" />
</g>
<g style="fill:#840000; fill-opacity:0.0; 
stroke:#840000; stroke-width:100; stroke-opacity:1; 
stroke-linecap:round; stroke-linejoin:round;">
<path style="fill:#840000; fill-opacity:0.0; 
stroke:#840000; stroke-width:100; stroke-opacity:1; 
stroke-linecap:round; stroke-linejoin:round;fill:none"
d="M 56500,37000
56500,37440
58210,37440
58460,37000
58210,36560
56500,36560
Z" /> 
</g>
<g style="fill:#840000; fill-opacity:0.0; 
stroke:#840000; stroke-width:60; stroke-opacity:1; 
stroke-linecap:round; stroke-linejoin:round;">
<text x="56810" y="38250"
textLength="1270" font-size="660" lengthAdjust="spacingAndGlyphs"
text-anchor="start" opacity="0">SDI</text>
<path d="M56930 38200
L57000 38220
L57120 38220
L57170 38200
L57190 38170
L57220 38130
L57220 38080
L57190 38030
L57170 38010
L57120 37980
L57030 37960
L56980 37940
L56950 37910
L56930 37860
L56930 37820
L56950 37770
L56980 37750
L57030 37720
L57140 37720
L57220 37750
" />
<path d="M57430 38220
L57430 37720
L57550 37720
L57620 37750
L57670 37790
L57690 37840
L57720 37940
L57720 38010
L57690 38100
L57670 38150
L57620 38200
L57550 38220
L57430 38220
" />
<path d="M57930 38220
L57930 37720
" />
</g>
<g style="fill:#840000; fill-opacity:0.0; 
stroke:#840000; stroke-width:100; stroke-opacity:1; 
stroke-linecap:round; stroke-linejoin:round;">
<path style="fill:#840000; fill-opacity:0.0; 
stroke:#840000; stroke-width:100; stroke-opacity:1; 
stroke-linecap:round; stroke-linejoin:round;fill:none"
d="M 56500,38000
56750,38440
58190,38440
58190,38000
58190,37560
56750,37560
Z" /> 
</g>
<g style="fill:#840000; fill-opacity:0.0; 
stroke:#840000; stroke-width:60; stroke-opacity:1; 
stroke-linecap:round; stroke-linejoin:round;">
<text x="56600" y="39250"
textLength="1560" font-size="660" lengthAdjust="spacingAndGlyphs"
text-anchor="start" opacity="0">SDO</text>
<path d="M56720 39200
L56790 39220
L56910 39220
L56960 39200
L56980 39170
L57010 39130
L57010 39080
L56980 39030
L56960 39010
L56910 38980
L56820 38960
L56770 38940
L56740 38910
L56720 38860
L56720 38820
L56740 38770
L56770 38750
L56820 38720
L56930 38720
L57010 38750
" />
<path d="M57220 39220
L57220 38720
L57340 38720
L57410 38750
L57460 38790
L57480 38840
L57510 38940
L57510 39010
L57480 39100
L57460 39150
L57410 39200
L57340 39220
L57220 39220
" />
<path d="M57820 38720
L57910 38720
L57960 38750
L58010 38790
L58030 38890
L58030 39050
L58010 39150
L57960 39200
L57910 39220
L57820 39220
L57770 39200
L57720 39150
L57700 39050
L57700 38890
L57720 38790
L57770 38750
L57820 38720
" />
</g>
<g style="fill:#840000; fill-opacity:0.0; 
stroke:#840000; stroke-width:100; stroke-opacity:1; 
stroke-linecap:round; stroke-linejoin:round;">
<path style="fill:#840000; fill-opacity:0.0; 
stroke:#840000; stroke-width:100; stroke-opacity:1; 
stroke-linecap:round; stroke-linejoin:round;fill:none"
d="M 56500,39000
56500,39440
58230,39440
58480,39000
58230,38560
56500,38560
Z" /> 
</g>
<g style="fill:#840000; fill-opacity:0.0; 
stroke:#840000; stroke-width:60; stroke-opacity:1; 
stroke-linecap:round; stroke-linejoin:round;">
<text x="56600" y="40250"
textLength="1510" font-size="660" lengthAdjust="spacingAndGlyphs"
text-anchor="start" opacity="0">CS1</text>
<path d="M57030 40170
L57010 40200
L56930 40220
L56890 40220
L56820 40200
L56770 40150
L56740 40100
L56720 40010
L56720 39940
L56740 39840
L56770 39790
L56820 39750
L56890 39720
L56930 39720
L57010 39750
L57030 39770
" />
<path d="M57220 40200
L57290 40220
L57410 40220
L57460 40200
L57480 40170
L57510 40130
L57510 40080
L57480 40030
L57460 40010
L57410 39980
L57320 39960
L57270 39940
L57240 39910
L57220 39860
L57220 39820
L57240 39770
L57270 39750
L57320 39720
L57430 39720
L57510 39750
" />
<path d="M57980 40220
L57700 40220
" />
<path d="M57840 40220
L57840 39720
L57790 39790
L57740 39840
L57700 39860
" />
</g>
<g style="fill:#840000; fill-opacity:0.0; 
stroke:#840000; stroke-width:100; stroke-opacity:1; 
stroke-linecap:round; stroke-linejoin:round;">
<path style="fill:#840000; fill-opacity:0.0; 
stroke:#840000; stroke-width:100; stroke-opacity:1; 
stroke-linecap:round; stroke-linejoin:round;fill:none"
d="M 56500,40000
56500,40440
58180,40440
58430,40000
58180,39560
56500,39560
Z" /> 
</g>
<g style="fill:#840000; fill-opacity:0.0; 
stroke:#840000; stroke-width:60; stroke-opacity:1; 
stroke-linecap:round; stroke-linejoin:round;">
<text x="56600" y="41250"
textLength="1510" font-size="660" lengthAdjust="spacingAndGlyphs"
text-anchor="start" opacity="0">CS2</text>
<path d="M57030 41170
L57010 41200
L56930 41220
L56890 41220
L56820 41200
L56770 41150
L56740 41100
L56720 41010
L56720 40940
L56740 40840
L56770 40790
L56820 40750
L56890 40720
L56930 40720
L57010 40750
L57030 40770
" />
<path d="M57220 41200
L57290 41220
L57410 41220
L57460 41200
L57480 41170
L57510 41130
L57510 41080
L57480 41030
L57460 41010
L57410 40980
L57320 40960
L57270 40940
L57240 40910
L57220 40860
L57220 40820
L57240 40770
L57270 40750
L57320 40720
L57430 40720
L57510 40750
" />
<path d="M57700 40770
L57720 40750
L57770 40720
L57890 40720
L57930 40750
L57960 40770
L57980 40820
L57980 40860
L57960 40940
L57670 41220
L57980 41220
" />
</g>
<g style="fill:#840000; fill-opacity:0.0; 
stroke:#840000; stroke-width:100; stroke-opacity:1; 
stroke-linecap:round; stroke-linejoin:round;">
<path style="fill:#840000; fill-opacity:0.0; 
stroke:#840000; stroke-width:100; stroke-opacity:1; 
stroke-linecap:round; stroke-linejoin:round;fill:none"
d="M 56500,41000
56500,41440
58180,41440
58430,41000
58180,40560
56500,40560
Z" /> 
</g>
<g style="fill:#840000; fill-opacity:0.0; 
stroke:#840000; stroke-width:60; stroke-opacity:1; 
stroke-linecap:round; stroke-linejoin:round;">
<text x="56600" y="42250"
textLength="1060" font-size="660" lengthAdjust="spacingAndGlyphs"
text-anchor="start" opacity="0">DC</text>
<path d="M56740 42220
L56740 41720
L56860 41720
L56930 41750
L56980 41790
L57010 41840
L57030 41940
L57030 42010
L57010 42100
L56980 42150
L56930 42200
L56860 42220
L56740 42220
" />
<path d="M57530 42170
L57510 42200
L57430 42220
L57390 42220
L57320 42200
L57270 42150
L57240 42100
L57220 42010
L57220 41940
L57240 41840
L57270 41790
L57320 41750
L57390 41720
L57430 41720
L57510 41750
L57530 41770
" />
</g>
<g style="fill:#840000; fill-opacity:0.0; 
stroke:#840000; stroke-width:100; stroke-opacity:1; 
stroke-linecap:round; stroke-linejoin:round;">
<path style="fill:#840000; fill-opacity:0.0; 
stroke:#840000; stroke-width:100; stroke-opacity:1; 
stroke-linecap:round; stroke-linejoin:round;fill:none"
d="M 56500,42000
56500,42440
57730,42440
57980,42000
57730,41560
56500,41560
Z" /> 
</g>
<g style="fill:#840000; fill-opacity:0.0; 
stroke:#840000; stroke-width:60; stroke-opacity:1; 
stroke-linecap:round; stroke-linejoin:round;">
<text x="56810" y="43250"
textLength="2270" font-size="660" lengthAdjust="spacingAndGlyphs"
text-anchor="start" opacity="0">AUDIO</text>
<path d="M56930 43080
L57170 43080
" />
<path d="M56880 43220
L57050 42720
L57220 43220
" />
<path d="M57380 42720
L57380 43130
L57410 43170
L57430 43200
L57480 43220
L57570 43220
L57620 43200
L57640 43170
L57670 43130
L57670 42720
" />
<path d="M57910 43220
L57910 42720
L58030 42720
L58100 42750
L58140 42790
L58170 42840
L58190 42940
L58190 43010
L58170 43100
L58140 43150
L58100 43200
L58030 43220
L57910 43220
" />
<path d="M58410 43220
L58410 42720
" />
<path d="M58740 42720
L58840 42720
L58880 42750
L58930 42790
L58950 42890
L58950 43050
L58930 43150
L58880 43200
L58840 43220
L58740 43220
L58690 43200
L58640 43150
L58620 43050
L58620 42890
L58640 42790
L58690 42750
L58740 42720
" />
</g>
<g style="fill:#840000; fill-opacity:0.0; 
stroke:#840000; stroke-width:100; stroke-opacity:1; 
stroke-linecap:round; stroke-linejoin:round;">
<path style="fill:#840000; fill-opacity:0.0; 
stroke:#840000; stroke-width:100; stroke-opacity:1; 
stroke-linecap:round; stroke-linejoin:round;fill:none"
d="M 56500,43000
56750,43440
59190,43440
59190,43000
59190,42560
56750,42560
Z" /> 
</g>
<g style="fill:#840000; fill-opacity:0.0; 
stroke:#840000; stroke-width:60; stroke-opacity:1; 
stroke-linecap:round; stroke-linejoin:round;">
<text x="56810" y="44250"
textLength="1320" font-size="660" lengthAdjust="spacingAndGlyphs"
text-anchor="start" opacity="0">IRQ</text>
<path d="M56950 44220
L56950 43720
" />
<path d="M57480 44220
L57310 43980
" />
<path d="M57190 44220
L57190 43720
L57380 43720
L57430 43750
L57450 43770
L57480 43820
L57480 43890
L57450 43940
L57430 43960
L57380 43980
L57190 43980
" />
<path d="M58030 44270
L57980 44250
L57930 44200
L57860 44130
L57810 44100
L57760 44100
" />
<path d="M57790 44220
L57740 44200
L57690 44150
L57670 44050
L57670 43890
L57690 43790
L57740 43750
L57790 43720
L57880 43720
L57930 43750
L57980 43790
L58000 43890
L58000 44050
L57980 44150
L57930 44200
L57880 44220
L57790 44220
" />
</g>
<g style="fill:#840000; fill-opacity:0.0; 
stroke:#840000; stroke-width:100; stroke-opacity:1; 
stroke-linecap:round; stroke-linejoin:round;">
<path style="fill:#840000; fill-opacity:0.0; 
stroke:#840000; stroke-width:100; stroke-opacity:1; 
stroke-linecap:round; stroke-linejoin:round;fill:none"
d="M 56500,44000
56750,44440
58240,44440
58240,44000
58240,43560
56750,43560
Z" /> 
</g>
<g style="fill:#840000; fill-opacity:0.0; 
stroke:#840000; stroke-width:0; stroke-opacity:1; 
stroke-linecap:round; stroke-linejoin:round;">
</g>
<g style="fill:#008400; fill-opacity:0.0; 
stroke:#008400; stroke-width:0; stroke-opacity:1; 
stroke-linecap:round; stroke-linejoin:round;">
</g>
<g style="fill:#008400; fill-opacity:1.0; 
stroke:#008400; stroke-width:100; stroke-opacity:1; 
stroke-linecap:round; stroke-linejoin:round;">
<circle cx="60000" cy="35000" r="200" /> 
</g>
<g style="fill:#008400; fill-opacity:1.0; 
stroke:#008400; stroke-width:0; stroke-opacity:1; 
stroke-linecap:round; stroke-linejoin:round;">
</g>
<g style="fill:#008400; fill-opacity:1.0; 
stroke:#008400; stroke-width:100; stroke-opacity:1; 
stroke-linecap:round; stroke-linejoin:round;">
<circle cx="63500" cy="36000" r="200" /> 
</g>
<g style="fill:#008400; fill-opacity:1.0; 
stroke:#008400; stroke-width:0; stroke-opacity:1; 
stroke-linecap:round; stroke-linejoin:round;">
</g>
<g style="fill:#008400; fill-opacity:1.0; 
stroke:#008400; stroke-width:100; stroke-opacity:1; 
stroke-linecap:round; stroke-linejoin:round;">
<circle cx="56500" cy="34000" r="200" /> 
</g> 
</svg>
