<?xml version="1.0" standalone="no"?>
 <!DOCTYPE svg PUBLIC "-//W3C//DTD SVG 1.1//EN" 
 "http://www.w3.org/Graphics/SVG/1.1/DTD/svg11.dtd"> 
<svg
  xmlns:svg="http://www.w3.org/2000/svg"
  xmlns="http://www.w3.org/2000/svg"
  xmlns:xlink="http://www.w3.org/1999/xlink"
  version="1.1"
  width="29.700220cm" height="21.000720cm" viewBox="0 0 116930 82680">
<title>SVG Picture created as miso-buffer-MISO Buffer.svg date 2020/07/19 17:07:40 </title>
  <desc>Picture generated by Eeschema-SVG </desc>
<g style="fill:#000000; fill-opacity:1;stroke:#000000; stroke-opacity:1;
stroke-linecap:round; stroke-linejoin:round;"
 transform="translate(0 0) scale(1 1)">
</g>
<g style="fill:#000000; fill-opacity:0.0; 
stroke:#000000; stroke-width:-10; stroke-opacity:1; 
stroke-linecap:round; stroke-linejoin:round;">
</g>
<g style="fill:#840000; fill-opacity:0.0; 
stroke:#840000; stroke-width:-10; stroke-opacity:1; 
stroke-linecap:round; stroke-linejoin:round;">
</g>
<g style="fill:#840000; fill-opacity:0.0; 
stroke:#840000; stroke-width:100; stroke-opacity:1; 
stroke-linecap:round; stroke-linejoin:round;">
</g>
<g style="fill:#840000; fill-opacity:0.0; 
stroke:#840000; stroke-width:60; stroke-opacity:1; 
stroke-linecap:round; stroke-linejoin:round;">
<rect x="69690" y="65360" width="42520" height="12600" rx="0" />
</g>
<g style="fill:#840000; fill-opacity:0.0; 
stroke:#840000; stroke-width:100; stroke-opacity:1; 
stroke-linecap:round; stroke-linejoin:round;">
</g>
<g style="fill:#840000; fill-opacity:0.0; 
stroke:#840000; stroke-width:60; stroke-opacity:1; 
stroke-linecap:round; stroke-linejoin:round;">
<rect x="3940" y="3940" width="109050" height="74800" rx="0" />
</g>
<g style="fill:#840000; fill-opacity:0.0; 
stroke:#840000; stroke-width:100; stroke-opacity:1; 
stroke-linecap:round; stroke-linejoin:round;">
</g>
<g style="fill:#840000; fill-opacity:0.0; 
stroke:#840000; stroke-width:60; stroke-opacity:1; 
stroke-linecap:round; stroke-linejoin:round;">
<rect x="4720" y="4720" width="107490" height="73240" rx="0" />
</g>
<g style="fill:#840000; fill-opacity:0.0; 
stroke:#840000; stroke-width:100; stroke-opacity:1; 
stroke-linecap:round; stroke-linejoin:round;">
</g>
<g style="fill:#840000; fill-opacity:0.0; 
stroke:#840000; stroke-width:60; stroke-opacity:1; 
stroke-linecap:round; stroke-linejoin:round;">
<path d="M23620 4720
L23620 3940
" />
</g>
<g style="fill:#840000; fill-opacity:0.0; 
stroke:#840000; stroke-width:100; stroke-opacity:1; 
stroke-linecap:round; stroke-linejoin:round;">
</g>
<g style="fill:#840000; fill-opacity:0.0; 
stroke:#840000; stroke-width:60; stroke-opacity:1; 
stroke-linecap:round; stroke-linejoin:round;">
<path d="M43310 4720
L43310 3940
" />
</g>
<g style="fill:#840000; fill-opacity:0.0; 
stroke:#840000; stroke-width:100; stroke-opacity:1; 
stroke-linecap:round; stroke-linejoin:round;">
</g>
<g style="fill:#840000; fill-opacity:0.0; 
stroke:#840000; stroke-width:60; stroke-opacity:1; 
stroke-linecap:round; stroke-linejoin:round;">
<path d="M62990 4720
L62990 3940
" />
</g>
<g style="fill:#840000; fill-opacity:0.0; 
stroke:#840000; stroke-width:100; stroke-opacity:1; 
stroke-linecap:round; stroke-linejoin:round;">
</g>
<g style="fill:#840000; fill-opacity:0.0; 
stroke:#840000; stroke-width:60; stroke-opacity:1; 
stroke-linecap:round; stroke-linejoin:round;">
<path d="M82680 4720
L82680 3940
" />
</g>
<g style="fill:#840000; fill-opacity:0.0; 
stroke:#840000; stroke-width:100; stroke-opacity:1; 
stroke-linecap:round; stroke-linejoin:round;">
</g>
<g style="fill:#840000; fill-opacity:0.0; 
stroke:#840000; stroke-width:60; stroke-opacity:1; 
stroke-linecap:round; stroke-linejoin:round;">
<path d="M102360 4720
L102360 3940
" />
</g>
<g style="fill:#840000; fill-opacity:0.0; 
stroke:#840000; stroke-width:100; stroke-opacity:1; 
stroke-linecap:round; stroke-linejoin:round;">
</g>
<g style="fill:#840000; fill-opacity:0.0; 
stroke:#840000; stroke-width:60; stroke-opacity:1; 
stroke-linecap:round; stroke-linejoin:round;">
<text x="13780" y="4580"
textLength="550" font-size="680" lengthAdjust="spacingAndGlyphs"
text-anchor="start" opacity="0">1</text>
<path d="M14190 4560
L13900 4560
" />
<path d="M14050 4560
L14050 4050
L14000 4120
L13950 4170
L13900 4190
" />
</g>
<g style="fill:#840000; fill-opacity:0.0; 
stroke:#840000; stroke-width:100; stroke-opacity:1; 
stroke-linecap:round; stroke-linejoin:round;">
</g>
<g style="fill:#840000; fill-opacity:0.0; 
stroke:#840000; stroke-width:60; stroke-opacity:1; 
stroke-linecap:round; stroke-linejoin:round;">
<text x="33460" y="4580"
textLength="550" font-size="680" lengthAdjust="spacingAndGlyphs"
text-anchor="start" opacity="0">2</text>
<path d="M33580 4090
L33610 4070
L33660 4050
L33780 4050
L33830 4070
L33850 4090
L33870 4140
L33870 4190
L33850 4260
L33560 4560
L33870 4560
" />
</g>
<g style="fill:#840000; fill-opacity:0.0; 
stroke:#840000; stroke-width:100; stroke-opacity:1; 
stroke-linecap:round; stroke-linejoin:round;">
</g>
<g style="fill:#840000; fill-opacity:0.0; 
stroke:#840000; stroke-width:60; stroke-opacity:1; 
stroke-linecap:round; stroke-linejoin:round;">
<text x="53150" y="4580"
textLength="550" font-size="680" lengthAdjust="spacingAndGlyphs"
text-anchor="start" opacity="0">3</text>
<path d="M53250 4050
L53560 4050
L53390 4240
L53470 4240
L53520 4260
L53540 4290
L53560 4340
L53560 4460
L53540 4510
L53520 4530
L53470 4560
L53320 4560
L53270 4530
L53250 4510
" />
</g>
<g style="fill:#840000; fill-opacity:0.0; 
stroke:#840000; stroke-width:100; stroke-opacity:1; 
stroke-linecap:round; stroke-linejoin:round;">
</g>
<g style="fill:#840000; fill-opacity:0.0; 
stroke:#840000; stroke-width:60; stroke-opacity:1; 
stroke-linecap:round; stroke-linejoin:round;">
<text x="72830" y="4580"
textLength="550" font-size="680" lengthAdjust="spacingAndGlyphs"
text-anchor="start" opacity="0">4</text>
<path d="M73200 4220
L73200 4560
" />
<path d="M73070 4020
L72950 4390
L73270 4390
" />
</g>
<g style="fill:#840000; fill-opacity:0.0; 
stroke:#840000; stroke-width:100; stroke-opacity:1; 
stroke-linecap:round; stroke-linejoin:round;">
</g>
<g style="fill:#840000; fill-opacity:0.0; 
stroke:#840000; stroke-width:60; stroke-opacity:1; 
stroke-linecap:round; stroke-linejoin:round;">
<text x="92520" y="4580"
textLength="550" font-size="680" lengthAdjust="spacingAndGlyphs"
text-anchor="start" opacity="0">5</text>
<path d="M92910 4050
L92670 4050
L92640 4290
L92670 4260
L92720 4240
L92840 4240
L92890 4260
L92910 4290
L92930 4340
L92930 4460
L92910 4510
L92890 4530
L92840 4560
L92720 4560
L92670 4530
L92640 4510
" />
</g>
<g style="fill:#840000; fill-opacity:0.0; 
stroke:#840000; stroke-width:100; stroke-opacity:1; 
stroke-linecap:round; stroke-linejoin:round;">
</g>
<g style="fill:#840000; fill-opacity:0.0; 
stroke:#840000; stroke-width:60; stroke-opacity:1; 
stroke-linecap:round; stroke-linejoin:round;">
<text x="112200" y="4580"
textLength="550" font-size="680" lengthAdjust="spacingAndGlyphs"
text-anchor="start" opacity="0">6</text>
<path d="M112570 4050
L112470 4050
L112420 4070
L112400 4090
L112350 4170
L112320 4260
L112320 4460
L112350 4510
L112370 4530
L112420 4560
L112520 4560
L112570 4530
L112590 4510
L112610 4460
L112610 4340
L112590 4290
L112570 4260
L112520 4240
L112420 4240
L112370 4260
L112350 4290
L112320 4340
" />
</g>
<g style="fill:#840000; fill-opacity:0.0; 
stroke:#840000; stroke-width:100; stroke-opacity:1; 
stroke-linecap:round; stroke-linejoin:round;">
</g>
<g style="fill:#840000; fill-opacity:0.0; 
stroke:#840000; stroke-width:60; stroke-opacity:1; 
stroke-linecap:round; stroke-linejoin:round;">
<path d="M23620 77960
L23620 78740
" />
</g>
<g style="fill:#840000; fill-opacity:0.0; 
stroke:#840000; stroke-width:100; stroke-opacity:1; 
stroke-linecap:round; stroke-linejoin:round;">
</g>
<g style="fill:#840000; fill-opacity:0.0; 
stroke:#840000; stroke-width:60; stroke-opacity:1; 
stroke-linecap:round; stroke-linejoin:round;">
<path d="M43310 77960
L43310 78740
" />
</g>
<g style="fill:#840000; fill-opacity:0.0; 
stroke:#840000; stroke-width:100; stroke-opacity:1; 
stroke-linecap:round; stroke-linejoin:round;">
</g>
<g style="fill:#840000; fill-opacity:0.0; 
stroke:#840000; stroke-width:60; stroke-opacity:1; 
stroke-linecap:round; stroke-linejoin:round;">
<path d="M62990 77960
L62990 78740
" />
</g>
<g style="fill:#840000; fill-opacity:0.0; 
stroke:#840000; stroke-width:100; stroke-opacity:1; 
stroke-linecap:round; stroke-linejoin:round;">
</g>
<g style="fill:#840000; fill-opacity:0.0; 
stroke:#840000; stroke-width:60; stroke-opacity:1; 
stroke-linecap:round; stroke-linejoin:round;">
<path d="M82680 77960
L82680 78740
" />
</g>
<g style="fill:#840000; fill-opacity:0.0; 
stroke:#840000; stroke-width:100; stroke-opacity:1; 
stroke-linecap:round; stroke-linejoin:round;">
</g>
<g style="fill:#840000; fill-opacity:0.0; 
stroke:#840000; stroke-width:60; stroke-opacity:1; 
stroke-linecap:round; stroke-linejoin:round;">
<path d="M102360 77960
L102360 78740
" />
</g>
<g style="fill:#840000; fill-opacity:0.0; 
stroke:#840000; stroke-width:100; stroke-opacity:1; 
stroke-linecap:round; stroke-linejoin:round;">
</g>
<g style="fill:#840000; fill-opacity:0.0; 
stroke:#840000; stroke-width:60; stroke-opacity:1; 
stroke-linecap:round; stroke-linejoin:round;">
<text x="13780" y="78600"
textLength="550" font-size="680" lengthAdjust="spacingAndGlyphs"
text-anchor="start" opacity="0">1</text>
<path d="M14190 78580
L13900 78580
" />
<path d="M14050 78580
L14050 78070
L14000 78140
L13950 78190
L13900 78210
" />
</g>
<g style="fill:#840000; fill-opacity:0.0; 
stroke:#840000; stroke-width:100; stroke-opacity:1; 
stroke-linecap:round; stroke-linejoin:round;">
</g>
<g style="fill:#840000; fill-opacity:0.0; 
stroke:#840000; stroke-width:60; stroke-opacity:1; 
stroke-linecap:round; stroke-linejoin:round;">
<text x="33460" y="78600"
textLength="550" font-size="680" lengthAdjust="spacingAndGlyphs"
text-anchor="start" opacity="0">2</text>
<path d="M33580 78110
L33610 78090
L33660 78070
L33780 78070
L33830 78090
L33850 78110
L33870 78160
L33870 78210
L33850 78280
L33560 78580
L33870 78580
" />
</g>
<g style="fill:#840000; fill-opacity:0.0; 
stroke:#840000; stroke-width:100; stroke-opacity:1; 
stroke-linecap:round; stroke-linejoin:round;">
</g>
<g style="fill:#840000; fill-opacity:0.0; 
stroke:#840000; stroke-width:60; stroke-opacity:1; 
stroke-linecap:round; stroke-linejoin:round;">
<text x="53150" y="78600"
textLength="550" font-size="680" lengthAdjust="spacingAndGlyphs"
text-anchor="start" opacity="0">3</text>
<path d="M53250 78070
L53560 78070
L53390 78260
L53470 78260
L53520 78280
L53540 78310
L53560 78360
L53560 78480
L53540 78530
L53520 78550
L53470 78580
L53320 78580
L53270 78550
L53250 78530
" />
</g>
<g style="fill:#840000; fill-opacity:0.0; 
stroke:#840000; stroke-width:100; stroke-opacity:1; 
stroke-linecap:round; stroke-linejoin:round;">
</g>
<g style="fill:#840000; fill-opacity:0.0; 
stroke:#840000; stroke-width:60; stroke-opacity:1; 
stroke-linecap:round; stroke-linejoin:round;">
<text x="72830" y="78600"
textLength="550" font-size="680" lengthAdjust="spacingAndGlyphs"
text-anchor="start" opacity="0">4</text>
<path d="M73200 78240
L73200 78580
" />
<path d="M73070 78040
L72950 78410
L73270 78410
" />
</g>
<g style="fill:#840000; fill-opacity:0.0; 
stroke:#840000; stroke-width:100; stroke-opacity:1; 
stroke-linecap:round; stroke-linejoin:round;">
</g>
<g style="fill:#840000; fill-opacity:0.0; 
stroke:#840000; stroke-width:60; stroke-opacity:1; 
stroke-linecap:round; stroke-linejoin:round;">
<text x="92520" y="78600"
textLength="550" font-size="680" lengthAdjust="spacingAndGlyphs"
text-anchor="start" opacity="0">5</text>
<path d="M92910 78070
L92670 78070
L92640 78310
L92670 78280
L92720 78260
L92840 78260
L92890 78280
L92910 78310
L92930 78360
L92930 78480
L92910 78530
L92890 78550
L92840 78580
L92720 78580
L92670 78550
L92640 78530
" />
</g>
<g style="fill:#840000; fill-opacity:0.0; 
stroke:#840000; stroke-width:100; stroke-opacity:1; 
stroke-linecap:round; stroke-linejoin:round;">
</g>
<g style="fill:#840000; fill-opacity:0.0; 
stroke:#840000; stroke-width:60; stroke-opacity:1; 
stroke-linecap:round; stroke-linejoin:round;">
<text x="112200" y="78600"
textLength="550" font-size="680" lengthAdjust="spacingAndGlyphs"
text-anchor="start" opacity="0">6</text>
<path d="M112570 78070
L112470 78070
L112420 78090
L112400 78110
L112350 78190
L112320 78280
L112320 78480
L112350 78530
L112370 78550
L112420 78580
L112520 78580
L112570 78550
L112590 78530
L112610 78480
L112610 78360
L112590 78310
L112570 78280
L112520 78260
L112420 78260
L112370 78280
L112350 78310
L112320 78360
" />
</g>
<g style="fill:#840000; fill-opacity:0.0; 
stroke:#840000; stroke-width:100; stroke-opacity:1; 
stroke-linecap:round; stroke-linejoin:round;">
</g>
<g style="fill:#840000; fill-opacity:0.0; 
stroke:#840000; stroke-width:60; stroke-opacity:1; 
stroke-linecap:round; stroke-linejoin:round;">
<path d="M3940 23620
L4720 23620
" />
</g>
<g style="fill:#840000; fill-opacity:0.0; 
stroke:#840000; stroke-width:100; stroke-opacity:1; 
stroke-linecap:round; stroke-linejoin:round;">
</g>
<g style="fill:#840000; fill-opacity:0.0; 
stroke:#840000; stroke-width:60; stroke-opacity:1; 
stroke-linecap:round; stroke-linejoin:round;">
<path d="M3940 43310
L4720 43310
" />
</g>
<g style="fill:#840000; fill-opacity:0.0; 
stroke:#840000; stroke-width:100; stroke-opacity:1; 
stroke-linecap:round; stroke-linejoin:round;">
</g>
<g style="fill:#840000; fill-opacity:0.0; 
stroke:#840000; stroke-width:60; stroke-opacity:1; 
stroke-linecap:round; stroke-linejoin:round;">
<path d="M3940 62990
L4720 62990
" />
</g>
<g style="fill:#840000; fill-opacity:0.0; 
stroke:#840000; stroke-width:100; stroke-opacity:1; 
stroke-linecap:round; stroke-linejoin:round;">
</g>
<g style="fill:#840000; fill-opacity:0.0; 
stroke:#840000; stroke-width:60; stroke-opacity:1; 
stroke-linecap:round; stroke-linejoin:round;">
<text x="4330" y="14030"
textLength="500" font-size="680" lengthAdjust="spacingAndGlyphs"
text-anchor="middle" opacity="0">A</text>
<path d="M4200 13860
L4450 13860
" />
<path d="M4160 14010
L4330 13500
L4500 14010
" />
</g>
<g style="fill:#840000; fill-opacity:0.0; 
stroke:#840000; stroke-width:100; stroke-opacity:1; 
stroke-linecap:round; stroke-linejoin:round;">
</g>
<g style="fill:#840000; fill-opacity:0.0; 
stroke:#840000; stroke-width:60; stroke-opacity:1; 
stroke-linecap:round; stroke-linejoin:round;">
<text x="4330" y="33710"
textLength="570" font-size="680" lengthAdjust="spacingAndGlyphs"
text-anchor="middle" opacity="0">B</text>
<path d="M4360 33420
L4430 33440
L4460 33470
L4480 33520
L4480 33590
L4460 33640
L4430 33660
L4390 33690
L4190 33690
L4190 33180
L4360 33180
L4410 33200
L4430 33220
L4460 33270
L4460 33320
L4430 33370
L4410 33390
L4360 33420
L4190 33420
" />
</g>
<g style="fill:#840000; fill-opacity:0.0; 
stroke:#840000; stroke-width:100; stroke-opacity:1; 
stroke-linecap:round; stroke-linejoin:round;">
</g>
<g style="fill:#840000; fill-opacity:0.0; 
stroke:#840000; stroke-width:60; stroke-opacity:1; 
stroke-linecap:round; stroke-linejoin:round;">
<text x="4330" y="53400"
textLength="570" font-size="680" lengthAdjust="spacingAndGlyphs"
text-anchor="middle" opacity="0">C</text>
<path d="M4480 53330
L4460 53350
L4390 53380
L4340 53380
L4260 53350
L4220 53300
L4190 53250
L4170 53160
L4170 53080
L4190 52990
L4220 52940
L4260 52890
L4340 52870
L4390 52870
L4460 52890
L4480 52910
" />
</g>
<g style="fill:#840000; fill-opacity:0.0; 
stroke:#840000; stroke-width:100; stroke-opacity:1; 
stroke-linecap:round; stroke-linejoin:round;">
</g>
<g style="fill:#840000; fill-opacity:0.0; 
stroke:#840000; stroke-width:60; stroke-opacity:1; 
stroke-linecap:round; stroke-linejoin:round;">
<text x="4330" y="73080"
textLength="570" font-size="680" lengthAdjust="spacingAndGlyphs"
text-anchor="middle" opacity="0">D</text>
<path d="M4190 73060
L4190 72550
L4310 72550
L4390 72570
L4430 72620
L4460 72670
L4480 72760
L4480 72840
L4460 72930
L4430 72980
L4390 73030
L4310 73060
L4190 73060
" />
</g>
<g style="fill:#840000; fill-opacity:0.0; 
stroke:#840000; stroke-width:100; stroke-opacity:1; 
stroke-linecap:round; stroke-linejoin:round;">
</g>
<g style="fill:#840000; fill-opacity:0.0; 
stroke:#840000; stroke-width:60; stroke-opacity:1; 
stroke-linecap:round; stroke-linejoin:round;">
<path d="M112990 23620
L112210 23620
" />
</g>
<g style="fill:#840000; fill-opacity:0.0; 
stroke:#840000; stroke-width:100; stroke-opacity:1; 
stroke-linecap:round; stroke-linejoin:round;">
</g>
<g style="fill:#840000; fill-opacity:0.0; 
stroke:#840000; stroke-width:60; stroke-opacity:1; 
stroke-linecap:round; stroke-linejoin:round;">
<path d="M112990 43310
L112210 43310
" />
</g>
<g style="fill:#840000; fill-opacity:0.0; 
stroke:#840000; stroke-width:100; stroke-opacity:1; 
stroke-linecap:round; stroke-linejoin:round;">
</g>
<g style="fill:#840000; fill-opacity:0.0; 
stroke:#840000; stroke-width:60; stroke-opacity:1; 
stroke-linecap:round; stroke-linejoin:round;">
<path d="M112990 62990
L112210 62990
" />
</g>
<g style="fill:#840000; fill-opacity:0.0; 
stroke:#840000; stroke-width:100; stroke-opacity:1; 
stroke-linecap:round; stroke-linejoin:round;">
</g>
<g style="fill:#840000; fill-opacity:0.0; 
stroke:#840000; stroke-width:60; stroke-opacity:1; 
stroke-linecap:round; stroke-linejoin:round;">
<text x="112600" y="14030"
textLength="500" font-size="680" lengthAdjust="spacingAndGlyphs"
text-anchor="middle" opacity="0">A</text>
<path d="M112470 13860
L112720 13860
" />
<path d="M112430 14010
L112600 13500
L112770 14010
" />
</g>
<g style="fill:#840000; fill-opacity:0.0; 
stroke:#840000; stroke-width:100; stroke-opacity:1; 
stroke-linecap:round; stroke-linejoin:round;">
</g>
<g style="fill:#840000; fill-opacity:0.0; 
stroke:#840000; stroke-width:60; stroke-opacity:1; 
stroke-linecap:round; stroke-linejoin:round;">
<text x="112600" y="33710"
textLength="570" font-size="680" lengthAdjust="spacingAndGlyphs"
text-anchor="middle" opacity="0">B</text>
<path d="M112630 33420
L112700 33440
L112730 33470
L112750 33520
L112750 33590
L112730 33640
L112700 33660
L112660 33690
L112460 33690
L112460 33180
L112630 33180
L112680 33200
L112700 33220
L112730 33270
L112730 33320
L112700 33370
L112680 33390
L112630 33420
L112460 33420
" />
</g>
<g style="fill:#840000; fill-opacity:0.0; 
stroke:#840000; stroke-width:100; stroke-opacity:1; 
stroke-linecap:round; stroke-linejoin:round;">
</g>
<g style="fill:#840000; fill-opacity:0.0; 
stroke:#840000; stroke-width:60; stroke-opacity:1; 
stroke-linecap:round; stroke-linejoin:round;">
<text x="112600" y="53400"
textLength="570" font-size="680" lengthAdjust="spacingAndGlyphs"
text-anchor="middle" opacity="0">C</text>
<path d="M112750 53330
L112730 53350
L112660 53380
L112610 53380
L112530 53350
L112490 53300
L112460 53250
L112440 53160
L112440 53080
L112460 52990
L112490 52940
L112530 52890
L112610 52870
L112660 52870
L112730 52890
L112750 52910
" />
</g>
<g style="fill:#840000; fill-opacity:0.0; 
stroke:#840000; stroke-width:100; stroke-opacity:1; 
stroke-linecap:round; stroke-linejoin:round;">
</g>
<g style="fill:#840000; fill-opacity:0.0; 
stroke:#840000; stroke-width:60; stroke-opacity:1; 
stroke-linecap:round; stroke-linejoin:round;">
<text x="112600" y="73080"
textLength="570" font-size="680" lengthAdjust="spacingAndGlyphs"
text-anchor="middle" opacity="0">D</text>
<path d="M112460 73060
L112460 72550
L112580 72550
L112660 72570
L112700 72620
L112730 72670
L112750 72760
L112750 72840
L112730 72930
L112700 72980
L112660 73030
L112580 73060
L112460 73060
" />
</g>
<g style="fill:#840000; fill-opacity:0.0; 
stroke:#840000; stroke-width:100; stroke-opacity:1; 
stroke-linecap:round; stroke-linejoin:round;">
</g>
<g style="fill:#840000; fill-opacity:0.0; 
stroke:#840000; stroke-width:60; stroke-opacity:1; 
stroke-linecap:round; stroke-linejoin:round;">
<text x="78740" y="76320"
textLength="8710" font-size="780" lengthAdjust="spacingAndGlyphs"
text-anchor="start" opacity="0">Date: 2020-07-19</text>
<path d="M78910 76290
L78910 75700
L79050 75700
L79130 75730
L79190 75790
L79210 75840
L79240 75950
L79240 76040
L79210 76150
L79190 76210
L79130 76260
L79050 76290
L78910 76290
" />
<path d="M79750 76290
L79750 75980
L79720 75930
L79660 75900
L79550 75900
L79500 75930
" />
<path d="M79750 76260
L79690 76290
L79550 76290
L79500 76260
L79470 76210
L79470 76150
L79500 76100
L79550 76070
L79690 76070
L79750 76040
" />
<path d="M79950 75900
L80170 75900
" />
<path d="M80030 75700
L80030 76210
L80060 76260
L80110 76290
L80170 76290
" />
<path d="M80590 76260
L80540 76290
L80420 76290
L80370 76260
L80340 76210
L80340 75980
L80370 75930
L80420 75900
L80540 75900
L80590 75930
L80620 75980
L80620 76040
L80340 76100
" />
<path d="M80870 76240
L80900 76260
L80870 76290
L80840 76260
L80870 76240
L80870 76290
" />
<path d="M80870 75930
L80900 75950
L80870 75980
L80840 75950
L80870 75930
L80870 75980
" />
<path d="M81570 75760
L81600 75730
L81660 75700
L81800 75700
L81860 75730
L81880 75760
L81910 75810
L81910 75870
L81880 75950
L81550 76290
L81910 76290
" />
<path d="M82280 75700
L82330 75700
L82390 75730
L82420 75760
L82450 75810
L82470 75930
L82470 76070
L82450 76180
L82420 76240
L82390 76260
L82330 76290
L82280 76290
L82220 76260
L82190 76240
L82160 76180
L82140 76070
L82140 75930
L82160 75810
L82190 75760
L82220 75730
L82280 75700
" />
<path d="M82700 75760
L82730 75730
L82780 75700
L82920 75700
L82980 75730
L83010 75760
L83040 75810
L83040 75870
L83010 75950
L82670 76290
L83040 76290
" />
<path d="M83400 75700
L83460 75700
L83510 75730
L83540 75760
L83570 75810
L83600 75930
L83600 76070
L83570 76180
L83540 76240
L83510 76260
L83460 76290
L83400 76290
L83340 76260
L83320 76240
L83290 76180
L83260 76070
L83260 75930
L83290 75810
L83320 75760
L83340 75730
L83400 75700
" />
<path d="M83850 76070
L84300 76070
" />
<path d="M84690 75700
L84750 75700
L84810 75730
L84830 75760
L84860 75810
L84890 75930
L84890 76070
L84860 76180
L84830 76240
L84810 76260
L84750 76290
L84690 76290
L84640 76260
L84610 76240
L84580 76180
L84550 76070
L84550 75930
L84580 75810
L84610 75760
L84640 75730
L84690 75700
" />
<path d="M85090 75700
L85480 75700
L85230 76290
" />
<path d="M85700 76070
L86150 76070
" />
<path d="M86740 76290
L86410 76290
" />
<path d="M86580 76290
L86580 75700
L86520 75790
L86460 75840
L86410 75870
" />
<path d="M87030 76290
L87140 76290
L87190 76260
L87220 76240
L87280 76150
L87310 76040
L87310 75810
L87280 75760
L87250 75730
L87190 75700
L87080 75700
L87030 75730
L87000 75760
L86970 75810
L86970 75950
L87000 76010
L87030 76040
L87080 76070
L87190 76070
L87250 76040
L87280 76010
L87310 75950
" />
</g>
<g style="fill:#840000; fill-opacity:0.0; 
stroke:#840000; stroke-width:100; stroke-opacity:1; 
stroke-linecap:round; stroke-linejoin:round;">
</g>
<g style="fill:#840000; fill-opacity:0.0; 
stroke:#840000; stroke-width:60; stroke-opacity:1; 
stroke-linecap:round; stroke-linejoin:round;">
<path d="M69690 76580
L112210 76580
" />
</g>
<g style="fill:#840000; fill-opacity:0.0; 
stroke:#840000; stroke-width:100; stroke-opacity:1; 
stroke-linecap:round; stroke-linejoin:round;">
</g>
<g style="fill:#840000; fill-opacity:0.0; 
stroke:#840000; stroke-width:60; stroke-opacity:1; 
stroke-linecap:round; stroke-linejoin:round;">
<text x="70080" y="77420"
textLength="16950" font-size="780" lengthAdjust="spacingAndGlyphs"
text-anchor="start" opacity="0">KiCad E.D.A.  kicad (5.1.6-0-10_14)</text>
<path d="M70250 77390
L70250 76800
" />
<path d="M70580 77390
L70330 77050
" />
<path d="M70580 76800
L70250 77140
" />
<path d="M70840 77390
L70840 77000
" />
<path d="M70840 76800
L70810 76830
L70840 76860
L70860 76830
L70840 76800
L70840 76860
" />
<path d="M71450 77340
L71430 77360
L71340 77390
L71290 77390
L71200 77360
L71140 77310
L71120 77250
L71090 77140
L71090 77050
L71120 76940
L71140 76890
L71200 76830
L71290 76800
L71340 76800
L71430 76830
L71450 76860
" />
<path d="M71960 77390
L71960 77080
L71930 77030
L71880 77000
L71760 77000
L71710 77030
" />
<path d="M71960 77360
L71900 77390
L71760 77390
L71710 77360
L71680 77310
L71680 77250
L71710 77200
L71760 77170
L71900 77170
L71960 77140
" />
<path d="M72490 77390
L72490 76800
" />
<path d="M72490 77360
L72440 77390
L72320 77390
L72270 77360
L72240 77340
L72210 77280
L72210 77110
L72240 77050
L72270 77030
L72320 77000
L72440 77000
L72490 77030
" />
<path d="M73220 77080
L73420 77080
" />
<path d="M73500 77390
L73220 77390
L73220 76800
L73500 76800
" />
<path d="M73760 77340
L73790 77360
L73760 77390
L73730 77360
L73760 77340
L73760 77390
" />
<path d="M74040 77390
L74040 76800
L74180 76800
L74260 76830
L74320 76890
L74350 76940
L74380 77050
L74380 77140
L74350 77250
L74320 77310
L74260 77360
L74180 77390
L74040 77390
" />
<path d="M74630 77340
L74660 77360
L74630 77390
L74600 77360
L74630 77340
L74630 77390
" />
<path d="M74880 77220
L75160 77220
" />
<path d="M74830 77390
L75020 76800
L75220 77390
" />
<path d="M75420 77340
L75440 77360
L75420 77390
L75390 77360
L75420 77340
L75420 77390
" />
<path d="M76600 77390
L76600 76800
" />
<path d="M76650 77170
L76820 77390
" />
<path d="M76820 77000
L76600 77220
" />
<path d="M77070 77390
L77070 77000
" />
<path d="M77070 76800
L77040 76830
L77070 76860
L77100 76830
L77070 76800
L77070 76860
" />
<path d="M77610 77360
L77550 77390
L77440 77390
L77380 77360
L77350 77340
L77330 77280
L77330 77110
L77350 77050
L77380 77030
L77440 77000
L77550 77000
L77610 77030
" />
<path d="M78110 77390
L78110 77080
L78080 77030
L78030 77000
L77920 77000
L77860 77030
" />
<path d="M78110 77360
L78060 77390
L77920 77390
L77860 77360
L77830 77310
L77830 77250
L77860 77200
L77920 77170
L78060 77170
L78110 77140
" />
<path d="M78650 77390
L78650 76800
" />
<path d="M78650 77360
L78590 77390
L78480 77390
L78420 77360
L78390 77340
L78370 77280
L78370 77110
L78390 77050
L78420 77030
L78480 77000
L78590 77000
L78650 77030
" />
<path d="M79550 77620
L79520 77590
L79460 77500
L79430 77450
L79400 77360
L79380 77220
L79380 77110
L79400 76970
L79430 76890
L79460 76830
L79520 76750
L79550 76720
" />
<path d="M80050 76800
L79770 76800
L79740 77080
L79770 77050
L79830 77030
L79970 77030
L80020 77050
L80050 77080
L80080 77140
L80080 77280
L80050 77340
L80020 77360
L79970 77390
L79830 77390
L79770 77360
L79740 77340
" />
<path d="M80330 77340
L80360 77360
L80330 77390
L80300 77360
L80330 77340
L80330 77390
" />
<path d="M80920 77390
L80580 77390
" />
<path d="M80750 77390
L80750 76800
L80700 76890
L80640 76940
L80580 76970
" />
<path d="M81170 77340
L81200 77360
L81170 77390
L81150 77360
L81170 77340
L81170 77390
" />
<path d="M81710 76800
L81600 76800
L81540 76830
L81510 76860
L81460 76940
L81430 77050
L81430 77280
L81460 77340
L81480 77360
L81540 77390
L81650 77390
L81710 77360
L81740 77340
L81760 77280
L81760 77140
L81740 77080
L81710 77050
L81650 77030
L81540 77030
L81480 77050
L81460 77080
L81430 77140
" />
<path d="M82020 77170
L82470 77170
" />
<path d="M82860 76800
L82920 76800
L82970 76830
L83000 76860
L83030 76910
L83060 77030
L83060 77170
L83030 77280
L83000 77340
L82970 77360
L82920 77390
L82860 77390
L82800 77360
L82780 77340
L82750 77280
L82720 77170
L82720 77030
L82750 76910
L82780 76860
L82800 76830
L82860 76800
" />
<path d="M83310 77170
L83760 77170
" />
<path d="M84350 77390
L84010 77390
" />
<path d="M84180 77390
L84180 76800
L84120 76890
L84070 76940
L84010 76970
" />
<path d="M84710 76800
L84770 76800
L84830 76830
L84860 76860
L84880 76910
L84910 77030
L84910 77170
L84880 77280
L84860 77340
L84830 77360
L84770 77390
L84710 77390
L84660 77360
L84630 77340
L84600 77280
L84570 77170
L84570 77030
L84600 76910
L84630 76860
L84660 76830
L84710 76800
" />
<path d="M85020 77450
L85470 77450
" />
<path d="M85920 77390
L85590 77390
" />
<path d="M85750 77390
L85750 76800
L85700 76890
L85640 76940
L85590 76970
" />
<path d="M86430 77000
L86430 77390
" />
<path d="M86290 76770
L86150 77200
L86510 77200
" />
<path d="M86680 77620
L86710 77590
L86770 77500
L86790 77450
L86820 77360
L86850 77220
L86850 77110
L86820 76970
L86790 76890
L86770 76830
L86710 76750
L86680 76720
" />
</g>
<g style="fill:#840000; fill-opacity:0.0; 
stroke:#840000; stroke-width:100; stroke-opacity:1; 
stroke-linecap:round; stroke-linejoin:round;">
</g>
<g style="fill:#840000; fill-opacity:0.0; 
stroke:#840000; stroke-width:60; stroke-opacity:1; 
stroke-linecap:round; stroke-linejoin:round;">
<path d="M69690 75400
L112210 75400
" />
</g>
<g style="fill:#840000; fill-opacity:0.0; 
stroke:#840000; stroke-width:100; stroke-opacity:1; 
stroke-linecap:round; stroke-linejoin:round;">
</g>
<g style="fill:#840000; fill-opacity:0.0; 
stroke:#840000; stroke-width:120; stroke-opacity:1; 
stroke-linecap:round; stroke-linejoin:round;">
<text x="103540" y="76320"
textLength="5120" font-size="780" lengthAdjust="spacingAndGlyphs"
text-anchor="start" opacity="0">Rev: 2007E</text>
<path d="M104090 76290
L103890 76010
" />
<path d="M103750 76290
L103750 75700
L103980 75700
L104030 75730
L104060 75760
L104090 75810
L104090 75900
L104060 75950
L104030 75980
L103980 76010
L103750 76010
" />
<path d="M104570 76260
L104510 76290
L104400 76290
L104340 76260
L104320 76210
L104320 75980
L104340 75930
L104400 75900
L104510 75900
L104570 75930
L104600 75980
L104600 76040
L104320 76100
" />
<path d="M104790 75900
L104930 76290
L105070 75900
" />
<path d="M105300 76240
L105330 76260
L105300 76290
L105270 76260
L105300 76240
L105300 76290
" />
<path d="M105300 75930
L105330 75950
L105300 75980
L105270 75950
L105300 75930
L105300 75980
" />
<path d="M106000 75760
L106030 75730
L106090 75700
L106230 75700
L106280 75730
L106310 75760
L106340 75810
L106340 75870
L106310 75950
L105970 76290
L106340 76290
" />
<path d="M106700 75700
L106760 75700
L106820 75730
L106840 75760
L106870 75810
L106900 75930
L106900 76070
L106870 76180
L106840 76240
L106820 76260
L106760 76290
L106700 76290
L106650 76260
L106620 76240
L106590 76180
L106560 76070
L106560 75930
L106590 75810
L106620 75760
L106650 75730
L106700 75700
" />
<path d="M107270 75700
L107320 75700
L107380 75730
L107410 75760
L107430 75810
L107460 75930
L107460 76070
L107430 76180
L107410 76240
L107380 76260
L107320 76290
L107270 76290
L107210 76260
L107180 76240
L107150 76180
L107120 76070
L107120 75930
L107150 75810
L107180 75760
L107210 75730
L107270 75700
" />
<path d="M107660 75700
L108050 75700
L107800 76290
" />
<path d="M108280 75980
L108470 75980
" />
<path d="M108560 76290
L108280 76290
L108280 75700
L108560 75700
" />
</g>
<g style="fill:#840000; fill-opacity:0.0; 
stroke:#840000; stroke-width:100; stroke-opacity:1; 
stroke-linecap:round; stroke-linejoin:round;">
</g>
<g style="fill:#840000; fill-opacity:0.0; 
stroke:#840000; stroke-width:60; stroke-opacity:1; 
stroke-linecap:round; stroke-linejoin:round;">
<text x="70080" y="76320"
textLength="3780" font-size="780" lengthAdjust="spacingAndGlyphs"
text-anchor="start" opacity="0">Size: A4</text>
<path d="M70220 76260
L70300 76290
L70440 76290
L70500 76260
L70530 76240
L70550 76180
L70550 76120
L70530 76070
L70500 76040
L70440 76010
L70330 75980
L70270 75950
L70250 75930
L70220 75870
L70220 75810
L70250 75760
L70270 75730
L70330 75700
L70470 75700
L70550 75730
" />
<path d="M70810 76290
L70810 75900
" />
<path d="M70810 75700
L70780 75730
L70810 75760
L70840 75730
L70810 75700
L70810 75760
" />
<path d="M71030 75900
L71340 75900
L71030 76290
L71340 76290
" />
<path d="M71790 76260
L71730 76290
L71620 76290
L71570 76260
L71540 76210
L71540 75980
L71570 75930
L71620 75900
L71730 75900
L71790 75930
L71820 75980
L71820 76040
L71540 76100
" />
<path d="M72070 76240
L72100 76260
L72070 76290
L72040 76260
L72070 76240
L72070 76290
" />
<path d="M72070 75930
L72100 75950
L72070 75980
L72040 75950
L72070 75930
L72070 75980
" />
<path d="M72770 76120
L73060 76120
" />
<path d="M72720 76290
L72910 75700
L73110 76290
" />
<path d="M73560 75900
L73560 76290
" />
<path d="M73420 75670
L73280 76100
L73650 76100
" />
</g>
<g style="fill:#840000; fill-opacity:0.0; 
stroke:#840000; stroke-width:100; stroke-opacity:1; 
stroke-linecap:round; stroke-linejoin:round;">
</g>
<g style="fill:#840000; fill-opacity:0.0; 
stroke:#840000; stroke-width:60; stroke-opacity:1; 
stroke-linecap:round; stroke-linejoin:round;">
<text x="103540" y="77420"
textLength="3350" font-size="780" lengthAdjust="spacingAndGlyphs"
text-anchor="start" opacity="0">Id: 5/8</text>
<path d="M103710 77390
L103710 76800
" />
<path d="M104240 77390
L104240 76800
" />
<path d="M104240 77360
L104180 77390
L104070 77390
L104010 77360
L103990 77340
L103960 77280
L103960 77110
L103990 77050
L104010 77030
L104070 77000
L104180 77000
L104240 77030
" />
<path d="M104520 77340
L104550 77360
L104520 77390
L104490 77360
L104520 77340
L104520 77390
" />
<path d="M104520 77030
L104550 77050
L104520 77080
L104490 77050
L104520 77030
L104520 77080
" />
<path d="M105530 76800
L105250 76800
L105220 77080
L105250 77050
L105310 77030
L105450 77030
L105500 77050
L105530 77080
L105560 77140
L105560 77280
L105530 77340
L105500 77360
L105450 77390
L105310 77390
L105250 77360
L105220 77340
" />
<path d="M106230 76770
L105730 77530
" />
<path d="M106520 77050
L106460 77030
L106430 77000
L106400 76940
L106400 76910
L106430 76860
L106460 76830
L106520 76800
L106630 76800
L106680 76830
L106710 76860
L106740 76910
L106740 76940
L106710 77000
L106680 77030
L106630 77050
L106520 77050
L106460 77080
L106430 77110
L106400 77170
L106400 77280
L106430 77340
L106460 77360
L106520 77390
L106630 77390
L106680 77360
L106710 77340
L106740 77280
L106740 77170
L106710 77110
L106680 77080
L106630 77050
" />
</g>
<g style="fill:#840000; fill-opacity:0.0; 
stroke:#840000; stroke-width:100; stroke-opacity:1; 
stroke-linecap:round; stroke-linejoin:round;">
</g>
<g style="fill:#840000; fill-opacity:0.0; 
stroke:#840000; stroke-width:60; stroke-opacity:1; 
stroke-linecap:round; stroke-linejoin:round;">
<path d="M69690 73820
L112210 73820
" />
</g>
<g style="fill:#840000; fill-opacity:0.0; 
stroke:#840000; stroke-width:100; stroke-opacity:1; 
stroke-linecap:round; stroke-linejoin:round;">
</g>
<g style="fill:#840000; fill-opacity:0.0; 
stroke:#840000; stroke-width:160; stroke-opacity:1; 
stroke-linecap:round; stroke-linejoin:round;">
<text x="70080" y="74920"
textLength="19930" font-size="1050" lengthAdjust="spacingAndGlyphs"
text-anchor="start" opacity="0">Title: FT81x TFT040 Driver Board</text>
<path d="M70360 74090
L70810 74090
" />
<path d="M70480 74880
L70580 74090
" />
<path d="M70970 74880
L71040 74360
" />
<path d="M71070 74090
L71030 74130
L71060 74170
L71110 74130
L71070 74090
L71060 74170
" />
<path d="M71300 74360
L71600 74360
" />
<path d="M71450 74090
L71360 74770
L71390 74840
L71460 74880
L71540 74880
" />
<path d="M71910 74880
L71840 74840
L71820 74770
L71900 74090
" />
<path d="M72520 74840
L72440 74880
L72290 74880
L72220 74840
L72190 74770
L72230 74470
L72280 74390
L72360 74360
L72510 74360
L72580 74390
L72610 74470
L72600 74540
L72210 74620
" />
<path d="M72900 74810
L72930 74840
L72890 74880
L72860 74840
L72900 74810
L72890 74880
" />
<path d="M72950 74390
L72990 74430
L72940 74470
L72910 74430
L72950 74390
L72940 74470
" />
<path d="M74190 74470
L73920 74470
" />
<path d="M73870 74880
L73970 74090
L74350 74090
" />
<path d="M74530 74090
L74980 74090
" />
<path d="M74660 74880
L74760 74090
" />
<path d="M75320 74430
L75250 74390
L75220 74360
L75190 74280
L75190 74240
L75240 74170
L75280 74130
L75360 74090
L75510 74090
L75580 74130
L75610 74170
L75640 74240
L75640 74280
L75590 74360
L75550 74390
L75470 74430
L75320 74430
L75240 74470
L75200 74510
L75150 74580
L75130 74730
L75160 74810
L75190 74840
L75260 74880
L75410 74880
L75490 74840
L75540 74810
L75580 74730
L75600 74580
L75570 74510
L75540 74470
L75470 74430
" />
<path d="M76320 74880
L75860 74880
" />
<path d="M76090 74880
L76190 74090
L76100 74210
L76010 74280
L75930 74320
" />
<path d="M76580 74880
L77060 74360
" />
<path d="M76640 74360
L76990 74880
" />
<path d="M77880 74090
L78330 74090
" />
<path d="M78010 74880
L78110 74090
" />
<path d="M78810 74470
L78550 74470
" />
<path d="M78500 74880
L78600 74090
L78970 74090
" />
<path d="M79160 74090
L79610 74090
" />
<path d="M79290 74880
L79390 74090
" />
<path d="M80030 74090
L80100 74090
L80170 74130
L80200 74170
L80230 74240
L80250 74390
L80230 74580
L80170 74730
L80120 74810
L80080 74840
L80000 74880
L79930 74880
L79860 74840
L79820 74810
L79800 74730
L79780 74580
L79800 74390
L79860 74240
L79900 74170
L79950 74130
L80030 74090
" />
<path d="M80930 74360
L80870 74880
" />
<path d="M80780 74050
L80520 74620
L81010 74620
" />
<path d="M81530 74090
L81610 74090
L81680 74130
L81710 74170
L81740 74240
L81760 74390
L81730 74580
L81680 74730
L81630 74810
L81590 74840
L81510 74880
L81430 74880
L81360 74840
L81330 74810
L81300 74730
L81280 74580
L81300 74390
L81360 74240
L81410 74170
L81450 74130
L81530 74090
" />
<path d="M82640 74880
L82730 74090
L82920 74090
L83030 74130
L83100 74210
L83120 74280
L83140 74430
L83130 74540
L83070 74690
L83030 74770
L82940 74840
L82820 74880
L82640 74880
" />
<path d="M83430 74880
L83490 74360
" />
<path d="M83470 74510
L83520 74430
L83560 74390
L83640 74360
L83720 74360
" />
<path d="M83910 74880
L83980 74360
" />
<path d="M84010 74090
L83970 74130
L84000 74170
L84050 74130
L84010 74090
L84000 74170
" />
<path d="M84280 74360
L84400 74880
L84660 74360
" />
<path d="M85200 74840
L85120 74880
L84970 74880
L84900 74840
L84870 74770
L84910 74470
L84950 74390
L85030 74360
L85180 74360
L85250 74390
L85280 74470
L85270 74540
L84890 74620
" />
<path d="M85570 74880
L85640 74360
" />
<path d="M85620 74510
L85660 74430
L85710 74390
L85790 74360
L85860 74360
" />
<path d="M86980 74470
L87080 74510
L87120 74540
L87150 74620
L87130 74730
L87080 74810
L87040 74840
L86960 74880
L86660 74880
L86760 74090
L87020 74090
L87090 74130
L87130 74170
L87150 74240
L87150 74320
L87100 74390
L87060 74430
L86980 74470
L86710 74470
" />
<path d="M87560 74880
L87490 74840
L87460 74810
L87430 74730
L87460 74510
L87510 74430
L87550 74390
L87630 74360
L87740 74360
L87810 74390
L87850 74430
L87870 74510
L87850 74730
L87800 74810
L87760 74840
L87680 74880
L87560 74880
" />
<path d="M88500 74880
L88560 74470
L88530 74390
L88460 74360
L88310 74360
L88230 74390
" />
<path d="M88510 74840
L88430 74880
L88240 74880
L88170 74840
L88140 74770
L88150 74690
L88200 74620
L88280 74580
L88470 74580
L88550 74540
" />
<path d="M88880 74880
L88950 74360
" />
<path d="M88930 74510
L88970 74430
L89020 74390
L89100 74360
L89170 74360
" />
<path d="M89710 74880
L89810 74090
" />
<path d="M89710 74840
L89630 74880
L89480 74880
L89410 74840
L89380 74810
L89350 74730
L89380 74510
L89430 74430
L89470 74390
L89550 74360
L89700 74360
L89770 74390
" />
</g>
<g style="fill:#840000; fill-opacity:0.0; 
stroke:#840000; stroke-width:100; stroke-opacity:1; 
stroke-linecap:round; stroke-linejoin:round;">
</g>
<g style="fill:#840000; fill-opacity:0.0; 
stroke:#840000; stroke-width:60; stroke-opacity:1; 
stroke-linecap:round; stroke-linejoin:round;">
<text x="70080" y="73400"
textLength="9760" font-size="780" lengthAdjust="spacingAndGlyphs"
text-anchor="start" opacity="0">File: miso-buffer.sch</text>
<path d="M70440 73060
L70250 73060
" />
<path d="M70250 73370
L70250 72780
L70530 72780
" />
<path d="M70750 73370
L70750 72980
" />
<path d="M70750 72780
L70720 72810
L70750 72840
L70780 72810
L70750 72780
L70750 72840
" />
<path d="M71120 73370
L71060 73340
L71030 73290
L71030 72780
" />
<path d="M71570 73340
L71510 73370
L71400 73370
L71340 73340
L71310 73290
L71310 73060
L71340 73010
L71400 72980
L71510 72980
L71570 73010
L71590 73060
L71590 73120
L71310 73180
" />
<path d="M71850 73320
L71880 73340
L71850 73370
L71820 73340
L71850 73320
L71850 73370
" />
<path d="M71850 73010
L71880 73030
L71850 73060
L71820 73030
L71850 73010
L71850 73060
" />
<path d="M72580 73370
L72580 72980
" />
<path d="M72580 73030
L72610 73010
L72660 72980
L72750 72980
L72800 73010
L72830 73060
L72830 73370
" />
<path d="M72830 73060
L72860 73010
L72910 72980
L73000 72980
L73060 73010
L73080 73060
L73080 73370
" />
<path d="M73360 73370
L73360 72980
" />
<path d="M73360 72780
L73340 72810
L73360 72840
L73390 72810
L73360 72780
L73360 72840
" />
<path d="M73620 73340
L73670 73370
L73790 73370
L73840 73340
L73870 73290
L73870 73260
L73840 73200
L73790 73180
L73700 73180
L73650 73150
L73620 73090
L73620 73060
L73650 73010
L73700 72980
L73790 72980
L73840 73010
" />
<path d="M74210 73370
L74150 73340
L74120 73320
L74090 73260
L74090 73090
L74120 73030
L74150 73010
L74210 72980
L74290 72980
L74350 73010
L74380 73030
L74400 73090
L74400 73260
L74380 73320
L74350 73340
L74290 73370
L74210 73370
" />
<path d="M74660 73150
L75110 73150
" />
<path d="M75390 73370
L75390 72780
" />
<path d="M75390 73010
L75440 72980
L75560 72980
L75610 73010
L75640 73030
L75670 73090
L75670 73260
L75640 73320
L75610 73340
L75560 73370
L75440 73370
L75390 73340
" />
<path d="M76170 72980
L76170 73370
" />
<path d="M75920 72980
L75920 73290
L75950 73340
L76010 73370
L76090 73370
L76150 73340
L76170 73320
" />
<path d="M76370 72980
L76600 72980
" />
<path d="M76450 73370
L76450 72870
L76480 72810
L76540 72780
L76600 72780
" />
<path d="M76710 72980
L76930 72980
" />
<path d="M76790 73370
L76790 72870
L76820 72810
L76880 72780
L76930 72780
" />
<path d="M77350 73340
L77300 73370
L77190 73370
L77130 73340
L77100 73290
L77100 73060
L77130 73010
L77190 72980
L77300 72980
L77350 73010
L77380 73060
L77380 73120
L77100 73180
" />
<path d="M77630 73370
L77630 72980
" />
<path d="M77630 73090
L77660 73030
L77690 73010
L77750 72980
L77800 72980
" />
<path d="M78000 73320
L78030 73340
L78000 73370
L77970 73340
L78000 73320
L78000 73370
" />
<path d="M78250 73340
L78310 73370
L78420 73370
L78480 73340
L78510 73290
L78510 73260
L78480 73200
L78420 73180
L78340 73180
L78280 73150
L78250 73090
L78250 73060
L78280 73010
L78340 72980
L78420 72980
L78480 73010
" />
<path d="M79010 73340
L78960 73370
L78840 73370
L78790 73340
L78760 73320
L78730 73260
L78730 73090
L78760 73030
L78790 73010
L78840 72980
L78960 72980
L79010 73010
" />
<path d="M79260 73370
L79260 72780
" />
<path d="M79520 73370
L79520 73060
L79490 73010
L79430 72980
L79350 72980
L79290 73010
L79260 73030
" />
</g>
<g style="fill:#840000; fill-opacity:0.0; 
stroke:#840000; stroke-width:100; stroke-opacity:1; 
stroke-linecap:round; stroke-linejoin:round;">
</g>
<g style="fill:#840000; fill-opacity:0.0; 
stroke:#840000; stroke-width:60; stroke-opacity:1; 
stroke-linecap:round; stroke-linejoin:round;">
<path d="M69690 71460
L112210 71460
" />
</g>
<g style="fill:#840000; fill-opacity:0.0; 
stroke:#840000; stroke-width:100; stroke-opacity:1; 
stroke-linecap:round; stroke-linejoin:round;">
</g>
<g style="fill:#840000; fill-opacity:0.0; 
stroke:#840000; stroke-width:60; stroke-opacity:1; 
stroke-linecap:round; stroke-linejoin:round;">
<text x="70080" y="72340"
textLength="9720" font-size="780" lengthAdjust="spacingAndGlyphs"
text-anchor="start" opacity="0">Sheet: /MISO Buffer/</text>
<path d="M70220 72280
L70300 72310
L70440 72310
L70500 72280
L70530 72260
L70550 72200
L70550 72140
L70530 72090
L70500 72060
L70440 72030
L70330 72000
L70270 71970
L70250 71950
L70220 71890
L70220 71830
L70250 71780
L70270 71750
L70330 71720
L70470 71720
L70550 71750
" />
<path d="M70810 72310
L70810 71720
" />
<path d="M71060 72310
L71060 72000
L71030 71950
L70980 71920
L70890 71920
L70840 71950
L70810 71970
" />
<path d="M71570 72280
L71510 72310
L71400 72310
L71340 72280
L71310 72230
L71310 72000
L71340 71950
L71400 71920
L71510 71920
L71570 71950
L71590 72000
L71590 72060
L71310 72120
" />
<path d="M72070 72280
L72020 72310
L71900 72310
L71850 72280
L71820 72230
L71820 72000
L71850 71950
L71900 71920
L72020 71920
L72070 71950
L72100 72000
L72100 72060
L71820 72120
" />
<path d="M72270 71920
L72490 71920
" />
<path d="M72350 71720
L72350 72230
L72380 72280
L72440 72310
L72490 72310
" />
<path d="M72690 72260
L72720 72280
L72690 72310
L72660 72280
L72690 72260
L72690 72310
" />
<path d="M72690 71950
L72720 71970
L72690 72000
L72660 71970
L72690 71950
L72690 72000
" />
<path d="M73840 71690
L73340 72450
" />
<path d="M74040 72310
L74040 71720
L74240 72140
L74430 71720
L74430 72310
" />
<path d="M74710 72310
L74710 71720
" />
<path d="M74970 72280
L75050 72310
L75190 72310
L75250 72280
L75270 72260
L75300 72200
L75300 72140
L75270 72090
L75250 72060
L75190 72030
L75080 72000
L75020 71970
L74990 71950
L74970 71890
L74970 71830
L74990 71780
L75020 71750
L75080 71720
L75220 71720
L75300 71750
" />
<path d="M75670 71720
L75780 71720
L75840 71750
L75890 71810
L75920 71920
L75920 72120
L75890 72230
L75840 72280
L75780 72310
L75670 72310
L75610 72280
L75560 72230
L75530 72120
L75530 71920
L75560 71810
L75610 71750
L75670 71720
" />
<path d="M76820 72000
L76900 72030
L76930 72060
L76960 72120
L76960 72200
L76930 72260
L76900 72280
L76850 72310
L76620 72310
L76620 71720
L76820 71720
L76880 71750
L76900 71780
L76930 71830
L76930 71890
L76900 71950
L76880 71970
L76820 72000
L76620 72000
" />
<path d="M77470 71920
L77470 72310
" />
<path d="M77210 71920
L77210 72230
L77240 72280
L77300 72310
L77380 72310
L77440 72280
L77470 72260
" />
<path d="M77660 71920
L77890 71920
" />
<path d="M77750 72310
L77750 71810
L77780 71750
L77830 71720
L77890 71720
" />
<path d="M78000 71920
L78220 71920
" />
<path d="M78080 72310
L78080 71810
L78110 71750
L78170 71720
L78220 71720
" />
<path d="M78650 72280
L78590 72310
L78480 72310
L78420 72280
L78390 72230
L78390 72000
L78420 71950
L78480 71920
L78590 71920
L78650 71950
L78670 72000
L78670 72060
L78390 72120
" />
<path d="M78930 72310
L78930 71920
" />
<path d="M78930 72030
L78960 71970
L78980 71950
L79040 71920
L79100 71920
" />
<path d="M79710 71690
L79210 72450
" />
</g>
<g style="fill:#840000; fill-opacity:0.0; 
stroke:#840000; stroke-width:100; stroke-opacity:1; 
stroke-linecap:round; stroke-linejoin:round;">
</g>
<g style="fill:#840000; fill-opacity:0.0; 
stroke:#840000; stroke-width:60; stroke-opacity:1; 
stroke-linecap:round; stroke-linejoin:round;">
<path d="M77560 75400
L77560 76580
" />
</g>
<g style="fill:#840000; fill-opacity:0.0; 
stroke:#840000; stroke-width:100; stroke-opacity:1; 
stroke-linecap:round; stroke-linejoin:round;">
</g>
<g style="fill:#840000; fill-opacity:0.0; 
stroke:#840000; stroke-width:60; stroke-opacity:1; 
stroke-linecap:round; stroke-linejoin:round;">
<path d="M102760 75400
L102760 77960
" />
</g>
<g style="fill:#840000; fill-opacity:0.0; 
stroke:#840000; stroke-width:0; stroke-opacity:1; 
stroke-linecap:round; stroke-linejoin:round;">
<g >
</g>
<g style="fill:#840000; fill-opacity:0.0; 
stroke:#840000; stroke-width:60; stroke-opacity:1; 
stroke-linecap:round; stroke-linejoin:round;">
<rect x="56500" y="38000" width="5000" height="3000" rx="0" />
<path d="M56500 38500
L55500 38500
" />
</g>
<g style="fill:#008484; fill-opacity:0.0; 
stroke:#008484; stroke-width:60; stroke-opacity:1; 
stroke-linecap:round; stroke-linejoin:round;">
<text x="56900" y="38750"
textLength="1040" font-size="660" lengthAdjust="spacingAndGlyphs"
text-anchor="start" opacity="0">~OE</text>
<path d="M56930 38080
L57450 38080
" />
<path d="M57140 38220
L57230 38220
L57280 38250
L57330 38290
L57350 38390
L57350 38550
L57330 38650
L57280 38700
L57230 38720
L57140 38720
L57090 38700
L57040 38650
L57020 38550
L57020 38390
L57040 38290
L57090 38250
L57140 38220
" />
<path d="M57450 38080
L57900 38080
" />
<path d="M57570 38460
L57730 38460
" />
<path d="M57810 38720
L57570 38720
L57570 38220
L57810 38220
" />
</g>
<g style="fill:#840000; fill-opacity:0.0; 
stroke:#840000; stroke-width:60; stroke-opacity:1; 
stroke-linecap:round; stroke-linejoin:round;">
<text x="56000" y="38400"
textLength="540" font-size="660" lengthAdjust="spacingAndGlyphs"
text-anchor="middle" opacity="0">1</text>
<path d="M56140 38370
L55850 38370
" />
<path d="M56000 38370
L56000 37870
L55950 37940
L55900 37990
L55850 38010
" />
<path d="M56500 39500
L55500 39500
" />
</g>
<g style="fill:#008484; fill-opacity:0.0; 
stroke:#008484; stroke-width:60; stroke-opacity:1; 
stroke-linecap:round; stroke-linejoin:round;">
<text x="56900" y="39750"
textLength="490" font-size="660" lengthAdjust="spacingAndGlyphs"
text-anchor="start" opacity="0">A</text>
<path d="M57020 39580
L57260 39580
" />
<path d="M56970 39720
L57140 39220
L57310 39720
" />
</g>
<g style="fill:#840000; fill-opacity:0.0; 
stroke:#840000; stroke-width:60; stroke-opacity:1; 
stroke-linecap:round; stroke-linejoin:round;">
<text x="56000" y="39400"
textLength="540" font-size="660" lengthAdjust="spacingAndGlyphs"
text-anchor="middle" opacity="0">2</text>
<path d="M55850 38920
L55880 38900
L55920 38870
L56040 38870
L56090 38900
L56110 38920
L56140 38970
L56140 39010
L56110 39090
L55830 39370
L56140 39370
" />
<path d="M56500 40500
L55500 40500
" />
</g>
<g style="fill:#008484; fill-opacity:0.0; 
stroke:#008484; stroke-width:60; stroke-opacity:1; 
stroke-linecap:round; stroke-linejoin:round;">
<text x="56900" y="40750"
textLength="1580" font-size="660" lengthAdjust="spacingAndGlyphs"
text-anchor="start" opacity="0">GND</text>
<path d="M57310 40250
L57260 40220
L57190 40220
L57120 40250
L57070 40290
L57040 40340
L57020 40440
L57020 40510
L57040 40600
L57070 40650
L57120 40700
L57190 40720
L57230 40720
L57310 40700
L57330 40670
L57330 40510
L57230 40510
" />
<path d="M57540 40720
L57540 40220
L57830 40720
L57830 40220
" />
<path d="M58070 40720
L58070 40220
L58190 40220
L58260 40250
L58310 40290
L58330 40340
L58350 40440
L58350 40510
L58330 40600
L58310 40650
L58260 40700
L58190 40720
L58070 40720
" />
</g>
<g style="fill:#840000; fill-opacity:0.0; 
stroke:#840000; stroke-width:60; stroke-opacity:1; 
stroke-linecap:round; stroke-linejoin:round;">
<text x="56000" y="40400"
textLength="540" font-size="660" lengthAdjust="spacingAndGlyphs"
text-anchor="middle" opacity="0">3</text>
<path d="M55830 39870
L56140 39870
L55970 40060
L56040 40060
L56090 40090
L56110 40110
L56140 40160
L56140 40280
L56110 40320
L56090 40350
L56040 40370
L55900 40370
L55850 40350
L55830 40320
" />
<path d="M61500 40500
L62500 40500
" />
</g>
<g style="fill:#008484; fill-opacity:0.0; 
stroke:#008484; stroke-width:60; stroke-opacity:1; 
stroke-linecap:round; stroke-linejoin:round;">
<text x="61100" y="40750"
textLength="490" font-size="660" lengthAdjust="spacingAndGlyphs"
text-anchor="end" opacity="0">Y</text>
<path d="M60850 40480
L60850 40720
" />
<path d="M60680 40220
L60850 40480
L61020 40220
" />
</g>
<g style="fill:#840000; fill-opacity:0.0; 
stroke:#840000; stroke-width:60; stroke-opacity:1; 
stroke-linecap:round; stroke-linejoin:round;">
<text x="62000" y="40400"
textLength="540" font-size="660" lengthAdjust="spacingAndGlyphs"
text-anchor="middle" opacity="0">4</text>
<path d="M62090 40040
L62090 40370
" />
<path d="M61970 39850
L61850 40200
L62160 40200
" />
<path d="M61500 38500
L62500 38500
" />
</g>
<g style="fill:#008484; fill-opacity:0.0; 
stroke:#008484; stroke-width:60; stroke-opacity:1; 
stroke-linecap:round; stroke-linejoin:round;">
<text x="61100" y="38750"
textLength="1490" font-size="660" lengthAdjust="spacingAndGlyphs"
text-anchor="end" opacity="0">VCC</text>
<path d="M59680 38220
L59850 38720
L60020 38220
" />
<path d="M60470 38670
L60450 38700
L60370 38720
L60330 38720
L60260 38700
L60210 38650
L60180 38600
L60160 38510
L60160 38440
L60180 38340
L60210 38290
L60260 38250
L60330 38220
L60370 38220
L60450 38250
L60470 38270
" />
<path d="M60970 38670
L60950 38700
L60870 38720
L60830 38720
L60760 38700
L60710 38650
L60680 38600
L60660 38510
L60660 38440
L60680 38340
L60710 38290
L60760 38250
L60830 38220
L60870 38220
L60950 38250
L60970 38270
" />
</g>
<g style="fill:#840000; fill-opacity:0.0; 
stroke:#840000; stroke-width:60; stroke-opacity:1; 
stroke-linecap:round; stroke-linejoin:round;">
<text x="62000" y="38400"
textLength="540" font-size="660" lengthAdjust="spacingAndGlyphs"
text-anchor="middle" opacity="0">5</text>
<path d="M62110 37870
L61880 37870
L61850 38110
L61880 38090
L61920 38060
L62040 38060
L62090 38090
L62110 38110
L62140 38160
L62140 38280
L62110 38320
L62090 38350
L62040 38370
L61920 38370
L61880 38350
L61850 38320
" />
</g>
<g style="fill:#008484; fill-opacity:0.0; 
stroke:#008484; stroke-width:60; stroke-opacity:1; 
stroke-linecap:round; stroke-linejoin:round;">
<text x="59000" y="35620"
textLength="1060" font-size="660" lengthAdjust="spacingAndGlyphs"
text-anchor="middle" opacity="0">U5</text>
<path d="M58610 35090
L58610 35500
L58640 35540
L58660 35570
L58710 35590
L58800 35590
L58850 35570
L58880 35540
L58900 35500
L58900 35090
" />
<path d="M59380 35090
L59140 35090
L59110 35330
L59140 35310
L59190 35280
L59300 35280
L59350 35310
L59380 35330
L59400 35380
L59400 35500
L59380 35540
L59350 35570
L59300 35590
L59190 35590
L59140 35570
L59110 35540
" />
<text x="59000" y="36530"
textLength="3940" font-size="660" lengthAdjust="spacingAndGlyphs"
text-anchor="middle" opacity="0">NC7SZ125</text>
<path d="M57170 36500
L57170 36000
L57460 36500
L57460 36000
" />
<path d="M57980 36450
L57960 36480
L57890 36500
L57840 36500
L57770 36480
L57720 36430
L57700 36380
L57670 36290
L57670 36220
L57700 36120
L57720 36070
L57770 36030
L57840 36000
L57890 36000
L57960 36030
L57980 36050
" />
<path d="M58150 36000
L58480 36000
L58270 36500
" />
<path d="M58650 36480
L58720 36500
L58840 36500
L58890 36480
L58910 36450
L58940 36410
L58940 36360
L58910 36310
L58890 36290
L58840 36260
L58750 36240
L58700 36220
L58670 36190
L58650 36140
L58650 36100
L58670 36050
L58700 36030
L58750 36000
L58860 36000
L58940 36030
" />
<path d="M59100 36000
L59440 36000
L59100 36500
L59440 36500
" />
<path d="M59890 36500
L59600 36500
" />
<path d="M59750 36500
L59750 36000
L59700 36070
L59650 36120
L59600 36140
" />
<path d="M60080 36050
L60100 36030
L60150 36000
L60270 36000
L60320 36030
L60340 36050
L60360 36100
L60360 36140
L60340 36220
L60050 36500
L60360 36500
" />
<path d="M60820 36000
L60580 36000
L60550 36240
L60580 36220
L60630 36190
L60750 36190
L60790 36220
L60820 36240
L60840 36290
L60840 36410
L60820 36450
L60790 36480
L60750 36500
L60630 36500
L60580 36480
L60550 36450
" />
</g>
</g>
<g style="fill:#008484; fill-opacity:0.0; 
stroke:#008484; stroke-width:0; stroke-opacity:1; 
stroke-linecap:round; stroke-linejoin:round;">
<g >
</g>
<g style="fill:#840000; fill-opacity:0.0; 
stroke:#840000; stroke-width:0; stroke-opacity:1; 
stroke-linecap:round; stroke-linejoin:round;">
</g>
<g style="fill:#840000; fill-opacity:0.0; 
stroke:#840000; stroke-width:60; stroke-opacity:1; 
stroke-linecap:round; stroke-linejoin:round;">
<path style="fill:#840000; fill-opacity:0.0; 
stroke:#840000; stroke-width:60; stroke-opacity:1; 
stroke-linecap:round; stroke-linejoin:round;fill:none"
d="M 55500,40500
55000,40500
55000,41000
54500,40500
55000,40000
55000,40500
" /> 
</g>
<g style="fill:#008484; fill-opacity:0.0; 
stroke:#008484; stroke-width:60; stroke-opacity:1; 
stroke-linecap:round; stroke-linejoin:round;">
<text x="53710" y="40770"
textLength="1580" font-size="660" lengthAdjust="spacingAndGlyphs"
text-anchor="middle" opacity="0">GND</text>
<path d="M53320 40270
L53280 40240
L53210 40240
L53130 40270
L53090 40310
L53060 40360
L53040 40460
L53040 40530
L53060 40620
L53090 40670
L53130 40720
L53210 40740
L53250 40740
L53320 40720
L53350 40690
L53350 40530
L53250 40530
" />
<path d="M53560 40740
L53560 40240
L53850 40740
L53850 40240
" />
<path d="M54090 40740
L54090 40240
L54210 40240
L54280 40270
L54320 40310
L54350 40360
L54370 40460
L54370 40530
L54350 40620
L54320 40670
L54280 40720
L54210 40740
L54090 40740
" />
</g>
</g>
<g style="fill:#008484; fill-opacity:0.0; 
stroke:#008484; stroke-width:0; stroke-opacity:1; 
stroke-linecap:round; stroke-linejoin:round;">
<g >
</g>
<g style="fill:#840000; fill-opacity:0.0; 
stroke:#840000; stroke-width:0; stroke-opacity:1; 
stroke-linecap:round; stroke-linejoin:round;">
</g>
<g style="fill:#840000; fill-opacity:0.0; 
stroke:#840000; stroke-width:200; stroke-opacity:1; 
stroke-linecap:round; stroke-linejoin:round;">
<path style="fill:#840000; fill-opacity:0.0; 
stroke:#840000; stroke-width:200; stroke-opacity:1; 
stroke-linecap:round; stroke-linejoin:round;fill:none"
d="M 58200,46800
59800,46800
" /> 
<path style="fill:#840000; fill-opacity:0.0; 
stroke:#840000; stroke-width:200; stroke-opacity:1; 
stroke-linecap:round; stroke-linejoin:round;fill:none"
d="M 58200,46200
59800,46200
" /> 
</g>
<g style="fill:#840000; fill-opacity:0.0; 
stroke:#840000; stroke-width:60; stroke-opacity:1; 
stroke-linecap:round; stroke-linejoin:round;">
<path d="M59000 46100
L59000 45000
" />
<path d="M59000 46900
L59000 48000
" />
</g>
<g style="fill:#008484; fill-opacity:0.0; 
stroke:#008484; stroke-width:60; stroke-opacity:1; 
stroke-linecap:round; stroke-linejoin:round;">
<text x="60670" y="46310"
textLength="1040" font-size="660" lengthAdjust="spacingAndGlyphs"
text-anchor="middle" opacity="0">C9</text>
<path d="M60580 46230
L60560 46260
L60490 46280
L60440 46280
L60370 46260
L60320 46210
L60300 46160
L60270 46070
L60270 46000
L60300 45900
L60320 45850
L60370 45810
L60440 45780
L60490 45780
L60560 45810
L60580 45830
" />
<path d="M60820 46280
L60920 46280
L60960 46260
L60990 46230
L61030 46160
L61060 46070
L61060 45880
L61030 45830
L61010 45810
L60960 45780
L60870 45780
L60820 45810
L60800 45830
L60770 45880
L60770 46000
L60800 46040
L60820 46070
L60870 46090
L60960 46090
L61010 46070
L61030 46040
L61060 46000
" />
<text x="61330" y="47220"
textLength="2370" font-size="660" lengthAdjust="spacingAndGlyphs"
text-anchor="middle" opacity="0">100nF</text>
<path d="M60550 47190
L60270 47190
" />
<path d="M60410 47190
L60410 46690
L60360 46760
L60310 46810
L60270 46830
" />
<path d="M60860 46690
L60910 46690
L60960 46720
L60980 46740
L61000 46790
L61030 46880
L61030 47000
L61000 47100
L60980 47140
L60960 47170
L60910 47190
L60860 47190
L60810 47170
L60790 47140
L60770 47100
L60740 47000
L60740 46880
L60770 46790
L60790 46740
L60810 46720
L60860 46690
" />
<path d="M61340 46690
L61380 46690
L61430 46720
L61460 46740
L61480 46790
L61500 46880
L61500 47000
L61480 47100
L61460 47140
L61430 47170
L61380 47190
L61340 47190
L61290 47170
L61270 47140
L61240 47100
L61220 47000
L61220 46880
L61240 46790
L61270 46740
L61290 46720
L61340 46690
" />
<path d="M61720 46860
L61720 47190
" />
<path d="M61720 46910
L61740 46880
L61790 46860
L61860 46860
L61910 46880
L61930 46930
L61930 47190
" />
<path d="M62340 46930
L62170 46930
" />
<path d="M62170 47190
L62170 46690
L62410 46690
" />
</g>
</g>
<g style="fill:#008484; fill-opacity:0.0; 
stroke:#008484; stroke-width:0; stroke-opacity:1; 
stroke-linecap:round; stroke-linejoin:round;">
<g >
</g>
<g style="fill:#840000; fill-opacity:0.0; 
stroke:#840000; stroke-width:0; stroke-opacity:1; 
stroke-linecap:round; stroke-linejoin:round;">
</g>
<g style="fill:#840000; fill-opacity:0.0; 
stroke:#840000; stroke-width:60; stroke-opacity:1; 
stroke-linecap:round; stroke-linejoin:round;">
<path style="fill:#840000; fill-opacity:0.0; 
stroke:#840000; stroke-width:60; stroke-opacity:1; 
stroke-linecap:round; stroke-linejoin:round;fill:none"
d="M 59000,48000
59000,48500
59500,48500
59000,49000
58500,48500
59000,48500
" /> 
</g>
<g style="fill:#008484; fill-opacity:0.0; 
stroke:#008484; stroke-width:60; stroke-opacity:1; 
stroke-linecap:round; stroke-linejoin:round;">
<text x="59050" y="50000"
textLength="1580" font-size="660" lengthAdjust="spacingAndGlyphs"
text-anchor="middle" opacity="0">GND</text>
<path d="M58660 49500
L58620 49470
L58550 49470
L58470 49500
L58430 49540
L58400 49590
L58380 49690
L58380 49760
L58400 49850
L58430 49900
L58470 49950
L58550 49970
L58590 49970
L58660 49950
L58690 49920
L58690 49760
L58590 49760
" />
<path d="M58900 49970
L58900 49470
L59190 49970
L59190 49470
" />
<path d="M59430 49970
L59430 49470
L59550 49470
L59620 49500
L59660 49540
L59690 49590
L59710 49690
L59710 49760
L59690 49850
L59660 49900
L59620 49950
L59550 49970
L59430 49970
" />
</g>
</g>
<g style="fill:#008484; fill-opacity:0.0; 
stroke:#008484; stroke-width:0; stroke-opacity:1; 
stroke-linecap:round; stroke-linejoin:round;">
<g >
</g>
<g style="fill:#840000; fill-opacity:0.0; 
stroke:#840000; stroke-width:0; stroke-opacity:1; 
stroke-linecap:round; stroke-linejoin:round;">
</g>
<g style="fill:#840000; fill-opacity:0.0; 
stroke:#840000; stroke-width:60; stroke-opacity:1; 
stroke-linecap:round; stroke-linejoin:round;">
<path style="fill:#840000; fill-opacity:0.0; 
stroke:#840000; stroke-width:60; stroke-opacity:1; 
stroke-linecap:round; stroke-linejoin:round;fill:none"
d="M 63000,38200
63500,38500
" /> 
<path style="fill:#840000; fill-opacity:0.0; 
stroke:#840000; stroke-width:60; stroke-opacity:1; 
stroke-linecap:round; stroke-linejoin:round;fill:none"
d="M 62500,38500
63500,38500
" /> 
<path style="fill:#840000; fill-opacity:0.0; 
stroke:#840000; stroke-width:60; stroke-opacity:1; 
stroke-linecap:round; stroke-linejoin:round;fill:none"
d="M 63500,38500
63000,38800
" /> 
</g>
<g style="fill:#008484; fill-opacity:0.0; 
stroke:#008484; stroke-width:60; stroke-opacity:1; 
stroke-linecap:round; stroke-linejoin:round;">
<text x="64530" y="38770"
textLength="2060" font-size="660" lengthAdjust="spacingAndGlyphs"
text-anchor="middle" opacity="0">+3V0</text>
<path d="M63640 38550
L64030 38550
" />
<path d="M63830 38740
L63830 38360
" />
<path d="M64220 38240
L64530 38240
L64360 38430
L64430 38430
L64480 38460
L64500 38480
L64530 38530
L64530 38650
L64500 38690
L64480 38720
L64430 38740
L64290 38740
L64240 38720
L64220 38690
" />
<path d="M64670 38240
L64830 38740
L65000 38240
" />
<path d="M65260 38240
L65310 38240
L65360 38270
L65380 38290
L65410 38340
L65430 38430
L65430 38550
L65410 38650
L65380 38690
L65360 38720
L65310 38740
L65260 38740
L65220 38720
L65190 38690
L65170 38650
L65140 38550
L65140 38430
L65170 38340
L65190 38290
L65220 38270
L65260 38240
" />
</g>
</g>
<g style="fill:#008484; fill-opacity:0.0; 
stroke:#008484; stroke-width:0; stroke-opacity:1; 
stroke-linecap:round; stroke-linejoin:round;">
<g >
</g>
<g style="fill:#840000; fill-opacity:0.0; 
stroke:#840000; stroke-width:0; stroke-opacity:1; 
stroke-linecap:round; stroke-linejoin:round;">
</g>
<g style="fill:#840000; fill-opacity:0.0; 
stroke:#840000; stroke-width:60; stroke-opacity:1; 
stroke-linecap:round; stroke-linejoin:round;">
<path style="fill:#840000; fill-opacity:0.0; 
stroke:#840000; stroke-width:60; stroke-opacity:1; 
stroke-linecap:round; stroke-linejoin:round;fill:none"
d="M 58700,44500
59000,44000
" /> 
<path style="fill:#840000; fill-opacity:0.0; 
stroke:#840000; stroke-width:60; stroke-opacity:1; 
stroke-linecap:round; stroke-linejoin:round;fill:none"
d="M 59000,45000
59000,44000
" /> 
<path style="fill:#840000; fill-opacity:0.0; 
stroke:#840000; stroke-width:60; stroke-opacity:1; 
stroke-linecap:round; stroke-linejoin:round;fill:none"
d="M 59000,44000
59300,44500
" /> 
</g>
<g style="fill:#008484; fill-opacity:0.0; 
stroke:#008484; stroke-width:60; stroke-opacity:1; 
stroke-linecap:round; stroke-linejoin:round;">
<text x="59150" y="43540"
textLength="2060" font-size="660" lengthAdjust="spacingAndGlyphs"
text-anchor="middle" opacity="0">+3V0</text>
<path d="M58260 43320
L58650 43320
" />
<path d="M58450 43510
L58450 43130
" />
<path d="M58840 43010
L59150 43010
L58980 43200
L59050 43200
L59100 43230
L59120 43250
L59150 43300
L59150 43420
L59120 43460
L59100 43490
L59050 43510
L58910 43510
L58860 43490
L58840 43460
" />
<path d="M59290 43010
L59450 43510
L59620 43010
" />
<path d="M59880 43010
L59930 43010
L59980 43040
L60000 43060
L60030 43110
L60050 43200
L60050 43320
L60030 43420
L60000 43460
L59980 43490
L59930 43510
L59880 43510
L59840 43490
L59810 43460
L59790 43420
L59760 43320
L59760 43200
L59790 43110
L59810 43060
L59840 43040
L59880 43010
" />
</g>
</g>
<g style="fill:#008484; fill-opacity:0.0; 
stroke:#008484; stroke-width:60; stroke-opacity:1; 
stroke-linecap:round; stroke-linejoin:round;">
</g>
<g style="fill:#008400; fill-opacity:0.0; 
stroke:#008400; stroke-width:60; stroke-opacity:1; 
stroke-linecap:round; stroke-linejoin:round;">
<path d="M62500 40500
L63500 40500
" />
<path d="M55500 39500
L54500 39500
" />
<path d="M55500 38500
L54500 38500
" />
</g>
<g style="fill:#840000; fill-opacity:0.0; 
stroke:#840000; stroke-width:60; stroke-opacity:1; 
stroke-linecap:round; stroke-linejoin:round;">
<text x="63600" y="40750"
textLength="2560" font-size="660" lengthAdjust="spacingAndGlyphs"
text-anchor="start" opacity="0">SDI_3V</text>
<path d="M63720 40700
L63790 40720
L63910 40720
L63960 40700
L63980 40670
L64010 40630
L64010 40580
L63980 40530
L63960 40510
L63910 40480
L63820 40460
L63770 40440
L63740 40410
L63720 40360
L63720 40320
L63740 40270
L63770 40250
L63820 40220
L63930 40220
L64010 40250
" />
<path d="M64220 40720
L64220 40220
L64340 40220
L64410 40250
L64460 40290
L64480 40340
L64510 40440
L64510 40510
L64480 40600
L64460 40650
L64410 40700
L64340 40720
L64220 40720
" />
<path d="M64720 40720
L64720 40220
" />
<path d="M64840 40770
L65220 40770
" />
<path d="M65290 40220
L65600 40220
L65430 40410
L65510 40410
L65550 40440
L65580 40460
L65600 40510
L65600 40630
L65580 40670
L65550 40700
L65510 40720
L65360 40720
L65320 40700
L65290 40670
" />
<path d="M65740 40220
L65910 40720
L66080 40220
" />
</g>
<g style="fill:#840000; fill-opacity:0.0; 
stroke:#840000; stroke-width:100; stroke-opacity:1; 
stroke-linecap:round; stroke-linejoin:round;">
<path style="fill:#840000; fill-opacity:0.0; 
stroke:#840000; stroke-width:100; stroke-opacity:1; 
stroke-linecap:round; stroke-linejoin:round;fill:none"
d="M 63500,40500
63500,40940
66230,40940
66480,40500
66230,40060
63500,40060
Z" /> 
</g>
<g style="fill:#840000; fill-opacity:0.0; 
stroke:#840000; stroke-width:60; stroke-opacity:1; 
stroke-linecap:round; stroke-linejoin:round;">
<text x="54190" y="38750"
textLength="2800" font-size="660" lengthAdjust="spacingAndGlyphs"
text-anchor="end" opacity="0">CS1_3V</text>
<path d="M51820 38670
L51800 38700
L51730 38720
L51680 38720
L51610 38700
L51560 38650
L51540 38600
L51510 38510
L51510 38440
L51540 38340
L51560 38290
L51610 38250
L51680 38220
L51730 38220
L51800 38250
L51820 38270
" />
<path d="M52010 38700
L52080 38720
L52200 38720
L52250 38700
L52270 38670
L52300 38630
L52300 38580
L52270 38530
L52250 38510
L52200 38480
L52110 38460
L52060 38440
L52040 38410
L52010 38360
L52010 38320
L52040 38270
L52060 38250
L52110 38220
L52230 38220
L52300 38250
" />
<path d="M52770 38720
L52490 38720
" />
<path d="M52630 38720
L52630 38220
L52580 38290
L52540 38340
L52490 38360
" />
<path d="M52870 38770
L53250 38770
" />
<path d="M53320 38220
L53630 38220
L53460 38410
L53540 38410
L53580 38440
L53610 38460
L53630 38510
L53630 38630
L53610 38670
L53580 38700
L53540 38720
L53390 38720
L53350 38700
L53320 38670
" />
<path d="M53770 38220
L53940 38720
L54110 38220
" />
</g>
<g style="fill:#840000; fill-opacity:0.0; 
stroke:#840000; stroke-width:100; stroke-opacity:1; 
stroke-linecap:round; stroke-linejoin:round;">
<path style="fill:#840000; fill-opacity:0.0; 
stroke:#840000; stroke-width:100; stroke-opacity:1; 
stroke-linecap:round; stroke-linejoin:round;fill:none"
d="M 54500,38500
54250,38060
51280,38060
51280,38500
51280,38940
54250,38940
Z" /> 
</g>
<g style="fill:#840000; fill-opacity:0.0; 
stroke:#840000; stroke-width:60; stroke-opacity:1; 
stroke-linecap:round; stroke-linejoin:round;">
<text x="54190" y="39750"
textLength="4490" font-size="660" lengthAdjust="spacingAndGlyphs"
text-anchor="end" opacity="0">SDI_BUFFER</text>
<path d="M49820 39700
L49890 39720
L50010 39720
L50060 39700
L50080 39670
L50110 39630
L50110 39580
L50080 39530
L50060 39510
L50010 39480
L49920 39460
L49870 39440
L49850 39410
L49820 39360
L49820 39320
L49850 39270
L49870 39250
L49920 39220
L50040 39220
L50110 39250
" />
<path d="M50320 39720
L50320 39220
L50440 39220
L50510 39250
L50560 39290
L50580 39340
L50610 39440
L50610 39510
L50580 39600
L50560 39650
L50510 39700
L50440 39720
L50320 39720
" />
<path d="M50820 39720
L50820 39220
" />
<path d="M50940 39770
L51320 39770
" />
<path d="M51610 39460
L51680 39480
L51700 39510
L51730 39550
L51730 39630
L51700 39670
L51680 39700
L51630 39720
L51440 39720
L51440 39220
L51610 39220
L51660 39250
L51680 39270
L51700 39320
L51700 39360
L51680 39410
L51660 39440
L51610 39460
L51440 39460
" />
<path d="M51940 39220
L51940 39630
L51960 39670
L51990 39700
L52040 39720
L52130 39720
L52180 39700
L52200 39670
L52230 39630
L52230 39220
" />
<path d="M52630 39460
L52460 39460
" />
<path d="M52460 39720
L52460 39220
L52700 39220
" />
<path d="M53060 39460
L52890 39460
" />
<path d="M52890 39720
L52890 39220
L53130 39220
" />
<path d="M53320 39460
L53490 39460
" />
<path d="M53560 39720
L53320 39720
L53320 39220
L53560 39220
" />
<path d="M54060 39720
L53890 39480
" />
<path d="M53770 39720
L53770 39220
L53960 39220
L54010 39250
L54040 39270
L54060 39320
L54060 39390
L54040 39440
L54010 39460
L53960 39480
L53770 39480
" />
</g>
<g style="fill:#840000; fill-opacity:0.0; 
stroke:#840000; stroke-width:100; stroke-opacity:1; 
stroke-linecap:round; stroke-linejoin:round;">
<path style="fill:#840000; fill-opacity:0.0; 
stroke:#840000; stroke-width:100; stroke-opacity:1; 
stroke-linecap:round; stroke-linejoin:round;fill:none"
d="M 54500,39500
54250,39060
49590,39060
49590,39500
49590,39940
54250,39940
Z" /> 
</g> 
</svg>
