<?xml version="1.0" standalone="no"?>
 <!DOCTYPE svg PUBLIC "-//W3C//DTD SVG 1.1//EN" 
 "http://www.w3.org/Graphics/SVG/1.1/DTD/svg11.dtd"> 
<svg
  xmlns:svg="http://www.w3.org/2000/svg"
  xmlns="http://www.w3.org/2000/svg"
  xmlns:xlink="http://www.w3.org/1999/xlink"
  version="1.1"
  width="29.700220cm" height="21.000720cm" viewBox="0 0 116930 82680">
<title>SVG Picture created as testpoints-Testpoints.svg date 2020/07/19 17:07:40 </title>
  <desc>Picture generated by Eeschema-SVG </desc>
<g style="fill:#000000; fill-opacity:1;stroke:#000000; stroke-opacity:1;
stroke-linecap:round; stroke-linejoin:round;"
 transform="translate(0 0) scale(1 1)">
</g>
<g style="fill:#000000; fill-opacity:0.0; 
stroke:#000000; stroke-width:-10; stroke-opacity:1; 
stroke-linecap:round; stroke-linejoin:round;">
</g>
<g style="fill:#840000; fill-opacity:0.0; 
stroke:#840000; stroke-width:-10; stroke-opacity:1; 
stroke-linecap:round; stroke-linejoin:round;">
</g>
<g style="fill:#840000; fill-opacity:0.0; 
stroke:#840000; stroke-width:100; stroke-opacity:1; 
stroke-linecap:round; stroke-linejoin:round;">
</g>
<g style="fill:#840000; fill-opacity:0.0; 
stroke:#840000; stroke-width:60; stroke-opacity:1; 
stroke-linecap:round; stroke-linejoin:round;">
<rect x="69690" y="65360" width="42520" height="12600" rx="0" />
</g>
<g style="fill:#840000; fill-opacity:0.0; 
stroke:#840000; stroke-width:100; stroke-opacity:1; 
stroke-linecap:round; stroke-linejoin:round;">
</g>
<g style="fill:#840000; fill-opacity:0.0; 
stroke:#840000; stroke-width:60; stroke-opacity:1; 
stroke-linecap:round; stroke-linejoin:round;">
<rect x="3940" y="3940" width="109050" height="74800" rx="0" />
</g>
<g style="fill:#840000; fill-opacity:0.0; 
stroke:#840000; stroke-width:100; stroke-opacity:1; 
stroke-linecap:round; stroke-linejoin:round;">
</g>
<g style="fill:#840000; fill-opacity:0.0; 
stroke:#840000; stroke-width:60; stroke-opacity:1; 
stroke-linecap:round; stroke-linejoin:round;">
<rect x="4720" y="4720" width="107490" height="73240" rx="0" />
</g>
<g style="fill:#840000; fill-opacity:0.0; 
stroke:#840000; stroke-width:100; stroke-opacity:1; 
stroke-linecap:round; stroke-linejoin:round;">
</g>
<g style="fill:#840000; fill-opacity:0.0; 
stroke:#840000; stroke-width:60; stroke-opacity:1; 
stroke-linecap:round; stroke-linejoin:round;">
<path d="M23620 4720
L23620 3940
" />
</g>
<g style="fill:#840000; fill-opacity:0.0; 
stroke:#840000; stroke-width:100; stroke-opacity:1; 
stroke-linecap:round; stroke-linejoin:round;">
</g>
<g style="fill:#840000; fill-opacity:0.0; 
stroke:#840000; stroke-width:60; stroke-opacity:1; 
stroke-linecap:round; stroke-linejoin:round;">
<path d="M43310 4720
L43310 3940
" />
</g>
<g style="fill:#840000; fill-opacity:0.0; 
stroke:#840000; stroke-width:100; stroke-opacity:1; 
stroke-linecap:round; stroke-linejoin:round;">
</g>
<g style="fill:#840000; fill-opacity:0.0; 
stroke:#840000; stroke-width:60; stroke-opacity:1; 
stroke-linecap:round; stroke-linejoin:round;">
<path d="M62990 4720
L62990 3940
" />
</g>
<g style="fill:#840000; fill-opacity:0.0; 
stroke:#840000; stroke-width:100; stroke-opacity:1; 
stroke-linecap:round; stroke-linejoin:round;">
</g>
<g style="fill:#840000; fill-opacity:0.0; 
stroke:#840000; stroke-width:60; stroke-opacity:1; 
stroke-linecap:round; stroke-linejoin:round;">
<path d="M82680 4720
L82680 3940
" />
</g>
<g style="fill:#840000; fill-opacity:0.0; 
stroke:#840000; stroke-width:100; stroke-opacity:1; 
stroke-linecap:round; stroke-linejoin:round;">
</g>
<g style="fill:#840000; fill-opacity:0.0; 
stroke:#840000; stroke-width:60; stroke-opacity:1; 
stroke-linecap:round; stroke-linejoin:round;">
<path d="M102360 4720
L102360 3940
" />
</g>
<g style="fill:#840000; fill-opacity:0.0; 
stroke:#840000; stroke-width:100; stroke-opacity:1; 
stroke-linecap:round; stroke-linejoin:round;">
</g>
<g style="fill:#840000; fill-opacity:0.0; 
stroke:#840000; stroke-width:60; stroke-opacity:1; 
stroke-linecap:round; stroke-linejoin:round;">
<text x="13780" y="4580"
textLength="550" font-size="680" lengthAdjust="spacingAndGlyphs"
text-anchor="start" opacity="0">1</text>
<path d="M14190 4560
L13900 4560
" />
<path d="M14050 4560
L14050 4050
L14000 4120
L13950 4170
L13900 4190
" />
</g>
<g style="fill:#840000; fill-opacity:0.0; 
stroke:#840000; stroke-width:100; stroke-opacity:1; 
stroke-linecap:round; stroke-linejoin:round;">
</g>
<g style="fill:#840000; fill-opacity:0.0; 
stroke:#840000; stroke-width:60; stroke-opacity:1; 
stroke-linecap:round; stroke-linejoin:round;">
<text x="33460" y="4580"
textLength="550" font-size="680" lengthAdjust="spacingAndGlyphs"
text-anchor="start" opacity="0">2</text>
<path d="M33580 4090
L33610 4070
L33660 4050
L33780 4050
L33830 4070
L33850 4090
L33870 4140
L33870 4190
L33850 4260
L33560 4560
L33870 4560
" />
</g>
<g style="fill:#840000; fill-opacity:0.0; 
stroke:#840000; stroke-width:100; stroke-opacity:1; 
stroke-linecap:round; stroke-linejoin:round;">
</g>
<g style="fill:#840000; fill-opacity:0.0; 
stroke:#840000; stroke-width:60; stroke-opacity:1; 
stroke-linecap:round; stroke-linejoin:round;">
<text x="53150" y="4580"
textLength="550" font-size="680" lengthAdjust="spacingAndGlyphs"
text-anchor="start" opacity="0">3</text>
<path d="M53250 4050
L53560 4050
L53390 4240
L53470 4240
L53520 4260
L53540 4290
L53560 4340
L53560 4460
L53540 4510
L53520 4530
L53470 4560
L53320 4560
L53270 4530
L53250 4510
" />
</g>
<g style="fill:#840000; fill-opacity:0.0; 
stroke:#840000; stroke-width:100; stroke-opacity:1; 
stroke-linecap:round; stroke-linejoin:round;">
</g>
<g style="fill:#840000; fill-opacity:0.0; 
stroke:#840000; stroke-width:60; stroke-opacity:1; 
stroke-linecap:round; stroke-linejoin:round;">
<text x="72830" y="4580"
textLength="550" font-size="680" lengthAdjust="spacingAndGlyphs"
text-anchor="start" opacity="0">4</text>
<path d="M73200 4220
L73200 4560
" />
<path d="M73070 4020
L72950 4390
L73270 4390
" />
</g>
<g style="fill:#840000; fill-opacity:0.0; 
stroke:#840000; stroke-width:100; stroke-opacity:1; 
stroke-linecap:round; stroke-linejoin:round;">
</g>
<g style="fill:#840000; fill-opacity:0.0; 
stroke:#840000; stroke-width:60; stroke-opacity:1; 
stroke-linecap:round; stroke-linejoin:round;">
<text x="92520" y="4580"
textLength="550" font-size="680" lengthAdjust="spacingAndGlyphs"
text-anchor="start" opacity="0">5</text>
<path d="M92910 4050
L92670 4050
L92640 4290
L92670 4260
L92720 4240
L92840 4240
L92890 4260
L92910 4290
L92930 4340
L92930 4460
L92910 4510
L92890 4530
L92840 4560
L92720 4560
L92670 4530
L92640 4510
" />
</g>
<g style="fill:#840000; fill-opacity:0.0; 
stroke:#840000; stroke-width:100; stroke-opacity:1; 
stroke-linecap:round; stroke-linejoin:round;">
</g>
<g style="fill:#840000; fill-opacity:0.0; 
stroke:#840000; stroke-width:60; stroke-opacity:1; 
stroke-linecap:round; stroke-linejoin:round;">
<text x="112200" y="4580"
textLength="550" font-size="680" lengthAdjust="spacingAndGlyphs"
text-anchor="start" opacity="0">6</text>
<path d="M112570 4050
L112470 4050
L112420 4070
L112400 4090
L112350 4170
L112320 4260
L112320 4460
L112350 4510
L112370 4530
L112420 4560
L112520 4560
L112570 4530
L112590 4510
L112610 4460
L112610 4340
L112590 4290
L112570 4260
L112520 4240
L112420 4240
L112370 4260
L112350 4290
L112320 4340
" />
</g>
<g style="fill:#840000; fill-opacity:0.0; 
stroke:#840000; stroke-width:100; stroke-opacity:1; 
stroke-linecap:round; stroke-linejoin:round;">
</g>
<g style="fill:#840000; fill-opacity:0.0; 
stroke:#840000; stroke-width:60; stroke-opacity:1; 
stroke-linecap:round; stroke-linejoin:round;">
<path d="M23620 77960
L23620 78740
" />
</g>
<g style="fill:#840000; fill-opacity:0.0; 
stroke:#840000; stroke-width:100; stroke-opacity:1; 
stroke-linecap:round; stroke-linejoin:round;">
</g>
<g style="fill:#840000; fill-opacity:0.0; 
stroke:#840000; stroke-width:60; stroke-opacity:1; 
stroke-linecap:round; stroke-linejoin:round;">
<path d="M43310 77960
L43310 78740
" />
</g>
<g style="fill:#840000; fill-opacity:0.0; 
stroke:#840000; stroke-width:100; stroke-opacity:1; 
stroke-linecap:round; stroke-linejoin:round;">
</g>
<g style="fill:#840000; fill-opacity:0.0; 
stroke:#840000; stroke-width:60; stroke-opacity:1; 
stroke-linecap:round; stroke-linejoin:round;">
<path d="M62990 77960
L62990 78740
" />
</g>
<g style="fill:#840000; fill-opacity:0.0; 
stroke:#840000; stroke-width:100; stroke-opacity:1; 
stroke-linecap:round; stroke-linejoin:round;">
</g>
<g style="fill:#840000; fill-opacity:0.0; 
stroke:#840000; stroke-width:60; stroke-opacity:1; 
stroke-linecap:round; stroke-linejoin:round;">
<path d="M82680 77960
L82680 78740
" />
</g>
<g style="fill:#840000; fill-opacity:0.0; 
stroke:#840000; stroke-width:100; stroke-opacity:1; 
stroke-linecap:round; stroke-linejoin:round;">
</g>
<g style="fill:#840000; fill-opacity:0.0; 
stroke:#840000; stroke-width:60; stroke-opacity:1; 
stroke-linecap:round; stroke-linejoin:round;">
<path d="M102360 77960
L102360 78740
" />
</g>
<g style="fill:#840000; fill-opacity:0.0; 
stroke:#840000; stroke-width:100; stroke-opacity:1; 
stroke-linecap:round; stroke-linejoin:round;">
</g>
<g style="fill:#840000; fill-opacity:0.0; 
stroke:#840000; stroke-width:60; stroke-opacity:1; 
stroke-linecap:round; stroke-linejoin:round;">
<text x="13780" y="78600"
textLength="550" font-size="680" lengthAdjust="spacingAndGlyphs"
text-anchor="start" opacity="0">1</text>
<path d="M14190 78580
L13900 78580
" />
<path d="M14050 78580
L14050 78070
L14000 78140
L13950 78190
L13900 78210
" />
</g>
<g style="fill:#840000; fill-opacity:0.0; 
stroke:#840000; stroke-width:100; stroke-opacity:1; 
stroke-linecap:round; stroke-linejoin:round;">
</g>
<g style="fill:#840000; fill-opacity:0.0; 
stroke:#840000; stroke-width:60; stroke-opacity:1; 
stroke-linecap:round; stroke-linejoin:round;">
<text x="33460" y="78600"
textLength="550" font-size="680" lengthAdjust="spacingAndGlyphs"
text-anchor="start" opacity="0">2</text>
<path d="M33580 78110
L33610 78090
L33660 78070
L33780 78070
L33830 78090
L33850 78110
L33870 78160
L33870 78210
L33850 78280
L33560 78580
L33870 78580
" />
</g>
<g style="fill:#840000; fill-opacity:0.0; 
stroke:#840000; stroke-width:100; stroke-opacity:1; 
stroke-linecap:round; stroke-linejoin:round;">
</g>
<g style="fill:#840000; fill-opacity:0.0; 
stroke:#840000; stroke-width:60; stroke-opacity:1; 
stroke-linecap:round; stroke-linejoin:round;">
<text x="53150" y="78600"
textLength="550" font-size="680" lengthAdjust="spacingAndGlyphs"
text-anchor="start" opacity="0">3</text>
<path d="M53250 78070
L53560 78070
L53390 78260
L53470 78260
L53520 78280
L53540 78310
L53560 78360
L53560 78480
L53540 78530
L53520 78550
L53470 78580
L53320 78580
L53270 78550
L53250 78530
" />
</g>
<g style="fill:#840000; fill-opacity:0.0; 
stroke:#840000; stroke-width:100; stroke-opacity:1; 
stroke-linecap:round; stroke-linejoin:round;">
</g>
<g style="fill:#840000; fill-opacity:0.0; 
stroke:#840000; stroke-width:60; stroke-opacity:1; 
stroke-linecap:round; stroke-linejoin:round;">
<text x="72830" y="78600"
textLength="550" font-size="680" lengthAdjust="spacingAndGlyphs"
text-anchor="start" opacity="0">4</text>
<path d="M73200 78240
L73200 78580
" />
<path d="M73070 78040
L72950 78410
L73270 78410
" />
</g>
<g style="fill:#840000; fill-opacity:0.0; 
stroke:#840000; stroke-width:100; stroke-opacity:1; 
stroke-linecap:round; stroke-linejoin:round;">
</g>
<g style="fill:#840000; fill-opacity:0.0; 
stroke:#840000; stroke-width:60; stroke-opacity:1; 
stroke-linecap:round; stroke-linejoin:round;">
<text x="92520" y="78600"
textLength="550" font-size="680" lengthAdjust="spacingAndGlyphs"
text-anchor="start" opacity="0">5</text>
<path d="M92910 78070
L92670 78070
L92640 78310
L92670 78280
L92720 78260
L92840 78260
L92890 78280
L92910 78310
L92930 78360
L92930 78480
L92910 78530
L92890 78550
L92840 78580
L92720 78580
L92670 78550
L92640 78530
" />
</g>
<g style="fill:#840000; fill-opacity:0.0; 
stroke:#840000; stroke-width:100; stroke-opacity:1; 
stroke-linecap:round; stroke-linejoin:round;">
</g>
<g style="fill:#840000; fill-opacity:0.0; 
stroke:#840000; stroke-width:60; stroke-opacity:1; 
stroke-linecap:round; stroke-linejoin:round;">
<text x="112200" y="78600"
textLength="550" font-size="680" lengthAdjust="spacingAndGlyphs"
text-anchor="start" opacity="0">6</text>
<path d="M112570 78070
L112470 78070
L112420 78090
L112400 78110
L112350 78190
L112320 78280
L112320 78480
L112350 78530
L112370 78550
L112420 78580
L112520 78580
L112570 78550
L112590 78530
L112610 78480
L112610 78360
L112590 78310
L112570 78280
L112520 78260
L112420 78260
L112370 78280
L112350 78310
L112320 78360
" />
</g>
<g style="fill:#840000; fill-opacity:0.0; 
stroke:#840000; stroke-width:100; stroke-opacity:1; 
stroke-linecap:round; stroke-linejoin:round;">
</g>
<g style="fill:#840000; fill-opacity:0.0; 
stroke:#840000; stroke-width:60; stroke-opacity:1; 
stroke-linecap:round; stroke-linejoin:round;">
<path d="M3940 23620
L4720 23620
" />
</g>
<g style="fill:#840000; fill-opacity:0.0; 
stroke:#840000; stroke-width:100; stroke-opacity:1; 
stroke-linecap:round; stroke-linejoin:round;">
</g>
<g style="fill:#840000; fill-opacity:0.0; 
stroke:#840000; stroke-width:60; stroke-opacity:1; 
stroke-linecap:round; stroke-linejoin:round;">
<path d="M3940 43310
L4720 43310
" />
</g>
<g style="fill:#840000; fill-opacity:0.0; 
stroke:#840000; stroke-width:100; stroke-opacity:1; 
stroke-linecap:round; stroke-linejoin:round;">
</g>
<g style="fill:#840000; fill-opacity:0.0; 
stroke:#840000; stroke-width:60; stroke-opacity:1; 
stroke-linecap:round; stroke-linejoin:round;">
<path d="M3940 62990
L4720 62990
" />
</g>
<g style="fill:#840000; fill-opacity:0.0; 
stroke:#840000; stroke-width:100; stroke-opacity:1; 
stroke-linecap:round; stroke-linejoin:round;">
</g>
<g style="fill:#840000; fill-opacity:0.0; 
stroke:#840000; stroke-width:60; stroke-opacity:1; 
stroke-linecap:round; stroke-linejoin:round;">
<text x="4330" y="14030"
textLength="500" font-size="680" lengthAdjust="spacingAndGlyphs"
text-anchor="middle" opacity="0">A</text>
<path d="M4200 13860
L4450 13860
" />
<path d="M4160 14010
L4330 13500
L4500 14010
" />
</g>
<g style="fill:#840000; fill-opacity:0.0; 
stroke:#840000; stroke-width:100; stroke-opacity:1; 
stroke-linecap:round; stroke-linejoin:round;">
</g>
<g style="fill:#840000; fill-opacity:0.0; 
stroke:#840000; stroke-width:60; stroke-opacity:1; 
stroke-linecap:round; stroke-linejoin:round;">
<text x="4330" y="33710"
textLength="570" font-size="680" lengthAdjust="spacingAndGlyphs"
text-anchor="middle" opacity="0">B</text>
<path d="M4360 33420
L4430 33440
L4460 33470
L4480 33520
L4480 33590
L4460 33640
L4430 33660
L4390 33690
L4190 33690
L4190 33180
L4360 33180
L4410 33200
L4430 33220
L4460 33270
L4460 33320
L4430 33370
L4410 33390
L4360 33420
L4190 33420
" />
</g>
<g style="fill:#840000; fill-opacity:0.0; 
stroke:#840000; stroke-width:100; stroke-opacity:1; 
stroke-linecap:round; stroke-linejoin:round;">
</g>
<g style="fill:#840000; fill-opacity:0.0; 
stroke:#840000; stroke-width:60; stroke-opacity:1; 
stroke-linecap:round; stroke-linejoin:round;">
<text x="4330" y="53400"
textLength="570" font-size="680" lengthAdjust="spacingAndGlyphs"
text-anchor="middle" opacity="0">C</text>
<path d="M4480 53330
L4460 53350
L4390 53380
L4340 53380
L4260 53350
L4220 53300
L4190 53250
L4170 53160
L4170 53080
L4190 52990
L4220 52940
L4260 52890
L4340 52870
L4390 52870
L4460 52890
L4480 52910
" />
</g>
<g style="fill:#840000; fill-opacity:0.0; 
stroke:#840000; stroke-width:100; stroke-opacity:1; 
stroke-linecap:round; stroke-linejoin:round;">
</g>
<g style="fill:#840000; fill-opacity:0.0; 
stroke:#840000; stroke-width:60; stroke-opacity:1; 
stroke-linecap:round; stroke-linejoin:round;">
<text x="4330" y="73080"
textLength="570" font-size="680" lengthAdjust="spacingAndGlyphs"
text-anchor="middle" opacity="0">D</text>
<path d="M4190 73060
L4190 72550
L4310 72550
L4390 72570
L4430 72620
L4460 72670
L4480 72760
L4480 72840
L4460 72930
L4430 72980
L4390 73030
L4310 73060
L4190 73060
" />
</g>
<g style="fill:#840000; fill-opacity:0.0; 
stroke:#840000; stroke-width:100; stroke-opacity:1; 
stroke-linecap:round; stroke-linejoin:round;">
</g>
<g style="fill:#840000; fill-opacity:0.0; 
stroke:#840000; stroke-width:60; stroke-opacity:1; 
stroke-linecap:round; stroke-linejoin:round;">
<path d="M112990 23620
L112210 23620
" />
</g>
<g style="fill:#840000; fill-opacity:0.0; 
stroke:#840000; stroke-width:100; stroke-opacity:1; 
stroke-linecap:round; stroke-linejoin:round;">
</g>
<g style="fill:#840000; fill-opacity:0.0; 
stroke:#840000; stroke-width:60; stroke-opacity:1; 
stroke-linecap:round; stroke-linejoin:round;">
<path d="M112990 43310
L112210 43310
" />
</g>
<g style="fill:#840000; fill-opacity:0.0; 
stroke:#840000; stroke-width:100; stroke-opacity:1; 
stroke-linecap:round; stroke-linejoin:round;">
</g>
<g style="fill:#840000; fill-opacity:0.0; 
stroke:#840000; stroke-width:60; stroke-opacity:1; 
stroke-linecap:round; stroke-linejoin:round;">
<path d="M112990 62990
L112210 62990
" />
</g>
<g style="fill:#840000; fill-opacity:0.0; 
stroke:#840000; stroke-width:100; stroke-opacity:1; 
stroke-linecap:round; stroke-linejoin:round;">
</g>
<g style="fill:#840000; fill-opacity:0.0; 
stroke:#840000; stroke-width:60; stroke-opacity:1; 
stroke-linecap:round; stroke-linejoin:round;">
<text x="112600" y="14030"
textLength="500" font-size="680" lengthAdjust="spacingAndGlyphs"
text-anchor="middle" opacity="0">A</text>
<path d="M112470 13860
L112720 13860
" />
<path d="M112430 14010
L112600 13500
L112770 14010
" />
</g>
<g style="fill:#840000; fill-opacity:0.0; 
stroke:#840000; stroke-width:100; stroke-opacity:1; 
stroke-linecap:round; stroke-linejoin:round;">
</g>
<g style="fill:#840000; fill-opacity:0.0; 
stroke:#840000; stroke-width:60; stroke-opacity:1; 
stroke-linecap:round; stroke-linejoin:round;">
<text x="112600" y="33710"
textLength="570" font-size="680" lengthAdjust="spacingAndGlyphs"
text-anchor="middle" opacity="0">B</text>
<path d="M112630 33420
L112700 33440
L112730 33470
L112750 33520
L112750 33590
L112730 33640
L112700 33660
L112660 33690
L112460 33690
L112460 33180
L112630 33180
L112680 33200
L112700 33220
L112730 33270
L112730 33320
L112700 33370
L112680 33390
L112630 33420
L112460 33420
" />
</g>
<g style="fill:#840000; fill-opacity:0.0; 
stroke:#840000; stroke-width:100; stroke-opacity:1; 
stroke-linecap:round; stroke-linejoin:round;">
</g>
<g style="fill:#840000; fill-opacity:0.0; 
stroke:#840000; stroke-width:60; stroke-opacity:1; 
stroke-linecap:round; stroke-linejoin:round;">
<text x="112600" y="53400"
textLength="570" font-size="680" lengthAdjust="spacingAndGlyphs"
text-anchor="middle" opacity="0">C</text>
<path d="M112750 53330
L112730 53350
L112660 53380
L112610 53380
L112530 53350
L112490 53300
L112460 53250
L112440 53160
L112440 53080
L112460 52990
L112490 52940
L112530 52890
L112610 52870
L112660 52870
L112730 52890
L112750 52910
" />
</g>
<g style="fill:#840000; fill-opacity:0.0; 
stroke:#840000; stroke-width:100; stroke-opacity:1; 
stroke-linecap:round; stroke-linejoin:round;">
</g>
<g style="fill:#840000; fill-opacity:0.0; 
stroke:#840000; stroke-width:60; stroke-opacity:1; 
stroke-linecap:round; stroke-linejoin:round;">
<text x="112600" y="73080"
textLength="570" font-size="680" lengthAdjust="spacingAndGlyphs"
text-anchor="middle" opacity="0">D</text>
<path d="M112460 73060
L112460 72550
L112580 72550
L112660 72570
L112700 72620
L112730 72670
L112750 72760
L112750 72840
L112730 72930
L112700 72980
L112660 73030
L112580 73060
L112460 73060
" />
</g>
<g style="fill:#840000; fill-opacity:0.0; 
stroke:#840000; stroke-width:100; stroke-opacity:1; 
stroke-linecap:round; stroke-linejoin:round;">
</g>
<g style="fill:#840000; fill-opacity:0.0; 
stroke:#840000; stroke-width:60; stroke-opacity:1; 
stroke-linecap:round; stroke-linejoin:round;">
<text x="78740" y="76320"
textLength="8710" font-size="780" lengthAdjust="spacingAndGlyphs"
text-anchor="start" opacity="0">Date: 2020-07-19</text>
<path d="M78910 76290
L78910 75700
L79050 75700
L79130 75730
L79190 75790
L79210 75840
L79240 75950
L79240 76040
L79210 76150
L79190 76210
L79130 76260
L79050 76290
L78910 76290
" />
<path d="M79750 76290
L79750 75980
L79720 75930
L79660 75900
L79550 75900
L79500 75930
" />
<path d="M79750 76260
L79690 76290
L79550 76290
L79500 76260
L79470 76210
L79470 76150
L79500 76100
L79550 76070
L79690 76070
L79750 76040
" />
<path d="M79950 75900
L80170 75900
" />
<path d="M80030 75700
L80030 76210
L80060 76260
L80110 76290
L80170 76290
" />
<path d="M80590 76260
L80540 76290
L80420 76290
L80370 76260
L80340 76210
L80340 75980
L80370 75930
L80420 75900
L80540 75900
L80590 75930
L80620 75980
L80620 76040
L80340 76100
" />
<path d="M80870 76240
L80900 76260
L80870 76290
L80840 76260
L80870 76240
L80870 76290
" />
<path d="M80870 75930
L80900 75950
L80870 75980
L80840 75950
L80870 75930
L80870 75980
" />
<path d="M81570 75760
L81600 75730
L81660 75700
L81800 75700
L81860 75730
L81880 75760
L81910 75810
L81910 75870
L81880 75950
L81550 76290
L81910 76290
" />
<path d="M82280 75700
L82330 75700
L82390 75730
L82420 75760
L82450 75810
L82470 75930
L82470 76070
L82450 76180
L82420 76240
L82390 76260
L82330 76290
L82280 76290
L82220 76260
L82190 76240
L82160 76180
L82140 76070
L82140 75930
L82160 75810
L82190 75760
L82220 75730
L82280 75700
" />
<path d="M82700 75760
L82730 75730
L82780 75700
L82920 75700
L82980 75730
L83010 75760
L83040 75810
L83040 75870
L83010 75950
L82670 76290
L83040 76290
" />
<path d="M83400 75700
L83460 75700
L83510 75730
L83540 75760
L83570 75810
L83600 75930
L83600 76070
L83570 76180
L83540 76240
L83510 76260
L83460 76290
L83400 76290
L83340 76260
L83320 76240
L83290 76180
L83260 76070
L83260 75930
L83290 75810
L83320 75760
L83340 75730
L83400 75700
" />
<path d="M83850 76070
L84300 76070
" />
<path d="M84690 75700
L84750 75700
L84810 75730
L84830 75760
L84860 75810
L84890 75930
L84890 76070
L84860 76180
L84830 76240
L84810 76260
L84750 76290
L84690 76290
L84640 76260
L84610 76240
L84580 76180
L84550 76070
L84550 75930
L84580 75810
L84610 75760
L84640 75730
L84690 75700
" />
<path d="M85090 75700
L85480 75700
L85230 76290
" />
<path d="M85700 76070
L86150 76070
" />
<path d="M86740 76290
L86410 76290
" />
<path d="M86580 76290
L86580 75700
L86520 75790
L86460 75840
L86410 75870
" />
<path d="M87030 76290
L87140 76290
L87190 76260
L87220 76240
L87280 76150
L87310 76040
L87310 75810
L87280 75760
L87250 75730
L87190 75700
L87080 75700
L87030 75730
L87000 75760
L86970 75810
L86970 75950
L87000 76010
L87030 76040
L87080 76070
L87190 76070
L87250 76040
L87280 76010
L87310 75950
" />
</g>
<g style="fill:#840000; fill-opacity:0.0; 
stroke:#840000; stroke-width:100; stroke-opacity:1; 
stroke-linecap:round; stroke-linejoin:round;">
</g>
<g style="fill:#840000; fill-opacity:0.0; 
stroke:#840000; stroke-width:60; stroke-opacity:1; 
stroke-linecap:round; stroke-linejoin:round;">
<path d="M69690 76580
L112210 76580
" />
</g>
<g style="fill:#840000; fill-opacity:0.0; 
stroke:#840000; stroke-width:100; stroke-opacity:1; 
stroke-linecap:round; stroke-linejoin:round;">
</g>
<g style="fill:#840000; fill-opacity:0.0; 
stroke:#840000; stroke-width:60; stroke-opacity:1; 
stroke-linecap:round; stroke-linejoin:round;">
<text x="70080" y="77420"
textLength="16950" font-size="780" lengthAdjust="spacingAndGlyphs"
text-anchor="start" opacity="0">KiCad E.D.A.  kicad (5.1.6-0-10_14)</text>
<path d="M70250 77390
L70250 76800
" />
<path d="M70580 77390
L70330 77050
" />
<path d="M70580 76800
L70250 77140
" />
<path d="M70840 77390
L70840 77000
" />
<path d="M70840 76800
L70810 76830
L70840 76860
L70860 76830
L70840 76800
L70840 76860
" />
<path d="M71450 77340
L71430 77360
L71340 77390
L71290 77390
L71200 77360
L71140 77310
L71120 77250
L71090 77140
L71090 77050
L71120 76940
L71140 76890
L71200 76830
L71290 76800
L71340 76800
L71430 76830
L71450 76860
" />
<path d="M71960 77390
L71960 77080
L71930 77030
L71880 77000
L71760 77000
L71710 77030
" />
<path d="M71960 77360
L71900 77390
L71760 77390
L71710 77360
L71680 77310
L71680 77250
L71710 77200
L71760 77170
L71900 77170
L71960 77140
" />
<path d="M72490 77390
L72490 76800
" />
<path d="M72490 77360
L72440 77390
L72320 77390
L72270 77360
L72240 77340
L72210 77280
L72210 77110
L72240 77050
L72270 77030
L72320 77000
L72440 77000
L72490 77030
" />
<path d="M73220 77080
L73420 77080
" />
<path d="M73500 77390
L73220 77390
L73220 76800
L73500 76800
" />
<path d="M73760 77340
L73790 77360
L73760 77390
L73730 77360
L73760 77340
L73760 77390
" />
<path d="M74040 77390
L74040 76800
L74180 76800
L74260 76830
L74320 76890
L74350 76940
L74380 77050
L74380 77140
L74350 77250
L74320 77310
L74260 77360
L74180 77390
L74040 77390
" />
<path d="M74630 77340
L74660 77360
L74630 77390
L74600 77360
L74630 77340
L74630 77390
" />
<path d="M74880 77220
L75160 77220
" />
<path d="M74830 77390
L75020 76800
L75220 77390
" />
<path d="M75420 77340
L75440 77360
L75420 77390
L75390 77360
L75420 77340
L75420 77390
" />
<path d="M76600 77390
L76600 76800
" />
<path d="M76650 77170
L76820 77390
" />
<path d="M76820 77000
L76600 77220
" />
<path d="M77070 77390
L77070 77000
" />
<path d="M77070 76800
L77040 76830
L77070 76860
L77100 76830
L77070 76800
L77070 76860
" />
<path d="M77610 77360
L77550 77390
L77440 77390
L77380 77360
L77350 77340
L77330 77280
L77330 77110
L77350 77050
L77380 77030
L77440 77000
L77550 77000
L77610 77030
" />
<path d="M78110 77390
L78110 77080
L78080 77030
L78030 77000
L77920 77000
L77860 77030
" />
<path d="M78110 77360
L78060 77390
L77920 77390
L77860 77360
L77830 77310
L77830 77250
L77860 77200
L77920 77170
L78060 77170
L78110 77140
" />
<path d="M78650 77390
L78650 76800
" />
<path d="M78650 77360
L78590 77390
L78480 77390
L78420 77360
L78390 77340
L78370 77280
L78370 77110
L78390 77050
L78420 77030
L78480 77000
L78590 77000
L78650 77030
" />
<path d="M79550 77620
L79520 77590
L79460 77500
L79430 77450
L79400 77360
L79380 77220
L79380 77110
L79400 76970
L79430 76890
L79460 76830
L79520 76750
L79550 76720
" />
<path d="M80050 76800
L79770 76800
L79740 77080
L79770 77050
L79830 77030
L79970 77030
L80020 77050
L80050 77080
L80080 77140
L80080 77280
L80050 77340
L80020 77360
L79970 77390
L79830 77390
L79770 77360
L79740 77340
" />
<path d="M80330 77340
L80360 77360
L80330 77390
L80300 77360
L80330 77340
L80330 77390
" />
<path d="M80920 77390
L80580 77390
" />
<path d="M80750 77390
L80750 76800
L80700 76890
L80640 76940
L80580 76970
" />
<path d="M81170 77340
L81200 77360
L81170 77390
L81150 77360
L81170 77340
L81170 77390
" />
<path d="M81710 76800
L81600 76800
L81540 76830
L81510 76860
L81460 76940
L81430 77050
L81430 77280
L81460 77340
L81480 77360
L81540 77390
L81650 77390
L81710 77360
L81740 77340
L81760 77280
L81760 77140
L81740 77080
L81710 77050
L81650 77030
L81540 77030
L81480 77050
L81460 77080
L81430 77140
" />
<path d="M82020 77170
L82470 77170
" />
<path d="M82860 76800
L82920 76800
L82970 76830
L83000 76860
L83030 76910
L83060 77030
L83060 77170
L83030 77280
L83000 77340
L82970 77360
L82920 77390
L82860 77390
L82800 77360
L82780 77340
L82750 77280
L82720 77170
L82720 77030
L82750 76910
L82780 76860
L82800 76830
L82860 76800
" />
<path d="M83310 77170
L83760 77170
" />
<path d="M84350 77390
L84010 77390
" />
<path d="M84180 77390
L84180 76800
L84120 76890
L84070 76940
L84010 76970
" />
<path d="M84710 76800
L84770 76800
L84830 76830
L84860 76860
L84880 76910
L84910 77030
L84910 77170
L84880 77280
L84860 77340
L84830 77360
L84770 77390
L84710 77390
L84660 77360
L84630 77340
L84600 77280
L84570 77170
L84570 77030
L84600 76910
L84630 76860
L84660 76830
L84710 76800
" />
<path d="M85020 77450
L85470 77450
" />
<path d="M85920 77390
L85590 77390
" />
<path d="M85750 77390
L85750 76800
L85700 76890
L85640 76940
L85590 76970
" />
<path d="M86430 77000
L86430 77390
" />
<path d="M86290 76770
L86150 77200
L86510 77200
" />
<path d="M86680 77620
L86710 77590
L86770 77500
L86790 77450
L86820 77360
L86850 77220
L86850 77110
L86820 76970
L86790 76890
L86770 76830
L86710 76750
L86680 76720
" />
</g>
<g style="fill:#840000; fill-opacity:0.0; 
stroke:#840000; stroke-width:100; stroke-opacity:1; 
stroke-linecap:round; stroke-linejoin:round;">
</g>
<g style="fill:#840000; fill-opacity:0.0; 
stroke:#840000; stroke-width:60; stroke-opacity:1; 
stroke-linecap:round; stroke-linejoin:round;">
<path d="M69690 75400
L112210 75400
" />
</g>
<g style="fill:#840000; fill-opacity:0.0; 
stroke:#840000; stroke-width:100; stroke-opacity:1; 
stroke-linecap:round; stroke-linejoin:round;">
</g>
<g style="fill:#840000; fill-opacity:0.0; 
stroke:#840000; stroke-width:120; stroke-opacity:1; 
stroke-linecap:round; stroke-linejoin:round;">
<text x="103540" y="76320"
textLength="5120" font-size="780" lengthAdjust="spacingAndGlyphs"
text-anchor="start" opacity="0">Rev: 2007E</text>
<path d="M104090 76290
L103890 76010
" />
<path d="M103750 76290
L103750 75700
L103980 75700
L104030 75730
L104060 75760
L104090 75810
L104090 75900
L104060 75950
L104030 75980
L103980 76010
L103750 76010
" />
<path d="M104570 76260
L104510 76290
L104400 76290
L104340 76260
L104320 76210
L104320 75980
L104340 75930
L104400 75900
L104510 75900
L104570 75930
L104600 75980
L104600 76040
L104320 76100
" />
<path d="M104790 75900
L104930 76290
L105070 75900
" />
<path d="M105300 76240
L105330 76260
L105300 76290
L105270 76260
L105300 76240
L105300 76290
" />
<path d="M105300 75930
L105330 75950
L105300 75980
L105270 75950
L105300 75930
L105300 75980
" />
<path d="M106000 75760
L106030 75730
L106090 75700
L106230 75700
L106280 75730
L106310 75760
L106340 75810
L106340 75870
L106310 75950
L105970 76290
L106340 76290
" />
<path d="M106700 75700
L106760 75700
L106820 75730
L106840 75760
L106870 75810
L106900 75930
L106900 76070
L106870 76180
L106840 76240
L106820 76260
L106760 76290
L106700 76290
L106650 76260
L106620 76240
L106590 76180
L106560 76070
L106560 75930
L106590 75810
L106620 75760
L106650 75730
L106700 75700
" />
<path d="M107270 75700
L107320 75700
L107380 75730
L107410 75760
L107430 75810
L107460 75930
L107460 76070
L107430 76180
L107410 76240
L107380 76260
L107320 76290
L107270 76290
L107210 76260
L107180 76240
L107150 76180
L107120 76070
L107120 75930
L107150 75810
L107180 75760
L107210 75730
L107270 75700
" />
<path d="M107660 75700
L108050 75700
L107800 76290
" />
<path d="M108280 75980
L108470 75980
" />
<path d="M108560 76290
L108280 76290
L108280 75700
L108560 75700
" />
</g>
<g style="fill:#840000; fill-opacity:0.0; 
stroke:#840000; stroke-width:100; stroke-opacity:1; 
stroke-linecap:round; stroke-linejoin:round;">
</g>
<g style="fill:#840000; fill-opacity:0.0; 
stroke:#840000; stroke-width:60; stroke-opacity:1; 
stroke-linecap:round; stroke-linejoin:round;">
<text x="70080" y="76320"
textLength="3780" font-size="780" lengthAdjust="spacingAndGlyphs"
text-anchor="start" opacity="0">Size: A4</text>
<path d="M70220 76260
L70300 76290
L70440 76290
L70500 76260
L70530 76240
L70550 76180
L70550 76120
L70530 76070
L70500 76040
L70440 76010
L70330 75980
L70270 75950
L70250 75930
L70220 75870
L70220 75810
L70250 75760
L70270 75730
L70330 75700
L70470 75700
L70550 75730
" />
<path d="M70810 76290
L70810 75900
" />
<path d="M70810 75700
L70780 75730
L70810 75760
L70840 75730
L70810 75700
L70810 75760
" />
<path d="M71030 75900
L71340 75900
L71030 76290
L71340 76290
" />
<path d="M71790 76260
L71730 76290
L71620 76290
L71570 76260
L71540 76210
L71540 75980
L71570 75930
L71620 75900
L71730 75900
L71790 75930
L71820 75980
L71820 76040
L71540 76100
" />
<path d="M72070 76240
L72100 76260
L72070 76290
L72040 76260
L72070 76240
L72070 76290
" />
<path d="M72070 75930
L72100 75950
L72070 75980
L72040 75950
L72070 75930
L72070 75980
" />
<path d="M72770 76120
L73060 76120
" />
<path d="M72720 76290
L72910 75700
L73110 76290
" />
<path d="M73560 75900
L73560 76290
" />
<path d="M73420 75670
L73280 76100
L73650 76100
" />
</g>
<g style="fill:#840000; fill-opacity:0.0; 
stroke:#840000; stroke-width:100; stroke-opacity:1; 
stroke-linecap:round; stroke-linejoin:round;">
</g>
<g style="fill:#840000; fill-opacity:0.0; 
stroke:#840000; stroke-width:60; stroke-opacity:1; 
stroke-linecap:round; stroke-linejoin:round;">
<text x="103540" y="77420"
textLength="3350" font-size="780" lengthAdjust="spacingAndGlyphs"
text-anchor="start" opacity="0">Id: 8/8</text>
<path d="M103710 77390
L103710 76800
" />
<path d="M104240 77390
L104240 76800
" />
<path d="M104240 77360
L104180 77390
L104070 77390
L104010 77360
L103990 77340
L103960 77280
L103960 77110
L103990 77050
L104010 77030
L104070 77000
L104180 77000
L104240 77030
" />
<path d="M104520 77340
L104550 77360
L104520 77390
L104490 77360
L104520 77340
L104520 77390
" />
<path d="M104520 77030
L104550 77050
L104520 77080
L104490 77050
L104520 77030
L104520 77080
" />
<path d="M105340 77050
L105280 77030
L105250 77000
L105220 76940
L105220 76910
L105250 76860
L105280 76830
L105340 76800
L105450 76800
L105500 76830
L105530 76860
L105560 76910
L105560 76940
L105530 77000
L105500 77030
L105450 77050
L105340 77050
L105280 77080
L105250 77110
L105220 77170
L105220 77280
L105250 77340
L105280 77360
L105340 77390
L105450 77390
L105500 77360
L105530 77340
L105560 77280
L105560 77170
L105530 77110
L105500 77080
L105450 77050
" />
<path d="M106230 76770
L105730 77530
" />
<path d="M106520 77050
L106460 77030
L106430 77000
L106400 76940
L106400 76910
L106430 76860
L106460 76830
L106520 76800
L106630 76800
L106680 76830
L106710 76860
L106740 76910
L106740 76940
L106710 77000
L106680 77030
L106630 77050
L106520 77050
L106460 77080
L106430 77110
L106400 77170
L106400 77280
L106430 77340
L106460 77360
L106520 77390
L106630 77390
L106680 77360
L106710 77340
L106740 77280
L106740 77170
L106710 77110
L106680 77080
L106630 77050
" />
</g>
<g style="fill:#840000; fill-opacity:0.0; 
stroke:#840000; stroke-width:100; stroke-opacity:1; 
stroke-linecap:round; stroke-linejoin:round;">
</g>
<g style="fill:#840000; fill-opacity:0.0; 
stroke:#840000; stroke-width:60; stroke-opacity:1; 
stroke-linecap:round; stroke-linejoin:round;">
<path d="M69690 73820
L112210 73820
" />
</g>
<g style="fill:#840000; fill-opacity:0.0; 
stroke:#840000; stroke-width:100; stroke-opacity:1; 
stroke-linecap:round; stroke-linejoin:round;">
</g>
<g style="fill:#840000; fill-opacity:0.0; 
stroke:#840000; stroke-width:160; stroke-opacity:1; 
stroke-linecap:round; stroke-linejoin:round;">
<text x="70080" y="74920"
textLength="19930" font-size="1050" lengthAdjust="spacingAndGlyphs"
text-anchor="start" opacity="0">Title: FT81x TFT040 Driver Board</text>
<path d="M70360 74090
L70810 74090
" />
<path d="M70480 74880
L70580 74090
" />
<path d="M70970 74880
L71040 74360
" />
<path d="M71070 74090
L71030 74130
L71060 74170
L71110 74130
L71070 74090
L71060 74170
" />
<path d="M71300 74360
L71600 74360
" />
<path d="M71450 74090
L71360 74770
L71390 74840
L71460 74880
L71540 74880
" />
<path d="M71910 74880
L71840 74840
L71820 74770
L71900 74090
" />
<path d="M72520 74840
L72440 74880
L72290 74880
L72220 74840
L72190 74770
L72230 74470
L72280 74390
L72360 74360
L72510 74360
L72580 74390
L72610 74470
L72600 74540
L72210 74620
" />
<path d="M72900 74810
L72930 74840
L72890 74880
L72860 74840
L72900 74810
L72890 74880
" />
<path d="M72950 74390
L72990 74430
L72940 74470
L72910 74430
L72950 74390
L72940 74470
" />
<path d="M74190 74470
L73920 74470
" />
<path d="M73870 74880
L73970 74090
L74350 74090
" />
<path d="M74530 74090
L74980 74090
" />
<path d="M74660 74880
L74760 74090
" />
<path d="M75320 74430
L75250 74390
L75220 74360
L75190 74280
L75190 74240
L75240 74170
L75280 74130
L75360 74090
L75510 74090
L75580 74130
L75610 74170
L75640 74240
L75640 74280
L75590 74360
L75550 74390
L75470 74430
L75320 74430
L75240 74470
L75200 74510
L75150 74580
L75130 74730
L75160 74810
L75190 74840
L75260 74880
L75410 74880
L75490 74840
L75540 74810
L75580 74730
L75600 74580
L75570 74510
L75540 74470
L75470 74430
" />
<path d="M76320 74880
L75860 74880
" />
<path d="M76090 74880
L76190 74090
L76100 74210
L76010 74280
L75930 74320
" />
<path d="M76580 74880
L77060 74360
" />
<path d="M76640 74360
L76990 74880
" />
<path d="M77880 74090
L78330 74090
" />
<path d="M78010 74880
L78110 74090
" />
<path d="M78810 74470
L78550 74470
" />
<path d="M78500 74880
L78600 74090
L78970 74090
" />
<path d="M79160 74090
L79610 74090
" />
<path d="M79290 74880
L79390 74090
" />
<path d="M80030 74090
L80100 74090
L80170 74130
L80200 74170
L80230 74240
L80250 74390
L80230 74580
L80170 74730
L80120 74810
L80080 74840
L80000 74880
L79930 74880
L79860 74840
L79820 74810
L79800 74730
L79780 74580
L79800 74390
L79860 74240
L79900 74170
L79950 74130
L80030 74090
" />
<path d="M80930 74360
L80870 74880
" />
<path d="M80780 74050
L80520 74620
L81010 74620
" />
<path d="M81530 74090
L81610 74090
L81680 74130
L81710 74170
L81740 74240
L81760 74390
L81730 74580
L81680 74730
L81630 74810
L81590 74840
L81510 74880
L81430 74880
L81360 74840
L81330 74810
L81300 74730
L81280 74580
L81300 74390
L81360 74240
L81410 74170
L81450 74130
L81530 74090
" />
<path d="M82640 74880
L82730 74090
L82920 74090
L83030 74130
L83100 74210
L83120 74280
L83140 74430
L83130 74540
L83070 74690
L83030 74770
L82940 74840
L82820 74880
L82640 74880
" />
<path d="M83430 74880
L83490 74360
" />
<path d="M83470 74510
L83520 74430
L83560 74390
L83640 74360
L83720 74360
" />
<path d="M83910 74880
L83980 74360
" />
<path d="M84010 74090
L83970 74130
L84000 74170
L84050 74130
L84010 74090
L84000 74170
" />
<path d="M84280 74360
L84400 74880
L84660 74360
" />
<path d="M85200 74840
L85120 74880
L84970 74880
L84900 74840
L84870 74770
L84910 74470
L84950 74390
L85030 74360
L85180 74360
L85250 74390
L85280 74470
L85270 74540
L84890 74620
" />
<path d="M85570 74880
L85640 74360
" />
<path d="M85620 74510
L85660 74430
L85710 74390
L85790 74360
L85860 74360
" />
<path d="M86980 74470
L87080 74510
L87120 74540
L87150 74620
L87130 74730
L87080 74810
L87040 74840
L86960 74880
L86660 74880
L86760 74090
L87020 74090
L87090 74130
L87130 74170
L87150 74240
L87150 74320
L87100 74390
L87060 74430
L86980 74470
L86710 74470
" />
<path d="M87560 74880
L87490 74840
L87460 74810
L87430 74730
L87460 74510
L87510 74430
L87550 74390
L87630 74360
L87740 74360
L87810 74390
L87850 74430
L87870 74510
L87850 74730
L87800 74810
L87760 74840
L87680 74880
L87560 74880
" />
<path d="M88500 74880
L88560 74470
L88530 74390
L88460 74360
L88310 74360
L88230 74390
" />
<path d="M88510 74840
L88430 74880
L88240 74880
L88170 74840
L88140 74770
L88150 74690
L88200 74620
L88280 74580
L88470 74580
L88550 74540
" />
<path d="M88880 74880
L88950 74360
" />
<path d="M88930 74510
L88970 74430
L89020 74390
L89100 74360
L89170 74360
" />
<path d="M89710 74880
L89810 74090
" />
<path d="M89710 74840
L89630 74880
L89480 74880
L89410 74840
L89380 74810
L89350 74730
L89380 74510
L89430 74430
L89470 74390
L89550 74360
L89700 74360
L89770 74390
" />
</g>
<g style="fill:#840000; fill-opacity:0.0; 
stroke:#840000; stroke-width:100; stroke-opacity:1; 
stroke-linecap:round; stroke-linejoin:round;">
</g>
<g style="fill:#840000; fill-opacity:0.0; 
stroke:#840000; stroke-width:60; stroke-opacity:1; 
stroke-linecap:round; stroke-linejoin:round;">
<text x="70080" y="73400"
textLength="8690" font-size="780" lengthAdjust="spacingAndGlyphs"
text-anchor="start" opacity="0">File: testpoints.sch</text>
<path d="M70440 73060
L70250 73060
" />
<path d="M70250 73370
L70250 72780
L70530 72780
" />
<path d="M70750 73370
L70750 72980
" />
<path d="M70750 72780
L70720 72810
L70750 72840
L70780 72810
L70750 72780
L70750 72840
" />
<path d="M71120 73370
L71060 73340
L71030 73290
L71030 72780
" />
<path d="M71570 73340
L71510 73370
L71400 73370
L71340 73340
L71310 73290
L71310 73060
L71340 73010
L71400 72980
L71510 72980
L71570 73010
L71590 73060
L71590 73120
L71310 73180
" />
<path d="M71850 73320
L71880 73340
L71850 73370
L71820 73340
L71850 73320
L71850 73370
" />
<path d="M71850 73010
L71880 73030
L71850 73060
L71820 73030
L71850 73010
L71850 73060
" />
<path d="M72490 72980
L72720 72980
" />
<path d="M72580 72780
L72580 73290
L72610 73340
L72660 73370
L72720 73370
" />
<path d="M73140 73340
L73080 73370
L72970 73370
L72910 73340
L72890 73290
L72890 73060
L72910 73010
L72970 72980
L73080 72980
L73140 73010
L73170 73060
L73170 73120
L72890 73180
" />
<path d="M73390 73340
L73450 73370
L73560 73370
L73620 73340
L73650 73290
L73650 73260
L73620 73200
L73560 73180
L73480 73180
L73420 73150
L73390 73090
L73390 73060
L73420 73010
L73480 72980
L73560 72980
L73620 73010
" />
<path d="M73810 72980
L74040 72980
" />
<path d="M73900 72780
L73900 73290
L73930 73340
L73980 73370
L74040 73370
" />
<path d="M74240 72980
L74240 73570
" />
<path d="M74240 73010
L74290 72980
L74400 72980
L74460 73010
L74490 73030
L74520 73090
L74520 73260
L74490 73320
L74460 73340
L74400 73370
L74290 73370
L74240 73340
" />
<path d="M74850 73370
L74800 73340
L74770 73320
L74740 73260
L74740 73090
L74770 73030
L74800 73010
L74850 72980
L74940 72980
L74990 73010
L75020 73030
L75050 73090
L75050 73260
L75020 73320
L74990 73340
L74940 73370
L74850 73370
" />
<path d="M75300 73370
L75300 72980
" />
<path d="M75300 72780
L75270 72810
L75300 72840
L75330 72810
L75300 72780
L75300 72840
" />
<path d="M75580 72980
L75580 73370
" />
<path d="M75580 73030
L75610 73010
L75670 72980
L75750 72980
L75810 73010
L75840 73060
L75840 73370
" />
<path d="M76030 72980
L76260 72980
" />
<path d="M76120 72780
L76120 73290
L76150 73340
L76200 73370
L76260 73370
" />
<path d="M76430 73340
L76480 73370
L76600 73370
L76650 73340
L76680 73290
L76680 73260
L76650 73200
L76600 73180
L76510 73180
L76450 73150
L76430 73090
L76430 73060
L76450 73010
L76510 72980
L76600 72980
L76650 73010
" />
<path d="M76930 73320
L76960 73340
L76930 73370
L76900 73340
L76930 73320
L76930 73370
" />
<path d="M77190 73340
L77240 73370
L77350 73370
L77410 73340
L77440 73290
L77440 73260
L77410 73200
L77350 73180
L77270 73180
L77210 73150
L77190 73090
L77190 73060
L77210 73010
L77270 72980
L77350 72980
L77410 73010
" />
<path d="M77940 73340
L77890 73370
L77780 73370
L77720 73340
L77690 73320
L77660 73260
L77660 73090
L77690 73030
L77720 73010
L77780 72980
L77890 72980
L77940 73010
" />
<path d="M78200 73370
L78200 72780
" />
<path d="M78450 73370
L78450 73060
L78420 73010
L78370 72980
L78280 72980
L78220 73010
L78200 73030
" />
</g>
<g style="fill:#840000; fill-opacity:0.0; 
stroke:#840000; stroke-width:100; stroke-opacity:1; 
stroke-linecap:round; stroke-linejoin:round;">
</g>
<g style="fill:#840000; fill-opacity:0.0; 
stroke:#840000; stroke-width:60; stroke-opacity:1; 
stroke-linecap:round; stroke-linejoin:round;">
<path d="M69690 71460
L112210 71460
" />
</g>
<g style="fill:#840000; fill-opacity:0.0; 
stroke:#840000; stroke-width:100; stroke-opacity:1; 
stroke-linecap:round; stroke-linejoin:round;">
</g>
<g style="fill:#840000; fill-opacity:0.0; 
stroke:#840000; stroke-width:60; stroke-opacity:1; 
stroke-linecap:round; stroke-linejoin:round;">
<text x="70080" y="72340"
textLength="8940" font-size="780" lengthAdjust="spacingAndGlyphs"
text-anchor="start" opacity="0">Sheet: /Testpoints/</text>
<path d="M70220 72280
L70300 72310
L70440 72310
L70500 72280
L70530 72260
L70550 72200
L70550 72140
L70530 72090
L70500 72060
L70440 72030
L70330 72000
L70270 71970
L70250 71950
L70220 71890
L70220 71830
L70250 71780
L70270 71750
L70330 71720
L70470 71720
L70550 71750
" />
<path d="M70810 72310
L70810 71720
" />
<path d="M71060 72310
L71060 72000
L71030 71950
L70980 71920
L70890 71920
L70840 71950
L70810 71970
" />
<path d="M71570 72280
L71510 72310
L71400 72310
L71340 72280
L71310 72230
L71310 72000
L71340 71950
L71400 71920
L71510 71920
L71570 71950
L71590 72000
L71590 72060
L71310 72120
" />
<path d="M72070 72280
L72020 72310
L71900 72310
L71850 72280
L71820 72230
L71820 72000
L71850 71950
L71900 71920
L72020 71920
L72070 71950
L72100 72000
L72100 72060
L71820 72120
" />
<path d="M72270 71920
L72490 71920
" />
<path d="M72350 71720
L72350 72230
L72380 72280
L72440 72310
L72490 72310
" />
<path d="M72690 72260
L72720 72280
L72690 72310
L72660 72280
L72690 72260
L72690 72310
" />
<path d="M72690 71950
L72720 71970
L72690 72000
L72660 71970
L72690 71950
L72690 72000
" />
<path d="M73840 71690
L73340 72450
" />
<path d="M73950 71720
L74290 71720
" />
<path d="M74120 72310
L74120 71720
" />
<path d="M74710 72280
L74660 72310
L74540 72310
L74490 72280
L74460 72230
L74460 72000
L74490 71950
L74540 71920
L74660 71920
L74710 71950
L74740 72000
L74740 72060
L74460 72120
" />
<path d="M74970 72280
L75020 72310
L75130 72310
L75190 72280
L75220 72230
L75220 72200
L75190 72140
L75130 72120
L75050 72120
L74990 72090
L74970 72030
L74970 72000
L74990 71950
L75050 71920
L75130 71920
L75190 71950
" />
<path d="M75390 71920
L75610 71920
" />
<path d="M75470 71720
L75470 72230
L75500 72280
L75560 72310
L75610 72310
" />
<path d="M75810 71920
L75810 72510
" />
<path d="M75810 71950
L75860 71920
L75980 71920
L76030 71950
L76060 71970
L76090 72030
L76090 72200
L76060 72260
L76030 72280
L75980 72310
L75860 72310
L75810 72280
" />
<path d="M76430 72310
L76370 72280
L76340 72260
L76310 72200
L76310 72030
L76340 71970
L76370 71950
L76430 71920
L76510 71920
L76570 71950
L76600 71970
L76620 72030
L76620 72200
L76600 72260
L76570 72280
L76510 72310
L76430 72310
" />
<path d="M76880 72310
L76880 71920
" />
<path d="M76880 71720
L76850 71750
L76880 71780
L76900 71750
L76880 71720
L76880 71780
" />
<path d="M77160 71920
L77160 72310
" />
<path d="M77160 71970
L77190 71950
L77240 71920
L77330 71920
L77380 71950
L77410 72000
L77410 72310
" />
<path d="M77610 71920
L77830 71920
" />
<path d="M77690 71720
L77690 72230
L77720 72280
L77780 72310
L77830 72310
" />
<path d="M78000 72280
L78060 72310
L78170 72310
L78220 72280
L78250 72230
L78250 72200
L78220 72140
L78170 72120
L78080 72120
L78030 72090
L78000 72030
L78000 72000
L78030 71950
L78080 71920
L78170 71920
L78220 71950
" />
<path d="M78930 71690
L78420 72450
" />
</g>
<g style="fill:#840000; fill-opacity:0.0; 
stroke:#840000; stroke-width:100; stroke-opacity:1; 
stroke-linecap:round; stroke-linejoin:round;">
</g>
<g style="fill:#840000; fill-opacity:0.0; 
stroke:#840000; stroke-width:60; stroke-opacity:1; 
stroke-linecap:round; stroke-linejoin:round;">
<path d="M77560 75400
L77560 76580
" />
</g>
<g style="fill:#840000; fill-opacity:0.0; 
stroke:#840000; stroke-width:100; stroke-opacity:1; 
stroke-linecap:round; stroke-linejoin:round;">
</g>
<g style="fill:#840000; fill-opacity:0.0; 
stroke:#840000; stroke-width:60; stroke-opacity:1; 
stroke-linecap:round; stroke-linejoin:round;">
<path d="M102760 75400
L102760 77960
" />
</g>
<g style="fill:#840000; fill-opacity:0.0; 
stroke:#840000; stroke-width:0; stroke-opacity:1; 
stroke-linecap:round; stroke-linejoin:round;">
<g >
</g>
<g style="fill:#840000; fill-opacity:0.0; 
stroke:#840000; stroke-width:60; stroke-opacity:1; 
stroke-linecap:round; stroke-linejoin:round;">
<circle cx="51200" cy="26500" r="300" /> 
<path d="M51500 26500
L52500 26500
" />
</g>
<g style="fill:#008484; fill-opacity:0.0; 
stroke:#008484; stroke-width:60; stroke-opacity:1; 
stroke-linecap:round; stroke-linejoin:round;">
<text x="49000" y="26720"
textLength="1420" font-size="660" lengthAdjust="spacingAndGlyphs"
text-anchor="middle" opacity="0">TP1</text>
<path d="M48360 26190
L48650 26190
" />
<path d="M48510 26690
L48510 26190
" />
<path d="M48820 26690
L48820 26190
L49010 26190
L49050 26220
L49080 26240
L49100 26290
L49100 26360
L49080 26410
L49050 26430
L49010 26450
L48820 26450
" />
<path d="M49580 26690
L49290 26690
" />
<path d="M49440 26690
L49440 26190
L49390 26260
L49340 26310
L49290 26330
" />
</g>
</g>
<g style="fill:#008484; fill-opacity:0.0; 
stroke:#008484; stroke-width:0; stroke-opacity:1; 
stroke-linecap:round; stroke-linejoin:round;">
<g >
</g>
<g style="fill:#840000; fill-opacity:0.0; 
stroke:#840000; stroke-width:0; stroke-opacity:1; 
stroke-linecap:round; stroke-linejoin:round;">
</g>
<g style="fill:#840000; fill-opacity:0.0; 
stroke:#840000; stroke-width:60; stroke-opacity:1; 
stroke-linecap:round; stroke-linejoin:round;">
<path style="fill:#840000; fill-opacity:0.0; 
stroke:#840000; stroke-width:60; stroke-opacity:1; 
stroke-linecap:round; stroke-linejoin:round;fill:none"
d="M 53000,26200
53500,26500
" /> 
<path style="fill:#840000; fill-opacity:0.0; 
stroke:#840000; stroke-width:60; stroke-opacity:1; 
stroke-linecap:round; stroke-linejoin:round;fill:none"
d="M 52500,26500
53500,26500
" /> 
<path style="fill:#840000; fill-opacity:0.0; 
stroke:#840000; stroke-width:60; stroke-opacity:1; 
stroke-linecap:round; stroke-linejoin:round;fill:none"
d="M 53500,26500
53000,26800
" /> 
</g>
<g style="fill:#008484; fill-opacity:0.0; 
stroke:#008484; stroke-width:60; stroke-opacity:1; 
stroke-linecap:round; stroke-linejoin:round;">
<text x="54530" y="26770"
textLength="2060" font-size="660" lengthAdjust="spacingAndGlyphs"
text-anchor="middle" opacity="0">+12V</text>
<path d="M53640 26550
L54030 26550
" />
<path d="M53830 26740
L53830 26360
" />
<path d="M54530 26740
L54240 26740
" />
<path d="M54380 26740
L54380 26240
L54330 26310
L54290 26360
L54240 26380
" />
<path d="M54720 26290
L54740 26270
L54790 26240
L54910 26240
L54950 26270
L54980 26290
L55000 26340
L55000 26380
L54980 26460
L54690 26740
L55000 26740
" />
<path d="M55140 26240
L55310 26740
L55480 26240
" />
</g>
</g>
<g style="fill:#008484; fill-opacity:0.0; 
stroke:#008484; stroke-width:0; stroke-opacity:1; 
stroke-linecap:round; stroke-linejoin:round;">
<g >
</g>
<g style="fill:#840000; fill-opacity:0.0; 
stroke:#840000; stroke-width:0; stroke-opacity:1; 
stroke-linecap:round; stroke-linejoin:round;">
</g>
<g style="fill:#840000; fill-opacity:0.0; 
stroke:#840000; stroke-width:60; stroke-opacity:1; 
stroke-linecap:round; stroke-linejoin:round;">
<circle cx="51200" cy="28000" r="300" /> 
<path d="M51500 28000
L52500 28000
" />
</g>
<g style="fill:#008484; fill-opacity:0.0; 
stroke:#008484; stroke-width:60; stroke-opacity:1; 
stroke-linecap:round; stroke-linejoin:round;">
<text x="49000" y="28220"
textLength="1420" font-size="660" lengthAdjust="spacingAndGlyphs"
text-anchor="middle" opacity="0">TP3</text>
<path d="M48360 27690
L48650 27690
" />
<path d="M48510 28190
L48510 27690
" />
<path d="M48820 28190
L48820 27690
L49010 27690
L49050 27720
L49080 27740
L49100 27790
L49100 27860
L49080 27910
L49050 27930
L49010 27950
L48820 27950
" />
<path d="M49270 27690
L49580 27690
L49410 27880
L49480 27880
L49530 27910
L49550 27930
L49580 27980
L49580 28100
L49550 28140
L49530 28170
L49480 28190
L49340 28190
L49290 28170
L49270 28140
" />
</g>
</g>
<g style="fill:#008484; fill-opacity:0.0; 
stroke:#008484; stroke-width:0; stroke-opacity:1; 
stroke-linecap:round; stroke-linejoin:round;">
<g >
</g>
<g style="fill:#840000; fill-opacity:0.0; 
stroke:#840000; stroke-width:0; stroke-opacity:1; 
stroke-linecap:round; stroke-linejoin:round;">
</g>
<g style="fill:#840000; fill-opacity:0.0; 
stroke:#840000; stroke-width:60; stroke-opacity:1; 
stroke-linecap:round; stroke-linejoin:round;">
<path style="fill:#840000; fill-opacity:0.0; 
stroke:#840000; stroke-width:60; stroke-opacity:1; 
stroke-linecap:round; stroke-linejoin:round;fill:none"
d="M 53000,27700
53500,28000
" /> 
<path style="fill:#840000; fill-opacity:0.0; 
stroke:#840000; stroke-width:60; stroke-opacity:1; 
stroke-linecap:round; stroke-linejoin:round;fill:none"
d="M 52500,28000
53500,28000
" /> 
<path style="fill:#840000; fill-opacity:0.0; 
stroke:#840000; stroke-width:60; stroke-opacity:1; 
stroke-linecap:round; stroke-linejoin:round;fill:none"
d="M 53500,28000
53000,28300
" /> 
</g>
<g style="fill:#008484; fill-opacity:0.0; 
stroke:#008484; stroke-width:60; stroke-opacity:1; 
stroke-linecap:round; stroke-linejoin:round;">
<text x="54650" y="28270"
textLength="2300" font-size="660" lengthAdjust="spacingAndGlyphs"
text-anchor="middle" opacity="0">+3.3V</text>
<path d="M53650 28050
L54030 28050
" />
<path d="M53840 28240
L53840 27860
" />
<path d="M54220 27740
L54530 27740
L54360 27930
L54430 27930
L54480 27960
L54500 27980
L54530 28030
L54530 28150
L54500 28190
L54480 28220
L54430 28240
L54290 28240
L54240 28220
L54220 28190
" />
<path d="M54740 28190
L54760 28220
L54740 28240
L54720 28220
L54740 28190
L54740 28240
" />
<path d="M54930 27740
L55240 27740
L55070 27930
L55150 27930
L55190 27960
L55220 27980
L55240 28030
L55240 28150
L55220 28190
L55190 28220
L55150 28240
L55000 28240
L54950 28220
L54930 28190
" />
<path d="M55380 27740
L55550 28240
L55720 27740
" />
</g>
</g>
<g style="fill:#008484; fill-opacity:0.0; 
stroke:#008484; stroke-width:0; stroke-opacity:1; 
stroke-linecap:round; stroke-linejoin:round;">
<g >
</g>
<g style="fill:#840000; fill-opacity:0.0; 
stroke:#840000; stroke-width:0; stroke-opacity:1; 
stroke-linecap:round; stroke-linejoin:round;">
</g>
<g style="fill:#840000; fill-opacity:0.0; 
stroke:#840000; stroke-width:60; stroke-opacity:1; 
stroke-linecap:round; stroke-linejoin:round;">
<circle cx="51200" cy="29500" r="300" /> 
<path d="M51500 29500
L52500 29500
" />
</g>
<g style="fill:#008484; fill-opacity:0.0; 
stroke:#008484; stroke-width:60; stroke-opacity:1; 
stroke-linecap:round; stroke-linejoin:round;">
<text x="49000" y="29720"
textLength="1420" font-size="660" lengthAdjust="spacingAndGlyphs"
text-anchor="middle" opacity="0">TP5</text>
<path d="M48360 29190
L48650 29190
" />
<path d="M48510 29690
L48510 29190
" />
<path d="M48820 29690
L48820 29190
L49010 29190
L49050 29220
L49080 29240
L49100 29290
L49100 29360
L49080 29410
L49050 29430
L49010 29450
L48820 29450
" />
<path d="M49550 29190
L49320 29190
L49290 29430
L49320 29410
L49360 29380
L49480 29380
L49530 29410
L49550 29430
L49580 29480
L49580 29600
L49550 29640
L49530 29670
L49480 29690
L49360 29690
L49320 29670
L49290 29640
" />
</g>
</g>
<g style="fill:#008484; fill-opacity:0.0; 
stroke:#008484; stroke-width:0; stroke-opacity:1; 
stroke-linecap:round; stroke-linejoin:round;">
<g >
</g>
<g style="fill:#840000; fill-opacity:0.0; 
stroke:#840000; stroke-width:0; stroke-opacity:1; 
stroke-linecap:round; stroke-linejoin:round;">
</g>
<g style="fill:#840000; fill-opacity:0.0; 
stroke:#840000; stroke-width:60; stroke-opacity:1; 
stroke-linecap:round; stroke-linejoin:round;">
<path style="fill:#840000; fill-opacity:0.0; 
stroke:#840000; stroke-width:60; stroke-opacity:1; 
stroke-linecap:round; stroke-linejoin:round;fill:none"
d="M 53000,29200
53500,29500
" /> 
<path style="fill:#840000; fill-opacity:0.0; 
stroke:#840000; stroke-width:60; stroke-opacity:1; 
stroke-linecap:round; stroke-linejoin:round;fill:none"
d="M 52500,29500
53500,29500
" /> 
<path style="fill:#840000; fill-opacity:0.0; 
stroke:#840000; stroke-width:60; stroke-opacity:1; 
stroke-linecap:round; stroke-linejoin:round;fill:none"
d="M 53500,29500
53000,29800
" /> 
</g>
<g style="fill:#008484; fill-opacity:0.0; 
stroke:#008484; stroke-width:60; stroke-opacity:1; 
stroke-linecap:round; stroke-linejoin:round;">
<text x="54530" y="29770"
textLength="2060" font-size="660" lengthAdjust="spacingAndGlyphs"
text-anchor="middle" opacity="0">+3V0</text>
<path d="M53640 29550
L54030 29550
" />
<path d="M53830 29740
L53830 29360
" />
<path d="M54220 29240
L54530 29240
L54360 29430
L54430 29430
L54480 29460
L54500 29480
L54530 29530
L54530 29650
L54500 29690
L54480 29720
L54430 29740
L54290 29740
L54240 29720
L54220 29690
" />
<path d="M54670 29240
L54830 29740
L55000 29240
" />
<path d="M55260 29240
L55310 29240
L55360 29270
L55380 29290
L55410 29340
L55430 29430
L55430 29550
L55410 29650
L55380 29690
L55360 29720
L55310 29740
L55260 29740
L55220 29720
L55190 29690
L55170 29650
L55140 29550
L55140 29430
L55170 29340
L55190 29290
L55220 29270
L55260 29240
" />
</g>
</g>
<g style="fill:#008484; fill-opacity:0.0; 
stroke:#008484; stroke-width:0; stroke-opacity:1; 
stroke-linecap:round; stroke-linejoin:round;">
<g >
</g>
<g style="fill:#840000; fill-opacity:0.0; 
stroke:#840000; stroke-width:0; stroke-opacity:1; 
stroke-linecap:round; stroke-linejoin:round;">
</g>
<g style="fill:#840000; fill-opacity:0.0; 
stroke:#840000; stroke-width:60; stroke-opacity:1; 
stroke-linecap:round; stroke-linejoin:round;">
<circle cx="61700" cy="26500" r="300" /> 
<path d="M62000 26500
L63000 26500
" />
</g>
<g style="fill:#008484; fill-opacity:0.0; 
stroke:#008484; stroke-width:60; stroke-opacity:1; 
stroke-linecap:round; stroke-linejoin:round;">
<text x="59500" y="26720"
textLength="1420" font-size="660" lengthAdjust="spacingAndGlyphs"
text-anchor="middle" opacity="0">TP2</text>
<path d="M58860 26190
L59150 26190
" />
<path d="M59010 26690
L59010 26190
" />
<path d="M59320 26690
L59320 26190
L59510 26190
L59550 26220
L59580 26240
L59600 26290
L59600 26360
L59580 26410
L59550 26430
L59510 26450
L59320 26450
" />
<path d="M59790 26240
L59820 26220
L59860 26190
L59980 26190
L60030 26220
L60050 26240
L60080 26290
L60080 26330
L60050 26410
L59770 26690
L60080 26690
" />
</g>
</g>
<g style="fill:#008484; fill-opacity:0.0; 
stroke:#008484; stroke-width:0; stroke-opacity:1; 
stroke-linecap:round; stroke-linejoin:round;">
<g >
</g>
<g style="fill:#840000; fill-opacity:0.0; 
stroke:#840000; stroke-width:0; stroke-opacity:1; 
stroke-linecap:round; stroke-linejoin:round;">
</g>
<g style="fill:#840000; fill-opacity:0.0; 
stroke:#840000; stroke-width:60; stroke-opacity:1; 
stroke-linecap:round; stroke-linejoin:round;">
<path style="fill:#840000; fill-opacity:0.0; 
stroke:#840000; stroke-width:60; stroke-opacity:1; 
stroke-linecap:round; stroke-linejoin:round;fill:none"
d="M 63000,26500
63500,26500
63500,26000
64000,26500
63500,27000
63500,26500
" /> 
</g>
<g style="fill:#008484; fill-opacity:0.0; 
stroke:#008484; stroke-width:60; stroke-opacity:1; 
stroke-linecap:round; stroke-linejoin:round;">
<text x="65290" y="26720"
textLength="1580" font-size="660" lengthAdjust="spacingAndGlyphs"
text-anchor="middle" opacity="0">GND</text>
<path d="M64900 26220
L64860 26190
L64790 26190
L64710 26220
L64670 26260
L64640 26310
L64620 26410
L64620 26480
L64640 26570
L64670 26620
L64710 26670
L64790 26690
L64830 26690
L64900 26670
L64930 26640
L64930 26480
L64830 26480
" />
<path d="M65140 26690
L65140 26190
L65430 26690
L65430 26190
" />
<path d="M65670 26690
L65670 26190
L65790 26190
L65860 26220
L65900 26260
L65930 26310
L65950 26410
L65950 26480
L65930 26570
L65900 26620
L65860 26670
L65790 26690
L65670 26690
" />
</g>
</g>
<g style="fill:#008484; fill-opacity:0.0; 
stroke:#008484; stroke-width:0; stroke-opacity:1; 
stroke-linecap:round; stroke-linejoin:round;">
<g >
</g>
<g style="fill:#840000; fill-opacity:0.0; 
stroke:#840000; stroke-width:0; stroke-opacity:1; 
stroke-linecap:round; stroke-linejoin:round;">
</g>
<g style="fill:#840000; fill-opacity:0.0; 
stroke:#840000; stroke-width:60; stroke-opacity:1; 
stroke-linecap:round; stroke-linejoin:round;">
<circle cx="61700" cy="28000" r="300" /> 
<path d="M62000 28000
L63000 28000
" />
</g>
<g style="fill:#008484; fill-opacity:0.0; 
stroke:#008484; stroke-width:60; stroke-opacity:1; 
stroke-linecap:round; stroke-linejoin:round;">
<text x="59500" y="28220"
textLength="1420" font-size="660" lengthAdjust="spacingAndGlyphs"
text-anchor="middle" opacity="0">TP4</text>
<path d="M58860 27690
L59150 27690
" />
<path d="M59010 28190
L59010 27690
" />
<path d="M59320 28190
L59320 27690
L59510 27690
L59550 27720
L59580 27740
L59600 27790
L59600 27860
L59580 27910
L59550 27930
L59510 27950
L59320 27950
" />
<path d="M60030 27860
L60030 28190
" />
<path d="M59910 27670
L59790 28020
L60100 28020
" />
</g>
</g>
<g style="fill:#008484; fill-opacity:0.0; 
stroke:#008484; stroke-width:0; stroke-opacity:1; 
stroke-linecap:round; stroke-linejoin:round;">
<g >
</g>
<g style="fill:#840000; fill-opacity:0.0; 
stroke:#840000; stroke-width:0; stroke-opacity:1; 
stroke-linecap:round; stroke-linejoin:round;">
</g>
<g style="fill:#840000; fill-opacity:0.0; 
stroke:#840000; stroke-width:60; stroke-opacity:1; 
stroke-linecap:round; stroke-linejoin:round;">
<path style="fill:#840000; fill-opacity:0.0; 
stroke:#840000; stroke-width:60; stroke-opacity:1; 
stroke-linecap:round; stroke-linejoin:round;fill:none"
d="M 63000,28000
63500,28000
63500,27500
64000,28000
63500,28500
63500,28000
" /> 
</g>
<g style="fill:#008484; fill-opacity:0.0; 
stroke:#008484; stroke-width:60; stroke-opacity:1; 
stroke-linecap:round; stroke-linejoin:round;">
<text x="65290" y="28220"
textLength="1580" font-size="660" lengthAdjust="spacingAndGlyphs"
text-anchor="middle" opacity="0">GND</text>
<path d="M64900 27720
L64860 27690
L64790 27690
L64710 27720
L64670 27760
L64640 27810
L64620 27910
L64620 27980
L64640 28070
L64670 28120
L64710 28170
L64790 28190
L64830 28190
L64900 28170
L64930 28140
L64930 27980
L64830 27980
" />
<path d="M65140 28190
L65140 27690
L65430 28190
L65430 27690
" />
<path d="M65670 28190
L65670 27690
L65790 27690
L65860 27720
L65900 27760
L65930 27810
L65950 27910
L65950 27980
L65930 28070
L65900 28120
L65860 28170
L65790 28190
L65670 28190
" />
</g>
</g>
<g style="fill:#008484; fill-opacity:0.0; 
stroke:#008484; stroke-width:0; stroke-opacity:1; 
stroke-linecap:round; stroke-linejoin:round;">
<g >
</g>
<g style="fill:#840000; fill-opacity:0.0; 
stroke:#840000; stroke-width:0; stroke-opacity:1; 
stroke-linecap:round; stroke-linejoin:round;">
</g>
<g style="fill:#840000; fill-opacity:0.0; 
stroke:#840000; stroke-width:60; stroke-opacity:1; 
stroke-linecap:round; stroke-linejoin:round;">
<circle cx="51200" cy="32000" r="300" /> 
<path d="M51500 32000
L52500 32000
" />
</g>
<g style="fill:#008484; fill-opacity:0.0; 
stroke:#008484; stroke-width:60; stroke-opacity:1; 
stroke-linecap:round; stroke-linejoin:round;">
<text x="49000" y="32220"
textLength="1420" font-size="660" lengthAdjust="spacingAndGlyphs"
text-anchor="middle" opacity="0">TP6</text>
<path d="M48360 31690
L48650 31690
" />
<path d="M48510 32190
L48510 31690
" />
<path d="M48820 32190
L48820 31690
L49010 31690
L49050 31720
L49080 31740
L49100 31790
L49100 31860
L49080 31910
L49050 31930
L49010 31950
L48820 31950
" />
<path d="M49530 31690
L49440 31690
L49390 31720
L49360 31740
L49320 31810
L49290 31910
L49290 32100
L49320 32140
L49340 32170
L49390 32190
L49480 32190
L49530 32170
L49550 32140
L49580 32100
L49580 31980
L49550 31930
L49530 31910
L49480 31880
L49390 31880
L49340 31910
L49320 31930
L49290 31980
" />
</g>
</g>
<g style="fill:#008484; fill-opacity:0.0; 
stroke:#008484; stroke-width:0; stroke-opacity:1; 
stroke-linecap:round; stroke-linejoin:round;">
<g >
</g>
<g style="fill:#840000; fill-opacity:0.0; 
stroke:#840000; stroke-width:0; stroke-opacity:1; 
stroke-linecap:round; stroke-linejoin:round;">
</g>
<g style="fill:#840000; fill-opacity:0.0; 
stroke:#840000; stroke-width:60; stroke-opacity:1; 
stroke-linecap:round; stroke-linejoin:round;">
<circle cx="51200" cy="41000" r="300" /> 
<path d="M51500 41000
L52500 41000
" />
</g>
<g style="fill:#008484; fill-opacity:0.0; 
stroke:#008484; stroke-width:60; stroke-opacity:1; 
stroke-linecap:round; stroke-linejoin:round;">
<text x="48990" y="41220"
textLength="1890" font-size="660" lengthAdjust="spacingAndGlyphs"
text-anchor="middle" opacity="0">TP18</text>
<path d="M48120 40690
L48400 40690
" />
<path d="M48260 41190
L48260 40690
" />
<path d="M48570 41190
L48570 40690
L48760 40690
L48810 40720
L48830 40740
L48850 40790
L48850 40860
L48830 40910
L48810 40930
L48760 40950
L48570 40950
" />
<path d="M49330 41190
L49040 41190
" />
<path d="M49190 41190
L49190 40690
L49140 40760
L49090 40810
L49040 40830
" />
<path d="M49620 40910
L49570 40880
L49540 40860
L49520 40810
L49520 40790
L49540 40740
L49570 40720
L49620 40690
L49710 40690
L49760 40720
L49780 40740
L49810 40790
L49810 40810
L49780 40860
L49760 40880
L49710 40910
L49620 40910
L49570 40930
L49540 40950
L49520 41000
L49520 41100
L49540 41140
L49570 41170
L49620 41190
L49710 41190
L49760 41170
L49780 41140
L49810 41100
L49810 41000
L49780 40950
L49760 40930
L49710 40910
" />
</g>
</g>
<g style="fill:#008484; fill-opacity:0.0; 
stroke:#008484; stroke-width:0; stroke-opacity:1; 
stroke-linecap:round; stroke-linejoin:round;">
<g >
</g>
<g style="fill:#840000; fill-opacity:0.0; 
stroke:#840000; stroke-width:0; stroke-opacity:1; 
stroke-linecap:round; stroke-linejoin:round;">
</g>
<g style="fill:#840000; fill-opacity:0.0; 
stroke:#840000; stroke-width:60; stroke-opacity:1; 
stroke-linecap:round; stroke-linejoin:round;">
<circle cx="51200" cy="33500" r="300" /> 
<path d="M51500 33500
L52500 33500
" />
</g>
<g style="fill:#008484; fill-opacity:0.0; 
stroke:#008484; stroke-width:60; stroke-opacity:1; 
stroke-linecap:round; stroke-linejoin:round;">
<text x="49000" y="33720"
textLength="1420" font-size="660" lengthAdjust="spacingAndGlyphs"
text-anchor="middle" opacity="0">TP8</text>
<path d="M48360 33190
L48650 33190
" />
<path d="M48510 33690
L48510 33190
" />
<path d="M48820 33690
L48820 33190
L49010 33190
L49050 33220
L49080 33240
L49100 33290
L49100 33360
L49080 33410
L49050 33430
L49010 33450
L48820 33450
" />
<path d="M49390 33410
L49340 33380
L49320 33360
L49290 33310
L49290 33290
L49320 33240
L49340 33220
L49390 33190
L49480 33190
L49530 33220
L49550 33240
L49580 33290
L49580 33310
L49550 33360
L49530 33380
L49480 33410
L49390 33410
L49340 33430
L49320 33450
L49290 33500
L49290 33600
L49320 33640
L49340 33670
L49390 33690
L49480 33690
L49530 33670
L49550 33640
L49580 33600
L49580 33500
L49550 33450
L49530 33430
L49480 33410
" />
</g>
</g>
<g style="fill:#008484; fill-opacity:0.0; 
stroke:#008484; stroke-width:0; stroke-opacity:1; 
stroke-linecap:round; stroke-linejoin:round;">
<g >
</g>
<g style="fill:#840000; fill-opacity:0.0; 
stroke:#840000; stroke-width:0; stroke-opacity:1; 
stroke-linecap:round; stroke-linejoin:round;">
</g>
<g style="fill:#840000; fill-opacity:0.0; 
stroke:#840000; stroke-width:60; stroke-opacity:1; 
stroke-linecap:round; stroke-linejoin:round;">
<circle cx="61700" cy="39500" r="300" /> 
<path d="M62000 39500
L63000 39500
" />
</g>
<g style="fill:#008484; fill-opacity:0.0; 
stroke:#008484; stroke-width:60; stroke-opacity:1; 
stroke-linecap:round; stroke-linejoin:round;">
<text x="59490" y="39720"
textLength="1890" font-size="660" lengthAdjust="spacingAndGlyphs"
text-anchor="middle" opacity="0">TP17</text>
<path d="M58620 39190
L58900 39190
" />
<path d="M58760 39690
L58760 39190
" />
<path d="M59070 39690
L59070 39190
L59260 39190
L59310 39220
L59330 39240
L59350 39290
L59350 39360
L59330 39410
L59310 39430
L59260 39450
L59070 39450
" />
<path d="M59830 39690
L59540 39690
" />
<path d="M59690 39690
L59690 39190
L59640 39260
L59590 39310
L59540 39330
" />
<path d="M60000 39190
L60330 39190
L60120 39690
" />
</g>
</g>
<g style="fill:#008484; fill-opacity:0.0; 
stroke:#008484; stroke-width:0; stroke-opacity:1; 
stroke-linecap:round; stroke-linejoin:round;">
<g >
</g>
<g style="fill:#840000; fill-opacity:0.0; 
stroke:#840000; stroke-width:0; stroke-opacity:1; 
stroke-linecap:round; stroke-linejoin:round;">
</g>
<g style="fill:#840000; fill-opacity:0.0; 
stroke:#840000; stroke-width:60; stroke-opacity:1; 
stroke-linecap:round; stroke-linejoin:round;">
<circle cx="51200" cy="35000" r="300" /> 
<path d="M51500 35000
L52500 35000
" />
</g>
<g style="fill:#008484; fill-opacity:0.0; 
stroke:#008484; stroke-width:60; stroke-opacity:1; 
stroke-linecap:round; stroke-linejoin:round;">
<text x="48990" y="35220"
textLength="1890" font-size="660" lengthAdjust="spacingAndGlyphs"
text-anchor="middle" opacity="0">TP10</text>
<path d="M48120 34690
L48400 34690
" />
<path d="M48260 35190
L48260 34690
" />
<path d="M48570 35190
L48570 34690
L48760 34690
L48810 34720
L48830 34740
L48850 34790
L48850 34860
L48830 34910
L48810 34930
L48760 34950
L48570 34950
" />
<path d="M49330 35190
L49040 35190
" />
<path d="M49190 35190
L49190 34690
L49140 34760
L49090 34810
L49040 34830
" />
<path d="M49640 34690
L49690 34690
L49740 34720
L49760 34740
L49780 34790
L49810 34880
L49810 35000
L49780 35100
L49760 35140
L49740 35170
L49690 35190
L49640 35190
L49590 35170
L49570 35140
L49540 35100
L49520 35000
L49520 34880
L49540 34790
L49570 34740
L49590 34720
L49640 34690
" />
</g>
</g>
<g style="fill:#008484; fill-opacity:0.0; 
stroke:#008484; stroke-width:0; stroke-opacity:1; 
stroke-linecap:round; stroke-linejoin:round;">
<g >
</g>
<g style="fill:#840000; fill-opacity:0.0; 
stroke:#840000; stroke-width:0; stroke-opacity:1; 
stroke-linecap:round; stroke-linejoin:round;">
</g>
<g style="fill:#840000; fill-opacity:0.0; 
stroke:#840000; stroke-width:60; stroke-opacity:1; 
stroke-linecap:round; stroke-linejoin:round;">
<circle cx="61700" cy="38000" r="300" /> 
<path d="M62000 38000
L63000 38000
" />
</g>
<g style="fill:#008484; fill-opacity:0.0; 
stroke:#008484; stroke-width:60; stroke-opacity:1; 
stroke-linecap:round; stroke-linejoin:round;">
<text x="59490" y="38220"
textLength="1890" font-size="660" lengthAdjust="spacingAndGlyphs"
text-anchor="middle" opacity="0">TP15</text>
<path d="M58620 37690
L58900 37690
" />
<path d="M58760 38190
L58760 37690
" />
<path d="M59070 38190
L59070 37690
L59260 37690
L59310 37720
L59330 37740
L59350 37790
L59350 37860
L59330 37910
L59310 37930
L59260 37950
L59070 37950
" />
<path d="M59830 38190
L59540 38190
" />
<path d="M59690 38190
L59690 37690
L59640 37760
L59590 37810
L59540 37830
" />
<path d="M60280 37690
L60040 37690
L60020 37930
L60040 37910
L60090 37880
L60210 37880
L60260 37910
L60280 37930
L60310 37980
L60310 38100
L60280 38140
L60260 38170
L60210 38190
L60090 38190
L60040 38170
L60020 38140
" />
</g>
</g>
<g style="fill:#008484; fill-opacity:0.0; 
stroke:#008484; stroke-width:0; stroke-opacity:1; 
stroke-linecap:round; stroke-linejoin:round;">
<g >
</g>
<g style="fill:#840000; fill-opacity:0.0; 
stroke:#840000; stroke-width:0; stroke-opacity:1; 
stroke-linecap:round; stroke-linejoin:round;">
</g>
<g style="fill:#840000; fill-opacity:0.0; 
stroke:#840000; stroke-width:60; stroke-opacity:1; 
stroke-linecap:round; stroke-linejoin:round;">
<circle cx="51200" cy="36500" r="300" /> 
<path d="M51500 36500
L52500 36500
" />
</g>
<g style="fill:#008484; fill-opacity:0.0; 
stroke:#008484; stroke-width:60; stroke-opacity:1; 
stroke-linecap:round; stroke-linejoin:round;">
<text x="48990" y="36720"
textLength="1890" font-size="660" lengthAdjust="spacingAndGlyphs"
text-anchor="middle" opacity="0">TP12</text>
<path d="M48120 36190
L48400 36190
" />
<path d="M48260 36690
L48260 36190
" />
<path d="M48570 36690
L48570 36190
L48760 36190
L48810 36220
L48830 36240
L48850 36290
L48850 36360
L48830 36410
L48810 36430
L48760 36450
L48570 36450
" />
<path d="M49330 36690
L49040 36690
" />
<path d="M49190 36690
L49190 36190
L49140 36260
L49090 36310
L49040 36330
" />
<path d="M49520 36240
L49540 36220
L49590 36190
L49710 36190
L49760 36220
L49780 36240
L49810 36290
L49810 36330
L49780 36410
L49500 36690
L49810 36690
" />
</g>
</g>
<g style="fill:#008484; fill-opacity:0.0; 
stroke:#008484; stroke-width:0; stroke-opacity:1; 
stroke-linecap:round; stroke-linejoin:round;">
<g >
</g>
<g style="fill:#840000; fill-opacity:0.0; 
stroke:#840000; stroke-width:0; stroke-opacity:1; 
stroke-linecap:round; stroke-linejoin:round;">
</g>
<g style="fill:#840000; fill-opacity:0.0; 
stroke:#840000; stroke-width:60; stroke-opacity:1; 
stroke-linecap:round; stroke-linejoin:round;">
<circle cx="61700" cy="36500" r="300" /> 
<path d="M62000 36500
L63000 36500
" />
</g>
<g style="fill:#008484; fill-opacity:0.0; 
stroke:#008484; stroke-width:60; stroke-opacity:1; 
stroke-linecap:round; stroke-linejoin:round;">
<text x="59490" y="36720"
textLength="1890" font-size="660" lengthAdjust="spacingAndGlyphs"
text-anchor="middle" opacity="0">TP13</text>
<path d="M58620 36190
L58900 36190
" />
<path d="M58760 36690
L58760 36190
" />
<path d="M59070 36690
L59070 36190
L59260 36190
L59310 36220
L59330 36240
L59350 36290
L59350 36360
L59330 36410
L59310 36430
L59260 36450
L59070 36450
" />
<path d="M59830 36690
L59540 36690
" />
<path d="M59690 36690
L59690 36190
L59640 36260
L59590 36310
L59540 36330
" />
<path d="M60000 36190
L60310 36190
L60140 36380
L60210 36380
L60260 36410
L60280 36430
L60310 36480
L60310 36600
L60280 36640
L60260 36670
L60210 36690
L60070 36690
L60020 36670
L60000 36640
" />
</g>
</g>
<g style="fill:#008484; fill-opacity:0.0; 
stroke:#008484; stroke-width:0; stroke-opacity:1; 
stroke-linecap:round; stroke-linejoin:round;">
<g >
</g>
<g style="fill:#840000; fill-opacity:0.0; 
stroke:#840000; stroke-width:0; stroke-opacity:1; 
stroke-linecap:round; stroke-linejoin:round;">
</g>
<g style="fill:#840000; fill-opacity:0.0; 
stroke:#840000; stroke-width:60; stroke-opacity:1; 
stroke-linecap:round; stroke-linejoin:round;">
<circle cx="51200" cy="38000" r="300" /> 
<path d="M51500 38000
L52500 38000
" />
</g>
<g style="fill:#008484; fill-opacity:0.0; 
stroke:#008484; stroke-width:60; stroke-opacity:1; 
stroke-linecap:round; stroke-linejoin:round;">
<text x="48990" y="38220"
textLength="1890" font-size="660" lengthAdjust="spacingAndGlyphs"
text-anchor="middle" opacity="0">TP14</text>
<path d="M48120 37690
L48400 37690
" />
<path d="M48260 38190
L48260 37690
" />
<path d="M48570 38190
L48570 37690
L48760 37690
L48810 37720
L48830 37740
L48850 37790
L48850 37860
L48830 37910
L48810 37930
L48760 37950
L48570 37950
" />
<path d="M49330 38190
L49040 38190
" />
<path d="M49190 38190
L49190 37690
L49140 37760
L49090 37810
L49040 37830
" />
<path d="M49760 37860
L49760 38190
" />
<path d="M49640 37670
L49520 38020
L49830 38020
" />
</g>
</g>
<g style="fill:#008484; fill-opacity:0.0; 
stroke:#008484; stroke-width:0; stroke-opacity:1; 
stroke-linecap:round; stroke-linejoin:round;">
<g >
</g>
<g style="fill:#840000; fill-opacity:0.0; 
stroke:#840000; stroke-width:0; stroke-opacity:1; 
stroke-linecap:round; stroke-linejoin:round;">
</g>
<g style="fill:#840000; fill-opacity:0.0; 
stroke:#840000; stroke-width:60; stroke-opacity:1; 
stroke-linecap:round; stroke-linejoin:round;">
<circle cx="61700" cy="35000" r="300" /> 
<path d="M62000 35000
L63000 35000
" />
</g>
<g style="fill:#008484; fill-opacity:0.0; 
stroke:#008484; stroke-width:60; stroke-opacity:1; 
stroke-linecap:round; stroke-linejoin:round;">
<text x="59490" y="35220"
textLength="1890" font-size="660" lengthAdjust="spacingAndGlyphs"
text-anchor="middle" opacity="0">TP11</text>
<path d="M58620 34690
L58900 34690
" />
<path d="M58760 35190
L58760 34690
" />
<path d="M59070 35190
L59070 34690
L59260 34690
L59310 34720
L59330 34740
L59350 34790
L59350 34860
L59330 34910
L59310 34930
L59260 34950
L59070 34950
" />
<path d="M59830 35190
L59540 35190
" />
<path d="M59690 35190
L59690 34690
L59640 34760
L59590 34810
L59540 34830
" />
<path d="M60310 35190
L60020 35190
" />
<path d="M60160 35190
L60160 34690
L60120 34760
L60070 34810
L60020 34830
" />
</g>
</g>
<g style="fill:#008484; fill-opacity:0.0; 
stroke:#008484; stroke-width:0; stroke-opacity:1; 
stroke-linecap:round; stroke-linejoin:round;">
<g >
</g>
<g style="fill:#840000; fill-opacity:0.0; 
stroke:#840000; stroke-width:0; stroke-opacity:1; 
stroke-linecap:round; stroke-linejoin:round;">
</g>
<g style="fill:#840000; fill-opacity:0.0; 
stroke:#840000; stroke-width:60; stroke-opacity:1; 
stroke-linecap:round; stroke-linejoin:round;">
<circle cx="51200" cy="39500" r="300" /> 
<path d="M51500 39500
L52500 39500
" />
</g>
<g style="fill:#008484; fill-opacity:0.0; 
stroke:#008484; stroke-width:60; stroke-opacity:1; 
stroke-linecap:round; stroke-linejoin:round;">
<text x="48990" y="39720"
textLength="1890" font-size="660" lengthAdjust="spacingAndGlyphs"
text-anchor="middle" opacity="0">TP16</text>
<path d="M48120 39190
L48400 39190
" />
<path d="M48260 39690
L48260 39190
" />
<path d="M48570 39690
L48570 39190
L48760 39190
L48810 39220
L48830 39240
L48850 39290
L48850 39360
L48830 39410
L48810 39430
L48760 39450
L48570 39450
" />
<path d="M49330 39690
L49040 39690
" />
<path d="M49190 39690
L49190 39190
L49140 39260
L49090 39310
L49040 39330
" />
<path d="M49760 39190
L49660 39190
L49620 39220
L49590 39240
L49540 39310
L49520 39410
L49520 39600
L49540 39640
L49570 39670
L49620 39690
L49710 39690
L49760 39670
L49780 39640
L49810 39600
L49810 39480
L49780 39430
L49760 39410
L49710 39380
L49620 39380
L49570 39410
L49540 39430
L49520 39480
" />
</g>
</g>
<g style="fill:#008484; fill-opacity:0.0; 
stroke:#008484; stroke-width:0; stroke-opacity:1; 
stroke-linecap:round; stroke-linejoin:round;">
<g >
</g>
<g style="fill:#840000; fill-opacity:0.0; 
stroke:#840000; stroke-width:0; stroke-opacity:1; 
stroke-linecap:round; stroke-linejoin:round;">
</g>
<g style="fill:#840000; fill-opacity:0.0; 
stroke:#840000; stroke-width:60; stroke-opacity:1; 
stroke-linecap:round; stroke-linejoin:round;">
<circle cx="61700" cy="33500" r="300" /> 
<path d="M62000 33500
L63000 33500
" />
</g>
<g style="fill:#008484; fill-opacity:0.0; 
stroke:#008484; stroke-width:60; stroke-opacity:1; 
stroke-linecap:round; stroke-linejoin:round;">
<text x="59500" y="33720"
textLength="1420" font-size="660" lengthAdjust="spacingAndGlyphs"
text-anchor="middle" opacity="0">TP9</text>
<path d="M58860 33190
L59150 33190
" />
<path d="M59010 33690
L59010 33190
" />
<path d="M59320 33690
L59320 33190
L59510 33190
L59550 33220
L59580 33240
L59600 33290
L59600 33360
L59580 33410
L59550 33430
L59510 33450
L59320 33450
" />
<path d="M59840 33690
L59940 33690
L59980 33670
L60010 33640
L60050 33570
L60080 33480
L60080 33290
L60050 33240
L60030 33220
L59980 33190
L59890 33190
L59840 33220
L59820 33240
L59790 33290
L59790 33410
L59820 33450
L59840 33480
L59890 33500
L59980 33500
L60030 33480
L60050 33450
L60080 33410
" />
</g>
</g>
<g style="fill:#008484; fill-opacity:0.0; 
stroke:#008484; stroke-width:0; stroke-opacity:1; 
stroke-linecap:round; stroke-linejoin:round;">
<g >
</g>
<g style="fill:#840000; fill-opacity:0.0; 
stroke:#840000; stroke-width:0; stroke-opacity:1; 
stroke-linecap:round; stroke-linejoin:round;">
</g>
<g style="fill:#840000; fill-opacity:0.0; 
stroke:#840000; stroke-width:60; stroke-opacity:1; 
stroke-linecap:round; stroke-linejoin:round;">
<circle cx="61700" cy="32000" r="300" /> 
<path d="M62000 32000
L63000 32000
" />
</g>
<g style="fill:#008484; fill-opacity:0.0; 
stroke:#008484; stroke-width:60; stroke-opacity:1; 
stroke-linecap:round; stroke-linejoin:round;">
<text x="59500" y="32220"
textLength="1420" font-size="660" lengthAdjust="spacingAndGlyphs"
text-anchor="middle" opacity="0">TP7</text>
<path d="M58860 31690
L59150 31690
" />
<path d="M59010 32190
L59010 31690
" />
<path d="M59320 32190
L59320 31690
L59510 31690
L59550 31720
L59580 31740
L59600 31790
L59600 31860
L59580 31910
L59550 31930
L59510 31950
L59320 31950
" />
<path d="M59770 31690
L60100 31690
L59890 32190
" />
</g>
</g>
<g style="fill:#008484; fill-opacity:0.0; 
stroke:#008484; stroke-width:60; stroke-opacity:1; 
stroke-linecap:round; stroke-linejoin:round;">
</g>
<g style="fill:#840000; fill-opacity:0.0; 
stroke:#840000; stroke-width:60; stroke-opacity:1; 
stroke-linecap:round; stroke-linejoin:round;">
<text x="63100" y="32250"
textLength="1010" font-size="660" lengthAdjust="spacingAndGlyphs"
text-anchor="start" opacity="0">DE</text>
<path d="M63240 32220
L63240 31720
L63360 31720
L63430 31750
L63480 31790
L63510 31840
L63530 31940
L63530 32010
L63510 32100
L63480 32150
L63430 32200
L63360 32220
L63240 32220
" />
<path d="M63740 31960
L63910 31960
" />
<path d="M63980 32220
L63740 32220
L63740 31720
L63980 31720
" />
</g>
<g style="fill:#840000; fill-opacity:0.0; 
stroke:#840000; stroke-width:100; stroke-opacity:1; 
stroke-linecap:round; stroke-linejoin:round;">
<path style="fill:#840000; fill-opacity:0.0; 
stroke:#840000; stroke-width:100; stroke-opacity:1; 
stroke-linecap:round; stroke-linejoin:round;fill:none"
d="M 63000,32000
63000,32440
64180,32440
64180,32000
64180,31560
63000,31560
Z" /> 
</g>
<g style="fill:#840000; fill-opacity:0.0; 
stroke:#840000; stroke-width:60; stroke-opacity:1; 
stroke-linecap:round; stroke-linejoin:round;">
<text x="52600" y="39750"
textLength="2850" font-size="660" lengthAdjust="spacingAndGlyphs"
text-anchor="start" opacity="0">SDO_3V</text>
<path d="M52720 39700
L52790 39720
L52910 39720
L52960 39700
L52980 39670
L53010 39630
L53010 39580
L52980 39530
L52960 39510
L52910 39480
L52820 39460
L52770 39440
L52740 39410
L52720 39360
L52720 39320
L52740 39270
L52770 39250
L52820 39220
L52930 39220
L53010 39250
" />
<path d="M53220 39720
L53220 39220
L53340 39220
L53410 39250
L53460 39290
L53480 39340
L53510 39440
L53510 39510
L53480 39600
L53460 39650
L53410 39700
L53340 39720
L53220 39720
" />
<path d="M53820 39220
L53910 39220
L53960 39250
L54010 39290
L54030 39390
L54030 39550
L54010 39650
L53960 39700
L53910 39720
L53820 39720
L53770 39700
L53720 39650
L53700 39550
L53700 39390
L53720 39290
L53770 39250
L53820 39220
" />
<path d="M54130 39770
L54510 39770
" />
<path d="M54580 39220
L54890 39220
L54720 39410
L54790 39410
L54840 39440
L54860 39460
L54890 39510
L54890 39630
L54860 39670
L54840 39700
L54790 39720
L54650 39720
L54600 39700
L54580 39670
" />
<path d="M55030 39220
L55200 39720
L55360 39220
" />
</g>
<g style="fill:#840000; fill-opacity:0.0; 
stroke:#840000; stroke-width:100; stroke-opacity:1; 
stroke-linecap:round; stroke-linejoin:round;">
<path style="fill:#840000; fill-opacity:0.0; 
stroke:#840000; stroke-width:100; stroke-opacity:1; 
stroke-linecap:round; stroke-linejoin:round;fill:none"
d="M 52500,39500
52500,39940
55520,39940
55520,39500
55520,39060
52500,39060
Z" /> 
</g>
<g style="fill:#840000; fill-opacity:0.0; 
stroke:#840000; stroke-width:60; stroke-opacity:1; 
stroke-linecap:round; stroke-linejoin:round;">
<text x="63100" y="33750"
textLength="2510" font-size="660" lengthAdjust="spacingAndGlyphs"
text-anchor="start" opacity="0">HSYNC</text>
<path d="M63240 33720
L63240 33220
" />
<path d="M63240 33460
L63530 33460
" />
<path d="M63530 33720
L63530 33220
" />
<path d="M63740 33700
L63820 33720
L63930 33720
L63980 33700
L64010 33670
L64030 33630
L64030 33580
L64010 33530
L63980 33510
L63930 33480
L63840 33460
L63790 33440
L63770 33410
L63740 33360
L63740 33320
L63770 33270
L63790 33250
L63840 33220
L63960 33220
L64030 33250
" />
<path d="M64340 33480
L64340 33720
" />
<path d="M64170 33220
L64340 33480
L64510 33220
" />
<path d="M64670 33720
L64670 33220
L64960 33720
L64960 33220
" />
<path d="M65480 33670
L65460 33700
L65390 33720
L65340 33720
L65270 33700
L65220 33650
L65200 33600
L65170 33510
L65170 33440
L65200 33340
L65220 33290
L65270 33250
L65340 33220
L65390 33220
L65460 33250
L65480 33270
" />
</g>
<g style="fill:#840000; fill-opacity:0.0; 
stroke:#840000; stroke-width:100; stroke-opacity:1; 
stroke-linecap:round; stroke-linejoin:round;">
<path style="fill:#840000; fill-opacity:0.0; 
stroke:#840000; stroke-width:100; stroke-opacity:1; 
stroke-linecap:round; stroke-linejoin:round;fill:none"
d="M 63000,33500
63000,33940
65680,33940
65680,33500
65680,33060
63000,33060
Z" /> 
</g>
<g style="fill:#840000; fill-opacity:0.0; 
stroke:#840000; stroke-width:60; stroke-opacity:1; 
stroke-linecap:round; stroke-linejoin:round;">
<text x="52600" y="38250"
textLength="2560" font-size="660" lengthAdjust="spacingAndGlyphs"
text-anchor="start" opacity="0">SDI_3V</text>
<path d="M52720 38200
L52790 38220
L52910 38220
L52960 38200
L52980 38170
L53010 38130
L53010 38080
L52980 38030
L52960 38010
L52910 37980
L52820 37960
L52770 37940
L52740 37910
L52720 37860
L52720 37820
L52740 37770
L52770 37750
L52820 37720
L52930 37720
L53010 37750
" />
<path d="M53220 38220
L53220 37720
L53340 37720
L53410 37750
L53460 37790
L53480 37840
L53510 37940
L53510 38010
L53480 38100
L53460 38150
L53410 38200
L53340 38220
L53220 38220
" />
<path d="M53720 38220
L53720 37720
" />
<path d="M53840 38270
L54220 38270
" />
<path d="M54290 37720
L54600 37720
L54430 37910
L54510 37910
L54550 37940
L54580 37960
L54600 38010
L54600 38130
L54580 38170
L54550 38200
L54510 38220
L54360 38220
L54320 38200
L54290 38170
" />
<path d="M54740 37720
L54910 38220
L55080 37720
" />
</g>
<g style="fill:#840000; fill-opacity:0.0; 
stroke:#840000; stroke-width:100; stroke-opacity:1; 
stroke-linecap:round; stroke-linejoin:round;">
<path style="fill:#840000; fill-opacity:0.0; 
stroke:#840000; stroke-width:100; stroke-opacity:1; 
stroke-linecap:round; stroke-linejoin:round;fill:none"
d="M 52500,38000
52500,38440
55230,38440
55230,38000
55230,37560
52500,37560
Z" /> 
</g>
<g style="fill:#840000; fill-opacity:0.0; 
stroke:#840000; stroke-width:60; stroke-opacity:1; 
stroke-linecap:round; stroke-linejoin:round;">
<text x="63100" y="35250"
textLength="2420" font-size="660" lengthAdjust="spacingAndGlyphs"
text-anchor="start" opacity="0">VSYNC</text>
<path d="M63170 34720
L63340 35220
L63510 34720
" />
<path d="M63650 35200
L63720 35220
L63840 35220
L63890 35200
L63910 35170
L63930 35130
L63930 35080
L63910 35030
L63890 35010
L63840 34980
L63740 34960
L63700 34940
L63670 34910
L63650 34860
L63650 34820
L63670 34770
L63700 34750
L63740 34720
L63860 34720
L63930 34750
" />
<path d="M64240 34980
L64240 35220
" />
<path d="M64080 34720
L64240 34980
L64410 34720
" />
<path d="M64580 35220
L64580 34720
L64860 35220
L64860 34720
" />
<path d="M65390 35170
L65360 35200
L65290 35220
L65240 35220
L65170 35200
L65130 35150
L65100 35100
L65080 35010
L65080 34940
L65100 34840
L65130 34790
L65170 34750
L65240 34720
L65290 34720
L65360 34750
L65390 34770
" />
</g>
<g style="fill:#840000; fill-opacity:0.0; 
stroke:#840000; stroke-width:100; stroke-opacity:1; 
stroke-linecap:round; stroke-linejoin:round;">
<path style="fill:#840000; fill-opacity:0.0; 
stroke:#840000; stroke-width:100; stroke-opacity:1; 
stroke-linecap:round; stroke-linejoin:round;fill:none"
d="M 63000,35000
63000,35440
65590,35440
65590,35000
65590,34560
63000,34560
Z" /> 
</g>
<g style="fill:#840000; fill-opacity:0.0; 
stroke:#840000; stroke-width:60; stroke-opacity:1; 
stroke-linecap:round; stroke-linejoin:round;">
<text x="52600" y="36750"
textLength="2350" font-size="660" lengthAdjust="spacingAndGlyphs"
text-anchor="start" opacity="0">DC_3V</text>
<path d="M52740 36720
L52740 36220
L52860 36220
L52930 36250
L52980 36290
L53010 36340
L53030 36440
L53030 36510
L53010 36600
L52980 36650
L52930 36700
L52860 36720
L52740 36720
" />
<path d="M53530 36670
L53510 36700
L53430 36720
L53390 36720
L53320 36700
L53270 36650
L53240 36600
L53220 36510
L53220 36440
L53240 36340
L53270 36290
L53320 36250
L53390 36220
L53430 36220
L53510 36250
L53530 36270
" />
<path d="M53630 36770
L54010 36770
" />
<path d="M54080 36220
L54390 36220
L54220 36410
L54290 36410
L54340 36440
L54360 36460
L54390 36510
L54390 36630
L54360 36670
L54340 36700
L54290 36720
L54150 36720
L54100 36700
L54080 36670
" />
<path d="M54530 36220
L54700 36720
L54860 36220
" />
</g>
<g style="fill:#840000; fill-opacity:0.0; 
stroke:#840000; stroke-width:100; stroke-opacity:1; 
stroke-linecap:round; stroke-linejoin:round;">
<path style="fill:#840000; fill-opacity:0.0; 
stroke:#840000; stroke-width:100; stroke-opacity:1; 
stroke-linecap:round; stroke-linejoin:round;fill:none"
d="M 52500,36500
52500,36940
55020,36940
55020,36500
55020,36060
52500,36060
Z" /> 
</g>
<g style="fill:#840000; fill-opacity:0.0; 
stroke:#840000; stroke-width:60; stroke-opacity:1; 
stroke-linecap:round; stroke-linejoin:round;">
<text x="63100" y="36750"
textLength="1960" font-size="660" lengthAdjust="spacingAndGlyphs"
text-anchor="start" opacity="0">PCLK</text>
<path d="M63240 36720
L63240 36220
L63430 36220
L63480 36250
L63510 36270
L63530 36320
L63530 36390
L63510 36440
L63480 36460
L63430 36480
L63240 36480
" />
<path d="M64030 36670
L64010 36700
L63930 36720
L63890 36720
L63820 36700
L63770 36650
L63740 36600
L63720 36510
L63720 36440
L63740 36340
L63770 36290
L63820 36250
L63890 36220
L63930 36220
L64010 36250
L64030 36270
" />
<path d="M64480 36720
L64240 36720
L64240 36220
" />
<path d="M64650 36720
L64650 36220
" />
<path d="M64930 36720
L64720 36440
" />
<path d="M64930 36220
L64650 36510
" />
</g>
<g style="fill:#840000; fill-opacity:0.0; 
stroke:#840000; stroke-width:100; stroke-opacity:1; 
stroke-linecap:round; stroke-linejoin:round;">
<path style="fill:#840000; fill-opacity:0.0; 
stroke:#840000; stroke-width:100; stroke-opacity:1; 
stroke-linecap:round; stroke-linejoin:round;fill:none"
d="M 63000,36500
63000,36940
65130,36940
65130,36500
65130,36060
63000,36060
Z" /> 
</g>
<g style="fill:#840000; fill-opacity:0.0; 
stroke:#840000; stroke-width:60; stroke-opacity:1; 
stroke-linecap:round; stroke-linejoin:round;">
<text x="52600" y="35250"
textLength="2800" font-size="660" lengthAdjust="spacingAndGlyphs"
text-anchor="start" opacity="0">CS2_3V</text>
<path d="M53030 35170
L53010 35200
L52930 35220
L52890 35220
L52820 35200
L52770 35150
L52740 35100
L52720 35010
L52720 34940
L52740 34840
L52770 34790
L52820 34750
L52890 34720
L52930 34720
L53010 34750
L53030 34770
" />
<path d="M53220 35200
L53290 35220
L53410 35220
L53460 35200
L53480 35170
L53510 35130
L53510 35080
L53480 35030
L53460 35010
L53410 34980
L53320 34960
L53270 34940
L53240 34910
L53220 34860
L53220 34820
L53240 34770
L53270 34750
L53320 34720
L53430 34720
L53510 34750
" />
<path d="M53700 34770
L53720 34750
L53770 34720
L53890 34720
L53930 34750
L53960 34770
L53980 34820
L53980 34860
L53960 34940
L53670 35220
L53980 35220
" />
<path d="M54080 35270
L54460 35270
" />
<path d="M54530 34720
L54840 34720
L54670 34910
L54740 34910
L54790 34940
L54820 34960
L54840 35010
L54840 35130
L54820 35170
L54790 35200
L54740 35220
L54600 35220
L54550 35200
L54530 35170
" />
<path d="M54980 34720
L55150 35220
L55320 34720
" />
</g>
<g style="fill:#840000; fill-opacity:0.0; 
stroke:#840000; stroke-width:100; stroke-opacity:1; 
stroke-linecap:round; stroke-linejoin:round;">
<path style="fill:#840000; fill-opacity:0.0; 
stroke:#840000; stroke-width:100; stroke-opacity:1; 
stroke-linecap:round; stroke-linejoin:round;fill:none"
d="M 52500,35000
52500,35440
55470,35440
55470,35000
55470,34560
52500,34560
Z" /> 
</g>
<g style="fill:#840000; fill-opacity:0.0; 
stroke:#840000; stroke-width:60; stroke-opacity:1; 
stroke-linecap:round; stroke-linejoin:round;">
<text x="63100" y="38250"
textLength="3200" font-size="660" lengthAdjust="spacingAndGlyphs"
text-anchor="start" opacity="0">DISPRES</text>
<path d="M63240 38220
L63240 37720
L63360 37720
L63430 37750
L63480 37790
L63510 37840
L63530 37940
L63530 38010
L63510 38100
L63480 38150
L63430 38200
L63360 38220
L63240 38220
" />
<path d="M63740 38220
L63740 37720
" />
<path d="M63960 38200
L64030 38220
L64150 38220
L64200 38200
L64220 38170
L64240 38130
L64240 38080
L64220 38030
L64200 38010
L64150 37980
L64050 37960
L64010 37940
L63980 37910
L63960 37860
L63960 37820
L63980 37770
L64010 37750
L64050 37720
L64170 37720
L64240 37750
" />
<path d="M64460 38220
L64460 37720
L64650 37720
L64700 37750
L64720 37770
L64740 37820
L64740 37890
L64720 37940
L64700 37960
L64650 37980
L64460 37980
" />
<path d="M65240 38220
L65080 37980
" />
<path d="M64960 38220
L64960 37720
L65150 37720
L65200 37750
L65220 37770
L65240 37820
L65240 37890
L65220 37940
L65200 37960
L65150 37980
L64960 37980
" />
<path d="M65460 37960
L65630 37960
" />
<path d="M65700 38220
L65460 38220
L65460 37720
L65700 37720
" />
<path d="M65890 38200
L65960 38220
L66080 38220
L66130 38200
L66150 38170
L66170 38130
L66170 38080
L66150 38030
L66130 38010
L66080 37980
L65980 37960
L65930 37940
L65910 37910
L65890 37860
L65890 37820
L65910 37770
L65930 37750
L65980 37720
L66100 37720
L66170 37750
" />
</g>
<g style="fill:#840000; fill-opacity:0.0; 
stroke:#840000; stroke-width:100; stroke-opacity:1; 
stroke-linecap:round; stroke-linejoin:round;">
<path style="fill:#840000; fill-opacity:0.0; 
stroke:#840000; stroke-width:100; stroke-opacity:1; 
stroke-linecap:round; stroke-linejoin:round;fill:none"
d="M 63000,38000
63000,38440
66370,38440
66370,38000
66370,37560
63000,37560
Z" /> 
</g>
<g style="fill:#840000; fill-opacity:0.0; 
stroke:#840000; stroke-width:60; stroke-opacity:1; 
stroke-linecap:round; stroke-linejoin:round;">
<text x="52600" y="33750"
textLength="2800" font-size="660" lengthAdjust="spacingAndGlyphs"
text-anchor="start" opacity="0">CS1_3V</text>
<path d="M53030 33670
L53010 33700
L52930 33720
L52890 33720
L52820 33700
L52770 33650
L52740 33600
L52720 33510
L52720 33440
L52740 33340
L52770 33290
L52820 33250
L52890 33220
L52930 33220
L53010 33250
L53030 33270
" />
<path d="M53220 33700
L53290 33720
L53410 33720
L53460 33700
L53480 33670
L53510 33630
L53510 33580
L53480 33530
L53460 33510
L53410 33480
L53320 33460
L53270 33440
L53240 33410
L53220 33360
L53220 33320
L53240 33270
L53270 33250
L53320 33220
L53430 33220
L53510 33250
" />
<path d="M53980 33720
L53700 33720
" />
<path d="M53840 33720
L53840 33220
L53790 33290
L53740 33340
L53700 33360
" />
<path d="M54080 33770
L54460 33770
" />
<path d="M54530 33220
L54840 33220
L54670 33410
L54740 33410
L54790 33440
L54820 33460
L54840 33510
L54840 33630
L54820 33670
L54790 33700
L54740 33720
L54600 33720
L54550 33700
L54530 33670
" />
<path d="M54980 33220
L55150 33720
L55320 33220
" />
</g>
<g style="fill:#840000; fill-opacity:0.0; 
stroke:#840000; stroke-width:100; stroke-opacity:1; 
stroke-linecap:round; stroke-linejoin:round;">
<path style="fill:#840000; fill-opacity:0.0; 
stroke:#840000; stroke-width:100; stroke-opacity:1; 
stroke-linecap:round; stroke-linejoin:round;fill:none"
d="M 52500,33500
52500,33940
55470,33940
55470,33500
55470,33060
52500,33060
Z" /> 
</g>
<g style="fill:#840000; fill-opacity:0.0; 
stroke:#840000; stroke-width:60; stroke-opacity:1; 
stroke-linecap:round; stroke-linejoin:round;">
<text x="63100" y="39750"
textLength="2300" font-size="660" lengthAdjust="spacingAndGlyphs"
text-anchor="start" opacity="0">FTRES</text>
<path d="M63410 39460
L63240 39460
" />
<path d="M63240 39720
L63240 39220
L63480 39220
" />
<path d="M63600 39220
L63890 39220
" />
<path d="M63740 39720
L63740 39220
" />
<path d="M64340 39720
L64170 39480
" />
<path d="M64050 39720
L64050 39220
L64240 39220
L64290 39250
L64320 39270
L64340 39320
L64340 39390
L64320 39440
L64290 39460
L64240 39480
L64050 39480
" />
<path d="M64550 39460
L64720 39460
" />
<path d="M64790 39720
L64550 39720
L64550 39220
L64790 39220
" />
<path d="M64980 39700
L65050 39720
L65170 39720
L65220 39700
L65240 39670
L65270 39630
L65270 39580
L65240 39530
L65220 39510
L65170 39480
L65080 39460
L65030 39440
L65010 39410
L64980 39360
L64980 39320
L65010 39270
L65030 39250
L65080 39220
L65200 39220
L65270 39250
" />
</g>
<g style="fill:#840000; fill-opacity:0.0; 
stroke:#840000; stroke-width:100; stroke-opacity:1; 
stroke-linecap:round; stroke-linejoin:round;">
<path style="fill:#840000; fill-opacity:0.0; 
stroke:#840000; stroke-width:100; stroke-opacity:1; 
stroke-linecap:round; stroke-linejoin:round;fill:none"
d="M 63000,39500
63000,39940
65470,39940
65470,39500
65470,39060
63000,39060
Z" /> 
</g>
<g style="fill:#840000; fill-opacity:0.0; 
stroke:#840000; stroke-width:60; stroke-opacity:1; 
stroke-linecap:round; stroke-linejoin:round;">
<text x="52600" y="32250"
textLength="2820" font-size="660" lengthAdjust="spacingAndGlyphs"
text-anchor="start" opacity="0">SCK_3V</text>
<path d="M52720 32200
L52790 32220
L52910 32220
L52960 32200
L52980 32170
L53010 32130
L53010 32080
L52980 32030
L52960 32010
L52910 31980
L52820 31960
L52770 31940
L52740 31910
L52720 31860
L52720 31820
L52740 31770
L52770 31750
L52820 31720
L52930 31720
L53010 31750
" />
<path d="M53510 32170
L53480 32200
L53410 32220
L53360 32220
L53290 32200
L53240 32150
L53220 32100
L53200 32010
L53200 31940
L53220 31840
L53240 31790
L53290 31750
L53360 31720
L53410 31720
L53480 31750
L53510 31770
" />
<path d="M53720 32220
L53720 31720
" />
<path d="M54010 32220
L53790 31940
" />
<path d="M54010 31720
L53720 32010
" />
<path d="M54100 32270
L54480 32270
" />
<path d="M54550 31720
L54860 31720
L54700 31910
L54770 31910
L54820 31940
L54840 31960
L54860 32010
L54860 32130
L54840 32170
L54820 32200
L54770 32220
L54630 32220
L54580 32200
L54550 32170
" />
<path d="M55010 31720
L55170 32220
L55340 31720
" />
</g>
<g style="fill:#840000; fill-opacity:0.0; 
stroke:#840000; stroke-width:100; stroke-opacity:1; 
stroke-linecap:round; stroke-linejoin:round;">
<path style="fill:#840000; fill-opacity:0.0; 
stroke:#840000; stroke-width:100; stroke-opacity:1; 
stroke-linecap:round; stroke-linejoin:round;fill:none"
d="M 52500,32000
52500,32440
55490,32440
55490,32000
55490,31560
52500,31560
Z" /> 
</g>
<g style="fill:#840000; fill-opacity:0.0; 
stroke:#840000; stroke-width:60; stroke-opacity:1; 
stroke-linecap:round; stroke-linejoin:round;">
<text x="52600" y="41250"
textLength="2610" font-size="660" lengthAdjust="spacingAndGlyphs"
text-anchor="start" opacity="0">IRQ_3V</text>
<path d="M52740 41220
L52740 40720
" />
<path d="M53270 41220
L53100 40980
" />
<path d="M52980 41220
L52980 40720
L53170 40720
L53220 40750
L53240 40770
L53270 40820
L53270 40890
L53240 40940
L53220 40960
L53170 40980
L52980 40980
" />
<path d="M53820 41270
L53770 41250
L53720 41200
L53650 41130
L53600 41100
L53550 41100
" />
<path d="M53580 41220
L53530 41200
L53480 41150
L53460 41050
L53460 40890
L53480 40790
L53530 40750
L53580 40720
L53670 40720
L53720 40750
L53770 40790
L53790 40890
L53790 41050
L53770 41150
L53720 41200
L53670 41220
L53580 41220
" />
<path d="M53890 41270
L54270 41270
" />
<path d="M54340 40720
L54650 40720
L54480 40910
L54550 40910
L54600 40940
L54630 40960
L54650 41010
L54650 41130
L54630 41170
L54600 41200
L54550 41220
L54410 41220
L54360 41200
L54340 41170
" />
<path d="M54790 40720
L54960 41220
L55130 40720
" />
</g>
<g style="fill:#840000; fill-opacity:0.0; 
stroke:#840000; stroke-width:100; stroke-opacity:1; 
stroke-linecap:round; stroke-linejoin:round;">
<path style="fill:#840000; fill-opacity:0.0; 
stroke:#840000; stroke-width:100; stroke-opacity:1; 
stroke-linecap:round; stroke-linejoin:round;fill:none"
d="M 52500,41000
52500,41440
55280,41440
55280,41000
55280,40560
52500,40560
Z" /> 
</g> 
</svg>
