%TF.GenerationSoftware,KiCad,Pcbnew,(5.1.6-0-10_14)*%
%TF.CreationDate,2020-07-19T16:10:20+02:00*%
%TF.ProjectId,driver-board,64726976-6572-42d6-926f-6172642e6b69,rev?*%
%TF.SameCoordinates,Original*%
%TF.FileFunction,Soldermask,Top*%
%TF.FilePolarity,Negative*%
%FSLAX46Y46*%
G04 Gerber Fmt 4.6, Leading zero omitted, Abs format (unit mm)*
G04 Created by KiCad (PCBNEW (5.1.6-0-10_14)) date 2020-07-19 16:10:20*
%MOMM*%
%LPD*%
G01*
G04 APERTURE LIST*
%ADD10R,0.900000X1.000000*%
%ADD11R,1.160000X0.750000*%
%ADD12C,0.100000*%
%ADD13C,0.600000*%
%ADD14R,1.100000X1.100000*%
%ADD15R,1.800000X1.800000*%
%ADD16O,1.800000X1.800000*%
%ADD17R,1.400000X0.400000*%
%ADD18R,2.300000X1.900000*%
G04 APERTURE END LIST*
%TO.C,C1*%
G36*
G01*
X123625000Y-66081250D02*
X123625000Y-65518750D01*
G75*
G02*
X123868750Y-65275000I243750J0D01*
G01*
X124356250Y-65275000D01*
G75*
G02*
X124600000Y-65518750I0J-243750D01*
G01*
X124600000Y-66081250D01*
G75*
G02*
X124356250Y-66325000I-243750J0D01*
G01*
X123868750Y-66325000D01*
G75*
G02*
X123625000Y-66081250I0J243750D01*
G01*
G37*
G36*
G01*
X125200000Y-66081250D02*
X125200000Y-65518750D01*
G75*
G02*
X125443750Y-65275000I243750J0D01*
G01*
X125931250Y-65275000D01*
G75*
G02*
X126175000Y-65518750I0J-243750D01*
G01*
X126175000Y-66081250D01*
G75*
G02*
X125931250Y-66325000I-243750J0D01*
G01*
X125443750Y-66325000D01*
G75*
G02*
X125200000Y-66081250I0J243750D01*
G01*
G37*
%TD*%
%TO.C,C2*%
G36*
G01*
X121675000Y-65518750D02*
X121675000Y-66081250D01*
G75*
G02*
X121431250Y-66325000I-243750J0D01*
G01*
X120943750Y-66325000D01*
G75*
G02*
X120700000Y-66081250I0J243750D01*
G01*
X120700000Y-65518750D01*
G75*
G02*
X120943750Y-65275000I243750J0D01*
G01*
X121431250Y-65275000D01*
G75*
G02*
X121675000Y-65518750I0J-243750D01*
G01*
G37*
G36*
G01*
X120100000Y-65518750D02*
X120100000Y-66081250D01*
G75*
G02*
X119856250Y-66325000I-243750J0D01*
G01*
X119368750Y-66325000D01*
G75*
G02*
X119125000Y-66081250I0J243750D01*
G01*
X119125000Y-65518750D01*
G75*
G02*
X119368750Y-65275000I243750J0D01*
G01*
X119856250Y-65275000D01*
G75*
G02*
X120100000Y-65518750I0J-243750D01*
G01*
G37*
%TD*%
%TO.C,C3*%
G36*
G01*
X120500000Y-50018750D02*
X120500000Y-50581250D01*
G75*
G02*
X120256250Y-50825000I-243750J0D01*
G01*
X119768750Y-50825000D01*
G75*
G02*
X119525000Y-50581250I0J243750D01*
G01*
X119525000Y-50018750D01*
G75*
G02*
X119768750Y-49775000I243750J0D01*
G01*
X120256250Y-49775000D01*
G75*
G02*
X120500000Y-50018750I0J-243750D01*
G01*
G37*
G36*
G01*
X122075000Y-50018750D02*
X122075000Y-50581250D01*
G75*
G02*
X121831250Y-50825000I-243750J0D01*
G01*
X121343750Y-50825000D01*
G75*
G02*
X121100000Y-50581250I0J243750D01*
G01*
X121100000Y-50018750D01*
G75*
G02*
X121343750Y-49775000I243750J0D01*
G01*
X121831250Y-49775000D01*
G75*
G02*
X122075000Y-50018750I0J-243750D01*
G01*
G37*
%TD*%
%TO.C,C4*%
G36*
G01*
X122075000Y-55218750D02*
X122075000Y-55781250D01*
G75*
G02*
X121831250Y-56025000I-243750J0D01*
G01*
X121343750Y-56025000D01*
G75*
G02*
X121100000Y-55781250I0J243750D01*
G01*
X121100000Y-55218750D01*
G75*
G02*
X121343750Y-54975000I243750J0D01*
G01*
X121831250Y-54975000D01*
G75*
G02*
X122075000Y-55218750I0J-243750D01*
G01*
G37*
G36*
G01*
X120500000Y-55218750D02*
X120500000Y-55781250D01*
G75*
G02*
X120256250Y-56025000I-243750J0D01*
G01*
X119768750Y-56025000D01*
G75*
G02*
X119525000Y-55781250I0J243750D01*
G01*
X119525000Y-55218750D01*
G75*
G02*
X119768750Y-54975000I243750J0D01*
G01*
X120256250Y-54975000D01*
G75*
G02*
X120500000Y-55218750I0J-243750D01*
G01*
G37*
%TD*%
%TO.C,C5*%
G36*
G01*
X127100000Y-50018750D02*
X127100000Y-50581250D01*
G75*
G02*
X126856250Y-50825000I-243750J0D01*
G01*
X126368750Y-50825000D01*
G75*
G02*
X126125000Y-50581250I0J243750D01*
G01*
X126125000Y-50018750D01*
G75*
G02*
X126368750Y-49775000I243750J0D01*
G01*
X126856250Y-49775000D01*
G75*
G02*
X127100000Y-50018750I0J-243750D01*
G01*
G37*
G36*
G01*
X128675000Y-50018750D02*
X128675000Y-50581250D01*
G75*
G02*
X128431250Y-50825000I-243750J0D01*
G01*
X127943750Y-50825000D01*
G75*
G02*
X127700000Y-50581250I0J243750D01*
G01*
X127700000Y-50018750D01*
G75*
G02*
X127943750Y-49775000I243750J0D01*
G01*
X128431250Y-49775000D01*
G75*
G02*
X128675000Y-50018750I0J-243750D01*
G01*
G37*
%TD*%
%TO.C,C6*%
G36*
G01*
X128675000Y-55218750D02*
X128675000Y-55781250D01*
G75*
G02*
X128431250Y-56025000I-243750J0D01*
G01*
X127943750Y-56025000D01*
G75*
G02*
X127700000Y-55781250I0J243750D01*
G01*
X127700000Y-55218750D01*
G75*
G02*
X127943750Y-54975000I243750J0D01*
G01*
X128431250Y-54975000D01*
G75*
G02*
X128675000Y-55218750I0J-243750D01*
G01*
G37*
G36*
G01*
X127100000Y-55218750D02*
X127100000Y-55781250D01*
G75*
G02*
X126856250Y-56025000I-243750J0D01*
G01*
X126368750Y-56025000D01*
G75*
G02*
X126125000Y-55781250I0J243750D01*
G01*
X126125000Y-55218750D01*
G75*
G02*
X126368750Y-54975000I243750J0D01*
G01*
X126856250Y-54975000D01*
G75*
G02*
X127100000Y-55218750I0J-243750D01*
G01*
G37*
%TD*%
%TO.C,C7*%
G36*
G01*
X137900000Y-51681250D02*
X137900000Y-51118750D01*
G75*
G02*
X138143750Y-50875000I243750J0D01*
G01*
X138631250Y-50875000D01*
G75*
G02*
X138875000Y-51118750I0J-243750D01*
G01*
X138875000Y-51681250D01*
G75*
G02*
X138631250Y-51925000I-243750J0D01*
G01*
X138143750Y-51925000D01*
G75*
G02*
X137900000Y-51681250I0J243750D01*
G01*
G37*
G36*
G01*
X136325000Y-51681250D02*
X136325000Y-51118750D01*
G75*
G02*
X136568750Y-50875000I243750J0D01*
G01*
X137056250Y-50875000D01*
G75*
G02*
X137300000Y-51118750I0J-243750D01*
G01*
X137300000Y-51681250D01*
G75*
G02*
X137056250Y-51925000I-243750J0D01*
G01*
X136568750Y-51925000D01*
G75*
G02*
X136325000Y-51681250I0J243750D01*
G01*
G37*
%TD*%
%TO.C,C8*%
G36*
G01*
X138218750Y-54100000D02*
X138781250Y-54100000D01*
G75*
G02*
X139025000Y-54343750I0J-243750D01*
G01*
X139025000Y-54831250D01*
G75*
G02*
X138781250Y-55075000I-243750J0D01*
G01*
X138218750Y-55075000D01*
G75*
G02*
X137975000Y-54831250I0J243750D01*
G01*
X137975000Y-54343750D01*
G75*
G02*
X138218750Y-54100000I243750J0D01*
G01*
G37*
G36*
G01*
X138218750Y-52525000D02*
X138781250Y-52525000D01*
G75*
G02*
X139025000Y-52768750I0J-243750D01*
G01*
X139025000Y-53256250D01*
G75*
G02*
X138781250Y-53500000I-243750J0D01*
G01*
X138218750Y-53500000D01*
G75*
G02*
X137975000Y-53256250I0J243750D01*
G01*
X137975000Y-52768750D01*
G75*
G02*
X138218750Y-52525000I243750J0D01*
G01*
G37*
%TD*%
%TO.C,C9*%
G36*
G01*
X129781250Y-60675000D02*
X129218750Y-60675000D01*
G75*
G02*
X128975000Y-60431250I0J243750D01*
G01*
X128975000Y-59943750D01*
G75*
G02*
X129218750Y-59700000I243750J0D01*
G01*
X129781250Y-59700000D01*
G75*
G02*
X130025000Y-59943750I0J-243750D01*
G01*
X130025000Y-60431250D01*
G75*
G02*
X129781250Y-60675000I-243750J0D01*
G01*
G37*
G36*
G01*
X129781250Y-59100000D02*
X129218750Y-59100000D01*
G75*
G02*
X128975000Y-58856250I0J243750D01*
G01*
X128975000Y-58368750D01*
G75*
G02*
X129218750Y-58125000I243750J0D01*
G01*
X129781250Y-58125000D01*
G75*
G02*
X130025000Y-58368750I0J-243750D01*
G01*
X130025000Y-58856250D01*
G75*
G02*
X129781250Y-59100000I-243750J0D01*
G01*
G37*
%TD*%
%TO.C,C10*%
G36*
G01*
X122900000Y-70018750D02*
X122900000Y-70581250D01*
G75*
G02*
X122656250Y-70825000I-243750J0D01*
G01*
X122168750Y-70825000D01*
G75*
G02*
X121925000Y-70581250I0J243750D01*
G01*
X121925000Y-70018750D01*
G75*
G02*
X122168750Y-69775000I243750J0D01*
G01*
X122656250Y-69775000D01*
G75*
G02*
X122900000Y-70018750I0J-243750D01*
G01*
G37*
G36*
G01*
X124475000Y-70018750D02*
X124475000Y-70581250D01*
G75*
G02*
X124231250Y-70825000I-243750J0D01*
G01*
X123743750Y-70825000D01*
G75*
G02*
X123500000Y-70581250I0J243750D01*
G01*
X123500000Y-70018750D01*
G75*
G02*
X123743750Y-69775000I243750J0D01*
G01*
X124231250Y-69775000D01*
G75*
G02*
X124475000Y-70018750I0J-243750D01*
G01*
G37*
%TD*%
%TO.C,C11*%
G36*
G01*
X127352688Y-74424565D02*
X127750435Y-74822313D01*
G75*
G02*
X127750435Y-75167027I-172357J-172357D01*
G01*
X127405721Y-75511741D01*
G75*
G02*
X127061007Y-75511741I-172357J172357D01*
G01*
X126663259Y-75113993D01*
G75*
G02*
X126663259Y-74769279I172357J172357D01*
G01*
X127007973Y-74424565D01*
G75*
G02*
X127352687Y-74424565I172357J-172357D01*
G01*
G37*
G36*
G01*
X126238994Y-75538259D02*
X126636741Y-75936007D01*
G75*
G02*
X126636741Y-76280721I-172357J-172357D01*
G01*
X126292027Y-76625435D01*
G75*
G02*
X125947313Y-76625435I-172357J172357D01*
G01*
X125549565Y-76227687D01*
G75*
G02*
X125549565Y-75882973I172357J172357D01*
G01*
X125894279Y-75538259D01*
G75*
G02*
X126238993Y-75538259I172357J-172357D01*
G01*
G37*
%TD*%
%TO.C,C12*%
G36*
G01*
X128452688Y-75524565D02*
X128850435Y-75922313D01*
G75*
G02*
X128850435Y-76267027I-172357J-172357D01*
G01*
X128505721Y-76611741D01*
G75*
G02*
X128161007Y-76611741I-172357J172357D01*
G01*
X127763259Y-76213993D01*
G75*
G02*
X127763259Y-75869279I172357J172357D01*
G01*
X128107973Y-75524565D01*
G75*
G02*
X128452687Y-75524565I172357J-172357D01*
G01*
G37*
G36*
G01*
X127338994Y-76638259D02*
X127736741Y-77036007D01*
G75*
G02*
X127736741Y-77380721I-172357J-172357D01*
G01*
X127392027Y-77725435D01*
G75*
G02*
X127047313Y-77725435I-172357J172357D01*
G01*
X126649565Y-77327687D01*
G75*
G02*
X126649565Y-76982973I172357J172357D01*
G01*
X126994279Y-76638259D01*
G75*
G02*
X127338993Y-76638259I172357J-172357D01*
G01*
G37*
%TD*%
%TO.C,C13*%
G36*
G01*
X128438994Y-77738259D02*
X128836741Y-78136007D01*
G75*
G02*
X128836741Y-78480721I-172357J-172357D01*
G01*
X128492027Y-78825435D01*
G75*
G02*
X128147313Y-78825435I-172357J172357D01*
G01*
X127749565Y-78427687D01*
G75*
G02*
X127749565Y-78082973I172357J172357D01*
G01*
X128094279Y-77738259D01*
G75*
G02*
X128438993Y-77738259I172357J-172357D01*
G01*
G37*
G36*
G01*
X129552688Y-76624565D02*
X129950435Y-77022313D01*
G75*
G02*
X129950435Y-77367027I-172357J-172357D01*
G01*
X129605721Y-77711741D01*
G75*
G02*
X129261007Y-77711741I-172357J172357D01*
G01*
X128863259Y-77313993D01*
G75*
G02*
X128863259Y-76969279I172357J172357D01*
G01*
X129207973Y-76624565D01*
G75*
G02*
X129552687Y-76624565I172357J-172357D01*
G01*
G37*
%TD*%
%TO.C,C14*%
G36*
G01*
X142375000Y-79818750D02*
X142375000Y-80381250D01*
G75*
G02*
X142131250Y-80625000I-243750J0D01*
G01*
X141643750Y-80625000D01*
G75*
G02*
X141400000Y-80381250I0J243750D01*
G01*
X141400000Y-79818750D01*
G75*
G02*
X141643750Y-79575000I243750J0D01*
G01*
X142131250Y-79575000D01*
G75*
G02*
X142375000Y-79818750I0J-243750D01*
G01*
G37*
G36*
G01*
X140800000Y-79818750D02*
X140800000Y-80381250D01*
G75*
G02*
X140556250Y-80625000I-243750J0D01*
G01*
X140068750Y-80625000D01*
G75*
G02*
X139825000Y-80381250I0J243750D01*
G01*
X139825000Y-79818750D01*
G75*
G02*
X140068750Y-79575000I243750J0D01*
G01*
X140556250Y-79575000D01*
G75*
G02*
X140800000Y-79818750I0J-243750D01*
G01*
G37*
%TD*%
%TO.C,C15*%
G36*
G01*
X140800000Y-81418750D02*
X140800000Y-81981250D01*
G75*
G02*
X140556250Y-82225000I-243750J0D01*
G01*
X140068750Y-82225000D01*
G75*
G02*
X139825000Y-81981250I0J243750D01*
G01*
X139825000Y-81418750D01*
G75*
G02*
X140068750Y-81175000I243750J0D01*
G01*
X140556250Y-81175000D01*
G75*
G02*
X140800000Y-81418750I0J-243750D01*
G01*
G37*
G36*
G01*
X142375000Y-81418750D02*
X142375000Y-81981250D01*
G75*
G02*
X142131250Y-82225000I-243750J0D01*
G01*
X141643750Y-82225000D01*
G75*
G02*
X141400000Y-81981250I0J243750D01*
G01*
X141400000Y-81418750D01*
G75*
G02*
X141643750Y-81175000I243750J0D01*
G01*
X142131250Y-81175000D01*
G75*
G02*
X142375000Y-81418750I0J-243750D01*
G01*
G37*
%TD*%
%TO.C,L1*%
G36*
G01*
X135175000Y-50018750D02*
X135175000Y-50581250D01*
G75*
G02*
X134931250Y-50825000I-243750J0D01*
G01*
X134443750Y-50825000D01*
G75*
G02*
X134200000Y-50581250I0J243750D01*
G01*
X134200000Y-50018750D01*
G75*
G02*
X134443750Y-49775000I243750J0D01*
G01*
X134931250Y-49775000D01*
G75*
G02*
X135175000Y-50018750I0J-243750D01*
G01*
G37*
G36*
G01*
X133600000Y-50018750D02*
X133600000Y-50581250D01*
G75*
G02*
X133356250Y-50825000I-243750J0D01*
G01*
X132868750Y-50825000D01*
G75*
G02*
X132625000Y-50581250I0J243750D01*
G01*
X132625000Y-50018750D01*
G75*
G02*
X132868750Y-49775000I243750J0D01*
G01*
X133356250Y-49775000D01*
G75*
G02*
X133600000Y-50018750I0J-243750D01*
G01*
G37*
%TD*%
%TO.C,R1*%
G36*
G01*
X136518750Y-54100000D02*
X137081250Y-54100000D01*
G75*
G02*
X137325000Y-54343750I0J-243750D01*
G01*
X137325000Y-54831250D01*
G75*
G02*
X137081250Y-55075000I-243750J0D01*
G01*
X136518750Y-55075000D01*
G75*
G02*
X136275000Y-54831250I0J243750D01*
G01*
X136275000Y-54343750D01*
G75*
G02*
X136518750Y-54100000I243750J0D01*
G01*
G37*
G36*
G01*
X136518750Y-52525000D02*
X137081250Y-52525000D01*
G75*
G02*
X137325000Y-52768750I0J-243750D01*
G01*
X137325000Y-53256250D01*
G75*
G02*
X137081250Y-53500000I-243750J0D01*
G01*
X136518750Y-53500000D01*
G75*
G02*
X136275000Y-53256250I0J243750D01*
G01*
X136275000Y-52768750D01*
G75*
G02*
X136518750Y-52525000I243750J0D01*
G01*
G37*
%TD*%
%TO.C,R2*%
G36*
G01*
X134775000Y-55518750D02*
X134775000Y-56081250D01*
G75*
G02*
X134531250Y-56325000I-243750J0D01*
G01*
X134043750Y-56325000D01*
G75*
G02*
X133800000Y-56081250I0J243750D01*
G01*
X133800000Y-55518750D01*
G75*
G02*
X134043750Y-55275000I243750J0D01*
G01*
X134531250Y-55275000D01*
G75*
G02*
X134775000Y-55518750I0J-243750D01*
G01*
G37*
G36*
G01*
X133200000Y-55518750D02*
X133200000Y-56081250D01*
G75*
G02*
X132956250Y-56325000I-243750J0D01*
G01*
X132468750Y-56325000D01*
G75*
G02*
X132225000Y-56081250I0J243750D01*
G01*
X132225000Y-55518750D01*
G75*
G02*
X132468750Y-55275000I243750J0D01*
G01*
X132956250Y-55275000D01*
G75*
G02*
X133200000Y-55518750I0J-243750D01*
G01*
G37*
%TD*%
%TO.C,R3*%
G36*
G01*
X124475000Y-68418750D02*
X124475000Y-68981250D01*
G75*
G02*
X124231250Y-69225000I-243750J0D01*
G01*
X123743750Y-69225000D01*
G75*
G02*
X123500000Y-68981250I0J243750D01*
G01*
X123500000Y-68418750D01*
G75*
G02*
X123743750Y-68175000I243750J0D01*
G01*
X124231250Y-68175000D01*
G75*
G02*
X124475000Y-68418750I0J-243750D01*
G01*
G37*
G36*
G01*
X122900000Y-68418750D02*
X122900000Y-68981250D01*
G75*
G02*
X122656250Y-69225000I-243750J0D01*
G01*
X122168750Y-69225000D01*
G75*
G02*
X121925000Y-68981250I0J243750D01*
G01*
X121925000Y-68418750D01*
G75*
G02*
X122168750Y-68175000I243750J0D01*
G01*
X122656250Y-68175000D01*
G75*
G02*
X122900000Y-68418750I0J-243750D01*
G01*
G37*
%TD*%
%TO.C,R4*%
G36*
G01*
X139818750Y-52450000D02*
X140381250Y-52450000D01*
G75*
G02*
X140625000Y-52693750I0J-243750D01*
G01*
X140625000Y-53181250D01*
G75*
G02*
X140381250Y-53425000I-243750J0D01*
G01*
X139818750Y-53425000D01*
G75*
G02*
X139575000Y-53181250I0J243750D01*
G01*
X139575000Y-52693750D01*
G75*
G02*
X139818750Y-52450000I243750J0D01*
G01*
G37*
G36*
G01*
X139818750Y-50875000D02*
X140381250Y-50875000D01*
G75*
G02*
X140625000Y-51118750I0J-243750D01*
G01*
X140625000Y-51606250D01*
G75*
G02*
X140381250Y-51850000I-243750J0D01*
G01*
X139818750Y-51850000D01*
G75*
G02*
X139575000Y-51606250I0J243750D01*
G01*
X139575000Y-51118750D01*
G75*
G02*
X139818750Y-50875000I243750J0D01*
G01*
G37*
%TD*%
%TO.C,R5*%
G36*
G01*
X136375000Y-79818750D02*
X136375000Y-80381250D01*
G75*
G02*
X136131250Y-80625000I-243750J0D01*
G01*
X135643750Y-80625000D01*
G75*
G02*
X135400000Y-80381250I0J243750D01*
G01*
X135400000Y-79818750D01*
G75*
G02*
X135643750Y-79575000I243750J0D01*
G01*
X136131250Y-79575000D01*
G75*
G02*
X136375000Y-79818750I0J-243750D01*
G01*
G37*
G36*
G01*
X134800000Y-79818750D02*
X134800000Y-80381250D01*
G75*
G02*
X134556250Y-80625000I-243750J0D01*
G01*
X134068750Y-80625000D01*
G75*
G02*
X133825000Y-80381250I0J243750D01*
G01*
X133825000Y-79818750D01*
G75*
G02*
X134068750Y-79575000I243750J0D01*
G01*
X134556250Y-79575000D01*
G75*
G02*
X134800000Y-79818750I0J-243750D01*
G01*
G37*
%TD*%
%TO.C,U1*%
G36*
G01*
X126250000Y-64100000D02*
X126250000Y-64350000D01*
G75*
G02*
X126125000Y-64475000I-125000J0D01*
G01*
X124800000Y-64475000D01*
G75*
G02*
X124675000Y-64350000I0J125000D01*
G01*
X124675000Y-64100000D01*
G75*
G02*
X124800000Y-63975000I125000J0D01*
G01*
X126125000Y-63975000D01*
G75*
G02*
X126250000Y-64100000I0J-125000D01*
G01*
G37*
G36*
G01*
X126250000Y-63450000D02*
X126250000Y-63700000D01*
G75*
G02*
X126125000Y-63825000I-125000J0D01*
G01*
X124800000Y-63825000D01*
G75*
G02*
X124675000Y-63700000I0J125000D01*
G01*
X124675000Y-63450000D01*
G75*
G02*
X124800000Y-63325000I125000J0D01*
G01*
X126125000Y-63325000D01*
G75*
G02*
X126250000Y-63450000I0J-125000D01*
G01*
G37*
G36*
G01*
X126250000Y-62800000D02*
X126250000Y-63050000D01*
G75*
G02*
X126125000Y-63175000I-125000J0D01*
G01*
X124800000Y-63175000D01*
G75*
G02*
X124675000Y-63050000I0J125000D01*
G01*
X124675000Y-62800000D01*
G75*
G02*
X124800000Y-62675000I125000J0D01*
G01*
X126125000Y-62675000D01*
G75*
G02*
X126250000Y-62800000I0J-125000D01*
G01*
G37*
G36*
G01*
X126250000Y-62150000D02*
X126250000Y-62400000D01*
G75*
G02*
X126125000Y-62525000I-125000J0D01*
G01*
X124800000Y-62525000D01*
G75*
G02*
X124675000Y-62400000I0J125000D01*
G01*
X124675000Y-62150000D01*
G75*
G02*
X124800000Y-62025000I125000J0D01*
G01*
X126125000Y-62025000D01*
G75*
G02*
X126250000Y-62150000I0J-125000D01*
G01*
G37*
G36*
G01*
X126250000Y-61500000D02*
X126250000Y-61750000D01*
G75*
G02*
X126125000Y-61875000I-125000J0D01*
G01*
X124800000Y-61875000D01*
G75*
G02*
X124675000Y-61750000I0J125000D01*
G01*
X124675000Y-61500000D01*
G75*
G02*
X124800000Y-61375000I125000J0D01*
G01*
X126125000Y-61375000D01*
G75*
G02*
X126250000Y-61500000I0J-125000D01*
G01*
G37*
G36*
G01*
X126250000Y-60850000D02*
X126250000Y-61100000D01*
G75*
G02*
X126125000Y-61225000I-125000J0D01*
G01*
X124800000Y-61225000D01*
G75*
G02*
X124675000Y-61100000I0J125000D01*
G01*
X124675000Y-60850000D01*
G75*
G02*
X124800000Y-60725000I125000J0D01*
G01*
X126125000Y-60725000D01*
G75*
G02*
X126250000Y-60850000I0J-125000D01*
G01*
G37*
G36*
G01*
X126250000Y-60200000D02*
X126250000Y-60450000D01*
G75*
G02*
X126125000Y-60575000I-125000J0D01*
G01*
X124800000Y-60575000D01*
G75*
G02*
X124675000Y-60450000I0J125000D01*
G01*
X124675000Y-60200000D01*
G75*
G02*
X124800000Y-60075000I125000J0D01*
G01*
X126125000Y-60075000D01*
G75*
G02*
X126250000Y-60200000I0J-125000D01*
G01*
G37*
G36*
G01*
X126250000Y-59550000D02*
X126250000Y-59800000D01*
G75*
G02*
X126125000Y-59925000I-125000J0D01*
G01*
X124800000Y-59925000D01*
G75*
G02*
X124675000Y-59800000I0J125000D01*
G01*
X124675000Y-59550000D01*
G75*
G02*
X124800000Y-59425000I125000J0D01*
G01*
X126125000Y-59425000D01*
G75*
G02*
X126250000Y-59550000I0J-125000D01*
G01*
G37*
G36*
G01*
X126250000Y-58900000D02*
X126250000Y-59150000D01*
G75*
G02*
X126125000Y-59275000I-125000J0D01*
G01*
X124800000Y-59275000D01*
G75*
G02*
X124675000Y-59150000I0J125000D01*
G01*
X124675000Y-58900000D01*
G75*
G02*
X124800000Y-58775000I125000J0D01*
G01*
X126125000Y-58775000D01*
G75*
G02*
X126250000Y-58900000I0J-125000D01*
G01*
G37*
G36*
G01*
X126250000Y-58250000D02*
X126250000Y-58500000D01*
G75*
G02*
X126125000Y-58625000I-125000J0D01*
G01*
X124800000Y-58625000D01*
G75*
G02*
X124675000Y-58500000I0J125000D01*
G01*
X124675000Y-58250000D01*
G75*
G02*
X124800000Y-58125000I125000J0D01*
G01*
X126125000Y-58125000D01*
G75*
G02*
X126250000Y-58250000I0J-125000D01*
G01*
G37*
G36*
G01*
X120525000Y-58250000D02*
X120525000Y-58500000D01*
G75*
G02*
X120400000Y-58625000I-125000J0D01*
G01*
X119075000Y-58625000D01*
G75*
G02*
X118950000Y-58500000I0J125000D01*
G01*
X118950000Y-58250000D01*
G75*
G02*
X119075000Y-58125000I125000J0D01*
G01*
X120400000Y-58125000D01*
G75*
G02*
X120525000Y-58250000I0J-125000D01*
G01*
G37*
G36*
G01*
X120525000Y-58900000D02*
X120525000Y-59150000D01*
G75*
G02*
X120400000Y-59275000I-125000J0D01*
G01*
X119075000Y-59275000D01*
G75*
G02*
X118950000Y-59150000I0J125000D01*
G01*
X118950000Y-58900000D01*
G75*
G02*
X119075000Y-58775000I125000J0D01*
G01*
X120400000Y-58775000D01*
G75*
G02*
X120525000Y-58900000I0J-125000D01*
G01*
G37*
G36*
G01*
X120525000Y-59550000D02*
X120525000Y-59800000D01*
G75*
G02*
X120400000Y-59925000I-125000J0D01*
G01*
X119075000Y-59925000D01*
G75*
G02*
X118950000Y-59800000I0J125000D01*
G01*
X118950000Y-59550000D01*
G75*
G02*
X119075000Y-59425000I125000J0D01*
G01*
X120400000Y-59425000D01*
G75*
G02*
X120525000Y-59550000I0J-125000D01*
G01*
G37*
G36*
G01*
X120525000Y-60200000D02*
X120525000Y-60450000D01*
G75*
G02*
X120400000Y-60575000I-125000J0D01*
G01*
X119075000Y-60575000D01*
G75*
G02*
X118950000Y-60450000I0J125000D01*
G01*
X118950000Y-60200000D01*
G75*
G02*
X119075000Y-60075000I125000J0D01*
G01*
X120400000Y-60075000D01*
G75*
G02*
X120525000Y-60200000I0J-125000D01*
G01*
G37*
G36*
G01*
X120525000Y-60850000D02*
X120525000Y-61100000D01*
G75*
G02*
X120400000Y-61225000I-125000J0D01*
G01*
X119075000Y-61225000D01*
G75*
G02*
X118950000Y-61100000I0J125000D01*
G01*
X118950000Y-60850000D01*
G75*
G02*
X119075000Y-60725000I125000J0D01*
G01*
X120400000Y-60725000D01*
G75*
G02*
X120525000Y-60850000I0J-125000D01*
G01*
G37*
G36*
G01*
X120525000Y-61500000D02*
X120525000Y-61750000D01*
G75*
G02*
X120400000Y-61875000I-125000J0D01*
G01*
X119075000Y-61875000D01*
G75*
G02*
X118950000Y-61750000I0J125000D01*
G01*
X118950000Y-61500000D01*
G75*
G02*
X119075000Y-61375000I125000J0D01*
G01*
X120400000Y-61375000D01*
G75*
G02*
X120525000Y-61500000I0J-125000D01*
G01*
G37*
G36*
G01*
X120525000Y-62150000D02*
X120525000Y-62400000D01*
G75*
G02*
X120400000Y-62525000I-125000J0D01*
G01*
X119075000Y-62525000D01*
G75*
G02*
X118950000Y-62400000I0J125000D01*
G01*
X118950000Y-62150000D01*
G75*
G02*
X119075000Y-62025000I125000J0D01*
G01*
X120400000Y-62025000D01*
G75*
G02*
X120525000Y-62150000I0J-125000D01*
G01*
G37*
G36*
G01*
X120525000Y-62800000D02*
X120525000Y-63050000D01*
G75*
G02*
X120400000Y-63175000I-125000J0D01*
G01*
X119075000Y-63175000D01*
G75*
G02*
X118950000Y-63050000I0J125000D01*
G01*
X118950000Y-62800000D01*
G75*
G02*
X119075000Y-62675000I125000J0D01*
G01*
X120400000Y-62675000D01*
G75*
G02*
X120525000Y-62800000I0J-125000D01*
G01*
G37*
G36*
G01*
X120525000Y-63450000D02*
X120525000Y-63700000D01*
G75*
G02*
X120400000Y-63825000I-125000J0D01*
G01*
X119075000Y-63825000D01*
G75*
G02*
X118950000Y-63700000I0J125000D01*
G01*
X118950000Y-63450000D01*
G75*
G02*
X119075000Y-63325000I125000J0D01*
G01*
X120400000Y-63325000D01*
G75*
G02*
X120525000Y-63450000I0J-125000D01*
G01*
G37*
G36*
G01*
X120525000Y-64100000D02*
X120525000Y-64350000D01*
G75*
G02*
X120400000Y-64475000I-125000J0D01*
G01*
X119075000Y-64475000D01*
G75*
G02*
X118950000Y-64350000I0J125000D01*
G01*
X118950000Y-64100000D01*
G75*
G02*
X119075000Y-63975000I125000J0D01*
G01*
X120400000Y-63975000D01*
G75*
G02*
X120525000Y-64100000I0J-125000D01*
G01*
G37*
%TD*%
D10*
%TO.C,U2*%
X120800000Y-51900000D03*
X121750000Y-53900000D03*
X119850000Y-53900000D03*
%TD*%
%TO.C,U3*%
X126450000Y-53900000D03*
X128350000Y-53900000D03*
X127400000Y-51900000D03*
%TD*%
D11*
%TO.C,U4*%
X132800000Y-52050000D03*
X132800000Y-53000000D03*
X132800000Y-53950000D03*
X135000000Y-53950000D03*
X135000000Y-52050000D03*
X135000000Y-53000000D03*
%TD*%
D12*
%TO.C,X1*%
G36*
X121010051Y-74329289D02*
G01*
X121929289Y-73410051D01*
X122989949Y-74470711D01*
X122070711Y-75389949D01*
X121010051Y-74329289D01*
G37*
G36*
X122565686Y-75884924D02*
G01*
X123484924Y-74965686D01*
X124545584Y-76026346D01*
X123626346Y-76945584D01*
X122565686Y-75884924D01*
G37*
G36*
X123767767Y-74682843D02*
G01*
X124687005Y-73763605D01*
X125747665Y-74824265D01*
X124828427Y-75743503D01*
X123767767Y-74682843D01*
G37*
G36*
X122212132Y-73127208D02*
G01*
X123131370Y-72207970D01*
X124192030Y-73268630D01*
X123272792Y-74187868D01*
X122212132Y-73127208D01*
G37*
%TD*%
D13*
%TO.C,TP1*%
X140150000Y-55350000D03*
%TD*%
%TO.C,TP3*%
X127200000Y-57000000D03*
%TD*%
%TO.C,TP5*%
X120800000Y-57000000D03*
%TD*%
D14*
%TO.C,TP2*%
X120500000Y-80200000D03*
%TD*%
%TO.C,TP4*%
X142100000Y-49700000D03*
%TD*%
D13*
%TO.C,TP6*%
X139500000Y-77700000D03*
%TD*%
%TO.C,TP8*%
X135325000Y-60375000D03*
%TD*%
%TO.C,TP10*%
X128450000Y-83225000D03*
%TD*%
%TO.C,TP12*%
X130900000Y-83200000D03*
%TD*%
%TO.C,TP14*%
X140000000Y-78700000D03*
%TD*%
%TO.C,TP16*%
X141700000Y-78200000D03*
%TD*%
%TO.C,TP7*%
X141900000Y-61200000D03*
%TD*%
%TO.C,TP9*%
X141900000Y-59000000D03*
%TD*%
%TO.C,TP11*%
X141900000Y-57900000D03*
%TD*%
%TO.C,TP13*%
X141900000Y-60100000D03*
%TD*%
D15*
%TO.C,J1*%
X112200000Y-51100000D03*
D16*
X112200000Y-53640000D03*
X112200000Y-56180000D03*
X112200000Y-58720000D03*
X112200000Y-61260000D03*
X112200000Y-63800000D03*
X112200000Y-66340000D03*
X112200000Y-68880000D03*
X112200000Y-71420000D03*
X112200000Y-73960000D03*
X112200000Y-76500000D03*
X112200000Y-79040000D03*
X112200000Y-81580000D03*
%TD*%
D11*
%TO.C,U5*%
X133450000Y-60375000D03*
X133450000Y-59425000D03*
X133450000Y-58475000D03*
X131250000Y-58475000D03*
X131250000Y-60375000D03*
%TD*%
%TO.C,U6*%
G36*
G01*
X132107278Y-65434827D02*
X132231021Y-65311083D01*
G75*
G02*
X132354765Y-65311083I61872J-61872D01*
G01*
X132920451Y-65876769D01*
G75*
G02*
X132920451Y-66000513I-61872J-61872D01*
G01*
X132796707Y-66124257D01*
G75*
G02*
X132672963Y-66124257I-61872J61872D01*
G01*
X132107277Y-65558571D01*
G75*
G02*
X132107277Y-65434827I61872J61872D01*
G01*
G37*
G36*
G01*
X131753725Y-65788380D02*
X131877468Y-65664636D01*
G75*
G02*
X132001212Y-65664636I61872J-61872D01*
G01*
X132566898Y-66230322D01*
G75*
G02*
X132566898Y-66354066I-61872J-61872D01*
G01*
X132443154Y-66477810D01*
G75*
G02*
X132319410Y-66477810I-61872J61872D01*
G01*
X131753724Y-65912124D01*
G75*
G02*
X131753724Y-65788380I61872J61872D01*
G01*
G37*
G36*
G01*
X131400171Y-66141934D02*
X131523914Y-66018190D01*
G75*
G02*
X131647658Y-66018190I61872J-61872D01*
G01*
X132213344Y-66583876D01*
G75*
G02*
X132213344Y-66707620I-61872J-61872D01*
G01*
X132089600Y-66831364D01*
G75*
G02*
X131965856Y-66831364I-61872J61872D01*
G01*
X131400170Y-66265678D01*
G75*
G02*
X131400170Y-66141934I61872J61872D01*
G01*
G37*
G36*
G01*
X131046618Y-66495487D02*
X131170361Y-66371743D01*
G75*
G02*
X131294105Y-66371743I61872J-61872D01*
G01*
X131859791Y-66937429D01*
G75*
G02*
X131859791Y-67061173I-61872J-61872D01*
G01*
X131736047Y-67184917D01*
G75*
G02*
X131612303Y-67184917I-61872J61872D01*
G01*
X131046617Y-66619231D01*
G75*
G02*
X131046617Y-66495487I61872J61872D01*
G01*
G37*
G36*
G01*
X130693065Y-66849041D02*
X130816808Y-66725297D01*
G75*
G02*
X130940552Y-66725297I61872J-61872D01*
G01*
X131506238Y-67290983D01*
G75*
G02*
X131506238Y-67414727I-61872J-61872D01*
G01*
X131382494Y-67538471D01*
G75*
G02*
X131258750Y-67538471I-61872J61872D01*
G01*
X130693064Y-66972785D01*
G75*
G02*
X130693064Y-66849041I61872J61872D01*
G01*
G37*
G36*
G01*
X130339511Y-67202594D02*
X130463254Y-67078850D01*
G75*
G02*
X130586998Y-67078850I61872J-61872D01*
G01*
X131152684Y-67644536D01*
G75*
G02*
X131152684Y-67768280I-61872J-61872D01*
G01*
X131028940Y-67892024D01*
G75*
G02*
X130905196Y-67892024I-61872J61872D01*
G01*
X130339510Y-67326338D01*
G75*
G02*
X130339510Y-67202594I61872J61872D01*
G01*
G37*
G36*
G01*
X129985958Y-67556147D02*
X130109701Y-67432403D01*
G75*
G02*
X130233445Y-67432403I61872J-61872D01*
G01*
X130799131Y-67998089D01*
G75*
G02*
X130799131Y-68121833I-61872J-61872D01*
G01*
X130675387Y-68245577D01*
G75*
G02*
X130551643Y-68245577I-61872J61872D01*
G01*
X129985957Y-67679891D01*
G75*
G02*
X129985957Y-67556147I61872J61872D01*
G01*
G37*
G36*
G01*
X129632404Y-67909701D02*
X129756147Y-67785957D01*
G75*
G02*
X129879891Y-67785957I61872J-61872D01*
G01*
X130445577Y-68351643D01*
G75*
G02*
X130445577Y-68475387I-61872J-61872D01*
G01*
X130321833Y-68599131D01*
G75*
G02*
X130198089Y-68599131I-61872J61872D01*
G01*
X129632403Y-68033445D01*
G75*
G02*
X129632403Y-67909701I61872J61872D01*
G01*
G37*
G36*
G01*
X129278851Y-68263254D02*
X129402594Y-68139510D01*
G75*
G02*
X129526338Y-68139510I61872J-61872D01*
G01*
X130092024Y-68705196D01*
G75*
G02*
X130092024Y-68828940I-61872J-61872D01*
G01*
X129968280Y-68952684D01*
G75*
G02*
X129844536Y-68952684I-61872J61872D01*
G01*
X129278850Y-68386998D01*
G75*
G02*
X129278850Y-68263254I61872J61872D01*
G01*
G37*
G36*
G01*
X128925298Y-68616808D02*
X129049041Y-68493064D01*
G75*
G02*
X129172785Y-68493064I61872J-61872D01*
G01*
X129738471Y-69058750D01*
G75*
G02*
X129738471Y-69182494I-61872J-61872D01*
G01*
X129614727Y-69306238D01*
G75*
G02*
X129490983Y-69306238I-61872J61872D01*
G01*
X128925297Y-68740552D01*
G75*
G02*
X128925297Y-68616808I61872J61872D01*
G01*
G37*
G36*
G01*
X128571744Y-68970361D02*
X128695487Y-68846617D01*
G75*
G02*
X128819231Y-68846617I61872J-61872D01*
G01*
X129384917Y-69412303D01*
G75*
G02*
X129384917Y-69536047I-61872J-61872D01*
G01*
X129261173Y-69659791D01*
G75*
G02*
X129137429Y-69659791I-61872J61872D01*
G01*
X128571743Y-69094105D01*
G75*
G02*
X128571743Y-68970361I61872J61872D01*
G01*
G37*
G36*
G01*
X128218191Y-69323914D02*
X128341934Y-69200170D01*
G75*
G02*
X128465678Y-69200170I61872J-61872D01*
G01*
X129031364Y-69765856D01*
G75*
G02*
X129031364Y-69889600I-61872J-61872D01*
G01*
X128907620Y-70013344D01*
G75*
G02*
X128783876Y-70013344I-61872J61872D01*
G01*
X128218190Y-69447658D01*
G75*
G02*
X128218190Y-69323914I61872J61872D01*
G01*
G37*
G36*
G01*
X127864637Y-69677468D02*
X127988380Y-69553724D01*
G75*
G02*
X128112124Y-69553724I61872J-61872D01*
G01*
X128677810Y-70119410D01*
G75*
G02*
X128677810Y-70243154I-61872J-61872D01*
G01*
X128554066Y-70366898D01*
G75*
G02*
X128430322Y-70366898I-61872J61872D01*
G01*
X127864636Y-69801212D01*
G75*
G02*
X127864636Y-69677468I61872J61872D01*
G01*
G37*
G36*
G01*
X127511084Y-70031021D02*
X127634827Y-69907277D01*
G75*
G02*
X127758571Y-69907277I61872J-61872D01*
G01*
X128324257Y-70472963D01*
G75*
G02*
X128324257Y-70596707I-61872J-61872D01*
G01*
X128200513Y-70720451D01*
G75*
G02*
X128076769Y-70720451I-61872J61872D01*
G01*
X127511083Y-70154765D01*
G75*
G02*
X127511083Y-70031021I61872J61872D01*
G01*
G37*
G36*
G01*
X127511084Y-71445235D02*
X128076769Y-70879549D01*
G75*
G02*
X128200513Y-70879549I61872J-61872D01*
G01*
X128324257Y-71003293D01*
G75*
G02*
X128324257Y-71127037I-61872J-61872D01*
G01*
X127758571Y-71692723D01*
G75*
G02*
X127634827Y-71692723I-61872J61872D01*
G01*
X127511083Y-71568979D01*
G75*
G02*
X127511083Y-71445235I61872J61872D01*
G01*
G37*
G36*
G01*
X127864637Y-71798788D02*
X128430322Y-71233102D01*
G75*
G02*
X128554066Y-71233102I61872J-61872D01*
G01*
X128677810Y-71356846D01*
G75*
G02*
X128677810Y-71480590I-61872J-61872D01*
G01*
X128112124Y-72046276D01*
G75*
G02*
X127988380Y-72046276I-61872J61872D01*
G01*
X127864636Y-71922532D01*
G75*
G02*
X127864636Y-71798788I61872J61872D01*
G01*
G37*
G36*
G01*
X128218191Y-72152342D02*
X128783876Y-71586656D01*
G75*
G02*
X128907620Y-71586656I61872J-61872D01*
G01*
X129031364Y-71710400D01*
G75*
G02*
X129031364Y-71834144I-61872J-61872D01*
G01*
X128465678Y-72399830D01*
G75*
G02*
X128341934Y-72399830I-61872J61872D01*
G01*
X128218190Y-72276086D01*
G75*
G02*
X128218190Y-72152342I61872J61872D01*
G01*
G37*
G36*
G01*
X128571744Y-72505895D02*
X129137429Y-71940209D01*
G75*
G02*
X129261173Y-71940209I61872J-61872D01*
G01*
X129384917Y-72063953D01*
G75*
G02*
X129384917Y-72187697I-61872J-61872D01*
G01*
X128819231Y-72753383D01*
G75*
G02*
X128695487Y-72753383I-61872J61872D01*
G01*
X128571743Y-72629639D01*
G75*
G02*
X128571743Y-72505895I61872J61872D01*
G01*
G37*
G36*
G01*
X128925298Y-72859448D02*
X129490983Y-72293762D01*
G75*
G02*
X129614727Y-72293762I61872J-61872D01*
G01*
X129738471Y-72417506D01*
G75*
G02*
X129738471Y-72541250I-61872J-61872D01*
G01*
X129172785Y-73106936D01*
G75*
G02*
X129049041Y-73106936I-61872J61872D01*
G01*
X128925297Y-72983192D01*
G75*
G02*
X128925297Y-72859448I61872J61872D01*
G01*
G37*
G36*
G01*
X129278851Y-73213002D02*
X129844536Y-72647316D01*
G75*
G02*
X129968280Y-72647316I61872J-61872D01*
G01*
X130092024Y-72771060D01*
G75*
G02*
X130092024Y-72894804I-61872J-61872D01*
G01*
X129526338Y-73460490D01*
G75*
G02*
X129402594Y-73460490I-61872J61872D01*
G01*
X129278850Y-73336746D01*
G75*
G02*
X129278850Y-73213002I61872J61872D01*
G01*
G37*
G36*
G01*
X129632404Y-73566555D02*
X130198089Y-73000869D01*
G75*
G02*
X130321833Y-73000869I61872J-61872D01*
G01*
X130445577Y-73124613D01*
G75*
G02*
X130445577Y-73248357I-61872J-61872D01*
G01*
X129879891Y-73814043D01*
G75*
G02*
X129756147Y-73814043I-61872J61872D01*
G01*
X129632403Y-73690299D01*
G75*
G02*
X129632403Y-73566555I61872J61872D01*
G01*
G37*
G36*
G01*
X129985958Y-73920109D02*
X130551643Y-73354423D01*
G75*
G02*
X130675387Y-73354423I61872J-61872D01*
G01*
X130799131Y-73478167D01*
G75*
G02*
X130799131Y-73601911I-61872J-61872D01*
G01*
X130233445Y-74167597D01*
G75*
G02*
X130109701Y-74167597I-61872J61872D01*
G01*
X129985957Y-74043853D01*
G75*
G02*
X129985957Y-73920109I61872J61872D01*
G01*
G37*
G36*
G01*
X130339511Y-74273662D02*
X130905196Y-73707976D01*
G75*
G02*
X131028940Y-73707976I61872J-61872D01*
G01*
X131152684Y-73831720D01*
G75*
G02*
X131152684Y-73955464I-61872J-61872D01*
G01*
X130586998Y-74521150D01*
G75*
G02*
X130463254Y-74521150I-61872J61872D01*
G01*
X130339510Y-74397406D01*
G75*
G02*
X130339510Y-74273662I61872J61872D01*
G01*
G37*
G36*
G01*
X130693065Y-74627215D02*
X131258750Y-74061529D01*
G75*
G02*
X131382494Y-74061529I61872J-61872D01*
G01*
X131506238Y-74185273D01*
G75*
G02*
X131506238Y-74309017I-61872J-61872D01*
G01*
X130940552Y-74874703D01*
G75*
G02*
X130816808Y-74874703I-61872J61872D01*
G01*
X130693064Y-74750959D01*
G75*
G02*
X130693064Y-74627215I61872J61872D01*
G01*
G37*
G36*
G01*
X131046618Y-74980769D02*
X131612303Y-74415083D01*
G75*
G02*
X131736047Y-74415083I61872J-61872D01*
G01*
X131859791Y-74538827D01*
G75*
G02*
X131859791Y-74662571I-61872J-61872D01*
G01*
X131294105Y-75228257D01*
G75*
G02*
X131170361Y-75228257I-61872J61872D01*
G01*
X131046617Y-75104513D01*
G75*
G02*
X131046617Y-74980769I61872J61872D01*
G01*
G37*
G36*
G01*
X131400171Y-75334322D02*
X131965856Y-74768636D01*
G75*
G02*
X132089600Y-74768636I61872J-61872D01*
G01*
X132213344Y-74892380D01*
G75*
G02*
X132213344Y-75016124I-61872J-61872D01*
G01*
X131647658Y-75581810D01*
G75*
G02*
X131523914Y-75581810I-61872J61872D01*
G01*
X131400170Y-75458066D01*
G75*
G02*
X131400170Y-75334322I61872J61872D01*
G01*
G37*
G36*
G01*
X131753725Y-75687876D02*
X132319410Y-75122190D01*
G75*
G02*
X132443154Y-75122190I61872J-61872D01*
G01*
X132566898Y-75245934D01*
G75*
G02*
X132566898Y-75369678I-61872J-61872D01*
G01*
X132001212Y-75935364D01*
G75*
G02*
X131877468Y-75935364I-61872J61872D01*
G01*
X131753724Y-75811620D01*
G75*
G02*
X131753724Y-75687876I61872J61872D01*
G01*
G37*
G36*
G01*
X132107278Y-76041429D02*
X132672963Y-75475743D01*
G75*
G02*
X132796707Y-75475743I61872J-61872D01*
G01*
X132920451Y-75599487D01*
G75*
G02*
X132920451Y-75723231I-61872J-61872D01*
G01*
X132354765Y-76288917D01*
G75*
G02*
X132231021Y-76288917I-61872J61872D01*
G01*
X132107277Y-76165173D01*
G75*
G02*
X132107277Y-76041429I61872J61872D01*
G01*
G37*
G36*
G01*
X133079550Y-75599487D02*
X133203293Y-75475743D01*
G75*
G02*
X133327037Y-75475743I61872J-61872D01*
G01*
X133892723Y-76041429D01*
G75*
G02*
X133892723Y-76165173I-61872J-61872D01*
G01*
X133768979Y-76288917D01*
G75*
G02*
X133645235Y-76288917I-61872J61872D01*
G01*
X133079549Y-75723231D01*
G75*
G02*
X133079549Y-75599487I61872J61872D01*
G01*
G37*
G36*
G01*
X133433103Y-75245934D02*
X133556846Y-75122190D01*
G75*
G02*
X133680590Y-75122190I61872J-61872D01*
G01*
X134246276Y-75687876D01*
G75*
G02*
X134246276Y-75811620I-61872J-61872D01*
G01*
X134122532Y-75935364D01*
G75*
G02*
X133998788Y-75935364I-61872J61872D01*
G01*
X133433102Y-75369678D01*
G75*
G02*
X133433102Y-75245934I61872J61872D01*
G01*
G37*
G36*
G01*
X133786657Y-74892380D02*
X133910400Y-74768636D01*
G75*
G02*
X134034144Y-74768636I61872J-61872D01*
G01*
X134599830Y-75334322D01*
G75*
G02*
X134599830Y-75458066I-61872J-61872D01*
G01*
X134476086Y-75581810D01*
G75*
G02*
X134352342Y-75581810I-61872J61872D01*
G01*
X133786656Y-75016124D01*
G75*
G02*
X133786656Y-74892380I61872J61872D01*
G01*
G37*
G36*
G01*
X134140210Y-74538827D02*
X134263953Y-74415083D01*
G75*
G02*
X134387697Y-74415083I61872J-61872D01*
G01*
X134953383Y-74980769D01*
G75*
G02*
X134953383Y-75104513I-61872J-61872D01*
G01*
X134829639Y-75228257D01*
G75*
G02*
X134705895Y-75228257I-61872J61872D01*
G01*
X134140209Y-74662571D01*
G75*
G02*
X134140209Y-74538827I61872J61872D01*
G01*
G37*
G36*
G01*
X134493763Y-74185273D02*
X134617506Y-74061529D01*
G75*
G02*
X134741250Y-74061529I61872J-61872D01*
G01*
X135306936Y-74627215D01*
G75*
G02*
X135306936Y-74750959I-61872J-61872D01*
G01*
X135183192Y-74874703D01*
G75*
G02*
X135059448Y-74874703I-61872J61872D01*
G01*
X134493762Y-74309017D01*
G75*
G02*
X134493762Y-74185273I61872J61872D01*
G01*
G37*
G36*
G01*
X134847317Y-73831720D02*
X134971060Y-73707976D01*
G75*
G02*
X135094804Y-73707976I61872J-61872D01*
G01*
X135660490Y-74273662D01*
G75*
G02*
X135660490Y-74397406I-61872J-61872D01*
G01*
X135536746Y-74521150D01*
G75*
G02*
X135413002Y-74521150I-61872J61872D01*
G01*
X134847316Y-73955464D01*
G75*
G02*
X134847316Y-73831720I61872J61872D01*
G01*
G37*
G36*
G01*
X135200870Y-73478167D02*
X135324613Y-73354423D01*
G75*
G02*
X135448357Y-73354423I61872J-61872D01*
G01*
X136014043Y-73920109D01*
G75*
G02*
X136014043Y-74043853I-61872J-61872D01*
G01*
X135890299Y-74167597D01*
G75*
G02*
X135766555Y-74167597I-61872J61872D01*
G01*
X135200869Y-73601911D01*
G75*
G02*
X135200869Y-73478167I61872J61872D01*
G01*
G37*
G36*
G01*
X135554424Y-73124613D02*
X135678167Y-73000869D01*
G75*
G02*
X135801911Y-73000869I61872J-61872D01*
G01*
X136367597Y-73566555D01*
G75*
G02*
X136367597Y-73690299I-61872J-61872D01*
G01*
X136243853Y-73814043D01*
G75*
G02*
X136120109Y-73814043I-61872J61872D01*
G01*
X135554423Y-73248357D01*
G75*
G02*
X135554423Y-73124613I61872J61872D01*
G01*
G37*
G36*
G01*
X135907977Y-72771060D02*
X136031720Y-72647316D01*
G75*
G02*
X136155464Y-72647316I61872J-61872D01*
G01*
X136721150Y-73213002D01*
G75*
G02*
X136721150Y-73336746I-61872J-61872D01*
G01*
X136597406Y-73460490D01*
G75*
G02*
X136473662Y-73460490I-61872J61872D01*
G01*
X135907976Y-72894804D01*
G75*
G02*
X135907976Y-72771060I61872J61872D01*
G01*
G37*
G36*
G01*
X136261530Y-72417506D02*
X136385273Y-72293762D01*
G75*
G02*
X136509017Y-72293762I61872J-61872D01*
G01*
X137074703Y-72859448D01*
G75*
G02*
X137074703Y-72983192I-61872J-61872D01*
G01*
X136950959Y-73106936D01*
G75*
G02*
X136827215Y-73106936I-61872J61872D01*
G01*
X136261529Y-72541250D01*
G75*
G02*
X136261529Y-72417506I61872J61872D01*
G01*
G37*
G36*
G01*
X136615084Y-72063953D02*
X136738827Y-71940209D01*
G75*
G02*
X136862571Y-71940209I61872J-61872D01*
G01*
X137428257Y-72505895D01*
G75*
G02*
X137428257Y-72629639I-61872J-61872D01*
G01*
X137304513Y-72753383D01*
G75*
G02*
X137180769Y-72753383I-61872J61872D01*
G01*
X136615083Y-72187697D01*
G75*
G02*
X136615083Y-72063953I61872J61872D01*
G01*
G37*
G36*
G01*
X136968637Y-71710400D02*
X137092380Y-71586656D01*
G75*
G02*
X137216124Y-71586656I61872J-61872D01*
G01*
X137781810Y-72152342D01*
G75*
G02*
X137781810Y-72276086I-61872J-61872D01*
G01*
X137658066Y-72399830D01*
G75*
G02*
X137534322Y-72399830I-61872J61872D01*
G01*
X136968636Y-71834144D01*
G75*
G02*
X136968636Y-71710400I61872J61872D01*
G01*
G37*
G36*
G01*
X137322191Y-71356846D02*
X137445934Y-71233102D01*
G75*
G02*
X137569678Y-71233102I61872J-61872D01*
G01*
X138135364Y-71798788D01*
G75*
G02*
X138135364Y-71922532I-61872J-61872D01*
G01*
X138011620Y-72046276D01*
G75*
G02*
X137887876Y-72046276I-61872J61872D01*
G01*
X137322190Y-71480590D01*
G75*
G02*
X137322190Y-71356846I61872J61872D01*
G01*
G37*
G36*
G01*
X137675744Y-71003293D02*
X137799487Y-70879549D01*
G75*
G02*
X137923231Y-70879549I61872J-61872D01*
G01*
X138488917Y-71445235D01*
G75*
G02*
X138488917Y-71568979I-61872J-61872D01*
G01*
X138365173Y-71692723D01*
G75*
G02*
X138241429Y-71692723I-61872J61872D01*
G01*
X137675743Y-71127037D01*
G75*
G02*
X137675743Y-71003293I61872J61872D01*
G01*
G37*
G36*
G01*
X137675744Y-70472963D02*
X138241429Y-69907277D01*
G75*
G02*
X138365173Y-69907277I61872J-61872D01*
G01*
X138488917Y-70031021D01*
G75*
G02*
X138488917Y-70154765I-61872J-61872D01*
G01*
X137923231Y-70720451D01*
G75*
G02*
X137799487Y-70720451I-61872J61872D01*
G01*
X137675743Y-70596707D01*
G75*
G02*
X137675743Y-70472963I61872J61872D01*
G01*
G37*
G36*
G01*
X137322191Y-70119410D02*
X137887876Y-69553724D01*
G75*
G02*
X138011620Y-69553724I61872J-61872D01*
G01*
X138135364Y-69677468D01*
G75*
G02*
X138135364Y-69801212I-61872J-61872D01*
G01*
X137569678Y-70366898D01*
G75*
G02*
X137445934Y-70366898I-61872J61872D01*
G01*
X137322190Y-70243154D01*
G75*
G02*
X137322190Y-70119410I61872J61872D01*
G01*
G37*
G36*
G01*
X136968637Y-69765856D02*
X137534322Y-69200170D01*
G75*
G02*
X137658066Y-69200170I61872J-61872D01*
G01*
X137781810Y-69323914D01*
G75*
G02*
X137781810Y-69447658I-61872J-61872D01*
G01*
X137216124Y-70013344D01*
G75*
G02*
X137092380Y-70013344I-61872J61872D01*
G01*
X136968636Y-69889600D01*
G75*
G02*
X136968636Y-69765856I61872J61872D01*
G01*
G37*
G36*
G01*
X136615084Y-69412303D02*
X137180769Y-68846617D01*
G75*
G02*
X137304513Y-68846617I61872J-61872D01*
G01*
X137428257Y-68970361D01*
G75*
G02*
X137428257Y-69094105I-61872J-61872D01*
G01*
X136862571Y-69659791D01*
G75*
G02*
X136738827Y-69659791I-61872J61872D01*
G01*
X136615083Y-69536047D01*
G75*
G02*
X136615083Y-69412303I61872J61872D01*
G01*
G37*
G36*
G01*
X136261530Y-69058750D02*
X136827215Y-68493064D01*
G75*
G02*
X136950959Y-68493064I61872J-61872D01*
G01*
X137074703Y-68616808D01*
G75*
G02*
X137074703Y-68740552I-61872J-61872D01*
G01*
X136509017Y-69306238D01*
G75*
G02*
X136385273Y-69306238I-61872J61872D01*
G01*
X136261529Y-69182494D01*
G75*
G02*
X136261529Y-69058750I61872J61872D01*
G01*
G37*
G36*
G01*
X135907977Y-68705196D02*
X136473662Y-68139510D01*
G75*
G02*
X136597406Y-68139510I61872J-61872D01*
G01*
X136721150Y-68263254D01*
G75*
G02*
X136721150Y-68386998I-61872J-61872D01*
G01*
X136155464Y-68952684D01*
G75*
G02*
X136031720Y-68952684I-61872J61872D01*
G01*
X135907976Y-68828940D01*
G75*
G02*
X135907976Y-68705196I61872J61872D01*
G01*
G37*
G36*
G01*
X135554424Y-68351643D02*
X136120109Y-67785957D01*
G75*
G02*
X136243853Y-67785957I61872J-61872D01*
G01*
X136367597Y-67909701D01*
G75*
G02*
X136367597Y-68033445I-61872J-61872D01*
G01*
X135801911Y-68599131D01*
G75*
G02*
X135678167Y-68599131I-61872J61872D01*
G01*
X135554423Y-68475387D01*
G75*
G02*
X135554423Y-68351643I61872J61872D01*
G01*
G37*
G36*
G01*
X135200870Y-67998089D02*
X135766555Y-67432403D01*
G75*
G02*
X135890299Y-67432403I61872J-61872D01*
G01*
X136014043Y-67556147D01*
G75*
G02*
X136014043Y-67679891I-61872J-61872D01*
G01*
X135448357Y-68245577D01*
G75*
G02*
X135324613Y-68245577I-61872J61872D01*
G01*
X135200869Y-68121833D01*
G75*
G02*
X135200869Y-67998089I61872J61872D01*
G01*
G37*
G36*
G01*
X134847317Y-67644536D02*
X135413002Y-67078850D01*
G75*
G02*
X135536746Y-67078850I61872J-61872D01*
G01*
X135660490Y-67202594D01*
G75*
G02*
X135660490Y-67326338I-61872J-61872D01*
G01*
X135094804Y-67892024D01*
G75*
G02*
X134971060Y-67892024I-61872J61872D01*
G01*
X134847316Y-67768280D01*
G75*
G02*
X134847316Y-67644536I61872J61872D01*
G01*
G37*
G36*
G01*
X134493763Y-67290983D02*
X135059448Y-66725297D01*
G75*
G02*
X135183192Y-66725297I61872J-61872D01*
G01*
X135306936Y-66849041D01*
G75*
G02*
X135306936Y-66972785I-61872J-61872D01*
G01*
X134741250Y-67538471D01*
G75*
G02*
X134617506Y-67538471I-61872J61872D01*
G01*
X134493762Y-67414727D01*
G75*
G02*
X134493762Y-67290983I61872J61872D01*
G01*
G37*
G36*
G01*
X134140210Y-66937429D02*
X134705895Y-66371743D01*
G75*
G02*
X134829639Y-66371743I61872J-61872D01*
G01*
X134953383Y-66495487D01*
G75*
G02*
X134953383Y-66619231I-61872J-61872D01*
G01*
X134387697Y-67184917D01*
G75*
G02*
X134263953Y-67184917I-61872J61872D01*
G01*
X134140209Y-67061173D01*
G75*
G02*
X134140209Y-66937429I61872J61872D01*
G01*
G37*
G36*
G01*
X133786657Y-66583876D02*
X134352342Y-66018190D01*
G75*
G02*
X134476086Y-66018190I61872J-61872D01*
G01*
X134599830Y-66141934D01*
G75*
G02*
X134599830Y-66265678I-61872J-61872D01*
G01*
X134034144Y-66831364D01*
G75*
G02*
X133910400Y-66831364I-61872J61872D01*
G01*
X133786656Y-66707620D01*
G75*
G02*
X133786656Y-66583876I61872J61872D01*
G01*
G37*
G36*
G01*
X133433103Y-66230322D02*
X133998788Y-65664636D01*
G75*
G02*
X134122532Y-65664636I61872J-61872D01*
G01*
X134246276Y-65788380D01*
G75*
G02*
X134246276Y-65912124I-61872J-61872D01*
G01*
X133680590Y-66477810D01*
G75*
G02*
X133556846Y-66477810I-61872J61872D01*
G01*
X133433102Y-66354066D01*
G75*
G02*
X133433102Y-66230322I61872J61872D01*
G01*
G37*
G36*
G01*
X133079550Y-65876769D02*
X133645235Y-65311083D01*
G75*
G02*
X133768979Y-65311083I61872J-61872D01*
G01*
X133892723Y-65434827D01*
G75*
G02*
X133892723Y-65558571I-61872J-61872D01*
G01*
X133327037Y-66124257D01*
G75*
G02*
X133203293Y-66124257I-61872J61872D01*
G01*
X133079549Y-66000513D01*
G75*
G02*
X133079549Y-65876769I61872J61872D01*
G01*
G37*
D12*
G36*
X128969491Y-70800000D02*
G01*
X133000000Y-66769491D01*
X137030509Y-70800000D01*
X133000000Y-74830509D01*
X128969491Y-70800000D01*
G37*
%TD*%
D17*
%TO.C,U7*%
X145650000Y-81125000D03*
X145650000Y-80625000D03*
X145650000Y-80125000D03*
X145650000Y-79625000D03*
X145650000Y-79125000D03*
X145650000Y-78625000D03*
X145650000Y-78125000D03*
X145650000Y-77625000D03*
X145650000Y-77125000D03*
X145650000Y-76625000D03*
X145650000Y-76125000D03*
X145650000Y-75625000D03*
X145650000Y-75125000D03*
X145650000Y-74625000D03*
X145650000Y-74125000D03*
X145650000Y-73625000D03*
X145650000Y-73125000D03*
X145650000Y-72625000D03*
X145650000Y-72125000D03*
X145650000Y-71625000D03*
X145650000Y-71125000D03*
X145650000Y-70625000D03*
X145650000Y-70125000D03*
X145650000Y-69625000D03*
X145650000Y-69125000D03*
X145650000Y-68625000D03*
X145650000Y-68125000D03*
X145650000Y-67625000D03*
X145650000Y-67125000D03*
X145650000Y-66625000D03*
X145650000Y-66125000D03*
X145650000Y-65625000D03*
X145650000Y-65125000D03*
X145650000Y-64625000D03*
X145650000Y-64125000D03*
X145650000Y-63625000D03*
X145650000Y-63125000D03*
X145650000Y-62625000D03*
X145650000Y-62125000D03*
X145650000Y-61625000D03*
X145650000Y-61125000D03*
X145650000Y-60625000D03*
X145650000Y-60125000D03*
X145650000Y-59625000D03*
X145650000Y-59125000D03*
X145650000Y-58625000D03*
X145650000Y-58125000D03*
X145650000Y-57625000D03*
X145650000Y-57125000D03*
X145650000Y-56625000D03*
X145650000Y-56125000D03*
X145650000Y-55625000D03*
X145650000Y-55125000D03*
X145650000Y-54625000D03*
X145650000Y-54125000D03*
X145650000Y-53625000D03*
X145650000Y-53125000D03*
X145650000Y-52625000D03*
X145650000Y-52125000D03*
X145650000Y-51625000D03*
D18*
X151300000Y-83275000D03*
X151300000Y-49475000D03*
%TD*%
D13*
%TO.C,RES_D*%
X134750000Y-81900000D03*
%TD*%
%TO.C,RES_C*%
X126200000Y-68725000D03*
%TD*%
%TO.C,IRQ*%
X127375000Y-66725000D03*
%TD*%
M02*
