%TF.GenerationSoftware,KiCad,Pcbnew,(5.1.6-0-10_14)*%
%TF.CreationDate,2020-07-19T16:10:20+02:00*%
%TF.ProjectId,driver-board,64726976-6572-42d6-926f-6172642e6b69,rev?*%
%TF.SameCoordinates,Original*%
%TF.FileFunction,Legend,Bot*%
%TF.FilePolarity,Positive*%
%FSLAX46Y46*%
G04 Gerber Fmt 4.6, Leading zero omitted, Abs format (unit mm)*
G04 Created by KiCad (PCBNEW (5.1.6-0-10_14)) date 2020-07-19 16:10:20*
%MOMM*%
%LPD*%
G01*
G04 APERTURE LIST*
%ADD10C,0.150000*%
%ADD11C,0.010000*%
G04 APERTURE END LIST*
D10*
X147790476Y-76461904D02*
X147790476Y-75661904D01*
X147447619Y-76461904D02*
X147447619Y-76042857D01*
X147485714Y-75966666D01*
X147561904Y-75928571D01*
X147676190Y-75928571D01*
X147752380Y-75966666D01*
X147790476Y-76004761D01*
X147180952Y-75928571D02*
X146876190Y-75928571D01*
X147066666Y-75661904D02*
X147066666Y-76347619D01*
X147028571Y-76423809D01*
X146952380Y-76461904D01*
X146876190Y-76461904D01*
X146723809Y-75928571D02*
X146419047Y-75928571D01*
X146609523Y-75661904D02*
X146609523Y-76347619D01*
X146571428Y-76423809D01*
X146495238Y-76461904D01*
X146419047Y-76461904D01*
X146152380Y-75928571D02*
X146152380Y-76728571D01*
X146152380Y-75966666D02*
X146076190Y-75928571D01*
X145923809Y-75928571D01*
X145847619Y-75966666D01*
X145809523Y-76004761D01*
X145771428Y-76080952D01*
X145771428Y-76309523D01*
X145809523Y-76385714D01*
X145847619Y-76423809D01*
X145923809Y-76461904D01*
X146076190Y-76461904D01*
X146152380Y-76423809D01*
X145466666Y-76423809D02*
X145390476Y-76461904D01*
X145238095Y-76461904D01*
X145161904Y-76423809D01*
X145123809Y-76347619D01*
X145123809Y-76309523D01*
X145161904Y-76233333D01*
X145238095Y-76195238D01*
X145352380Y-76195238D01*
X145428571Y-76157142D01*
X145466666Y-76080952D01*
X145466666Y-76042857D01*
X145428571Y-75966666D01*
X145352380Y-75928571D01*
X145238095Y-75928571D01*
X145161904Y-75966666D01*
X144780952Y-76385714D02*
X144742857Y-76423809D01*
X144780952Y-76461904D01*
X144819047Y-76423809D01*
X144780952Y-76385714D01*
X144780952Y-76461904D01*
X144780952Y-75966666D02*
X144742857Y-76004761D01*
X144780952Y-76042857D01*
X144819047Y-76004761D01*
X144780952Y-75966666D01*
X144780952Y-76042857D01*
X143828571Y-75623809D02*
X144514285Y-76652380D01*
X142990476Y-75623809D02*
X143676190Y-76652380D01*
X142380952Y-75928571D02*
X142380952Y-76576190D01*
X142419047Y-76652380D01*
X142457142Y-76690476D01*
X142533333Y-76728571D01*
X142647619Y-76728571D01*
X142723809Y-76690476D01*
X142380952Y-76423809D02*
X142457142Y-76461904D01*
X142609523Y-76461904D01*
X142685714Y-76423809D01*
X142723809Y-76385714D01*
X142761904Y-76309523D01*
X142761904Y-76080952D01*
X142723809Y-76004761D01*
X142685714Y-75966666D01*
X142609523Y-75928571D01*
X142457142Y-75928571D01*
X142380952Y-75966666D01*
X142000000Y-76461904D02*
X142000000Y-75928571D01*
X142000000Y-75661904D02*
X142038095Y-75700000D01*
X142000000Y-75738095D01*
X141961904Y-75700000D01*
X142000000Y-75661904D01*
X142000000Y-75738095D01*
X141733333Y-75928571D02*
X141428571Y-75928571D01*
X141619047Y-75661904D02*
X141619047Y-76347619D01*
X141580952Y-76423809D01*
X141504761Y-76461904D01*
X141428571Y-76461904D01*
X141161904Y-76461904D02*
X141161904Y-75661904D01*
X140819047Y-76461904D02*
X140819047Y-76042857D01*
X140857142Y-75966666D01*
X140933333Y-75928571D01*
X141047619Y-75928571D01*
X141123809Y-75966666D01*
X141161904Y-76004761D01*
X140095238Y-75928571D02*
X140095238Y-76461904D01*
X140438095Y-75928571D02*
X140438095Y-76347619D01*
X140400000Y-76423809D01*
X140323809Y-76461904D01*
X140209523Y-76461904D01*
X140133333Y-76423809D01*
X140095238Y-76385714D01*
X139714285Y-76461904D02*
X139714285Y-75661904D01*
X139714285Y-75966666D02*
X139638095Y-75928571D01*
X139485714Y-75928571D01*
X139409523Y-75966666D01*
X139371428Y-76004761D01*
X139333333Y-76080952D01*
X139333333Y-76309523D01*
X139371428Y-76385714D01*
X139409523Y-76423809D01*
X139485714Y-76461904D01*
X139638095Y-76461904D01*
X139714285Y-76423809D01*
X138990476Y-76385714D02*
X138952380Y-76423809D01*
X138990476Y-76461904D01*
X139028571Y-76423809D01*
X138990476Y-76385714D01*
X138990476Y-76461904D01*
X138266666Y-76423809D02*
X138342857Y-76461904D01*
X138495238Y-76461904D01*
X138571428Y-76423809D01*
X138609523Y-76385714D01*
X138647619Y-76309523D01*
X138647619Y-76080952D01*
X138609523Y-76004761D01*
X138571428Y-75966666D01*
X138495238Y-75928571D01*
X138342857Y-75928571D01*
X138266666Y-75966666D01*
X137809523Y-76461904D02*
X137885714Y-76423809D01*
X137923809Y-76385714D01*
X137961904Y-76309523D01*
X137961904Y-76080952D01*
X137923809Y-76004761D01*
X137885714Y-75966666D01*
X137809523Y-75928571D01*
X137695238Y-75928571D01*
X137619047Y-75966666D01*
X137580952Y-76004761D01*
X137542857Y-76080952D01*
X137542857Y-76309523D01*
X137580952Y-76385714D01*
X137619047Y-76423809D01*
X137695238Y-76461904D01*
X137809523Y-76461904D01*
X137200000Y-76461904D02*
X137200000Y-75928571D01*
X137200000Y-76004761D02*
X137161904Y-75966666D01*
X137085714Y-75928571D01*
X136971428Y-75928571D01*
X136895238Y-75966666D01*
X136857142Y-76042857D01*
X136857142Y-76461904D01*
X136857142Y-76042857D02*
X136819047Y-75966666D01*
X136742857Y-75928571D01*
X136628571Y-75928571D01*
X136552380Y-75966666D01*
X136514285Y-76042857D01*
X136514285Y-76461904D01*
X135561904Y-75623809D02*
X136247619Y-76652380D01*
X135295238Y-76461904D02*
X135295238Y-75661904D01*
X135295238Y-75966666D02*
X135219047Y-75928571D01*
X135066666Y-75928571D01*
X134990476Y-75966666D01*
X134952380Y-76004761D01*
X134914285Y-76080952D01*
X134914285Y-76309523D01*
X134952380Y-76385714D01*
X134990476Y-76423809D01*
X135066666Y-76461904D01*
X135219047Y-76461904D01*
X135295238Y-76423809D01*
X134457142Y-76461904D02*
X134533333Y-76423809D01*
X134571428Y-76347619D01*
X134571428Y-75661904D01*
X133809523Y-76461904D02*
X133809523Y-76042857D01*
X133847619Y-75966666D01*
X133923809Y-75928571D01*
X134076190Y-75928571D01*
X134152380Y-75966666D01*
X133809523Y-76423809D02*
X133885714Y-76461904D01*
X134076190Y-76461904D01*
X134152380Y-76423809D01*
X134190476Y-76347619D01*
X134190476Y-76271428D01*
X134152380Y-76195238D01*
X134076190Y-76157142D01*
X133885714Y-76157142D01*
X133809523Y-76119047D01*
X133504761Y-75928571D02*
X133085714Y-75928571D01*
X133504761Y-76461904D01*
X133085714Y-76461904D01*
X132476190Y-76423809D02*
X132552380Y-76461904D01*
X132704761Y-76461904D01*
X132780952Y-76423809D01*
X132819047Y-76347619D01*
X132819047Y-76042857D01*
X132780952Y-75966666D01*
X132704761Y-75928571D01*
X132552380Y-75928571D01*
X132476190Y-75966666D01*
X132438095Y-76042857D01*
X132438095Y-76119047D01*
X132819047Y-76195238D01*
X132095238Y-76461904D02*
X132095238Y-75928571D01*
X132095238Y-76080952D02*
X132057142Y-76004761D01*
X132019047Y-75966666D01*
X131942857Y-75928571D01*
X131866666Y-75928571D01*
X131485714Y-76004761D02*
X131561904Y-75966666D01*
X131600000Y-75928571D01*
X131638095Y-75852380D01*
X131638095Y-75814285D01*
X131600000Y-75738095D01*
X131561904Y-75700000D01*
X131485714Y-75661904D01*
X131333333Y-75661904D01*
X131257142Y-75700000D01*
X131219047Y-75738095D01*
X131180952Y-75814285D01*
X131180952Y-75852380D01*
X131219047Y-75928571D01*
X131257142Y-75966666D01*
X131333333Y-76004761D01*
X131485714Y-76004761D01*
X131561904Y-76042857D01*
X131600000Y-76080952D01*
X131638095Y-76157142D01*
X131638095Y-76309523D01*
X131600000Y-76385714D01*
X131561904Y-76423809D01*
X131485714Y-76461904D01*
X131333333Y-76461904D01*
X131257142Y-76423809D01*
X131219047Y-76385714D01*
X131180952Y-76309523D01*
X131180952Y-76157142D01*
X131219047Y-76080952D01*
X131257142Y-76042857D01*
X131333333Y-76004761D01*
X130876190Y-75738095D02*
X130838095Y-75700000D01*
X130761904Y-75661904D01*
X130571428Y-75661904D01*
X130495238Y-75700000D01*
X130457142Y-75738095D01*
X130419047Y-75814285D01*
X130419047Y-75890476D01*
X130457142Y-76004761D01*
X130914285Y-76461904D01*
X130419047Y-76461904D01*
X129504761Y-75623809D02*
X130190476Y-76652380D01*
X128971428Y-76042857D02*
X129238095Y-76042857D01*
X129238095Y-76461904D02*
X129238095Y-75661904D01*
X128857142Y-75661904D01*
X128666666Y-75661904D02*
X128209523Y-75661904D01*
X128438095Y-76461904D02*
X128438095Y-75661904D01*
X127828571Y-76004761D02*
X127904761Y-75966666D01*
X127942857Y-75928571D01*
X127980952Y-75852380D01*
X127980952Y-75814285D01*
X127942857Y-75738095D01*
X127904761Y-75700000D01*
X127828571Y-75661904D01*
X127676190Y-75661904D01*
X127600000Y-75700000D01*
X127561904Y-75738095D01*
X127523809Y-75814285D01*
X127523809Y-75852380D01*
X127561904Y-75928571D01*
X127600000Y-75966666D01*
X127676190Y-76004761D01*
X127828571Y-76004761D01*
X127904761Y-76042857D01*
X127942857Y-76080952D01*
X127980952Y-76157142D01*
X127980952Y-76309523D01*
X127942857Y-76385714D01*
X127904761Y-76423809D01*
X127828571Y-76461904D01*
X127676190Y-76461904D01*
X127600000Y-76423809D01*
X127561904Y-76385714D01*
X127523809Y-76309523D01*
X127523809Y-76157142D01*
X127561904Y-76080952D01*
X127600000Y-76042857D01*
X127676190Y-76004761D01*
X126761904Y-76461904D02*
X127219047Y-76461904D01*
X126990476Y-76461904D02*
X126990476Y-75661904D01*
X127066666Y-75776190D01*
X127142857Y-75852380D01*
X127219047Y-75890476D01*
X126495238Y-76461904D02*
X126076190Y-75928571D01*
X126495238Y-75928571D02*
X126076190Y-76461904D01*
X125961904Y-76538095D02*
X125352380Y-76538095D01*
X125200000Y-76233333D02*
X124819047Y-76233333D01*
X125276190Y-76461904D02*
X125009523Y-75661904D01*
X124742857Y-76461904D01*
X124476190Y-76461904D02*
X124476190Y-75928571D01*
X124476190Y-76080952D02*
X124438095Y-76004761D01*
X124400000Y-75966666D01*
X124323809Y-75928571D01*
X124247619Y-75928571D01*
X123638095Y-76461904D02*
X123638095Y-75661904D01*
X123638095Y-76423809D02*
X123714285Y-76461904D01*
X123866666Y-76461904D01*
X123942857Y-76423809D01*
X123980952Y-76385714D01*
X124019047Y-76309523D01*
X124019047Y-76080952D01*
X123980952Y-76004761D01*
X123942857Y-75966666D01*
X123866666Y-75928571D01*
X123714285Y-75928571D01*
X123638095Y-75966666D01*
X122914285Y-75928571D02*
X122914285Y-76461904D01*
X123257142Y-75928571D02*
X123257142Y-76347619D01*
X123219047Y-76423809D01*
X123142857Y-76461904D01*
X123028571Y-76461904D01*
X122952380Y-76423809D01*
X122914285Y-76385714D01*
X122533333Y-76461904D02*
X122533333Y-75928571D01*
X122533333Y-75661904D02*
X122571428Y-75700000D01*
X122533333Y-75738095D01*
X122495238Y-75700000D01*
X122533333Y-75661904D01*
X122533333Y-75738095D01*
X122152380Y-75928571D02*
X122152380Y-76461904D01*
X122152380Y-76004761D02*
X122114285Y-75966666D01*
X122038095Y-75928571D01*
X121923809Y-75928571D01*
X121847619Y-75966666D01*
X121809523Y-76042857D01*
X121809523Y-76461904D01*
X121314285Y-76461904D02*
X121390476Y-76423809D01*
X121428571Y-76385714D01*
X121466666Y-76309523D01*
X121466666Y-76080952D01*
X121428571Y-76004761D01*
X121390476Y-75966666D01*
X121314285Y-75928571D01*
X121200000Y-75928571D01*
X121123809Y-75966666D01*
X121085714Y-76004761D01*
X121047619Y-76080952D01*
X121047619Y-76309523D01*
X121085714Y-76385714D01*
X121123809Y-76423809D01*
X121200000Y-76461904D01*
X121314285Y-76461904D01*
X120895238Y-76538095D02*
X120285714Y-76538095D01*
X120095238Y-76461904D02*
X120095238Y-75661904D01*
X119904761Y-75661904D01*
X119790476Y-75700000D01*
X119714285Y-75776190D01*
X119676190Y-75852380D01*
X119638095Y-76004761D01*
X119638095Y-76119047D01*
X119676190Y-76271428D01*
X119714285Y-76347619D01*
X119790476Y-76423809D01*
X119904761Y-76461904D01*
X120095238Y-76461904D01*
X119295238Y-76461904D02*
X119295238Y-75928571D01*
X119295238Y-76080952D02*
X119257142Y-76004761D01*
X119219047Y-75966666D01*
X119142857Y-75928571D01*
X119066666Y-75928571D01*
X118800000Y-76461904D02*
X118800000Y-75928571D01*
X118800000Y-75661904D02*
X118838095Y-75700000D01*
X118800000Y-75738095D01*
X118761904Y-75700000D01*
X118800000Y-75661904D01*
X118800000Y-75738095D01*
X118495238Y-75928571D02*
X118304761Y-76461904D01*
X118114285Y-75928571D01*
X117504761Y-76423809D02*
X117580952Y-76461904D01*
X117733333Y-76461904D01*
X117809523Y-76423809D01*
X117847619Y-76347619D01*
X117847619Y-76042857D01*
X117809523Y-75966666D01*
X117733333Y-75928571D01*
X117580952Y-75928571D01*
X117504761Y-75966666D01*
X117466666Y-76042857D01*
X117466666Y-76119047D01*
X117847619Y-76195238D01*
X117123809Y-76461904D02*
X117123809Y-75928571D01*
X117123809Y-76080952D02*
X117085714Y-76004761D01*
X117047619Y-75966666D01*
X116971428Y-75928571D01*
X116895238Y-75928571D01*
X141380952Y-70532142D02*
X141428571Y-70579761D01*
X141571428Y-70627380D01*
X141666666Y-70627380D01*
X141809523Y-70579761D01*
X141904761Y-70484523D01*
X141952380Y-70389285D01*
X142000000Y-70198809D01*
X142000000Y-70055952D01*
X141952380Y-69865476D01*
X141904761Y-69770238D01*
X141809523Y-69675000D01*
X141666666Y-69627380D01*
X141571428Y-69627380D01*
X141428571Y-69675000D01*
X141380952Y-69722619D01*
X140809523Y-70627380D02*
X140904761Y-70579761D01*
X140952380Y-70532142D01*
X141000000Y-70436904D01*
X141000000Y-70151190D01*
X140952380Y-70055952D01*
X140904761Y-70008333D01*
X140809523Y-69960714D01*
X140666666Y-69960714D01*
X140571428Y-70008333D01*
X140523809Y-70055952D01*
X140476190Y-70151190D01*
X140476190Y-70436904D01*
X140523809Y-70532142D01*
X140571428Y-70579761D01*
X140666666Y-70627380D01*
X140809523Y-70627380D01*
X140047619Y-69960714D02*
X140047619Y-70960714D01*
X140047619Y-70008333D02*
X139952380Y-69960714D01*
X139761904Y-69960714D01*
X139666666Y-70008333D01*
X139619047Y-70055952D01*
X139571428Y-70151190D01*
X139571428Y-70436904D01*
X139619047Y-70532142D01*
X139666666Y-70579761D01*
X139761904Y-70627380D01*
X139952380Y-70627380D01*
X140047619Y-70579761D01*
X139238095Y-69960714D02*
X139000000Y-70627380D01*
X138761904Y-69960714D02*
X139000000Y-70627380D01*
X139095238Y-70865476D01*
X139142857Y-70913095D01*
X139238095Y-70960714D01*
X138380952Y-70627380D02*
X138380952Y-69960714D01*
X138380952Y-70151190D02*
X138333333Y-70055952D01*
X138285714Y-70008333D01*
X138190476Y-69960714D01*
X138095238Y-69960714D01*
X137761904Y-70627380D02*
X137761904Y-69960714D01*
X137761904Y-69627380D02*
X137809523Y-69675000D01*
X137761904Y-69722619D01*
X137714285Y-69675000D01*
X137761904Y-69627380D01*
X137761904Y-69722619D01*
X136857142Y-69960714D02*
X136857142Y-70770238D01*
X136904761Y-70865476D01*
X136952380Y-70913095D01*
X137047619Y-70960714D01*
X137190476Y-70960714D01*
X137285714Y-70913095D01*
X136857142Y-70579761D02*
X136952380Y-70627380D01*
X137142857Y-70627380D01*
X137238095Y-70579761D01*
X137285714Y-70532142D01*
X137333333Y-70436904D01*
X137333333Y-70151190D01*
X137285714Y-70055952D01*
X137238095Y-70008333D01*
X137142857Y-69960714D01*
X136952380Y-69960714D01*
X136857142Y-70008333D01*
X136380952Y-70627380D02*
X136380952Y-69627380D01*
X135952380Y-70627380D02*
X135952380Y-70103571D01*
X136000000Y-70008333D01*
X136095238Y-69960714D01*
X136238095Y-69960714D01*
X136333333Y-70008333D01*
X136380952Y-70055952D01*
X135619047Y-69960714D02*
X135238095Y-69960714D01*
X135476190Y-69627380D02*
X135476190Y-70484523D01*
X135428571Y-70579761D01*
X135333333Y-70627380D01*
X135238095Y-70627380D01*
X133333333Y-69865476D02*
X133428571Y-69817857D01*
X133619047Y-69817857D01*
X133714285Y-69865476D01*
X133809523Y-69960714D01*
X133857142Y-70055952D01*
X133857142Y-70246428D01*
X133809523Y-70341666D01*
X133714285Y-70436904D01*
X133619047Y-70484523D01*
X133428571Y-70484523D01*
X133333333Y-70436904D01*
X133523809Y-69484523D02*
X133761904Y-69532142D01*
X134000000Y-69675000D01*
X134142857Y-69913095D01*
X134190476Y-70151190D01*
X134142857Y-70389285D01*
X134000000Y-70627380D01*
X133761904Y-70770238D01*
X133523809Y-70817857D01*
X133285714Y-70770238D01*
X133047619Y-70627380D01*
X132904761Y-70389285D01*
X132857142Y-70151190D01*
X132904761Y-69913095D01*
X133047619Y-69675000D01*
X133285714Y-69532142D01*
X133523809Y-69484523D01*
X131095238Y-70627380D02*
X131428571Y-70151190D01*
X131666666Y-70627380D02*
X131666666Y-69627380D01*
X131285714Y-69627380D01*
X131190476Y-69675000D01*
X131142857Y-69722619D01*
X131095238Y-69817857D01*
X131095238Y-69960714D01*
X131142857Y-70055952D01*
X131190476Y-70103571D01*
X131285714Y-70151190D01*
X131666666Y-70151190D01*
X130238095Y-70627380D02*
X130238095Y-70103571D01*
X130285714Y-70008333D01*
X130380952Y-69960714D01*
X130571428Y-69960714D01*
X130666666Y-70008333D01*
X130238095Y-70579761D02*
X130333333Y-70627380D01*
X130571428Y-70627380D01*
X130666666Y-70579761D01*
X130714285Y-70484523D01*
X130714285Y-70389285D01*
X130666666Y-70294047D01*
X130571428Y-70246428D01*
X130333333Y-70246428D01*
X130238095Y-70198809D01*
X129761904Y-69960714D02*
X129761904Y-70960714D01*
X129761904Y-70008333D02*
X129666666Y-69960714D01*
X129476190Y-69960714D01*
X129380952Y-70008333D01*
X129333333Y-70055952D01*
X129285714Y-70151190D01*
X129285714Y-70436904D01*
X129333333Y-70532142D01*
X129380952Y-70579761D01*
X129476190Y-70627380D01*
X129666666Y-70627380D01*
X129761904Y-70579761D01*
X128857142Y-70627380D02*
X128857142Y-69627380D01*
X128428571Y-70627380D02*
X128428571Y-70103571D01*
X128476190Y-70008333D01*
X128571428Y-69960714D01*
X128714285Y-69960714D01*
X128809523Y-70008333D01*
X128857142Y-70055952D01*
X127523809Y-70627380D02*
X127523809Y-70103571D01*
X127571428Y-70008333D01*
X127666666Y-69960714D01*
X127857142Y-69960714D01*
X127952380Y-70008333D01*
X127523809Y-70579761D02*
X127619047Y-70627380D01*
X127857142Y-70627380D01*
X127952380Y-70579761D01*
X128000000Y-70484523D01*
X128000000Y-70389285D01*
X127952380Y-70294047D01*
X127857142Y-70246428D01*
X127619047Y-70246428D01*
X127523809Y-70198809D01*
X126666666Y-70579761D02*
X126761904Y-70627380D01*
X126952380Y-70627380D01*
X127047619Y-70579761D01*
X127095238Y-70484523D01*
X127095238Y-70103571D01*
X127047619Y-70008333D01*
X126952380Y-69960714D01*
X126761904Y-69960714D01*
X126666666Y-70008333D01*
X126619047Y-70103571D01*
X126619047Y-70198809D01*
X127095238Y-70294047D01*
X126047619Y-70627380D02*
X126142857Y-70579761D01*
X126190476Y-70484523D01*
X126190476Y-69627380D01*
X124952380Y-70579761D02*
X124809523Y-70627380D01*
X124571428Y-70627380D01*
X124476190Y-70579761D01*
X124428571Y-70532142D01*
X124380952Y-70436904D01*
X124380952Y-70341666D01*
X124428571Y-70246428D01*
X124476190Y-70198809D01*
X124571428Y-70151190D01*
X124761904Y-70103571D01*
X124857142Y-70055952D01*
X124904761Y-70008333D01*
X124952380Y-69913095D01*
X124952380Y-69817857D01*
X124904761Y-69722619D01*
X124857142Y-69675000D01*
X124761904Y-69627380D01*
X124523809Y-69627380D01*
X124380952Y-69675000D01*
X124095238Y-69960714D02*
X123714285Y-69960714D01*
X123952380Y-69627380D02*
X123952380Y-70484523D01*
X123904761Y-70579761D01*
X123809523Y-70627380D01*
X123714285Y-70627380D01*
X122952380Y-70627380D02*
X122952380Y-70103571D01*
X123000000Y-70008333D01*
X123095238Y-69960714D01*
X123285714Y-69960714D01*
X123380952Y-70008333D01*
X122952380Y-70579761D02*
X123047619Y-70627380D01*
X123285714Y-70627380D01*
X123380952Y-70579761D01*
X123428571Y-70484523D01*
X123428571Y-70389285D01*
X123380952Y-70294047D01*
X123285714Y-70246428D01*
X123047619Y-70246428D01*
X122952380Y-70198809D01*
X123380952Y-69627380D02*
X123333333Y-69675000D01*
X123380952Y-69722619D01*
X123428571Y-69675000D01*
X123380952Y-69627380D01*
X123380952Y-69722619D01*
X123000000Y-69627380D02*
X122952380Y-69675000D01*
X123000000Y-69722619D01*
X123047619Y-69675000D01*
X123000000Y-69627380D01*
X123000000Y-69722619D01*
X122476190Y-70627380D02*
X122476190Y-69627380D01*
X122476190Y-70008333D02*
X122380952Y-69960714D01*
X122190476Y-69960714D01*
X122095238Y-70008333D01*
X122047619Y-70055952D01*
X122000000Y-70151190D01*
X122000000Y-70436904D01*
X122047619Y-70532142D01*
X122095238Y-70579761D01*
X122190476Y-70627380D01*
X122380952Y-70627380D01*
X122476190Y-70579761D01*
X121428571Y-70627380D02*
X121523809Y-70579761D01*
X121571428Y-70484523D01*
X121571428Y-69627380D01*
X120666666Y-70579761D02*
X120761904Y-70627380D01*
X120952380Y-70627380D01*
X121047619Y-70579761D01*
X121095238Y-70484523D01*
X121095238Y-70103571D01*
X121047619Y-70008333D01*
X120952380Y-69960714D01*
X120761904Y-69960714D01*
X120666666Y-70008333D01*
X120619047Y-70103571D01*
X120619047Y-70198809D01*
X121095238Y-70294047D01*
X120190476Y-70627380D02*
X120190476Y-69960714D01*
X120190476Y-70151190D02*
X120142857Y-70055952D01*
X120095238Y-70008333D01*
X120000000Y-69960714D01*
X119904761Y-69960714D01*
X140409523Y-67536904D02*
X140790476Y-67536904D01*
X140790476Y-66736904D01*
X140142857Y-67536904D02*
X140142857Y-67003571D01*
X140142857Y-66736904D02*
X140180952Y-66775000D01*
X140142857Y-66813095D01*
X140104761Y-66775000D01*
X140142857Y-66736904D01*
X140142857Y-66813095D01*
X139419047Y-67498809D02*
X139495238Y-67536904D01*
X139647619Y-67536904D01*
X139723809Y-67498809D01*
X139761904Y-67460714D01*
X139800000Y-67384523D01*
X139800000Y-67155952D01*
X139761904Y-67079761D01*
X139723809Y-67041666D01*
X139647619Y-67003571D01*
X139495238Y-67003571D01*
X139419047Y-67041666D01*
X138771428Y-67498809D02*
X138847619Y-67536904D01*
X139000000Y-67536904D01*
X139076190Y-67498809D01*
X139114285Y-67422619D01*
X139114285Y-67117857D01*
X139076190Y-67041666D01*
X139000000Y-67003571D01*
X138847619Y-67003571D01*
X138771428Y-67041666D01*
X138733333Y-67117857D01*
X138733333Y-67194047D01*
X139114285Y-67270238D01*
X138390476Y-67003571D02*
X138390476Y-67536904D01*
X138390476Y-67079761D02*
X138352380Y-67041666D01*
X138276190Y-67003571D01*
X138161904Y-67003571D01*
X138085714Y-67041666D01*
X138047619Y-67117857D01*
X138047619Y-67536904D01*
X137704761Y-67498809D02*
X137628571Y-67536904D01*
X137476190Y-67536904D01*
X137400000Y-67498809D01*
X137361904Y-67422619D01*
X137361904Y-67384523D01*
X137400000Y-67308333D01*
X137476190Y-67270238D01*
X137590476Y-67270238D01*
X137666666Y-67232142D01*
X137704761Y-67155952D01*
X137704761Y-67117857D01*
X137666666Y-67041666D01*
X137590476Y-67003571D01*
X137476190Y-67003571D01*
X137400000Y-67041666D01*
X136714285Y-67498809D02*
X136790476Y-67536904D01*
X136942857Y-67536904D01*
X137019047Y-67498809D01*
X137057142Y-67422619D01*
X137057142Y-67117857D01*
X137019047Y-67041666D01*
X136942857Y-67003571D01*
X136790476Y-67003571D01*
X136714285Y-67041666D01*
X136676190Y-67117857D01*
X136676190Y-67194047D01*
X137057142Y-67270238D01*
X135990476Y-67536904D02*
X135990476Y-66736904D01*
X135990476Y-67498809D02*
X136066666Y-67536904D01*
X136219047Y-67536904D01*
X136295238Y-67498809D01*
X136333333Y-67460714D01*
X136371428Y-67384523D01*
X136371428Y-67155952D01*
X136333333Y-67079761D01*
X136295238Y-67041666D01*
X136219047Y-67003571D01*
X136066666Y-67003571D01*
X135990476Y-67041666D01*
X134657142Y-67003571D02*
X134657142Y-67536904D01*
X135000000Y-67003571D02*
X135000000Y-67422619D01*
X134961904Y-67498809D01*
X134885714Y-67536904D01*
X134771428Y-67536904D01*
X134695238Y-67498809D01*
X134657142Y-67460714D01*
X134276190Y-67003571D02*
X134276190Y-67536904D01*
X134276190Y-67079761D02*
X134238095Y-67041666D01*
X134161904Y-67003571D01*
X134047619Y-67003571D01*
X133971428Y-67041666D01*
X133933333Y-67117857D01*
X133933333Y-67536904D01*
X133209523Y-67536904D02*
X133209523Y-66736904D01*
X133209523Y-67498809D02*
X133285714Y-67536904D01*
X133438095Y-67536904D01*
X133514285Y-67498809D01*
X133552380Y-67460714D01*
X133590476Y-67384523D01*
X133590476Y-67155952D01*
X133552380Y-67079761D01*
X133514285Y-67041666D01*
X133438095Y-67003571D01*
X133285714Y-67003571D01*
X133209523Y-67041666D01*
X132523809Y-67498809D02*
X132599999Y-67536904D01*
X132752380Y-67536904D01*
X132828571Y-67498809D01*
X132866666Y-67422619D01*
X132866666Y-67117857D01*
X132828571Y-67041666D01*
X132752380Y-67003571D01*
X132599999Y-67003571D01*
X132523809Y-67041666D01*
X132485714Y-67117857D01*
X132485714Y-67194047D01*
X132866666Y-67270238D01*
X132142857Y-67536904D02*
X132142857Y-67003571D01*
X132142857Y-67155952D02*
X132104761Y-67079761D01*
X132066666Y-67041666D01*
X131990476Y-67003571D01*
X131914285Y-67003571D01*
X130580952Y-67460714D02*
X130619047Y-67498809D01*
X130733333Y-67536904D01*
X130809523Y-67536904D01*
X130923809Y-67498809D01*
X130999999Y-67422619D01*
X131038095Y-67346428D01*
X131076190Y-67194047D01*
X131076190Y-67079761D01*
X131038095Y-66927380D01*
X130999999Y-66851190D01*
X130923809Y-66775000D01*
X130809523Y-66736904D01*
X130733333Y-66736904D01*
X130619047Y-66775000D01*
X130580952Y-66813095D01*
X130238095Y-67117857D02*
X129971428Y-67117857D01*
X129857142Y-67536904D02*
X130238095Y-67536904D01*
X130238095Y-66736904D01*
X129857142Y-66736904D01*
X129057142Y-67536904D02*
X129323809Y-67155952D01*
X129514285Y-67536904D02*
X129514285Y-66736904D01*
X129209523Y-66736904D01*
X129133333Y-66775000D01*
X129095238Y-66813095D01*
X129057142Y-66889285D01*
X129057142Y-67003571D01*
X129095238Y-67079761D01*
X129133333Y-67117857D01*
X129209523Y-67155952D01*
X129514285Y-67155952D01*
X128714285Y-67536904D02*
X128714285Y-66736904D01*
X128257142Y-67536904D01*
X128257142Y-66736904D01*
X127876190Y-67232142D02*
X127266666Y-67232142D01*
X126733333Y-66736904D02*
X126580952Y-66736904D01*
X126504761Y-66775000D01*
X126428571Y-66851190D01*
X126390476Y-67003571D01*
X126390476Y-67270238D01*
X126428571Y-67422619D01*
X126504761Y-67498809D01*
X126580952Y-67536904D01*
X126733333Y-67536904D01*
X126809523Y-67498809D01*
X126885714Y-67422619D01*
X126923809Y-67270238D01*
X126923809Y-67003571D01*
X126885714Y-66851190D01*
X126809523Y-66775000D01*
X126733333Y-66736904D01*
X126047619Y-67536904D02*
X126047619Y-66736904D01*
X126047619Y-67117857D02*
X125590476Y-67117857D01*
X125590476Y-67536904D02*
X125590476Y-66736904D01*
X124828571Y-67536904D02*
X125209523Y-67536904D01*
X125209523Y-66736904D01*
X124561904Y-67232142D02*
X123952380Y-67232142D01*
X123609523Y-67498809D02*
X123495238Y-67536904D01*
X123304761Y-67536904D01*
X123228571Y-67498809D01*
X123190476Y-67460714D01*
X123152380Y-67384523D01*
X123152380Y-67308333D01*
X123190476Y-67232142D01*
X123228571Y-67194047D01*
X123304761Y-67155952D01*
X123457142Y-67117857D01*
X123533333Y-67079761D01*
X123571428Y-67041666D01*
X123609523Y-66965476D01*
X123609523Y-66889285D01*
X123571428Y-66813095D01*
X123533333Y-66775000D01*
X123457142Y-66736904D01*
X123266666Y-66736904D01*
X123152380Y-66775000D01*
X122276190Y-67003571D02*
X122085714Y-67536904D01*
X121895238Y-67003571D01*
X121628571Y-66813095D02*
X121590476Y-66775000D01*
X121514285Y-66736904D01*
X121323809Y-66736904D01*
X121247619Y-66775000D01*
X121209523Y-66813095D01*
X121171428Y-66889285D01*
X121171428Y-66965476D01*
X121209523Y-67079761D01*
X121666666Y-67536904D01*
X121171428Y-67536904D01*
D11*
%TO.C,OSHW Logo*%
G36*
X130860122Y-58287776D02*
G01*
X130754388Y-58288355D01*
X130677868Y-58289922D01*
X130625628Y-58292972D01*
X130592737Y-58297996D01*
X130574263Y-58305489D01*
X130565273Y-58315944D01*
X130560837Y-58329853D01*
X130560406Y-58331654D01*
X130553667Y-58364145D01*
X130541192Y-58428252D01*
X130524281Y-58517151D01*
X130504229Y-58624019D01*
X130482336Y-58742033D01*
X130481571Y-58746178D01*
X130459641Y-58861831D01*
X130439123Y-58964014D01*
X130421341Y-59046598D01*
X130407619Y-59103456D01*
X130399282Y-59128458D01*
X130398884Y-59128901D01*
X130374323Y-59141110D01*
X130323685Y-59161456D01*
X130257905Y-59185545D01*
X130257539Y-59185674D01*
X130174683Y-59216818D01*
X130077000Y-59256491D01*
X129984923Y-59296381D01*
X129980566Y-59298353D01*
X129830593Y-59366420D01*
X129498502Y-59139639D01*
X129396626Y-59070504D01*
X129304343Y-59008697D01*
X129226997Y-58957733D01*
X129169936Y-58921127D01*
X129138505Y-58902394D01*
X129135521Y-58901004D01*
X129112679Y-58907190D01*
X129070018Y-58937035D01*
X129005872Y-58991947D01*
X128918579Y-59073334D01*
X128829465Y-59159922D01*
X128743559Y-59245247D01*
X128666673Y-59323108D01*
X128603436Y-59388697D01*
X128558477Y-59437205D01*
X128536424Y-59463825D01*
X128535604Y-59465195D01*
X128533166Y-59483463D01*
X128542350Y-59513295D01*
X128565426Y-59558721D01*
X128604663Y-59623770D01*
X128662330Y-59712470D01*
X128739205Y-59826657D01*
X128807430Y-59927162D01*
X128868418Y-60017303D01*
X128918644Y-60091849D01*
X128954584Y-60145565D01*
X128972713Y-60173218D01*
X128973854Y-60175095D01*
X128971641Y-60201590D01*
X128954862Y-60253086D01*
X128926858Y-60319851D01*
X128916878Y-60341172D01*
X128873328Y-60436159D01*
X128826866Y-60543937D01*
X128789123Y-60637192D01*
X128761927Y-60706406D01*
X128740325Y-60759006D01*
X128727842Y-60786497D01*
X128726291Y-60788616D01*
X128703332Y-60792124D01*
X128649214Y-60801738D01*
X128571132Y-60816089D01*
X128476281Y-60833807D01*
X128371857Y-60853525D01*
X128265056Y-60873874D01*
X128163074Y-60893486D01*
X128073106Y-60910991D01*
X128002347Y-60925022D01*
X127957994Y-60934209D01*
X127947115Y-60936807D01*
X127935878Y-60943218D01*
X127927395Y-60957697D01*
X127921286Y-60985133D01*
X127917168Y-61030411D01*
X127914659Y-61098420D01*
X127913379Y-61194047D01*
X127912946Y-61322180D01*
X127912923Y-61374701D01*
X127912923Y-61801845D01*
X128015500Y-61822091D01*
X128072569Y-61833070D01*
X128157731Y-61849095D01*
X128260628Y-61868233D01*
X128370904Y-61888551D01*
X128401385Y-61894132D01*
X128503145Y-61913917D01*
X128591795Y-61933373D01*
X128659892Y-61950697D01*
X128699996Y-61964088D01*
X128706677Y-61968079D01*
X128723081Y-61996342D01*
X128746601Y-62051109D01*
X128772684Y-62121588D01*
X128777858Y-62136769D01*
X128812044Y-62230896D01*
X128854477Y-62337101D01*
X128896003Y-62432473D01*
X128896208Y-62432916D01*
X128965360Y-62582525D01*
X128510488Y-63251617D01*
X128802500Y-63544116D01*
X128890820Y-63631170D01*
X128971375Y-63707909D01*
X129039640Y-63770237D01*
X129091092Y-63814056D01*
X129121206Y-63835270D01*
X129125526Y-63836616D01*
X129150889Y-63826016D01*
X129202642Y-63796547D01*
X129275132Y-63751705D01*
X129362706Y-63694984D01*
X129457388Y-63631462D01*
X129553484Y-63566668D01*
X129639163Y-63510287D01*
X129708984Y-63465788D01*
X129757506Y-63436639D01*
X129779218Y-63426308D01*
X129805707Y-63435050D01*
X129855938Y-63458087D01*
X129919549Y-63490631D01*
X129926292Y-63494249D01*
X130011954Y-63537210D01*
X130070694Y-63558279D01*
X130107228Y-63558503D01*
X130126269Y-63538928D01*
X130126380Y-63538654D01*
X130135898Y-63515472D01*
X130158597Y-63460441D01*
X130192718Y-63377822D01*
X130236500Y-63271872D01*
X130288184Y-63146852D01*
X130346008Y-63007020D01*
X130402009Y-62871637D01*
X130463553Y-62722234D01*
X130520061Y-62583832D01*
X130569839Y-62460673D01*
X130611194Y-62357002D01*
X130642432Y-62277059D01*
X130661859Y-62225088D01*
X130667846Y-62205692D01*
X130652832Y-62183443D01*
X130613561Y-62147982D01*
X130561193Y-62108887D01*
X130412059Y-61985245D01*
X130295489Y-61843522D01*
X130212882Y-61686704D01*
X130165634Y-61517775D01*
X130155143Y-61339722D01*
X130162769Y-61257539D01*
X130204318Y-61087031D01*
X130275877Y-60936459D01*
X130373005Y-60807309D01*
X130491266Y-60701064D01*
X130626220Y-60619210D01*
X130773429Y-60563232D01*
X130928456Y-60534615D01*
X131086861Y-60534844D01*
X131244206Y-60565405D01*
X131396054Y-60627782D01*
X131537965Y-60723460D01*
X131597197Y-60777572D01*
X131710797Y-60916520D01*
X131789894Y-61068361D01*
X131835014Y-61228667D01*
X131846684Y-61393012D01*
X131825431Y-61556971D01*
X131771780Y-61716118D01*
X131686260Y-61866025D01*
X131569395Y-62002267D01*
X131438807Y-62108887D01*
X131384412Y-62149642D01*
X131345986Y-62184718D01*
X131332154Y-62205726D01*
X131339397Y-62228635D01*
X131359995Y-62283365D01*
X131392254Y-62365672D01*
X131434479Y-62471315D01*
X131484977Y-62596050D01*
X131542052Y-62735636D01*
X131598146Y-62871670D01*
X131660033Y-63021201D01*
X131717356Y-63159767D01*
X131768356Y-63283107D01*
X131811273Y-63386964D01*
X131844347Y-63467080D01*
X131865819Y-63519195D01*
X131873775Y-63538654D01*
X131892571Y-63558423D01*
X131928926Y-63558365D01*
X131987521Y-63537441D01*
X132073032Y-63494613D01*
X132073708Y-63494249D01*
X132138093Y-63461012D01*
X132190139Y-63436802D01*
X132219488Y-63426404D01*
X132220783Y-63426308D01*
X132242876Y-63436855D01*
X132291652Y-63466184D01*
X132361669Y-63510827D01*
X132447486Y-63567314D01*
X132542612Y-63631462D01*
X132639460Y-63696411D01*
X132726747Y-63752896D01*
X132798819Y-63797421D01*
X132850023Y-63826490D01*
X132874474Y-63836616D01*
X132896990Y-63823307D01*
X132942258Y-63786112D01*
X133005756Y-63729128D01*
X133082961Y-63656449D01*
X133169349Y-63572171D01*
X133197601Y-63544016D01*
X133489713Y-63251416D01*
X133267369Y-62925104D01*
X133199798Y-62824897D01*
X133140493Y-62734963D01*
X133092783Y-62660510D01*
X133059993Y-62606751D01*
X133045452Y-62578894D01*
X133045026Y-62576912D01*
X133052692Y-62550655D01*
X133073311Y-62497837D01*
X133103315Y-62427310D01*
X133124375Y-62380093D01*
X133163752Y-62289694D01*
X133200835Y-62198366D01*
X133229585Y-62121200D01*
X133237395Y-62097692D01*
X133259583Y-62034916D01*
X133281273Y-61986411D01*
X133293187Y-61968079D01*
X133319477Y-61956859D01*
X133376858Y-61940954D01*
X133457882Y-61922167D01*
X133555105Y-61902299D01*
X133598615Y-61894132D01*
X133709104Y-61873829D01*
X133815084Y-61854170D01*
X133906199Y-61837088D01*
X133972092Y-61824518D01*
X133984500Y-61822091D01*
X134087077Y-61801845D01*
X134087077Y-61374701D01*
X134086847Y-61234246D01*
X134085901Y-61127979D01*
X134083859Y-61051013D01*
X134080338Y-60998460D01*
X134074957Y-60965433D01*
X134067334Y-60947045D01*
X134057088Y-60938408D01*
X134052885Y-60936807D01*
X134027530Y-60931127D01*
X133971516Y-60919795D01*
X133892036Y-60904179D01*
X133796288Y-60885647D01*
X133691467Y-60865569D01*
X133584768Y-60845312D01*
X133483387Y-60826246D01*
X133394521Y-60809739D01*
X133325363Y-60797159D01*
X133283111Y-60789875D01*
X133273710Y-60788616D01*
X133265193Y-60771763D01*
X133246340Y-60726870D01*
X133220676Y-60662430D01*
X133210877Y-60637192D01*
X133171352Y-60539686D01*
X133124808Y-60431959D01*
X133083123Y-60341172D01*
X133052450Y-60271753D01*
X133032044Y-60214710D01*
X133025232Y-60179777D01*
X133026318Y-60175095D01*
X133040715Y-60152991D01*
X133073588Y-60103831D01*
X133121410Y-60032848D01*
X133180652Y-59945278D01*
X133247785Y-59846357D01*
X133261059Y-59826830D01*
X133338954Y-59711140D01*
X133396213Y-59623044D01*
X133435119Y-59558486D01*
X133457956Y-59513411D01*
X133467006Y-59483763D01*
X133464552Y-59465485D01*
X133464489Y-59465369D01*
X133445173Y-59441361D01*
X133402449Y-59394947D01*
X133340949Y-59330937D01*
X133265302Y-59254145D01*
X133180139Y-59169382D01*
X133170535Y-59159922D01*
X133063210Y-59055989D01*
X132980385Y-58979675D01*
X132920395Y-58929571D01*
X132881577Y-58904270D01*
X132864480Y-58901004D01*
X132839527Y-58915250D01*
X132787745Y-58948156D01*
X132714480Y-58996208D01*
X132625080Y-59055890D01*
X132524889Y-59123688D01*
X132501499Y-59139639D01*
X132169407Y-59366420D01*
X132019435Y-59298353D01*
X131928230Y-59258685D01*
X131830331Y-59218791D01*
X131746169Y-59186983D01*
X131742462Y-59185674D01*
X131676631Y-59161576D01*
X131625884Y-59141200D01*
X131601158Y-59128936D01*
X131601116Y-59128901D01*
X131593271Y-59106734D01*
X131579934Y-59052217D01*
X131562430Y-58971480D01*
X131542083Y-58870650D01*
X131520218Y-58755856D01*
X131518429Y-58746178D01*
X131496496Y-58627904D01*
X131476360Y-58520542D01*
X131459320Y-58430917D01*
X131446672Y-58365851D01*
X131439716Y-58332168D01*
X131439594Y-58331654D01*
X131435361Y-58317325D01*
X131427129Y-58306507D01*
X131409967Y-58298706D01*
X131378942Y-58293429D01*
X131329122Y-58290182D01*
X131255576Y-58288472D01*
X131153371Y-58287807D01*
X131017575Y-58287693D01*
X131000000Y-58287692D01*
X130860122Y-58287776D01*
G37*
X130860122Y-58287776D02*
X130754388Y-58288355D01*
X130677868Y-58289922D01*
X130625628Y-58292972D01*
X130592737Y-58297996D01*
X130574263Y-58305489D01*
X130565273Y-58315944D01*
X130560837Y-58329853D01*
X130560406Y-58331654D01*
X130553667Y-58364145D01*
X130541192Y-58428252D01*
X130524281Y-58517151D01*
X130504229Y-58624019D01*
X130482336Y-58742033D01*
X130481571Y-58746178D01*
X130459641Y-58861831D01*
X130439123Y-58964014D01*
X130421341Y-59046598D01*
X130407619Y-59103456D01*
X130399282Y-59128458D01*
X130398884Y-59128901D01*
X130374323Y-59141110D01*
X130323685Y-59161456D01*
X130257905Y-59185545D01*
X130257539Y-59185674D01*
X130174683Y-59216818D01*
X130077000Y-59256491D01*
X129984923Y-59296381D01*
X129980566Y-59298353D01*
X129830593Y-59366420D01*
X129498502Y-59139639D01*
X129396626Y-59070504D01*
X129304343Y-59008697D01*
X129226997Y-58957733D01*
X129169936Y-58921127D01*
X129138505Y-58902394D01*
X129135521Y-58901004D01*
X129112679Y-58907190D01*
X129070018Y-58937035D01*
X129005872Y-58991947D01*
X128918579Y-59073334D01*
X128829465Y-59159922D01*
X128743559Y-59245247D01*
X128666673Y-59323108D01*
X128603436Y-59388697D01*
X128558477Y-59437205D01*
X128536424Y-59463825D01*
X128535604Y-59465195D01*
X128533166Y-59483463D01*
X128542350Y-59513295D01*
X128565426Y-59558721D01*
X128604663Y-59623770D01*
X128662330Y-59712470D01*
X128739205Y-59826657D01*
X128807430Y-59927162D01*
X128868418Y-60017303D01*
X128918644Y-60091849D01*
X128954584Y-60145565D01*
X128972713Y-60173218D01*
X128973854Y-60175095D01*
X128971641Y-60201590D01*
X128954862Y-60253086D01*
X128926858Y-60319851D01*
X128916878Y-60341172D01*
X128873328Y-60436159D01*
X128826866Y-60543937D01*
X128789123Y-60637192D01*
X128761927Y-60706406D01*
X128740325Y-60759006D01*
X128727842Y-60786497D01*
X128726291Y-60788616D01*
X128703332Y-60792124D01*
X128649214Y-60801738D01*
X128571132Y-60816089D01*
X128476281Y-60833807D01*
X128371857Y-60853525D01*
X128265056Y-60873874D01*
X128163074Y-60893486D01*
X128073106Y-60910991D01*
X128002347Y-60925022D01*
X127957994Y-60934209D01*
X127947115Y-60936807D01*
X127935878Y-60943218D01*
X127927395Y-60957697D01*
X127921286Y-60985133D01*
X127917168Y-61030411D01*
X127914659Y-61098420D01*
X127913379Y-61194047D01*
X127912946Y-61322180D01*
X127912923Y-61374701D01*
X127912923Y-61801845D01*
X128015500Y-61822091D01*
X128072569Y-61833070D01*
X128157731Y-61849095D01*
X128260628Y-61868233D01*
X128370904Y-61888551D01*
X128401385Y-61894132D01*
X128503145Y-61913917D01*
X128591795Y-61933373D01*
X128659892Y-61950697D01*
X128699996Y-61964088D01*
X128706677Y-61968079D01*
X128723081Y-61996342D01*
X128746601Y-62051109D01*
X128772684Y-62121588D01*
X128777858Y-62136769D01*
X128812044Y-62230896D01*
X128854477Y-62337101D01*
X128896003Y-62432473D01*
X128896208Y-62432916D01*
X128965360Y-62582525D01*
X128510488Y-63251617D01*
X128802500Y-63544116D01*
X128890820Y-63631170D01*
X128971375Y-63707909D01*
X129039640Y-63770237D01*
X129091092Y-63814056D01*
X129121206Y-63835270D01*
X129125526Y-63836616D01*
X129150889Y-63826016D01*
X129202642Y-63796547D01*
X129275132Y-63751705D01*
X129362706Y-63694984D01*
X129457388Y-63631462D01*
X129553484Y-63566668D01*
X129639163Y-63510287D01*
X129708984Y-63465788D01*
X129757506Y-63436639D01*
X129779218Y-63426308D01*
X129805707Y-63435050D01*
X129855938Y-63458087D01*
X129919549Y-63490631D01*
X129926292Y-63494249D01*
X130011954Y-63537210D01*
X130070694Y-63558279D01*
X130107228Y-63558503D01*
X130126269Y-63538928D01*
X130126380Y-63538654D01*
X130135898Y-63515472D01*
X130158597Y-63460441D01*
X130192718Y-63377822D01*
X130236500Y-63271872D01*
X130288184Y-63146852D01*
X130346008Y-63007020D01*
X130402009Y-62871637D01*
X130463553Y-62722234D01*
X130520061Y-62583832D01*
X130569839Y-62460673D01*
X130611194Y-62357002D01*
X130642432Y-62277059D01*
X130661859Y-62225088D01*
X130667846Y-62205692D01*
X130652832Y-62183443D01*
X130613561Y-62147982D01*
X130561193Y-62108887D01*
X130412059Y-61985245D01*
X130295489Y-61843522D01*
X130212882Y-61686704D01*
X130165634Y-61517775D01*
X130155143Y-61339722D01*
X130162769Y-61257539D01*
X130204318Y-61087031D01*
X130275877Y-60936459D01*
X130373005Y-60807309D01*
X130491266Y-60701064D01*
X130626220Y-60619210D01*
X130773429Y-60563232D01*
X130928456Y-60534615D01*
X131086861Y-60534844D01*
X131244206Y-60565405D01*
X131396054Y-60627782D01*
X131537965Y-60723460D01*
X131597197Y-60777572D01*
X131710797Y-60916520D01*
X131789894Y-61068361D01*
X131835014Y-61228667D01*
X131846684Y-61393012D01*
X131825431Y-61556971D01*
X131771780Y-61716118D01*
X131686260Y-61866025D01*
X131569395Y-62002267D01*
X131438807Y-62108887D01*
X131384412Y-62149642D01*
X131345986Y-62184718D01*
X131332154Y-62205726D01*
X131339397Y-62228635D01*
X131359995Y-62283365D01*
X131392254Y-62365672D01*
X131434479Y-62471315D01*
X131484977Y-62596050D01*
X131542052Y-62735636D01*
X131598146Y-62871670D01*
X131660033Y-63021201D01*
X131717356Y-63159767D01*
X131768356Y-63283107D01*
X131811273Y-63386964D01*
X131844347Y-63467080D01*
X131865819Y-63519195D01*
X131873775Y-63538654D01*
X131892571Y-63558423D01*
X131928926Y-63558365D01*
X131987521Y-63537441D01*
X132073032Y-63494613D01*
X132073708Y-63494249D01*
X132138093Y-63461012D01*
X132190139Y-63436802D01*
X132219488Y-63426404D01*
X132220783Y-63426308D01*
X132242876Y-63436855D01*
X132291652Y-63466184D01*
X132361669Y-63510827D01*
X132447486Y-63567314D01*
X132542612Y-63631462D01*
X132639460Y-63696411D01*
X132726747Y-63752896D01*
X132798819Y-63797421D01*
X132850023Y-63826490D01*
X132874474Y-63836616D01*
X132896990Y-63823307D01*
X132942258Y-63786112D01*
X133005756Y-63729128D01*
X133082961Y-63656449D01*
X133169349Y-63572171D01*
X133197601Y-63544016D01*
X133489713Y-63251416D01*
X133267369Y-62925104D01*
X133199798Y-62824897D01*
X133140493Y-62734963D01*
X133092783Y-62660510D01*
X133059993Y-62606751D01*
X133045452Y-62578894D01*
X133045026Y-62576912D01*
X133052692Y-62550655D01*
X133073311Y-62497837D01*
X133103315Y-62427310D01*
X133124375Y-62380093D01*
X133163752Y-62289694D01*
X133200835Y-62198366D01*
X133229585Y-62121200D01*
X133237395Y-62097692D01*
X133259583Y-62034916D01*
X133281273Y-61986411D01*
X133293187Y-61968079D01*
X133319477Y-61956859D01*
X133376858Y-61940954D01*
X133457882Y-61922167D01*
X133555105Y-61902299D01*
X133598615Y-61894132D01*
X133709104Y-61873829D01*
X133815084Y-61854170D01*
X133906199Y-61837088D01*
X133972092Y-61824518D01*
X133984500Y-61822091D01*
X134087077Y-61801845D01*
X134087077Y-61374701D01*
X134086847Y-61234246D01*
X134085901Y-61127979D01*
X134083859Y-61051013D01*
X134080338Y-60998460D01*
X134074957Y-60965433D01*
X134067334Y-60947045D01*
X134057088Y-60938408D01*
X134052885Y-60936807D01*
X134027530Y-60931127D01*
X133971516Y-60919795D01*
X133892036Y-60904179D01*
X133796288Y-60885647D01*
X133691467Y-60865569D01*
X133584768Y-60845312D01*
X133483387Y-60826246D01*
X133394521Y-60809739D01*
X133325363Y-60797159D01*
X133283111Y-60789875D01*
X133273710Y-60788616D01*
X133265193Y-60771763D01*
X133246340Y-60726870D01*
X133220676Y-60662430D01*
X133210877Y-60637192D01*
X133171352Y-60539686D01*
X133124808Y-60431959D01*
X133083123Y-60341172D01*
X133052450Y-60271753D01*
X133032044Y-60214710D01*
X133025232Y-60179777D01*
X133026318Y-60175095D01*
X133040715Y-60152991D01*
X133073588Y-60103831D01*
X133121410Y-60032848D01*
X133180652Y-59945278D01*
X133247785Y-59846357D01*
X133261059Y-59826830D01*
X133338954Y-59711140D01*
X133396213Y-59623044D01*
X133435119Y-59558486D01*
X133457956Y-59513411D01*
X133467006Y-59483763D01*
X133464552Y-59465485D01*
X133464489Y-59465369D01*
X133445173Y-59441361D01*
X133402449Y-59394947D01*
X133340949Y-59330937D01*
X133265302Y-59254145D01*
X133180139Y-59169382D01*
X133170535Y-59159922D01*
X133063210Y-59055989D01*
X132980385Y-58979675D01*
X132920395Y-58929571D01*
X132881577Y-58904270D01*
X132864480Y-58901004D01*
X132839527Y-58915250D01*
X132787745Y-58948156D01*
X132714480Y-58996208D01*
X132625080Y-59055890D01*
X132524889Y-59123688D01*
X132501499Y-59139639D01*
X132169407Y-59366420D01*
X132019435Y-59298353D01*
X131928230Y-59258685D01*
X131830331Y-59218791D01*
X131746169Y-59186983D01*
X131742462Y-59185674D01*
X131676631Y-59161576D01*
X131625884Y-59141200D01*
X131601158Y-59128936D01*
X131601116Y-59128901D01*
X131593271Y-59106734D01*
X131579934Y-59052217D01*
X131562430Y-58971480D01*
X131542083Y-58870650D01*
X131520218Y-58755856D01*
X131518429Y-58746178D01*
X131496496Y-58627904D01*
X131476360Y-58520542D01*
X131459320Y-58430917D01*
X131446672Y-58365851D01*
X131439716Y-58332168D01*
X131439594Y-58331654D01*
X131435361Y-58317325D01*
X131427129Y-58306507D01*
X131409967Y-58298706D01*
X131378942Y-58293429D01*
X131329122Y-58290182D01*
X131255576Y-58288472D01*
X131153371Y-58287807D01*
X131017575Y-58287693D01*
X131000000Y-58287692D01*
X130860122Y-58287776D01*
G36*
X126754776Y-64647838D02*
G01*
X126677472Y-64698361D01*
X126640186Y-64743590D01*
X126610647Y-64825663D01*
X126608301Y-64890607D01*
X126613615Y-64977445D01*
X126813885Y-65065103D01*
X126911261Y-65109887D01*
X126974887Y-65145913D01*
X127007971Y-65177117D01*
X127013720Y-65207436D01*
X126995342Y-65240805D01*
X126975077Y-65262923D01*
X126916111Y-65298393D01*
X126851976Y-65300879D01*
X126793074Y-65273235D01*
X126749803Y-65218320D01*
X126742064Y-65198928D01*
X126704994Y-65138364D01*
X126662346Y-65112552D01*
X126603846Y-65090471D01*
X126603846Y-65174184D01*
X126609018Y-65231150D01*
X126629277Y-65279189D01*
X126671738Y-65334346D01*
X126678049Y-65341514D01*
X126725280Y-65390585D01*
X126765879Y-65416920D01*
X126816672Y-65429035D01*
X126858780Y-65433003D01*
X126934098Y-65433991D01*
X126987714Y-65421466D01*
X127021162Y-65402869D01*
X127073732Y-65361975D01*
X127110121Y-65317748D01*
X127133150Y-65262126D01*
X127145641Y-65187047D01*
X127150413Y-65084449D01*
X127150794Y-65032376D01*
X127149499Y-64969948D01*
X127031529Y-64969948D01*
X127030161Y-65003438D01*
X127026751Y-65008923D01*
X127004247Y-65001472D01*
X126955818Y-64981753D01*
X126891092Y-64953718D01*
X126877557Y-64947692D01*
X126795756Y-64906096D01*
X126750688Y-64869538D01*
X126740783Y-64835296D01*
X126764474Y-64800648D01*
X126784040Y-64785339D01*
X126854640Y-64754721D01*
X126920720Y-64759780D01*
X126976041Y-64797151D01*
X127014364Y-64863473D01*
X127026651Y-64916116D01*
X127031529Y-64969948D01*
X127149499Y-64969948D01*
X127148270Y-64910720D01*
X127138968Y-64820710D01*
X127120540Y-64755167D01*
X127090640Y-64706912D01*
X127046920Y-64668767D01*
X127027859Y-64656440D01*
X126941274Y-64624336D01*
X126846478Y-64622316D01*
X126754776Y-64647838D01*
G37*
X126754776Y-64647838D02*
X126677472Y-64698361D01*
X126640186Y-64743590D01*
X126610647Y-64825663D01*
X126608301Y-64890607D01*
X126613615Y-64977445D01*
X126813885Y-65065103D01*
X126911261Y-65109887D01*
X126974887Y-65145913D01*
X127007971Y-65177117D01*
X127013720Y-65207436D01*
X126995342Y-65240805D01*
X126975077Y-65262923D01*
X126916111Y-65298393D01*
X126851976Y-65300879D01*
X126793074Y-65273235D01*
X126749803Y-65218320D01*
X126742064Y-65198928D01*
X126704994Y-65138364D01*
X126662346Y-65112552D01*
X126603846Y-65090471D01*
X126603846Y-65174184D01*
X126609018Y-65231150D01*
X126629277Y-65279189D01*
X126671738Y-65334346D01*
X126678049Y-65341514D01*
X126725280Y-65390585D01*
X126765879Y-65416920D01*
X126816672Y-65429035D01*
X126858780Y-65433003D01*
X126934098Y-65433991D01*
X126987714Y-65421466D01*
X127021162Y-65402869D01*
X127073732Y-65361975D01*
X127110121Y-65317748D01*
X127133150Y-65262126D01*
X127145641Y-65187047D01*
X127150413Y-65084449D01*
X127150794Y-65032376D01*
X127149499Y-64969948D01*
X127031529Y-64969948D01*
X127030161Y-65003438D01*
X127026751Y-65008923D01*
X127004247Y-65001472D01*
X126955818Y-64981753D01*
X126891092Y-64953718D01*
X126877557Y-64947692D01*
X126795756Y-64906096D01*
X126750688Y-64869538D01*
X126740783Y-64835296D01*
X126764474Y-64800648D01*
X126784040Y-64785339D01*
X126854640Y-64754721D01*
X126920720Y-64759780D01*
X126976041Y-64797151D01*
X127014364Y-64863473D01*
X127026651Y-64916116D01*
X127031529Y-64969948D01*
X127149499Y-64969948D01*
X127148270Y-64910720D01*
X127138968Y-64820710D01*
X127120540Y-64755167D01*
X127090640Y-64706912D01*
X127046920Y-64668767D01*
X127027859Y-64656440D01*
X126941274Y-64624336D01*
X126846478Y-64622316D01*
X126754776Y-64647838D01*
G36*
X127429193Y-64636782D02*
G01*
X127405839Y-64646988D01*
X127350098Y-64691134D01*
X127302431Y-64754967D01*
X127272952Y-64823087D01*
X127268154Y-64856670D01*
X127284240Y-64903556D01*
X127319525Y-64928365D01*
X127357356Y-64943387D01*
X127374679Y-64946155D01*
X127383114Y-64926066D01*
X127399770Y-64882351D01*
X127407077Y-64862598D01*
X127448052Y-64794271D01*
X127507378Y-64760191D01*
X127583448Y-64761239D01*
X127589082Y-64762581D01*
X127629695Y-64781836D01*
X127659552Y-64819375D01*
X127679945Y-64879809D01*
X127692164Y-64967751D01*
X127697500Y-65087813D01*
X127698000Y-65151698D01*
X127698248Y-65252403D01*
X127699874Y-65321054D01*
X127704199Y-65364673D01*
X127712546Y-65390282D01*
X127726235Y-65404903D01*
X127746589Y-65415558D01*
X127747766Y-65416095D01*
X127786962Y-65432667D01*
X127806381Y-65438769D01*
X127809365Y-65420319D01*
X127811919Y-65369323D01*
X127813860Y-65292308D01*
X127815003Y-65195805D01*
X127815231Y-65125184D01*
X127814068Y-64988525D01*
X127809521Y-64884851D01*
X127800001Y-64808108D01*
X127783919Y-64752246D01*
X127759687Y-64711212D01*
X127725714Y-64678954D01*
X127692167Y-64656440D01*
X127611501Y-64626476D01*
X127517619Y-64619718D01*
X127429193Y-64636782D01*
G37*
X127429193Y-64636782D02*
X127405839Y-64646988D01*
X127350098Y-64691134D01*
X127302431Y-64754967D01*
X127272952Y-64823087D01*
X127268154Y-64856670D01*
X127284240Y-64903556D01*
X127319525Y-64928365D01*
X127357356Y-64943387D01*
X127374679Y-64946155D01*
X127383114Y-64926066D01*
X127399770Y-64882351D01*
X127407077Y-64862598D01*
X127448052Y-64794271D01*
X127507378Y-64760191D01*
X127583448Y-64761239D01*
X127589082Y-64762581D01*
X127629695Y-64781836D01*
X127659552Y-64819375D01*
X127679945Y-64879809D01*
X127692164Y-64967751D01*
X127697500Y-65087813D01*
X127698000Y-65151698D01*
X127698248Y-65252403D01*
X127699874Y-65321054D01*
X127704199Y-65364673D01*
X127712546Y-65390282D01*
X127726235Y-65404903D01*
X127746589Y-65415558D01*
X127747766Y-65416095D01*
X127786962Y-65432667D01*
X127806381Y-65438769D01*
X127809365Y-65420319D01*
X127811919Y-65369323D01*
X127813860Y-65292308D01*
X127815003Y-65195805D01*
X127815231Y-65125184D01*
X127814068Y-64988525D01*
X127809521Y-64884851D01*
X127800001Y-64808108D01*
X127783919Y-64752246D01*
X127759687Y-64711212D01*
X127725714Y-64678954D01*
X127692167Y-64656440D01*
X127611501Y-64626476D01*
X127517619Y-64619718D01*
X127429193Y-64636782D01*
G36*
X128112667Y-64633528D02*
G01*
X128056410Y-64659117D01*
X128012253Y-64690124D01*
X127979899Y-64724795D01*
X127957562Y-64769520D01*
X127943454Y-64830692D01*
X127935789Y-64914701D01*
X127932780Y-65027940D01*
X127932462Y-65102509D01*
X127932462Y-65393420D01*
X127982227Y-65416095D01*
X128021424Y-65432667D01*
X128040843Y-65438769D01*
X128044558Y-65420610D01*
X128047505Y-65371648D01*
X128049309Y-65300153D01*
X128049692Y-65243385D01*
X128051339Y-65161371D01*
X128055778Y-65096309D01*
X128062260Y-65056467D01*
X128067410Y-65048000D01*
X128102023Y-65056646D01*
X128156360Y-65078823D01*
X128219278Y-65108886D01*
X128279632Y-65141192D01*
X128326279Y-65170098D01*
X128348074Y-65189961D01*
X128348161Y-65190175D01*
X128346286Y-65226935D01*
X128329475Y-65262026D01*
X128299961Y-65290528D01*
X128256884Y-65300061D01*
X128220068Y-65298950D01*
X128167926Y-65298133D01*
X128140556Y-65310349D01*
X128124118Y-65342624D01*
X128122045Y-65348710D01*
X128114919Y-65394739D01*
X128133976Y-65422687D01*
X128183647Y-65436007D01*
X128237303Y-65438470D01*
X128333858Y-65420210D01*
X128383841Y-65394131D01*
X128445571Y-65332868D01*
X128478310Y-65257670D01*
X128481247Y-65178211D01*
X128453576Y-65104167D01*
X128411953Y-65057769D01*
X128370396Y-65031793D01*
X128305078Y-64998907D01*
X128228962Y-64965557D01*
X128216274Y-64960461D01*
X128132667Y-64923565D01*
X128084470Y-64891046D01*
X128068970Y-64858718D01*
X128083450Y-64822394D01*
X128108308Y-64794000D01*
X128167061Y-64759039D01*
X128231707Y-64756417D01*
X128290992Y-64783358D01*
X128333661Y-64837088D01*
X128339261Y-64850950D01*
X128371867Y-64901936D01*
X128419470Y-64939787D01*
X128479539Y-64970850D01*
X128479539Y-64882768D01*
X128476003Y-64828951D01*
X128460844Y-64786534D01*
X128427232Y-64741279D01*
X128394965Y-64706420D01*
X128344791Y-64657062D01*
X128305807Y-64630547D01*
X128263936Y-64619911D01*
X128216540Y-64618154D01*
X128112667Y-64633528D01*
G37*
X128112667Y-64633528D02*
X128056410Y-64659117D01*
X128012253Y-64690124D01*
X127979899Y-64724795D01*
X127957562Y-64769520D01*
X127943454Y-64830692D01*
X127935789Y-64914701D01*
X127932780Y-65027940D01*
X127932462Y-65102509D01*
X127932462Y-65393420D01*
X127982227Y-65416095D01*
X128021424Y-65432667D01*
X128040843Y-65438769D01*
X128044558Y-65420610D01*
X128047505Y-65371648D01*
X128049309Y-65300153D01*
X128049692Y-65243385D01*
X128051339Y-65161371D01*
X128055778Y-65096309D01*
X128062260Y-65056467D01*
X128067410Y-65048000D01*
X128102023Y-65056646D01*
X128156360Y-65078823D01*
X128219278Y-65108886D01*
X128279632Y-65141192D01*
X128326279Y-65170098D01*
X128348074Y-65189961D01*
X128348161Y-65190175D01*
X128346286Y-65226935D01*
X128329475Y-65262026D01*
X128299961Y-65290528D01*
X128256884Y-65300061D01*
X128220068Y-65298950D01*
X128167926Y-65298133D01*
X128140556Y-65310349D01*
X128124118Y-65342624D01*
X128122045Y-65348710D01*
X128114919Y-65394739D01*
X128133976Y-65422687D01*
X128183647Y-65436007D01*
X128237303Y-65438470D01*
X128333858Y-65420210D01*
X128383841Y-65394131D01*
X128445571Y-65332868D01*
X128478310Y-65257670D01*
X128481247Y-65178211D01*
X128453576Y-65104167D01*
X128411953Y-65057769D01*
X128370396Y-65031793D01*
X128305078Y-64998907D01*
X128228962Y-64965557D01*
X128216274Y-64960461D01*
X128132667Y-64923565D01*
X128084470Y-64891046D01*
X128068970Y-64858718D01*
X128083450Y-64822394D01*
X128108308Y-64794000D01*
X128167061Y-64759039D01*
X128231707Y-64756417D01*
X128290992Y-64783358D01*
X128333661Y-64837088D01*
X128339261Y-64850950D01*
X128371867Y-64901936D01*
X128419470Y-64939787D01*
X128479539Y-64970850D01*
X128479539Y-64882768D01*
X128476003Y-64828951D01*
X128460844Y-64786534D01*
X128427232Y-64741279D01*
X128394965Y-64706420D01*
X128344791Y-64657062D01*
X128305807Y-64630547D01*
X128263936Y-64619911D01*
X128216540Y-64618154D01*
X128112667Y-64633528D01*
G36*
X128604071Y-64636662D02*
G01*
X128601089Y-64688068D01*
X128598753Y-64766192D01*
X128597251Y-64864857D01*
X128596769Y-64968343D01*
X128596769Y-65318533D01*
X128658599Y-65380363D01*
X128701207Y-65418462D01*
X128738610Y-65433895D01*
X128789730Y-65432918D01*
X128810022Y-65430433D01*
X128873446Y-65423200D01*
X128925905Y-65419055D01*
X128938692Y-65418672D01*
X128981801Y-65421176D01*
X129043456Y-65427462D01*
X129067362Y-65430433D01*
X129126078Y-65435028D01*
X129165536Y-65425046D01*
X129204662Y-65394228D01*
X129218785Y-65380363D01*
X129280615Y-65318533D01*
X129280615Y-64663503D01*
X129230850Y-64640829D01*
X129187998Y-64624034D01*
X129162927Y-64618154D01*
X129156499Y-64636736D01*
X129150491Y-64688655D01*
X129145303Y-64768172D01*
X129141336Y-64869546D01*
X129139423Y-64955192D01*
X129134077Y-65292231D01*
X129087440Y-65298825D01*
X129045024Y-65294214D01*
X129024240Y-65279287D01*
X129018430Y-65251377D01*
X129013470Y-65191925D01*
X129009754Y-65108466D01*
X129007676Y-65008532D01*
X129007376Y-64957104D01*
X129007077Y-64661054D01*
X128945546Y-64639604D01*
X128901996Y-64625020D01*
X128878306Y-64618219D01*
X128877623Y-64618154D01*
X128875246Y-64636642D01*
X128872634Y-64687906D01*
X128870005Y-64765649D01*
X128867579Y-64863574D01*
X128865885Y-64955192D01*
X128860539Y-65292231D01*
X128743308Y-65292231D01*
X128737928Y-64984746D01*
X128732549Y-64677261D01*
X128675399Y-64647707D01*
X128633203Y-64627413D01*
X128608230Y-64618204D01*
X128607509Y-64618154D01*
X128604071Y-64636662D01*
G37*
X128604071Y-64636662D02*
X128601089Y-64688068D01*
X128598753Y-64766192D01*
X128597251Y-64864857D01*
X128596769Y-64968343D01*
X128596769Y-65318533D01*
X128658599Y-65380363D01*
X128701207Y-65418462D01*
X128738610Y-65433895D01*
X128789730Y-65432918D01*
X128810022Y-65430433D01*
X128873446Y-65423200D01*
X128925905Y-65419055D01*
X128938692Y-65418672D01*
X128981801Y-65421176D01*
X129043456Y-65427462D01*
X129067362Y-65430433D01*
X129126078Y-65435028D01*
X129165536Y-65425046D01*
X129204662Y-65394228D01*
X129218785Y-65380363D01*
X129280615Y-65318533D01*
X129280615Y-64663503D01*
X129230850Y-64640829D01*
X129187998Y-64624034D01*
X129162927Y-64618154D01*
X129156499Y-64636736D01*
X129150491Y-64688655D01*
X129145303Y-64768172D01*
X129141336Y-64869546D01*
X129139423Y-64955192D01*
X129134077Y-65292231D01*
X129087440Y-65298825D01*
X129045024Y-65294214D01*
X129024240Y-65279287D01*
X129018430Y-65251377D01*
X129013470Y-65191925D01*
X129009754Y-65108466D01*
X129007676Y-65008532D01*
X129007376Y-64957104D01*
X129007077Y-64661054D01*
X128945546Y-64639604D01*
X128901996Y-64625020D01*
X128878306Y-64618219D01*
X128877623Y-64618154D01*
X128875246Y-64636642D01*
X128872634Y-64687906D01*
X128870005Y-64765649D01*
X128867579Y-64863574D01*
X128865885Y-64955192D01*
X128860539Y-65292231D01*
X128743308Y-65292231D01*
X128737928Y-64984746D01*
X128732549Y-64677261D01*
X128675399Y-64647707D01*
X128633203Y-64627413D01*
X128608230Y-64618204D01*
X128607509Y-64618154D01*
X128604071Y-64636662D01*
G36*
X129397919Y-64780289D02*
G01*
X129398167Y-64926320D01*
X129399128Y-65038655D01*
X129401206Y-65122678D01*
X129404807Y-65183769D01*
X129410335Y-65227309D01*
X129418196Y-65258679D01*
X129428793Y-65283262D01*
X129436818Y-65297294D01*
X129503272Y-65373388D01*
X129587530Y-65421084D01*
X129680751Y-65438199D01*
X129774100Y-65422546D01*
X129829688Y-65394418D01*
X129888043Y-65345760D01*
X129927814Y-65286333D01*
X129951810Y-65208507D01*
X129962839Y-65104652D01*
X129964401Y-65028462D01*
X129964191Y-65022986D01*
X129827692Y-65022986D01*
X129826859Y-65110355D01*
X129823039Y-65168192D01*
X129814254Y-65206029D01*
X129798526Y-65233398D01*
X129779734Y-65254042D01*
X129716625Y-65293890D01*
X129648863Y-65297295D01*
X129584821Y-65264025D01*
X129579836Y-65259517D01*
X129558561Y-65236067D01*
X129545221Y-65208166D01*
X129537999Y-65166641D01*
X129535077Y-65102316D01*
X129534615Y-65031200D01*
X129535617Y-64941858D01*
X129539762Y-64882258D01*
X129548764Y-64843089D01*
X129564333Y-64815040D01*
X129577098Y-64800144D01*
X129636400Y-64762575D01*
X129704699Y-64758057D01*
X129769890Y-64786753D01*
X129782472Y-64797406D01*
X129803889Y-64821063D01*
X129817256Y-64849251D01*
X129824434Y-64891245D01*
X129827281Y-64956319D01*
X129827692Y-65022986D01*
X129964191Y-65022986D01*
X129959678Y-64905765D01*
X129943638Y-64813577D01*
X129913472Y-64744269D01*
X129866371Y-64690211D01*
X129829688Y-64662505D01*
X129763010Y-64632572D01*
X129685728Y-64618678D01*
X129613890Y-64622397D01*
X129573692Y-64637400D01*
X129557918Y-64641670D01*
X129547450Y-64625750D01*
X129540144Y-64583089D01*
X129534615Y-64518106D01*
X129528563Y-64445732D01*
X129520156Y-64402187D01*
X129504859Y-64377287D01*
X129478136Y-64360845D01*
X129461346Y-64353564D01*
X129397846Y-64326963D01*
X129397919Y-64780289D01*
G37*
X129397919Y-64780289D02*
X129398167Y-64926320D01*
X129399128Y-65038655D01*
X129401206Y-65122678D01*
X129404807Y-65183769D01*
X129410335Y-65227309D01*
X129418196Y-65258679D01*
X129428793Y-65283262D01*
X129436818Y-65297294D01*
X129503272Y-65373388D01*
X129587530Y-65421084D01*
X129680751Y-65438199D01*
X129774100Y-65422546D01*
X129829688Y-65394418D01*
X129888043Y-65345760D01*
X129927814Y-65286333D01*
X129951810Y-65208507D01*
X129962839Y-65104652D01*
X129964401Y-65028462D01*
X129964191Y-65022986D01*
X129827692Y-65022986D01*
X129826859Y-65110355D01*
X129823039Y-65168192D01*
X129814254Y-65206029D01*
X129798526Y-65233398D01*
X129779734Y-65254042D01*
X129716625Y-65293890D01*
X129648863Y-65297295D01*
X129584821Y-65264025D01*
X129579836Y-65259517D01*
X129558561Y-65236067D01*
X129545221Y-65208166D01*
X129537999Y-65166641D01*
X129535077Y-65102316D01*
X129534615Y-65031200D01*
X129535617Y-64941858D01*
X129539762Y-64882258D01*
X129548764Y-64843089D01*
X129564333Y-64815040D01*
X129577098Y-64800144D01*
X129636400Y-64762575D01*
X129704699Y-64758057D01*
X129769890Y-64786753D01*
X129782472Y-64797406D01*
X129803889Y-64821063D01*
X129817256Y-64849251D01*
X129824434Y-64891245D01*
X129827281Y-64956319D01*
X129827692Y-65022986D01*
X129964191Y-65022986D01*
X129959678Y-64905765D01*
X129943638Y-64813577D01*
X129913472Y-64744269D01*
X129866371Y-64690211D01*
X129829688Y-64662505D01*
X129763010Y-64632572D01*
X129685728Y-64618678D01*
X129613890Y-64622397D01*
X129573692Y-64637400D01*
X129557918Y-64641670D01*
X129547450Y-64625750D01*
X129540144Y-64583089D01*
X129534615Y-64518106D01*
X129528563Y-64445732D01*
X129520156Y-64402187D01*
X129504859Y-64377287D01*
X129478136Y-64360845D01*
X129461346Y-64353564D01*
X129397846Y-64326963D01*
X129397919Y-64780289D01*
G36*
X130286638Y-64624670D02*
G01*
X130197883Y-64657421D01*
X130125978Y-64715350D01*
X130097856Y-64756128D01*
X130067198Y-64830954D01*
X130067835Y-64885058D01*
X130100013Y-64921446D01*
X130111919Y-64927633D01*
X130163325Y-64946925D01*
X130189578Y-64941982D01*
X130198470Y-64909587D01*
X130198923Y-64891692D01*
X130215203Y-64825859D01*
X130257635Y-64779807D01*
X130316612Y-64757564D01*
X130382525Y-64763161D01*
X130436105Y-64792229D01*
X130454202Y-64808810D01*
X130467029Y-64828925D01*
X130475694Y-64859332D01*
X130481304Y-64906788D01*
X130484965Y-64978050D01*
X130487785Y-65079875D01*
X130488516Y-65112115D01*
X130491180Y-65222410D01*
X130494208Y-65300036D01*
X130498750Y-65351396D01*
X130505954Y-65382890D01*
X130516967Y-65400920D01*
X130532940Y-65411888D01*
X130543166Y-65416733D01*
X130586594Y-65433301D01*
X130612158Y-65438769D01*
X130620605Y-65420507D01*
X130625761Y-65365296D01*
X130627654Y-65272499D01*
X130626311Y-65141478D01*
X130625893Y-65121269D01*
X130622942Y-65001733D01*
X130619452Y-64914449D01*
X130614486Y-64852591D01*
X130607107Y-64809336D01*
X130596376Y-64777860D01*
X130581355Y-64751339D01*
X130573498Y-64739975D01*
X130528447Y-64689692D01*
X130478060Y-64650581D01*
X130471892Y-64647167D01*
X130381542Y-64620212D01*
X130286638Y-64624670D01*
G37*
X130286638Y-64624670D02*
X130197883Y-64657421D01*
X130125978Y-64715350D01*
X130097856Y-64756128D01*
X130067198Y-64830954D01*
X130067835Y-64885058D01*
X130100013Y-64921446D01*
X130111919Y-64927633D01*
X130163325Y-64946925D01*
X130189578Y-64941982D01*
X130198470Y-64909587D01*
X130198923Y-64891692D01*
X130215203Y-64825859D01*
X130257635Y-64779807D01*
X130316612Y-64757564D01*
X130382525Y-64763161D01*
X130436105Y-64792229D01*
X130454202Y-64808810D01*
X130467029Y-64828925D01*
X130475694Y-64859332D01*
X130481304Y-64906788D01*
X130484965Y-64978050D01*
X130487785Y-65079875D01*
X130488516Y-65112115D01*
X130491180Y-65222410D01*
X130494208Y-65300036D01*
X130498750Y-65351396D01*
X130505954Y-65382890D01*
X130516967Y-65400920D01*
X130532940Y-65411888D01*
X130543166Y-65416733D01*
X130586594Y-65433301D01*
X130612158Y-65438769D01*
X130620605Y-65420507D01*
X130625761Y-65365296D01*
X130627654Y-65272499D01*
X130626311Y-65141478D01*
X130625893Y-65121269D01*
X130622942Y-65001733D01*
X130619452Y-64914449D01*
X130614486Y-64852591D01*
X130607107Y-64809336D01*
X130596376Y-64777860D01*
X130581355Y-64751339D01*
X130573498Y-64739975D01*
X130528447Y-64689692D01*
X130478060Y-64650581D01*
X130471892Y-64647167D01*
X130381542Y-64620212D01*
X130286638Y-64624670D01*
G36*
X130946499Y-64626303D02*
G01*
X130869940Y-64654733D01*
X130869064Y-64655279D01*
X130821715Y-64690127D01*
X130786759Y-64730852D01*
X130762175Y-64783925D01*
X130745938Y-64855814D01*
X130736025Y-64952992D01*
X130730414Y-65081928D01*
X130729923Y-65100298D01*
X130722859Y-65377287D01*
X130782305Y-65408028D01*
X130825319Y-65428802D01*
X130851290Y-65438646D01*
X130852491Y-65438769D01*
X130856986Y-65420606D01*
X130860556Y-65371612D01*
X130862752Y-65300031D01*
X130863231Y-65242068D01*
X130863242Y-65148170D01*
X130867534Y-65089203D01*
X130882497Y-65061079D01*
X130914518Y-65059706D01*
X130969986Y-65080998D01*
X131053731Y-65120136D01*
X131115311Y-65152643D01*
X131146983Y-65180845D01*
X131156294Y-65211582D01*
X131156308Y-65213104D01*
X131140943Y-65266054D01*
X131095453Y-65294660D01*
X131025834Y-65298803D01*
X130975687Y-65298084D01*
X130949246Y-65312527D01*
X130932757Y-65347218D01*
X130923267Y-65391416D01*
X130936943Y-65416493D01*
X130942093Y-65420082D01*
X130990575Y-65434496D01*
X131058469Y-65436537D01*
X131128388Y-65426983D01*
X131177932Y-65409522D01*
X131246430Y-65351364D01*
X131285366Y-65270408D01*
X131293077Y-65207160D01*
X131287193Y-65150111D01*
X131265899Y-65103542D01*
X131223735Y-65062181D01*
X131155241Y-65020755D01*
X131054956Y-64973993D01*
X131048846Y-64971350D01*
X130958510Y-64929617D01*
X130902765Y-64895391D01*
X130878871Y-64864635D01*
X130884087Y-64833311D01*
X130915672Y-64797383D01*
X130925117Y-64789116D01*
X130988383Y-64757058D01*
X131053936Y-64758407D01*
X131111028Y-64789838D01*
X131148907Y-64848024D01*
X131152426Y-64859446D01*
X131186700Y-64914837D01*
X131230191Y-64941518D01*
X131293077Y-64967960D01*
X131293077Y-64899548D01*
X131273948Y-64800110D01*
X131217169Y-64708902D01*
X131187622Y-64678389D01*
X131120458Y-64639228D01*
X131035044Y-64621500D01*
X130946499Y-64626303D01*
G37*
X130946499Y-64626303D02*
X130869940Y-64654733D01*
X130869064Y-64655279D01*
X130821715Y-64690127D01*
X130786759Y-64730852D01*
X130762175Y-64783925D01*
X130745938Y-64855814D01*
X130736025Y-64952992D01*
X130730414Y-65081928D01*
X130729923Y-65100298D01*
X130722859Y-65377287D01*
X130782305Y-65408028D01*
X130825319Y-65428802D01*
X130851290Y-65438646D01*
X130852491Y-65438769D01*
X130856986Y-65420606D01*
X130860556Y-65371612D01*
X130862752Y-65300031D01*
X130863231Y-65242068D01*
X130863242Y-65148170D01*
X130867534Y-65089203D01*
X130882497Y-65061079D01*
X130914518Y-65059706D01*
X130969986Y-65080998D01*
X131053731Y-65120136D01*
X131115311Y-65152643D01*
X131146983Y-65180845D01*
X131156294Y-65211582D01*
X131156308Y-65213104D01*
X131140943Y-65266054D01*
X131095453Y-65294660D01*
X131025834Y-65298803D01*
X130975687Y-65298084D01*
X130949246Y-65312527D01*
X130932757Y-65347218D01*
X130923267Y-65391416D01*
X130936943Y-65416493D01*
X130942093Y-65420082D01*
X130990575Y-65434496D01*
X131058469Y-65436537D01*
X131128388Y-65426983D01*
X131177932Y-65409522D01*
X131246430Y-65351364D01*
X131285366Y-65270408D01*
X131293077Y-65207160D01*
X131287193Y-65150111D01*
X131265899Y-65103542D01*
X131223735Y-65062181D01*
X131155241Y-65020755D01*
X131054956Y-64973993D01*
X131048846Y-64971350D01*
X130958510Y-64929617D01*
X130902765Y-64895391D01*
X130878871Y-64864635D01*
X130884087Y-64833311D01*
X130915672Y-64797383D01*
X130925117Y-64789116D01*
X130988383Y-64757058D01*
X131053936Y-64758407D01*
X131111028Y-64789838D01*
X131148907Y-64848024D01*
X131152426Y-64859446D01*
X131186700Y-64914837D01*
X131230191Y-64941518D01*
X131293077Y-64967960D01*
X131293077Y-64899548D01*
X131273948Y-64800110D01*
X131217169Y-64708902D01*
X131187622Y-64678389D01*
X131120458Y-64639228D01*
X131035044Y-64621500D01*
X130946499Y-64626303D01*
G36*
X131840154Y-64492120D02*
G01*
X131834428Y-64571980D01*
X131827851Y-64619039D01*
X131818738Y-64639566D01*
X131805402Y-64639829D01*
X131801077Y-64637378D01*
X131743556Y-64619636D01*
X131668732Y-64620672D01*
X131592661Y-64638910D01*
X131545082Y-64662505D01*
X131496298Y-64700198D01*
X131460636Y-64742855D01*
X131436155Y-64797057D01*
X131420913Y-64869384D01*
X131412970Y-64966419D01*
X131410384Y-65094742D01*
X131410338Y-65119358D01*
X131410308Y-65395870D01*
X131471839Y-65417320D01*
X131515541Y-65431912D01*
X131539518Y-65438706D01*
X131540223Y-65438769D01*
X131542585Y-65420345D01*
X131544594Y-65369526D01*
X131546099Y-65292993D01*
X131546947Y-65197430D01*
X131547077Y-65139329D01*
X131547349Y-65024771D01*
X131548748Y-64942667D01*
X131552151Y-64886393D01*
X131558433Y-64849326D01*
X131568471Y-64824844D01*
X131583139Y-64806325D01*
X131592298Y-64797406D01*
X131655211Y-64761466D01*
X131723864Y-64758775D01*
X131786152Y-64789170D01*
X131797671Y-64800144D01*
X131814567Y-64820779D01*
X131826286Y-64845256D01*
X131833767Y-64880647D01*
X131837946Y-64934026D01*
X131839763Y-65012466D01*
X131840154Y-65120617D01*
X131840154Y-65395870D01*
X131901685Y-65417320D01*
X131945387Y-65431912D01*
X131969364Y-65438706D01*
X131970070Y-65438769D01*
X131971874Y-65420069D01*
X131973500Y-65367322D01*
X131974883Y-65285557D01*
X131975958Y-65179805D01*
X131976660Y-65055094D01*
X131976923Y-64916455D01*
X131976923Y-64381806D01*
X131849923Y-64328236D01*
X131840154Y-64492120D01*
G37*
X131840154Y-64492120D02*
X131834428Y-64571980D01*
X131827851Y-64619039D01*
X131818738Y-64639566D01*
X131805402Y-64639829D01*
X131801077Y-64637378D01*
X131743556Y-64619636D01*
X131668732Y-64620672D01*
X131592661Y-64638910D01*
X131545082Y-64662505D01*
X131496298Y-64700198D01*
X131460636Y-64742855D01*
X131436155Y-64797057D01*
X131420913Y-64869384D01*
X131412970Y-64966419D01*
X131410384Y-65094742D01*
X131410338Y-65119358D01*
X131410308Y-65395870D01*
X131471839Y-65417320D01*
X131515541Y-65431912D01*
X131539518Y-65438706D01*
X131540223Y-65438769D01*
X131542585Y-65420345D01*
X131544594Y-65369526D01*
X131546099Y-65292993D01*
X131546947Y-65197430D01*
X131547077Y-65139329D01*
X131547349Y-65024771D01*
X131548748Y-64942667D01*
X131552151Y-64886393D01*
X131558433Y-64849326D01*
X131568471Y-64824844D01*
X131583139Y-64806325D01*
X131592298Y-64797406D01*
X131655211Y-64761466D01*
X131723864Y-64758775D01*
X131786152Y-64789170D01*
X131797671Y-64800144D01*
X131814567Y-64820779D01*
X131826286Y-64845256D01*
X131833767Y-64880647D01*
X131837946Y-64934026D01*
X131839763Y-65012466D01*
X131840154Y-65120617D01*
X131840154Y-65395870D01*
X131901685Y-65417320D01*
X131945387Y-65431912D01*
X131969364Y-65438706D01*
X131970070Y-65438769D01*
X131971874Y-65420069D01*
X131973500Y-65367322D01*
X131974883Y-65285557D01*
X131975958Y-65179805D01*
X131976660Y-65055094D01*
X131976923Y-64916455D01*
X131976923Y-64381806D01*
X131849923Y-64328236D01*
X131840154Y-64492120D01*
G36*
X133465746Y-64599745D02*
G01*
X133388714Y-64651567D01*
X133329184Y-64726412D01*
X133293622Y-64821654D01*
X133286429Y-64891756D01*
X133287246Y-64921009D01*
X133294086Y-64943407D01*
X133312888Y-64963474D01*
X133349592Y-64985733D01*
X133410138Y-65014709D01*
X133500466Y-65054927D01*
X133500923Y-65055129D01*
X133584067Y-65093210D01*
X133652247Y-65127025D01*
X133698495Y-65152933D01*
X133715842Y-65167295D01*
X133715846Y-65167411D01*
X133700557Y-65198685D01*
X133664804Y-65233157D01*
X133623758Y-65257990D01*
X133602963Y-65262923D01*
X133546230Y-65245862D01*
X133497373Y-65203133D01*
X133473535Y-65156155D01*
X133450603Y-65121522D01*
X133405682Y-65082081D01*
X133352877Y-65048009D01*
X133306290Y-65029480D01*
X133296548Y-65028462D01*
X133285582Y-65045215D01*
X133284921Y-65088039D01*
X133292980Y-65145781D01*
X133308173Y-65207289D01*
X133328914Y-65261409D01*
X133329962Y-65263510D01*
X133392379Y-65350660D01*
X133473274Y-65409939D01*
X133565144Y-65439034D01*
X133660487Y-65435634D01*
X133751802Y-65397428D01*
X133755862Y-65394741D01*
X133827694Y-65329642D01*
X133874927Y-65244705D01*
X133901066Y-65133021D01*
X133904574Y-65101643D01*
X133910787Y-64953536D01*
X133903339Y-64884468D01*
X133715846Y-64884468D01*
X133713410Y-64927552D01*
X133700086Y-64940126D01*
X133666868Y-64930719D01*
X133614506Y-64908483D01*
X133555976Y-64880610D01*
X133554521Y-64879872D01*
X133504911Y-64853777D01*
X133485000Y-64836363D01*
X133489910Y-64818107D01*
X133510584Y-64794120D01*
X133563181Y-64759406D01*
X133619823Y-64756856D01*
X133670631Y-64782119D01*
X133705724Y-64830847D01*
X133715846Y-64884468D01*
X133903339Y-64884468D01*
X133898008Y-64835036D01*
X133865222Y-64741055D01*
X133819579Y-64675215D01*
X133737198Y-64608681D01*
X133646454Y-64575676D01*
X133553815Y-64573573D01*
X133465746Y-64599745D01*
G37*
X133465746Y-64599745D02*
X133388714Y-64651567D01*
X133329184Y-64726412D01*
X133293622Y-64821654D01*
X133286429Y-64891756D01*
X133287246Y-64921009D01*
X133294086Y-64943407D01*
X133312888Y-64963474D01*
X133349592Y-64985733D01*
X133410138Y-65014709D01*
X133500466Y-65054927D01*
X133500923Y-65055129D01*
X133584067Y-65093210D01*
X133652247Y-65127025D01*
X133698495Y-65152933D01*
X133715842Y-65167295D01*
X133715846Y-65167411D01*
X133700557Y-65198685D01*
X133664804Y-65233157D01*
X133623758Y-65257990D01*
X133602963Y-65262923D01*
X133546230Y-65245862D01*
X133497373Y-65203133D01*
X133473535Y-65156155D01*
X133450603Y-65121522D01*
X133405682Y-65082081D01*
X133352877Y-65048009D01*
X133306290Y-65029480D01*
X133296548Y-65028462D01*
X133285582Y-65045215D01*
X133284921Y-65088039D01*
X133292980Y-65145781D01*
X133308173Y-65207289D01*
X133328914Y-65261409D01*
X133329962Y-65263510D01*
X133392379Y-65350660D01*
X133473274Y-65409939D01*
X133565144Y-65439034D01*
X133660487Y-65435634D01*
X133751802Y-65397428D01*
X133755862Y-65394741D01*
X133827694Y-65329642D01*
X133874927Y-65244705D01*
X133901066Y-65133021D01*
X133904574Y-65101643D01*
X133910787Y-64953536D01*
X133903339Y-64884468D01*
X133715846Y-64884468D01*
X133713410Y-64927552D01*
X133700086Y-64940126D01*
X133666868Y-64930719D01*
X133614506Y-64908483D01*
X133555976Y-64880610D01*
X133554521Y-64879872D01*
X133504911Y-64853777D01*
X133485000Y-64836363D01*
X133489910Y-64818107D01*
X133510584Y-64794120D01*
X133563181Y-64759406D01*
X133619823Y-64756856D01*
X133670631Y-64782119D01*
X133705724Y-64830847D01*
X133715846Y-64884468D01*
X133903339Y-64884468D01*
X133898008Y-64835036D01*
X133865222Y-64741055D01*
X133819579Y-64675215D01*
X133737198Y-64608681D01*
X133646454Y-64575676D01*
X133553815Y-64573573D01*
X133465746Y-64599745D01*
G36*
X134983114Y-64587256D02*
G01*
X134891536Y-64635409D01*
X134823951Y-64712905D01*
X134799943Y-64762727D01*
X134781262Y-64837533D01*
X134771699Y-64932052D01*
X134770792Y-65035210D01*
X134778079Y-65135935D01*
X134793097Y-65223153D01*
X134815385Y-65285791D01*
X134822235Y-65296579D01*
X134903368Y-65377105D01*
X134999734Y-65425336D01*
X135104299Y-65439450D01*
X135210032Y-65417629D01*
X135239457Y-65404547D01*
X135296759Y-65364231D01*
X135347050Y-65310775D01*
X135351803Y-65303995D01*
X135371122Y-65271321D01*
X135383892Y-65236394D01*
X135391436Y-65190414D01*
X135395076Y-65124584D01*
X135396135Y-65030105D01*
X135396154Y-65008923D01*
X135396106Y-65002182D01*
X135200769Y-65002182D01*
X135199632Y-65091349D01*
X135195159Y-65150520D01*
X135185754Y-65188741D01*
X135169824Y-65215053D01*
X135161692Y-65223846D01*
X135114942Y-65257261D01*
X135069553Y-65255737D01*
X135023660Y-65226752D01*
X134996288Y-65195809D01*
X134980077Y-65150643D01*
X134970974Y-65079420D01*
X134970349Y-65071114D01*
X134968796Y-64942037D01*
X134985035Y-64846172D01*
X135018848Y-64784107D01*
X135070016Y-64756432D01*
X135088280Y-64754923D01*
X135136240Y-64762513D01*
X135169047Y-64788808D01*
X135189105Y-64839095D01*
X135198822Y-64918664D01*
X135200769Y-65002182D01*
X135396106Y-65002182D01*
X135395426Y-64908249D01*
X135392371Y-64837906D01*
X135385678Y-64789163D01*
X135374040Y-64753288D01*
X135356147Y-64721548D01*
X135352192Y-64715648D01*
X135285733Y-64636104D01*
X135213315Y-64589929D01*
X135125151Y-64571599D01*
X135095213Y-64570703D01*
X134983114Y-64587256D01*
G37*
X134983114Y-64587256D02*
X134891536Y-64635409D01*
X134823951Y-64712905D01*
X134799943Y-64762727D01*
X134781262Y-64837533D01*
X134771699Y-64932052D01*
X134770792Y-65035210D01*
X134778079Y-65135935D01*
X134793097Y-65223153D01*
X134815385Y-65285791D01*
X134822235Y-65296579D01*
X134903368Y-65377105D01*
X134999734Y-65425336D01*
X135104299Y-65439450D01*
X135210032Y-65417629D01*
X135239457Y-65404547D01*
X135296759Y-65364231D01*
X135347050Y-65310775D01*
X135351803Y-65303995D01*
X135371122Y-65271321D01*
X135383892Y-65236394D01*
X135391436Y-65190414D01*
X135395076Y-65124584D01*
X135396135Y-65030105D01*
X135396154Y-65008923D01*
X135396106Y-65002182D01*
X135200769Y-65002182D01*
X135199632Y-65091349D01*
X135195159Y-65150520D01*
X135185754Y-65188741D01*
X135169824Y-65215053D01*
X135161692Y-65223846D01*
X135114942Y-65257261D01*
X135069553Y-65255737D01*
X135023660Y-65226752D01*
X134996288Y-65195809D01*
X134980077Y-65150643D01*
X134970974Y-65079420D01*
X134970349Y-65071114D01*
X134968796Y-64942037D01*
X134985035Y-64846172D01*
X135018848Y-64784107D01*
X135070016Y-64756432D01*
X135088280Y-64754923D01*
X135136240Y-64762513D01*
X135169047Y-64788808D01*
X135189105Y-64839095D01*
X135198822Y-64918664D01*
X135200769Y-65002182D01*
X135396106Y-65002182D01*
X135395426Y-64908249D01*
X135392371Y-64837906D01*
X135385678Y-64789163D01*
X135374040Y-64753288D01*
X135356147Y-64721548D01*
X135352192Y-64715648D01*
X135285733Y-64636104D01*
X135213315Y-64589929D01*
X135125151Y-64571599D01*
X135095213Y-64570703D01*
X134983114Y-64587256D01*
G36*
X132728336Y-64595089D02*
G01*
X132665633Y-64631358D01*
X132622039Y-64667358D01*
X132590155Y-64705075D01*
X132568190Y-64751199D01*
X132554351Y-64812421D01*
X132546847Y-64895431D01*
X132543883Y-65006919D01*
X132543539Y-65087062D01*
X132543539Y-65382065D01*
X132709615Y-65456515D01*
X132719385Y-65133402D01*
X132723421Y-65012729D01*
X132727656Y-64925141D01*
X132732903Y-64864650D01*
X132739975Y-64825268D01*
X132749689Y-64801007D01*
X132762856Y-64785880D01*
X132767081Y-64782606D01*
X132831091Y-64757034D01*
X132895792Y-64767153D01*
X132934308Y-64794000D01*
X132949975Y-64813024D01*
X132960820Y-64837988D01*
X132967712Y-64875834D01*
X132971521Y-64933502D01*
X132973117Y-65017935D01*
X132973385Y-65105928D01*
X132973437Y-65216323D01*
X132975328Y-65294463D01*
X132981655Y-65347165D01*
X132995017Y-65381242D01*
X133018015Y-65403511D01*
X133053246Y-65420787D01*
X133100303Y-65438738D01*
X133151697Y-65458278D01*
X133145579Y-65111485D01*
X133143116Y-64986468D01*
X133140233Y-64894082D01*
X133136102Y-64827881D01*
X133129893Y-64781420D01*
X133120774Y-64748256D01*
X133107917Y-64721944D01*
X133092416Y-64698729D01*
X133017629Y-64624569D01*
X132926372Y-64581684D01*
X132827117Y-64571412D01*
X132728336Y-64595089D01*
G37*
X132728336Y-64595089D02*
X132665633Y-64631358D01*
X132622039Y-64667358D01*
X132590155Y-64705075D01*
X132568190Y-64751199D01*
X132554351Y-64812421D01*
X132546847Y-64895431D01*
X132543883Y-65006919D01*
X132543539Y-65087062D01*
X132543539Y-65382065D01*
X132709615Y-65456515D01*
X132719385Y-65133402D01*
X132723421Y-65012729D01*
X132727656Y-64925141D01*
X132732903Y-64864650D01*
X132739975Y-64825268D01*
X132749689Y-64801007D01*
X132762856Y-64785880D01*
X132767081Y-64782606D01*
X132831091Y-64757034D01*
X132895792Y-64767153D01*
X132934308Y-64794000D01*
X132949975Y-64813024D01*
X132960820Y-64837988D01*
X132967712Y-64875834D01*
X132971521Y-64933502D01*
X132973117Y-65017935D01*
X132973385Y-65105928D01*
X132973437Y-65216323D01*
X132975328Y-65294463D01*
X132981655Y-65347165D01*
X132995017Y-65381242D01*
X133018015Y-65403511D01*
X133053246Y-65420787D01*
X133100303Y-65438738D01*
X133151697Y-65458278D01*
X133145579Y-65111485D01*
X133143116Y-64986468D01*
X133140233Y-64894082D01*
X133136102Y-64827881D01*
X133129893Y-64781420D01*
X133120774Y-64748256D01*
X133107917Y-64721944D01*
X133092416Y-64698729D01*
X133017629Y-64624569D01*
X132926372Y-64581684D01*
X132827117Y-64571412D01*
X132728336Y-64595089D01*
G36*
X134231114Y-64584505D02*
G01*
X134156461Y-64621727D01*
X134090569Y-64690261D01*
X134072423Y-64715648D01*
X134052655Y-64748866D01*
X134039828Y-64784945D01*
X134032490Y-64833098D01*
X134029187Y-64902536D01*
X134028462Y-64994206D01*
X134031737Y-65119830D01*
X134043123Y-65214154D01*
X134064959Y-65284523D01*
X134099581Y-65338286D01*
X134149330Y-65382788D01*
X134152986Y-65385423D01*
X134202015Y-65412377D01*
X134261055Y-65425712D01*
X134336141Y-65429000D01*
X134458205Y-65429000D01*
X134458256Y-65547497D01*
X134459392Y-65613492D01*
X134466314Y-65652202D01*
X134484402Y-65675419D01*
X134519038Y-65694933D01*
X134527355Y-65698920D01*
X134566280Y-65717603D01*
X134596417Y-65729403D01*
X134618826Y-65730422D01*
X134634567Y-65716761D01*
X134644698Y-65684522D01*
X134650277Y-65629804D01*
X134652365Y-65548711D01*
X134652019Y-65437344D01*
X134650300Y-65291802D01*
X134649763Y-65248269D01*
X134647828Y-65098205D01*
X134646096Y-65000042D01*
X134458308Y-65000042D01*
X134457252Y-65083364D01*
X134452562Y-65137880D01*
X134441949Y-65173837D01*
X134423128Y-65201482D01*
X134410350Y-65214965D01*
X134358110Y-65254417D01*
X134311858Y-65257628D01*
X134264133Y-65225049D01*
X134262923Y-65223846D01*
X134243506Y-65198668D01*
X134231693Y-65164447D01*
X134225735Y-65111748D01*
X134223880Y-65031131D01*
X134223846Y-65013271D01*
X134228330Y-64902175D01*
X134242926Y-64825161D01*
X134269350Y-64778147D01*
X134309317Y-64757050D01*
X134332416Y-64754923D01*
X134387238Y-64764900D01*
X134424842Y-64797752D01*
X134447477Y-64857857D01*
X134457394Y-64949598D01*
X134458308Y-65000042D01*
X134646096Y-65000042D01*
X134645778Y-64982060D01*
X134643127Y-64894679D01*
X134639394Y-64830905D01*
X134634093Y-64785582D01*
X134626742Y-64753555D01*
X134616857Y-64729668D01*
X134603954Y-64708764D01*
X134598421Y-64700898D01*
X134525031Y-64626595D01*
X134432240Y-64584467D01*
X134324904Y-64572722D01*
X134231114Y-64584505D01*
G37*
X134231114Y-64584505D02*
X134156461Y-64621727D01*
X134090569Y-64690261D01*
X134072423Y-64715648D01*
X134052655Y-64748866D01*
X134039828Y-64784945D01*
X134032490Y-64833098D01*
X134029187Y-64902536D01*
X134028462Y-64994206D01*
X134031737Y-65119830D01*
X134043123Y-65214154D01*
X134064959Y-65284523D01*
X134099581Y-65338286D01*
X134149330Y-65382788D01*
X134152986Y-65385423D01*
X134202015Y-65412377D01*
X134261055Y-65425712D01*
X134336141Y-65429000D01*
X134458205Y-65429000D01*
X134458256Y-65547497D01*
X134459392Y-65613492D01*
X134466314Y-65652202D01*
X134484402Y-65675419D01*
X134519038Y-65694933D01*
X134527355Y-65698920D01*
X134566280Y-65717603D01*
X134596417Y-65729403D01*
X134618826Y-65730422D01*
X134634567Y-65716761D01*
X134644698Y-65684522D01*
X134650277Y-65629804D01*
X134652365Y-65548711D01*
X134652019Y-65437344D01*
X134650300Y-65291802D01*
X134649763Y-65248269D01*
X134647828Y-65098205D01*
X134646096Y-65000042D01*
X134458308Y-65000042D01*
X134457252Y-65083364D01*
X134452562Y-65137880D01*
X134441949Y-65173837D01*
X134423128Y-65201482D01*
X134410350Y-65214965D01*
X134358110Y-65254417D01*
X134311858Y-65257628D01*
X134264133Y-65225049D01*
X134262923Y-65223846D01*
X134243506Y-65198668D01*
X134231693Y-65164447D01*
X134225735Y-65111748D01*
X134223880Y-65031131D01*
X134223846Y-65013271D01*
X134228330Y-64902175D01*
X134242926Y-64825161D01*
X134269350Y-64778147D01*
X134309317Y-64757050D01*
X134332416Y-64754923D01*
X134387238Y-64764900D01*
X134424842Y-64797752D01*
X134447477Y-64857857D01*
X134457394Y-64949598D01*
X134458308Y-65000042D01*
X134646096Y-65000042D01*
X134645778Y-64982060D01*
X134643127Y-64894679D01*
X134639394Y-64830905D01*
X134634093Y-64785582D01*
X134626742Y-64753555D01*
X134616857Y-64729668D01*
X134603954Y-64708764D01*
X134598421Y-64700898D01*
X134525031Y-64626595D01*
X134432240Y-64584467D01*
X134324904Y-64572722D01*
X134231114Y-64584505D01*
%TD*%
M02*
