%TF.GenerationSoftware,KiCad,Pcbnew,(5.1.6-0-10_14)*%
%TF.CreationDate,2020-07-19T16:10:20+02:00*%
%TF.ProjectId,driver-board,64726976-6572-42d6-926f-6172642e6b69,rev?*%
%TF.SameCoordinates,Original*%
%TF.FileFunction,Copper,L1,Top*%
%TF.FilePolarity,Positive*%
%FSLAX46Y46*%
G04 Gerber Fmt 4.6, Leading zero omitted, Abs format (unit mm)*
G04 Created by KiCad (PCBNEW (5.1.6-0-10_14)) date 2020-07-19 16:10:20*
%MOMM*%
%LPD*%
G01*
G04 APERTURE LIST*
%TA.AperFunction,SMDPad,CuDef*%
%ADD10R,0.800000X0.900000*%
%TD*%
%TA.AperFunction,SMDPad,CuDef*%
%ADD11R,1.060000X0.650000*%
%TD*%
%TA.AperFunction,SMDPad,CuDef*%
%ADD12C,0.100000*%
%TD*%
%TA.AperFunction,SMDPad,CuDef*%
%ADD13C,0.500000*%
%TD*%
%TA.AperFunction,SMDPad,CuDef*%
%ADD14R,1.000000X1.000000*%
%TD*%
%TA.AperFunction,ComponentPad*%
%ADD15R,1.700000X1.700000*%
%TD*%
%TA.AperFunction,ComponentPad*%
%ADD16O,1.700000X1.700000*%
%TD*%
%TA.AperFunction,SMDPad,CuDef*%
%ADD17R,1.300000X0.300000*%
%TD*%
%TA.AperFunction,SMDPad,CuDef*%
%ADD18R,2.200000X1.800000*%
%TD*%
%TA.AperFunction,ViaPad*%
%ADD19C,0.750000*%
%TD*%
%TA.AperFunction,ViaPad*%
%ADD20C,0.450000*%
%TD*%
%TA.AperFunction,ViaPad*%
%ADD21C,0.650000*%
%TD*%
%TA.AperFunction,Conductor*%
%ADD22C,0.250000*%
%TD*%
%TA.AperFunction,Conductor*%
%ADD23C,0.400000*%
%TD*%
%TA.AperFunction,Conductor*%
%ADD24C,0.750000*%
%TD*%
%TA.AperFunction,Conductor*%
%ADD25C,0.450000*%
%TD*%
%TA.AperFunction,Conductor*%
%ADD26C,0.254000*%
%TD*%
G04 APERTURE END LIST*
%TO.P,C1,1*%
%TO.N,+3V0*%
%TA.AperFunction,SMDPad,CuDef*%
G36*
G01*
X123675000Y-66056250D02*
X123675000Y-65543750D01*
G75*
G02*
X123893750Y-65325000I218750J0D01*
G01*
X124331250Y-65325000D01*
G75*
G02*
X124550000Y-65543750I0J-218750D01*
G01*
X124550000Y-66056250D01*
G75*
G02*
X124331250Y-66275000I-218750J0D01*
G01*
X123893750Y-66275000D01*
G75*
G02*
X123675000Y-66056250I0J218750D01*
G01*
G37*
%TD.AperFunction*%
%TO.P,C1,2*%
%TO.N,GND*%
%TA.AperFunction,SMDPad,CuDef*%
G36*
G01*
X125250000Y-66056250D02*
X125250000Y-65543750D01*
G75*
G02*
X125468750Y-65325000I218750J0D01*
G01*
X125906250Y-65325000D01*
G75*
G02*
X126125000Y-65543750I0J-218750D01*
G01*
X126125000Y-66056250D01*
G75*
G02*
X125906250Y-66275000I-218750J0D01*
G01*
X125468750Y-66275000D01*
G75*
G02*
X125250000Y-66056250I0J218750D01*
G01*
G37*
%TD.AperFunction*%
%TD*%
%TO.P,C2,1*%
%TO.N,VCC*%
%TA.AperFunction,SMDPad,CuDef*%
G36*
G01*
X121625000Y-65543750D02*
X121625000Y-66056250D01*
G75*
G02*
X121406250Y-66275000I-218750J0D01*
G01*
X120968750Y-66275000D01*
G75*
G02*
X120750000Y-66056250I0J218750D01*
G01*
X120750000Y-65543750D01*
G75*
G02*
X120968750Y-65325000I218750J0D01*
G01*
X121406250Y-65325000D01*
G75*
G02*
X121625000Y-65543750I0J-218750D01*
G01*
G37*
%TD.AperFunction*%
%TO.P,C2,2*%
%TO.N,GND*%
%TA.AperFunction,SMDPad,CuDef*%
G36*
G01*
X120050000Y-65543750D02*
X120050000Y-66056250D01*
G75*
G02*
X119831250Y-66275000I-218750J0D01*
G01*
X119393750Y-66275000D01*
G75*
G02*
X119175000Y-66056250I0J218750D01*
G01*
X119175000Y-65543750D01*
G75*
G02*
X119393750Y-65325000I218750J0D01*
G01*
X119831250Y-65325000D01*
G75*
G02*
X120050000Y-65543750I0J-218750D01*
G01*
G37*
%TD.AperFunction*%
%TD*%
%TO.P,C3,2*%
%TO.N,GND*%
%TA.AperFunction,SMDPad,CuDef*%
G36*
G01*
X120450000Y-50043750D02*
X120450000Y-50556250D01*
G75*
G02*
X120231250Y-50775000I-218750J0D01*
G01*
X119793750Y-50775000D01*
G75*
G02*
X119575000Y-50556250I0J218750D01*
G01*
X119575000Y-50043750D01*
G75*
G02*
X119793750Y-49825000I218750J0D01*
G01*
X120231250Y-49825000D01*
G75*
G02*
X120450000Y-50043750I0J-218750D01*
G01*
G37*
%TD.AperFunction*%
%TO.P,C3,1*%
%TO.N,+5V*%
%TA.AperFunction,SMDPad,CuDef*%
G36*
G01*
X122025000Y-50043750D02*
X122025000Y-50556250D01*
G75*
G02*
X121806250Y-50775000I-218750J0D01*
G01*
X121368750Y-50775000D01*
G75*
G02*
X121150000Y-50556250I0J218750D01*
G01*
X121150000Y-50043750D01*
G75*
G02*
X121368750Y-49825000I218750J0D01*
G01*
X121806250Y-49825000D01*
G75*
G02*
X122025000Y-50043750I0J-218750D01*
G01*
G37*
%TD.AperFunction*%
%TD*%
%TO.P,C4,1*%
%TO.N,+3V0*%
%TA.AperFunction,SMDPad,CuDef*%
G36*
G01*
X122025000Y-55243750D02*
X122025000Y-55756250D01*
G75*
G02*
X121806250Y-55975000I-218750J0D01*
G01*
X121368750Y-55975000D01*
G75*
G02*
X121150000Y-55756250I0J218750D01*
G01*
X121150000Y-55243750D01*
G75*
G02*
X121368750Y-55025000I218750J0D01*
G01*
X121806250Y-55025000D01*
G75*
G02*
X122025000Y-55243750I0J-218750D01*
G01*
G37*
%TD.AperFunction*%
%TO.P,C4,2*%
%TO.N,GND*%
%TA.AperFunction,SMDPad,CuDef*%
G36*
G01*
X120450000Y-55243750D02*
X120450000Y-55756250D01*
G75*
G02*
X120231250Y-55975000I-218750J0D01*
G01*
X119793750Y-55975000D01*
G75*
G02*
X119575000Y-55756250I0J218750D01*
G01*
X119575000Y-55243750D01*
G75*
G02*
X119793750Y-55025000I218750J0D01*
G01*
X120231250Y-55025000D01*
G75*
G02*
X120450000Y-55243750I0J-218750D01*
G01*
G37*
%TD.AperFunction*%
%TD*%
%TO.P,C5,2*%
%TO.N,GND*%
%TA.AperFunction,SMDPad,CuDef*%
G36*
G01*
X127050000Y-50043750D02*
X127050000Y-50556250D01*
G75*
G02*
X126831250Y-50775000I-218750J0D01*
G01*
X126393750Y-50775000D01*
G75*
G02*
X126175000Y-50556250I0J218750D01*
G01*
X126175000Y-50043750D01*
G75*
G02*
X126393750Y-49825000I218750J0D01*
G01*
X126831250Y-49825000D01*
G75*
G02*
X127050000Y-50043750I0J-218750D01*
G01*
G37*
%TD.AperFunction*%
%TO.P,C5,1*%
%TO.N,+5V*%
%TA.AperFunction,SMDPad,CuDef*%
G36*
G01*
X128625000Y-50043750D02*
X128625000Y-50556250D01*
G75*
G02*
X128406250Y-50775000I-218750J0D01*
G01*
X127968750Y-50775000D01*
G75*
G02*
X127750000Y-50556250I0J218750D01*
G01*
X127750000Y-50043750D01*
G75*
G02*
X127968750Y-49825000I218750J0D01*
G01*
X128406250Y-49825000D01*
G75*
G02*
X128625000Y-50043750I0J-218750D01*
G01*
G37*
%TD.AperFunction*%
%TD*%
%TO.P,C6,1*%
%TO.N,+3V3*%
%TA.AperFunction,SMDPad,CuDef*%
G36*
G01*
X128625000Y-55243750D02*
X128625000Y-55756250D01*
G75*
G02*
X128406250Y-55975000I-218750J0D01*
G01*
X127968750Y-55975000D01*
G75*
G02*
X127750000Y-55756250I0J218750D01*
G01*
X127750000Y-55243750D01*
G75*
G02*
X127968750Y-55025000I218750J0D01*
G01*
X128406250Y-55025000D01*
G75*
G02*
X128625000Y-55243750I0J-218750D01*
G01*
G37*
%TD.AperFunction*%
%TO.P,C6,2*%
%TO.N,GND*%
%TA.AperFunction,SMDPad,CuDef*%
G36*
G01*
X127050000Y-55243750D02*
X127050000Y-55756250D01*
G75*
G02*
X126831250Y-55975000I-218750J0D01*
G01*
X126393750Y-55975000D01*
G75*
G02*
X126175000Y-55756250I0J218750D01*
G01*
X126175000Y-55243750D01*
G75*
G02*
X126393750Y-55025000I218750J0D01*
G01*
X126831250Y-55025000D01*
G75*
G02*
X127050000Y-55243750I0J-218750D01*
G01*
G37*
%TD.AperFunction*%
%TD*%
%TO.P,C7,2*%
%TO.N,GND*%
%TA.AperFunction,SMDPad,CuDef*%
G36*
G01*
X137950000Y-51656250D02*
X137950000Y-51143750D01*
G75*
G02*
X138168750Y-50925000I218750J0D01*
G01*
X138606250Y-50925000D01*
G75*
G02*
X138825000Y-51143750I0J-218750D01*
G01*
X138825000Y-51656250D01*
G75*
G02*
X138606250Y-51875000I-218750J0D01*
G01*
X138168750Y-51875000D01*
G75*
G02*
X137950000Y-51656250I0J218750D01*
G01*
G37*
%TD.AperFunction*%
%TO.P,C7,1*%
%TO.N,+5V*%
%TA.AperFunction,SMDPad,CuDef*%
G36*
G01*
X136375000Y-51656250D02*
X136375000Y-51143750D01*
G75*
G02*
X136593750Y-50925000I218750J0D01*
G01*
X137031250Y-50925000D01*
G75*
G02*
X137250000Y-51143750I0J-218750D01*
G01*
X137250000Y-51656250D01*
G75*
G02*
X137031250Y-51875000I-218750J0D01*
G01*
X136593750Y-51875000D01*
G75*
G02*
X136375000Y-51656250I0J218750D01*
G01*
G37*
%TD.AperFunction*%
%TD*%
%TO.P,C8,2*%
%TO.N,GND*%
%TA.AperFunction,SMDPad,CuDef*%
G36*
G01*
X138243750Y-54150000D02*
X138756250Y-54150000D01*
G75*
G02*
X138975000Y-54368750I0J-218750D01*
G01*
X138975000Y-54806250D01*
G75*
G02*
X138756250Y-55025000I-218750J0D01*
G01*
X138243750Y-55025000D01*
G75*
G02*
X138025000Y-54806250I0J218750D01*
G01*
X138025000Y-54368750D01*
G75*
G02*
X138243750Y-54150000I218750J0D01*
G01*
G37*
%TD.AperFunction*%
%TO.P,C8,1*%
%TO.N,+12V*%
%TA.AperFunction,SMDPad,CuDef*%
G36*
G01*
X138243750Y-52575000D02*
X138756250Y-52575000D01*
G75*
G02*
X138975000Y-52793750I0J-218750D01*
G01*
X138975000Y-53231250D01*
G75*
G02*
X138756250Y-53450000I-218750J0D01*
G01*
X138243750Y-53450000D01*
G75*
G02*
X138025000Y-53231250I0J218750D01*
G01*
X138025000Y-52793750D01*
G75*
G02*
X138243750Y-52575000I218750J0D01*
G01*
G37*
%TD.AperFunction*%
%TD*%
%TO.P,C9,1*%
%TO.N,+3V0*%
%TA.AperFunction,SMDPad,CuDef*%
G36*
G01*
X129756250Y-60625000D02*
X129243750Y-60625000D01*
G75*
G02*
X129025000Y-60406250I0J218750D01*
G01*
X129025000Y-59968750D01*
G75*
G02*
X129243750Y-59750000I218750J0D01*
G01*
X129756250Y-59750000D01*
G75*
G02*
X129975000Y-59968750I0J-218750D01*
G01*
X129975000Y-60406250D01*
G75*
G02*
X129756250Y-60625000I-218750J0D01*
G01*
G37*
%TD.AperFunction*%
%TO.P,C9,2*%
%TO.N,GND*%
%TA.AperFunction,SMDPad,CuDef*%
G36*
G01*
X129756250Y-59050000D02*
X129243750Y-59050000D01*
G75*
G02*
X129025000Y-58831250I0J218750D01*
G01*
X129025000Y-58393750D01*
G75*
G02*
X129243750Y-58175000I218750J0D01*
G01*
X129756250Y-58175000D01*
G75*
G02*
X129975000Y-58393750I0J-218750D01*
G01*
X129975000Y-58831250D01*
G75*
G02*
X129756250Y-59050000I-218750J0D01*
G01*
G37*
%TD.AperFunction*%
%TD*%
%TO.P,C10,2*%
%TO.N,GND*%
%TA.AperFunction,SMDPad,CuDef*%
G36*
G01*
X122850000Y-70043750D02*
X122850000Y-70556250D01*
G75*
G02*
X122631250Y-70775000I-218750J0D01*
G01*
X122193750Y-70775000D01*
G75*
G02*
X121975000Y-70556250I0J218750D01*
G01*
X121975000Y-70043750D01*
G75*
G02*
X122193750Y-69825000I218750J0D01*
G01*
X122631250Y-69825000D01*
G75*
G02*
X122850000Y-70043750I0J-218750D01*
G01*
G37*
%TD.AperFunction*%
%TO.P,C10,1*%
%TO.N,FTRES*%
%TA.AperFunction,SMDPad,CuDef*%
G36*
G01*
X124425000Y-70043750D02*
X124425000Y-70556250D01*
G75*
G02*
X124206250Y-70775000I-218750J0D01*
G01*
X123768750Y-70775000D01*
G75*
G02*
X123550000Y-70556250I0J218750D01*
G01*
X123550000Y-70043750D01*
G75*
G02*
X123768750Y-69825000I218750J0D01*
G01*
X124206250Y-69825000D01*
G75*
G02*
X124425000Y-70043750I0J-218750D01*
G01*
G37*
%TD.AperFunction*%
%TD*%
%TO.P,C11,1*%
%TO.N,Net-(C11-Pad1)*%
%TA.AperFunction,SMDPad,CuDef*%
G36*
G01*
X127335010Y-74477598D02*
X127697403Y-74839990D01*
G75*
G02*
X127697403Y-75149350I-154680J-154680D01*
G01*
X127388044Y-75458709D01*
G75*
G02*
X127078684Y-75458709I-154680J154680D01*
G01*
X126716291Y-75096316D01*
G75*
G02*
X126716291Y-74786956I154680J154680D01*
G01*
X127025650Y-74477597D01*
G75*
G02*
X127335010Y-74477597I154680J-154680D01*
G01*
G37*
%TD.AperFunction*%
%TO.P,C11,2*%
%TO.N,GND*%
%TA.AperFunction,SMDPad,CuDef*%
G36*
G01*
X126221316Y-75591292D02*
X126583709Y-75953684D01*
G75*
G02*
X126583709Y-76263044I-154680J-154680D01*
G01*
X126274350Y-76572403D01*
G75*
G02*
X125964990Y-76572403I-154680J154680D01*
G01*
X125602597Y-76210010D01*
G75*
G02*
X125602597Y-75900650I154680J154680D01*
G01*
X125911956Y-75591291D01*
G75*
G02*
X126221316Y-75591291I154680J-154680D01*
G01*
G37*
%TD.AperFunction*%
%TD*%
%TO.P,C12,1*%
%TO.N,+3V3*%
%TA.AperFunction,SMDPad,CuDef*%
G36*
G01*
X128435010Y-75577598D02*
X128797403Y-75939990D01*
G75*
G02*
X128797403Y-76249350I-154680J-154680D01*
G01*
X128488044Y-76558709D01*
G75*
G02*
X128178684Y-76558709I-154680J154680D01*
G01*
X127816291Y-76196316D01*
G75*
G02*
X127816291Y-75886956I154680J154680D01*
G01*
X128125650Y-75577597D01*
G75*
G02*
X128435010Y-75577597I154680J-154680D01*
G01*
G37*
%TD.AperFunction*%
%TO.P,C12,2*%
%TO.N,GND*%
%TA.AperFunction,SMDPad,CuDef*%
G36*
G01*
X127321316Y-76691292D02*
X127683709Y-77053684D01*
G75*
G02*
X127683709Y-77363044I-154680J-154680D01*
G01*
X127374350Y-77672403D01*
G75*
G02*
X127064990Y-77672403I-154680J154680D01*
G01*
X126702597Y-77310010D01*
G75*
G02*
X126702597Y-77000650I154680J154680D01*
G01*
X127011956Y-76691291D01*
G75*
G02*
X127321316Y-76691291I154680J-154680D01*
G01*
G37*
%TD.AperFunction*%
%TD*%
%TO.P,C13,2*%
%TO.N,GND*%
%TA.AperFunction,SMDPad,CuDef*%
G36*
G01*
X128421316Y-77791292D02*
X128783709Y-78153684D01*
G75*
G02*
X128783709Y-78463044I-154680J-154680D01*
G01*
X128474350Y-78772403D01*
G75*
G02*
X128164990Y-78772403I-154680J154680D01*
G01*
X127802597Y-78410010D01*
G75*
G02*
X127802597Y-78100650I154680J154680D01*
G01*
X128111956Y-77791291D01*
G75*
G02*
X128421316Y-77791291I154680J-154680D01*
G01*
G37*
%TD.AperFunction*%
%TO.P,C13,1*%
%TO.N,+3V0*%
%TA.AperFunction,SMDPad,CuDef*%
G36*
G01*
X129535010Y-76677598D02*
X129897403Y-77039990D01*
G75*
G02*
X129897403Y-77349350I-154680J-154680D01*
G01*
X129588044Y-77658709D01*
G75*
G02*
X129278684Y-77658709I-154680J154680D01*
G01*
X128916291Y-77296316D01*
G75*
G02*
X128916291Y-76986956I154680J154680D01*
G01*
X129225650Y-76677597D01*
G75*
G02*
X129535010Y-76677597I154680J-154680D01*
G01*
G37*
%TD.AperFunction*%
%TD*%
%TO.P,C14,1*%
%TO.N,+3V0*%
%TA.AperFunction,SMDPad,CuDef*%
G36*
G01*
X142325000Y-79843750D02*
X142325000Y-80356250D01*
G75*
G02*
X142106250Y-80575000I-218750J0D01*
G01*
X141668750Y-80575000D01*
G75*
G02*
X141450000Y-80356250I0J218750D01*
G01*
X141450000Y-79843750D01*
G75*
G02*
X141668750Y-79625000I218750J0D01*
G01*
X142106250Y-79625000D01*
G75*
G02*
X142325000Y-79843750I0J-218750D01*
G01*
G37*
%TD.AperFunction*%
%TO.P,C14,2*%
%TO.N,GND*%
%TA.AperFunction,SMDPad,CuDef*%
G36*
G01*
X140750000Y-79843750D02*
X140750000Y-80356250D01*
G75*
G02*
X140531250Y-80575000I-218750J0D01*
G01*
X140093750Y-80575000D01*
G75*
G02*
X139875000Y-80356250I0J218750D01*
G01*
X139875000Y-79843750D01*
G75*
G02*
X140093750Y-79625000I218750J0D01*
G01*
X140531250Y-79625000D01*
G75*
G02*
X140750000Y-79843750I0J-218750D01*
G01*
G37*
%TD.AperFunction*%
%TD*%
%TO.P,C15,2*%
%TO.N,GND*%
%TA.AperFunction,SMDPad,CuDef*%
G36*
G01*
X140750000Y-81443750D02*
X140750000Y-81956250D01*
G75*
G02*
X140531250Y-82175000I-218750J0D01*
G01*
X140093750Y-82175000D01*
G75*
G02*
X139875000Y-81956250I0J218750D01*
G01*
X139875000Y-81443750D01*
G75*
G02*
X140093750Y-81225000I218750J0D01*
G01*
X140531250Y-81225000D01*
G75*
G02*
X140750000Y-81443750I0J-218750D01*
G01*
G37*
%TD.AperFunction*%
%TO.P,C15,1*%
%TO.N,+3V0*%
%TA.AperFunction,SMDPad,CuDef*%
G36*
G01*
X142325000Y-81443750D02*
X142325000Y-81956250D01*
G75*
G02*
X142106250Y-82175000I-218750J0D01*
G01*
X141668750Y-82175000D01*
G75*
G02*
X141450000Y-81956250I0J218750D01*
G01*
X141450000Y-81443750D01*
G75*
G02*
X141668750Y-81225000I218750J0D01*
G01*
X142106250Y-81225000D01*
G75*
G02*
X142325000Y-81443750I0J-218750D01*
G01*
G37*
%TD.AperFunction*%
%TD*%
%TO.P,L1,1*%
%TO.N,+5V*%
%TA.AperFunction,SMDPad,CuDef*%
G36*
G01*
X135125000Y-50043750D02*
X135125000Y-50556250D01*
G75*
G02*
X134906250Y-50775000I-218750J0D01*
G01*
X134468750Y-50775000D01*
G75*
G02*
X134250000Y-50556250I0J218750D01*
G01*
X134250000Y-50043750D01*
G75*
G02*
X134468750Y-49825000I218750J0D01*
G01*
X134906250Y-49825000D01*
G75*
G02*
X135125000Y-50043750I0J-218750D01*
G01*
G37*
%TD.AperFunction*%
%TO.P,L1,2*%
%TO.N,Net-(L1-Pad2)*%
%TA.AperFunction,SMDPad,CuDef*%
G36*
G01*
X133550000Y-50043750D02*
X133550000Y-50556250D01*
G75*
G02*
X133331250Y-50775000I-218750J0D01*
G01*
X132893750Y-50775000D01*
G75*
G02*
X132675000Y-50556250I0J218750D01*
G01*
X132675000Y-50043750D01*
G75*
G02*
X132893750Y-49825000I218750J0D01*
G01*
X133331250Y-49825000D01*
G75*
G02*
X133550000Y-50043750I0J-218750D01*
G01*
G37*
%TD.AperFunction*%
%TD*%
%TO.P,R1,2*%
%TO.N,Net-(R1-Pad2)*%
%TA.AperFunction,SMDPad,CuDef*%
G36*
G01*
X136543750Y-54150000D02*
X137056250Y-54150000D01*
G75*
G02*
X137275000Y-54368750I0J-218750D01*
G01*
X137275000Y-54806250D01*
G75*
G02*
X137056250Y-55025000I-218750J0D01*
G01*
X136543750Y-55025000D01*
G75*
G02*
X136325000Y-54806250I0J218750D01*
G01*
X136325000Y-54368750D01*
G75*
G02*
X136543750Y-54150000I218750J0D01*
G01*
G37*
%TD.AperFunction*%
%TO.P,R1,1*%
%TO.N,+12V*%
%TA.AperFunction,SMDPad,CuDef*%
G36*
G01*
X136543750Y-52575000D02*
X137056250Y-52575000D01*
G75*
G02*
X137275000Y-52793750I0J-218750D01*
G01*
X137275000Y-53231250D01*
G75*
G02*
X137056250Y-53450000I-218750J0D01*
G01*
X136543750Y-53450000D01*
G75*
G02*
X136325000Y-53231250I0J218750D01*
G01*
X136325000Y-52793750D01*
G75*
G02*
X136543750Y-52575000I218750J0D01*
G01*
G37*
%TD.AperFunction*%
%TD*%
%TO.P,R2,1*%
%TO.N,Net-(R1-Pad2)*%
%TA.AperFunction,SMDPad,CuDef*%
G36*
G01*
X134725000Y-55543750D02*
X134725000Y-56056250D01*
G75*
G02*
X134506250Y-56275000I-218750J0D01*
G01*
X134068750Y-56275000D01*
G75*
G02*
X133850000Y-56056250I0J218750D01*
G01*
X133850000Y-55543750D01*
G75*
G02*
X134068750Y-55325000I218750J0D01*
G01*
X134506250Y-55325000D01*
G75*
G02*
X134725000Y-55543750I0J-218750D01*
G01*
G37*
%TD.AperFunction*%
%TO.P,R2,2*%
%TO.N,GND*%
%TA.AperFunction,SMDPad,CuDef*%
G36*
G01*
X133150000Y-55543750D02*
X133150000Y-56056250D01*
G75*
G02*
X132931250Y-56275000I-218750J0D01*
G01*
X132493750Y-56275000D01*
G75*
G02*
X132275000Y-56056250I0J218750D01*
G01*
X132275000Y-55543750D01*
G75*
G02*
X132493750Y-55325000I218750J0D01*
G01*
X132931250Y-55325000D01*
G75*
G02*
X133150000Y-55543750I0J-218750D01*
G01*
G37*
%TD.AperFunction*%
%TD*%
%TO.P,R3,1*%
%TO.N,FTRES*%
%TA.AperFunction,SMDPad,CuDef*%
G36*
G01*
X124425000Y-68443750D02*
X124425000Y-68956250D01*
G75*
G02*
X124206250Y-69175000I-218750J0D01*
G01*
X123768750Y-69175000D01*
G75*
G02*
X123550000Y-68956250I0J218750D01*
G01*
X123550000Y-68443750D01*
G75*
G02*
X123768750Y-68225000I218750J0D01*
G01*
X124206250Y-68225000D01*
G75*
G02*
X124425000Y-68443750I0J-218750D01*
G01*
G37*
%TD.AperFunction*%
%TO.P,R3,2*%
%TO.N,+3V0*%
%TA.AperFunction,SMDPad,CuDef*%
G36*
G01*
X122850000Y-68443750D02*
X122850000Y-68956250D01*
G75*
G02*
X122631250Y-69175000I-218750J0D01*
G01*
X122193750Y-69175000D01*
G75*
G02*
X121975000Y-68956250I0J218750D01*
G01*
X121975000Y-68443750D01*
G75*
G02*
X122193750Y-68225000I218750J0D01*
G01*
X122631250Y-68225000D01*
G75*
G02*
X122850000Y-68443750I0J-218750D01*
G01*
G37*
%TD.AperFunction*%
%TD*%
%TO.P,R4,2*%
%TO.N,+12V*%
%TA.AperFunction,SMDPad,CuDef*%
G36*
G01*
X139843750Y-52500000D02*
X140356250Y-52500000D01*
G75*
G02*
X140575000Y-52718750I0J-218750D01*
G01*
X140575000Y-53156250D01*
G75*
G02*
X140356250Y-53375000I-218750J0D01*
G01*
X139843750Y-53375000D01*
G75*
G02*
X139625000Y-53156250I0J218750D01*
G01*
X139625000Y-52718750D01*
G75*
G02*
X139843750Y-52500000I218750J0D01*
G01*
G37*
%TD.AperFunction*%
%TO.P,R4,1*%
%TO.N,Net-(R4-Pad1)*%
%TA.AperFunction,SMDPad,CuDef*%
G36*
G01*
X139843750Y-50925000D02*
X140356250Y-50925000D01*
G75*
G02*
X140575000Y-51143750I0J-218750D01*
G01*
X140575000Y-51581250D01*
G75*
G02*
X140356250Y-51800000I-218750J0D01*
G01*
X139843750Y-51800000D01*
G75*
G02*
X139625000Y-51581250I0J218750D01*
G01*
X139625000Y-51143750D01*
G75*
G02*
X139843750Y-50925000I218750J0D01*
G01*
G37*
%TD.AperFunction*%
%TD*%
%TO.P,R5,1*%
%TO.N,DISPRES*%
%TA.AperFunction,SMDPad,CuDef*%
G36*
G01*
X136325000Y-79843750D02*
X136325000Y-80356250D01*
G75*
G02*
X136106250Y-80575000I-218750J0D01*
G01*
X135668750Y-80575000D01*
G75*
G02*
X135450000Y-80356250I0J218750D01*
G01*
X135450000Y-79843750D01*
G75*
G02*
X135668750Y-79625000I218750J0D01*
G01*
X136106250Y-79625000D01*
G75*
G02*
X136325000Y-79843750I0J-218750D01*
G01*
G37*
%TD.AperFunction*%
%TO.P,R5,2*%
%TO.N,+3V0*%
%TA.AperFunction,SMDPad,CuDef*%
G36*
G01*
X134750000Y-79843750D02*
X134750000Y-80356250D01*
G75*
G02*
X134531250Y-80575000I-218750J0D01*
G01*
X134093750Y-80575000D01*
G75*
G02*
X133875000Y-80356250I0J218750D01*
G01*
X133875000Y-79843750D01*
G75*
G02*
X134093750Y-79625000I218750J0D01*
G01*
X134531250Y-79625000D01*
G75*
G02*
X134750000Y-79843750I0J-218750D01*
G01*
G37*
%TD.AperFunction*%
%TD*%
%TO.P,U1,1*%
%TO.N,Net-(U1-Pad1)*%
%TA.AperFunction,SMDPad,CuDef*%
G36*
G01*
X126200000Y-64125000D02*
X126200000Y-64325000D01*
G75*
G02*
X126100000Y-64425000I-100000J0D01*
G01*
X124825000Y-64425000D01*
G75*
G02*
X124725000Y-64325000I0J100000D01*
G01*
X124725000Y-64125000D01*
G75*
G02*
X124825000Y-64025000I100000J0D01*
G01*
X126100000Y-64025000D01*
G75*
G02*
X126200000Y-64125000I0J-100000D01*
G01*
G37*
%TD.AperFunction*%
%TO.P,U1,2*%
%TO.N,+3V0*%
%TA.AperFunction,SMDPad,CuDef*%
G36*
G01*
X126200000Y-63475000D02*
X126200000Y-63675000D01*
G75*
G02*
X126100000Y-63775000I-100000J0D01*
G01*
X124825000Y-63775000D01*
G75*
G02*
X124725000Y-63675000I0J100000D01*
G01*
X124725000Y-63475000D01*
G75*
G02*
X124825000Y-63375000I100000J0D01*
G01*
X126100000Y-63375000D01*
G75*
G02*
X126200000Y-63475000I0J-100000D01*
G01*
G37*
%TD.AperFunction*%
%TO.P,U1,3*%
%TO.N,IRQ_3V*%
%TA.AperFunction,SMDPad,CuDef*%
G36*
G01*
X126200000Y-62825000D02*
X126200000Y-63025000D01*
G75*
G02*
X126100000Y-63125000I-100000J0D01*
G01*
X124825000Y-63125000D01*
G75*
G02*
X124725000Y-63025000I0J100000D01*
G01*
X124725000Y-62825000D01*
G75*
G02*
X124825000Y-62725000I100000J0D01*
G01*
X126100000Y-62725000D01*
G75*
G02*
X126200000Y-62825000I0J-100000D01*
G01*
G37*
%TD.AperFunction*%
%TO.P,U1,4*%
%TO.N,DC_3V*%
%TA.AperFunction,SMDPad,CuDef*%
G36*
G01*
X126200000Y-62175000D02*
X126200000Y-62375000D01*
G75*
G02*
X126100000Y-62475000I-100000J0D01*
G01*
X124825000Y-62475000D01*
G75*
G02*
X124725000Y-62375000I0J100000D01*
G01*
X124725000Y-62175000D01*
G75*
G02*
X124825000Y-62075000I100000J0D01*
G01*
X126100000Y-62075000D01*
G75*
G02*
X126200000Y-62175000I0J-100000D01*
G01*
G37*
%TD.AperFunction*%
%TO.P,U1,5*%
%TO.N,CS2_3V*%
%TA.AperFunction,SMDPad,CuDef*%
G36*
G01*
X126200000Y-61525000D02*
X126200000Y-61725000D01*
G75*
G02*
X126100000Y-61825000I-100000J0D01*
G01*
X124825000Y-61825000D01*
G75*
G02*
X124725000Y-61725000I0J100000D01*
G01*
X124725000Y-61525000D01*
G75*
G02*
X124825000Y-61425000I100000J0D01*
G01*
X126100000Y-61425000D01*
G75*
G02*
X126200000Y-61525000I0J-100000D01*
G01*
G37*
%TD.AperFunction*%
%TO.P,U1,6*%
%TO.N,CS1_3V*%
%TA.AperFunction,SMDPad,CuDef*%
G36*
G01*
X126200000Y-60875000D02*
X126200000Y-61075000D01*
G75*
G02*
X126100000Y-61175000I-100000J0D01*
G01*
X124825000Y-61175000D01*
G75*
G02*
X124725000Y-61075000I0J100000D01*
G01*
X124725000Y-60875000D01*
G75*
G02*
X124825000Y-60775000I100000J0D01*
G01*
X126100000Y-60775000D01*
G75*
G02*
X126200000Y-60875000I0J-100000D01*
G01*
G37*
%TD.AperFunction*%
%TO.P,U1,7*%
%TO.N,SDO_3V*%
%TA.AperFunction,SMDPad,CuDef*%
G36*
G01*
X126200000Y-60225000D02*
X126200000Y-60425000D01*
G75*
G02*
X126100000Y-60525000I-100000J0D01*
G01*
X124825000Y-60525000D01*
G75*
G02*
X124725000Y-60425000I0J100000D01*
G01*
X124725000Y-60225000D01*
G75*
G02*
X124825000Y-60125000I100000J0D01*
G01*
X126100000Y-60125000D01*
G75*
G02*
X126200000Y-60225000I0J-100000D01*
G01*
G37*
%TD.AperFunction*%
%TO.P,U1,8*%
%TO.N,SDI_3V*%
%TA.AperFunction,SMDPad,CuDef*%
G36*
G01*
X126200000Y-59575000D02*
X126200000Y-59775000D01*
G75*
G02*
X126100000Y-59875000I-100000J0D01*
G01*
X124825000Y-59875000D01*
G75*
G02*
X124725000Y-59775000I0J100000D01*
G01*
X124725000Y-59575000D01*
G75*
G02*
X124825000Y-59475000I100000J0D01*
G01*
X126100000Y-59475000D01*
G75*
G02*
X126200000Y-59575000I0J-100000D01*
G01*
G37*
%TD.AperFunction*%
%TO.P,U1,9*%
%TO.N,SCK_3V*%
%TA.AperFunction,SMDPad,CuDef*%
G36*
G01*
X126200000Y-58925000D02*
X126200000Y-59125000D01*
G75*
G02*
X126100000Y-59225000I-100000J0D01*
G01*
X124825000Y-59225000D01*
G75*
G02*
X124725000Y-59125000I0J100000D01*
G01*
X124725000Y-58925000D01*
G75*
G02*
X124825000Y-58825000I100000J0D01*
G01*
X126100000Y-58825000D01*
G75*
G02*
X126200000Y-58925000I0J-100000D01*
G01*
G37*
%TD.AperFunction*%
%TO.P,U1,10*%
%TO.N,+3V0*%
%TA.AperFunction,SMDPad,CuDef*%
G36*
G01*
X126200000Y-58275000D02*
X126200000Y-58475000D01*
G75*
G02*
X126100000Y-58575000I-100000J0D01*
G01*
X124825000Y-58575000D01*
G75*
G02*
X124725000Y-58475000I0J100000D01*
G01*
X124725000Y-58275000D01*
G75*
G02*
X124825000Y-58175000I100000J0D01*
G01*
X126100000Y-58175000D01*
G75*
G02*
X126200000Y-58275000I0J-100000D01*
G01*
G37*
%TD.AperFunction*%
%TO.P,U1,11*%
%TO.N,GND*%
%TA.AperFunction,SMDPad,CuDef*%
G36*
G01*
X120475000Y-58275000D02*
X120475000Y-58475000D01*
G75*
G02*
X120375000Y-58575000I-100000J0D01*
G01*
X119100000Y-58575000D01*
G75*
G02*
X119000000Y-58475000I0J100000D01*
G01*
X119000000Y-58275000D01*
G75*
G02*
X119100000Y-58175000I100000J0D01*
G01*
X120375000Y-58175000D01*
G75*
G02*
X120475000Y-58275000I0J-100000D01*
G01*
G37*
%TD.AperFunction*%
%TO.P,U1,12*%
%TO.N,SCK*%
%TA.AperFunction,SMDPad,CuDef*%
G36*
G01*
X120475000Y-58925000D02*
X120475000Y-59125000D01*
G75*
G02*
X120375000Y-59225000I-100000J0D01*
G01*
X119100000Y-59225000D01*
G75*
G02*
X119000000Y-59125000I0J100000D01*
G01*
X119000000Y-58925000D01*
G75*
G02*
X119100000Y-58825000I100000J0D01*
G01*
X120375000Y-58825000D01*
G75*
G02*
X120475000Y-58925000I0J-100000D01*
G01*
G37*
%TD.AperFunction*%
%TO.P,U1,13*%
%TO.N,SDI*%
%TA.AperFunction,SMDPad,CuDef*%
G36*
G01*
X120475000Y-59575000D02*
X120475000Y-59775000D01*
G75*
G02*
X120375000Y-59875000I-100000J0D01*
G01*
X119100000Y-59875000D01*
G75*
G02*
X119000000Y-59775000I0J100000D01*
G01*
X119000000Y-59575000D01*
G75*
G02*
X119100000Y-59475000I100000J0D01*
G01*
X120375000Y-59475000D01*
G75*
G02*
X120475000Y-59575000I0J-100000D01*
G01*
G37*
%TD.AperFunction*%
%TO.P,U1,14*%
%TO.N,SDO*%
%TA.AperFunction,SMDPad,CuDef*%
G36*
G01*
X120475000Y-60225000D02*
X120475000Y-60425000D01*
G75*
G02*
X120375000Y-60525000I-100000J0D01*
G01*
X119100000Y-60525000D01*
G75*
G02*
X119000000Y-60425000I0J100000D01*
G01*
X119000000Y-60225000D01*
G75*
G02*
X119100000Y-60125000I100000J0D01*
G01*
X120375000Y-60125000D01*
G75*
G02*
X120475000Y-60225000I0J-100000D01*
G01*
G37*
%TD.AperFunction*%
%TO.P,U1,15*%
%TO.N,CS1*%
%TA.AperFunction,SMDPad,CuDef*%
G36*
G01*
X120475000Y-60875000D02*
X120475000Y-61075000D01*
G75*
G02*
X120375000Y-61175000I-100000J0D01*
G01*
X119100000Y-61175000D01*
G75*
G02*
X119000000Y-61075000I0J100000D01*
G01*
X119000000Y-60875000D01*
G75*
G02*
X119100000Y-60775000I100000J0D01*
G01*
X120375000Y-60775000D01*
G75*
G02*
X120475000Y-60875000I0J-100000D01*
G01*
G37*
%TD.AperFunction*%
%TO.P,U1,16*%
%TO.N,CS2*%
%TA.AperFunction,SMDPad,CuDef*%
G36*
G01*
X120475000Y-61525000D02*
X120475000Y-61725000D01*
G75*
G02*
X120375000Y-61825000I-100000J0D01*
G01*
X119100000Y-61825000D01*
G75*
G02*
X119000000Y-61725000I0J100000D01*
G01*
X119000000Y-61525000D01*
G75*
G02*
X119100000Y-61425000I100000J0D01*
G01*
X120375000Y-61425000D01*
G75*
G02*
X120475000Y-61525000I0J-100000D01*
G01*
G37*
%TD.AperFunction*%
%TO.P,U1,17*%
%TO.N,DC*%
%TA.AperFunction,SMDPad,CuDef*%
G36*
G01*
X120475000Y-62175000D02*
X120475000Y-62375000D01*
G75*
G02*
X120375000Y-62475000I-100000J0D01*
G01*
X119100000Y-62475000D01*
G75*
G02*
X119000000Y-62375000I0J100000D01*
G01*
X119000000Y-62175000D01*
G75*
G02*
X119100000Y-62075000I100000J0D01*
G01*
X120375000Y-62075000D01*
G75*
G02*
X120475000Y-62175000I0J-100000D01*
G01*
G37*
%TD.AperFunction*%
%TO.P,U1,18*%
%TO.N,IRQ*%
%TA.AperFunction,SMDPad,CuDef*%
G36*
G01*
X120475000Y-62825000D02*
X120475000Y-63025000D01*
G75*
G02*
X120375000Y-63125000I-100000J0D01*
G01*
X119100000Y-63125000D01*
G75*
G02*
X119000000Y-63025000I0J100000D01*
G01*
X119000000Y-62825000D01*
G75*
G02*
X119100000Y-62725000I100000J0D01*
G01*
X120375000Y-62725000D01*
G75*
G02*
X120475000Y-62825000I0J-100000D01*
G01*
G37*
%TD.AperFunction*%
%TO.P,U1,19*%
%TO.N,VCC*%
%TA.AperFunction,SMDPad,CuDef*%
G36*
G01*
X120475000Y-63475000D02*
X120475000Y-63675000D01*
G75*
G02*
X120375000Y-63775000I-100000J0D01*
G01*
X119100000Y-63775000D01*
G75*
G02*
X119000000Y-63675000I0J100000D01*
G01*
X119000000Y-63475000D01*
G75*
G02*
X119100000Y-63375000I100000J0D01*
G01*
X120375000Y-63375000D01*
G75*
G02*
X120475000Y-63475000I0J-100000D01*
G01*
G37*
%TD.AperFunction*%
%TO.P,U1,20*%
%TO.N,Net-(U1-Pad20)*%
%TA.AperFunction,SMDPad,CuDef*%
G36*
G01*
X120475000Y-64125000D02*
X120475000Y-64325000D01*
G75*
G02*
X120375000Y-64425000I-100000J0D01*
G01*
X119100000Y-64425000D01*
G75*
G02*
X119000000Y-64325000I0J100000D01*
G01*
X119000000Y-64125000D01*
G75*
G02*
X119100000Y-64025000I100000J0D01*
G01*
X120375000Y-64025000D01*
G75*
G02*
X120475000Y-64125000I0J-100000D01*
G01*
G37*
%TD.AperFunction*%
%TD*%
D10*
%TO.P,U2,3*%
%TO.N,+5V*%
X120800000Y-51900000D03*
%TO.P,U2,2*%
%TO.N,+3V0*%
X121750000Y-53900000D03*
%TO.P,U2,1*%
%TO.N,GND*%
X119850000Y-53900000D03*
%TD*%
%TO.P,U3,1*%
%TO.N,GND*%
X126450000Y-53900000D03*
%TO.P,U3,2*%
%TO.N,+3V3*%
X128350000Y-53900000D03*
%TO.P,U3,3*%
%TO.N,+5V*%
X127400000Y-51900000D03*
%TD*%
D11*
%TO.P,U4,1*%
%TO.N,Net-(L1-Pad2)*%
X132800000Y-52050000D03*
%TO.P,U4,2*%
%TO.N,GND*%
X132800000Y-53000000D03*
%TO.P,U4,3*%
%TO.N,Net-(R1-Pad2)*%
X132800000Y-53950000D03*
%TO.P,U4,4*%
%TO.N,+5V*%
X135000000Y-53950000D03*
%TO.P,U4,6*%
X135000000Y-52050000D03*
%TO.P,U4,5*%
%TO.N,+12V*%
X135000000Y-53000000D03*
%TD*%
%TA.AperFunction,SMDPad,CuDef*%
D12*
%TO.P,X1,1*%
%TO.N,Net-(U6-Pad16)*%
G36*
X121080761Y-74329289D02*
G01*
X121929289Y-73480761D01*
X122919239Y-74470711D01*
X122070711Y-75319239D01*
X121080761Y-74329289D01*
G37*
%TD.AperFunction*%
%TA.AperFunction,SMDPad,CuDef*%
%TO.P,X1,2*%
%TO.N,GND*%
G36*
X122636396Y-75884924D02*
G01*
X123484924Y-75036396D01*
X124474874Y-76026346D01*
X123626346Y-76874874D01*
X122636396Y-75884924D01*
G37*
%TD.AperFunction*%
%TA.AperFunction,SMDPad,CuDef*%
%TO.P,X1,3*%
%TO.N,Net-(U6-Pad17)*%
G36*
X123838477Y-74682843D02*
G01*
X124687005Y-73834315D01*
X125676955Y-74824265D01*
X124828427Y-75672793D01*
X123838477Y-74682843D01*
G37*
%TD.AperFunction*%
%TA.AperFunction,SMDPad,CuDef*%
%TO.P,X1,4*%
%TO.N,GND*%
G36*
X122282842Y-73127208D02*
G01*
X123131370Y-72278680D01*
X124121320Y-73268630D01*
X123272792Y-74117158D01*
X122282842Y-73127208D01*
G37*
%TD.AperFunction*%
%TD*%
D13*
%TO.P,TP1,1*%
%TO.N,+12V*%
X140150000Y-55350000D03*
%TD*%
%TO.P,TP3,1*%
%TO.N,+3V3*%
X127200000Y-57000000D03*
%TD*%
%TO.P,TP5,1*%
%TO.N,+3V0*%
X120800000Y-57000000D03*
%TD*%
D14*
%TO.P,TP2,1*%
%TO.N,GND*%
X120500000Y-80200000D03*
%TD*%
%TO.P,TP4,1*%
%TO.N,GND*%
X142100000Y-49700000D03*
%TD*%
D13*
%TO.P,TP6,1*%
%TO.N,SCK_3V*%
X139500000Y-77700000D03*
%TD*%
%TO.P,TP8,1*%
%TO.N,CS1_3V*%
X135325000Y-60375000D03*
%TD*%
%TO.P,TP10,1*%
%TO.N,CS2_3V*%
X128450000Y-83225000D03*
%TD*%
%TO.P,TP12,1*%
%TO.N,DC_3V*%
X130900000Y-83200000D03*
%TD*%
%TO.P,TP14,1*%
%TO.N,SDI_3V*%
X140000000Y-78700000D03*
%TD*%
%TO.P,TP16,1*%
%TO.N,SDO_3V*%
X141700000Y-78200000D03*
%TD*%
%TO.P,TP7,1*%
%TO.N,DE*%
X141900000Y-61200000D03*
%TD*%
%TO.P,TP9,1*%
%TO.N,HSYNC*%
X141900000Y-59000000D03*
%TD*%
%TO.P,TP11,1*%
%TO.N,VSYNC*%
X141900000Y-57900000D03*
%TD*%
%TO.P,TP13,1*%
%TO.N,PCLK*%
X141900000Y-60100000D03*
%TD*%
D15*
%TO.P,J1,1*%
%TO.N,+5V*%
X112200000Y-51100000D03*
D16*
%TO.P,J1,2*%
%TO.N,VCC*%
X112200000Y-53640000D03*
%TO.P,J1,3*%
%TO.N,GND*%
X112200000Y-56180000D03*
%TO.P,J1,4*%
%TO.N,SCK*%
X112200000Y-58720000D03*
%TO.P,J1,5*%
%TO.N,SDI*%
X112200000Y-61260000D03*
%TO.P,J1,6*%
%TO.N,SDO*%
X112200000Y-63800000D03*
%TO.P,J1,7*%
%TO.N,CS1*%
X112200000Y-66340000D03*
%TO.P,J1,8*%
%TO.N,CS2*%
X112200000Y-68880000D03*
%TO.P,J1,9*%
%TO.N,DC*%
X112200000Y-71420000D03*
%TO.P,J1,10*%
%TO.N,AUDIO*%
X112200000Y-73960000D03*
%TO.P,J1,11*%
%TO.N,IRQ*%
X112200000Y-76500000D03*
%TO.P,J1,12*%
%TO.N,GND*%
X112200000Y-79040000D03*
%TO.P,J1,13*%
X112200000Y-81580000D03*
%TD*%
D11*
%TO.P,U5,1*%
%TO.N,CS1_3V*%
X133450000Y-60375000D03*
%TO.P,U5,2*%
%TO.N,SDI_BUFFER*%
X133450000Y-59425000D03*
%TO.P,U5,3*%
%TO.N,GND*%
X133450000Y-58475000D03*
%TO.P,U5,4*%
%TO.N,SDI_3V*%
X131250000Y-58475000D03*
%TO.P,U5,5*%
%TO.N,+3V0*%
X131250000Y-60375000D03*
%TD*%
%TO.P,U6,1*%
%TO.N,B1*%
%TA.AperFunction,SMDPad,CuDef*%
G36*
G01*
X132160311Y-65452505D02*
X132248699Y-65364117D01*
G75*
G02*
X132337087Y-65364117I44194J-44194D01*
G01*
X132867417Y-65894447D01*
G75*
G02*
X132867417Y-65982835I-44194J-44194D01*
G01*
X132779029Y-66071223D01*
G75*
G02*
X132690641Y-66071223I-44194J44194D01*
G01*
X132160311Y-65540893D01*
G75*
G02*
X132160311Y-65452505I44194J44194D01*
G01*
G37*
%TD.AperFunction*%
%TO.P,U6,2*%
%TO.N,B0*%
%TA.AperFunction,SMDPad,CuDef*%
G36*
G01*
X131806758Y-65806058D02*
X131895146Y-65717670D01*
G75*
G02*
X131983534Y-65717670I44194J-44194D01*
G01*
X132513864Y-66248000D01*
G75*
G02*
X132513864Y-66336388I-44194J-44194D01*
G01*
X132425476Y-66424776D01*
G75*
G02*
X132337088Y-66424776I-44194J44194D01*
G01*
X131806758Y-65894446D01*
G75*
G02*
X131806758Y-65806058I44194J44194D01*
G01*
G37*
%TD.AperFunction*%
%TO.P,U6,3*%
%TO.N,AUDIO*%
%TA.AperFunction,SMDPad,CuDef*%
G36*
G01*
X131453204Y-66159612D02*
X131541592Y-66071224D01*
G75*
G02*
X131629980Y-66071224I44194J-44194D01*
G01*
X132160310Y-66601554D01*
G75*
G02*
X132160310Y-66689942I-44194J-44194D01*
G01*
X132071922Y-66778330D01*
G75*
G02*
X131983534Y-66778330I-44194J44194D01*
G01*
X131453204Y-66248000D01*
G75*
G02*
X131453204Y-66159612I44194J44194D01*
G01*
G37*
%TD.AperFunction*%
%TO.P,U6,4*%
%TO.N,GND*%
%TA.AperFunction,SMDPad,CuDef*%
G36*
G01*
X131099651Y-66513165D02*
X131188039Y-66424777D01*
G75*
G02*
X131276427Y-66424777I44194J-44194D01*
G01*
X131806757Y-66955107D01*
G75*
G02*
X131806757Y-67043495I-44194J-44194D01*
G01*
X131718369Y-67131883D01*
G75*
G02*
X131629981Y-67131883I-44194J44194D01*
G01*
X131099651Y-66601553D01*
G75*
G02*
X131099651Y-66513165I44194J44194D01*
G01*
G37*
%TD.AperFunction*%
%TO.P,U6,5*%
%TO.N,SCK_3V*%
%TA.AperFunction,SMDPad,CuDef*%
G36*
G01*
X130746098Y-66866719D02*
X130834486Y-66778331D01*
G75*
G02*
X130922874Y-66778331I44194J-44194D01*
G01*
X131453204Y-67308661D01*
G75*
G02*
X131453204Y-67397049I-44194J-44194D01*
G01*
X131364816Y-67485437D01*
G75*
G02*
X131276428Y-67485437I-44194J44194D01*
G01*
X130746098Y-66955107D01*
G75*
G02*
X130746098Y-66866719I44194J44194D01*
G01*
G37*
%TD.AperFunction*%
%TO.P,U6,6*%
%TO.N,SDI_BUFFER*%
%TA.AperFunction,SMDPad,CuDef*%
G36*
G01*
X130392544Y-67220272D02*
X130480932Y-67131884D01*
G75*
G02*
X130569320Y-67131884I44194J-44194D01*
G01*
X131099650Y-67662214D01*
G75*
G02*
X131099650Y-67750602I-44194J-44194D01*
G01*
X131011262Y-67838990D01*
G75*
G02*
X130922874Y-67838990I-44194J44194D01*
G01*
X130392544Y-67308660D01*
G75*
G02*
X130392544Y-67220272I44194J44194D01*
G01*
G37*
%TD.AperFunction*%
%TO.P,U6,7*%
%TO.N,SDO_3V*%
%TA.AperFunction,SMDPad,CuDef*%
G36*
G01*
X130038991Y-67573825D02*
X130127379Y-67485437D01*
G75*
G02*
X130215767Y-67485437I44194J-44194D01*
G01*
X130746097Y-68015767D01*
G75*
G02*
X130746097Y-68104155I-44194J-44194D01*
G01*
X130657709Y-68192543D01*
G75*
G02*
X130569321Y-68192543I-44194J44194D01*
G01*
X130038991Y-67662213D01*
G75*
G02*
X130038991Y-67573825I44194J44194D01*
G01*
G37*
%TD.AperFunction*%
%TO.P,U6,8*%
%TO.N,CS1_3V*%
%TA.AperFunction,SMDPad,CuDef*%
G36*
G01*
X129685437Y-67927379D02*
X129773825Y-67838991D01*
G75*
G02*
X129862213Y-67838991I44194J-44194D01*
G01*
X130392543Y-68369321D01*
G75*
G02*
X130392543Y-68457709I-44194J-44194D01*
G01*
X130304155Y-68546097D01*
G75*
G02*
X130215767Y-68546097I-44194J44194D01*
G01*
X129685437Y-68015767D01*
G75*
G02*
X129685437Y-67927379I44194J44194D01*
G01*
G37*
%TD.AperFunction*%
%TO.P,U6,9*%
%TO.N,Net-(U6-Pad9)*%
%TA.AperFunction,SMDPad,CuDef*%
G36*
G01*
X129331884Y-68280932D02*
X129420272Y-68192544D01*
G75*
G02*
X129508660Y-68192544I44194J-44194D01*
G01*
X130038990Y-68722874D01*
G75*
G02*
X130038990Y-68811262I-44194J-44194D01*
G01*
X129950602Y-68899650D01*
G75*
G02*
X129862214Y-68899650I-44194J44194D01*
G01*
X129331884Y-68369320D01*
G75*
G02*
X129331884Y-68280932I44194J44194D01*
G01*
G37*
%TD.AperFunction*%
%TO.P,U6,10*%
%TO.N,Net-(U6-Pad10)*%
%TA.AperFunction,SMDPad,CuDef*%
G36*
G01*
X128978331Y-68634486D02*
X129066719Y-68546098D01*
G75*
G02*
X129155107Y-68546098I44194J-44194D01*
G01*
X129685437Y-69076428D01*
G75*
G02*
X129685437Y-69164816I-44194J-44194D01*
G01*
X129597049Y-69253204D01*
G75*
G02*
X129508661Y-69253204I-44194J44194D01*
G01*
X128978331Y-68722874D01*
G75*
G02*
X128978331Y-68634486I44194J44194D01*
G01*
G37*
%TD.AperFunction*%
%TO.P,U6,11*%
%TO.N,+3V0*%
%TA.AperFunction,SMDPad,CuDef*%
G36*
G01*
X128624777Y-68988039D02*
X128713165Y-68899651D01*
G75*
G02*
X128801553Y-68899651I44194J-44194D01*
G01*
X129331883Y-69429981D01*
G75*
G02*
X129331883Y-69518369I-44194J-44194D01*
G01*
X129243495Y-69606757D01*
G75*
G02*
X129155107Y-69606757I-44194J44194D01*
G01*
X128624777Y-69076427D01*
G75*
G02*
X128624777Y-68988039I44194J44194D01*
G01*
G37*
%TD.AperFunction*%
%TO.P,U6,12*%
%TO.N,Net-(U6-Pad12)*%
%TA.AperFunction,SMDPad,CuDef*%
G36*
G01*
X128271224Y-69341592D02*
X128359612Y-69253204D01*
G75*
G02*
X128448000Y-69253204I44194J-44194D01*
G01*
X128978330Y-69783534D01*
G75*
G02*
X128978330Y-69871922I-44194J-44194D01*
G01*
X128889942Y-69960310D01*
G75*
G02*
X128801554Y-69960310I-44194J44194D01*
G01*
X128271224Y-69429980D01*
G75*
G02*
X128271224Y-69341592I44194J44194D01*
G01*
G37*
%TD.AperFunction*%
%TO.P,U6,13*%
%TO.N,IRQ_3V*%
%TA.AperFunction,SMDPad,CuDef*%
G36*
G01*
X127917670Y-69695146D02*
X128006058Y-69606758D01*
G75*
G02*
X128094446Y-69606758I44194J-44194D01*
G01*
X128624776Y-70137088D01*
G75*
G02*
X128624776Y-70225476I-44194J-44194D01*
G01*
X128536388Y-70313864D01*
G75*
G02*
X128448000Y-70313864I-44194J44194D01*
G01*
X127917670Y-69783534D01*
G75*
G02*
X127917670Y-69695146I44194J44194D01*
G01*
G37*
%TD.AperFunction*%
%TO.P,U6,14*%
%TO.N,FTRES*%
%TA.AperFunction,SMDPad,CuDef*%
G36*
G01*
X127564117Y-70048699D02*
X127652505Y-69960311D01*
G75*
G02*
X127740893Y-69960311I44194J-44194D01*
G01*
X128271223Y-70490641D01*
G75*
G02*
X128271223Y-70579029I-44194J-44194D01*
G01*
X128182835Y-70667417D01*
G75*
G02*
X128094447Y-70667417I-44194J44194D01*
G01*
X127564117Y-70137087D01*
G75*
G02*
X127564117Y-70048699I44194J44194D01*
G01*
G37*
%TD.AperFunction*%
%TO.P,U6,15*%
%TO.N,DISPRES*%
%TA.AperFunction,SMDPad,CuDef*%
G36*
G01*
X127564117Y-71462913D02*
X128094447Y-70932583D01*
G75*
G02*
X128182835Y-70932583I44194J-44194D01*
G01*
X128271223Y-71020971D01*
G75*
G02*
X128271223Y-71109359I-44194J-44194D01*
G01*
X127740893Y-71639689D01*
G75*
G02*
X127652505Y-71639689I-44194J44194D01*
G01*
X127564117Y-71551301D01*
G75*
G02*
X127564117Y-71462913I44194J44194D01*
G01*
G37*
%TD.AperFunction*%
%TO.P,U6,16*%
%TO.N,Net-(U6-Pad16)*%
%TA.AperFunction,SMDPad,CuDef*%
G36*
G01*
X127917670Y-71816466D02*
X128448000Y-71286136D01*
G75*
G02*
X128536388Y-71286136I44194J-44194D01*
G01*
X128624776Y-71374524D01*
G75*
G02*
X128624776Y-71462912I-44194J-44194D01*
G01*
X128094446Y-71993242D01*
G75*
G02*
X128006058Y-71993242I-44194J44194D01*
G01*
X127917670Y-71904854D01*
G75*
G02*
X127917670Y-71816466I44194J44194D01*
G01*
G37*
%TD.AperFunction*%
%TO.P,U6,17*%
%TO.N,Net-(U6-Pad17)*%
%TA.AperFunction,SMDPad,CuDef*%
G36*
G01*
X128271224Y-72170020D02*
X128801554Y-71639690D01*
G75*
G02*
X128889942Y-71639690I44194J-44194D01*
G01*
X128978330Y-71728078D01*
G75*
G02*
X128978330Y-71816466I-44194J-44194D01*
G01*
X128448000Y-72346796D01*
G75*
G02*
X128359612Y-72346796I-44194J44194D01*
G01*
X128271224Y-72258408D01*
G75*
G02*
X128271224Y-72170020I44194J44194D01*
G01*
G37*
%TD.AperFunction*%
%TO.P,U6,18*%
%TO.N,GND*%
%TA.AperFunction,SMDPad,CuDef*%
G36*
G01*
X128624777Y-72523573D02*
X129155107Y-71993243D01*
G75*
G02*
X129243495Y-71993243I44194J-44194D01*
G01*
X129331883Y-72081631D01*
G75*
G02*
X129331883Y-72170019I-44194J-44194D01*
G01*
X128801553Y-72700349D01*
G75*
G02*
X128713165Y-72700349I-44194J44194D01*
G01*
X128624777Y-72611961D01*
G75*
G02*
X128624777Y-72523573I44194J44194D01*
G01*
G37*
%TD.AperFunction*%
%TO.P,U6,19*%
%TO.N,+3V3*%
%TA.AperFunction,SMDPad,CuDef*%
G36*
G01*
X128978331Y-72877126D02*
X129508661Y-72346796D01*
G75*
G02*
X129597049Y-72346796I44194J-44194D01*
G01*
X129685437Y-72435184D01*
G75*
G02*
X129685437Y-72523572I-44194J-44194D01*
G01*
X129155107Y-73053902D01*
G75*
G02*
X129066719Y-73053902I-44194J44194D01*
G01*
X128978331Y-72965514D01*
G75*
G02*
X128978331Y-72877126I44194J44194D01*
G01*
G37*
%TD.AperFunction*%
%TO.P,U6,20*%
%TO.N,Net-(C11-Pad1)*%
%TA.AperFunction,SMDPad,CuDef*%
G36*
G01*
X129331884Y-73230680D02*
X129862214Y-72700350D01*
G75*
G02*
X129950602Y-72700350I44194J-44194D01*
G01*
X130038990Y-72788738D01*
G75*
G02*
X130038990Y-72877126I-44194J-44194D01*
G01*
X129508660Y-73407456D01*
G75*
G02*
X129420272Y-73407456I-44194J44194D01*
G01*
X129331884Y-73319068D01*
G75*
G02*
X129331884Y-73230680I44194J44194D01*
G01*
G37*
%TD.AperFunction*%
%TO.P,U6,21*%
%TO.N,+3V3*%
%TA.AperFunction,SMDPad,CuDef*%
G36*
G01*
X129685437Y-73584233D02*
X130215767Y-73053903D01*
G75*
G02*
X130304155Y-73053903I44194J-44194D01*
G01*
X130392543Y-73142291D01*
G75*
G02*
X130392543Y-73230679I-44194J-44194D01*
G01*
X129862213Y-73761009D01*
G75*
G02*
X129773825Y-73761009I-44194J44194D01*
G01*
X129685437Y-73672621D01*
G75*
G02*
X129685437Y-73584233I44194J44194D01*
G01*
G37*
%TD.AperFunction*%
%TO.P,U6,22*%
%TO.N,+3V0*%
%TA.AperFunction,SMDPad,CuDef*%
G36*
G01*
X130038991Y-73937787D02*
X130569321Y-73407457D01*
G75*
G02*
X130657709Y-73407457I44194J-44194D01*
G01*
X130746097Y-73495845D01*
G75*
G02*
X130746097Y-73584233I-44194J-44194D01*
G01*
X130215767Y-74114563D01*
G75*
G02*
X130127379Y-74114563I-44194J44194D01*
G01*
X130038991Y-74026175D01*
G75*
G02*
X130038991Y-73937787I44194J44194D01*
G01*
G37*
%TD.AperFunction*%
%TO.P,U6,23*%
%TO.N,Net-(U6-Pad23)*%
%TA.AperFunction,SMDPad,CuDef*%
G36*
G01*
X130392544Y-74291340D02*
X130922874Y-73761010D01*
G75*
G02*
X131011262Y-73761010I44194J-44194D01*
G01*
X131099650Y-73849398D01*
G75*
G02*
X131099650Y-73937786I-44194J-44194D01*
G01*
X130569320Y-74468116D01*
G75*
G02*
X130480932Y-74468116I-44194J44194D01*
G01*
X130392544Y-74379728D01*
G75*
G02*
X130392544Y-74291340I44194J44194D01*
G01*
G37*
%TD.AperFunction*%
%TO.P,U6,24*%
%TO.N,Net-(U6-Pad24)*%
%TA.AperFunction,SMDPad,CuDef*%
G36*
G01*
X130746098Y-74644893D02*
X131276428Y-74114563D01*
G75*
G02*
X131364816Y-74114563I44194J-44194D01*
G01*
X131453204Y-74202951D01*
G75*
G02*
X131453204Y-74291339I-44194J-44194D01*
G01*
X130922874Y-74821669D01*
G75*
G02*
X130834486Y-74821669I-44194J44194D01*
G01*
X130746098Y-74733281D01*
G75*
G02*
X130746098Y-74644893I44194J44194D01*
G01*
G37*
%TD.AperFunction*%
%TO.P,U6,25*%
%TO.N,Net-(U6-Pad25)*%
%TA.AperFunction,SMDPad,CuDef*%
G36*
G01*
X131099651Y-74998447D02*
X131629981Y-74468117D01*
G75*
G02*
X131718369Y-74468117I44194J-44194D01*
G01*
X131806757Y-74556505D01*
G75*
G02*
X131806757Y-74644893I-44194J-44194D01*
G01*
X131276427Y-75175223D01*
G75*
G02*
X131188039Y-75175223I-44194J44194D01*
G01*
X131099651Y-75086835D01*
G75*
G02*
X131099651Y-74998447I44194J44194D01*
G01*
G37*
%TD.AperFunction*%
%TO.P,U6,26*%
%TO.N,Net-(U6-Pad26)*%
%TA.AperFunction,SMDPad,CuDef*%
G36*
G01*
X131453204Y-75352000D02*
X131983534Y-74821670D01*
G75*
G02*
X132071922Y-74821670I44194J-44194D01*
G01*
X132160310Y-74910058D01*
G75*
G02*
X132160310Y-74998446I-44194J-44194D01*
G01*
X131629980Y-75528776D01*
G75*
G02*
X131541592Y-75528776I-44194J44194D01*
G01*
X131453204Y-75440388D01*
G75*
G02*
X131453204Y-75352000I44194J44194D01*
G01*
G37*
%TD.AperFunction*%
%TO.P,U6,27*%
%TO.N,GND*%
%TA.AperFunction,SMDPad,CuDef*%
G36*
G01*
X131806758Y-75705554D02*
X132337088Y-75175224D01*
G75*
G02*
X132425476Y-75175224I44194J-44194D01*
G01*
X132513864Y-75263612D01*
G75*
G02*
X132513864Y-75352000I-44194J-44194D01*
G01*
X131983534Y-75882330D01*
G75*
G02*
X131895146Y-75882330I-44194J44194D01*
G01*
X131806758Y-75793942D01*
G75*
G02*
X131806758Y-75705554I44194J44194D01*
G01*
G37*
%TD.AperFunction*%
%TO.P,U6,28*%
%TO.N,Net-(U6-Pad28)*%
%TA.AperFunction,SMDPad,CuDef*%
G36*
G01*
X132160311Y-76059107D02*
X132690641Y-75528777D01*
G75*
G02*
X132779029Y-75528777I44194J-44194D01*
G01*
X132867417Y-75617165D01*
G75*
G02*
X132867417Y-75705553I-44194J-44194D01*
G01*
X132337087Y-76235883D01*
G75*
G02*
X132248699Y-76235883I-44194J44194D01*
G01*
X132160311Y-76147495D01*
G75*
G02*
X132160311Y-76059107I44194J44194D01*
G01*
G37*
%TD.AperFunction*%
%TO.P,U6,29*%
%TO.N,DE*%
%TA.AperFunction,SMDPad,CuDef*%
G36*
G01*
X133132583Y-75617165D02*
X133220971Y-75528777D01*
G75*
G02*
X133309359Y-75528777I44194J-44194D01*
G01*
X133839689Y-76059107D01*
G75*
G02*
X133839689Y-76147495I-44194J-44194D01*
G01*
X133751301Y-76235883D01*
G75*
G02*
X133662913Y-76235883I-44194J44194D01*
G01*
X133132583Y-75705553D01*
G75*
G02*
X133132583Y-75617165I44194J44194D01*
G01*
G37*
%TD.AperFunction*%
%TO.P,U6,30*%
%TO.N,VSYNC*%
%TA.AperFunction,SMDPad,CuDef*%
G36*
G01*
X133486136Y-75263612D02*
X133574524Y-75175224D01*
G75*
G02*
X133662912Y-75175224I44194J-44194D01*
G01*
X134193242Y-75705554D01*
G75*
G02*
X134193242Y-75793942I-44194J-44194D01*
G01*
X134104854Y-75882330D01*
G75*
G02*
X134016466Y-75882330I-44194J44194D01*
G01*
X133486136Y-75352000D01*
G75*
G02*
X133486136Y-75263612I44194J44194D01*
G01*
G37*
%TD.AperFunction*%
%TO.P,U6,31*%
%TO.N,HSYNC*%
%TA.AperFunction,SMDPad,CuDef*%
G36*
G01*
X133839690Y-74910058D02*
X133928078Y-74821670D01*
G75*
G02*
X134016466Y-74821670I44194J-44194D01*
G01*
X134546796Y-75352000D01*
G75*
G02*
X134546796Y-75440388I-44194J-44194D01*
G01*
X134458408Y-75528776D01*
G75*
G02*
X134370020Y-75528776I-44194J44194D01*
G01*
X133839690Y-74998446D01*
G75*
G02*
X133839690Y-74910058I44194J44194D01*
G01*
G37*
%TD.AperFunction*%
%TO.P,U6,32*%
%TO.N,Net-(U6-Pad32)*%
%TA.AperFunction,SMDPad,CuDef*%
G36*
G01*
X134193243Y-74556505D02*
X134281631Y-74468117D01*
G75*
G02*
X134370019Y-74468117I44194J-44194D01*
G01*
X134900349Y-74998447D01*
G75*
G02*
X134900349Y-75086835I-44194J-44194D01*
G01*
X134811961Y-75175223D01*
G75*
G02*
X134723573Y-75175223I-44194J44194D01*
G01*
X134193243Y-74644893D01*
G75*
G02*
X134193243Y-74556505I44194J44194D01*
G01*
G37*
%TD.AperFunction*%
%TO.P,U6,33*%
%TO.N,PCLK*%
%TA.AperFunction,SMDPad,CuDef*%
G36*
G01*
X134546796Y-74202951D02*
X134635184Y-74114563D01*
G75*
G02*
X134723572Y-74114563I44194J-44194D01*
G01*
X135253902Y-74644893D01*
G75*
G02*
X135253902Y-74733281I-44194J-44194D01*
G01*
X135165514Y-74821669D01*
G75*
G02*
X135077126Y-74821669I-44194J44194D01*
G01*
X134546796Y-74291339D01*
G75*
G02*
X134546796Y-74202951I44194J44194D01*
G01*
G37*
%TD.AperFunction*%
%TO.P,U6,34*%
%TO.N,R7*%
%TA.AperFunction,SMDPad,CuDef*%
G36*
G01*
X134900350Y-73849398D02*
X134988738Y-73761010D01*
G75*
G02*
X135077126Y-73761010I44194J-44194D01*
G01*
X135607456Y-74291340D01*
G75*
G02*
X135607456Y-74379728I-44194J-44194D01*
G01*
X135519068Y-74468116D01*
G75*
G02*
X135430680Y-74468116I-44194J44194D01*
G01*
X134900350Y-73937786D01*
G75*
G02*
X134900350Y-73849398I44194J44194D01*
G01*
G37*
%TD.AperFunction*%
%TO.P,U6,35*%
%TO.N,R6*%
%TA.AperFunction,SMDPad,CuDef*%
G36*
G01*
X135253903Y-73495845D02*
X135342291Y-73407457D01*
G75*
G02*
X135430679Y-73407457I44194J-44194D01*
G01*
X135961009Y-73937787D01*
G75*
G02*
X135961009Y-74026175I-44194J-44194D01*
G01*
X135872621Y-74114563D01*
G75*
G02*
X135784233Y-74114563I-44194J44194D01*
G01*
X135253903Y-73584233D01*
G75*
G02*
X135253903Y-73495845I44194J44194D01*
G01*
G37*
%TD.AperFunction*%
%TO.P,U6,36*%
%TO.N,R5*%
%TA.AperFunction,SMDPad,CuDef*%
G36*
G01*
X135607457Y-73142291D02*
X135695845Y-73053903D01*
G75*
G02*
X135784233Y-73053903I44194J-44194D01*
G01*
X136314563Y-73584233D01*
G75*
G02*
X136314563Y-73672621I-44194J-44194D01*
G01*
X136226175Y-73761009D01*
G75*
G02*
X136137787Y-73761009I-44194J44194D01*
G01*
X135607457Y-73230679D01*
G75*
G02*
X135607457Y-73142291I44194J44194D01*
G01*
G37*
%TD.AperFunction*%
%TO.P,U6,37*%
%TO.N,R4*%
%TA.AperFunction,SMDPad,CuDef*%
G36*
G01*
X135961010Y-72788738D02*
X136049398Y-72700350D01*
G75*
G02*
X136137786Y-72700350I44194J-44194D01*
G01*
X136668116Y-73230680D01*
G75*
G02*
X136668116Y-73319068I-44194J-44194D01*
G01*
X136579728Y-73407456D01*
G75*
G02*
X136491340Y-73407456I-44194J44194D01*
G01*
X135961010Y-72877126D01*
G75*
G02*
X135961010Y-72788738I44194J44194D01*
G01*
G37*
%TD.AperFunction*%
%TO.P,U6,38*%
%TO.N,R3*%
%TA.AperFunction,SMDPad,CuDef*%
G36*
G01*
X136314563Y-72435184D02*
X136402951Y-72346796D01*
G75*
G02*
X136491339Y-72346796I44194J-44194D01*
G01*
X137021669Y-72877126D01*
G75*
G02*
X137021669Y-72965514I-44194J-44194D01*
G01*
X136933281Y-73053902D01*
G75*
G02*
X136844893Y-73053902I-44194J44194D01*
G01*
X136314563Y-72523572D01*
G75*
G02*
X136314563Y-72435184I44194J44194D01*
G01*
G37*
%TD.AperFunction*%
%TO.P,U6,39*%
%TO.N,R2*%
%TA.AperFunction,SMDPad,CuDef*%
G36*
G01*
X136668117Y-72081631D02*
X136756505Y-71993243D01*
G75*
G02*
X136844893Y-71993243I44194J-44194D01*
G01*
X137375223Y-72523573D01*
G75*
G02*
X137375223Y-72611961I-44194J-44194D01*
G01*
X137286835Y-72700349D01*
G75*
G02*
X137198447Y-72700349I-44194J44194D01*
G01*
X136668117Y-72170019D01*
G75*
G02*
X136668117Y-72081631I44194J44194D01*
G01*
G37*
%TD.AperFunction*%
%TO.P,U6,40*%
%TO.N,R1*%
%TA.AperFunction,SMDPad,CuDef*%
G36*
G01*
X137021670Y-71728078D02*
X137110058Y-71639690D01*
G75*
G02*
X137198446Y-71639690I44194J-44194D01*
G01*
X137728776Y-72170020D01*
G75*
G02*
X137728776Y-72258408I-44194J-44194D01*
G01*
X137640388Y-72346796D01*
G75*
G02*
X137552000Y-72346796I-44194J44194D01*
G01*
X137021670Y-71816466D01*
G75*
G02*
X137021670Y-71728078I44194J44194D01*
G01*
G37*
%TD.AperFunction*%
%TO.P,U6,41*%
%TO.N,R0*%
%TA.AperFunction,SMDPad,CuDef*%
G36*
G01*
X137375224Y-71374524D02*
X137463612Y-71286136D01*
G75*
G02*
X137552000Y-71286136I44194J-44194D01*
G01*
X138082330Y-71816466D01*
G75*
G02*
X138082330Y-71904854I-44194J-44194D01*
G01*
X137993942Y-71993242D01*
G75*
G02*
X137905554Y-71993242I-44194J44194D01*
G01*
X137375224Y-71462912D01*
G75*
G02*
X137375224Y-71374524I44194J44194D01*
G01*
G37*
%TD.AperFunction*%
%TO.P,U6,42*%
%TO.N,GND*%
%TA.AperFunction,SMDPad,CuDef*%
G36*
G01*
X137728777Y-71020971D02*
X137817165Y-70932583D01*
G75*
G02*
X137905553Y-70932583I44194J-44194D01*
G01*
X138435883Y-71462913D01*
G75*
G02*
X138435883Y-71551301I-44194J-44194D01*
G01*
X138347495Y-71639689D01*
G75*
G02*
X138259107Y-71639689I-44194J44194D01*
G01*
X137728777Y-71109359D01*
G75*
G02*
X137728777Y-71020971I44194J44194D01*
G01*
G37*
%TD.AperFunction*%
%TO.P,U6,43*%
%TO.N,G7*%
%TA.AperFunction,SMDPad,CuDef*%
G36*
G01*
X137728777Y-70490641D02*
X138259107Y-69960311D01*
G75*
G02*
X138347495Y-69960311I44194J-44194D01*
G01*
X138435883Y-70048699D01*
G75*
G02*
X138435883Y-70137087I-44194J-44194D01*
G01*
X137905553Y-70667417D01*
G75*
G02*
X137817165Y-70667417I-44194J44194D01*
G01*
X137728777Y-70579029D01*
G75*
G02*
X137728777Y-70490641I44194J44194D01*
G01*
G37*
%TD.AperFunction*%
%TO.P,U6,44*%
%TO.N,G6*%
%TA.AperFunction,SMDPad,CuDef*%
G36*
G01*
X137375224Y-70137088D02*
X137905554Y-69606758D01*
G75*
G02*
X137993942Y-69606758I44194J-44194D01*
G01*
X138082330Y-69695146D01*
G75*
G02*
X138082330Y-69783534I-44194J-44194D01*
G01*
X137552000Y-70313864D01*
G75*
G02*
X137463612Y-70313864I-44194J44194D01*
G01*
X137375224Y-70225476D01*
G75*
G02*
X137375224Y-70137088I44194J44194D01*
G01*
G37*
%TD.AperFunction*%
%TO.P,U6,45*%
%TO.N,G5*%
%TA.AperFunction,SMDPad,CuDef*%
G36*
G01*
X137021670Y-69783534D02*
X137552000Y-69253204D01*
G75*
G02*
X137640388Y-69253204I44194J-44194D01*
G01*
X137728776Y-69341592D01*
G75*
G02*
X137728776Y-69429980I-44194J-44194D01*
G01*
X137198446Y-69960310D01*
G75*
G02*
X137110058Y-69960310I-44194J44194D01*
G01*
X137021670Y-69871922D01*
G75*
G02*
X137021670Y-69783534I44194J44194D01*
G01*
G37*
%TD.AperFunction*%
%TO.P,U6,46*%
%TO.N,G4*%
%TA.AperFunction,SMDPad,CuDef*%
G36*
G01*
X136668117Y-69429981D02*
X137198447Y-68899651D01*
G75*
G02*
X137286835Y-68899651I44194J-44194D01*
G01*
X137375223Y-68988039D01*
G75*
G02*
X137375223Y-69076427I-44194J-44194D01*
G01*
X136844893Y-69606757D01*
G75*
G02*
X136756505Y-69606757I-44194J44194D01*
G01*
X136668117Y-69518369D01*
G75*
G02*
X136668117Y-69429981I44194J44194D01*
G01*
G37*
%TD.AperFunction*%
%TO.P,U6,47*%
%TO.N,G3*%
%TA.AperFunction,SMDPad,CuDef*%
G36*
G01*
X136314563Y-69076428D02*
X136844893Y-68546098D01*
G75*
G02*
X136933281Y-68546098I44194J-44194D01*
G01*
X137021669Y-68634486D01*
G75*
G02*
X137021669Y-68722874I-44194J-44194D01*
G01*
X136491339Y-69253204D01*
G75*
G02*
X136402951Y-69253204I-44194J44194D01*
G01*
X136314563Y-69164816D01*
G75*
G02*
X136314563Y-69076428I44194J44194D01*
G01*
G37*
%TD.AperFunction*%
%TO.P,U6,48*%
%TO.N,G2*%
%TA.AperFunction,SMDPad,CuDef*%
G36*
G01*
X135961010Y-68722874D02*
X136491340Y-68192544D01*
G75*
G02*
X136579728Y-68192544I44194J-44194D01*
G01*
X136668116Y-68280932D01*
G75*
G02*
X136668116Y-68369320I-44194J-44194D01*
G01*
X136137786Y-68899650D01*
G75*
G02*
X136049398Y-68899650I-44194J44194D01*
G01*
X135961010Y-68811262D01*
G75*
G02*
X135961010Y-68722874I44194J44194D01*
G01*
G37*
%TD.AperFunction*%
%TO.P,U6,49*%
%TO.N,G1*%
%TA.AperFunction,SMDPad,CuDef*%
G36*
G01*
X135607457Y-68369321D02*
X136137787Y-67838991D01*
G75*
G02*
X136226175Y-67838991I44194J-44194D01*
G01*
X136314563Y-67927379D01*
G75*
G02*
X136314563Y-68015767I-44194J-44194D01*
G01*
X135784233Y-68546097D01*
G75*
G02*
X135695845Y-68546097I-44194J44194D01*
G01*
X135607457Y-68457709D01*
G75*
G02*
X135607457Y-68369321I44194J44194D01*
G01*
G37*
%TD.AperFunction*%
%TO.P,U6,50*%
%TO.N,G0*%
%TA.AperFunction,SMDPad,CuDef*%
G36*
G01*
X135253903Y-68015767D02*
X135784233Y-67485437D01*
G75*
G02*
X135872621Y-67485437I44194J-44194D01*
G01*
X135961009Y-67573825D01*
G75*
G02*
X135961009Y-67662213I-44194J-44194D01*
G01*
X135430679Y-68192543D01*
G75*
G02*
X135342291Y-68192543I-44194J44194D01*
G01*
X135253903Y-68104155D01*
G75*
G02*
X135253903Y-68015767I44194J44194D01*
G01*
G37*
%TD.AperFunction*%
%TO.P,U6,51*%
%TO.N,B7*%
%TA.AperFunction,SMDPad,CuDef*%
G36*
G01*
X134900350Y-67662214D02*
X135430680Y-67131884D01*
G75*
G02*
X135519068Y-67131884I44194J-44194D01*
G01*
X135607456Y-67220272D01*
G75*
G02*
X135607456Y-67308660I-44194J-44194D01*
G01*
X135077126Y-67838990D01*
G75*
G02*
X134988738Y-67838990I-44194J44194D01*
G01*
X134900350Y-67750602D01*
G75*
G02*
X134900350Y-67662214I44194J44194D01*
G01*
G37*
%TD.AperFunction*%
%TO.P,U6,52*%
%TO.N,B6*%
%TA.AperFunction,SMDPad,CuDef*%
G36*
G01*
X134546796Y-67308661D02*
X135077126Y-66778331D01*
G75*
G02*
X135165514Y-66778331I44194J-44194D01*
G01*
X135253902Y-66866719D01*
G75*
G02*
X135253902Y-66955107I-44194J-44194D01*
G01*
X134723572Y-67485437D01*
G75*
G02*
X134635184Y-67485437I-44194J44194D01*
G01*
X134546796Y-67397049D01*
G75*
G02*
X134546796Y-67308661I44194J44194D01*
G01*
G37*
%TD.AperFunction*%
%TO.P,U6,53*%
%TO.N,B5*%
%TA.AperFunction,SMDPad,CuDef*%
G36*
G01*
X134193243Y-66955107D02*
X134723573Y-66424777D01*
G75*
G02*
X134811961Y-66424777I44194J-44194D01*
G01*
X134900349Y-66513165D01*
G75*
G02*
X134900349Y-66601553I-44194J-44194D01*
G01*
X134370019Y-67131883D01*
G75*
G02*
X134281631Y-67131883I-44194J44194D01*
G01*
X134193243Y-67043495D01*
G75*
G02*
X134193243Y-66955107I44194J44194D01*
G01*
G37*
%TD.AperFunction*%
%TO.P,U6,54*%
%TO.N,B4*%
%TA.AperFunction,SMDPad,CuDef*%
G36*
G01*
X133839690Y-66601554D02*
X134370020Y-66071224D01*
G75*
G02*
X134458408Y-66071224I44194J-44194D01*
G01*
X134546796Y-66159612D01*
G75*
G02*
X134546796Y-66248000I-44194J-44194D01*
G01*
X134016466Y-66778330D01*
G75*
G02*
X133928078Y-66778330I-44194J44194D01*
G01*
X133839690Y-66689942D01*
G75*
G02*
X133839690Y-66601554I44194J44194D01*
G01*
G37*
%TD.AperFunction*%
%TO.P,U6,55*%
%TO.N,B3*%
%TA.AperFunction,SMDPad,CuDef*%
G36*
G01*
X133486136Y-66248000D02*
X134016466Y-65717670D01*
G75*
G02*
X134104854Y-65717670I44194J-44194D01*
G01*
X134193242Y-65806058D01*
G75*
G02*
X134193242Y-65894446I-44194J-44194D01*
G01*
X133662912Y-66424776D01*
G75*
G02*
X133574524Y-66424776I-44194J44194D01*
G01*
X133486136Y-66336388D01*
G75*
G02*
X133486136Y-66248000I44194J44194D01*
G01*
G37*
%TD.AperFunction*%
%TO.P,U6,56*%
%TO.N,B2*%
%TA.AperFunction,SMDPad,CuDef*%
G36*
G01*
X133132583Y-65894447D02*
X133662913Y-65364117D01*
G75*
G02*
X133751301Y-65364117I44194J-44194D01*
G01*
X133839689Y-65452505D01*
G75*
G02*
X133839689Y-65540893I-44194J-44194D01*
G01*
X133309359Y-66071223D01*
G75*
G02*
X133220971Y-66071223I-44194J44194D01*
G01*
X133132583Y-65982835D01*
G75*
G02*
X133132583Y-65894447I44194J44194D01*
G01*
G37*
%TD.AperFunction*%
%TA.AperFunction,SMDPad,CuDef*%
D12*
%TO.P,U6,57*%
%TO.N,GND*%
G36*
X129040202Y-70800000D02*
G01*
X133000000Y-66840202D01*
X136959798Y-70800000D01*
X133000000Y-74759798D01*
X129040202Y-70800000D01*
G37*
%TD.AperFunction*%
%TD*%
D17*
%TO.P,U7,1*%
%TO.N,+3V0*%
X145650000Y-81125000D03*
%TO.P,U7,2*%
X145650000Y-80625000D03*
%TO.P,U7,3*%
X145650000Y-80125000D03*
%TO.P,U7,4*%
%TO.N,GND*%
X145650000Y-79625000D03*
%TO.P,U7,5*%
X145650000Y-79125000D03*
%TO.P,U7,6*%
%TO.N,+3V0*%
X145650000Y-78625000D03*
%TO.P,U7,7*%
%TO.N,Net-(U7-Pad7)*%
X145650000Y-78125000D03*
%TO.P,U7,8*%
%TO.N,SDI_3V*%
X145650000Y-77625000D03*
%TO.P,U7,9*%
%TO.N,SDO_3V*%
X145650000Y-77125000D03*
%TO.P,U7,10*%
%TO.N,DC_3V*%
X145650000Y-76625000D03*
%TO.P,U7,11*%
%TO.N,SCK_3V*%
X145650000Y-76125000D03*
%TO.P,U7,12*%
%TO.N,CS2_3V*%
X145650000Y-75625000D03*
%TO.P,U7,13*%
%TO.N,DISPRES*%
X145650000Y-75125000D03*
%TO.P,U7,14*%
%TO.N,R7*%
X145650000Y-74625000D03*
%TO.P,U7,15*%
%TO.N,R6*%
X145650000Y-74125000D03*
%TO.P,U7,16*%
%TO.N,R5*%
X145650000Y-73625000D03*
%TO.P,U7,17*%
%TO.N,R4*%
X145650000Y-73125000D03*
%TO.P,U7,18*%
%TO.N,R3*%
X145650000Y-72625000D03*
%TO.P,U7,19*%
%TO.N,R2*%
X145650000Y-72125000D03*
%TO.P,U7,20*%
%TO.N,R1*%
X145650000Y-71625000D03*
%TO.P,U7,21*%
%TO.N,R0*%
X145650000Y-71125000D03*
%TO.P,U7,22*%
%TO.N,G7*%
X145650000Y-70625000D03*
%TO.P,U7,23*%
%TO.N,G6*%
X145650000Y-70125000D03*
%TO.P,U7,24*%
%TO.N,G5*%
X145650000Y-69625000D03*
%TO.P,U7,25*%
%TO.N,G4*%
X145650000Y-69125000D03*
%TO.P,U7,26*%
%TO.N,G3*%
X145650000Y-68625000D03*
%TO.P,U7,27*%
%TO.N,G2*%
X145650000Y-68125000D03*
%TO.P,U7,28*%
%TO.N,G1*%
X145650000Y-67625000D03*
%TO.P,U7,29*%
%TO.N,G0*%
X145650000Y-67125000D03*
%TO.P,U7,30*%
%TO.N,B7*%
X145650000Y-66625000D03*
%TO.P,U7,31*%
%TO.N,B6*%
X145650000Y-66125000D03*
%TO.P,U7,32*%
%TO.N,B5*%
X145650000Y-65625000D03*
%TO.P,U7,33*%
%TO.N,B4*%
X145650000Y-65125000D03*
%TO.P,U7,34*%
%TO.N,B3*%
X145650000Y-64625000D03*
%TO.P,U7,35*%
%TO.N,B2*%
X145650000Y-64125000D03*
%TO.P,U7,36*%
%TO.N,B1*%
X145650000Y-63625000D03*
%TO.P,U7,37*%
%TO.N,B0*%
X145650000Y-63125000D03*
%TO.P,U7,38*%
%TO.N,GND*%
X145650000Y-62625000D03*
%TO.P,U7,39*%
%TO.N,DE*%
X145650000Y-62125000D03*
%TO.P,U7,40*%
%TO.N,PCLK*%
X145650000Y-61625000D03*
%TO.P,U7,41*%
%TO.N,HSYNC*%
X145650000Y-61125000D03*
%TO.P,U7,42*%
%TO.N,VSYNC*%
X145650000Y-60625000D03*
%TO.P,U7,43*%
%TO.N,GND*%
X145650000Y-60125000D03*
%TO.P,U7,44*%
X145650000Y-59625000D03*
%TO.P,U7,45*%
X145650000Y-59125000D03*
%TO.P,U7,46*%
X145650000Y-58625000D03*
%TO.P,U7,47*%
X145650000Y-58125000D03*
%TO.P,U7,48*%
X145650000Y-57625000D03*
%TO.P,U7,49*%
X145650000Y-57125000D03*
%TO.P,U7,50*%
X145650000Y-56625000D03*
%TO.P,U7,51*%
%TO.N,Net-(U7-Pad51)*%
X145650000Y-56125000D03*
%TO.P,U7,52*%
%TO.N,Net-(U7-Pad52)*%
X145650000Y-55625000D03*
%TO.P,U7,53*%
%TO.N,Net-(U7-Pad53)*%
X145650000Y-55125000D03*
%TO.P,U7,54*%
%TO.N,Net-(U7-Pad54)*%
X145650000Y-54625000D03*
%TO.P,U7,55*%
%TO.N,Net-(U7-Pad55)*%
X145650000Y-54125000D03*
%TO.P,U7,56*%
%TO.N,Net-(U7-Pad56)*%
X145650000Y-53625000D03*
%TO.P,U7,57*%
%TO.N,GND*%
X145650000Y-53125000D03*
%TO.P,U7,58*%
X145650000Y-52625000D03*
%TO.P,U7,59*%
X145650000Y-52125000D03*
%TO.P,U7,60*%
%TO.N,Net-(R4-Pad1)*%
X145650000Y-51625000D03*
D18*
%TO.P,U7,S1*%
%TO.N,N/C*%
X151300000Y-83275000D03*
%TO.P,U7,S2*%
X151300000Y-49475000D03*
%TD*%
D13*
%TO.P,RES_D,1*%
%TO.N,DISPRES*%
X134750000Y-81900000D03*
%TD*%
%TO.P,RES_C,1*%
%TO.N,FTRES*%
X126200000Y-68725000D03*
%TD*%
%TO.P,IRQ,1*%
%TO.N,IRQ_3V*%
X127375000Y-66725000D03*
%TD*%
D19*
%TO.N,+3V0*%
X122650000Y-56675000D03*
D20*
X127500000Y-59300000D03*
X128100000Y-59900000D03*
D19*
X125300000Y-56900000D03*
X124000000Y-56900000D03*
D21*
X120100000Y-68700000D03*
X123200000Y-67300000D03*
D20*
X143000000Y-79285002D03*
D19*
X141400000Y-83525000D03*
X142475000Y-83050000D03*
D21*
X133400000Y-78900000D03*
D20*
X129716206Y-75958794D03*
X129716206Y-75158794D03*
X128125000Y-67275000D03*
D21*
%TO.N,GND*%
X122200000Y-77300000D03*
X121900000Y-71900000D03*
X120100000Y-70300000D03*
X119600000Y-67400000D03*
X125100000Y-67200000D03*
D20*
X117500000Y-57400000D03*
D19*
X117600000Y-50300000D03*
X117700000Y-53900000D03*
X124300000Y-50300000D03*
X124300000Y-53900000D03*
X124300000Y-55500000D03*
X117600000Y-55500000D03*
X130700000Y-53000000D03*
D21*
X128100000Y-58600000D03*
X139700000Y-83500000D03*
X138700000Y-81000000D03*
D20*
X149400000Y-52100000D03*
X142400000Y-52700000D03*
X149400000Y-53100000D03*
X130400001Y-70800000D03*
X133000000Y-68325128D03*
X133000000Y-73700000D03*
X135700000Y-70800000D03*
X140050010Y-71200000D03*
X142300000Y-56600000D03*
X148600000Y-79400000D03*
X148800000Y-62300000D03*
X148825000Y-60125000D03*
D19*
X139975000Y-49700000D03*
D21*
X122100000Y-80200000D03*
D19*
X139550000Y-48750000D03*
X138400000Y-49525000D03*
X138500000Y-56775000D03*
D21*
X130700000Y-55850000D03*
D20*
X135750000Y-58450000D03*
X143275000Y-58125000D03*
X148675000Y-58600000D03*
X148700000Y-57250000D03*
D21*
X129425000Y-79400000D03*
X126225000Y-78150000D03*
X125125000Y-77050000D03*
D19*
%TO.N,VCC*%
X122700000Y-64200000D03*
%TO.N,+5V*%
X122700000Y-49000000D03*
X129300000Y-49100000D03*
X133900000Y-48800000D03*
X136500000Y-49300000D03*
%TO.N,+3V3*%
X129100000Y-56900000D03*
D20*
X128573223Y-74873223D03*
X128973223Y-74473223D03*
%TO.N,DISPRES*%
X132850000Y-80925000D03*
X125550000Y-72959305D03*
%TO.N,AUDIO*%
X119800000Y-72000000D03*
X129900000Y-63500000D03*
%TO.N,DC_3V*%
X148700000Y-77600000D03*
X123200000Y-62300000D03*
X130324999Y-81550011D03*
%TO.N,CS2_3V*%
X149800000Y-80000000D03*
X122700000Y-61600000D03*
X128425522Y-82158135D03*
%TO.N,CS1_3V*%
X121600000Y-59100000D03*
X133100000Y-61300000D03*
%TO.N,DE*%
X140100000Y-61200000D03*
X136000000Y-78400000D03*
%TO.N,VSYNC*%
X139500000Y-57900000D03*
X136000000Y-77600000D03*
%TO.N,HSYNC*%
X139500000Y-59000000D03*
X136700000Y-77500000D03*
%TO.N,PCLK*%
X139500000Y-60100000D03*
X137701409Y-77276409D03*
%TO.N,IRQ*%
X121575000Y-61825000D03*
%TO.N,SCK_3V*%
X123000000Y-59000000D03*
X138600000Y-78300000D03*
%TO.N,SDI_3V*%
X122773952Y-59675000D03*
X138999990Y-79300020D03*
%TO.N,SDO_3V*%
X123086084Y-60363916D03*
X140800000Y-78200000D03*
%TO.N,SDI_BUFFER*%
X130400000Y-61700000D03*
X128317730Y-61682270D03*
%TD*%
D22*
%TO.N,+3V0*%
X124112500Y-64187500D02*
X124112500Y-65800000D01*
X124725000Y-63575000D02*
X124112500Y-64187500D01*
X125462500Y-63575000D02*
X124725000Y-63575000D01*
X129637500Y-60050000D02*
X129500000Y-60187500D01*
D23*
X143850000Y-81150000D02*
X143300000Y-81700000D01*
X143300000Y-81700000D02*
X141887500Y-81700000D01*
X143750000Y-80650000D02*
X143200000Y-80100000D01*
X143200000Y-80100000D02*
X141887500Y-80100000D01*
X145650000Y-80650000D02*
X143750000Y-80650000D01*
X145650000Y-81150000D02*
X143850000Y-81150000D01*
D22*
X126575000Y-58375000D02*
X127500000Y-59300000D01*
X125462500Y-58375000D02*
X126575000Y-58375000D01*
X128387500Y-60187500D02*
X128100000Y-59900000D01*
X129500000Y-60187500D02*
X128387500Y-60187500D01*
D24*
X124000000Y-56900000D02*
X125300000Y-56900000D01*
D23*
X122412500Y-68700000D02*
X120100000Y-68700000D01*
X124112500Y-66387500D02*
X123200000Y-67300000D01*
X124112500Y-65800000D02*
X124112500Y-66387500D01*
D22*
X143864998Y-80150000D02*
X145650000Y-80150000D01*
X143000000Y-79285002D02*
X143864998Y-80150000D01*
X143000000Y-79285002D02*
X143318214Y-79285002D01*
X143953216Y-78650000D02*
X145650000Y-78650000D01*
X143318214Y-79285002D02*
X143953216Y-78650000D01*
D24*
X141887500Y-80100000D02*
X141887500Y-81700000D01*
X141887500Y-83037500D02*
X141400000Y-83525000D01*
X141887500Y-81700000D02*
X141887500Y-83037500D01*
X142462500Y-83037500D02*
X141887500Y-83037500D01*
D22*
X129687500Y-60375000D02*
X129500000Y-60187500D01*
X131250000Y-60375000D02*
X129687500Y-60375000D01*
D25*
X134312500Y-79212500D02*
X134312500Y-80100000D01*
X133400000Y-78900000D02*
X134312500Y-79212500D01*
D24*
X122600000Y-56900000D02*
X124000000Y-56900000D01*
D22*
X120800000Y-57000000D02*
X121587500Y-56212500D01*
X121587500Y-56212500D02*
X121587500Y-55887500D01*
D24*
X121587500Y-55500000D02*
X121587500Y-55887500D01*
X121587500Y-55887500D02*
X122600000Y-56900000D01*
X121750000Y-55337500D02*
X121587500Y-55500000D01*
X121750000Y-53900000D02*
X121750000Y-55337500D01*
D22*
X130392544Y-73761010D02*
X130392543Y-73761010D01*
X128978330Y-69253204D02*
X128978330Y-69203330D01*
X130392544Y-73761010D02*
X130392544Y-73831706D01*
X129716206Y-74437348D02*
X130392544Y-73761010D01*
X129716206Y-76858794D02*
X129716206Y-75958794D01*
X129406847Y-77168153D02*
X129716206Y-76858794D01*
X129716206Y-75958794D02*
X129716206Y-75158794D01*
X129716206Y-75158794D02*
X129716206Y-74437348D01*
X128125000Y-68399874D02*
X128125000Y-67275000D01*
X128978330Y-69253204D02*
X128125000Y-68399874D01*
D23*
%TO.N,GND*%
X123544365Y-75955635D02*
X122200000Y-77300000D01*
X123555635Y-75955635D02*
X123544365Y-75955635D01*
X123197919Y-73197919D02*
X121900000Y-71900000D01*
X123202081Y-73197919D02*
X123197919Y-73197919D01*
X122412500Y-70300000D02*
X120100000Y-70300000D01*
X119612500Y-65800000D02*
X119612500Y-67387500D01*
X125687500Y-66612500D02*
X125100000Y-67200000D01*
X125687500Y-65800000D02*
X125687500Y-66612500D01*
D22*
X118475000Y-58375000D02*
X117500000Y-57400000D01*
X119737500Y-58375000D02*
X118475000Y-58375000D01*
D24*
X120012500Y-50300000D02*
X117600000Y-50300000D01*
X119850000Y-53900000D02*
X117700000Y-53900000D01*
X126612500Y-50300000D02*
X124300000Y-50300000D01*
X126450000Y-53900000D02*
X124300000Y-53900000D01*
X126612500Y-55500000D02*
X124300000Y-55500000D01*
X120012500Y-55500000D02*
X117600000Y-55500000D01*
X132800000Y-53000000D02*
X130700000Y-53000000D01*
X138500000Y-51512500D02*
X138387500Y-51400000D01*
D23*
X129500000Y-58612500D02*
X128112500Y-58612500D01*
D25*
X140312500Y-82887500D02*
X139700000Y-83500000D01*
X140312500Y-81700000D02*
X140312500Y-82887500D01*
X139600000Y-80100000D02*
X138700000Y-81000000D01*
X140312500Y-80100000D02*
X139600000Y-80100000D01*
D22*
X149350000Y-52150000D02*
X149400000Y-52100000D01*
X145650000Y-52150000D02*
X149350000Y-52150000D01*
X142450000Y-52650000D02*
X142400000Y-52700000D01*
X145650000Y-52650000D02*
X142450000Y-52650000D01*
X149350000Y-53150000D02*
X149400000Y-53100000D01*
X145650000Y-53150000D02*
X149350000Y-53150000D01*
X133000000Y-70800000D02*
X130400001Y-70800000D01*
X133000000Y-70800000D02*
X133000000Y-68325128D01*
X133000000Y-70800000D02*
X133000000Y-73700000D01*
X133000000Y-70800000D02*
X135700000Y-70800000D01*
D24*
X142100000Y-49700000D02*
X139975000Y-49700000D01*
D23*
X122100000Y-80200000D02*
X122100000Y-80200000D01*
X120500000Y-80200000D02*
X122100000Y-80200000D01*
D22*
X138789437Y-71993243D02*
X139256767Y-71993243D01*
X139256767Y-71993243D02*
X140050010Y-71200000D01*
X142350000Y-56650000D02*
X142300000Y-56600000D01*
X145650000Y-56650000D02*
X142350000Y-56650000D01*
X148350000Y-79650000D02*
X148600000Y-79400000D01*
X145650000Y-79650000D02*
X148350000Y-79650000D01*
X148350000Y-79150000D02*
X148600000Y-79400000D01*
X145650000Y-79150000D02*
X148350000Y-79150000D01*
X147950000Y-62650000D02*
X145650000Y-62650000D01*
X148800000Y-62300000D02*
X147950000Y-62650000D01*
X148800000Y-60150000D02*
X148825000Y-60125000D01*
X145650000Y-60150000D02*
X148800000Y-60150000D01*
X138600000Y-49700000D02*
X139550000Y-48750000D01*
D24*
X138387500Y-49512500D02*
X138387500Y-49512500D01*
X139550000Y-48750000D02*
X138387500Y-49512500D01*
X138387500Y-49512500D02*
X138387500Y-51400000D01*
D22*
X132800000Y-55712500D02*
X132712500Y-55800000D01*
D24*
X138500000Y-54587500D02*
X138500000Y-56775000D01*
D23*
X130750000Y-55800000D02*
X130700000Y-55850000D01*
X132712500Y-55800000D02*
X130750000Y-55800000D01*
D22*
X135725000Y-58475000D02*
X135750000Y-58450000D01*
X133450000Y-58475000D02*
X135725000Y-58475000D01*
X148325000Y-59625000D02*
X148825000Y-60125000D01*
X145650000Y-59625000D02*
X148325000Y-59625000D01*
X144275000Y-59125000D02*
X143275000Y-58125000D01*
X145650000Y-59125000D02*
X144275000Y-59125000D01*
X148650000Y-58625000D02*
X148675000Y-58600000D01*
X145650000Y-58625000D02*
X148650000Y-58625000D01*
X148200000Y-58125000D02*
X148675000Y-58600000D01*
X145650000Y-58125000D02*
X148200000Y-58125000D01*
X148325000Y-57625000D02*
X148700000Y-57250000D01*
X145650000Y-57625000D02*
X148325000Y-57625000D01*
X148575000Y-57125000D02*
X148700000Y-57250000D01*
X145650000Y-57125000D02*
X148575000Y-57125000D01*
X138082330Y-71286136D02*
X138789437Y-71993243D01*
X133000000Y-74689088D02*
X133000000Y-70800000D01*
X132160311Y-75528777D02*
X133000000Y-74689088D01*
X130525126Y-70800000D02*
X133000000Y-70800000D01*
X128978330Y-72346796D02*
X130525126Y-70800000D01*
X133000000Y-68325126D02*
X133000000Y-70800000D01*
X131453204Y-66778330D02*
X133000000Y-68325126D01*
D23*
X128306847Y-78281847D02*
X129425000Y-79400000D01*
D22*
X128293153Y-78281847D02*
X128306847Y-78281847D01*
D23*
X127193153Y-77181847D02*
X126225000Y-78150000D01*
X126093153Y-76081847D02*
X125125000Y-77050000D01*
D22*
%TO.N,VCC*%
X121187500Y-64287500D02*
X121187500Y-65800000D01*
X120475000Y-63575000D02*
X121187500Y-64287500D01*
X119737500Y-63575000D02*
X120475000Y-63575000D01*
D23*
X122700000Y-64200000D02*
X122700000Y-65400000D01*
X122700000Y-65400000D02*
X122300000Y-65800000D01*
X122300000Y-65800000D02*
X121187500Y-65800000D01*
D24*
%TO.N,+5V*%
X135650000Y-51400000D02*
X135000000Y-52050000D01*
X136812500Y-51400000D02*
X135650000Y-51400000D01*
D22*
X135000000Y-50612500D02*
X134687500Y-50300000D01*
D24*
X134825000Y-52025000D02*
X134825000Y-50587500D01*
D22*
X135000000Y-53950000D02*
X134050000Y-53950000D01*
X134050000Y-53950000D02*
X133900000Y-53800000D01*
X134270000Y-52050000D02*
X135000000Y-52050000D01*
X133900000Y-52420000D02*
X134270000Y-52050000D01*
X133900000Y-53800000D02*
X133900000Y-52420000D01*
D24*
X128187500Y-51112500D02*
X128187500Y-50300000D01*
X127400000Y-51900000D02*
X128187500Y-51112500D01*
X121587500Y-51112500D02*
X121587500Y-50300000D01*
X120800000Y-51900000D02*
X121587500Y-51112500D01*
X121587500Y-50112500D02*
X122700000Y-49000000D01*
X121587500Y-50300000D02*
X121587500Y-50112500D01*
X128187500Y-50212500D02*
X129300000Y-49100000D01*
X128187500Y-50300000D02*
X128187500Y-50212500D01*
X134687500Y-49587500D02*
X133900000Y-48800000D01*
X134687500Y-50300000D02*
X134687500Y-49587500D01*
X136812500Y-49612500D02*
X136500000Y-49300000D01*
X136812500Y-51400000D02*
X136812500Y-49612500D01*
%TO.N,+3V3*%
X128350000Y-55337500D02*
X128187500Y-55500000D01*
X128350000Y-53900000D02*
X128350000Y-55337500D01*
X128187500Y-55987500D02*
X129100000Y-56900000D01*
X128187500Y-55500000D02*
X128187500Y-55987500D01*
D22*
X128187500Y-56012500D02*
X128187500Y-55987500D01*
X127200000Y-57000000D02*
X128187500Y-56012500D01*
X130038990Y-73407456D02*
X130038990Y-73407457D01*
X129682233Y-72350000D02*
X129331884Y-72700349D01*
X130382306Y-72672418D02*
X130059888Y-72350000D01*
X130059888Y-72350000D02*
X129682233Y-72350000D01*
X130382306Y-73064140D02*
X130382306Y-72672418D01*
X130038990Y-73407456D02*
X130382306Y-73064140D01*
X128306847Y-75139599D02*
X128573223Y-74873223D01*
X128306847Y-76068153D02*
X128306847Y-75139599D01*
X128573223Y-74873223D02*
X128973223Y-74473223D01*
X128973223Y-74473223D02*
X130038990Y-73407456D01*
D24*
%TO.N,+12V*%
X136787500Y-53000000D02*
X136800000Y-53012500D01*
X135000000Y-53000000D02*
X136787500Y-53000000D01*
X136800000Y-53012500D02*
X138500000Y-53012500D01*
X140025000Y-53012500D02*
X140100000Y-52937500D01*
X138500000Y-53012500D02*
X140025000Y-53012500D01*
D23*
X140100000Y-52937500D02*
X140100000Y-55225000D01*
D22*
%TO.N,Net-(C11-Pad1)*%
X129685437Y-73053903D02*
X128889340Y-73850000D01*
X128325000Y-73850000D02*
X127206847Y-74968153D01*
X128889340Y-73850000D02*
X128325000Y-73850000D01*
%TO.N,DISPRES*%
X143216534Y-75150000D02*
X145650000Y-75150000D01*
X141369229Y-76997302D02*
X138990198Y-76997302D01*
X138990198Y-76997302D02*
X135887500Y-80100000D01*
X143216534Y-75150000D02*
X141369229Y-76997302D01*
X127917670Y-71286136D02*
X127913864Y-71286136D01*
X126240695Y-72959305D02*
X125550000Y-72959305D01*
X127913864Y-71286136D02*
X126240695Y-72959305D01*
X132850000Y-80925000D02*
X133775000Y-81850000D01*
X133775000Y-81850000D02*
X135500000Y-81850000D01*
X135887500Y-81462500D02*
X135887500Y-80100000D01*
X135500000Y-81850000D02*
X135887500Y-81462500D01*
%TO.N,CS1*%
X117565000Y-60975000D02*
X119737500Y-60975000D01*
X112200000Y-66340000D02*
X117565000Y-60975000D01*
%TO.N,CS2*%
X112200000Y-68880000D02*
X112200000Y-68473942D01*
X119737500Y-61625000D02*
X118075000Y-61625000D01*
X118075000Y-61625000D02*
X116225000Y-63475000D01*
X116225000Y-64855000D02*
X112200000Y-68880000D01*
X116225000Y-63475000D02*
X116225000Y-64855000D01*
%TO.N,DC*%
X119737500Y-62275000D02*
X118500000Y-62275000D01*
X118500000Y-62275000D02*
X116850000Y-63925000D01*
X116850000Y-66770000D02*
X112200000Y-71420000D01*
X116850000Y-63925000D02*
X116850000Y-66770000D01*
%TO.N,AUDIO*%
X129900000Y-64518019D02*
X131099651Y-65717671D01*
X131099651Y-65717671D02*
X131806757Y-66424777D01*
X129900000Y-63500000D02*
X129900000Y-64518019D01*
X117840000Y-73960000D02*
X119800000Y-72000000D01*
X112200000Y-73960000D02*
X117840000Y-73960000D01*
%TO.N,Net-(L1-Pad2)*%
X132800000Y-50612500D02*
X133112500Y-50300000D01*
D24*
X133000000Y-52031250D02*
X133000000Y-50593750D01*
D23*
%TO.N,Net-(R1-Pad2)*%
X135587500Y-55800000D02*
X134287500Y-55800000D01*
X136800000Y-54587500D02*
X135587500Y-55800000D01*
X134287500Y-55437500D02*
X132800000Y-53950000D01*
X134287500Y-55800000D02*
X134287500Y-55437500D01*
D22*
%TO.N,Net-(R4-Pad1)*%
X140387500Y-51650000D02*
X140100000Y-51362500D01*
X145650000Y-51650000D02*
X140387500Y-51650000D01*
%TO.N,DC_3V*%
X147750000Y-76650000D02*
X148700000Y-77600000D01*
X145650000Y-76650000D02*
X147750000Y-76650000D01*
X125437500Y-62300000D02*
X125462500Y-62275000D01*
X123200000Y-62300000D02*
X125437500Y-62300000D01*
X130900000Y-82125012D02*
X130324999Y-81550011D01*
X130900000Y-83200000D02*
X130900000Y-82125012D01*
%TO.N,CS2_3V*%
X149800000Y-77885998D02*
X149800000Y-80000000D01*
X147564002Y-75650000D02*
X149800000Y-77885998D01*
X145650000Y-75650000D02*
X147564002Y-75650000D01*
X125437500Y-61600000D02*
X125462500Y-61625000D01*
X122700000Y-61600000D02*
X125437500Y-61600000D01*
X128450000Y-82182613D02*
X128425522Y-82158135D01*
X128450000Y-83225000D02*
X128450000Y-82182613D01*
%TO.N,CS1_3V*%
X122883166Y-60975000D02*
X121600000Y-59691834D01*
X121600000Y-59691834D02*
X121600000Y-59100000D01*
X125462500Y-60975000D02*
X122883166Y-60975000D01*
X133450000Y-60950000D02*
X133100000Y-61300000D01*
X133450000Y-60375000D02*
X133450000Y-60950000D01*
X133450000Y-60375000D02*
X135325000Y-60375000D01*
X127992089Y-66145642D02*
X129331884Y-67485438D01*
X129331884Y-67485438D02*
X130038990Y-68192544D01*
X126164648Y-60975000D02*
X127992089Y-62802441D01*
X127992089Y-62802441D02*
X127992089Y-66145642D01*
X125462500Y-60975000D02*
X126164648Y-60975000D01*
%TO.N,B1*%
X134464680Y-62352640D02*
X142301231Y-62352640D01*
X143598591Y-63650000D02*
X145650000Y-63650000D01*
X131806757Y-65010563D02*
X134464680Y-62352640D01*
X142301231Y-62352640D02*
X143598591Y-63650000D01*
X132513864Y-65717670D02*
X131806757Y-65010563D01*
%TO.N,B0*%
X130402781Y-64313694D02*
X131453205Y-65364117D01*
X132422124Y-61902629D02*
X130402781Y-63921971D01*
X145650000Y-63150000D02*
X143735002Y-63150000D01*
X130402781Y-63921971D02*
X130402781Y-64313694D01*
X143735002Y-63150000D02*
X142487631Y-61902629D01*
X131453205Y-65364117D02*
X132160311Y-66071223D01*
X142487631Y-61902629D02*
X132422124Y-61902629D01*
%TO.N,Net-(U6-Pad16)*%
X124340281Y-73509305D02*
X126401607Y-73509305D01*
X122954611Y-74894975D02*
X124340281Y-73509305D01*
X122494975Y-74894975D02*
X122954611Y-74894975D01*
X126401607Y-73509305D02*
X128271223Y-71639689D01*
X122000000Y-74400000D02*
X122494975Y-74894975D01*
%TO.N,Net-(U6-Pad17)*%
X126518020Y-74100000D02*
X128624777Y-71993243D01*
X125411270Y-74100000D02*
X126518020Y-74100000D01*
X124757716Y-74753554D02*
X125411270Y-74100000D01*
%TO.N,DE*%
X145650000Y-62150000D02*
X143371412Y-62150000D01*
X142421412Y-61200000D02*
X141900000Y-61200000D01*
X143371412Y-62150000D02*
X142421412Y-61200000D01*
X141900000Y-61200000D02*
X140100000Y-61200000D01*
X134193243Y-76593243D02*
X134193243Y-76589437D01*
X136000000Y-78400000D02*
X134193243Y-76593243D01*
X133486136Y-75886136D02*
X134193243Y-76593243D01*
X133486136Y-75882330D02*
X133486136Y-75886136D01*
%TO.N,VSYNC*%
X143774999Y-60560001D02*
X143774999Y-59774999D01*
X143839999Y-60625001D02*
X143774999Y-60560001D01*
X145625001Y-60625001D02*
X143839999Y-60625001D01*
X143774999Y-59774999D02*
X141900000Y-57900000D01*
X145650000Y-60650000D02*
X145625001Y-60625001D01*
X141900000Y-57900000D02*
X139500000Y-57900000D01*
X135910913Y-77600000D02*
X136000000Y-77600000D01*
X133839690Y-75528777D02*
X135910913Y-77600000D01*
X133839689Y-75528777D02*
X133839690Y-75528777D01*
%TO.N,HSYNC*%
X143728587Y-61150000D02*
X145650000Y-61150000D01*
X141900000Y-59000000D02*
X143324988Y-60424988D01*
X143324988Y-60424988D02*
X143324988Y-60746401D01*
X143324988Y-60746401D02*
X143728587Y-61150000D01*
X141900000Y-59000000D02*
X139500000Y-59000000D01*
X135950772Y-76932753D02*
X134900349Y-75882329D01*
X134900349Y-75882329D02*
X134193243Y-75175223D01*
X136132753Y-76932753D02*
X135950772Y-76932753D01*
X136700000Y-77500000D02*
X136132753Y-76932753D01*
%TO.N,PCLK*%
X141957823Y-60100000D02*
X141900000Y-60100000D01*
X143507823Y-61650000D02*
X141957823Y-60100000D01*
X145650000Y-61650000D02*
X143507823Y-61650000D01*
X141900000Y-60100000D02*
X139500000Y-60100000D01*
X134900349Y-74475349D02*
X137701409Y-77276409D01*
X134900349Y-74468116D02*
X134900349Y-74475349D01*
%TO.N,R7*%
X137686633Y-76547293D02*
X135961010Y-74821670D01*
X143080125Y-74650000D02*
X141182829Y-76547293D01*
X145650000Y-74650000D02*
X143080125Y-74650000D01*
X141182829Y-76547293D02*
X137686633Y-76547293D01*
X135253903Y-74117493D02*
X135253903Y-74114563D01*
X135958080Y-74821670D02*
X135253903Y-74117493D01*
X135961010Y-74821670D02*
X135958080Y-74821670D01*
%TO.N,R6*%
X137943720Y-76097273D02*
X140996438Y-76097273D01*
X135607457Y-73761010D02*
X137943720Y-76097273D01*
X142943711Y-74150000D02*
X145650000Y-74150000D01*
X140996438Y-76097273D02*
X142943711Y-74150000D01*
X135607456Y-73761010D02*
X135607457Y-73761010D01*
%TO.N,R5*%
X138200824Y-75647271D02*
X136668116Y-74114562D01*
X140810029Y-75647271D02*
X138200824Y-75647271D01*
X136668116Y-74114562D02*
X135961010Y-73407456D01*
X142807302Y-73650000D02*
X140810029Y-75647271D01*
X145650000Y-73650000D02*
X142807302Y-73650000D01*
%TO.N,R4*%
X142670890Y-73150000D02*
X145650000Y-73150000D01*
X138457915Y-75197254D02*
X140623636Y-75197254D01*
X140623636Y-75197254D02*
X142670890Y-73150000D01*
X136314563Y-73053903D02*
X138457915Y-75197254D01*
%TO.N,R3*%
X142534480Y-72650000D02*
X145650000Y-72650000D01*
X140437237Y-74747243D02*
X142534480Y-72650000D01*
X138715010Y-74747243D02*
X140437237Y-74747243D01*
X136668116Y-72700349D02*
X138715010Y-74747243D01*
%TO.N,R2*%
X140250838Y-74297232D02*
X142398070Y-72150000D01*
X142398070Y-72150000D02*
X145650000Y-72150000D01*
X138972106Y-74297232D02*
X140250838Y-74297232D01*
X137021670Y-72346796D02*
X138972106Y-74297232D01*
%TO.N,R1*%
X140064438Y-73847221D02*
X142261659Y-71650000D01*
X137375224Y-71993243D02*
X139229202Y-73847221D01*
X142261659Y-71650000D02*
X145650000Y-71650000D01*
X139229202Y-73847221D02*
X140064438Y-73847221D01*
X137375223Y-71993243D02*
X137375224Y-71993243D01*
%TO.N,R0*%
X139878038Y-73397210D02*
X142125248Y-71150000D01*
X139486297Y-73397210D02*
X139878038Y-73397210D01*
X137728777Y-71639690D02*
X139486297Y-73397210D01*
X142125248Y-71150000D02*
X145650000Y-71150000D01*
X137728777Y-71639689D02*
X137728777Y-71639690D01*
%TO.N,G7*%
X139832680Y-70650000D02*
X145650000Y-70650000D01*
X138789437Y-69606757D02*
X139832680Y-70650000D01*
X138082330Y-70313864D02*
X138789437Y-69606757D01*
%TO.N,G6*%
X139486306Y-68202781D02*
X139878029Y-68202781D01*
X141825248Y-70150000D02*
X145650000Y-70150000D01*
X137728777Y-69960310D02*
X139486306Y-68202781D01*
X139878029Y-68202781D02*
X141825248Y-70150000D01*
X137728777Y-69960311D02*
X137728777Y-69960310D01*
%TO.N,G5*%
X141961659Y-69650000D02*
X145650000Y-69650000D01*
X140064429Y-67752770D02*
X141961659Y-69650000D01*
X139229211Y-67752770D02*
X140064429Y-67752770D01*
X137375224Y-69606757D02*
X139229211Y-67752770D01*
X137375223Y-69606757D02*
X137375224Y-69606757D01*
%TO.N,G4*%
X140250840Y-67302770D02*
X142098070Y-69150000D01*
X142098070Y-69150000D02*
X145650000Y-69150000D01*
X138972104Y-67302770D02*
X140250840Y-67302770D01*
X137021670Y-69253204D02*
X138972104Y-67302770D01*
%TO.N,G3*%
X142234481Y-68650000D02*
X145650000Y-68650000D01*
X138715008Y-66852759D02*
X140437240Y-66852759D01*
X140437240Y-66852759D02*
X142234481Y-68650000D01*
X136668116Y-68899651D02*
X138715008Y-66852759D01*
%TO.N,G2*%
X138457912Y-66402748D02*
X140623640Y-66402748D01*
X142370892Y-68150000D02*
X145650000Y-68150000D01*
X140623640Y-66402748D02*
X142370892Y-68150000D01*
X136314563Y-68546097D02*
X138457912Y-66402748D01*
%TO.N,G1*%
X142507303Y-67650000D02*
X145650000Y-67650000D01*
X135961010Y-68192543D02*
X138200817Y-65952737D01*
X140810040Y-65952737D02*
X142507303Y-67650000D01*
X138200817Y-65952737D02*
X140810040Y-65952737D01*
X135961010Y-68192544D02*
X135961010Y-68192543D01*
%TO.N,G0*%
X140996440Y-65502726D02*
X142643714Y-67150000D01*
X142643714Y-67150000D02*
X145650000Y-67150000D01*
X137943723Y-65502726D02*
X140996440Y-65502726D01*
X135607457Y-67838990D02*
X137943723Y-65502726D01*
X135607456Y-67838990D02*
X135607457Y-67838990D01*
%TO.N,B7*%
X135961010Y-66778330D02*
X137686628Y-65052715D01*
X137686628Y-65052715D02*
X141182840Y-65052715D01*
X141182840Y-65052715D02*
X142780125Y-66650000D01*
X142780125Y-66650000D02*
X145650000Y-66650000D01*
X135253903Y-67485437D02*
X135961010Y-66778330D01*
%TO.N,B6*%
X137429532Y-64602704D02*
X141369241Y-64602705D01*
X141369241Y-64602705D02*
X142916536Y-66150000D01*
X142916536Y-66150000D02*
X145650000Y-66150000D01*
X135607456Y-66424777D02*
X137429532Y-64602704D01*
X134900349Y-67131884D02*
X135607456Y-66424777D01*
%TO.N,B5*%
X141555642Y-64152695D02*
X143052947Y-65650000D01*
X137172436Y-64152693D02*
X141555642Y-64152695D01*
X135253903Y-66071223D02*
X137172436Y-64152693D01*
X143052947Y-65650000D02*
X145650000Y-65650000D01*
X134546796Y-66778330D02*
X135253903Y-66071223D01*
%TO.N,B4*%
X136915339Y-63702682D02*
X134900349Y-65717671D01*
X141742043Y-63702685D02*
X136915339Y-63702682D01*
X134900349Y-65717671D02*
X134193243Y-66424777D01*
X143189358Y-65150000D02*
X141742043Y-63702685D01*
X145650000Y-65150000D02*
X143189358Y-65150000D01*
%TO.N,B3*%
X141928444Y-63252675D02*
X143325769Y-64650000D01*
X136658243Y-63252671D02*
X141928444Y-63252675D01*
X143325769Y-64650000D02*
X145650000Y-64650000D01*
X133839690Y-66071223D02*
X136658243Y-63252671D01*
X133839689Y-66071223D02*
X133839690Y-66071223D01*
%TO.N,B2*%
X143462180Y-64150000D02*
X145650000Y-64150000D01*
X142114832Y-62802652D02*
X143462180Y-64150000D01*
X136401155Y-62802652D02*
X142114832Y-62802652D01*
X133486136Y-65717670D02*
X136401155Y-62802652D01*
%TO.N,FTRES*%
X123987500Y-70300000D02*
X123987500Y-68700000D01*
X126303806Y-68700000D02*
X127210563Y-69606757D01*
X123987500Y-68700000D02*
X126303806Y-68700000D01*
X123900000Y-70387500D02*
X123987500Y-70300000D01*
X127210563Y-69606757D02*
X127917670Y-70313864D01*
%TO.N,IRQ*%
X120475000Y-62925000D02*
X121575000Y-61825000D01*
X119737500Y-62925000D02*
X120475000Y-62925000D01*
%TO.N,SCK*%
X112505000Y-59025000D02*
X119737500Y-59025000D01*
X112200000Y-58720000D02*
X112505000Y-59025000D01*
%TO.N,SDI*%
X113785000Y-59675000D02*
X119737500Y-59675000D01*
X112200000Y-61260000D02*
X113785000Y-59675000D01*
%TO.N,SDO*%
X115675000Y-60325000D02*
X119737500Y-60325000D01*
X112200000Y-63800000D02*
X115675000Y-60325000D01*
%TO.N,SCK_3V*%
X129342121Y-61928828D02*
X129342121Y-65374354D01*
X126438293Y-59025000D02*
X129342121Y-61928828D01*
X125462500Y-59025000D02*
X126438293Y-59025000D01*
X129342121Y-65374354D02*
X130392544Y-66424777D01*
X123025000Y-59025000D02*
X123000000Y-59000000D01*
X125462500Y-59025000D02*
X123025000Y-59025000D01*
X139700012Y-77499988D02*
X139500000Y-77700000D01*
X143850000Y-76150000D02*
X142500012Y-77499988D01*
X142500012Y-77499988D02*
X139700012Y-77499988D01*
X145650000Y-76150000D02*
X143850000Y-76150000D01*
X139200000Y-77700000D02*
X138600000Y-78300000D01*
X139500000Y-77700000D02*
X139200000Y-77700000D01*
X130392544Y-66424777D02*
X131099651Y-67131884D01*
%TO.N,SDI_3V*%
X124773942Y-59675000D02*
X125462500Y-59675000D01*
X122773952Y-59675000D02*
X125462500Y-59675000D01*
X143864998Y-77650000D02*
X145650000Y-77650000D01*
X140075001Y-78775001D02*
X140000000Y-78700000D01*
X142739997Y-78775001D02*
X140075001Y-78775001D01*
X143864998Y-77650000D02*
X142739997Y-78775001D01*
X139600010Y-78700000D02*
X138999990Y-79300020D01*
X140000000Y-78700000D02*
X139600010Y-78700000D01*
X130624990Y-57849990D02*
X131250000Y-58475000D01*
X122648962Y-57849990D02*
X130624990Y-57849990D01*
X122400000Y-59301048D02*
X122400000Y-58098952D01*
X122400000Y-58098952D02*
X122648962Y-57849990D01*
X122773952Y-59675000D02*
X122400000Y-59301048D01*
%TO.N,SDO_3V*%
X123125000Y-60325000D02*
X123086084Y-60363916D01*
X125462500Y-60325000D02*
X123125000Y-60325000D01*
X145650000Y-77150000D02*
X143728588Y-77150000D01*
X143728588Y-77150000D02*
X142828598Y-78049990D01*
X141850010Y-78049990D02*
X141700000Y-78200000D01*
X142828598Y-78049990D02*
X141850010Y-78049990D01*
X141700000Y-78200000D02*
X140800000Y-78200000D01*
X129685438Y-67131884D02*
X130392544Y-67838990D01*
X128442099Y-62616041D02*
X128442099Y-65888546D01*
X128442099Y-65888546D02*
X129685438Y-67131884D01*
X126151058Y-60325000D02*
X128442099Y-62616041D01*
X125462500Y-60325000D02*
X126151058Y-60325000D01*
%TO.N,SDI_BUFFER*%
X131325000Y-61700000D02*
X130400000Y-61700000D01*
X132589998Y-59400000D02*
X132399999Y-59589999D01*
X132399999Y-60625001D02*
X131325000Y-61700000D01*
X132399999Y-59589999D02*
X132399999Y-60625001D01*
X133050000Y-59400000D02*
X132589998Y-59400000D01*
X128892110Y-65631450D02*
X130746097Y-67485437D01*
X128892110Y-62256650D02*
X128892110Y-65631450D01*
X128317730Y-61682270D02*
X128892110Y-62256650D01*
%TO.N,IRQ_3V*%
X127400000Y-64125000D02*
X127400000Y-69089088D01*
X126200000Y-62925000D02*
X127400000Y-64125000D01*
X127400000Y-69089088D02*
X128271223Y-69960311D01*
X125462500Y-62925000D02*
X126200000Y-62925000D01*
%TD*%
D26*
%TO.N,+3V0*%
G36*
X124107086Y-56657841D02*
G01*
X124107086Y-56921851D01*
X122326522Y-56743795D01*
X122087420Y-56077724D01*
X124107086Y-56657841D01*
G37*
X124107086Y-56657841D02*
X124107086Y-56921851D01*
X122326522Y-56743795D01*
X122087420Y-56077724D01*
X124107086Y-56657841D01*
%TD*%
M02*
